<?xml version="1.0" encoding="UTF-8" standalone="no"?>
<!DOCTYPE svg PUBLIC "-//W3C//DTD SVG 20010904//EN"
              "http://www.w3.org/TR/2001/REC-SVG-20010904/DTD/svg10.dtd">

<svg xmlns="http://www.w3.org/2000/svg"
     width="1137.78in" height="1137.78in"
     viewBox="0 0 81920 81920">
  <path id="Selection"
        fill="none" stroke="black" stroke-width="1"
        d="M 39601.00,19746.42
           C 39611.13,19745.19 39619.99,19746.95 39630.00,19747.00
             39645.43,19747.07 39670.52,19753.50 39686.00,19757.37
             39698.87,19760.59 39704.47,19765.98 39718.00,19766.00
             39718.00,19766.00 39737.00,19766.00 39737.00,19766.00
             39737.00,19766.00 39747.00,19766.91 39747.00,19766.91
             39778.46,19769.21 39788.63,19773.60 39817.00,19786.14
             39817.00,19786.14 39842.00,19797.31 39842.00,19797.31
             39842.00,19797.31 39867.00,19813.33 39867.00,19813.33
             39880.01,19821.96 39894.61,19829.75 39904.67,19842.00
             39910.32,19848.87 39909.25,19852.70 39913.46,19860.00
             39913.46,19860.00 39927.68,19882.00 39927.68,19882.00
             39927.68,19882.00 39946.06,19920.00 39946.06,19920.00
             39949.33,19925.30 39957.33,19936.43 39961.44,19940.83
             39961.44,19940.83 39970.83,19950.00 39970.83,19950.00
             39970.83,19950.00 39989.00,19971.00 39989.00,19971.00
             39989.00,19971.00 40004.83,19986.04 40004.83,19986.04
             40004.83,19986.04 40011.04,19992.91 40011.04,19992.91
             40011.04,19992.91 40032.00,20011.28 40032.00,20011.28
             40044.01,20021.86 40049.33,20029.39 40067.00,20028.99
             40091.41,20028.43 40104.68,20003.37 40133.00,20004.01
             40144.78,20004.28 40159.82,20006.81 40170.00,20012.93
             40177.78,20017.60 40182.55,20024.80 40189.00,20030.96
             40189.00,20030.96 40214.00,20050.84 40214.00,20050.84
             40214.00,20050.84 40238.00,20065.42 40238.00,20065.42
             40261.58,20080.04 40286.11,20094.96 40306.91,20113.46
             40316.55,20122.04 40316.86,20132.94 40324.33,20142.00
             40324.33,20142.00 40333.96,20152.00 40333.96,20152.00
             40333.96,20152.00 40343.01,20161.96 40343.01,20161.96
             40343.01,20161.96 40370.00,20186.08 40370.00,20186.08
             40370.00,20186.08 40390.00,20204.70 40390.00,20204.70
             40390.00,20204.70 40404.00,20215.23 40404.00,20215.23
             40404.00,20215.23 40423.00,20230.15 40423.00,20230.15
             40434.24,20238.47 40444.17,20246.98 40459.00,20247.00
             40459.00,20247.00 40497.00,20247.00 40497.00,20247.00
             40497.00,20247.00 40513.00,20248.00 40513.00,20248.00
             40513.00,20248.00 40543.00,20248.00 40543.00,20248.00
             40543.00,20248.00 40554.00,20247.04 40554.00,20247.04
             40561.49,20246.80 40575.08,20248.70 40582.00,20251.62
             40590.86,20255.34 40598.11,20261.98 40603.30,20270.00
             40608.15,20277.49 40611.17,20286.00 40619.00,20291.30
             40622.28,20293.52 40629.02,20295.60 40633.00,20297.28
             40633.00,20297.28 40651.00,20304.94 40651.00,20304.94
             40651.00,20304.94 40673.00,20312.87 40673.00,20312.87
             40673.00,20312.87 40700.00,20325.58 40700.00,20325.58
             40700.00,20325.58 40723.00,20334.42 40723.00,20334.42
             40723.00,20334.42 40751.00,20345.42 40751.00,20345.42
             40758.99,20348.44 40777.36,20356.34 40785.00,20355.91
             40785.00,20355.91 40803.00,20355.00 40803.00,20355.00
             40818.12,20355.18 40832.47,20359.49 40847.00,20363.13
             40863.15,20367.17 40887.39,20372.62 40902.00,20379.31
             40924.56,20389.64 40956.01,20415.00 40976.00,20430.58
             40976.00,20430.58 41018.00,20462.17 41018.00,20462.17
             41024.71,20468.16 41030.12,20475.38 41036.17,20482.00
             41036.17,20482.00 41046.99,20492.04 41046.99,20492.04
             41046.99,20492.04 41063.00,20509.00 41063.00,20509.00
             41063.00,20509.00 41106.33,20554.00 41106.33,20554.00
             41112.74,20562.14 41113.54,20566.46 41117.81,20575.00
             41117.81,20575.00 41133.55,20604.00 41133.55,20604.00
             41133.55,20604.00 41154.66,20633.00 41154.66,20633.00
             41169.80,20655.24 41183.49,20678.36 41196.31,20702.00
             41196.31,20702.00 41213.31,20734.00 41213.31,20734.00
             41213.31,20734.00 41220.37,20746.00 41220.37,20746.00
             41227.65,20761.25 41223.48,20761.65 41236.44,20782.00
             41248.40,20800.79 41267.04,20818.25 41267.96,20842.00
             41268.42,20853.71 41264.50,20857.39 41259.31,20867.00
             41259.31,20867.00 41247.66,20887.00 41247.66,20887.00
             41247.66,20887.00 41230.81,20911.00 41230.81,20911.00
             41230.81,20911.00 41217.22,20938.00 41217.22,20938.00
             41217.22,20938.00 41200.74,20971.00 41200.74,20971.00
             41200.74,20971.00 41181.42,21002.00 41181.42,21002.00
             41181.42,21002.00 41164.54,21031.00 41164.54,21031.00
             41164.54,21031.00 41153.69,21047.00 41153.69,21047.00
             41147.28,21056.96 41137.82,21075.80 41134.00,21087.00
             41132.46,21091.52 41129.45,21099.55 41129.09,21104.00
             41128.51,21111.32 41130.60,21118.99 41132.58,21126.00
             41135.32,21135.72 41138.62,21146.04 41143.32,21155.00
             41143.32,21155.00 41153.05,21172.00 41153.05,21172.00
             41153.05,21172.00 41160.63,21184.00 41160.63,21184.00
             41160.63,21184.00 41166.43,21198.00 41166.43,21198.00
             41166.43,21198.00 41173.69,21213.00 41173.69,21213.00
             41173.69,21213.00 41177.97,21223.00 41177.97,21223.00
             41177.97,21223.00 41187.20,21241.00 41187.20,21241.00
             41189.48,21244.90 41191.23,21246.40 41193.33,21251.00
             41193.33,21251.00 41201.90,21274.00 41201.90,21274.00
             41201.90,21274.00 41220.07,21300.00 41220.07,21300.00
             41220.07,21300.00 41246.25,21352.00 41246.25,21352.00
             41252.45,21364.41 41259.99,21372.57 41260.91,21387.00
             41261.83,21401.29 41255.73,21409.88 41250.92,21422.00
             41250.92,21422.00 41243.74,21442.00 41243.74,21442.00
             41243.74,21442.00 41221.45,21480.00 41221.45,21480.00
             41221.45,21480.00 41212.25,21496.00 41212.25,21496.00
             41212.25,21496.00 41199.47,21513.00 41199.47,21513.00
             41199.47,21513.00 41182.65,21545.00 41182.65,21545.00
             41182.65,21545.00 41165.55,21568.00 41165.55,21568.00
             41165.55,21568.00 41156.69,21585.00 41156.69,21585.00
             41156.69,21585.00 41146.33,21601.00 41146.33,21601.00
             41134.17,21619.28 41130.39,21644.81 41111.00,21657.30
             41100.42,21664.12 41094.61,21663.19 41084.00,21666.59
             41084.00,21666.59 41066.00,21674.40 41066.00,21674.40
             41066.00,21674.40 41049.00,21680.07 41049.00,21680.07
             41049.00,21680.07 41039.00,21685.11 41039.00,21685.11
             41039.00,21685.11 41021.00,21692.55 41021.00,21692.55
             41021.00,21692.55 40986.00,21704.33 40986.00,21704.33
             40986.00,21704.33 40947.00,21715.72 40947.00,21715.72
             40947.00,21715.72 40927.00,21722.58 40927.00,21722.58
             40927.00,21722.58 40914.00,21726.35 40914.00,21726.35
             40914.00,21726.35 40905.00,21728.34 40905.00,21728.34
             40899.18,21730.34 40898.26,21734.29 40892.00,21736.52
             40892.00,21736.52 40872.00,21742.06 40872.00,21742.06
             40854.92,21748.59 40831.51,21762.01 40818.00,21774.17
             40802.22,21788.37 40798.87,21797.51 40788.00,21814.00
             40778.20,21828.85 40768.86,21842.01 40765.62,21860.00
             40764.63,21865.45 40765.06,21871.43 40765.00,21877.00
             40765.00,21877.00 40759.00,21932.00 40759.00,21932.00
             40759.04,21959.28 40768.56,21981.65 40776.66,22007.00
             40776.66,22007.00 40783.44,22033.00 40783.44,22033.00
             40783.44,22033.00 40795.42,22065.00 40795.42,22065.00
             40795.42,22065.00 40808.43,22099.00 40808.43,22099.00
             40811.86,22106.95 40815.40,22109.92 40817.00,22114.00
             40817.92,22116.34 40818.96,22128.06 40819.00,22131.00
             40819.00,22131.00 40819.00,22147.00 40819.00,22147.00
             40819.00,22147.00 40825.00,22202.00 40825.00,22202.00
             40825.00,22202.00 40825.00,22227.00 40825.00,22227.00
             40824.98,22241.63 40820.82,22254.81 40818.43,22269.00
             40818.43,22269.00 40815.49,22291.00 40815.49,22291.00
             40812.02,22307.56 40799.86,22335.94 40791.69,22351.00
             40783.10,22366.85 40774.87,22375.23 40764.73,22389.00
             40764.73,22389.00 40738.91,22423.00 40738.91,22423.00
             40727.71,22435.03 40725.11,22432.80 40717.00,22440.10
             40698.11,22457.13 40683.49,22475.31 40660.00,22486.52
             40639.51,22496.29 40625.81,22497.47 40604.00,22501.08
             40604.00,22501.08 40583.00,22504.46 40583.00,22504.46
             40583.00,22504.46 40568.00,22507.72 40568.00,22507.72
             40568.00,22507.72 40548.00,22510.52 40548.00,22510.52
             40548.00,22510.52 40528.00,22516.85 40528.00,22516.85
             40528.00,22516.85 40513.00,22520.43 40513.00,22520.43
             40503.22,22523.19 40486.62,22530.21 40478.00,22535.46
             40478.00,22535.46 40442.00,22563.45 40442.00,22563.45
             40420.94,22580.27 40416.38,22595.29 40399.91,22613.00
             40399.91,22613.00 40366.00,22648.00 40366.00,22648.00
             40366.00,22648.00 40345.17,22669.00 40345.17,22669.00
             40345.17,22669.00 40333.90,22682.00 40333.90,22682.00
             40333.90,22682.00 40317.20,22705.00 40317.20,22705.00
             40317.20,22705.00 40303.29,22721.00 40303.29,22721.00
             40303.29,22721.00 40295.54,22730.91 40295.54,22730.91
             40295.54,22730.91 40288.41,22738.04 40288.41,22738.04
             40288.41,22738.04 40276.74,22763.00 40276.74,22763.00
             40270.27,22775.53 40257.78,22791.70 40247.00,22800.68
             40232.09,22813.10 40209.16,22821.33 40190.00,22823.71
             40190.00,22823.71 40160.00,22826.17 40160.00,22826.17
             40160.00,22826.17 40125.00,22833.39 40125.00,22833.39
             40117.23,22834.79 40100.33,22836.05 40094.00,22839.05
             40094.00,22839.05 40061.00,22864.57 40061.00,22864.57
             40061.00,22864.57 40029.00,22884.52 40029.00,22884.52
             40029.00,22884.52 40016.00,22893.97 40016.00,22893.97
             40016.00,22893.97 39982.00,22914.69 39982.00,22914.69
             39982.00,22914.69 39965.00,22923.31 39965.00,22923.31
             39943.60,22934.88 39922.54,22947.69 39899.00,22954.58
             39864.90,22964.54 39844.35,22962.39 39820.00,22969.72
             39820.00,22969.72 39759.00,22991.28 39759.00,22991.28
             39743.86,22995.84 39721.66,23000.81 39706.00,23002.72
             39706.00,23002.72 39688.00,23004.17 39688.00,23004.17
             39688.00,23004.17 39649.00,23008.00 39649.00,23008.00
             39649.00,23008.00 39539.00,23008.00 39539.00,23008.00
             39525.04,23007.98 39508.87,23003.76 39495.00,23001.43
             39495.00,23001.43 39454.00,22996.00 39454.00,22996.00
             39454.00,22996.00 39421.00,22989.21 39421.00,22989.21
             39415.72,22988.93 39408.18,22992.88 39398.00,22993.00
             39381.69,22993.19 39373.91,22988.65 39359.00,22983.67
             39344.04,22978.66 39317.92,22966.04 39305.00,22957.25
             39305.00,22957.25 39286.00,22942.87 39286.00,22942.87
             39286.00,22942.87 39267.00,22928.69 39267.00,22928.69
             39267.00,22928.69 39247.00,22911.17 39247.00,22911.17
             39247.00,22911.17 39235.28,22900.58 39235.28,22900.58
             39235.28,22900.58 39222.00,22887.17 39222.00,22887.17
             39216.33,22882.05 39207.35,22875.47 39202.61,22869.96
             39196.26,22862.57 39191.94,22855.39 39187.15,22847.00
             39172.97,22822.14 39167.67,22803.59 39168.00,22775.00
             39168.18,22759.73 39174.71,22728.18 39180.45,22714.00
             39183.24,22707.12 39191.77,22691.32 39195.86,22685.00
             39195.86,22685.00 39229.45,22640.00 39229.45,22640.00
             39232.98,22634.51 39234.90,22628.90 39237.43,22623.00
             39237.43,22623.00 39243.45,22610.00 39243.45,22610.00
             39245.51,22604.17 39248.99,22582.35 39249.00,22576.00
             39249.00,22576.00 39249.00,22459.00 39249.00,22459.00
             39249.00,22459.00 39242.15,22401.00 39242.15,22401.00
             39242.15,22401.00 39240.09,22383.00 39240.09,22383.00
             39240.09,22383.00 39239.56,22371.00 39239.56,22371.00
             39239.56,22371.00 39233.10,22336.00 39233.10,22336.00
             39233.10,22336.00 39228.46,22320.00 39228.46,22320.00
             39228.46,22320.00 39222.55,22278.00 39222.55,22278.00
             39219.35,22261.99 39210.19,22221.93 39204.55,22208.00
             39198.15,22192.19 39185.21,22178.59 39185.00,22161.00
             39184.79,22142.81 39190.91,22125.02 39199.32,22109.00
             39199.32,22109.00 39215.34,22082.00 39215.34,22082.00
             39215.34,22082.00 39225.87,22050.00 39225.87,22050.00
             39225.87,22050.00 39238.45,22025.00 39238.45,22025.00
             39238.45,22025.00 39249.37,22007.00 39249.37,22007.00
             39249.37,22007.00 39260.78,21980.00 39260.78,21980.00
             39260.78,21980.00 39284.56,21946.00 39284.56,21946.00
             39287.05,21940.91 39286.65,21936.31 39287.17,21931.00
             39287.17,21931.00 39289.00,21910.00 39289.00,21910.00
             39289.00,21910.00 39290.00,21873.00 39290.00,21873.00
             39290.00,21873.00 39291.00,21858.00 39291.00,21858.00
             39291.20,21840.68 39287.92,21839.11 39279.87,21825.00
             39279.87,21825.00 39267.46,21800.00 39267.46,21800.00
             39267.46,21800.00 39251.53,21739.00 39251.53,21739.00
             39249.36,21733.69 39244.05,21727.29 39240.81,21722.00
             39231.42,21706.68 39218.22,21682.16 39218.00,21664.00
             39217.92,21656.72 39218.02,21649.05 39220.04,21642.00
             39220.04,21642.00 39241.86,21595.00 39241.86,21595.00
             39245.60,21586.54 39248.95,21579.44 39249.00,21570.00
             39249.00,21570.00 39249.00,21564.00 39249.00,21564.00
             39248.75,21542.64 39238.25,21522.36 39238.00,21501.00
             39238.00,21501.00 39238.00,21479.00 39238.00,21479.00
             39238.00,21479.00 39237.04,21467.00 39237.04,21467.00
             39237.04,21467.00 39237.04,21452.00 39237.04,21452.00
             39236.99,21444.13 39232.79,21422.35 39230.05,21415.00
             39224.11,21399.05 39214.96,21388.63 39204.27,21376.00
             39204.27,21376.00 39193.71,21363.00 39193.71,21363.00
             39193.71,21363.00 39184.29,21353.00 39184.29,21353.00
             39184.29,21353.00 39175.91,21343.00 39175.91,21343.00
             39175.91,21343.00 39152.67,21319.72 39152.67,21319.72
             39152.67,21319.72 39132.83,21294.00 39132.83,21294.00
             39114.49,21273.47 39087.10,21252.99 39061.00,21243.69
             39061.00,21243.69 39022.00,21232.26 39022.00,21232.26
             39022.00,21232.26 38983.00,21227.72 38983.00,21227.72
             38969.85,21225.95 38953.64,21221.78 38941.00,21217.67
             38928.80,21213.71 38911.64,21209.62 38902.04,21200.82
             38891.61,21191.26 38885.80,21171.15 38880.15,21158.00
             38880.15,21158.00 38871.83,21139.00 38871.83,21139.00
             38865.51,21127.76 38862.34,21126.08 38858.90,21112.00
             38851.30,21080.90 38856.21,21056.95 38841.94,21020.00
             38837.29,21007.96 38829.04,20992.28 38822.57,20981.00
             38822.57,20981.00 38812.81,20964.00 38812.81,20964.00
             38812.81,20964.00 38802.02,20940.00 38802.02,20940.00
             38802.02,20940.00 38792.40,20924.00 38792.40,20924.00
             38792.40,20924.00 38789.56,20916.00 38789.56,20916.00
             38787.42,20910.12 38784.69,20903.47 38781.69,20898.00
             38781.69,20898.00 38755.78,20855.00 38755.78,20855.00
             38755.78,20855.00 38742.93,20838.00 38742.93,20838.00
             38742.93,20838.00 38725.69,20803.00 38725.69,20803.00
             38725.69,20803.00 38714.31,20785.00 38714.31,20785.00
             38714.31,20785.00 38697.69,20752.00 38697.69,20752.00
             38697.69,20752.00 38688.04,20737.00 38688.04,20737.00
             38688.04,20737.00 38681.25,20712.00 38681.25,20712.00
             38681.25,20712.00 38672.43,20690.00 38672.43,20690.00
             38664.42,20662.04 38664.66,20646.43 38665.00,20618.00
             38665.14,20606.88 38669.77,20602.67 38673.31,20593.00
             38673.31,20593.00 38678.98,20577.00 38678.98,20577.00
             38678.98,20577.00 38683.34,20563.00 38683.34,20563.00
             38683.34,20563.00 38698.13,20533.00 38698.13,20533.00
             38698.13,20533.00 38716.97,20481.00 38716.97,20481.00
             38716.97,20481.00 38721.09,20466.00 38721.09,20466.00
             38721.09,20466.00 38737.26,20430.00 38737.26,20430.00
             38737.26,20430.00 38743.69,20418.00 38743.69,20418.00
             38743.69,20418.00 38752.31,20394.00 38752.31,20394.00
             38752.31,20394.00 38760.60,20378.00 38760.60,20378.00
             38760.60,20378.00 38766.40,20370.00 38766.40,20370.00
             38766.40,20370.00 38771.52,20361.00 38771.52,20361.00
             38774.29,20356.82 38778.91,20351.39 38780.96,20347.00
             38780.96,20347.00 38787.09,20324.00 38787.09,20324.00
             38787.09,20324.00 38792.95,20309.00 38792.95,20309.00
             38792.95,20309.00 38807.43,20272.00 38807.43,20272.00
             38807.43,20272.00 38832.17,20221.00 38832.17,20221.00
             38832.17,20221.00 38842.88,20204.00 38842.88,20204.00
             38842.88,20204.00 38853.81,20178.00 38853.81,20178.00
             38853.81,20178.00 38865.60,20156.00 38865.60,20156.00
             38865.60,20156.00 38877.68,20136.00 38877.68,20136.00
             38877.68,20136.00 38897.35,20093.00 38897.35,20093.00
             38897.35,20093.00 38920.55,20063.00 38920.55,20063.00
             38920.55,20063.00 38941.53,20026.01 38941.53,20026.01
             38946.88,20019.27 38966.18,20005.39 38974.00,19999.98
             38974.00,19999.98 39004.00,19979.02 39004.00,19979.02
             39017.49,19969.73 39023.80,19966.82 39036.99,19955.41
             39041.08,19951.87 39042.48,19949.71 39046.04,19946.00
             39046.04,19946.00 39067.00,19925.04 39067.00,19925.04
             39067.00,19925.04 39095.83,19900.54 39095.83,19900.54
             39095.83,19900.54 39107.17,19888.30 39107.17,19888.30
             39107.17,19888.30 39117.00,19880.39 39117.00,19880.39
             39117.00,19880.39 39141.00,19860.79 39141.00,19860.79
             39141.00,19860.79 39173.00,19836.34 39173.00,19836.34
             39173.00,19836.34 39222.00,19812.45 39222.00,19812.45
             39222.00,19812.45 39251.00,19802.31 39251.00,19802.31
             39251.00,19802.31 39275.00,19793.91 39275.00,19793.91
             39275.00,19793.91 39310.00,19785.63 39310.00,19785.63
             39310.00,19785.63 39393.00,19766.26 39393.00,19766.26
             39393.00,19766.26 39423.00,19762.57 39423.00,19762.57
             39423.00,19762.57 39449.00,19757.61 39449.00,19757.61
             39463.49,19755.00 39479.30,19754.02 39494.00,19754.00
             39494.00,19754.00 39545.00,19747.00 39545.00,19747.00
             39545.00,19747.00 39601.00,19746.42 39601.00,19746.42 Z" />
</svg>
