<?xml version="1.0" encoding="UTF-8" standalone="no"?>
<!DOCTYPE svg PUBLIC "-//W3C//DTD SVG 20010904//EN"
              "http://www.w3.org/TR/2001/REC-SVG-20010904/DTD/svg10.dtd">

<svg xmlns="http://www.w3.org/2000/svg"
     width="7314.29mm" height="7314.29mm"
     viewBox="0 0 20480 20480">
  <path id="Aodar"
        fill="none" stroke="black" stroke-width="1"
        d="M 9738.00,5217.00
           C 9726.08,5218.57 9714.02,5218.96 9702.00,5219.00
             9702.00,5219.00 9670.00,5219.96 9670.00,5219.96
             9670.00,5219.96 9658.00,5219.18 9658.00,5219.18
             9658.00,5219.18 9631.00,5221.90 9631.00,5221.90
             9631.00,5221.90 9599.00,5219.00 9599.00,5219.00
             9599.00,5219.00 9590.00,5219.00 9590.00,5219.00
             9590.00,5219.00 9575.00,5218.00 9575.00,5218.00
             9565.93,5217.90 9550.47,5220.60 9545.01,5211.96
             9538.70,5201.98 9547.19,5191.32 9548.03,5188.00
             9548.54,5185.99 9548.15,5183.51 9549.64,5180.01
             9550.65,5177.66 9552.42,5175.94 9552.63,5173.72
             9552.92,5171.98 9551.98,5170.23 9552.63,5167.00
             9552.63,5167.00 9555.61,5158.00 9555.61,5158.00
             9556.48,5154.02 9555.43,5147.36 9563.02,5143.45
             9566.38,5141.72 9570.32,5141.98 9574.00,5142.00
             9574.00,5142.00 9584.00,5142.82 9584.00,5142.82
             9584.00,5142.82 9594.00,5142.21 9594.00,5142.21
             9594.00,5142.21 9605.42,5143.95 9605.42,5143.95
             9605.42,5143.95 9616.00,5143.41 9616.00,5143.41
             9616.00,5143.41 9633.00,5142.22 9633.00,5142.22
             9633.00,5142.22 9665.00,5141.51 9665.00,5141.51
             9665.00,5141.51 9676.41,5142.15 9676.41,5142.15
             9676.41,5142.15 9682.00,5141.46 9682.00,5141.46
             9682.00,5141.46 9711.00,5143.81 9711.00,5143.81
             9711.00,5143.81 9731.00,5141.18 9731.00,5141.18
             9731.00,5141.18 9756.00,5142.51 9756.00,5142.51
             9756.00,5142.51 9764.00,5144.00 9764.00,5144.00
             9764.00,5144.00 9775.00,5144.00 9775.00,5144.00
             9782.03,5144.84 9788.94,5145.93 9796.00,5145.51
             9796.00,5145.51 9806.00,5146.04 9806.00,5146.04
             9806.00,5146.04 9818.00,5146.04 9818.00,5146.04
             9821.89,5146.00 9826.37,5146.39 9830.00,5144.93
             9830.00,5144.93 9848.00,5134.65 9848.00,5134.65
             9857.46,5131.56 9862.88,5132.83 9871.00,5131.56
             9883.48,5129.61 9890.19,5125.82 9904.00,5126.00
             9910.78,5126.09 9917.48,5129.27 9924.00,5131.23
             9931.84,5133.58 9943.84,5135.18 9952.00,5135.05
             9955.98,5134.99 9966.67,5135.24 9970.00,5136.64
             9982.61,5141.95 9990.68,5161.15 9998.44,5172.00
             10005.46,5181.82 10015.38,5189.20 10018.00,5202.00
             10023.18,5200.86 10024.06,5201.40 10029.00,5203.00
             10030.56,5195.65 10037.40,5190.38 10045.00,5192.65
             10048.56,5193.72 10053.42,5197.97 10057.00,5200.14
             10075.22,5211.19 10078.20,5211.74 10093.72,5227.28
             10093.72,5227.28 10104.09,5237.93 10104.09,5237.93
             10104.09,5237.93 10109.78,5243.17 10109.78,5243.17
             10112.81,5246.44 10112.94,5248.90 10116.13,5250.49
             10118.98,5251.91 10130.72,5253.23 10134.00,5252.79
             10138.97,5252.13 10142.35,5249.70 10148.00,5252.01
             10153.60,5254.30 10155.71,5259.69 10159.29,5262.42
             10159.29,5262.42 10180.00,5272.05 10180.00,5272.05
             10183.31,5273.48 10193.52,5276.14 10197.00,5276.34
             10200.01,5276.73 10204.07,5275.52 10208.00,5276.34
             10212.69,5277.07 10214.14,5279.86 10218.00,5281.69
             10221.53,5283.37 10223.87,5282.52 10228.00,5284.44
             10236.98,5288.60 10238.23,5291.57 10245.01,5296.87
             10249.50,5300.37 10255.00,5303.95 10258.83,5308.04
             10258.83,5308.04 10265.30,5315.70 10265.30,5315.70
             10269.04,5319.44 10271.30,5319.92 10275.32,5325.01
             10280.06,5331.02 10280.56,5335.67 10284.29,5342.00
             10284.29,5342.00 10291.77,5353.00 10291.77,5353.00
             10291.77,5353.00 10300.81,5369.00 10300.81,5369.00
             10300.81,5369.00 10304.72,5376.00 10304.72,5376.00
             10304.72,5376.00 10307.98,5383.72 10307.98,5383.72
             10309.68,5386.48 10312.98,5388.46 10314.35,5393.00
             10316.47,5400.03 10311.13,5405.20 10308.32,5411.00
             10308.32,5411.00 10304.07,5420.00 10304.07,5420.00
             10304.07,5420.00 10292.41,5438.00 10292.41,5438.00
             10290.44,5441.83 10291.50,5443.08 10289.31,5447.00
             10287.75,5449.78 10281.10,5459.50 10280.93,5462.00
             10280.69,5465.50 10287.71,5475.82 10289.79,5479.00
             10289.79,5479.00 10297.09,5490.00 10297.09,5490.00
             10297.09,5490.00 10301.28,5498.91 10301.28,5498.91
             10301.28,5498.91 10307.00,5506.04 10307.00,5506.04
             10307.00,5506.04 10309.96,5512.72 10309.96,5512.72
             10311.45,5515.20 10314.08,5516.92 10315.35,5521.00
             10318.01,5529.52 10311.42,5536.45 10307.24,5543.00
             10307.24,5543.00 10300.65,5555.00 10300.65,5555.00
             10300.65,5555.00 10296.06,5562.00 10296.06,5562.00
             10296.06,5562.00 10293.01,5568.00 10293.01,5568.00
             10293.01,5568.00 10287.92,5575.00 10287.92,5575.00
             10287.92,5575.00 10278.88,5592.52 10278.88,5592.52
             10277.06,5594.72 10274.52,5594.73 10272.00,5595.61
             10272.00,5595.61 10265.00,5598.79 10265.00,5598.79
             10265.00,5598.79 10258.00,5600.97 10258.00,5600.97
             10258.00,5600.97 10252.00,5603.68 10252.00,5603.68
             10252.00,5603.68 10244.00,5606.34 10244.00,5606.34
             10244.00,5606.34 10232.00,5611.98 10232.00,5611.98
             10223.48,5615.43 10217.26,5616.54 10209.00,5622.10
             10198.49,5629.19 10192.70,5641.49 10193.51,5654.00
             10194.25,5665.32 10196.43,5664.94 10199.40,5674.00
             10200.38,5676.97 10200.36,5678.89 10201.83,5682.00
             10201.83,5682.00 10207.07,5692.00 10207.07,5692.00
             10207.07,5692.00 10209.91,5702.00 10209.91,5702.00
             10213.87,5715.82 10214.80,5720.62 10211.50,5735.00
             10210.84,5737.90 10206.27,5751.89 10205.00,5753.96
             10203.70,5756.08 10202.12,5757.43 10200.58,5759.28
             10200.58,5759.28 10192.39,5769.83 10192.39,5769.83
             10192.39,5769.83 10183.21,5779.00 10183.21,5779.00
             10183.21,5779.00 10178.37,5785.79 10178.37,5785.79
             10176.80,5787.66 10167.94,5796.18 10165.98,5796.99
             10162.20,5798.57 10155.72,5797.69 10151.00,5798.44
             10143.90,5799.56 10131.10,5804.08 10125.00,5807.87
             10115.54,5813.75 10111.76,5816.68 10104.09,5825.00
             10104.09,5825.00 10098.49,5831.61 10098.49,5831.61
             10098.49,5831.61 10092.51,5836.39 10092.51,5836.39
             10092.51,5836.39 10087.77,5845.00 10087.77,5845.00
             10084.51,5850.14 10081.99,5852.02 10078.41,5856.28
             10073.90,5861.66 10075.33,5868.78 10066.96,5873.99
             10063.23,5876.32 10060.06,5875.74 10056.00,5876.46
             10048.95,5877.71 10032.74,5880.00 10026.00,5879.63
             10018.36,5879.21 10015.12,5876.05 10012.58,5876.53
             10012.58,5876.53 10006.00,5880.10 10006.00,5880.10
             10006.00,5880.10 9979.00,5897.04 9979.00,5897.04
             9979.00,5897.04 9969.00,5900.90 9969.00,5900.90
             9959.56,5905.68 9957.51,5908.50 9946.00,5911.39
             9946.00,5911.39 9921.00,5913.66 9921.00,5913.66
             9921.00,5913.66 9912.00,5913.09 9912.00,5913.09
             9912.00,5913.09 9900.00,5913.79 9900.00,5913.79
             9900.00,5913.79 9879.00,5913.79 9879.00,5913.79
             9879.00,5913.79 9868.00,5911.21 9868.00,5911.21
             9856.58,5909.57 9845.24,5908.30 9835.00,5902.37
             9830.13,5899.54 9816.98,5886.70 9813.97,5882.00
             9813.97,5882.00 9810.18,5874.00 9810.18,5874.00
             9804.98,5863.59 9804.02,5863.26 9804.00,5851.00
             9804.00,5851.00 9804.00,5838.00 9804.00,5838.00
             9804.10,5831.11 9805.15,5831.74 9805.94,5826.00
             9806.72,5820.21 9807.18,5811.01 9809.84,5806.04
             9814.03,5798.22 9821.13,5801.33 9821.72,5793.00
             9821.72,5793.00 9820.94,5787.00 9820.94,5787.00
             9820.94,5787.00 9820.94,5778.00 9820.94,5778.00
             9820.94,5778.00 9818.16,5762.00 9818.16,5762.00
             9818.16,5762.00 9816.02,5731.28 9816.02,5731.28
             9815.20,5725.91 9807.73,5723.54 9810.43,5713.00
             9811.50,5708.79 9818.30,5697.18 9820.66,5693.00
             9820.66,5693.00 9829.02,5675.00 9829.02,5675.00
             9832.17,5668.99 9837.36,5663.01 9837.06,5656.00
             9837.06,5656.00 9837.06,5642.00 9837.06,5642.00
             9837.06,5637.90 9838.68,5633.89 9837.06,5629.96
             9837.06,5629.96 9828.05,5612.21 9828.05,5612.21
             9824.87,5608.09 9819.79,5606.94 9819.11,5599.00
             9818.44,5591.28 9822.93,5586.91 9823.58,5581.00
             9824.41,5576.74 9823.18,5573.84 9823.58,5570.00
             9823.58,5570.00 9825.53,5544.00 9825.53,5544.00
             9825.12,5535.81 9817.17,5525.98 9812.19,5520.00
             9807.36,5514.18 9807.70,5512.78 9800.83,5506.27
             9792.46,5498.34 9775.53,5490.29 9764.00,5488.74
             9758.53,5488.23 9754.87,5491.65 9748.00,5488.74
             9745.73,5487.58 9742.29,5485.47 9740.63,5483.62
             9737.81,5480.48 9730.24,5465.29 9729.38,5461.00
             9729.38,5461.00 9727.50,5447.00 9727.50,5447.00
             9725.98,5440.56 9722.43,5432.10 9719.70,5426.00
             9719.70,5426.00 9705.67,5397.00 9705.67,5397.00
             9705.67,5397.00 9699.37,5387.00 9699.37,5387.00
             9699.37,5387.00 9693.36,5379.00 9693.36,5379.00
             9691.25,5375.27 9691.28,5372.93 9690.44,5371.09
             9688.10,5365.88 9682.49,5365.66 9683.04,5353.00
             9683.04,5353.00 9688.73,5324.00 9688.73,5324.00
             9688.73,5324.00 9696.79,5308.00 9696.79,5308.00
             9696.79,5308.00 9698.66,5302.00 9698.66,5302.00
             9698.66,5302.00 9701.31,5296.00 9701.31,5296.00
             9702.31,5293.01 9701.79,5291.73 9703.40,5288.00
             9703.40,5288.00 9712.68,5270.00 9712.68,5270.00
             9712.68,5270.00 9716.05,5263.00 9716.05,5263.00
             9716.05,5263.00 9720.90,5255.00 9720.90,5255.00
             9728.85,5239.83 9728.10,5235.65 9732.55,5226.00
             9732.55,5226.00 9738.00,5217.00 9738.00,5217.00 Z" />
</svg>
