<?xml version="1.0" encoding="UTF-8" standalone="no"?>
<!DOCTYPE svg PUBLIC "-//W3C//DTD SVG 20010904//EN"
              "http://www.w3.org/TR/2001/REC-SVG-20010904/DTD/svg10.dtd">

<svg xmlns="http://www.w3.org/2000/svg"
     width="28895.9mm" height="28895.9mm"
     viewBox="0 0 81920 81920">
  <path id="Selection #2"
        fill="none" stroke="black" stroke-width="1"
        d="M 39560.00,19897.21
           C 39560.00,19897.21 39603.00,19897.21 39603.00,19897.21
             39628.18,19897.00 39645.78,19895.87 39671.00,19900.42
             39671.00,19900.42 39708.00,19909.35 39708.00,19909.35
             39719.75,19913.27 39722.81,19916.98 39736.00,19917.00
             39736.00,19917.00 39760.00,19917.00 39760.00,19917.00
             39760.00,19917.00 39770.00,19917.92 39770.00,19917.92
             39798.40,19920.19 39812.83,19927.35 39838.00,19938.70
             39838.00,19938.70 39858.00,19947.27 39858.00,19947.27
             39858.00,19947.27 39906.00,19978.42 39906.00,19978.42
             39911.45,19982.65 39921.40,19991.24 39924.78,19997.00
             39927.33,20001.35 39926.75,20004.35 39930.44,20011.00
             39930.44,20011.00 39944.22,20032.00 39944.22,20032.00
             39944.22,20032.00 39961.23,20068.00 39961.23,20068.00
             39964.76,20074.05 39973.79,20086.81 39978.32,20091.96
             39978.32,20091.96 39987.25,20100.18 39987.25,20100.18
             39987.25,20100.18 40002.00,20117.99 40002.00,20117.99
             40002.00,20117.99 40014.00,20129.91 40014.00,20129.91
             40014.00,20129.91 40021.26,20136.32 40021.26,20136.32
             40021.26,20136.32 40028.01,20143.99 40028.01,20143.99
             40028.01,20143.99 40051.91,20164.89 40051.91,20164.89
             40051.91,20164.89 40060.01,20172.47 40060.01,20172.47
             40065.82,20177.02 40076.63,20180.35 40084.00,20179.82
             40101.42,20178.55 40105.60,20172.58 40119.00,20164.46
             40119.00,20164.46 40128.00,20160.11 40128.00,20160.11
             40134.82,20156.89 40134.83,20155.11 40143.00,20155.00
             40143.00,20155.00 40154.00,20155.00 40154.00,20155.00
             40165.90,20155.14 40181.50,20158.94 40191.00,20166.39
             40191.00,20166.39 40209.09,20184.68 40209.09,20184.68
             40209.09,20184.68 40232.00,20202.66 40232.00,20202.66
             40232.00,20202.66 40253.00,20215.06 40253.00,20215.06
             40275.93,20229.21 40288.23,20236.57 40310.00,20253.35
             40310.00,20253.35 40323.91,20264.29 40323.91,20264.29
             40335.25,20274.89 40332.69,20282.80 40342.52,20294.99
             40342.52,20294.99 40351.91,20304.04 40351.91,20304.04
             40351.91,20304.04 40360.01,20312.96 40360.01,20312.96
             40360.01,20312.96 40393.00,20342.43 40393.00,20342.43
             40393.00,20342.43 40408.00,20356.56 40408.00,20356.56
             40408.00,20356.56 40422.00,20366.90 40422.00,20366.90
             40422.00,20366.90 40432.00,20375.32 40432.00,20375.32
             40432.00,20375.32 40441.00,20381.68 40441.00,20381.68
             40441.00,20381.68 40449.00,20388.36 40449.00,20388.36
             40451.14,20389.84 40466.61,20397.10 40469.00,20397.87
             40471.12,20398.07 40473.81,20398.00 40476.00,20397.87
             40476.00,20397.87 40519.00,20397.87 40519.00,20397.87
             40519.00,20397.87 40534.00,20399.00 40534.00,20399.00
             40534.00,20399.00 40555.00,20399.00 40555.00,20399.00
             40555.00,20399.00 40568.00,20398.00 40568.00,20398.00
             40589.05,20397.76 40603.26,20399.53 40617.67,20417.00
             40624.54,20425.32 40626.75,20437.11 40637.00,20443.07
             40637.00,20443.07 40649.00,20447.60 40649.00,20447.60
             40649.00,20447.60 40667.00,20455.45 40667.00,20455.45
             40667.00,20455.45 40687.00,20462.31 40687.00,20462.31
             40687.00,20462.31 40723.00,20479.13 40723.00,20479.13
             40723.00,20479.13 40744.00,20486.68 40744.00,20486.68
             40744.00,20486.68 40764.00,20494.69 40764.00,20494.69
             40764.00,20494.69 40796.00,20506.59 40796.00,20506.59
             40796.00,20506.59 40808.00,20506.00 40808.00,20506.00
             40808.00,20506.00 40824.00,20506.00 40824.00,20506.00
             40838.69,20506.18 40852.89,20511.10 40867.00,20514.63
             40884.43,20518.98 40905.95,20523.71 40922.00,20531.32
             40929.54,20534.89 40944.74,20545.44 40952.00,20550.58
             40952.00,20550.58 40964.00,20558.59 40964.00,20558.59
             40964.00,20558.59 40997.00,20584.54 40997.00,20584.54
             40997.00,20584.54 41033.00,20611.30 41033.00,20611.30
             41041.54,20618.62 41046.85,20625.99 41054.17,20634.00
             41054.17,20634.00 41065.00,20644.04 41065.00,20644.04
             41065.00,20644.04 41076.04,20656.00 41076.04,20656.00
             41076.04,20656.00 41092.72,20672.28 41092.72,20672.28
             41092.72,20672.28 41113.17,20693.99 41113.17,20693.99
             41113.17,20693.99 41122.79,20704.01 41122.79,20704.01
             41130.00,20712.99 41131.32,20718.23 41135.80,20728.00
             41135.80,20728.00 41141.47,20737.00 41141.47,20737.00
             41141.47,20737.00 41149.80,20754.00 41149.80,20754.00
             41149.80,20754.00 41168.26,20779.00 41168.26,20779.00
             41185.54,20803.96 41201.46,20830.15 41215.64,20857.00
             41215.64,20857.00 41231.01,20886.00 41231.01,20886.00
             41231.01,20886.00 41237.68,20897.00 41237.68,20897.00
             41237.68,20897.00 41244.47,20917.00 41244.47,20917.00
             41246.36,20921.64 41252.56,20931.38 41255.46,20936.00
             41255.46,20936.00 41264.51,20948.00 41264.51,20948.00
             41273.28,20960.00 41284.82,20976.69 41285.00,20992.00
             41285.17,21006.40 41283.46,21003.59 41277.25,21016.00
             41265.45,21039.58 41261.28,21040.52 41248.70,21060.00
             41241.58,21071.02 41236.79,21083.21 41231.22,21095.00
             41231.22,21095.00 41216.75,21124.00 41216.75,21124.00
             41216.75,21124.00 41198.09,21153.00 41198.09,21153.00
             41198.09,21153.00 41181.92,21181.00 41181.92,21181.00
             41181.92,21181.00 41170.86,21197.00 41170.86,21197.00
             41164.44,21207.07 41153.02,21229.74 41149.85,21241.00
             41147.75,21248.43 41145.71,21250.58 41146.04,21259.00
             41146.21,21263.43 41147.55,21268.67 41148.63,21273.00
             41153.33,21291.91 41157.91,21302.11 41167.59,21319.00
             41167.59,21319.00 41177.95,21335.00 41177.95,21335.00
             41177.95,21335.00 41185.17,21353.00 41185.17,21353.00
             41185.17,21353.00 41191.64,21366.00 41191.64,21366.00
             41191.64,21366.00 41194.98,21374.00 41194.98,21374.00
             41194.98,21374.00 41199.88,21383.00 41199.88,21383.00
             41199.88,21383.00 41203.53,21391.00 41203.53,21391.00
             41205.66,21394.74 41208.42,21397.04 41210.20,21401.00
             41213.71,21408.79 41214.27,21419.56 41223.92,21433.00
             41223.92,21433.00 41237.39,21451.00 41237.39,21451.00
             41237.39,21451.00 41264.36,21505.00 41264.36,21505.00
             41271.55,21519.86 41278.20,21523.34 41278.00,21541.00
             41277.90,21549.60 41274.90,21558.30 41271.22,21566.00
             41271.22,21566.00 41267.33,21574.00 41267.33,21574.00
             41267.33,21574.00 41264.65,21584.00 41264.65,21584.00
             41258.11,21600.07 41247.42,21616.42 41238.09,21631.00
             41238.09,21631.00 41229.19,21647.00 41229.19,21647.00
             41229.19,21647.00 41217.10,21662.00 41217.10,21662.00
             41217.10,21662.00 41198.94,21697.00 41198.94,21697.00
             41198.94,21697.00 41182.77,21718.00 41182.77,21718.00
             41182.77,21718.00 41173.13,21737.00 41173.13,21737.00
             41173.13,21737.00 41160.31,21756.00 41160.31,21756.00
             41153.18,21768.91 41145.41,21793.41 41134.99,21802.82
             41129.34,21807.91 41120.36,21812.53 41113.00,21814.51
             41113.00,21814.51 41100.00,21817.35 41100.00,21817.35
             41100.00,21817.35 41081.00,21825.94 41081.00,21825.94
             41081.00,21825.94 41065.00,21830.90 41065.00,21830.90
             41065.00,21830.90 41056.00,21835.73 41056.00,21835.73
             41056.00,21835.73 41035.00,21844.33 41035.00,21844.33
             41035.00,21844.33 41002.00,21855.28 41002.00,21855.28
             41002.00,21855.28 40961.00,21867.19 40961.00,21867.19
             40961.00,21867.19 40948.00,21871.97 40948.00,21871.97
             40948.00,21871.97 40933.00,21876.52 40933.00,21876.52
             40933.00,21876.52 40921.01,21879.03 40921.01,21879.03
             40915.58,21881.11 40915.37,21885.14 40910.83,21886.99
             40910.83,21886.99 40897.00,21889.88 40897.00,21889.88
             40891.74,21891.29 40883.17,21895.10 40878.00,21897.44
             40862.47,21904.44 40839.63,21918.63 40828.17,21931.01
             40822.71,21936.91 40816.92,21945.19 40812.55,21952.00
             40812.55,21952.00 40807.41,21961.00 40807.41,21961.00
             40795.67,21978.80 40785.86,21991.11 40782.22,22013.00
             40782.22,22013.00 40782.22,22029.00 40782.22,22029.00
             40781.92,22035.69 40781.11,22035.46 40780.30,22041.00
             40780.30,22041.00 40776.00,22075.00 40776.00,22075.00
             40775.98,22090.73 40777.82,22107.75 40781.88,22123.00
             40781.88,22123.00 40794.56,22160.00 40794.56,22160.00
             40794.56,22160.00 40800.76,22185.00 40800.76,22185.00
             40800.76,22185.00 40808.73,22207.00 40808.73,22207.00
             40808.73,22207.00 40816.63,22226.00 40816.63,22226.00
             40816.63,22226.00 40825.28,22250.00 40825.28,22250.00
             40829.67,22260.00 40833.57,22261.55 40834.69,22266.00
             40836.34,22272.62 40835.96,22294.11 40836.00,22302.00
             40836.00,22302.00 40842.00,22350.00 40842.00,22350.00
             40842.00,22350.00 40842.00,22379.00 40842.00,22379.00
             40841.98,22392.74 40837.85,22406.54 40835.46,22420.00
             40835.46,22420.00 40832.76,22441.00 40832.76,22441.00
             40828.53,22459.01 40818.47,22483.70 40809.69,22500.00
             40805.89,22507.06 40797.44,22519.68 40792.49,22526.00
             40792.49,22526.00 40783.57,22537.00 40783.57,22537.00
             40775.79,22548.03 40761.93,22567.74 40752.91,22576.96
             40745.78,22584.24 40739.45,22585.70 40735.28,22589.39
             40712.20,22609.80 40703.95,22624.49 40674.00,22638.68
             40656.88,22646.79 40642.99,22648.13 40625.00,22651.25
             40625.00,22651.25 40599.00,22655.46 40599.00,22655.46
             40599.00,22655.46 40584.00,22658.73 40584.00,22658.73
             40584.00,22658.73 40565.00,22661.24 40565.00,22661.24
             40565.00,22661.24 40545.00,22667.57 40545.00,22667.57
             40545.00,22667.57 40530.00,22671.15 40530.00,22671.15
             40520.77,22673.68 40505.27,22680.14 40497.00,22684.87
             40487.18,22690.49 40484.93,22694.02 40477.00,22700.54
             40477.00,22700.54 40459.00,22713.89 40459.00,22713.89
             40438.70,22729.61 40431.07,22748.56 40418.68,22761.42
             40418.68,22761.42 40392.00,22790.00 40392.00,22790.00
             40392.00,22790.00 40380.00,22801.04 40380.00,22801.04
             40380.00,22801.04 40353.29,22829.00 40353.29,22829.00
             40353.29,22829.00 40335.68,22854.00 40335.68,22854.00
             40335.68,22854.00 40318.17,22874.00 40318.17,22874.00
             40318.17,22874.00 40312.47,22881.70 40312.47,22881.70
             40312.47,22881.70 40304.56,22889.09 40304.56,22889.09
             40304.56,22889.09 40295.73,22910.00 40295.73,22910.00
             40289.46,22922.54 40276.57,22940.66 40266.00,22949.70
             40249.62,22963.72 40227.24,22972.07 40206.00,22974.71
             40206.00,22974.71 40175.00,22977.28 40175.00,22977.28
             40175.00,22977.28 40140.00,22984.54 40140.00,22984.54
             40132.27,22985.99 40116.07,22986.95 40110.00,22990.00
             40105.39,22992.31 40101.87,22996.26 40098.00,22999.57
             40098.00,22999.57 40076.00,23016.85 40076.00,23016.85
             40076.00,23016.85 40045.00,23035.70 40045.00,23035.70
             40045.00,23035.70 40031.00,23045.98 40031.00,23045.98
             40031.00,23045.98 40003.00,23063.14 40003.00,23063.14
             40003.00,23063.14 39984.00,23072.86 39984.00,23072.86
             39960.82,23085.79 39937.73,23099.23 39912.00,23106.57
             39900.55,23109.84 39888.82,23112.28 39877.00,23113.72
             39860.81,23115.68 39852.45,23115.82 39836.00,23120.72
             39836.00,23120.72 39816.00,23127.92 39816.00,23127.92
             39816.00,23127.92 39798.00,23134.06 39798.00,23134.06
             39798.00,23134.06 39782.00,23140.26 39782.00,23140.26
             39765.68,23145.54 39738.99,23151.65 39722.00,23153.72
             39722.00,23153.72 39704.00,23155.17 39704.00,23155.17
             39704.00,23155.17 39669.00,23159.00 39669.00,23159.00
             39669.00,23159.00 39558.00,23159.00 39558.00,23159.00
             39541.26,23158.97 39525.33,23154.49 39509.00,23151.61
             39509.00,23151.61 39498.00,23150.83 39498.00,23150.83
             39498.00,23150.83 39475.00,23147.75 39475.00,23147.75
             39475.00,23147.75 39439.00,23139.98 39439.00,23139.98
             39434.19,23139.29 39429.14,23142.01 39424.00,23142.92
             39414.36,23144.62 39405.44,23144.35 39396.00,23141.56
             39396.00,23141.56 39383.00,23136.69 39383.00,23136.69
             39383.00,23136.69 39373.00,23133.54 39373.00,23133.54
             39357.61,23127.65 39335.79,23116.81 39322.00,23107.91
             39322.00,23107.91 39306.00,23095.65 39306.00,23095.65
             39306.00,23095.65 39284.00,23079.34 39284.00,23079.34
             39284.00,23079.34 39269.00,23066.29 39269.00,23066.29
             39269.00,23066.29 39252.00,23051.00 39252.00,23051.00
             39252.00,23051.00 39240.91,23039.32 39240.91,23039.32
             39232.31,23031.59 39225.44,23027.72 39217.46,23018.00
             39212.05,23011.39 39206.87,23002.54 39202.77,22995.00
             39190.19,22971.86 39184.69,22954.55 39185.00,22928.00
             39185.20,22910.98 39191.26,22880.84 39197.46,22865.00
             39200.20,22858.01 39209.50,22841.53 39213.70,22835.00
             39213.70,22835.00 39246.90,22791.00 39246.90,22791.00
             39250.64,22785.27 39252.12,22779.18 39254.86,22773.00
             39254.86,22773.00 39261.01,22761.00 39261.01,22761.00
             39261.01,22761.00 39263.25,22747.00 39263.25,22747.00
             39263.25,22747.00 39265.94,22733.00 39265.94,22733.00
             39265.94,22733.00 39265.94,22702.00 39265.94,22702.00
             39265.94,22702.00 39265.94,22605.00 39265.94,22605.00
             39265.94,22605.00 39258.00,22542.00 39258.00,22542.00
             39258.00,22542.00 39256.96,22532.00 39256.96,22532.00
             39256.96,22532.00 39256.96,22524.00 39256.96,22524.00
             39256.96,22524.00 39251.67,22495.00 39251.67,22495.00
             39251.67,22495.00 39250.39,22487.00 39250.39,22487.00
             39250.39,22487.00 39245.38,22471.00 39245.38,22471.00
             39245.38,22471.00 39243.71,22456.00 39243.71,22456.00
             39243.71,22456.00 39239.71,22429.00 39239.71,22429.00
             39239.71,22429.00 39229.63,22385.00 39229.63,22385.00
             39226.57,22372.96 39223.51,22361.10 39217.68,22350.00
             39212.29,22339.72 39202.16,22325.56 39202.00,22314.00
             39202.00,22314.00 39202.00,22307.00 39202.00,22307.00
             39202.03,22289.05 39212.22,22267.48 39220.86,22252.00
             39220.86,22252.00 39232.74,22233.00 39232.74,22233.00
             39232.74,22233.00 39242.43,22202.00 39242.43,22202.00
             39242.43,22202.00 39255.60,22176.00 39255.60,22176.00
             39255.60,22176.00 39266.68,22158.00 39266.68,22158.00
             39266.68,22158.00 39276.78,22133.00 39276.78,22133.00
             39280.86,22125.16 39286.01,22117.95 39291.42,22111.00
             39294.05,22107.63 39300.26,22100.36 39301.88,22097.00
             39304.08,22092.41 39303.70,22087.82 39304.17,22083.00
             39304.17,22083.00 39306.00,22062.00 39306.00,22062.00
             39306.00,22062.00 39307.00,22023.00 39307.00,22023.00
             39307.00,22023.00 39308.00,22008.00 39308.00,22008.00
             39308.21,21989.32 39304.01,21987.99 39295.43,21973.00
             39295.43,21973.00 39284.01,21950.00 39284.01,21950.00
             39284.01,21950.00 39271.88,21902.00 39271.88,21902.00
             39271.88,21902.00 39269.16,21890.00 39269.16,21890.00
             39267.38,21885.07 39262.39,21879.79 39259.46,21875.00
             39249.93,21859.37 39235.22,21833.38 39235.00,21815.00
             39234.89,21805.18 39235.17,21797.45 39238.55,21788.00
             39238.55,21788.00 39243.75,21777.00 39243.75,21777.00
             39249.80,21764.91 39263.63,21739.28 39265.84,21727.00
             39265.84,21727.00 39265.84,21718.00 39265.84,21718.00
             39266.51,21692.89 39255.32,21675.76 39255.00,21649.00
             39255.00,21649.00 39255.00,21627.00 39255.00,21627.00
             39255.00,21627.00 39254.04,21615.00 39254.04,21615.00
             39254.04,21615.00 39254.04,21601.00 39254.04,21601.00
             39253.99,21592.45 39252.63,21590.14 39251.00,21582.00
             39251.00,21582.00 39247.53,21566.00 39247.53,21566.00
             39245.14,21559.70 39237.27,21545.24 39233.18,21540.00
             39233.18,21540.00 39221.74,21526.83 39221.74,21526.83
             39221.74,21526.83 39209.71,21512.00 39209.71,21512.00
             39209.71,21512.00 39201.75,21503.83 39201.75,21503.83
             39201.75,21503.83 39192.96,21493.00 39192.96,21493.00
             39192.96,21493.00 39180.00,21480.09 39180.00,21480.09
             39180.00,21480.09 39170.18,21471.00 39170.18,21471.00
             39170.18,21471.00 39149.83,21444.00 39149.83,21444.00
             39143.13,21436.50 39135.76,21430.06 39128.00,21423.74
             39109.22,21408.46 39096.88,21400.84 39074.00,21392.69
             39074.00,21392.69 39039.00,21382.61 39039.00,21382.61
             39039.00,21382.61 39002.00,21378.72 39002.00,21378.72
             38988.00,21376.93 38969.44,21372.13 38956.00,21367.67
             38943.65,21363.56 38928.86,21360.21 38919.17,21351.38
             38908.05,21341.26 38904.61,21325.37 38898.69,21312.00
             38898.69,21312.00 38888.96,21289.00 38888.96,21289.00
             38888.96,21289.00 38882.54,21280.00 38882.54,21280.00
             38881.55,21278.47 38876.80,21266.83 38876.38,21265.00
             38869.07,21232.87 38872.17,21204.85 38859.57,21172.00
             38854.75,21159.43 38846.17,21142.76 38839.43,21131.00
             38839.43,21131.00 38830.00,21115.00 38830.00,21115.00
             38830.00,21115.00 38818.49,21089.00 38818.49,21089.00
             38818.49,21089.00 38808.89,21074.00 38808.89,21074.00
             38808.89,21074.00 38806.54,21066.00 38806.54,21066.00
             38806.54,21066.00 38799.83,21050.00 38799.83,21050.00
             38799.83,21050.00 38781.17,21020.00 38781.17,21020.00
             38781.17,21020.00 38773.49,21006.00 38773.49,21006.00
             38773.49,21006.00 38759.96,20989.00 38759.96,20989.00
             38759.96,20989.00 38742.69,20953.00 38742.69,20953.00
             38742.69,20953.00 38731.01,20935.00 38731.01,20935.00
             38731.01,20935.00 38714.04,20901.00 38714.04,20901.00
             38711.14,20895.77 38706.54,20891.55 38704.22,20886.00
             38704.22,20886.00 38698.25,20862.00 38698.25,20862.00
             38695.78,20854.47 38692.34,20851.62 38688.73,20838.00
             38680.80,20808.08 38681.60,20797.27 38682.00,20767.00
             38682.13,20757.66 38687.16,20752.59 38690.31,20744.00
             38690.31,20744.00 38695.28,20730.00 38695.28,20730.00
             38695.28,20730.00 38699.34,20716.00 38699.34,20716.00
             38699.34,20716.00 38715.13,20684.00 38715.13,20684.00
             38715.13,20684.00 38733.98,20632.00 38733.98,20632.00
             38733.98,20632.00 38737.55,20618.00 38737.55,20618.00
             38737.55,20618.00 38752.78,20584.00 38752.78,20584.00
             38752.78,20584.00 38761.69,20567.00 38761.69,20567.00
             38761.69,20567.00 38768.34,20547.00 38768.34,20547.00
             38768.34,20547.00 38776.41,20530.17 38776.41,20530.17
             38776.41,20530.17 38783.08,20522.00 38783.08,20522.00
             38784.65,20519.39 38784.54,20517.82 38787.75,20513.00
             38791.13,20507.93 38796.21,20502.40 38798.65,20497.00
             38798.65,20497.00 38803.67,20476.00 38803.67,20476.00
             38803.67,20476.00 38823.45,20425.00 38823.45,20425.00
             38823.45,20425.00 38835.22,20401.00 38835.22,20401.00
             38835.22,20401.00 38848.43,20373.00 38848.43,20373.00
             38848.43,20373.00 38860.09,20355.00 38860.09,20355.00
             38860.09,20355.00 38869.26,20332.00 38869.26,20332.00
             38869.26,20332.00 38881.42,20309.00 38881.42,20309.00
             38881.42,20309.00 38894.69,20287.00 38894.69,20287.00
             38894.69,20287.00 38914.92,20242.09 38914.92,20242.09
             38916.51,20239.61 38919.58,20237.31 38921.71,20234.96
             38925.49,20230.80 38934.83,20218.76 38937.69,20214.00
             38937.69,20214.00 38956.68,20179.00 38956.68,20179.00
             38963.40,20170.28 38984.26,20155.16 38994.00,20148.67
             38994.00,20148.67 39023.00,20128.52 39023.00,20128.52
             39038.51,20118.07 39039.27,20118.84 39055.00,20105.56
             39055.00,20105.56 39086.00,20074.04 39086.00,20074.04
             39086.00,20074.04 39104.00,20058.46 39104.00,20058.46
             39104.00,20058.46 39113.96,20050.70 39113.96,20050.70
             39113.96,20050.70 39124.51,20038.60 39124.51,20038.60
             39124.51,20038.60 39135.00,20030.55 39135.00,20030.55
             39135.00,20030.55 39149.00,20018.44 39149.00,20018.44
             39149.00,20018.44 39162.00,20008.58 39162.00,20008.58
             39162.00,20008.58 39189.00,19987.35 39189.00,19987.35
             39189.00,19987.35 39202.00,19980.74 39202.00,19980.74
             39202.00,19980.74 39238.00,19963.45 39238.00,19963.45
             39238.00,19963.45 39260.00,19955.78 39260.00,19955.78
             39260.00,19955.78 39292.00,19944.43 39292.00,19944.43
             39292.00,19944.43 39316.00,19938.85 39316.00,19938.85
             39316.00,19938.85 39379.00,19923.58 39379.00,19923.58
             39379.00,19923.58 39413.00,19916.25 39413.00,19916.25
             39413.00,19916.25 39444.00,19912.71 39444.00,19912.71
             39444.00,19912.71 39462.00,19909.00 39462.00,19909.00
             39470.91,19907.19 39487.06,19905.01 39496.00,19905.00
             39496.00,19905.00 39509.00,19905.00 39509.00,19905.00
             39520.45,19904.98 39525.40,19902.61 39536.00,19900.61
             39536.00,19900.61 39560.00,19897.21 39560.00,19897.21 Z" />
</svg>
