<?xml version="1.0" encoding="UTF-8" standalone="no"?>
<!DOCTYPE svg PUBLIC "-//W3C//DTD SVG 20010904//EN"
              "http://www.w3.org/TR/2001/REC-SVG-20010904/DTD/svg10.dtd">

<svg xmlns="http://www.w3.org/2000/svg"
     width="1137.78in" height="1137.78in"
     viewBox="0 0 81920 81920">
  <path id="Selection"
        fill="none" stroke="black" stroke-width="1"
        d="M 46726.00,35898.00
           C 46704.25,35894.59 46696.96,35868.77 46687.69,35852.00
             46685.46,35847.97 46682.87,35844.66 46680.13,35841.00
             46669.34,35826.62 46646.89,35800.18 46639.32,35786.00
             46631.35,35771.05 46631.60,35759.63 46627.68,35752.00
             46627.68,35752.00 46621.37,35741.00 46621.37,35741.00
             46621.37,35741.00 46611.88,35721.00 46611.88,35721.00
             46611.88,35721.00 46602.21,35703.00 46602.21,35703.00
             46598.82,35694.62 46597.29,35687.65 46595.13,35679.00
             46595.13,35679.00 46588.58,35648.00 46588.58,35648.00
             46586.92,35640.47 46584.18,35632.80 46585.30,35625.00
             46586.65,35615.61 46591.92,35607.53 46595.69,35599.00
             46605.92,35575.91 46607.90,35566.10 46627.00,35547.00
             46635.00,35539.00 46638.94,35536.05 46648.00,35529.58
             46651.59,35527.01 46657.99,35523.00 46659.74,35519.00
             46661.01,35516.08 46659.85,35511.14 46659.21,35508.00
             46658.80,35503.44 46658.95,35498.61 46659.21,35494.00
             46659.21,35476.45 46669.89,35457.26 46676.19,35441.00
             46681.18,35428.12 46683.10,35416.60 46693.17,35406.09
             46696.92,35402.18 46707.30,35393.67 46712.00,35390.86
             46719.26,35386.52 46727.22,35383.36 46732.04,35376.00
             46732.04,35376.00 46739.26,35361.00 46739.26,35361.00
             46741.33,35356.73 46745.49,35349.28 46746.47,35345.00
             46746.47,35345.00 46749.24,35323.00 46749.24,35323.00
             46749.24,35323.00 46757.57,35297.00 46757.57,35297.00
             46760.02,35288.30 46759.86,35276.35 46765.11,35269.17
             46770.25,35262.12 46783.05,35257.33 46791.00,35253.69
             46796.19,35251.31 46801.32,35248.53 46807.00,35247.47
             46813.05,35246.33 46818.42,35247.72 46826.00,35245.38
             46826.00,35245.38 46843.00,35237.31 46843.00,35237.31
             46843.00,35237.31 46869.00,35226.74 46869.00,35226.74
             46892.00,35219.29 46910.90,35216.28 46935.00,35216.00
             46935.00,35216.00 46944.00,35215.34 46944.00,35215.34
             46944.00,35215.34 46960.00,35216.00 46960.00,35216.00
             46973.58,35216.16 46986.88,35220.09 47000.00,35223.11
             47000.00,35223.11 47019.00,35226.45 47019.00,35226.45
             47019.00,35226.45 47039.00,35231.34 47039.00,35231.34
             47039.00,35231.34 47066.00,35234.28 47066.00,35234.28
             47066.00,35234.28 47115.00,35241.58 47115.00,35241.58
             47115.00,35241.58 47148.00,35245.00 47148.00,35245.00
             47160.98,35245.03 47181.81,35249.33 47193.00,35255.88
             47199.95,35259.94 47207.23,35269.75 47210.68,35277.00
             47210.68,35277.00 47214.97,35287.00 47214.97,35287.00
             47214.97,35287.00 47221.40,35298.00 47221.40,35298.00
             47221.40,35298.00 47225.63,35304.87 47225.63,35304.87
             47230.35,35310.55 47238.04,35308.73 47243.01,35316.09
             47246.66,35321.51 47245.52,35326.12 47246.44,35332.00
             47246.44,35332.00 47250.57,35355.00 47250.57,35355.00
             47250.57,35355.00 47251.52,35366.00 47251.52,35366.00
             47251.52,35366.00 47256.96,35381.00 47256.96,35381.00
             47256.96,35381.00 47259.70,35393.00 47259.70,35393.00
             47266.17,35411.42 47275.55,35428.25 47285.40,35445.00
             47291.55,35455.46 47292.09,35470.36 47305.00,35475.29
             47313.12,35478.39 47318.06,35476.36 47326.00,35474.37
             47336.70,35471.70 47348.79,35469.68 47354.59,35459.00
             47358.11,35452.51 47355.58,35450.82 47356.31,35445.00
             47357.25,35437.54 47362.30,35431.93 47369.00,35428.90
             47373.77,35426.75 47382.65,35425.50 47388.00,35424.73
             47388.00,35424.73 47420.00,35419.92 47420.00,35419.92
             47420.00,35419.92 47455.00,35413.19 47455.00,35413.19
             47455.00,35413.19 47467.00,35410.28 47467.00,35410.28
             47467.00,35410.28 47491.00,35407.83 47491.00,35407.83
             47491.00,35407.83 47513.00,35405.17 47513.00,35405.17
             47519.31,35404.64 47527.41,35406.85 47531.35,35412.09
             47534.18,35415.86 47534.00,35419.81 47535.56,35424.00
             47536.85,35427.47 47543.68,35438.26 47546.21,35440.89
             47551.85,35446.78 47564.12,35446.99 47572.00,35447.00
             47586.54,35447.02 47590.82,35445.59 47605.00,35450.33
             47610.58,35452.20 47615.41,35453.41 47618.43,35459.02
             47620.46,35462.77 47620.05,35467.81 47620.00,35472.00
             47620.00,35472.00 47619.04,35483.00 47619.04,35483.00
             47618.66,35492.88 47622.33,35495.79 47628.42,35503.00
             47634.45,35510.14 47637.82,35514.55 47646.00,35519.54
             47646.00,35519.54 47671.00,35531.21 47671.00,35531.21
             47680.20,35536.83 47686.72,35549.90 47697.00,35557.21
             47706.73,35564.14 47712.64,35560.03 47724.00,35566.35
             47731.26,35570.38 47738.02,35577.49 47741.60,35585.00
             47744.73,35591.57 47742.63,35595.27 47749.04,35600.22
             47749.04,35600.22 47763.00,35609.43 47763.00,35609.43
             47772.91,35616.51 47782.32,35624.18 47793.00,35630.14
             47793.00,35630.14 47820.90,35644.35 47820.90,35644.35
             47825.27,35647.25 47825.15,35650.05 47827.85,35654.00
             47830.52,35657.91 47834.87,35661.36 47839.00,35663.65
             47846.67,35667.92 47851.82,35667.15 47858.00,35669.90
             47858.00,35669.90 47870.00,35676.72 47870.00,35676.72
             47870.00,35676.72 47888.00,35685.58 47888.00,35685.58
             47888.00,35685.58 47925.00,35697.44 47925.00,35697.44
             47930.54,35699.45 47939.83,35702.71 47943.61,35707.10
             47948.49,35712.78 47947.11,35719.98 47959.00,35727.90
             47973.17,35737.33 47986.04,35737.22 48000.00,35743.44
             48009.35,35747.60 48015.36,35755.22 48024.00,35759.63
             48039.59,35767.59 48058.89,35767.97 48076.00,35768.00
             48079.32,35768.01 48086.80,35767.88 48089.01,35770.72
             48090.63,35772.80 48089.51,35776.80 48090.53,35781.00
             48092.44,35788.86 48100.28,35793.77 48108.00,35794.47
             48114.48,35795.06 48121.13,35791.67 48126.00,35787.67
             48129.02,35785.20 48132.72,35780.28 48137.00,35781.23
             48139.31,35781.74 48142.18,35784.26 48144.00,35785.76
             48149.19,35790.03 48156.58,35796.63 48159.01,35803.00
             48160.63,35807.26 48159.33,35809.88 48161.53,35815.00
             48161.53,35815.00 48185.69,35852.00 48185.69,35852.00
             48190.33,35860.50 48195.54,35877.67 48200.53,35883.99
             48208.64,35894.26 48224.11,35898.16 48233.90,35906.53
             48238.07,35910.09 48240.13,35916.25 48243.06,35921.00
             48243.06,35921.00 48257.34,35943.00 48257.34,35943.00
             48261.02,35950.38 48259.39,35953.06 48260.29,35960.00
             48260.29,35960.00 48261.54,35968.00 48261.54,35968.00
             48261.83,35976.16 48259.43,35979.87 48264.00,35989.00
             48266.35,35993.71 48270.49,35998.48 48275.00,36001.22
             48278.83,36003.55 48282.73,36003.99 48285.30,36007.22
             48287.73,36010.28 48287.95,36014.28 48288.00,36018.00
             48288.00,36018.00 48287.00,36041.00 48287.00,36041.00
             48287.00,36041.00 48287.00,36057.00 48287.00,36057.00
             48286.94,36062.08 48285.28,36067.17 48287.57,36072.00
             48288.93,36074.88 48294.35,36081.45 48297.09,36082.99
             48300.42,36084.87 48304.36,36083.62 48309.90,36089.11
             48316.97,36096.12 48317.96,36107.75 48320.72,36117.00
             48322.63,36123.40 48326.37,36133.38 48325.81,36140.00
             48325.17,36147.65 48321.59,36150.94 48317.92,36157.00
             48317.92,36157.00 48299.76,36189.00 48299.76,36189.00
             48299.76,36189.00 48288.83,36217.00 48288.83,36217.00
             48284.53,36224.62 48279.98,36226.82 48277.88,36232.00
             48277.88,36232.00 48273.58,36251.00 48273.58,36251.00
             48271.33,36261.11 48268.38,36270.70 48263.73,36280.00
             48256.87,36293.71 48247.94,36303.79 48239.15,36316.00
             48239.15,36316.00 48226.77,36336.00 48226.77,36336.00
             48226.77,36336.00 48196.11,36375.00 48196.11,36375.00
             48192.00,36380.32 48185.51,36386.49 48183.64,36393.00
             48182.74,36396.11 48183.04,36400.68 48183.00,36404.00
             48182.95,36407.41 48182.93,36409.94 48181.15,36413.00
             48178.88,36416.90 48173.76,36420.67 48173.79,36427.00
             48173.81,36430.53 48177.11,36439.11 48178.28,36443.00
             48181.99,36455.33 48182.83,36457.11 48183.00,36470.00
             48183.14,36480.14 48187.02,36480.00 48187.74,36486.00
             48188.28,36490.54 48185.47,36494.52 48185.10,36500.00
             48184.35,36510.88 48192.89,36520.64 48198.86,36529.00
             48198.86,36529.00 48210.57,36547.00 48210.57,36547.00
             48217.20,36558.57 48217.93,36562.71 48227.44,36574.00
             48227.44,36574.00 48243.91,36591.00 48243.91,36591.00
             48243.91,36591.00 48265.91,36614.00 48265.91,36614.00
             48265.91,36614.00 48273.18,36622.96 48273.18,36622.96
             48278.06,36628.23 48281.34,36628.49 48286.24,36635.00
             48289.81,36639.75 48300.30,36657.62 48302.29,36663.00
             48304.45,36668.84 48304.65,36675.67 48307.99,36681.00
             48314.91,36692.00 48334.41,36691.10 48332.80,36708.00
             48331.84,36718.13 48324.32,36728.70 48319.05,36737.00
             48314.98,36743.42 48311.92,36749.20 48305.96,36754.19
             48299.60,36759.52 48289.75,36763.57 48285.63,36769.04
             48285.63,36769.04 48273.94,36791.00 48273.94,36791.00
             48273.94,36791.00 48262.81,36808.00 48262.81,36808.00
             48262.81,36808.00 48252.31,36826.00 48252.31,36826.00
             48252.31,36826.00 48242.45,36841.00 48242.45,36841.00
             48242.45,36841.00 48235.33,36857.00 48235.33,36857.00
             48235.33,36857.00 48214.33,36890.00 48214.33,36890.00
             48214.33,36890.00 48200.37,36911.00 48200.37,36911.00
             48200.37,36911.00 48191.37,36932.00 48191.37,36932.00
             48184.64,36944.96 48178.19,36948.74 48178.00,36965.00
             48177.84,36978.90 48180.02,36979.55 48183.57,36992.00
             48183.57,36992.00 48192.71,37029.00 48192.71,37029.00
             48194.45,37040.26 48196.79,37063.39 48204.53,37071.67
             48208.17,37075.57 48214.72,37078.06 48220.00,37078.39
             48226.79,37078.82 48232.37,37075.50 48237.90,37083.09
             48237.90,37083.09 48254.01,37121.00 48254.01,37121.00
             48256.63,37127.30 48274.41,37157.39 48278.61,37163.00
             48287.76,37175.24 48294.45,37169.51 48306.00,37173.36
             48320.06,37178.05 48329.83,37193.48 48330.00,37208.00
             48330.22,37226.77 48330.75,37233.69 48324.65,37252.00
             48324.65,37252.00 48312.63,37279.00 48312.63,37279.00
             48311.69,37282.33 48312.04,37288.33 48312.00,37292.00
             48311.88,37302.12 48308.27,37320.59 48304.55,37330.00
             48304.55,37330.00 48294.54,37352.00 48294.54,37352.00
             48290.72,37362.49 48288.66,37377.26 48282.24,37386.00
             48282.24,37386.00 48268.51,37401.00 48268.51,37401.00
             48268.51,37401.00 48259.10,37414.00 48259.10,37414.00
             48259.10,37414.00 48234.00,37442.96 48234.00,37442.96
             48229.60,37447.22 48222.89,37452.93 48218.00,37456.63
             48214.06,37459.60 48207.75,37463.92 48205.22,37468.04
             48202.45,37472.57 48202.75,37478.20 48197.55,37487.00
             48197.55,37487.00 48172.40,37528.00 48172.40,37528.00
             48172.40,37528.00 48162.69,37555.00 48162.69,37555.00
             48154.38,37573.13 48143.06,37585.25 48126.00,37595.40
             48108.93,37605.55 48107.56,37602.93 48096.00,37608.04
             48086.19,37612.38 48081.50,37616.91 48070.00,37619.19
             48070.00,37619.19 48052.00,37621.17 48052.00,37621.17
             48038.74,37622.49 48021.56,37624.32 48009.00,37628.34
             47999.72,37631.32 47971.26,37643.21 47964.00,37648.49
             47954.98,37655.05 47945.34,37667.33 47936.00,37671.24
             47936.00,37671.24 47912.00,37680.06 47912.00,37680.06
             47912.00,37680.06 47894.00,37687.58 47894.00,37687.58
             47894.00,37687.58 47857.00,37699.98 47857.00,37699.98
             47841.31,37704.83 47824.68,37707.44 47810.00,37715.32
             47800.53,37720.41 47795.24,37728.98 47788.57,37737.00
             47788.57,37737.00 47772.10,37757.00 47772.10,37757.00
             47767.14,37764.61 47768.78,37767.04 47765.57,37770.79
             47762.52,37774.35 47753.98,37777.68 47747.00,37784.09
             47747.00,37784.09 47713.00,37815.55 47713.00,37815.55
             47713.00,37815.55 47684.00,37836.66 47684.00,37836.66
             47684.00,37836.66 47669.00,37846.03 47669.00,37846.03
             47661.02,37851.48 47643.11,37867.85 47635.00,37869.43
             47631.30,37870.15 47624.98,37868.47 47621.00,37868.18
             47613.75,37867.67 47607.48,37870.78 47601.00,37873.40
             47597.40,37874.85 47593.24,37876.07 47590.00,37878.13
             47585.42,37881.04 47581.12,37886.10 47577.00,37889.83
             47577.00,37889.83 47560.00,37904.29 47560.00,37904.29
             47551.94,37911.36 47546.92,37917.39 47537.00,37922.68
             47537.00,37922.68 47499.00,37937.90 47499.00,37937.90
             47499.00,37937.90 47482.00,37949.00 47482.00,37949.00
             47472.94,37955.04 47464.43,37959.47 47457.21,37968.00
             47452.97,37973.01 47452.53,37977.03 47450.66,37983.00
             47450.66,37983.00 47442.28,38012.00 47442.28,38012.00
             47442.28,38012.00 47432.34,38043.00 47432.34,38043.00
             47432.34,38043.00 47425.95,38063.00 47425.95,38063.00
             47425.95,38063.00 47418.69,38080.00 47418.69,38080.00
             47418.69,38080.00 47412.46,38099.00 47412.46,38099.00
             47412.46,38099.00 47396.43,38132.00 47396.43,38132.00
             47396.43,38132.00 47390.52,38147.00 47390.52,38147.00
             47390.52,38147.00 47381.57,38175.00 47381.57,38175.00
             47381.57,38175.00 47371.31,38197.00 47371.31,38197.00
             47371.31,38197.00 47351.69,38240.00 47351.69,38240.00
             47351.69,38240.00 47339.92,38266.00 47339.92,38266.00
             47339.92,38266.00 47334.98,38283.00 47334.98,38283.00
             47334.98,38283.00 47328.15,38303.00 47328.15,38303.00
             47328.15,38303.00 47325.53,38315.00 47325.53,38315.00
             47321.40,38331.57 47314.85,38356.85 47308.14,38372.00
             47308.14,38372.00 47299.87,38388.00 47299.87,38388.00
             47299.87,38388.00 47291.69,38408.00 47291.69,38408.00
             47291.69,38408.00 47277.45,38431.00 47277.45,38431.00
             47277.45,38431.00 47267.54,38449.00 47267.54,38449.00
             47267.54,38449.00 47251.14,38472.00 47251.14,38472.00
             47251.14,38472.00 47239.26,38490.00 47239.26,38490.00
             47239.26,38490.00 47229.15,38503.00 47229.15,38503.00
             47229.15,38503.00 47217.00,38521.00 47217.00,38521.00
             47215.04,38523.94 47210.02,38530.41 47210.81,38533.96
             47211.49,38536.99 47215.63,38539.39 47218.00,38541.15
             47223.44,38545.20 47226.28,38548.28 47231.00,38553.00
             47231.00,38553.00 47241.71,38564.00 47241.71,38564.00
             47241.71,38564.00 47254.09,38579.00 47254.09,38579.00
             47262.65,38588.20 47270.73,38594.82 47277.54,38606.00
             47291.99,38629.73 47291.98,38655.15 47298.88,38681.00
             47301.54,38690.95 47306.88,38696.77 47311.22,38706.00
             47311.22,38706.00 47319.44,38729.00 47319.44,38729.00
             47322.43,38735.73 47327.15,38740.36 47331.74,38746.00
             47331.74,38746.00 47344.29,38762.00 47344.29,38762.00
             47350.59,38769.25 47357.67,38775.87 47362.91,38784.00
             47369.24,38793.82 47371.73,38802.18 47375.33,38813.00
             47379.46,38825.37 47382.98,38835.71 47383.00,38849.00
             47383.00,38849.00 47383.00,38881.00 47383.00,38881.00
             47382.63,38912.27 47355.93,38948.54 47334.99,38970.00
             47334.99,38970.00 47312.46,38991.04 47312.46,38991.04
             47302.59,39002.56 47290.02,39029.87 47282.00,39044.00
             47277.38,39052.13 47269.56,39064.60 47270.09,39074.00
             47270.09,39074.00 47272.99,39097.00 47272.99,39097.00
             47272.69,39109.30 47264.54,39116.95 47253.00,39119.76
             47248.51,39120.86 47241.18,39120.79 47238.09,39122.45
             47234.65,39124.31 47232.63,39127.87 47230.50,39131.00
             47227.49,39135.41 47221.90,39142.55 47219.90,39147.00
             47218.05,39151.12 47217.79,39155.68 47216.57,39160.00
             47216.57,39160.00 47206.05,39195.00 47206.05,39195.00
             47201.35,39206.04 47193.20,39206.10 47193.00,39222.00
             47192.90,39230.95 47194.24,39249.47 47191.05,39257.00
             47188.07,39264.03 47182.11,39268.46 47176.00,39272.65
             47162.05,39282.23 47146.02,39287.80 47129.00,39288.00
             47129.00,39288.00 47119.00,39288.00 47119.00,39288.00
             47103.00,39288.20 47081.90,39303.53 47069.00,39312.26
             47056.10,39320.98 47024.22,39341.45 47011.00,39347.13
             46994.08,39354.40 46974.15,39356.60 46956.00,39359.27
             46956.00,39359.27 46929.00,39362.96 46929.00,39362.96
             46925.59,39362.85 46920.09,39361.84 46917.00,39360.45
             46913.42,39358.83 46911.20,39356.20 46907.00,39356.43
             46907.00,39356.43 46888.00,39361.58 46888.00,39361.58
             46877.76,39364.42 46860.49,39367.91 46850.00,39368.00
             46848.39,39387.72 46837.23,39404.51 46831.72,39423.00
             46826.94,39439.05 46826.97,39455.91 46812.99,39467.53
             46806.77,39472.71 46797.97,39475.66 46790.00,39476.71
             46784.67,39477.41 46778.55,39476.79 46774.11,39480.43
             46770.73,39483.19 46765.36,39497.78 46762.75,39503.00
             46755.10,39518.31 46747.11,39532.34 46734.00,39543.82
             46726.11,39550.73 46716.26,39552.95 46706.00,39553.00
             46683.68,39553.10 46671.28,39547.48 46651.00,39541.03
             46651.00,39541.03 46634.00,39536.28 46634.00,39536.28
             46634.00,39536.28 46599.00,39524.00 46599.00,39524.00
             46595.40,39534.31 46591.27,39538.84 46586.31,39548.00
             46574.51,39569.76 46565.51,39591.32 46537.00,39591.00
             46530.46,39590.92 46524.19,39589.34 46518.00,39587.33
             46514.36,39586.15 46508.73,39583.78 46505.00,39584.93
             46501.15,39586.11 46485.88,39598.16 46481.00,39601.30
             46481.00,39601.30 46441.00,39623.45 46441.00,39623.45
             46427.30,39631.62 46402.31,39649.43 46391.17,39660.29
             46383.91,39667.36 46383.70,39673.40 46367.00,39686.10
             46347.46,39700.95 46326.70,39713.82 46306.00,39726.95
             46306.00,39726.95 46275.00,39747.32 46275.00,39747.32
             46269.01,39752.34 46262.00,39761.89 46256.71,39768.00
             46249.08,39776.83 46237.23,39788.45 46228.00,39795.50
             46228.00,39795.50 46212.00,39806.00 46212.00,39806.00
             46188.07,39820.39 46179.93,39820.38 46155.00,39828.34
             46155.00,39828.34 46108.00,39844.55 46108.00,39844.55
             46097.11,39846.74 46082.35,39846.13 46071.00,39846.00
             46052.15,39845.78 46030.15,39837.75 46012.00,39832.74
             46012.00,39832.74 45986.00,39827.29 45986.00,39827.29
             45986.00,39827.29 45966.00,39821.33 45966.00,39821.33
             45959.74,39819.29 45956.43,39816.97 45950.00,39819.80
             45950.00,39819.80 45917.00,39837.74 45917.00,39837.74
             45917.00,39837.74 45882.00,39854.26 45882.00,39854.26
             45882.00,39854.26 45847.00,39874.86 45847.00,39874.86
             45832.35,39884.31 45821.27,39895.52 45808.00,39906.39
             45808.00,39906.39 45770.00,39936.17 45770.00,39936.17
             45770.00,39936.17 45749.00,39956.91 45749.00,39956.91
             45749.00,39956.91 45697.00,40004.17 45697.00,40004.17
             45686.68,40013.49 45671.39,40028.47 45659.00,40034.00
             45662.29,40041.90 45660.00,40042.85 45662.04,40050.00
             45662.04,40050.00 45665.26,40060.00 45665.26,40060.00
             45665.26,40060.00 45667.89,40072.00 45667.89,40072.00
             45667.89,40072.00 45677.98,40107.00 45677.98,40107.00
             45680.50,40115.13 45682.20,40123.22 45685.89,40131.00
             45689.51,40138.62 45694.56,40143.01 45702.00,40146.73
             45706.81,40149.14 45712.78,40150.33 45716.47,40154.33
             45725.61,40164.22 45714.95,40170.99 45716.47,40178.00
             45717.77,40183.99 45724.89,40186.30 45727.41,40189.38
             45730.51,40193.59 45728.55,40204.05 45727.41,40209.00
             45724.46,40224.37 45718.74,40235.46 45711.30,40249.00
             45698.80,40271.78 45688.79,40286.70 45668.00,40302.99
             45668.00,40302.99 45633.00,40326.90 45633.00,40326.90
             45633.00,40326.90 45617.00,40341.58 45617.00,40341.58
             45609.67,40347.93 45599.63,40355.99 45594.44,40364.00
             45594.44,40364.00 45576.72,40395.00 45576.72,40395.00
             45576.72,40395.00 45566.31,40412.00 45566.31,40412.00
             45560.22,40423.17 45559.28,40428.17 45550.96,40440.00
             45550.96,40440.00 45528.09,40467.00 45528.09,40467.00
             45528.09,40467.00 45511.85,40490.00 45511.85,40490.00
             45505.80,40498.24 45503.04,40500.20 45498.26,40510.00
             45498.26,40510.00 45465.69,40581.00 45465.69,40581.00
             45465.69,40581.00 45456.31,40599.00 45456.31,40599.00
             45456.31,40599.00 45447.02,40622.00 45447.02,40622.00
             45447.02,40622.00 45427.43,40655.00 45427.43,40655.00
             45427.43,40655.00 45417.31,40676.00 45417.31,40676.00
             45410.46,40690.95 45409.83,40702.88 45405.28,40718.00
             45401.42,40730.82 45390.15,40754.68 45382.95,40766.00
             45367.06,40790.95 45343.54,40808.28 45318.00,40822.30
             45318.00,40822.30 45284.00,40839.57 45284.00,40839.57
             45262.87,40848.61 45226.97,40856.73 45204.00,40857.00
             45204.00,40857.00 45170.00,40857.00 45170.00,40857.00
             45170.00,40857.00 45127.00,40853.17 45127.00,40853.17
             45127.00,40853.17 45076.00,40847.58 45076.00,40847.58
             45076.00,40847.58 45018.00,40834.12 45018.00,40834.12
             45018.00,40834.12 44992.00,40827.61 44992.00,40827.61
             44992.00,40827.61 44960.00,40822.28 44960.00,40822.28
             44960.00,40822.28 44943.00,40820.56 44943.00,40820.56
             44920.93,40817.11 44881.46,40804.54 44863.00,40792.46
             44863.00,40792.46 44832.00,40768.42 44832.00,40768.42
             44832.00,40768.42 44811.00,40753.11 44811.00,40753.11
             44811.00,40753.11 44792.00,40738.24 44792.00,40738.24
             44792.00,40738.24 44755.00,40713.99 44755.00,40713.99
             44740.70,40702.78 44737.39,40693.06 44730.99,40688.70
             44726.97,40685.97 44717.14,40684.41 44712.00,40683.13
             44701.88,40680.60 44692.53,40677.38 44683.00,40673.14
             44674.00,40669.13 44655.39,40658.43 44647.00,40652.92
             44647.00,40652.92 44630.00,40641.32 44630.00,40641.32
             44630.00,40641.32 44606.00,40632.66 44606.00,40632.66
             44589.66,40626.98 44573.02,40619.27 44558.00,40610.72
             44552.85,40607.79 44541.76,40600.06 44536.00,40600.95
             44530.71,40601.76 44522.91,40609.32 44519.00,40612.92
             44519.00,40612.92 44497.00,40633.09 44497.00,40633.09
             44497.00,40633.09 44486.00,40643.41 44486.00,40643.41
             44486.00,40643.41 44446.00,40675.53 44446.00,40675.53
             44446.00,40675.53 44428.00,40688.51 44428.00,40688.51
             44428.00,40688.51 44416.00,40699.25 44416.00,40699.25
             44416.00,40699.25 44395.00,40716.29 44395.00,40716.29
             44395.00,40716.29 44380.00,40731.00 44380.00,40731.00
             44380.00,40731.00 44352.00,40758.99 44352.00,40758.99
             44344.97,40765.85 44336.76,40771.64 44329.00,40777.65
             44329.00,40777.65 44309.00,40794.13 44309.00,40794.13
             44309.00,40794.13 44293.00,40808.83 44293.00,40808.83
             44293.00,40808.83 44258.00,40838.54 44258.00,40838.54
             44258.00,40838.54 44234.00,40856.47 44234.00,40856.47
             44234.00,40856.47 44209.00,40875.57 44209.00,40875.57
             44209.00,40875.57 44175.00,40898.34 44175.00,40898.34
             44175.00,40898.34 44154.00,40912.58 44154.00,40912.58
             44154.00,40912.58 44130.00,40925.25 44130.00,40925.25
             44130.00,40925.25 44116.00,40932.75 44116.00,40932.75
             44116.00,40932.75 44085.00,40948.31 44085.00,40948.31
             44085.00,40948.31 44028.00,40977.89 44028.00,40977.89
             44028.00,40977.89 44007.00,40987.26 44007.00,40987.26
             43997.50,40991.86 43968.74,41006.36 43960.00,41008.00
             43960.00,41008.00 43968.72,41047.00 43968.72,41047.00
             43968.72,41047.00 43973.60,41086.00 43973.60,41086.00
             43976.41,41094.57 43983.00,41102.05 43987.22,41110.00
             43987.22,41110.00 43995.86,41127.00 43995.86,41127.00
             43995.86,41127.00 44008.60,41148.00 44008.60,41148.00
             44008.60,41148.00 44020.21,41165.96 44020.21,41165.96
             44026.44,41172.80 44035.78,41172.67 44044.00,41176.49
             44054.50,41181.37 44074.28,41194.44 44081.70,41203.00
             44084.97,41206.77 44089.68,41213.28 44091.22,41218.00
             44092.74,41222.67 44092.69,41226.35 44093.28,41231.00
             44093.85,41235.40 44098.82,41260.10 44100.31,41262.98
             44103.13,41268.43 44107.53,41268.29 44112.00,41270.67
             44116.79,41273.22 44120.15,41277.54 44120.81,41283.00
             44122.15,41294.10 44114.06,41299.40 44108.63,41307.00
             44108.63,41307.00 44089.93,41345.00 44089.93,41345.00
             44089.93,41345.00 44081.64,41376.00 44081.64,41376.00
             44081.64,41376.00 44072.61,41395.00 44072.61,41395.00
             44070.89,41400.01 44071.02,41404.81 44071.00,41410.00
             44071.00,41410.00 44068.71,41437.00 44068.71,41437.00
             44068.71,41437.00 44066.76,41450.00 44066.76,41450.00
             44066.76,41450.00 44068.00,41473.00 44068.00,41473.00
             44068.24,41493.90 44065.85,41500.14 44050.00,41514.91
             44041.10,41523.20 44022.83,41535.15 44024.20,41549.00
             44024.20,41549.00 44026.79,41559.00 44026.79,41559.00
             44027.38,41563.12 44026.32,41567.02 44028.14,41571.00
             44030.19,41575.51 44039.27,41585.25 44043.00,41589.00
             44043.00,41589.00 44061.00,41606.67 44061.00,41606.67
             44061.00,41606.67 44070.91,41614.10 44070.91,41614.10
             44078.69,41621.77 44080.60,41633.01 44097.00,41638.91
             44110.18,41643.65 44116.70,41641.06 44129.00,41641.00
             44129.00,41641.00 44141.00,41641.00 44141.00,41641.00
             44154.09,41641.16 44162.25,41648.01 44174.00,41651.56
             44174.00,41651.56 44198.00,41657.21 44198.00,41657.21
             44198.00,41657.21 44250.00,41676.87 44250.00,41676.87
             44262.11,41682.06 44261.91,41685.28 44267.00,41687.49
             44267.00,41687.49 44287.00,41690.90 44287.00,41690.90
             44287.00,41690.90 44304.00,41697.56 44304.00,41697.56
             44304.00,41697.56 44318.00,41701.71 44318.00,41701.71
             44328.71,41705.72 44328.22,41712.50 44337.00,41714.61
             44337.00,41714.61 44349.00,41716.15 44349.00,41716.15
             44362.29,41717.74 44384.73,41719.73 44396.00,41726.48
             44396.00,41726.48 44413.00,41739.13 44413.00,41739.13
             44423.47,41746.98 44434.21,41754.75 44442.53,41765.00
             44448.56,41772.42 44450.61,41780.36 44455.75,41788.00
             44459.93,41794.22 44465.45,41799.28 44470.25,41805.00
             44470.25,41805.00 44490.09,41828.99 44490.09,41828.99
             44498.65,41837.99 44513.56,41845.25 44524.00,41853.24
             44524.00,41853.24 44544.00,41871.68 44544.00,41871.68
             44544.00,41871.68 44567.00,41887.52 44567.00,41887.52
             44567.00,41887.52 44586.00,41904.67 44586.00,41904.67
             44591.67,41909.35 44611.76,41916.89 44620.00,41920.78
             44620.00,41920.78 44646.00,41933.74 44646.00,41933.74
             44656.81,41938.98 44663.11,41940.63 44674.00,41947.42
             44694.77,41960.38 44711.70,41979.47 44719.25,42003.00
             44723.77,42017.06 44723.16,42025.61 44723.00,42040.00
             44722.88,42049.52 44720.07,42058.00 44717.42,42067.00
             44702.77,42116.91 44659.86,42150.09 44613.00,42168.19
             44595.86,42174.81 44576.18,42179.06 44558.00,42181.58
             44552.40,42182.35 44535.70,42183.03 44532.05,42184.70
             44526.56,42187.22 44527.01,42192.89 44527.00,42198.00
             44527.00,42198.00 44527.00,42223.00 44527.00,42223.00
             44526.83,42237.14 44520.79,42250.20 44515.42,42263.00
             44515.42,42263.00 44504.83,42291.00 44504.83,42291.00
             44504.83,42291.00 44492.31,42314.00 44492.31,42314.00
             44492.31,42314.00 44474.98,42345.00 44474.98,42345.00
             44474.98,42345.00 44455.45,42369.00 44455.45,42369.00
             44455.45,42369.00 44435.91,42392.99 44435.91,42392.99
             44431.51,42397.59 44418.38,42408.52 44413.00,42412.52
             44398.33,42423.43 44378.44,42434.59 44362.00,42442.75
             44362.00,42442.75 44337.00,42454.86 44337.00,42454.86
             44303.16,42473.63 44275.45,42492.50 44237.00,42502.11
             44237.00,42502.11 44176.00,42514.57 44176.00,42514.57
             44176.00,42514.57 44122.00,42522.00 44122.00,42522.00
             44113.73,42523.65 44083.64,42529.40 44078.00,42532.41
             44074.48,42534.29 44064.63,42542.30 44061.00,42545.20
             44061.00,42545.20 44037.00,42564.00 44037.00,42564.00
             44032.00,42567.97 44022.30,42574.62 44019.44,42580.00
             44017.02,42584.55 44014.87,42598.23 44013.58,42604.00
             44011.58,42612.89 44007.02,42624.99 44002.69,42633.00
             43983.93,42667.72 43951.65,42705.79 43917.00,42725.14
             43898.26,42735.60 43882.15,42741.28 43862.00,42748.00
             43840.06,42755.31 43825.02,42760.12 43802.00,42763.92
             43802.00,42763.92 43767.00,42767.91 43767.00,42767.91
             43767.00,42767.91 43747.00,42769.53 43747.00,42769.53
             43747.00,42769.53 43710.00,42784.94 43710.00,42784.94
             43710.00,42784.94 43671.00,42797.38 43671.00,42797.38
             43671.00,42797.38 43633.00,42823.58 43633.00,42823.58
             43633.00,42823.58 43577.00,42857.69 43577.00,42857.69
             43577.00,42857.69 43560.00,42866.31 43560.00,42866.31
             43560.00,42866.31 43537.00,42879.22 43537.00,42879.22
             43537.00,42879.22 43520.00,42887.26 43520.00,42887.26
             43520.00,42887.26 43491.00,42901.74 43491.00,42901.74
             43473.50,42910.21 43455.44,42916.64 43439.00,42927.34
             43431.02,42932.54 43422.80,42939.26 43416.17,42946.09
             43416.17,42946.09 43408.00,42954.96 43408.00,42954.96
             43408.00,42954.96 43388.00,42973.01 43388.00,42973.01
             43371.89,42988.74 43366.84,43003.03 43355.40,43022.00
             43342.82,43042.86 43328.36,43062.85 43311.00,43079.99
             43311.00,43079.99 43267.30,43118.01 43267.30,43118.01
             43258.04,43128.56 43245.82,43148.45 43238.86,43161.00
             43238.86,43161.00 43231.55,43175.00 43231.55,43175.00
             43231.55,43175.00 43216.05,43199.00 43216.05,43199.00
             43216.05,43199.00 43201.31,43223.00 43201.31,43223.00
             43201.31,43223.00 43189.45,43241.00 43189.45,43241.00
             43189.45,43241.00 43183.13,43253.00 43183.13,43253.00
             43183.13,43253.00 43165.06,43280.00 43165.06,43280.00
             43165.06,43280.00 43153.22,43304.00 43153.22,43304.00
             43151.58,43307.47 43145.45,43320.03 43144.97,43323.00
             43144.37,43326.71 43146.80,43332.37 43148.00,43336.00
             43148.00,43336.00 43152.79,43355.00 43152.79,43355.00
             43152.79,43355.00 43160.43,43391.00 43160.43,43391.00
             43160.43,43391.00 43174.56,43443.00 43174.56,43443.00
             43174.56,43443.00 43175.49,43455.00 43175.49,43455.00
             43176.12,43465.00 43167.44,43485.00 43165.46,43496.00
             43165.46,43496.00 43164.83,43505.00 43164.83,43505.00
             43164.83,43505.00 43159.11,43545.00 43159.11,43545.00
             43153.43,43567.70 43137.90,43596.67 43125.99,43617.00
             43125.99,43617.00 43103.31,43648.00 43103.31,43648.00
             43096.24,43660.88 43094.91,43666.02 43091.37,43680.00
             43091.37,43680.00 43088.44,43691.00 43088.44,43691.00
             43086.27,43696.63 43082.01,43699.71 43079.55,43705.00
             43075.92,43712.82 43075.90,43724.48 43076.00,43733.00
             43076.15,43745.40 43081.83,43749.39 43088.14,43759.00
             43088.14,43759.00 43103.90,43783.00 43103.90,43783.00
             43103.90,43783.00 43121.96,43805.00 43121.96,43805.00
             43121.96,43805.00 43131.53,43820.00 43131.53,43820.00
             43134.77,43824.21 43138.53,43826.80 43140.39,43832.00
             43140.39,43832.00 43147.79,43881.00 43147.79,43881.00
             43149.36,43886.54 43154.07,43893.53 43156.74,43899.00
             43156.74,43899.00 43170.42,43929.00 43170.42,43929.00
             43173.15,43935.26 43175.32,43940.30 43179.19,43946.00
             43185.32,43955.03 43193.48,43963.54 43192.96,43975.00
             43192.51,43985.07 43186.32,43987.59 43180.04,43994.01
             43175.18,43998.98 43171.82,44004.27 43168.00,44010.00
             43168.00,44010.00 43159.51,44023.00 43159.51,44023.00
             43159.51,44023.00 43149.20,44037.00 43149.20,44037.00
             43149.20,44037.00 43142.11,44054.00 43142.11,44054.00
             43142.11,44054.00 43131.14,44074.00 43131.14,44074.00
             43131.14,44074.00 43122.92,44088.00 43122.92,44088.00
             43122.92,44088.00 43114.32,44101.00 43114.32,44101.00
             43107.20,44114.38 43108.48,44127.31 43101.63,44141.00
             43101.63,44141.00 43085.69,44166.00 43085.69,44166.00
             43085.69,44166.00 43069.31,44193.00 43069.31,44193.00
             43069.31,44193.00 43055.06,44214.00 43055.06,44214.00
             43055.06,44214.00 43041.69,44241.00 43041.69,44241.00
             43041.69,44241.00 43015.67,44283.00 43015.67,44283.00
             43015.67,44283.00 43009.98,44292.00 43009.98,44292.00
             43002.22,44307.02 42999.64,44328.75 42982.00,44335.53
             42976.87,44337.51 42970.49,44337.06 42965.00,44336.79
             42965.00,44336.79 42956.00,44336.79 42956.00,44336.79
             42941.93,44337.17 42921.05,44341.91 42907.00,44344.54
             42907.00,44344.54 42871.00,44348.29 42871.00,44348.29
             42871.00,44348.29 42843.00,44352.91 42843.00,44352.91
             42843.00,44352.91 42790.00,44349.09 42790.00,44349.09
             42790.00,44349.09 42723.00,44348.00 42723.00,44348.00
             42723.00,44348.00 42711.00,44347.04 42711.00,44347.04
             42711.00,44347.04 42697.00,44347.04 42697.00,44347.04
             42697.00,44347.04 42660.00,44344.00 42660.00,44344.00
             42660.00,44344.00 42621.00,44341.00 42621.00,44341.00
             42621.00,44341.00 42613.00,44341.00 42613.00,44341.00
             42600.94,44339.66 42581.85,44334.90 42573.47,44325.82
             42566.34,44318.09 42567.06,44309.73 42562.35,44303.00
             42562.35,44303.00 42549.29,44289.00 42549.29,44289.00
             42543.07,44281.86 42537.14,44273.22 42532.43,44265.00
             42532.43,44265.00 42508.14,44214.00 42508.14,44214.00
             42508.14,44214.00 42498.43,44193.00 42498.43,44193.00
             42498.43,44193.00 42492.11,44177.00 42492.11,44177.00
             42492.11,44177.00 42469.60,44138.00 42469.60,44138.00
             42469.60,44138.00 42448.20,44102.00 42448.20,44102.00
             42445.71,44097.83 42441.75,44089.21 42438.79,44086.33
             42434.82,44082.47 42426.28,44078.99 42421.00,44077.05
             42408.10,44072.32 42394.86,44068.17 42381.00,44068.00
             42381.00,44068.00 42349.00,44068.00 42349.00,44068.00
             42349.00,44068.00 42318.00,44066.00 42318.00,44066.00
             42318.00,44066.00 42291.00,44066.00 42291.00,44066.00
             42291.00,44066.00 42237.00,44062.00 42237.00,44062.00
             42237.00,44062.00 42204.00,44062.00 42204.00,44062.00
             42204.00,44062.00 42176.00,44060.00 42176.00,44060.00
             42168.57,44059.92 42159.21,44059.86 42152.00,44061.53
             42152.00,44061.53 42107.00,44080.20 42107.00,44080.20
             42107.00,44080.20 42075.00,44091.27 42075.00,44091.27
             42069.32,44094.23 42061.99,44102.32 42057.00,44106.72
             42057.00,44106.72 42018.04,44145.00 42018.04,44145.00
             42018.04,44145.00 42005.58,44158.58 42005.58,44158.58
             42005.58,44158.58 41979.00,44182.04 41979.00,44182.04
             41979.00,44182.04 41931.00,44229.96 41931.00,44229.96
             41931.00,44229.96 41916.00,44243.09 41916.00,44243.09
             41916.00,44243.09 41888.00,44270.91 41888.00,44270.91
             41879.94,44278.42 41842.34,44307.78 41833.00,44313.92
             41802.35,44334.10 41772.09,44355.24 41740.00,44373.14
             41740.00,44373.14 41725.00,44380.26 41725.00,44380.26
             41725.00,44380.26 41679.00,44402.75 41679.00,44402.75
             41679.00,44402.75 41652.00,44417.04 41652.00,44417.04
             41648.04,44418.42 41645.04,44417.76 41641.00,44418.29
             41632.07,44419.45 41623.85,44423.31 41619.97,44432.00
             41613.88,44445.64 41629.08,44452.39 41633.96,44467.00
             41633.96,44467.00 41640.94,44493.00 41640.94,44493.00
             41640.94,44493.00 41640.94,44502.00 41640.94,44502.00
             41640.94,44502.00 41643.30,44517.00 41643.30,44517.00
             41643.30,44517.00 41645.79,44528.00 41645.79,44528.00
             41647.54,44536.27 41649.09,44545.56 41649.00,44554.00
             41648.83,44568.06 41640.33,44571.17 41636.43,44585.00
             41632.95,44597.33 41637.50,44601.71 41639.54,44613.00
             41639.54,44613.00 41640.64,44625.00 41640.64,44625.00
             41640.64,44625.00 41650.74,44645.00 41650.74,44645.00
             41650.74,44645.00 41655.87,44658.00 41655.87,44658.00
             41655.87,44658.00 41665.96,44677.00 41665.96,44677.00
             41665.96,44677.00 41682.22,44697.00 41682.22,44697.00
             41688.32,44705.56 41697.23,44724.87 41700.95,44735.00
             41707.85,44753.83 41710.99,44775.33 41715.42,44795.00
             41715.42,44795.00 41725.33,44828.00 41725.33,44828.00
             41727.36,44837.54 41730.12,44872.58 41730.00,44883.00
             41730.00,44883.00 41729.17,44892.00 41729.17,44892.00
             41727.46,44909.89 41727.22,44910.60 41722.87,44928.00
             41721.04,44935.32 41719.35,44944.06 41716.55,44951.00
             41712.76,44960.38 41706.32,44971.13 41701.28,44980.00
             41689.10,45001.44 41679.72,45015.77 41659.00,45030.28
             41646.82,45038.81 41631.16,45046.11 41617.00,45050.66
             41594.03,45058.02 41575.83,45059.28 41552.00,45059.00
             41552.00,45059.00 41520.00,45054.43 41520.00,45054.43
             41501.93,45051.81 41491.13,45051.12 41473.00,45045.57
             41460.84,45041.84 41449.52,45035.60 41438.00,45030.31
             41438.00,45030.31 41412.00,45018.74 41412.00,45018.74
             41412.00,45018.74 41366.00,44992.44 41366.00,44992.44
             41366.00,44992.44 41325.00,44976.55 41325.00,44976.55
             41325.00,44976.55 41298.00,44964.91 41298.00,44964.91
             41298.00,44964.91 41230.00,44947.95 41230.00,44947.95
             41218.89,44943.91 41208.57,44938.17 41199.00,44931.26
             41194.97,44928.34 41184.53,44919.23 41181.00,44917.86
             41177.04,44916.32 41164.27,44918.93 41159.00,44919.00
             41159.00,44919.00 41130.00,44919.00 41130.00,44919.00
             41130.00,44919.00 41101.00,44921.00 41101.00,44921.00
             41101.00,44921.00 41057.00,44921.00 41057.00,44921.00
             41057.00,44921.00 41031.00,44918.83 41031.00,44918.83
             41003.78,44916.10 40990.97,44906.72 40975.00,44904.60
             40975.00,44904.60 40944.00,44907.00 40944.00,44907.00
             40944.00,44907.00 40912.00,44907.00 40912.00,44907.00
             40890.92,44906.97 40854.34,44895.80 40837.00,44883.97
             40823.74,44874.92 40821.50,44870.51 40811.00,44860.00
             40811.00,44860.00 40791.00,44841.17 40791.00,44841.17
             40791.00,44841.17 40769.00,44821.96 40769.00,44821.96
             40759.13,44812.41 40740.19,44788.39 40734.32,44776.00
             40727.93,44762.51 40722.16,44731.44 40719.57,44716.00
             40716.67,44698.77 40711.03,44686.17 40711.00,44667.00
             40711.00,44667.00 40711.00,44635.00 40711.00,44635.00
             40711.02,44621.70 40715.27,44611.74 40717.58,44599.00
             40717.58,44599.00 40724.75,44557.00 40724.75,44557.00
             40726.22,44551.76 40733.53,44536.13 40736.31,44531.00
             40748.07,44509.25 40772.48,44472.79 40790.00,44456.04
             40804.35,44442.32 40820.16,44429.29 40838.00,44420.37
             40838.00,44420.37 40872.00,44406.83 40872.00,44406.83
             40872.00,44406.83 40900.00,44393.06 40900.00,44393.06
             40924.77,44383.67 40940.31,44382.33 40966.00,44379.83
             40982.73,44378.21 40990.82,44370.79 41002.00,44371.51
             41002.00,44371.51 41037.00,44375.00 41037.00,44375.00
             41037.00,44375.00 41066.00,44377.04 41066.00,44377.04
             41066.00,44377.04 41083.00,44377.04 41083.00,44377.04
             41083.00,44377.04 41093.00,44378.00 41093.00,44378.00
             41102.55,44378.11 41118.57,44377.16 41127.00,44381.38
             41146.24,44391.00 41159.51,44416.93 41159.99,44438.00
             41160.26,44450.26 41156.90,44457.77 41154.52,44469.00
             41152.77,44477.24 41156.39,44481.92 41149.21,44492.00
             41140.97,44503.57 41130.00,44508.27 41118.00,44514.27
             41118.00,44514.27 41090.00,44530.03 41090.00,44530.03
             41090.00,44530.03 41069.00,44539.61 41069.00,44539.61
             41058.70,44545.86 41053.78,44557.09 41047.80,44567.00
             41047.80,44567.00 41038.78,44582.00 41038.78,44582.00
             41038.78,44582.00 41030.75,44599.00 41030.75,44599.00
             41027.84,44604.80 41024.04,44610.64 41022.52,44617.00
             41020.74,44624.49 41020.91,44632.36 41021.00,44640.00
             41021.00,44640.00 41022.96,44667.00 41022.96,44667.00
             41023.19,44671.66 41023.25,44678.98 41026.65,44682.57
             41029.28,44685.36 41040.10,44686.28 41045.00,44688.05
             41051.68,44690.47 41077.32,44702.86 41083.00,44706.55
             41093.17,44713.14 41094.14,44720.12 41100.04,44724.49
             41103.23,44726.85 41109.99,44728.16 41114.00,44729.12
             41121.15,44730.81 41143.54,44735.30 41150.00,44734.91
             41156.42,44734.51 41169.04,44729.64 41173.96,44725.61
             41180.40,44720.34 41184.64,44710.90 41198.00,44705.45
             41198.00,44705.45 41223.00,44697.43 41223.00,44697.43
             41226.75,44696.36 41234.00,44695.01 41236.99,44693.15
             41243.35,44689.18 41248.86,44676.56 41253.09,44670.00
             41261.49,44656.97 41280.14,44636.92 41285.19,44624.00
             41286.80,44619.89 41290.03,44611.23 41289.58,44607.00
             41288.92,44600.70 41283.22,44595.24 41279.00,44591.00
             41271.95,44583.91 41267.00,44578.73 41261.86,44570.00
             41261.86,44570.00 41240.14,44530.00 41240.14,44530.00
             41240.14,44530.00 41220.31,44498.00 41220.31,44498.00
             41220.31,44498.00 41210.54,44476.00 41210.54,44476.00
             41210.54,44476.00 41192.58,44450.00 41192.58,44450.00
             41189.22,44445.25 41184.85,44439.74 41183.53,44434.00
             41180.09,44419.12 41193.90,44395.17 41204.00,44385.00
             41207.78,44381.20 41211.69,44377.17 41217.00,44375.64
             41223.54,44373.75 41228.05,44376.33 41234.00,44378.26
             41240.51,44380.36 41253.47,44384.31 41260.00,44383.91
             41275.20,44382.97 41287.91,44370.63 41294.96,44358.00
             41297.96,44352.63 41301.12,44343.71 41304.79,44339.10
             41309.13,44333.63 41323.60,44330.67 41331.00,44326.38
             41331.00,44326.38 41378.00,44292.25 41378.00,44292.25
             41384.58,44286.77 41392.04,44277.58 41401.00,44277.63
             41408.12,44277.67 41416.15,44275.38 41423.00,44273.42
             41447.61,44266.40 41458.30,44259.07 41479.00,44244.42
             41479.00,44244.42 41533.00,44207.42 41533.00,44207.42
             41533.00,44207.42 41550.00,44195.48 41550.00,44195.48
             41550.00,44195.48 41573.00,44173.82 41573.00,44173.82
             41573.00,44173.82 41600.00,44158.57 41600.00,44158.57
             41600.00,44158.57 41626.00,44142.43 41626.00,44142.43
             41641.58,44133.50 41657.67,44125.28 41672.00,44114.35
             41690.99,44099.85 41716.22,44079.60 41732.91,44062.91
             41732.91,44062.91 41740.04,44055.00 41740.04,44055.00
             41740.04,44055.00 41759.56,44034.00 41759.56,44034.00
             41759.56,44034.00 41775.09,44015.00 41775.09,44015.00
             41775.09,44015.00 41791.00,43999.96 41791.00,43999.96
             41791.00,43999.96 41815.99,43975.00 41815.99,43975.00
             41815.99,43975.00 41825.04,43965.00 41825.04,43965.00
             41825.04,43965.00 41836.71,43953.00 41836.71,43953.00
             41836.71,43953.00 41849.46,43937.04 41849.46,43937.04
             41851.99,43934.10 41854.24,43932.49 41857.00,43929.91
             41857.00,43929.91 41871.83,43915.00 41871.83,43915.00
             41878.99,43907.08 41890.03,43894.49 41896.09,43886.00
             41896.09,43886.00 41907.75,43868.00 41907.75,43868.00
             41913.53,43859.97 41924.71,43848.35 41927.23,43839.00
             41928.96,43833.39 41927.54,43826.68 41927.23,43821.00
             41927.23,43821.00 41926.00,43791.00 41926.00,43791.00
             41926.00,43791.00 41930.57,43763.00 41930.57,43763.00
             41930.57,43763.00 41933.81,43738.00 41933.81,43738.00
             41937.06,43721.75 41947.75,43694.59 41957.03,43681.00
             41962.66,43672.75 41968.93,43665.05 41976.00,43658.00
             41983.35,43650.67 41987.99,43648.20 41993.77,43639.00
             41993.77,43639.00 42022.18,43575.00 42022.18,43575.00
             42022.18,43575.00 42045.01,43536.00 42045.01,43536.00
             42051.77,43524.50 42058.75,43511.65 42059.25,43498.00
             42059.42,43493.37 42057.93,43487.63 42057.00,43483.00
             42055.35,43474.75 42052.56,43459.56 42047.37,43453.18
             42043.86,43448.87 42037.60,43446.42 42033.00,43443.45
             42033.00,43443.45 42011.00,43427.56 42011.00,43427.56
             42001.89,43421.96 41989.76,43426.52 41984.57,43415.98
             41982.96,43412.73 41982.08,43404.18 41981.11,43400.00
             41981.11,43400.00 41975.47,43380.00 41975.47,43380.00
             41975.47,43380.00 41972.25,43364.00 41972.25,43364.00
             41972.25,43364.00 41959.31,43325.00 41959.31,43325.00
             41959.31,43325.00 41951.90,43303.00 41951.90,43303.00
             41950.13,43295.78 41949.04,43288.42 41949.00,43281.00
             41948.93,43268.16 41945.55,43267.50 41943.52,43258.00
             41943.52,43258.00 41941.33,43241.00 41941.33,43241.00
             41941.33,43241.00 41926.00,43192.00 41926.00,43192.00
             41922.40,43181.10 41919.02,43175.76 41919.00,43164.00
             41919.00,43164.00 41919.00,43152.00 41919.00,43152.00
             41919.36,43121.32 41941.76,43109.54 41954.69,43086.00
             41966.58,43064.35 41963.26,43059.29 41968.46,43046.00
             41968.46,43046.00 41978.22,43026.00 41978.22,43026.00
             41978.22,43026.00 41986.85,43005.00 41986.85,43005.00
             41986.85,43005.00 41994.53,42988.00 41994.53,42988.00
             41994.53,42988.00 41999.72,42967.00 41999.72,42967.00
             42004.18,42952.27 42016.22,42941.19 42032.00,42941.00
             42032.00,42941.00 42036.00,42941.00 42036.00,42941.00
             42046.37,42941.05 42049.15,42944.85 42052.79,42942.94
             42056.40,42941.03 42058.02,42932.82 42059.34,42929.00
             42063.18,42917.90 42069.00,42907.49 42074.25,42897.00
             42074.25,42897.00 42103.74,42831.00 42103.74,42831.00
             42108.96,42820.22 42111.98,42809.05 42123.00,42802.48
             42131.32,42797.52 42146.41,42798.17 42156.00,42798.00
             42165.91,42797.81 42162.32,42793.97 42170.18,42785.00
             42175.43,42779.01 42188.35,42768.36 42195.00,42763.37
             42210.95,42751.41 42228.96,42742.97 42247.00,42734.69
             42258.00,42729.64 42278.44,42719.96 42290.00,42718.15
             42290.00,42718.15 42303.00,42718.15 42303.00,42718.15
             42314.29,42718.15 42314.23,42722.97 42322.00,42726.85
             42325.85,42728.78 42333.50,42729.18 42338.00,42729.72
             42355.99,42731.87 42374.34,42732.46 42392.00,42736.89
             42402.56,42739.55 42405.32,42742.64 42414.00,42745.94
             42414.00,42745.94 42430.00,42751.20 42430.00,42751.20
             42430.00,42751.20 42471.00,42770.74 42471.00,42770.74
             42471.00,42770.74 42489.00,42780.10 42489.00,42780.10
             42489.00,42780.10 42504.00,42791.90 42504.00,42791.90
             42510.84,42796.42 42518.02,42798.13 42523.47,42805.02
             42531.90,42815.65 42529.17,42830.42 42531.46,42843.00
             42533.09,42851.96 42537.77,42858.15 42541.63,42866.00
             42541.63,42866.00 42544.80,42874.00 42544.80,42874.00
             42548.48,42881.95 42565.19,42890.70 42573.00,42895.40
             42579.66,42899.40 42585.58,42903.10 42584.66,42912.00
             42583.75,42920.80 42577.11,42924.06 42576.96,42929.00
             42576.87,42931.79 42579.38,42935.65 42580.81,42938.00
             42584.26,42943.67 42588.40,42948.93 42591.14,42955.00
             42591.14,42955.00 42597.32,42971.00 42597.32,42971.00
             42597.32,42971.00 42613.00,42999.00 42613.00,42999.00
             42616.07,43004.40 42619.20,43012.44 42625.04,43015.18
             42630.21,43017.61 42640.13,43017.50 42644.91,43014.27
             42647.76,43012.34 42649.39,43009.09 42655.00,43004.92
             42661.23,43000.30 42668.97,42996.08 42676.00,42992.78
             42691.78,42985.38 42709.41,42984.22 42726.00,42979.84
             42732.01,42978.26 42758.91,42966.46 42765.00,42963.22
             42781.71,42954.32 42786.95,42941.14 42800.00,42935.35
             42805.89,42932.73 42810.74,42932.93 42817.00,42933.00
             42824.12,42933.09 42830.16,42934.95 42833.35,42942.00
             42833.35,42942.00 42836.05,42953.00 42836.05,42953.00
             42837.36,42957.17 42839.37,42960.13 42841.22,42964.00
             42843.27,42968.32 42844.55,42975.65 42850.02,42976.52
             42850.02,42976.52 42864.00,42975.05 42864.00,42975.05
             42869.04,42974.49 42885.82,42971.93 42890.00,42970.45
             42890.00,42970.45 42919.00,42955.37 42919.00,42955.37
             42919.00,42955.37 42946.00,42943.74 42946.00,42943.74
             42946.00,42943.74 42999.00,42916.25 42999.00,42916.25
             43020.76,42905.37 43035.40,42899.06 43055.00,42883.49
             43055.00,42883.49 43075.00,42865.28 43075.00,42865.28
             43075.00,42865.28 43114.00,42831.83 43114.00,42831.83
             43114.00,42831.83 43126.00,42820.04 43126.00,42820.04
             43126.00,42820.04 43155.00,42793.29 43155.00,42793.29
             43164.68,42784.81 43175.43,42777.35 43186.00,42770.02
             43193.32,42764.95 43201.93,42759.71 43207.70,42753.00
             43207.70,42753.00 43229.02,42721.00 43229.02,42721.00
             43229.02,42721.00 43248.31,42694.00 43248.31,42694.00
             43248.31,42694.00 43266.05,42665.00 43266.05,42665.00
             43266.05,42665.00 43279.56,42645.00 43279.56,42645.00
             43279.56,42645.00 43294.02,42622.00 43294.02,42622.00
             43294.02,42622.00 43309.23,42600.00 43309.23,42600.00
             43315.37,42591.93 43327.92,42576.23 43332.22,42568.00
             43335.69,42561.36 43337.54,42553.22 43339.72,42546.00
             43339.72,42546.00 43349.00,42518.00 43349.00,42518.00
             43349.00,42518.00 43353.45,42505.00 43353.45,42505.00
             43357.16,42495.85 43361.43,42490.63 43360.96,42480.00
             43360.62,42472.19 43352.27,42458.77 43349.05,42450.00
             43344.78,42438.33 43342.02,42417.45 43342.00,42405.00
             43342.00,42405.00 43342.00,42372.00 43342.00,42372.00
             43342.00,42372.00 43345.30,42337.00 43345.30,42337.00
             43347.26,42323.83 43351.78,42319.57 43352.00,42301.00
             43352.00,42301.00 43352.00,42293.00 43352.00,42293.00
             43352.02,42280.72 43355.37,42267.94 43358.12,42256.00
             43358.12,42256.00 43364.52,42229.00 43364.52,42229.00
             43364.52,42229.00 43382.49,42189.00 43382.49,42189.00
             43382.49,42189.00 43395.51,42166.00 43395.51,42166.00
             43395.51,42166.00 43405.89,42141.00 43405.89,42141.00
             43413.43,42126.78 43420.97,42120.32 43421.00,42103.00
             43421.00,42103.00 43421.00,42062.00 43421.00,42062.00
             43420.87,42050.99 43415.54,42034.61 43412.00,42024.00
             43412.00,42024.00 43403.82,42002.00 43403.82,42002.00
             43403.82,42002.00 43386.17,41976.00 43386.17,41976.00
             43386.17,41976.00 43365.08,41929.00 43365.08,41929.00
             43365.08,41929.00 43353.13,41879.00 43353.13,41879.00
             43353.13,41879.00 43349.91,41866.00 43349.91,41866.00
             43349.91,41866.00 43344.34,41852.00 43344.34,41852.00
             43344.34,41852.00 43339.13,41836.00 43339.13,41836.00
             43339.13,41836.00 43330.54,41817.00 43330.54,41817.00
             43330.54,41817.00 43319.55,41783.00 43319.55,41783.00
             43319.55,41783.00 43309.81,41760.00 43309.81,41760.00
             43309.81,41760.00 43299.95,41732.00 43299.95,41732.00
             43299.95,41732.00 43294.16,41716.00 43294.16,41716.00
             43291.09,41704.38 43290.99,41691.90 43289.83,41680.00
             43289.83,41680.00 43284.44,41649.00 43284.44,41649.00
             43284.44,41649.00 43281.58,41626.00 43281.58,41626.00
             43281.58,41626.00 43278.29,41609.00 43278.29,41609.00
             43278.29,41609.00 43274.58,41581.00 43274.58,41581.00
             43274.58,41581.00 43268.00,41540.00 43268.00,41540.00
             43268.00,41540.00 43268.00,41509.00 43268.00,41509.00
             43268.00,41509.00 43269.91,41487.00 43269.91,41487.00
             43271.18,41469.68 43273.31,41449.77 43277.73,41433.00
             43281.51,41418.68 43287.58,41407.47 43293.14,41394.00
             43293.14,41394.00 43303.44,41362.00 43303.44,41362.00
             43303.44,41362.00 43313.94,41340.00 43313.94,41340.00
             43317.29,41331.13 43316.49,41326.73 43317.09,41318.00
             43317.09,41318.00 43317.99,41309.00 43317.99,41309.00
             43318.13,41304.18 43318.64,41293.97 43321.01,41290.00
             43328.58,41277.29 43345.02,41276.61 43350.65,41267.91
             43350.65,41267.91 43357.31,41253.00 43357.31,41253.00
             43360.14,41246.81 43363.47,41241.73 43365.10,41235.00
             43367.91,41223.42 43365.07,41216.16 43376.04,41206.30
             43385.15,41198.11 43402.47,41190.26 43414.00,41185.60
             43421.61,41182.53 43430.13,41180.91 43435.21,41173.98
             43442.20,41164.46 43440.88,41154.95 43441.00,41144.00
             43441.00,41144.00 43444.00,41110.00 43444.00,41110.00
             43444.00,41110.00 43444.00,41087.00 43444.00,41087.00
             43444.13,41076.30 43447.90,41066.38 43456.00,41059.18
             43461.28,41054.50 43467.86,41052.51 43470.69,41046.99
             43472.39,41043.65 43472.95,41037.75 43473.00,41034.00
             43473.00,41034.00 43473.00,41001.00 43473.00,41001.00
             43473.16,40987.73 43479.05,40972.40 43485.58,40961.00
             43501.11,40933.87 43523.98,40913.69 43551.00,40898.42
             43565.88,40890.02 43581.22,40885.28 43597.00,40879.19
             43597.00,40879.19 43653.00,40857.95 43653.00,40857.95
             43653.00,40857.95 43680.00,40848.03 43680.00,40848.03
             43680.00,40848.03 43733.00,40833.31 43733.00,40833.31
             43751.99,40826.55 43770.87,40818.52 43789.00,40809.74
             43789.00,40809.74 43817.00,40795.26 43817.00,40795.26
             43817.00,40795.26 43834.00,40787.69 43834.00,40787.69
             43834.00,40787.69 43872.00,40770.14 43872.00,40770.14
             43872.00,40770.14 43920.00,40746.25 43920.00,40746.25
             43920.00,40746.25 43967.00,40721.94 43967.00,40721.94
             43967.00,40721.94 44009.00,40691.87 44009.00,40691.87
             44009.00,40691.87 44028.00,40677.99 44028.00,40677.99
             44028.00,40677.99 44063.00,40647.15 44063.00,40647.15
             44063.00,40647.15 44083.00,40629.80 44083.00,40629.80
             44083.00,40629.80 44107.83,40609.56 44107.83,40609.56
             44107.83,40609.56 44137.00,40580.04 44137.00,40580.04
             44137.00,40580.04 44165.00,40555.87 44165.00,40555.87
             44165.00,40555.87 44187.00,40536.32 44187.00,40536.32
             44187.00,40536.32 44216.00,40514.85 44216.00,40514.85
             44216.00,40514.85 44251.00,40486.83 44251.00,40486.83
             44261.17,40477.64 44282.81,40455.00 44290.56,40444.00
             44290.56,40444.00 44307.86,40414.00 44307.86,40414.00
             44314.91,40401.36 44324.66,40385.04 44327.57,40371.00
             44329.47,40361.85 44324.51,40357.31 44319.67,40350.00
             44319.67,40350.00 44300.31,40318.00 44300.31,40318.00
             44295.46,40309.04 44293.91,40303.46 44290.98,40294.00
             44288.42,40285.79 44285.82,40279.75 44284.44,40271.00
             44282.52,40258.83 44282.86,40246.30 44283.00,40234.00
             44283.00,40234.00 44284.83,40215.00 44284.83,40215.00
             44284.83,40215.00 44286.43,40198.00 44286.43,40198.00
             44289.34,40177.79 44299.08,40148.05 44304.97,40128.00
             44304.97,40128.00 44320.05,40063.00 44320.05,40063.00
             44320.05,40063.00 44340.37,40017.00 44340.37,40017.00
             44340.37,40017.00 44349.74,40000.00 44349.74,40000.00
             44349.74,40000.00 44360.51,39977.00 44360.51,39977.00
             44360.51,39977.00 44378.10,39950.00 44378.10,39950.00
             44378.10,39950.00 44390.94,39922.00 44390.94,39922.00
             44396.74,39906.84 44395.74,39904.51 44404.86,39889.00
             44421.30,39861.03 44455.30,39831.42 44482.00,39813.02
             44487.25,39809.41 44495.81,39803.61 44502.00,39802.60
             44507.36,39801.31 44511.04,39802.83 44515.00,39802.60
             44517.69,39802.82 44525.16,39801.23 44528.00,39800.53
             44538.77,39797.84 44541.56,39795.48 44551.00,39791.81
             44551.00,39791.81 44579.00,39781.25 44579.00,39781.25
             44579.00,39781.25 44627.00,39753.26 44627.00,39753.26
             44627.00,39753.26 44648.00,39745.19 44648.00,39745.19
             44648.00,39745.19 44680.00,39731.60 44680.00,39731.60
             44680.00,39731.60 44698.00,39725.13 44698.00,39725.13
             44698.00,39725.13 44717.00,39715.55 44717.00,39715.55
             44717.00,39715.55 44727.00,39709.31 44727.00,39709.31
             44727.00,39709.31 44755.00,39695.74 44755.00,39695.74
             44778.90,39684.17 44795.41,39673.94 44811.36,39652.00
             44815.81,39645.88 44819.07,39638.90 44822.14,39632.00
             44824.35,39627.04 44825.76,39622.34 44830.10,39618.76
             44842.59,39608.47 44852.47,39607.44 44863.00,39601.59
             44868.42,39598.58 44870.89,39594.12 44877.00,39590.99
             44877.00,39590.99 44907.00,39581.58 44907.00,39581.58
             44921.62,39577.41 44936.71,39572.02 44952.00,39572.00
             44952.00,39572.00 44975.00,39572.00 44975.00,39572.00
             44975.00,39572.00 45004.00,39575.86 45004.00,39575.86
             45004.00,39575.86 45017.00,39575.86 45017.00,39575.86
             45017.00,39575.86 45027.00,39576.91 45027.00,39576.91
             45027.00,39576.91 45057.00,39579.17 45057.00,39579.17
             45057.00,39579.17 45077.00,39581.00 45077.00,39581.00
             45077.00,39581.00 45097.00,39581.00 45097.00,39581.00
             45097.00,39581.00 45112.00,39582.00 45112.00,39582.00
             45112.00,39582.00 45127.00,39582.00 45127.00,39582.00
             45134.71,39582.01 45141.54,39582.78 45147.83,39587.79
             45153.53,39592.32 45159.50,39602.97 45165.09,39609.00
             45165.09,39609.00 45180.99,39624.01 45180.99,39624.01
             45180.99,39624.01 45198.00,39644.00 45198.00,39644.00
             45202.48,39649.66 45209.81,39661.55 45216.00,39664.35
             45221.66,39666.91 45237.12,39665.92 45244.00,39666.00
             45251.42,39666.09 45263.99,39668.07 45269.82,39672.79
             45276.73,39678.39 45278.82,39688.32 45282.31,39696.00
             45282.31,39696.00 45294.48,39716.00 45294.48,39716.00
             45297.67,39721.89 45296.27,39726.84 45302.05,39731.37
             45302.05,39731.37 45321.00,39743.00 45321.00,39743.00
             45321.00,39743.00 45347.00,39758.69 45347.00,39758.69
             45347.00,39758.69 45368.00,39769.43 45368.00,39769.43
             45374.29,39773.02 45396.82,39787.11 45402.00,39788.33
             45405.98,39789.26 45410.14,39787.17 45414.00,39786.16
             45418.71,39784.92 45421.22,39784.95 45426.00,39785.00
             45445.47,39785.23 45448.97,39796.48 45458.74,39810.00
             45458.74,39810.00 45477.00,39832.00 45477.00,39832.00
             45481.30,39825.99 45490.45,39817.55 45496.00,39812.00
             45508.62,39799.38 45521.89,39787.37 45536.00,39776.42
             45536.00,39776.42 45567.00,39753.38 45567.00,39753.38
             45567.00,39753.38 45589.00,39734.27 45589.00,39734.27
             45589.00,39734.27 45618.00,39709.83 45618.00,39709.83
             45618.00,39709.83 45647.91,39680.00 45647.91,39680.00
             45647.91,39680.00 45674.28,39647.00 45674.28,39647.00
             45674.28,39647.00 45709.28,39607.00 45709.28,39607.00
             45714.06,39601.55 45721.58,39594.32 45723.12,39587.00
             45724.24,39581.70 45717.65,39563.94 45715.67,39558.00
             45715.67,39558.00 45708.34,39537.00 45708.34,39537.00
             45708.34,39537.00 45696.31,39518.00 45696.31,39518.00
             45689.17,39505.00 45685.02,39489.85 45685.00,39475.00
             45685.00,39475.00 45685.00,39452.00 45685.00,39452.00
             45685.03,39433.83 45693.98,39404.15 45702.26,39388.00
             45702.26,39388.00 45731.13,39342.00 45731.13,39342.00
             45731.13,39342.00 45738.86,39318.00 45738.86,39318.00
             45738.86,39318.00 45752.09,39287.00 45752.09,39287.00
             45752.09,39287.00 45760.05,39262.00 45760.05,39262.00
             45760.05,39262.00 45772.30,39235.00 45772.30,39235.00
             45777.98,39219.09 45775.55,39217.24 45785.31,39196.00
             45790.58,39184.51 45797.32,39172.11 45804.89,39162.00
             45804.89,39162.00 45822.25,39140.00 45822.25,39140.00
             45822.25,39140.00 45828.81,39122.00 45828.81,39122.00
             45833.67,39109.42 45839.30,39096.45 45846.42,39085.00
             45852.37,39075.45 45857.33,39069.47 45864.58,39061.00
             45870.65,39053.91 45874.44,39051.10 45877.94,39042.00
             45877.94,39042.00 45893.08,38999.00 45893.08,38999.00
             45893.08,38999.00 45895.65,38987.00 45895.65,38987.00
             45895.65,38987.00 45904.75,38952.00 45904.75,38952.00
             45909.19,38938.15 45921.94,38913.88 45930.43,38902.00
             45946.67,38879.27 45969.22,38856.83 45993.00,38842.06
             46008.29,38832.57 46029.17,38823.53 46046.00,38816.80
             46062.71,38810.12 46087.46,38801.38 46105.00,38798.43
             46135.25,38793.35 46167.32,38794.95 46198.00,38795.00
             46218.97,38795.03 46240.99,38802.86 46253.00,38803.00
             46253.00,38803.00 46274.00,38803.00 46274.00,38803.00
             46276.86,38802.99 46280.32,38803.08 46282.90,38801.69
             46287.25,38799.34 46287.96,38794.32 46288.96,38790.00
             46291.43,38781.73 46296.00,38773.58 46288.96,38766.21
             46284.86,38762.21 46270.09,38757.08 46264.00,38754.03
             46252.62,38748.34 46238.78,38738.86 46228.00,38731.67
             46228.00,38731.67 46207.00,38717.21 46207.00,38717.21
             46203.76,38714.69 46193.88,38706.66 46191.00,38705.30
             46187.27,38703.53 46182.05,38703.31 46178.00,38702.54
             46178.00,38702.54 46157.00,38697.63 46157.00,38697.63
             46144.03,38694.38 46125.62,38687.02 46113.00,38687.00
             46113.00,38687.00 46057.00,38684.00 46057.00,38684.00
             46057.00,38684.00 46025.00,38681.00 46025.00,38681.00
             46025.00,38681.00 45993.00,38678.09 45993.00,38678.09
             45993.00,38678.09 45971.00,38676.91 45971.00,38676.91
             45971.00,38676.91 45959.00,38676.00 45959.00,38676.00
             45959.00,38676.00 45924.00,38676.00 45924.00,38676.00
             45924.00,38676.00 45912.00,38675.04 45912.00,38675.04
             45912.00,38675.04 45899.00,38675.04 45899.00,38675.04
             45899.00,38675.04 45885.00,38674.00 45885.00,38674.00
             45873.02,38673.86 45858.32,38675.40 45849.19,38665.90
             45842.42,38658.85 45842.13,38649.68 45839.56,38641.00
             45839.56,38641.00 45829.09,38615.00 45829.09,38615.00
             45829.09,38615.00 45826.25,38603.00 45826.25,38603.00
             45826.25,38603.00 45807.75,38551.00 45807.75,38551.00
             45807.75,38551.00 45803.54,38524.00 45803.54,38524.00
             45803.54,38524.00 45792.40,38471.00 45792.40,38471.00
             45792.40,38471.00 45786.16,38447.00 45786.16,38447.00
             45785.11,38443.00 45785.22,38438.76 45783.64,38435.00
             45783.64,38435.00 45776.54,38423.00 45776.54,38423.00
             45774.12,38418.36 45774.67,38415.30 45772.42,38412.04
             45768.38,38406.18 45756.27,38399.16 45749.00,38398.53
             45739.78,38397.72 45725.40,38408.01 45718.52,38400.61
             45714.84,38396.80 45716.40,38392.95 45718.52,38389.00
             45721.69,38383.54 45727.57,38375.44 45726.77,38369.00
             45726.34,38365.45 45723.84,38361.43 45722.45,38358.00
             45720.55,38353.30 45719.89,38349.14 45716.61,38345.01
             45709.35,38335.90 45692.26,38332.00 45681.00,38331.18
             45674.87,38330.74 45661.94,38335.08 45657.72,38330.49
             45653.12,38325.47 45655.31,38316.72 45659.34,38312.09
             45664.06,38306.65 45673.71,38301.62 45677.26,38296.00
             45679.65,38292.21 45678.89,38287.95 45681.64,38282.00
             45685.40,38273.90 45697.58,38257.25 45704.00,38251.04
             45704.00,38251.04 45727.00,38232.68 45727.00,38232.68
             45727.00,38232.68 45745.00,38216.18 45745.00,38216.18
             45745.00,38216.18 45759.91,38204.70 45759.91,38204.70
             45759.91,38204.70 45773.42,38189.00 45773.42,38189.00
             45777.22,38184.50 45786.32,38174.67 45788.56,38170.00
             45788.56,38170.00 45796.36,38127.00 45796.36,38127.00
             45796.36,38127.00 45812.55,38096.00 45812.55,38096.00
             45815.87,38087.86 45819.96,38075.70 45821.06,38067.00
             45821.06,38067.00 45821.06,38057.00 45821.06,38057.00
             45821.06,38057.00 45822.70,38050.00 45822.70,38050.00
             45822.70,38050.00 45824.00,38029.00 45824.00,38029.00
             45824.00,38029.00 45827.83,37983.00 45827.83,37983.00
             45828.67,37974.31 45828.59,37962.86 45832.33,37955.00
             45833.43,37952.67 45834.53,37950.96 45836.21,37949.00
             45846.65,37936.85 45852.25,37944.29 45863.00,37943.48
             45869.00,37943.03 45873.48,37941.07 45879.00,37939.05
             45888.36,37935.63 45898.09,37932.81 45901.21,37922.00
             45904.06,37912.14 45899.49,37895.77 45909.10,37888.70
             45912.97,37885.85 45931.17,37883.26 45938.00,37881.00
             45938.00,37881.00 45962.00,37872.74 45962.00,37872.74
             45962.00,37872.74 45983.00,37868.52 45983.00,37868.52
             45983.00,37868.52 46027.00,37854.31 46027.00,37854.31
             46041.44,37849.04 46052.80,37836.38 46069.00,37837.04
             46070.73,37837.11 46072.31,37837.27 46074.00,37837.68
             46088.57,37841.24 46076.85,37852.90 46082.85,37867.00
             46085.54,37873.30 46097.80,37880.22 46104.00,37883.34
             46104.00,37883.34 46118.00,37889.27 46118.00,37889.27
             46125.45,37892.99 46131.01,37897.29 46140.00,37896.90
             46145.11,37896.67 46155.04,37894.29 46160.00,37892.65
             46164.79,37891.06 46169.82,37888.44 46175.00,37889.54
             46185.09,37891.70 46192.47,37903.89 46199.09,37911.00
             46207.84,37920.39 46213.57,37922.86 46223.00,37930.61
             46223.00,37930.61 46237.00,37943.79 46237.00,37943.79
             46245.07,37950.59 46250.86,37946.83 46257.61,37955.04
             46267.17,37966.67 46257.78,37982.14 46261.92,37992.00
             46261.92,37992.00 46269.73,38006.00 46269.73,38006.00
             46269.73,38006.00 46276.27,38021.00 46276.27,38021.00
             46276.27,38021.00 46286.75,38040.00 46286.75,38040.00
             46286.75,38040.00 46300.22,38069.00 46300.22,38069.00
             46300.22,38069.00 46304.88,38079.00 46304.88,38079.00
             46304.88,38079.00 46321.19,38103.00 46321.19,38103.00
             46326.30,38113.24 46322.43,38115.76 46323.22,38122.00
             46323.76,38126.26 46331.67,38144.53 46334.39,38148.00
             46334.39,38148.00 46346.00,38160.00 46346.00,38160.00
             46358.46,38172.46 46370.49,38182.21 46388.00,38186.35
             46391.41,38187.15 46395.51,38188.08 46399.00,38187.82
             46415.12,38186.60 46424.97,38177.30 46425.00,38161.00
             46425.00,38161.00 46425.00,38111.00 46425.00,38111.00
             46425.03,38108.73 46424.99,38106.23 46426.17,38104.21
             46428.71,38099.88 46440.18,38096.10 46445.00,38094.32
             46463.76,38087.39 46493.07,38080.24 46513.00,38080.00
             46517.21,38079.95 46531.91,38079.56 46535.00,38080.74
             46541.06,38083.05 46544.74,38091.81 46556.00,38091.54
             46565.33,38091.31 46570.28,38085.41 46577.00,38082.53
             46580.78,38080.91 46583.13,38081.19 46587.00,38080.72
             46590.54,38080.29 46593.50,38079.54 46596.91,38081.31
             46599.57,38082.70 46603.31,38087.37 46606.00,38089.70
             46615.67,38098.07 46618.62,38096.66 46626.64,38109.00
             46628.29,38111.53 46629.74,38113.88 46629.84,38117.00
             46629.99,38121.84 46626.51,38125.03 46624.35,38129.00
             46620.61,38135.88 46621.03,38142.00 46626.21,38147.99
             46630.90,38153.41 46636.01,38155.34 46640.96,38160.09
             46640.96,38160.09 46653.28,38174.00 46653.28,38174.00
             46653.28,38174.00 46666.92,38189.00 46666.92,38189.00
             46669.13,38191.40 46673.37,38196.32 46675.01,38199.00
             46677.21,38202.58 46677.34,38205.38 46681.11,38208.01
             46683.51,38209.69 46701.77,38216.97 46705.00,38217.76
             46713.11,38219.74 46717.66,38218.64 46723.61,38226.02
             46728.40,38231.95 46730.85,38243.55 46733.33,38251.00
             46733.33,38251.00 46738.57,38266.00 46738.57,38266.00
             46738.57,38266.00 46744.02,38287.00 46744.02,38287.00
             46744.02,38287.00 46751.66,38308.00 46751.66,38308.00
             46751.66,38308.00 46762.09,38344.00 46762.09,38344.00
             46762.09,38344.00 46774.91,38372.00 46774.91,38372.00
             46774.91,38372.00 46782.88,38403.00 46782.88,38403.00
             46782.88,38403.00 46790.87,38430.00 46790.87,38430.00
             46790.87,38430.00 46796.20,38457.00 46796.20,38457.00
             46797.03,38461.16 46797.92,38467.58 46800.51,38470.90
             46803.41,38474.61 46809.66,38477.10 46814.00,38478.80
             46823.41,38482.48 46825.87,38480.38 46835.00,38477.33
             46844.95,38474.02 46854.59,38469.87 46864.00,38465.24
             46871.39,38461.61 46885.09,38455.44 46888.83,38448.00
             46890.34,38444.98 46889.83,38441.35 46890.47,38438.00
             46891.32,38433.46 46893.21,38429.71 46895.93,38426.00
             46904.18,38414.74 46916.52,38411.79 46922.36,38403.96
             46922.36,38403.96 46933.42,38380.00 46933.42,38380.00
             46939.39,38366.28 46945.97,38352.88 46953.60,38340.00
             46966.65,38317.99 46968.32,38304.39 46973.20,38280.00
             46973.20,38280.00 46978.39,38255.00 46978.39,38255.00
             46978.39,38255.00 46981.01,38235.00 46981.01,38235.00
             46981.01,38235.00 46987.77,38211.00 46987.77,38211.00
             46987.77,38211.00 46995.43,38177.00 46995.43,38177.00
             46995.43,38177.00 47004.85,38148.00 47004.85,38148.00
             47004.85,38148.00 47015.22,38107.00 47015.22,38107.00
             47015.22,38107.00 47028.79,38077.00 47028.79,38077.00
             47028.79,38077.00 47033.75,38059.00 47033.75,38059.00
             47033.75,38059.00 47041.28,38038.00 47041.28,38038.00
             47041.28,38038.00 47047.69,38016.00 47047.69,38016.00
             47054.21,37998.13 47064.71,37987.06 47075.28,37972.00
             47075.28,37972.00 47100.31,37935.00 47100.31,37935.00
             47106.59,37927.24 47123.73,37907.99 47127.95,37900.00
             47130.02,37896.09 47130.87,37890.38 47131.88,37886.00
             47131.88,37886.00 47138.21,37856.00 47138.21,37856.00
             47138.21,37856.00 47144.54,37832.00 47144.54,37832.00
             47144.54,37832.00 47146.27,37817.00 47146.27,37817.00
             47146.27,37817.00 47149.06,37802.00 47149.06,37802.00
             47149.06,37802.00 47149.06,37790.00 47149.06,37790.00
             47149.06,37790.00 47153.00,37755.00 47153.00,37755.00
             47153.00,37755.00 47153.00,37697.00 47153.00,37697.00
             47152.99,37689.76 47152.54,37683.52 47146.90,37678.21
             47142.99,37674.53 47139.69,37674.41 47135.09,37669.90
             47131.70,37666.57 47122.48,37652.56 47119.87,37648.00
             47119.87,37648.00 47113.69,37636.00 47113.69,37636.00
             47113.69,37636.00 47103.26,37617.00 47103.26,37617.00
             47103.26,37617.00 47096.68,37602.00 47096.68,37602.00
             47091.15,37591.64 47087.89,37590.34 47082.81,37577.00
             47082.81,37577.00 47072.57,37539.00 47072.57,37539.00
             47068.60,37525.09 47062.17,37514.03 47062.00,37499.00
             47061.94,37493.13 47062.04,37487.01 47065.65,37482.04
             47069.56,37476.66 47077.43,37473.89 47083.00,37469.96
             47090.73,37464.49 47093.85,37459.62 47097.19,37451.00
             47097.19,37451.00 47109.32,37405.00 47109.32,37405.00
             47117.06,37388.46 47129.27,37382.65 47135.69,37371.00
             47135.69,37371.00 47150.86,37329.00 47150.86,37329.00
             47150.86,37329.00 47160.22,37310.00 47160.22,37310.00
             47160.22,37310.00 47175.42,37276.00 47175.42,37276.00
             47179.85,37265.83 47184.98,37258.32 47185.00,37247.00
             47185.00,37247.00 47185.00,37207.00 47185.00,37207.00
             47184.87,37196.59 47181.33,37190.21 47173.00,37183.90
             47171.33,37182.64 47168.97,37180.91 47167.00,37180.12
             47164.75,37179.51 47156.07,37180.03 47153.00,37180.12
             47139.04,37179.83 47131.54,37174.03 47129.51,37160.00
             47129.54,37157.48 47129.07,37155.58 47129.51,37153.00
             47129.52,37147.02 47132.88,37138.25 47129.51,37133.00
             47127.48,37129.90 47120.20,37123.34 47113.45,37112.00
             47113.45,37112.00 47097.54,37080.00 47097.54,37080.00
             47089.07,37066.08 47084.49,37063.92 47078.23,37047.00
             47074.96,37038.17 47070.80,37018.56 47069.43,37009.00
             47068.71,37004.01 47069.53,36998.62 47068.21,36994.00
             47064.01,36979.22 47049.23,36971.96 47049.00,36953.00
             47048.68,36925.68 47062.01,36906.65 47073.75,36883.00
             47073.75,36883.00 47092.31,36840.00 47092.31,36840.00
             47092.31,36840.00 47109.42,36808.00 47109.42,36808.00
             47109.42,36808.00 47123.69,36781.00 47123.69,36781.00
             47123.69,36781.00 47130.42,36765.00 47130.42,36765.00
             47132.30,36760.66 47136.79,36752.67 47135.22,36748.00
             47132.04,36738.53 47113.38,36738.61 47105.00,36736.53
             47080.56,36730.45 47050.28,36717.84 47030.00,36702.99
             47006.15,36685.51 47001.29,36672.26 46989.69,36647.00
             46989.69,36647.00 46982.86,36633.00 46982.86,36633.00
             46982.86,36633.00 46977.54,36620.00 46977.54,36620.00
             46973.45,36608.26 46975.45,36605.68 46965.00,36596.09
             46953.67,36585.69 46950.11,36594.56 46932.00,36583.99
             46932.00,36583.99 46916.00,36574.31 46916.00,36574.31
             46916.00,36574.31 46899.00,36566.68 46899.00,36566.68
             46899.00,36566.68 46885.00,36557.87 46885.00,36557.87
             46885.00,36557.87 46859.00,36543.31 46859.00,36543.31
             46852.94,36539.44 46833.93,36525.13 46829.00,36523.65
             46826.29,36522.83 46821.91,36522.97 46819.00,36523.00
             46819.00,36523.00 46806.00,36524.00 46806.00,36524.00
             46793.95,36524.13 46782.80,36521.49 46779.68,36508.00
             46778.85,36504.42 46778.96,36500.66 46779.00,36497.00
             46779.00,36497.00 46781.96,36465.00 46781.96,36465.00
             46781.71,36458.72 46777.60,36447.64 46775.71,36441.00
             46774.80,36437.78 46774.01,36432.82 46771.57,36430.51
             46768.25,36427.36 46763.88,36428.68 46759.00,36426.44
             46748.69,36421.72 46748.89,36413.63 46749.00,36404.00
             46749.00,36404.00 46751.00,36377.00 46751.00,36377.00
             46751.20,36358.70 46743.37,36340.96 46740.25,36323.00
             46740.25,36323.00 46735.56,36297.00 46735.56,36297.00
             46735.56,36297.00 46726.30,36276.00 46726.30,36276.00
             46722.77,36268.16 46720.63,36261.69 46714.70,36255.04
             46714.70,36255.04 46685.09,36230.91 46685.09,36230.91
             46685.09,36230.91 46663.96,36204.30 46663.96,36204.30
             46658.40,36199.77 46652.97,36202.07 46646.00,36198.01
             46643.47,36196.54 46625.31,36181.31 46623.17,36178.99
             46623.17,36178.99 46615.33,36169.19 46615.33,36169.19
             46609.95,36163.35 46605.45,36165.42 46599.00,36163.15
             46593.22,36161.12 46589.40,36156.00 46588.51,36150.00
             46588.10,36147.26 46588.72,36143.80 46589.05,36141.00
             46589.43,36137.70 46589.96,36135.05 46591.35,36132.00
             46598.42,36116.49 46615.39,36116.97 46629.00,36111.91
             46634.71,36109.78 46636.05,36107.24 46641.00,36105.11
             46649.36,36101.50 46656.42,36101.65 46661.91,36092.00
             46665.01,36086.55 46663.31,36081.73 46662.42,36076.00
             46662.42,36076.00 46660.10,36062.00 46660.10,36062.00
             46657.88,36052.89 46655.13,36049.41 46655.00,36039.00
             46654.82,36023.47 46657.91,36017.49 46672.00,36009.67
             46678.16,36006.24 46688.05,36003.33 46691.56,35996.96
             46693.51,35993.42 46694.83,35984.43 46695.88,35980.00
             46695.88,35980.00 46701.55,35957.00 46701.55,35957.00
             46701.55,35957.00 46705.75,35934.00 46705.75,35934.00
             46709.47,35920.72 46718.72,35914.89 46726.00,35898.00 Z" />
</svg>
