<?xml version="1.0" encoding="UTF-8" standalone="no"?>
<!DOCTYPE svg PUBLIC "-//W3C//DTD SVG 20010904//EN"
              "http://www.w3.org/TR/2001/REC-SVG-20010904/DTD/svg10.dtd">

<svg xmlns="http://www.w3.org/2000/svg"
     width="28895.9mm" height="28895.9mm"
     viewBox="0 0 81920 81920">
  <path id="Selection #3"
        fill="none" stroke="black" stroke-width="1"
        d="M 46742.00,36030.00
           C 46719.42,36024.83 46713.38,36000.56 46703.69,35983.00
             46701.57,35979.17 46699.47,35976.47 46696.87,35973.00
             46686.83,35959.58 46663.08,35931.32 46656.31,35919.00
             46646.52,35901.19 46646.89,35890.21 46644.97,35885.00
             46644.97,35885.00 46638.26,35874.00 46638.26,35874.00
             46638.26,35874.00 46628.40,35853.00 46628.40,35853.00
             46628.40,35853.00 46619.17,35837.00 46619.17,35837.00
             46613.64,35824.48 46607.18,35795.06 46604.86,35781.00
             46603.42,35772.27 46600.04,35765.49 46601.29,35756.00
             46602.39,35747.58 46607.56,35740.67 46610.85,35733.00
             46610.85,35733.00 46617.51,35716.00 46617.51,35716.00
             46623.52,35702.62 46631.72,35689.57 46642.29,35679.41
             46654.14,35668.00 46653.32,35669.22 46666.00,35659.88
             46668.79,35657.83 46675.23,35653.93 46676.36,35650.83
             46677.19,35648.56 46675.79,35641.69 46675.21,35639.00
             46675.21,35639.00 46675.21,35623.00 46675.21,35623.00
             46675.16,35609.42 46686.21,35587.81 46691.40,35575.00
             46697.32,35560.38 46697.69,35549.55 46710.09,35537.09
             46714.53,35532.63 46723.59,35525.03 46729.00,35521.87
             46734.97,35518.40 46743.96,35514.84 46747.65,35508.96
             46747.65,35508.96 46756.78,35490.00 46756.78,35490.00
             46758.43,35486.51 46761.87,35480.43 46762.61,35477.00
             46763.29,35473.84 46762.58,35465.31 46765.43,35453.00
             46765.43,35453.00 46773.71,35429.00 46773.71,35429.00
             46775.90,35420.86 46775.95,35407.56 46780.65,35401.01
             46785.02,35394.91 46793.29,35391.50 46800.00,35388.58
             46810.70,35383.91 46818.77,35378.15 46831.00,35378.00
             46834.33,35377.96 46838.88,35378.26 46842.00,35377.36
             46842.00,35377.36 46859.00,35368.78 46859.00,35368.78
             46859.00,35368.78 46884.00,35358.67 46884.00,35358.67
             46915.40,35348.33 46937.37,35346.62 46970.00,35347.00
             46979.52,35347.12 46995.61,35349.66 47005.00,35351.88
             47005.00,35351.88 47019.00,35355.49 47019.00,35355.49
             47019.00,35355.49 47032.00,35357.37 47032.00,35357.37
             47032.00,35357.37 47058.00,35363.70 47058.00,35363.70
             47058.00,35363.70 47077.00,35365.17 47077.00,35365.17
             47077.00,35365.17 47094.00,35367.73 47094.00,35367.73
             47094.00,35367.73 47108.00,35369.29 47108.00,35369.29
             47108.00,35369.29 47126.00,35372.58 47126.00,35372.58
             47126.00,35372.58 47142.00,35374.17 47142.00,35374.17
             47142.00,35374.17 47155.00,35376.00 47155.00,35376.00
             47155.00,35376.00 47165.00,35376.00 47165.00,35376.00
             47177.87,35377.39 47200.63,35381.27 47211.00,35388.79
             47216.39,35392.70 47223.82,35402.90 47226.68,35409.00
             47226.68,35409.00 47230.81,35419.00 47230.81,35419.00
             47230.81,35419.00 47236.79,35429.00 47236.79,35429.00
             47236.79,35429.00 47241.69,35437.69 47241.69,35437.69
             47245.11,35441.49 47251.41,35439.19 47257.78,35446.10
             47262.97,35451.74 47261.49,35456.34 47262.28,35463.00
             47262.28,35463.00 47267.00,35489.00 47267.00,35489.00
             47267.03,35492.31 47266.71,35496.93 47267.69,35500.00
             47267.69,35500.00 47273.22,35513.00 47273.22,35513.00
             47273.22,35513.00 47274.63,35523.00 47274.63,35523.00
             47274.63,35523.00 47288.37,35555.00 47288.37,35555.00
             47288.37,35555.00 47303.19,35580.00 47303.19,35580.00
             47308.74,35591.03 47307.82,35603.62 47322.00,35607.51
             47324.42,35608.18 47327.49,35608.78 47330.00,35608.62
             47333.61,35608.40 47338.43,35606.79 47342.00,35605.89
             47352.41,35603.30 47365.58,35601.72 47371.00,35591.00
             47374.30,35584.48 47371.82,35581.98 47372.22,35577.00
             47372.76,35570.35 47377.38,35564.75 47383.00,35561.53
             47388.06,35558.63 47392.54,35558.32 47398.00,35557.12
             47398.00,35557.12 47435.00,35551.73 47435.00,35551.73
             47435.00,35551.73 47454.00,35547.80 47454.00,35547.80
             47454.00,35547.80 47473.00,35544.49 47473.00,35544.49
             47473.00,35544.49 47483.00,35541.67 47483.00,35541.67
             47483.00,35541.67 47506.00,35539.00 47506.00,35539.00
             47506.00,35539.00 47510.00,35539.00 47510.00,35539.00
             47521.27,35538.86 47535.20,35532.74 47544.98,35541.22
             47551.66,35547.01 47548.81,35549.27 47551.48,35556.00
             47553.11,35560.11 47555.22,35562.42 47557.45,35566.00
             47558.69,35568.00 47560.04,35571.12 47561.49,35572.73
             47565.70,35577.36 47573.18,35577.99 47579.00,35578.00
             47579.00,35578.00 47611.00,35578.53 47611.00,35578.53
             47611.00,35578.53 47619.00,35581.41 47619.00,35581.41
             47625.18,35583.41 47630.26,35583.85 47634.27,35590.02
             47639.40,35597.93 47633.65,35609.88 47635.19,35621.00
             47635.45,35622.92 47635.85,35624.32 47636.85,35626.00
             47636.85,35626.00 47652.04,35643.91 47652.04,35643.91
             47665.31,35656.82 47681.95,35658.35 47689.83,35664.64
             47696.31,35669.81 47705.05,35685.60 47717.00,35691.69
             47722.10,35694.29 47731.99,35692.04 47742.00,35699.17
             47748.77,35703.99 47754.15,35709.45 47757.74,35717.00
             47761.65,35725.23 47758.37,35727.35 47763.15,35731.04
             47763.15,35731.04 47772.00,35736.30 47772.00,35736.30
             47785.40,35745.82 47796.44,35755.08 47811.00,35763.14
             47811.00,35763.14 47837.86,35776.35 47837.86,35776.35
             47841.55,35778.94 47840.82,35781.38 47843.01,35785.00
             47845.59,35789.29 47850.54,35793.38 47855.00,35795.62
             47862.70,35799.51 47869.46,35799.11 47874.00,35801.27
             47874.00,35801.27 47885.00,35807.99 47885.00,35807.99
             47892.38,35812.31 47901.92,35816.85 47910.00,35819.66
             47926.95,35825.54 47940.48,35827.19 47956.94,35836.18
             47964.82,35840.49 47961.34,35850.75 47972.01,35857.87
             47990.70,35870.34 48001.94,35868.76 48016.00,35875.04
             48025.09,35879.10 48031.48,35887.41 48040.00,35891.46
             48055.99,35899.06 48078.50,35899.97 48096.00,35900.02
             48096.00,35900.02 48100.00,35900.02 48100.00,35900.02
             48110.83,35900.72 48103.98,35907.36 48106.89,35915.00
             48109.81,35922.65 48119.19,35926.84 48127.00,35926.22
             48133.87,35925.67 48139.13,35922.73 48143.96,35917.96
             48146.32,35915.63 48149.24,35910.85 48153.01,35912.17
             48154.81,35912.79 48158.41,35916.20 48160.00,35917.58
             48164.35,35921.33 48173.59,35929.68 48175.42,35935.00
             48176.81,35939.06 48174.86,35942.40 48177.80,35948.00
             48177.80,35948.00 48202.05,35984.00 48202.05,35984.00
             48202.05,35984.00 48213.82,36012.00 48213.82,36012.00
             48218.82,36021.40 48227.69,36024.42 48236.00,36029.46
             48236.00,36029.46 48244.00,36034.66 48244.00,36034.66
             48246.08,36035.86 48249.00,36037.12 48250.79,36038.63
             48254.23,36041.55 48255.96,36047.79 48258.45,36052.00
             48258.45,36052.00 48272.56,36073.00 48272.56,36073.00
             48277.45,36081.81 48275.19,36082.70 48276.18,36091.00
             48276.18,36091.00 48277.82,36100.00 48277.82,36100.00
             48277.82,36100.00 48277.09,36107.00 48277.09,36107.00
             48276.58,36116.13 48281.02,36125.68 48288.10,36131.44
             48292.37,36134.92 48297.20,36135.13 48299.78,36136.93
             48304.18,36140.01 48303.99,36146.23 48304.00,36151.00
             48304.00,36151.00 48303.00,36185.00 48303.00,36185.00
             48303.00,36185.00 48302.34,36201.00 48302.34,36201.00
             48303.79,36208.27 48308.80,36208.11 48311.00,36215.00
             48332.95,36215.50 48332.22,36234.95 48337.34,36251.00
             48340.39,36260.55 48344.60,36270.25 48339.44,36280.00
             48339.44,36280.00 48333.95,36288.00 48333.95,36288.00
             48333.95,36288.00 48326.00,36303.00 48326.00,36303.00
             48326.00,36303.00 48316.54,36318.00 48316.54,36318.00
             48316.54,36318.00 48313.46,36327.00 48313.46,36327.00
             48313.46,36327.00 48305.73,36347.00 48305.73,36347.00
             48301.14,36355.96 48296.24,36356.80 48294.02,36362.09
             48294.02,36362.09 48289.11,36385.00 48289.11,36385.00
             48286.40,36396.78 48283.26,36404.33 48277.74,36415.00
             48271.39,36427.29 48262.38,36436.93 48254.43,36448.00
             48254.43,36448.00 48244.13,36465.00 48244.13,36465.00
             48237.09,36477.31 48227.41,36487.30 48218.30,36498.00
             48218.30,36498.00 48210.77,36508.00 48210.77,36508.00
             48205.50,36514.85 48199.17,36518.97 48199.00,36528.00
             48198.94,36531.83 48199.60,36540.86 48197.98,36543.91
             48196.06,36547.53 48189.49,36550.73 48189.47,36558.00
             48189.47,36563.51 48193.38,36570.40 48194.76,36576.00
             48194.76,36576.00 48198.90,36592.00 48198.90,36592.00
             48198.90,36592.00 48199.43,36608.00 48199.43,36608.00
             48200.52,36612.04 48203.56,36613.96 48204.20,36617.00
             48205.09,36621.21 48200.58,36624.71 48201.04,36635.00
             48201.42,36643.37 48207.31,36650.56 48212.13,36657.00
             48212.13,36657.00 48223.64,36674.00 48223.64,36674.00
             48230.54,36684.53 48230.23,36690.24 48243.29,36706.00
             48243.29,36706.00 48274.00,36738.00 48274.00,36738.00
             48274.00,36738.00 48283.61,36747.28 48283.61,36747.28
             48283.61,36747.28 48289.39,36755.79 48289.39,36755.79
             48292.71,36759.39 48296.38,36759.53 48301.62,36766.00
             48304.76,36769.87 48316.81,36790.41 48318.45,36795.00
             48320.46,36800.61 48321.13,36808.90 48324.22,36813.98
             48329.83,36823.18 48345.94,36821.38 48348.66,36835.00
             48349.76,36840.51 48347.42,36846.04 48345.28,36851.00
             48341.45,36859.87 48339.32,36861.34 48334.53,36869.00
             48329.31,36877.36 48328.40,36880.72 48320.00,36887.33
             48315.33,36891.01 48303.89,36896.43 48301.84,36899.21
             48301.84,36899.21 48291.55,36920.00 48291.55,36920.00
             48291.55,36920.00 48280.06,36937.00 48280.06,36937.00
             48280.06,36937.00 48269.31,36956.00 48269.31,36956.00
             48269.31,36956.00 48258.45,36972.00 48258.45,36972.00
             48253.89,36979.70 48254.74,36982.10 48252.88,36986.00
             48252.88,36986.00 48241.21,37005.00 48241.21,37005.00
             48241.21,37005.00 48216.32,37042.00 48216.32,37042.00
             48216.32,37042.00 48207.78,37063.00 48207.78,37063.00
             48207.78,37063.00 48197.67,37079.00 48197.67,37079.00
             48194.53,37085.49 48193.92,37092.91 48194.00,37100.00
             48194.15,37112.22 48196.77,37113.91 48199.79,37124.00
             48199.79,37124.00 48208.72,37160.00 48208.72,37160.00
             48208.72,37160.00 48210.32,37174.00 48210.32,37174.00
             48210.32,37174.00 48213.58,37188.00 48213.58,37188.00
             48214.77,37193.30 48216.44,37199.83 48220.22,37203.89
             48223.90,37207.85 48230.66,37210.09 48236.00,37210.28
             48244.04,37210.55 48247.98,37206.65 48254.20,37215.04
             48257.04,37218.87 48258.07,37223.66 48259.86,37228.00
             48259.86,37228.00 48270.45,37254.00 48270.45,37254.00
             48273.74,37262.06 48276.48,37264.99 48280.58,37272.00
             48280.58,37272.00 48295.63,37296.98 48295.63,37296.98
             48303.48,37307.48 48312.80,37299.90 48326.00,37306.82
             48329.95,37308.90 48332.91,37311.79 48335.96,37315.00
             48349.36,37329.12 48346.20,37342.53 48346.00,37360.00
             48345.90,37368.52 48339.89,37387.22 48336.03,37395.00
             48336.03,37395.00 48327.80,37411.00 48327.80,37411.00
             48327.80,37411.00 48327.80,37425.00 48327.80,37425.00
             48327.88,37435.39 48323.93,37454.53 48319.69,37464.00
             48319.69,37464.00 48310.87,37482.00 48310.87,37482.00
             48310.87,37482.00 48302.37,37511.00 48302.37,37511.00
             48295.99,37523.28 48292.10,37522.96 48285.32,37531.00
             48285.32,37531.00 48275.52,37545.00 48275.52,37545.00
             48275.52,37545.00 48256.83,37567.00 48256.83,37567.00
             48249.86,37574.71 48242.12,37581.72 48234.00,37588.19
             48230.56,37590.93 48222.97,37595.73 48220.98,37599.09
             48218.97,37602.49 48218.71,37609.91 48213.98,37618.00
             48213.98,37618.00 48199.34,37640.00 48199.34,37640.00
             48199.34,37640.00 48192.99,37651.00 48192.99,37651.00
             48192.99,37651.00 48187.95,37660.00 48187.95,37660.00
             48187.95,37660.00 48184.97,37670.00 48184.97,37670.00
             48184.97,37670.00 48179.55,37685.00 48179.55,37685.00
             48175.69,37694.51 48164.76,37710.05 48157.00,37716.70
             48151.43,37721.48 48134.74,37731.63 48128.00,37734.37
             48128.00,37734.37 48115.00,37738.18 48115.00,37738.18
             48104.35,37742.54 48099.23,37748.36 48085.00,37751.19
             48085.00,37751.19 48066.00,37753.17 48066.00,37753.17
             48051.17,37754.65 48036.29,37756.37 48022.00,37760.72
             48022.00,37760.72 47996.00,37771.71 47996.00,37771.71
             47990.36,37774.32 47983.96,37776.80 47979.00,37780.51
             47971.23,37786.33 47959.89,37799.50 47953.00,37802.65
             47953.00,37802.65 47945.00,37805.44 47945.00,37805.44
             47945.00,37805.44 47927.00,37812.06 47927.00,37812.06
             47927.00,37812.06 47912.00,37818.39 47912.00,37818.39
             47912.00,37818.39 47875.00,37831.12 47875.00,37831.12
             47875.00,37831.12 47849.00,37837.72 47849.00,37837.72
             47849.00,37837.72 47835.00,37843.19 47835.00,37843.19
             47831.66,37844.48 47828.12,37845.43 47825.00,37847.21
             47815.78,37852.46 47811.42,37860.11 47804.92,37868.00
             47799.89,37874.09 47790.61,37883.85 47786.81,37890.00
             47782.77,37896.54 47785.22,37898.86 47781.69,37902.62
             47778.41,37906.11 47769.44,37909.01 47761.00,37917.04
             47761.00,37917.04 47743.00,37934.91 47743.00,37934.91
             47733.91,37943.38 47723.93,37951.08 47714.00,37958.53
             47714.00,37958.53 47699.00,37968.80 47699.00,37968.80
             47699.00,37968.80 47685.00,37977.21 47685.00,37977.21
             47674.54,37984.56 47665.44,37994.18 47654.00,38000.14
             47647.51,38003.61 47644.63,37999.28 47633.00,38000.14
             47623.65,38000.74 47622.58,38002.77 47615.00,38005.93
             47615.00,38005.93 47609.00,38007.82 47609.00,38007.82
             47602.58,38010.46 47596.05,38018.14 47591.00,38022.96
             47591.00,38022.96 47574.00,38037.28 47574.00,38037.28
             47567.72,38042.81 47565.59,38046.15 47558.00,38051.25
             47549.61,38056.89 47542.02,38058.81 47533.00,38062.45
             47533.00,38062.45 47524.00,38066.30 47524.00,38066.30
             47524.00,38066.30 47515.00,38069.21 47515.00,38069.21
             47511.21,38070.87 47503.15,38077.22 47499.00,38080.00
             47490.03,38086.00 47481.44,38089.90 47474.10,38098.00
             47469.26,38103.35 47469.14,38106.51 47467.00,38113.00
             47467.00,38113.00 47458.14,38144.00 47458.14,38144.00
             47458.14,38144.00 47454.43,38155.00 47454.43,38155.00
             47454.43,38155.00 47441.94,38195.00 47441.94,38195.00
             47441.94,38195.00 47434.23,38212.00 47434.23,38212.00
             47434.23,38212.00 47428.31,38231.00 47428.31,38231.00
             47428.31,38231.00 47412.43,38263.00 47412.43,38263.00
             47412.43,38263.00 47406.57,38278.00 47406.57,38278.00
             47403.44,38288.38 47402.90,38294.22 47398.14,38305.00
             47398.14,38305.00 47368.69,38369.00 47368.69,38369.00
             47368.69,38369.00 47355.47,38398.00 47355.47,38398.00
             47355.47,38398.00 47350.98,38415.00 47350.98,38415.00
             47350.98,38415.00 47343.93,38434.00 47343.93,38434.00
             47343.93,38434.00 47341.87,38445.00 47341.87,38445.00
             47341.87,38445.00 47330.98,38485.00 47330.98,38485.00
             47327.55,38496.07 47326.06,38499.69 47320.74,38510.00
             47320.74,38510.00 47315.90,38519.00 47315.90,38519.00
             47315.90,38519.00 47310.69,38533.00 47310.69,38533.00
             47304.38,38547.01 47300.12,38551.09 47292.92,38563.00
             47292.92,38563.00 47283.19,38581.00 47283.19,38581.00
             47283.19,38581.00 47266.72,38604.00 47266.72,38604.00
             47266.72,38604.00 47254.11,38623.00 47254.11,38623.00
             47254.11,38623.00 47243.76,38636.00 47243.76,38636.00
             47243.76,38636.00 47233.28,38652.00 47233.28,38652.00
             47231.37,38654.74 47225.98,38661.81 47225.81,38664.96
             47225.64,38668.09 47228.79,38669.77 47231.00,38671.34
             47237.47,38675.93 47240.36,38678.39 47246.00,38684.00
             47251.40,38689.37 47255.06,38693.03 47259.91,38699.00
             47259.91,38699.00 47270.29,38711.91 47270.29,38711.91
             47270.29,38711.91 47277.91,38719.04 47277.91,38719.04
             47283.66,38724.94 47291.04,38733.86 47295.13,38741.00
             47308.12,38763.72 47308.68,38791.19 47315.49,38816.00
             47317.45,38823.15 47322.86,38829.12 47326.11,38836.00
             47332.10,38848.65 47331.76,38852.97 47334.34,38859.00
             47338.92,38869.72 47341.59,38870.71 47348.38,38879.00
             47348.38,38879.00 47358.18,38892.00 47358.18,38892.00
             47365.44,38900.26 47373.31,38907.68 47379.30,38917.00
             47385.53,38926.68 47387.79,38934.37 47391.33,38945.00
             47395.20,38956.62 47398.98,38968.66 47399.00,38981.00
             47399.00,38981.00 47399.00,39011.00 47399.00,39011.00
             47398.69,39037.33 47384.23,39060.90 47368.65,39081.00
             47368.65,39081.00 47350.96,39101.99 47350.96,39101.99
             47350.96,39101.99 47329.52,39121.09 47329.52,39121.09
             47319.59,39132.80 47305.79,39160.66 47298.22,39175.00
             47295.28,39180.58 47287.05,39194.48 47286.21,39200.00
             47284.84,39209.02 47289.13,39217.61 47289.00,39229.00
             47288.83,39243.17 47277.87,39250.22 47265.00,39252.54
             47261.47,39253.17 47255.74,39252.56 47253.18,39254.02
             47250.65,39255.47 47248.48,39259.55 47246.81,39262.00
             47243.80,39266.41 47237.41,39274.61 47235.53,39279.00
             47233.91,39282.79 47233.89,39287.03 47232.84,39291.00
             47232.84,39291.00 47227.15,39308.00 47227.15,39308.00
             47227.15,39308.00 47222.47,39326.00 47222.47,39326.00
             47216.79,39338.89 47209.20,39336.62 47209.00,39353.00
             47209.00,39353.00 47209.00,39377.00 47209.00,39377.00
             47208.98,39391.19 47203.32,39396.32 47192.00,39404.28
             47177.51,39414.47 47166.48,39418.17 47149.00,39419.66
             47149.00,39419.66 47131.00,39419.66 47131.00,39419.66
             47126.33,39420.25 47114.88,39425.68 47110.00,39427.86
             47100.55,39432.08 47092.56,39438.78 47084.00,39444.49
             47084.00,39444.49 47061.00,39459.05 47061.00,39459.05
             47046.53,39468.22 47040.51,39473.33 47024.00,39480.14
             47008.22,39486.64 46987.98,39488.77 46971.00,39491.27
             46964.60,39492.21 46949.56,39495.30 46944.00,39494.83
             46940.59,39494.54 46934.94,39493.57 46932.00,39491.92
             46929.18,39490.32 46927.23,39487.65 46924.72,39487.47
             46924.72,39487.47 46906.00,39492.86 46906.00,39492.86
             46894.97,39495.98 46877.30,39499.90 46866.00,39500.00
             46863.01,39522.20 46854.60,39533.27 46848.09,39553.00
             46841.60,39572.64 46844.93,39587.04 46826.00,39601.47
             46821.00,39605.28 46811.27,39608.13 46805.00,39608.83
             46801.26,39609.25 46792.14,39609.35 46789.39,39611.60
             46786.43,39614.02 46785.43,39619.50 46784.13,39623.00
             46784.13,39623.00 46776.58,39639.00 46776.58,39639.00
             46771.77,39650.01 46758.87,39667.91 46749.96,39675.68
             46740.68,39683.76 46730.76,39685.02 46719.00,39685.00
             46707.95,39684.98 46690.55,39681.16 46680.00,39677.65
             46680.00,39677.65 46667.00,39672.74 46667.00,39672.74
             46667.00,39672.74 46649.00,39667.97 46649.00,39667.97
             46649.00,39667.97 46615.00,39656.00 46615.00,39656.00
             46609.10,39669.91 46609.24,39666.71 46603.64,39677.00
             46595.47,39691.99 46585.83,39713.65 46569.00,39720.53
             46562.93,39723.01 46558.39,39723.07 46552.00,39723.00
             46544.43,39722.91 46538.10,39720.62 46531.00,39718.34
             46528.04,39717.40 46522.96,39715.38 46520.00,39716.37
             46520.00,39716.37 46496.00,39733.65 46496.00,39733.65
             46496.00,39733.65 46457.00,39755.06 46457.00,39755.06
             46457.00,39755.06 46443.00,39764.31 46443.00,39764.31
             46443.00,39764.31 46432.00,39771.29 46432.00,39771.29
             46432.00,39771.29 46418.00,39782.80 46418.00,39782.80
             46418.00,39782.80 46407.18,39791.46 46407.18,39791.46
             46403.80,39794.63 46400.72,39800.12 46397.54,39804.00
             46393.21,39809.27 46388.43,39813.54 46383.00,39817.63
             46383.00,39817.63 46358.00,39835.77 46358.00,39835.77
             46358.00,39835.77 46300.00,39872.36 46300.00,39872.36
             46300.00,39872.36 46291.09,39878.68 46291.09,39878.68
             46283.83,39884.72 46276.01,39895.76 46269.71,39903.00
             46264.35,39909.16 46250.50,39922.16 46244.00,39927.10
             46232.38,39935.94 46213.72,39946.58 46200.00,39951.56
             46200.00,39951.56 46166.00,39961.75 46166.00,39961.75
             46148.67,39967.43 46130.58,39977.78 46112.00,39978.00
             46112.00,39978.00 46088.00,39978.00 46088.00,39978.00
             46068.59,39977.77 46045.59,39969.86 46027.00,39964.42
             46027.00,39964.42 46004.00,39959.98 46004.00,39959.98
             46004.00,39959.98 45980.00,39952.66 45980.00,39952.66
             45974.59,39950.93 45971.54,39948.73 45966.00,39951.22
             45966.00,39951.22 45936.00,39967.74 45936.00,39967.74
             45936.00,39967.74 45916.00,39977.69 45916.00,39977.69
             45916.00,39977.69 45897.00,39986.26 45897.00,39986.26
             45897.00,39986.26 45862.00,40007.05 45862.00,40007.05
             45847.46,40016.26 45835.26,40028.67 45822.00,40039.54
             45822.00,40039.54 45798.00,40058.13 45798.00,40058.13
             45798.00,40058.13 45785.00,40068.17 45785.00,40068.17
             45785.00,40068.17 45772.00,40081.91 45772.00,40081.91
             45772.00,40081.91 45734.00,40116.17 45734.00,40116.17
             45734.00,40116.17 45707.00,40141.25 45707.00,40141.25
             45699.28,40147.71 45683.45,40162.72 45675.00,40166.00
             45678.31,40176.20 45676.08,40175.25 45677.52,40182.00
             45677.52,40182.00 45681.56,40194.00 45681.56,40194.00
             45681.56,40194.00 45683.61,40205.00 45683.61,40205.00
             45683.61,40205.00 45688.25,40220.00 45688.25,40220.00
             45688.25,40220.00 45689.52,40227.00 45689.52,40227.00
             45689.52,40227.00 45693.96,40240.00 45693.96,40240.00
             45696.46,40248.41 45698.23,40257.13 45702.27,40265.00
             45705.92,40272.11 45710.79,40276.11 45718.00,40279.33
             45722.75,40281.46 45728.07,40282.33 45731.87,40286.13
             45734.68,40288.94 45737.33,40293.97 45735.98,40298.00
             45734.92,40301.16 45730.65,40304.99 45731.66,40310.00
             45733.17,40317.48 45741.87,40318.87 45743.98,40322.27
             45746.12,40325.73 45744.19,40336.93 45743.34,40341.00
             45740.18,40356.04 45733.91,40368.72 45726.42,40382.00
             45712.30,40407.05 45703.40,40419.80 45680.00,40437.77
             45680.00,40437.77 45649.00,40458.38 45649.00,40458.38
             45640.03,40465.05 45637.58,40469.04 45630.00,40475.72
             45623.82,40481.17 45614.72,40488.23 45610.46,40495.00
             45610.46,40495.00 45591.13,40529.00 45591.13,40529.00
             45591.13,40529.00 45582.31,40543.00 45582.31,40543.00
             45582.31,40543.00 45576.74,40555.00 45576.74,40555.00
             45573.53,40561.58 45568.85,40569.05 45564.57,40575.00
             45564.57,40575.00 45542.47,40600.00 45542.47,40600.00
             45542.47,40600.00 45528.12,40621.00 45528.12,40621.00
             45523.65,40627.06 45518.66,40632.23 45515.27,40639.00
             45515.27,40639.00 45481.69,40712.00 45481.69,40712.00
             45481.69,40712.00 45470.90,40733.00 45470.90,40733.00
             45470.90,40733.00 45462.74,40754.00 45462.74,40754.00
             45462.74,40754.00 45443.45,40786.00 45443.45,40786.00
             45443.45,40786.00 45433.31,40807.00 45433.31,40807.00
             45426.07,40822.80 45425.92,40832.77 45421.57,40848.00
             45418.21,40859.80 45407.85,40882.40 45401.55,40893.00
             45383.74,40922.93 45359.92,40940.13 45330.00,40956.31
             45330.00,40956.31 45303.00,40970.14 45303.00,40970.14
             45279.97,40980.32 45255.94,40985.75 45231.00,40988.17
             45231.00,40988.17 45222.00,40989.00 45222.00,40989.00
             45222.00,40989.00 45181.00,40989.00 45181.00,40989.00
             45181.00,40989.00 45129.00,40984.17 45129.00,40984.17
             45129.00,40984.17 45095.00,40980.39 45095.00,40980.39
             45095.00,40980.39 45057.00,40972.12 45057.00,40972.12
             45057.00,40972.12 45011.00,40960.26 45011.00,40960.26
             45011.00,40960.26 44999.00,40958.39 44999.00,40958.39
             44999.00,40958.39 44983.00,40955.29 44983.00,40955.29
             44983.00,40955.29 44958.00,40952.57 44958.00,40952.57
             44935.23,40948.74 44897.12,40936.58 44878.00,40924.00
             44878.00,40924.00 44840.00,40894.29 44840.00,40894.29
             44840.00,40894.29 44826.00,40884.52 44826.00,40884.52
             44826.00,40884.52 44807.00,40869.48 44807.00,40869.48
             44807.00,40869.48 44773.00,40847.79 44773.00,40847.79
             44766.41,40842.60 44762.10,40838.56 44756.80,40832.00
             44754.57,40829.23 44749.25,40821.49 44746.82,40819.98
             44744.52,40818.56 44733.51,40816.72 44730.00,40815.87
             44719.38,40813.29 44709.97,40810.26 44700.00,40805.69
             44689.21,40800.75 44672.89,40791.55 44663.00,40785.00
             44663.00,40785.00 44646.00,40772.99 44646.00,40772.99
             44646.00,40772.99 44620.00,40764.00 44620.00,40764.00
             44607.11,40759.61 44585.65,40749.75 44574.00,40742.80
             44569.05,40739.84 44556.57,40731.50 44551.00,40732.41
             44547.44,40732.99 44539.05,40740.52 44536.00,40743.13
             44536.00,40743.13 44501.00,40775.75 44501.00,40775.75
             44501.00,40775.75 44462.00,40807.11 44462.00,40807.11
             44462.00,40807.11 44443.00,40820.67 44443.00,40820.67
             44443.00,40820.67 44431.00,40831.57 44431.00,40831.57
             44431.00,40831.57 44409.00,40849.30 44409.00,40849.30
             44409.00,40849.30 44362.00,40895.83 44362.00,40895.83
             44362.00,40895.83 44337.00,40915.42 44337.00,40915.42
             44337.00,40915.42 44318.00,40931.43 44318.00,40931.43
             44318.00,40931.43 44306.00,40942.83 44306.00,40942.83
             44306.00,40942.83 44272.00,40971.58 44272.00,40971.58
             44272.00,40971.58 44244.00,40992.47 44244.00,40992.47
             44244.00,40992.47 44223.00,41008.58 44223.00,41008.58
             44223.00,41008.58 44190.00,41030.67 44190.00,41030.67
             44190.00,41030.67 44167.00,41046.19 44167.00,41046.19
             44167.00,41046.19 44136.00,41062.25 44136.00,41062.25
             44136.00,41062.25 44101.00,41079.97 44101.00,41079.97
             44101.00,41079.97 44088.00,41087.22 44088.00,41087.22
             44088.00,41087.22 44060.00,41101.26 44060.00,41101.26
             44060.00,41101.26 44044.00,41109.75 44044.00,41109.75
             44044.00,41109.75 44020.00,41120.31 44020.00,41120.31
             44020.00,41120.31 44001.00,41129.69 44001.00,41129.69
             44001.00,41129.69 43975.00,41141.00 43975.00,41141.00
             43978.15,41148.20 43984.04,41175.90 43984.83,41184.00
             43984.83,41184.00 43988.52,41218.00 43988.52,41218.00
             43990.50,41224.60 43999.28,41235.78 44003.11,41243.00
             44003.11,41243.00 44010.26,41258.00 44010.26,41258.00
             44010.26,41258.00 44034.16,41297.00 44034.16,41297.00
             44040.87,41306.03 44046.96,41303.23 44058.00,41308.18
             44067.83,41312.59 44088.72,41326.31 44095.83,41334.01
             44100.03,41338.57 44105.07,41345.06 44106.95,41351.00
             44108.79,41356.84 44108.62,41362.16 44109.42,41368.00
             44109.42,41368.00 44113.77,41388.00 44113.77,41388.00
             44113.77,41388.00 44115.58,41396.78 44115.58,41396.78
             44117.24,41400.24 44122.30,41400.47 44126.00,41402.19
             44132.95,41405.41 44137.19,41411.18 44136.47,41419.00
             44135.50,41429.62 44128.20,41432.05 44123.13,41440.00
             44123.13,41440.00 44113.89,41459.00 44113.89,41459.00
             44113.89,41459.00 44105.09,41477.00 44105.09,41477.00
             44105.09,41477.00 44097.66,41507.00 44097.66,41507.00
             44092.92,41520.68 44089.30,41521.65 44087.65,41527.00
             44086.71,41530.04 44087.02,41536.56 44087.00,41540.00
             44087.00,41540.00 44083.87,41572.00 44083.87,41572.00
             44083.87,41572.00 44081.89,41583.00 44081.89,41583.00
             44081.89,41583.00 44084.00,41612.00 44084.00,41612.00
             44083.92,41629.68 44073.86,41639.67 44061.00,41650.79
             44052.86,41657.84 44041.98,41665.79 44039.53,41677.00
             44038.03,41683.87 44041.79,41686.46 44042.55,41691.00
             44043.62,41695.57 44041.31,41699.52 44042.55,41702.42
             44043.24,41704.71 44051.96,41714.82 44054.04,41717.00
             44054.04,41717.00 44075.09,41738.61 44075.09,41738.61
             44078.74,41741.68 44081.51,41741.81 44085.91,41746.10
             44094.41,41754.39 44095.43,41765.93 44113.00,41771.64
             44127.07,41776.22 44141.69,41772.83 44156.00,41773.00
             44167.69,41773.14 44178.94,41780.72 44190.00,41784.25
             44190.00,41784.25 44214.00,41789.72 44214.00,41789.72
             44214.00,41789.72 44245.00,41801.80 44245.00,41801.80
             44245.00,41801.80 44266.00,41809.45 44266.00,41809.45
             44277.90,41814.28 44277.84,41818.64 44282.17,41820.40
             44282.17,41820.40 44300.00,41822.67 44300.00,41822.67
             44309.46,41824.69 44312.37,41827.60 44320.00,41830.30
             44320.00,41830.30 44334.00,41834.12 44334.00,41834.12
             44344.36,41838.17 44343.29,41844.88 44351.01,41846.86
             44351.01,41846.86 44370.00,41849.17 44370.00,41849.17
             44380.67,41850.24 44402.22,41853.16 44411.00,41858.46
             44411.00,41858.46 44427.00,41870.63 44427.00,41870.63
             44437.93,41878.84 44448.80,41886.35 44457.68,41897.00
             44465.30,41906.16 44466.30,41913.41 44471.36,41921.00
             44475.56,41927.29 44479.01,41929.51 44483.54,41935.00
             44483.54,41935.00 44499.38,41954.00 44499.38,41954.00
             44499.38,41954.00 44505.37,41961.83 44505.37,41961.83
             44511.42,41968.48 44529.30,41978.01 44538.00,41984.65
             44551.81,41995.20 44552.74,41999.00 44559.04,42004.18
             44559.04,42004.18 44583.00,42020.24 44583.00,42020.24
             44583.00,42020.24 44602.00,42037.78 44602.00,42037.78
             44606.18,42041.25 44611.99,42042.94 44617.00,42045.01
             44617.00,42045.01 44642.00,42056.27 44642.00,42056.27
             44642.00,42056.27 44658.00,42064.69 44658.00,42064.69
             44658.00,42064.69 44682.00,42075.43 44682.00,42075.43
             44707.69,42090.13 44728.40,42110.72 44736.12,42140.00
             44739.29,42152.03 44739.14,42156.83 44739.00,42169.00
             44738.88,42178.86 44736.18,42188.61 44733.42,42198.00
             44718.72,42248.11 44677.08,42281.31 44630.00,42299.80
             44610.71,42307.37 44584.69,42313.40 44564.00,42314.91
             44560.01,42315.20 44546.04,42315.29 44544.02,42318.31
             44542.79,42320.16 44543.00,42323.81 44543.00,42326.00
             44543.00,42326.00 44543.00,42352.00 44543.00,42352.00
             44542.79,42369.98 44535.64,42384.02 44528.85,42400.00
             44528.85,42400.00 44520.14,42424.00 44520.14,42424.00
             44520.14,42424.00 44507.28,42447.00 44507.28,42447.00
             44507.28,42447.00 44494.58,42471.00 44494.58,42471.00
             44485.69,42485.27 44479.96,42489.85 44470.09,42502.00
             44470.09,42502.00 44459.39,42516.00 44459.39,42516.00
             44451.76,42525.26 44439.68,42536.32 44430.00,42543.52
             44418.79,42551.86 44396.53,42565.49 44384.00,42571.75
             44384.00,42571.75 44355.00,42585.43 44355.00,42585.43
             44320.49,42605.17 44291.19,42624.73 44252.00,42634.53
             44252.00,42634.53 44193.00,42646.73 44193.00,42646.73
             44193.00,42646.73 44153.00,42651.28 44153.00,42651.28
             44153.00,42651.28 44136.00,42654.60 44136.00,42654.60
             44136.00,42654.60 44107.00,42660.58 44107.00,42660.58
             44101.45,42661.80 44095.88,42662.70 44091.00,42665.84
             44091.00,42665.84 44052.00,42696.40 44052.00,42696.40
             44048.26,42699.39 44036.94,42707.62 44034.98,42711.04
             44033.54,42713.57 44031.86,42722.70 44031.20,42726.00
             44029.20,42736.00 44028.35,42740.19 44025.00,42750.00
             44019.87,42765.00 44005.76,42786.23 43996.10,42799.00
             43978.56,42822.21 43957.36,42843.06 43932.00,42857.57
             43910.40,42869.94 43893.06,42874.98 43870.00,42882.67
             43839.54,42892.82 43825.90,42895.98 43794.00,42899.17
             43794.00,42899.17 43773.00,42901.00 43773.00,42901.00
             43769.59,42901.04 43765.25,42900.78 43762.00,42901.53
             43762.00,42901.53 43723.00,42918.19 43723.00,42918.19
             43723.00,42918.19 43685.00,42929.83 43685.00,42929.83
             43685.00,42929.83 43640.00,42961.58 43640.00,42961.58
             43640.00,42961.58 43613.00,42977.43 43613.00,42977.43
             43613.00,42977.43 43593.00,42989.57 43593.00,42989.57
             43593.00,42989.57 43574.00,42999.31 43574.00,42999.31
             43574.00,42999.31 43552.00,43011.69 43552.00,43011.69
             43552.00,43011.69 43536.00,43019.26 43536.00,43019.26
             43536.00,43019.26 43504.00,43035.22 43504.00,43035.22
             43504.00,43035.22 43486.00,43042.86 43486.00,43042.86
             43474.53,43047.97 43458.05,43056.48 43448.00,43063.74
             43437.26,43071.51 43428.55,43081.83 43419.00,43090.96
             43405.54,43103.84 43400.62,43104.89 43388.89,43122.00
             43388.89,43122.00 43378.13,43142.00 43378.13,43142.00
             43371.11,43154.27 43355.04,43179.38 43346.39,43190.00
             43337.05,43201.45 43321.31,43217.48 43310.00,43226.92
             43310.00,43226.92 43284.32,43248.01 43284.32,43248.01
             43273.89,43260.18 43262.73,43277.90 43254.86,43292.00
             43254.86,43292.00 43246.55,43308.00 43246.55,43308.00
             43246.55,43308.00 43232.69,43329.00 43232.69,43329.00
             43232.69,43329.00 43214.94,43358.00 43214.94,43358.00
             43214.94,43358.00 43204.92,43373.00 43204.92,43373.00
             43204.92,43373.00 43197.57,43387.00 43197.57,43387.00
             43197.57,43387.00 43178.95,43414.00 43178.95,43414.00
             43178.95,43414.00 43166.69,43440.00 43166.69,43440.00
             43166.69,43440.00 43160.06,43455.00 43160.06,43455.00
             43159.13,43458.91 43161.23,43462.41 43162.58,43466.00
             43164.49,43471.10 43165.95,43476.64 43166.92,43482.00
             43166.92,43482.00 43175.43,43523.00 43175.43,43523.00
             43175.43,43523.00 43180.12,43537.00 43180.12,43537.00
             43180.12,43537.00 43189.33,43572.00 43189.33,43572.00
             43190.52,43577.74 43191.53,43588.25 43190.70,43594.00
             43190.70,43594.00 43181.02,43627.00 43181.02,43627.00
             43179.41,43634.31 43180.42,43635.79 43179.83,43642.00
             43179.83,43642.00 43175.74,43672.00 43175.74,43672.00
             43172.60,43688.73 43162.42,43711.00 43154.31,43726.00
             43154.31,43726.00 43138.64,43754.00 43138.64,43754.00
             43133.04,43762.30 43125.30,43768.64 43119.87,43778.00
             43117.52,43782.07 43112.04,43792.75 43110.72,43797.00
             43110.72,43797.00 43104.19,43823.00 43104.19,43823.00
             43101.72,43829.44 43097.75,43831.18 43095.30,43836.00
             43091.85,43842.78 43090.91,43858.26 43091.00,43866.00
             43091.15,43878.14 43097.34,43882.65 43103.64,43892.00
             43103.64,43892.00 43118.24,43915.00 43118.24,43915.00
             43118.24,43915.00 43137.64,43938.00 43137.64,43938.00
             43137.64,43938.00 43146.49,43952.83 43146.49,43952.83
             43149.50,43956.56 43153.58,43958.16 43155.74,43964.00
             43157.26,43968.10 43158.55,43980.13 43159.15,43985.00
             43159.15,43985.00 43161.83,44001.00 43161.83,44001.00
             43162.21,44004.88 43161.61,44009.40 43162.63,44013.00
             43163.96,44017.66 43168.91,44025.44 43171.19,44030.00
             43171.19,44030.00 43185.43,44061.00 43185.43,44061.00
             43190.48,44072.85 43191.18,44074.43 43198.71,44085.00
             43202.57,44090.42 43208.62,44098.18 43208.87,44105.00
             43209.29,44116.46 43201.93,44119.71 43195.17,44126.29
             43192.04,44129.34 43187.21,44136.21 43184.67,44140.00
             43184.67,44140.00 43175.10,44155.00 43175.10,44155.00
             43171.77,44159.48 43166.43,44165.42 43163.90,44170.00
             43163.90,44170.00 43157.69,44186.00 43157.69,44186.00
             43157.69,44186.00 43146.14,44207.00 43146.14,44207.00
             43146.14,44207.00 43139.25,44219.00 43139.25,44219.00
             43135.30,44224.88 43132.77,44227.17 43129.26,44234.00
             43122.28,44247.57 43124.28,44258.68 43117.63,44272.00
             43112.87,44281.53 43106.28,44290.09 43100.54,44299.00
             43100.54,44299.00 43086.77,44322.00 43086.77,44322.00
             43086.77,44322.00 43068.55,44349.00 43068.55,44349.00
             43068.55,44349.00 43057.74,44372.00 43057.74,44372.00
             43057.74,44372.00 43043.45,44397.00 43043.45,44397.00
             43043.45,44397.00 43035.05,44409.00 43035.05,44409.00
             43031.95,44413.87 43026.52,44421.16 43024.46,44426.00
             43024.46,44426.00 43012.01,44456.00 43012.01,44456.00
             43010.16,44458.98 43006.81,44462.36 43004.00,44464.45
             42992.50,44473.00 42983.26,44469.01 42971.00,44469.01
             42971.00,44469.01 42936.00,44473.89 42936.00,44473.89
             42936.00,44473.89 42920.00,44477.70 42920.00,44477.70
             42920.00,44477.70 42884.00,44481.13 42884.00,44481.13
             42884.00,44481.13 42857.00,44485.92 42857.00,44485.92
             42857.00,44485.92 42849.00,44485.09 42849.00,44485.09
             42849.00,44485.09 42807.00,44481.91 42807.00,44481.91
             42807.00,44481.91 42795.00,44481.00 42795.00,44481.00
             42795.00,44481.00 42744.00,44481.00 42744.00,44481.00
             42744.00,44481.00 42729.00,44480.00 42729.00,44480.00
             42729.00,44480.00 42713.00,44480.00 42713.00,44480.00
             42713.00,44480.00 42683.00,44477.00 42683.00,44477.00
             42683.00,44477.00 42674.00,44477.00 42674.00,44477.00
             42674.00,44477.00 42638.00,44474.00 42638.00,44474.00
             42622.76,44473.82 42596.35,44468.85 42586.94,44455.99
             42581.09,44448.00 42581.87,44439.26 42576.61,44433.28
             42576.61,44433.28 42569.01,44426.00 42569.01,44426.00
             42564.54,44421.46 42559.64,44415.28 42556.03,44410.00
             42541.19,44388.29 42536.24,44373.96 42525.69,44351.00
             42525.69,44351.00 42513.28,44324.00 42513.28,44324.00
             42513.28,44324.00 42507.69,44309.00 42507.69,44309.00
             42507.69,44309.00 42479.68,44261.00 42479.68,44261.00
             42479.68,44261.00 42462.86,44233.00 42462.86,44233.00
             42462.86,44233.00 42455.51,44219.38 42455.51,44219.38
             42451.89,44215.41 42442.18,44211.41 42437.00,44209.67
             42425.74,44205.88 42414.00,44201.14 42402.00,44201.00
             42402.00,44201.00 42370.00,44201.00 42370.00,44201.00
             42370.00,44201.00 42340.00,44199.00 42340.00,44199.00
             42340.00,44199.00 42310.00,44199.00 42310.00,44199.00
             42310.00,44199.00 42260.00,44195.00 42260.00,44195.00
             42260.00,44195.00 42230.00,44195.00 42230.00,44195.00
             42230.00,44195.00 42210.00,44194.00 42210.00,44194.00
             42210.00,44194.00 42197.00,44193.00 42197.00,44193.00
             42197.00,44193.00 42176.00,44193.00 42176.00,44193.00
             42165.09,44193.05 42160.64,44196.39 42151.00,44200.58
             42151.00,44200.58 42118.00,44214.40 42118.00,44214.40
             42118.00,44214.40 42089.00,44223.93 42089.00,44223.93
             42085.63,44225.88 42073.66,44237.53 42070.00,44240.83
             42070.00,44240.83 42035.09,44275.00 42035.09,44275.00
             42035.09,44275.00 42020.99,44290.96 42020.99,44290.96
             42020.99,44290.96 41993.00,44315.09 41993.00,44315.09
             41993.00,44315.09 41959.04,44349.00 41959.04,44349.00
             41959.04,44349.00 41949.99,44358.96 41949.99,44358.96
             41949.99,44358.96 41928.00,44378.09 41928.00,44378.09
             41928.00,44378.09 41907.00,44399.91 41907.00,44399.91
             41897.74,44408.64 41859.78,44438.46 41849.00,44445.65
             41849.00,44445.65 41833.00,44456.02 41833.00,44456.02
             41833.00,44456.02 41808.00,44473.31 41808.00,44473.31
             41808.00,44473.31 41778.00,44491.81 41778.00,44491.81
             41778.00,44491.81 41755.00,44505.69 41755.00,44505.69
             41755.00,44505.69 41691.00,44536.70 41691.00,44536.70
             41691.00,44536.70 41666.00,44550.35 41666.00,44550.35
             41662.23,44551.49 41657.05,44550.69 41653.00,44551.18
             41646.00,44552.03 41638.66,44556.54 41635.57,44563.00
             41627.83,44579.16 41644.44,44585.35 41649.01,44599.00
             41649.01,44599.00 41655.92,44625.00 41655.92,44625.00
             41655.92,44625.00 41655.92,44633.00 41655.92,44633.00
             41655.92,44633.00 41657.71,44642.00 41657.71,44642.00
             41657.71,44642.00 41658.44,44650.00 41658.44,44650.00
             41658.44,44650.00 41660.64,44659.00 41660.64,44659.00
             41662.52,44667.82 41663.92,44677.01 41664.49,44686.00
             41665.35,44699.71 41654.15,44703.75 41651.10,44719.00
             41647.93,44734.84 41656.35,44740.52 41655.49,44754.00
             41655.25,44755.65 41655.09,44756.33 41655.49,44758.00
             41655.49,44758.00 41667.14,44780.00 41667.14,44780.00
             41667.14,44780.00 41671.34,44792.00 41671.34,44792.00
             41671.34,44792.00 41682.21,44812.00 41682.21,44812.00
             41682.21,44812.00 41696.79,44829.00 41696.79,44829.00
             41704.48,44839.91 41711.36,44855.50 41716.19,44868.00
             41721.03,44880.54 41722.84,44891.06 41725.45,44904.00
             41725.45,44904.00 41731.45,44932.00 41731.45,44932.00
             41731.45,44932.00 41740.34,44959.00 41740.34,44959.00
             41742.19,44967.28 41741.44,44969.90 41742.28,44977.00
             41744.63,44996.78 41745.24,44996.13 41745.00,45017.00
             41744.91,45024.41 41743.45,45039.85 41741.76,45047.00
             41741.76,45047.00 41738.90,45057.00 41738.90,45057.00
             41736.58,45066.48 41735.30,45074.73 41731.55,45084.00
             41727.88,45093.06 41722.61,45101.49 41717.86,45110.00
             41710.21,45123.70 41702.00,45137.66 41690.83,45148.83
             41674.41,45165.26 41653.90,45176.19 41632.00,45183.33
             41612.45,45189.70 41591.49,45192.24 41571.00,45192.00
             41559.53,45191.86 41548.27,45189.01 41537.00,45187.27
             41537.00,45187.27 41523.00,45185.72 41523.00,45185.72
             41513.29,45184.54 41502.41,45182.26 41493.00,45179.57
             41477.65,45175.19 41468.93,45170.06 41455.00,45163.55
             41455.00,45163.55 41428.00,45151.75 41428.00,45151.75
             41428.00,45151.75 41384.00,45126.04 41384.00,45126.04
             41384.00,45126.04 41338.00,45108.20 41338.00,45108.20
             41338.00,45108.20 41315.00,45097.77 41315.00,45097.77
             41315.00,45097.77 41249.00,45081.95 41249.00,45081.95
             41235.20,45076.89 41226.01,45072.19 41214.00,45063.57
             41210.49,45061.06 41198.44,45050.43 41196.00,45049.77
             41193.82,45049.17 41189.37,45050.23 41187.00,45050.57
             41187.00,45050.57 41171.00,45052.00 41171.00,45052.00
             41171.00,45052.00 41141.00,45052.00 41141.00,45052.00
             41141.00,45052.00 41111.00,45054.00 41111.00,45054.00
             41111.00,45054.00 41072.00,45054.00 41072.00,45054.00
             41072.00,45054.00 41041.00,45050.87 41041.00,45050.87
             41033.49,45049.79 41022.08,45047.14 41015.00,45044.56
             41005.50,45041.11 40995.42,45036.50 40985.00,45037.09
             40985.00,45037.09 40957.00,45040.00 40957.00,45040.00
             40957.00,45040.00 40931.00,45040.00 40931.00,45040.00
             40906.58,45039.71 40868.64,45028.69 40849.00,45014.25
             40836.59,45005.12 40830.31,44995.25 40819.00,44985.28
             40819.00,44985.28 40806.00,44973.29 40806.00,44973.29
             40806.00,44973.29 40786.00,44955.96 40786.00,44955.96
             40775.26,44945.68 40757.23,44923.14 40750.32,44910.00
             40745.83,44901.47 40744.80,44894.08 40742.53,44885.00
             40742.53,44885.00 40737.45,44866.00 40737.45,44866.00
             40737.45,44866.00 40734.39,44846.00 40734.39,44846.00
             40734.39,44846.00 40729.90,44828.00 40729.90,44828.00
             40728.03,44820.31 40726.01,44805.86 40726.00,44798.00
             40726.00,44798.00 40726.00,44768.00 40726.00,44768.00
             40726.06,44754.54 40730.46,44745.52 40732.57,44733.00
             40732.57,44733.00 40739.44,44691.00 40739.44,44691.00
             40741.68,44683.58 40750.85,44665.45 40754.78,44658.00
             40754.78,44658.00 40772.00,44631.00 40772.00,44631.00
             40772.00,44631.00 40790.46,44605.00 40790.46,44605.00
             40801.56,44591.44 40824.20,44570.86 40839.00,44561.44
             40851.01,44553.79 40860.67,44549.28 40874.00,44544.44
             40874.00,44544.44 40888.00,44539.56 40888.00,44539.56
             40888.00,44539.56 40901.00,44532.31 40901.00,44532.31
             40906.96,44529.08 40914.59,44525.98 40921.00,44523.69
             40943.57,44515.65 40963.48,44513.84 40987.00,44511.91
             40996.19,44511.15 41006.75,44503.51 41017.00,44504.09
             41017.00,44504.09 41049.00,44507.96 41049.00,44507.96
             41049.00,44507.96 41058.00,44507.96 41058.00,44507.96
             41058.00,44507.96 41081.00,44510.00 41081.00,44510.00
             41081.00,44510.00 41099.00,44510.00 41099.00,44510.00
             41099.00,44510.00 41113.00,44511.00 41113.00,44511.00
             41120.00,44511.03 41133.85,44510.42 41140.00,44512.84
             41143.59,44514.24 41148.02,44518.07 41151.00,44520.59
             41165.48,44532.85 41174.91,44551.95 41175.00,44571.00
             41175.04,44579.64 41174.35,44584.63 41172.12,44593.00
             41172.12,44593.00 41169.03,44602.41 41169.03,44602.41
             41169.03,44602.41 41169.67,44611.00 41169.67,44611.00
             41168.71,44622.19 41160.36,44629.60 41152.00,44636.18
             41143.27,44643.06 41139.04,44643.74 41130.00,44648.27
             41130.00,44648.27 41105.00,44662.63 41105.00,44662.63
             41105.00,44662.63 41085.00,44671.35 41085.00,44671.35
             41073.32,44677.86 41069.78,44688.25 41063.19,44699.00
             41063.19,44699.00 41054.27,44713.00 41054.27,44713.00
             41054.27,44713.00 41046.69,44730.00 41046.69,44730.00
             41042.12,44738.48 41036.19,44747.05 41036.64,44757.00
             41036.64,44757.00 41036.64,44762.00 41036.64,44762.00
             41036.64,44762.00 41036.64,44779.00 41036.64,44779.00
             41036.64,44779.00 41037.97,44800.00 41037.97,44800.00
             41038.18,44803.88 41038.90,44812.60 41041.14,44815.69
             41043.93,44819.55 41047.34,44816.43 41058.00,44820.08
             41066.01,44822.82 41075.27,44827.92 41083.00,44831.75
             41088.37,44834.42 41094.12,44836.36 41099.00,44839.93
             41109.66,44847.71 41109.70,44854.51 41115.10,44857.91
             41117.69,44859.54 41125.59,44861.04 41129.00,44861.87
             41136.80,44863.76 41158.61,44867.92 41166.00,44867.82
             41170.80,44867.76 41187.38,44861.07 41190.79,44857.78
             41190.79,44857.78 41195.37,44852.00 41195.37,44852.00
             41200.33,44845.92 41205.74,44841.28 41213.00,44838.23
             41213.00,44838.23 41241.00,44829.43 41241.00,44829.43
             41243.78,44828.63 41251.94,44826.98 41253.79,44825.84
             41257.55,44823.52 41265.27,44807.72 41268.34,44803.00
             41268.34,44803.00 41297.59,44764.00 41297.59,44764.00
             41297.59,44764.00 41300.81,44756.00 41300.81,44756.00
             41302.27,44752.14 41305.79,44742.86 41305.19,44739.00
             41304.18,44732.62 41298.31,44727.31 41294.00,44723.00
             41286.55,44715.54 41282.37,44711.08 41276.81,44702.00
             41276.81,44702.00 41256.55,44664.00 41256.55,44664.00
             41256.55,44664.00 41235.13,44630.00 41235.13,44630.00
             41235.13,44630.00 41226.07,44608.00 41226.07,44608.00
             41226.07,44608.00 41215.88,44594.00 41215.88,44594.00
             41215.88,44594.00 41206.98,44581.00 41206.98,44581.00
             41203.97,44576.64 41199.52,44571.22 41198.39,44566.00
             41196.49,44557.29 41200.07,44549.61 41203.74,44542.00
             41209.47,44530.14 41210.10,44526.83 41220.00,44517.00
             41223.67,44513.36 41227.87,44509.23 41233.00,44507.81
             41238.22,44506.37 41243.15,44509.03 41248.00,44510.65
             41254.01,44512.64 41269.19,44517.26 41275.00,44516.82
             41291.26,44515.58 41303.71,44503.95 41310.89,44490.00
             41313.93,44484.09 41317.42,44473.84 41322.33,44469.31
             41325.13,44466.73 41330.27,44466.15 41334.00,44464.77
             41343.53,44461.26 41345.63,44459.97 41354.00,44454.33
             41354.00,44454.33 41391.00,44427.25 41391.00,44427.25
             41391.00,44427.25 41410.00,44411.02 41410.00,44411.02
             41414.09,44408.99 41417.25,44411.14 41424.00,44409.75
             41433.76,44407.74 41454.53,44402.00 41463.00,44397.51
             41463.00,44397.51 41478.00,44388.45 41478.00,44388.45
             41478.00,44388.45 41530.00,44353.14 41530.00,44353.14
             41530.00,44353.14 41567.00,44327.33 41567.00,44327.33
             41567.00,44327.33 41590.00,44304.93 41590.00,44304.93
             41590.00,44304.93 41616.00,44291.14 41616.00,44291.14
             41616.00,44291.14 41636.00,44278.34 41636.00,44278.34
             41653.25,44268.47 41671.05,44259.51 41687.00,44247.53
             41704.44,44234.43 41733.78,44210.06 41749.00,44195.00
             41749.00,44195.00 41772.56,44170.00 41772.56,44170.00
             41772.56,44170.00 41790.17,44148.00 41790.17,44148.00
             41790.17,44148.00 41814.83,44124.72 41814.83,44124.72
             41814.83,44124.72 41825.00,44114.00 41825.00,44114.00
             41825.00,44114.00 41850.71,44088.00 41850.71,44088.00
             41850.71,44088.00 41865.42,44069.28 41865.42,44069.28
             41865.42,44069.28 41883.58,44051.83 41883.58,44051.83
             41889.95,44045.18 41907.21,44025.24 41912.28,44018.00
             41912.28,44018.00 41920.95,44004.00 41920.95,44004.00
             41927.06,43994.80 41940.34,43981.96 41943.22,43971.00
             41944.37,43967.35 41943.34,43964.61 41943.22,43961.00
             41943.22,43961.00 41941.00,43938.00 41941.00,43938.00
             41940.71,43913.14 41942.44,43918.29 41945.73,43897.00
             41945.73,43897.00 41948.46,43874.00 41948.46,43874.00
             41951.21,43859.43 41961.80,43830.42 41969.69,43818.00
             41975.35,43809.11 41983.52,43798.38 41991.01,43791.04
             41996.94,43785.23 42004.32,43780.25 42008.65,43773.00
             42015.46,43761.61 42019.37,43749.27 42024.06,43737.00
             42024.06,43737.00 42036.26,43710.00 42036.26,43710.00
             42036.26,43710.00 42060.42,43669.00 42060.42,43669.00
             42067.23,43658.01 42075.82,43640.28 42074.82,43627.00
             42074.82,43627.00 42072.00,43613.00 42072.00,43613.00
             42070.38,43605.16 42067.85,43591.56 42063.03,43585.21
             42060.73,43582.18 42051.83,43577.96 42048.00,43575.58
             42048.00,43575.58 42025.00,43558.58 42025.00,43558.58
             42019.58,43555.29 42005.40,43559.54 41999.31,43547.99
             41999.31,43547.99 41996.58,43532.00 41996.58,43532.00
             41996.58,43532.00 41990.47,43511.00 41990.47,43511.00
             41990.47,43511.00 41987.84,43497.00 41987.84,43497.00
             41987.84,43497.00 41974.94,43458.00 41974.94,43458.00
             41974.94,43458.00 41967.48,43437.00 41967.48,43437.00
             41967.48,43437.00 41963.89,43417.00 41963.89,43417.00
             41963.89,43417.00 41963.89,43406.00 41963.89,43406.00
             41962.68,43398.90 41959.96,43395.59 41958.68,43390.00
             41958.68,43390.00 41957.25,43375.00 41957.25,43375.00
             41957.25,43375.00 41948.64,43344.00 41948.64,43344.00
             41948.64,43344.00 41944.06,43333.00 41944.06,43333.00
             41944.06,43333.00 41940.66,43322.00 41940.66,43322.00
             41937.16,43311.08 41933.93,43306.71 41934.00,43295.00
             41934.05,43288.40 41934.37,43274.89 41936.44,43269.00
             41943.46,43249.03 41960.81,43235.98 41970.69,43218.00
             41974.46,43211.13 41977.19,43204.61 41979.11,43197.00
             41979.11,43197.00 41983.20,43180.00 41983.20,43180.00
             41983.20,43180.00 41993.69,43159.00 41993.69,43159.00
             41993.69,43159.00 42002.89,43136.00 42002.89,43136.00
             42002.89,43136.00 42010.40,43120.00 42010.40,43120.00
             42010.40,43120.00 42014.24,43102.00 42014.24,43102.00
             42018.04,43086.48 42031.65,43073.19 42048.00,43073.00
             42052.46,43072.95 42055.74,43072.82 42060.00,43074.48
             42062.66,43075.51 42065.94,43078.04 42068.72,43076.27
             42071.24,43074.67 42072.17,43069.74 42073.02,43067.00
             42075.35,43059.53 42078.05,43053.10 42081.31,43046.00
             42081.31,43046.00 42093.19,43023.00 42093.19,43023.00
             42093.19,43023.00 42097.34,43012.00 42097.34,43012.00
             42097.34,43012.00 42103.68,43000.00 42103.68,43000.00
             42103.68,43000.00 42107.86,42988.00 42107.86,42988.00
             42107.86,42988.00 42121.75,42958.00 42121.75,42958.00
             42121.75,42958.00 42126.90,42947.00 42126.90,42947.00
             42132.84,42936.33 42141.98,42931.06 42154.00,42931.00
             42154.00,42931.00 42179.00,42930.00 42179.00,42930.00
             42180.97,42919.65 42188.71,42914.66 42196.00,42908.00
             42215.15,42890.52 42231.77,42881.36 42255.00,42870.69
             42269.31,42864.12 42296.78,42850.18 42312.00,42850.00
             42312.00,42850.00 42317.00,42850.00 42317.00,42850.00
             42330.40,42850.17 42329.64,42856.11 42337.00,42859.69
             42339.56,42860.93 42347.62,42861.44 42351.00,42861.85
             42369.94,42864.11 42389.37,42865.07 42408.00,42869.50
             42417.26,42871.70 42422.48,42876.45 42430.00,42878.96
             42430.00,42878.96 42440.00,42881.86 42440.00,42881.86
             42455.94,42887.34 42469.20,42894.27 42484.00,42902.11
             42484.00,42902.11 42504.00,42912.52 42504.00,42912.52
             42509.74,42916.39 42511.28,42918.71 42516.00,42922.53
             42523.11,42928.29 42532.45,42929.84 42538.47,42937.09
             42549.65,42950.53 42542.22,42970.18 42549.99,42986.00
             42549.99,42986.00 42557.55,43000.00 42557.55,43000.00
             42559.13,43003.90 42560.16,43009.57 42563.27,43012.37
             42563.27,43012.37 42586.00,43026.97 42586.00,43026.97
             42590.96,43029.70 42596.15,43031.37 42598.98,43037.00
             42601.04,43041.10 42600.21,43048.35 42597.57,43052.00
             42595.64,43054.67 42591.63,43057.55 42591.56,43061.00
             42591.51,43063.54 42594.77,43068.84 42596.21,43071.00
             42600.25,43077.11 42603.45,43081.23 42606.74,43088.00
             42606.74,43088.00 42612.63,43104.00 42612.63,43104.00
             42612.63,43104.00 42629.58,43134.00 42629.58,43134.00
             42633.88,43141.52 42635.43,43148.82 42645.00,43149.00
             42645.00,43149.00 42654.00,43149.00 42654.00,43149.00
             42663.06,43148.83 42661.30,43145.27 42668.04,43139.46
             42672.70,43135.45 42686.26,43127.52 42692.00,43124.90
             42699.87,43121.31 42721.05,43116.24 42730.00,43114.61
             42730.00,43114.61 42742.00,43112.52 42742.00,43112.52
             42749.22,43110.67 42752.56,43108.18 42759.00,43105.43
             42767.29,43101.88 42775.04,43099.23 42783.00,43094.66
             42801.99,43083.77 42804.92,43064.70 42831.00,43065.00
             42837.80,43065.08 42844.20,43066.83 42847.99,43073.02
             42850.37,43076.89 42850.03,43081.65 42851.30,43086.00
             42852.42,43089.81 42854.41,43092.52 42856.22,43096.00
             42860.91,43105.04 42859.51,43109.32 42865.04,43109.43
             42865.04,43109.43 42882.00,43107.28 42882.00,43107.28
             42887.03,43106.62 42902.91,43104.23 42907.00,43102.66
             42907.00,43102.66 42936.00,43087.26 42936.00,43087.26
             42936.00,43087.26 42961.00,43076.74 42961.00,43076.74
             42961.00,43076.74 42981.00,43066.69 42981.00,43066.69
             42981.00,43066.69 43004.00,43054.31 43004.00,43054.31
             43004.00,43054.31 43048.00,43032.08 43048.00,43032.08
             43048.00,43032.08 43071.00,43016.10 43071.00,43016.10
             43071.00,43016.10 43096.00,42993.17 43096.00,42993.17
             43096.00,42993.17 43125.00,42968.72 43125.00,42968.72
             43125.00,42968.72 43151.00,42944.09 43151.00,42944.09
             43162.21,42933.65 43173.45,42922.55 43186.00,42913.72
             43186.00,42913.72 43219.82,42889.91 43219.82,42889.91
             43229.90,42879.38 43237.38,42863.89 43245.72,42852.00
             43245.72,42852.00 43260.66,42832.00 43260.66,42832.00
             43260.66,42832.00 43281.44,42798.00 43281.44,42798.00
             43281.44,42798.00 43295.66,42777.00 43295.66,42777.00
             43295.66,42777.00 43305.42,42761.00 43305.42,42761.00
             43305.42,42761.00 43323.90,42734.00 43323.90,42734.00
             43332.31,42722.88 43341.34,42712.10 43348.39,42700.00
             43350.91,42695.68 43351.79,42689.87 43353.34,42685.00
             43353.34,42685.00 43362.67,42656.00 43362.67,42656.00
             43362.67,42656.00 43368.45,42639.00 43368.45,42639.00
             43371.14,42632.37 43374.97,42626.08 43376.48,42619.00
             43379.50,42604.87 43368.22,42596.31 43362.43,42576.00
             43359.66,42566.31 43359.75,42562.56 43358.83,42553.00
             43358.83,42553.00 43357.00,42536.00 43357.00,42536.00
             43357.00,42536.00 43357.00,42506.00 43357.00,42506.00
             43357.00,42506.00 43360.89,42469.00 43360.89,42469.00
             43363.47,42457.65 43366.98,42452.30 43367.00,42440.00
             43367.04,42414.39 43368.58,42412.51 43373.79,42388.00
             43376.38,42375.83 43377.73,42366.90 43382.45,42355.00
             43382.45,42355.00 43397.86,42322.00 43397.86,42322.00
             43397.86,42322.00 43410.63,42300.00 43410.63,42300.00
             43410.63,42300.00 43419.76,42277.00 43419.76,42277.00
             43428.37,42259.78 43436.97,42254.38 43437.00,42233.00
             43437.00,42233.00 43437.00,42198.00 43437.00,42198.00
             43436.83,42183.71 43430.45,42163.48 43425.42,42150.00
             43425.42,42150.00 43419.79,42134.00 43419.79,42134.00
             43419.79,42134.00 43401.44,42108.00 43401.44,42108.00
             43401.44,42108.00 43380.34,42061.00 43380.34,42061.00
             43380.34,42061.00 43365.91,41999.00 43365.91,41999.00
             43365.91,41999.00 43359.36,41983.00 43359.36,41983.00
             43359.36,41983.00 43355.28,41969.00 43355.28,41969.00
             43355.28,41969.00 43346.69,41951.00 43346.69,41951.00
             43346.69,41951.00 43334.80,41914.00 43334.80,41914.00
             43334.80,41914.00 43326.45,41895.00 43326.45,41895.00
             43326.45,41895.00 43316.58,41867.00 43316.58,41867.00
             43316.58,41867.00 43310.15,41850.00 43310.15,41850.00
             43306.21,41835.62 43306.58,41820.66 43304.58,41806.00
             43304.58,41806.00 43299.59,41779.00 43299.59,41779.00
             43299.59,41779.00 43297.87,41762.00 43297.87,41762.00
             43297.87,41762.00 43293.43,41739.00 43293.43,41739.00
             43293.43,41739.00 43292.72,41728.00 43292.72,41728.00
             43292.72,41728.00 43283.00,41673.00 43283.00,41673.00
             43283.00,41673.00 43283.00,41643.00 43283.00,41643.00
             43283.00,41643.00 43286.83,41604.00 43286.83,41604.00
             43288.33,41588.53 43291.49,41568.62 43296.69,41554.00
             43296.69,41554.00 43310.30,41523.00 43310.30,41523.00
             43310.30,41523.00 43319.43,41493.00 43319.43,41493.00
             43324.62,41480.85 43332.21,41473.18 43332.12,41459.00
             43332.12,41459.00 43334.65,41426.00 43334.65,41426.00
             43335.64,41422.85 43337.76,41420.34 43340.04,41418.04
             43345.18,41412.85 43350.56,41410.38 43357.00,41407.26
             43361.36,41405.15 43364.70,41404.65 43366.89,41399.96
             43366.89,41399.96 43372.97,41385.00 43372.97,41385.00
             43375.32,41380.30 43378.77,41375.07 43380.21,41370.00
             43383.02,41360.18 43379.43,41349.64 43392.04,41338.30
             43400.83,41330.39 43418.80,41322.29 43430.00,41317.80
             43433.71,41316.31 43445.55,41312.38 43447.79,41310.49
             43453.74,41305.50 43456.99,41293.48 43457.00,41286.00
             43457.00,41286.00 43457.00,41270.00 43457.00,41270.00
             43457.00,41270.00 43460.00,41241.00 43460.00,41241.00
             43460.02,41228.73 43457.83,41217.93 43461.75,41206.00
             43464.13,41198.75 43468.83,41193.21 43475.00,41188.79
             43477.92,41186.70 43484.38,41184.02 43485.99,41181.61
             43487.08,41179.98 43488.00,41174.18 43488.13,41172.00
             43490.04,41162.59 43488.10,41159.27 43488.13,41151.00
             43488.13,41151.00 43488.13,41138.00 43488.13,41138.00
             43488.51,41094.69 43526.71,41053.92 43562.00,41033.42
             43585.35,41019.87 43595.74,41018.28 43619.00,41009.00
             43619.00,41009.00 43649.00,40997.55 43649.00,40997.55
             43649.00,40997.55 43697.00,40979.72 43697.00,40979.72
             43697.00,40979.72 43720.00,40973.65 43720.00,40973.65
             43720.00,40973.65 43739.00,40969.00 43739.00,40969.00
             43762.66,40961.01 43785.47,40951.26 43808.00,40940.52
             43808.00,40940.52 43831.00,40928.25 43831.00,40928.25
             43831.00,40928.25 43854.00,40918.14 43854.00,40918.14
             43854.00,40918.14 43874.00,40908.31 43874.00,40908.31
             43874.00,40908.31 43903.00,40895.75 43903.00,40895.75
             43903.00,40895.75 43936.00,40878.25 43936.00,40878.25
             43936.00,40878.25 43980.00,40856.13 43980.00,40856.13
             43980.00,40856.13 44000.00,40842.98 44000.00,40842.98
             44000.00,40842.98 44023.00,40825.47 44023.00,40825.47
             44023.00,40825.47 44045.00,40809.54 44045.00,40809.54
             44045.00,40809.54 44060.00,40796.16 44060.00,40796.16
             44060.00,40796.16 44095.00,40765.28 44095.00,40765.28
             44095.00,40765.28 44124.00,40741.83 44124.00,40741.83
             44124.00,40741.83 44134.09,40731.00 44134.09,40731.00
             44134.09,40731.00 44153.00,40712.04 44153.00,40712.04
             44153.00,40712.04 44184.00,40685.57 44184.00,40685.57
             44184.00,40685.57 44203.00,40668.43 44203.00,40668.43
             44203.00,40668.43 44238.00,40642.57 44238.00,40642.57
             44238.00,40642.57 44264.00,40621.71 44264.00,40621.71
             44275.59,40611.55 44298.78,40587.53 44307.56,40575.00
             44307.56,40575.00 44327.25,40540.00 44327.25,40540.00
             44331.84,40530.83 44340.52,40516.10 44342.58,40507.00
             44343.20,40504.25 44344.74,40498.55 44344.10,40496.00
             44343.48,40493.49 44339.61,40488.42 44338.00,40486.00
             44338.00,40486.00 44325.42,40466.00 44325.42,40466.00
             44325.42,40466.00 44314.37,40447.00 44314.37,40447.00
             44310.24,40438.76 44309.06,40433.37 44306.33,40425.00
             44302.42,40413.00 44299.02,40403.91 44299.00,40391.00
             44299.00,40391.00 44299.00,40361.00 44299.00,40361.00
             44299.00,40361.00 44300.83,40343.00 44300.83,40343.00
             44300.83,40343.00 44302.46,40327.00 44302.46,40327.00
             44302.46,40327.00 44312.02,40288.00 44312.02,40288.00
             44312.02,40288.00 44320.87,40260.00 44320.87,40260.00
             44325.98,40238.81 44328.85,40211.67 44337.01,40192.00
             44337.01,40192.00 44348.69,40166.00 44348.69,40166.00
             44348.69,40166.00 44356.26,40149.00 44356.26,40149.00
             44356.26,40149.00 44365.24,40133.00 44365.24,40133.00
             44365.24,40133.00 44376.31,40109.00 44376.31,40109.00
             44376.31,40109.00 44393.54,40083.00 44393.54,40083.00
             44393.54,40083.00 44404.70,40059.00 44404.70,40059.00
             44409.85,40047.54 44409.93,40040.61 44417.31,40027.00
             44432.09,39999.71 44458.61,39974.89 44483.00,39956.12
             44490.04,39950.70 44508.12,39937.25 44516.00,39934.80
             44521.24,39932.99 44526.52,39935.23 44532.00,39934.80
             44537.42,39934.59 44549.89,39931.31 44555.00,39929.24
             44555.00,39929.24 44564.00,39925.06 44564.00,39925.06
             44564.00,39925.06 44597.00,39912.68 44597.00,39912.68
             44597.00,39912.68 44616.00,39902.00 44616.00,39902.00
             44616.00,39902.00 44638.00,39887.61 44638.00,39887.61
             44638.00,39887.61 44651.00,39881.81 44651.00,39881.81
             44651.00,39881.81 44662.00,39878.14 44662.00,39878.14
             44662.00,39878.14 44701.00,39861.61 44701.00,39861.61
             44701.00,39861.61 44713.00,39857.91 44713.00,39857.91
             44713.00,39857.91 44731.00,39849.10 44731.00,39849.10
             44731.00,39849.10 44741.00,39842.46 44741.00,39842.46
             44741.00,39842.46 44761.00,39832.12 44761.00,39832.12
             44761.00,39832.12 44770.00,39828.35 44770.00,39828.35
             44785.72,39820.66 44800.15,39813.11 44812.99,39800.91
             44820.41,39793.86 44828.33,39784.12 44833.02,39775.00
             44833.02,39775.00 44842.51,39754.09 44842.51,39754.09
             44844.74,39751.22 44847.98,39749.47 44851.00,39747.58
             44861.72,39740.85 44859.94,39741.39 44872.00,39736.60
             44872.00,39736.60 44879.96,39733.45 44879.96,39733.45
             44885.21,39730.67 44886.16,39725.97 44895.00,39721.90
             44895.00,39721.90 44917.00,39715.28 44917.00,39715.28
             44917.00,39715.28 44953.00,39705.30 44953.00,39705.30
             44965.23,39703.48 44977.66,39703.98 44990.00,39704.00
             45000.83,39704.02 45009.61,39706.44 45020.00,39707.94
             45020.00,39707.94 45029.00,39707.94 45029.00,39707.94
             45029.00,39707.94 45060.00,39710.00 45060.00,39710.00
             45060.00,39710.00 45087.00,39712.91 45087.00,39712.91
             45087.00,39712.91 45143.00,39714.00 45143.00,39714.00
             45149.60,39714.01 45156.42,39714.73 45162.00,39718.65
             45168.60,39723.28 45174.31,39734.72 45181.09,39742.00
             45181.09,39742.00 45197.00,39757.00 45197.00,39757.00
             45202.85,39762.85 45208.15,39769.58 45213.39,39776.00
             45217.84,39781.47 45225.25,39793.86 45231.00,39796.69
             45235.42,39798.86 45252.15,39797.94 45258.00,39798.00
             45264.57,39798.08 45278.74,39799.93 45284.00,39803.65
             45293.14,39810.12 45295.13,39823.27 45299.90,39833.00
             45299.90,39833.00 45310.05,39848.00 45310.05,39848.00
             45314.73,39856.15 45311.05,39858.80 45316.15,39862.91
             45316.15,39862.91 45329.00,39870.69 45329.00,39870.69
             45329.00,39870.69 45362.00,39890.74 45362.00,39890.74
             45362.00,39890.74 45380.00,39899.54 45380.00,39899.54
             45380.00,39899.54 45395.00,39908.45 45395.00,39908.45
             45395.00,39908.45 45408.00,39916.24 45408.00,39916.24
             45410.38,39917.45 45416.70,39920.85 45419.00,39921.16
             45423.86,39921.80 45427.01,39917.14 45438.00,39917.00
             45441.13,39916.97 45444.97,39916.87 45448.00,39917.52
             45463.90,39920.91 45467.15,39932.64 45475.30,39944.00
             45475.30,39944.00 45492.00,39964.00 45492.00,39964.00
             45492.00,39964.00 45509.00,39947.00 45509.00,39947.00
             45522.53,39933.47 45536.93,39920.47 45552.00,39908.66
             45552.00,39908.66 45582.00,39886.55 45582.00,39886.55
             45582.00,39886.55 45604.00,39867.42 45604.00,39867.42
             45604.00,39867.42 45632.00,39843.83 45632.00,39843.83
             45632.00,39843.83 45666.83,39809.00 45666.83,39809.00
             45666.83,39809.00 45690.45,39779.00 45690.45,39779.00
             45690.45,39779.00 45725.58,39739.00 45725.58,39739.00
             45730.29,39733.56 45738.11,39726.25 45739.43,39719.00
             45740.14,39715.14 45738.50,39711.62 45737.34,39708.00
             45737.34,39708.00 45731.69,39690.00 45731.69,39690.00
             45731.69,39690.00 45724.63,39669.00 45724.63,39669.00
             45724.63,39669.00 45712.87,39651.00 45712.87,39651.00
             45705.75,39638.55 45701.02,39623.40 45701.00,39609.00
             45701.00,39609.00 45701.00,39581.00 45701.00,39581.00
             45701.03,39564.73 45710.81,39534.54 45718.26,39520.00
             45728.75,39499.53 45738.61,39494.59 45748.13,39472.00
             45748.13,39472.00 45754.69,39450.00 45754.69,39450.00
             45754.69,39450.00 45768.19,39419.00 45768.19,39419.00
             45768.19,39419.00 45776.06,39393.00 45776.06,39393.00
             45776.06,39393.00 45787.91,39369.00 45787.91,39369.00
             45787.91,39369.00 45792.72,39350.00 45792.72,39350.00
             45795.59,39340.36 45799.78,39330.99 45804.27,39322.00
             45809.48,39311.58 45815.27,39301.22 45822.42,39292.00
             45822.42,39292.00 45838.32,39273.00 45838.32,39273.00
             45838.32,39273.00 45844.69,39254.00 45844.69,39254.00
             45848.22,39244.33 45856.46,39226.73 45861.81,39218.00
             45868.79,39206.61 45873.07,39201.94 45881.58,39192.00
             45886.55,39186.20 45890.57,39183.40 45893.30,39176.00
             45893.30,39176.00 45900.05,39156.00 45900.05,39156.00
             45900.05,39156.00 45908.57,39133.00 45908.57,39133.00
             45908.57,39133.00 45912.66,39114.00 45912.66,39114.00
             45912.66,39114.00 45920.02,39086.00 45920.02,39086.00
             45923.94,39073.36 45936.31,39048.97 45943.67,39038.00
             45958.26,39016.24 45983.02,38991.01 46005.00,38976.69
             46023.68,38964.53 46050.96,38952.79 46072.00,38944.95
             46095.69,38936.12 46115.52,38929.77 46141.00,38927.91
             46141.00,38927.91 46153.00,38927.00 46153.00,38927.00
             46153.00,38927.00 46213.00,38927.00 46213.00,38927.00
             46222.80,38927.02 46236.32,38929.00 46246.00,38931.00
             46254.60,38932.78 46259.92,38934.96 46269.00,38935.00
             46269.00,38935.00 46291.00,38935.00 46291.00,38935.00
             46294.09,38934.99 46298.15,38935.30 46300.70,38933.26
             46303.29,38931.20 46304.09,38926.14 46304.79,38923.00
             46307.54,38914.27 46312.28,38905.28 46304.79,38897.39
             46301.95,38894.69 46294.71,38892.30 46291.00,38890.80
             46284.36,38888.12 46276.16,38884.04 46270.00,38880.40
             46270.00,38880.40 46228.00,38852.85 46228.00,38852.85
             46228.00,38852.85 46208.00,38837.08 46208.00,38837.08
             46204.68,38835.61 46197.87,38835.08 46194.00,38834.39
             46194.00,38834.39 46170.00,38828.85 46170.00,38828.85
             46170.00,38828.85 46137.00,38819.16 46137.00,38819.16
             46134.74,38818.95 46132.29,38819.00 46130.00,38819.16
             46130.00,38819.16 46079.00,38816.00 46079.00,38816.00
             46079.00,38816.00 46069.00,38816.00 46069.00,38816.00
             46069.00,38816.00 46046.00,38813.00 46046.00,38813.00
             46046.00,38813.00 46037.00,38813.00 46037.00,38813.00
             46037.00,38813.00 46009.00,38810.00 46009.00,38810.00
             46009.00,38810.00 45978.00,38808.00 45978.00,38808.00
             45978.00,38808.00 45939.00,38808.00 45939.00,38808.00
             45939.00,38808.00 45927.00,38807.04 45927.00,38807.04
             45927.00,38807.04 45916.00,38807.04 45916.00,38807.04
             45916.00,38807.04 45903.00,38806.00 45903.00,38806.00
             45891.34,38805.87 45875.25,38807.38 45866.10,38798.79
             45858.05,38791.23 45857.83,38780.76 45855.08,38771.00
             45855.08,38771.00 45845.06,38747.00 45845.06,38747.00
             45842.64,38740.57 45843.46,38739.64 45842.10,38734.00
             45842.10,38734.00 45822.90,38681.00 45822.90,38681.00
             45822.90,38681.00 45819.68,38657.00 45819.68,38657.00
             45819.68,38657.00 45807.91,38601.00 45807.91,38601.00
             45807.91,38601.00 45805.08,38588.00 45805.08,38588.00
             45805.08,38588.00 45801.52,38577.00 45801.52,38577.00
             45800.76,38573.46 45801.32,38570.46 45800.01,38567.00
             45798.28,38562.47 45794.18,38558.40 45792.00,38554.00
             45789.41,38548.77 45790.57,38545.82 45788.98,38543.27
             45787.66,38541.16 45785.13,38540.38 45783.17,38539.02
             45775.91,38533.97 45775.42,38531.23 45765.00,38530.33
             45755.66,38529.52 45745.23,38535.98 45740.00,38535.60
             45736.07,38535.32 45731.02,38531.29 45731.70,38527.00
             45732.35,38522.93 45742.06,38511.44 45742.80,38504.00
             45743.45,38497.49 45740.34,38494.36 45738.06,38489.00
             45736.07,38484.35 45736.64,38481.06 45732.61,38476.02
             45725.75,38467.43 45709.53,38464.66 45699.00,38463.29
             45685.23,38461.50 45671.46,38470.91 45671.21,38456.00
             45670.98,38454.53 45671.06,38452.42 45671.21,38451.00
             45673.58,38441.44 45689.02,38434.65 45693.40,38428.70
             45696.21,38424.89 45693.70,38422.43 45696.88,38415.00
             45698.72,38410.71 45711.78,38391.75 45715.17,38388.00
             45717.63,38385.28 45730.19,38373.80 45733.00,38371.79
             45733.00,38371.79 45744.00,38364.53 45744.00,38364.53
             45744.00,38364.53 45760.00,38348.80 45760.00,38348.80
             45766.19,38343.78 45773.40,38339.97 45778.71,38334.00
             45778.71,38334.00 45796.28,38313.00 45796.28,38313.00
             45799.17,38309.67 45803.89,38305.05 45805.45,38301.00
             45805.45,38301.00 45811.44,38261.00 45811.44,38261.00
             45815.69,38248.92 45819.09,38246.74 45824.49,38237.00
             45827.35,38231.83 45832.02,38218.93 45833.91,38213.00
             45833.91,38213.00 45837.05,38198.00 45837.05,38198.00
             45837.05,38198.00 45837.05,38189.00 45837.05,38189.00
             45837.05,38189.00 45838.91,38181.00 45838.91,38181.00
             45838.91,38181.00 45838.91,38174.00 45838.91,38174.00
             45838.91,38174.00 45839.96,38163.00 45839.96,38163.00
             45839.96,38163.00 45839.96,38151.00 45839.96,38151.00
             45839.96,38151.00 45843.83,38113.00 45843.83,38113.00
             45845.35,38097.83 45843.84,38085.73 45858.00,38075.50
             45863.92,38071.33 45870.29,38075.43 45877.00,38075.50
             45883.92,38075.43 45888.70,38073.35 45895.00,38071.05
             45907.45,38066.50 45917.81,38063.81 45918.00,38048.00
             45918.09,38040.45 45918.04,38024.83 45925.14,38020.09
             45929.40,38017.24 45944.00,38016.42 45952.00,38013.66
             45952.00,38013.66 45978.00,38004.43 45978.00,38004.43
             45978.00,38004.43 46000.00,38000.24 46000.00,38000.24
             46000.00,38000.24 46042.00,37986.66 46042.00,37986.66
             46046.70,37985.01 46052.72,37982.10 46057.00,37979.55
             46068.31,37972.81 46070.37,37968.66 46085.00,37969.01
             46088.84,37969.11 46095.77,37970.06 46097.12,37974.21
             46098.02,37975.93 46097.03,37982.45 46097.12,37985.00
             46097.12,37985.00 46097.12,37991.00 46097.12,37991.00
             46097.09,37997.99 46098.60,38003.11 46105.00,38006.92
             46105.00,38006.92 46111.00,38009.82 46111.00,38009.82
             46111.00,38009.82 46119.00,38015.33 46119.00,38015.33
             46119.00,38015.33 46130.00,38019.40 46130.00,38019.40
             46139.43,38023.90 46146.16,38030.13 46158.00,38028.57
             46164.10,38027.76 46170.19,38026.68 46176.00,38024.66
             46181.87,38022.61 46186.57,38019.44 46193.00,38022.01
             46203.90,38026.36 46211.53,38041.40 46220.01,38048.68
             46220.01,38048.68 46241.00,38064.30 46241.00,38064.30
             46241.00,38064.30 46254.04,38077.44 46254.04,38077.44
             46259.05,38080.98 46265.19,38079.05 46271.95,38085.21
             46283.17,38095.45 46274.84,38114.70 46276.44,38122.00
             46276.97,38124.41 46282.34,38132.14 46283.99,38135.00
             46287.31,38140.76 46289.23,38146.91 46291.76,38153.00
             46291.76,38153.00 46302.11,38171.00 46302.11,38171.00
             46302.11,38171.00 46320.95,38212.00 46320.95,38212.00
             46324.96,38218.91 46332.66,38225.52 46338.38,38238.00
             46341.85,38246.22 46338.13,38247.63 46338.38,38253.00
             46338.79,38255.86 46341.39,38261.17 46342.58,38264.00
             46344.56,38268.72 46347.30,38277.20 46350.39,38280.83
             46350.39,38280.83 46355.72,38286.09 46355.72,38286.09
             46370.50,38301.80 46384.97,38315.21 46407.00,38319.08
             46419.96,38321.35 46435.87,38317.03 46440.20,38303.00
             46441.10,38300.08 46441.00,38297.02 46441.00,38294.00
             46441.00,38294.00 46441.00,38243.00 46441.00,38243.00
             46441.00,38240.74 46440.78,38237.32 46442.02,38235.39
             46443.94,38232.42 46457.14,38227.72 46461.00,38226.20
             46479.63,38218.89 46510.01,38212.24 46530.00,38212.00
             46533.65,38211.96 46549.51,38211.62 46551.87,38212.60
             46554.65,38213.75 46555.61,38216.44 46558.13,38218.78
             46561.77,38222.16 46568.08,38223.91 46573.00,38223.47
             46583.86,38222.52 46587.98,38216.54 46593.00,38214.16
             46595.86,38212.80 46598.93,38213.08 46602.00,38212.87
             46605.32,38212.32 46609.74,38211.27 46612.82,38212.87
             46615.65,38214.63 46616.75,38217.98 46621.04,38221.47
             46630.83,38229.45 46634.56,38228.77 46642.41,38241.00
             46643.74,38243.07 46646.20,38246.56 46646.36,38249.00
             46646.61,38252.87 46642.16,38256.76 46640.13,38260.00
             46636.09,38266.43 46636.40,38274.03 46641.28,38279.98
             46645.89,38285.61 46650.99,38286.50 46656.91,38292.17
             46656.91,38292.17 46671.42,38309.00 46671.42,38309.00
             46671.42,38309.00 46679.83,38318.00 46679.83,38318.00
             46679.83,38318.00 46690.44,38330.00 46690.44,38330.00
             46693.20,38334.07 46692.20,38337.29 46696.14,38340.16
             46696.14,38340.16 46719.00,38349.47 46719.00,38349.47
             46727.95,38351.51 46733.68,38349.93 46740.57,38359.01
             46743.85,38363.33 46747.38,38378.12 46749.36,38384.00
             46749.36,38384.00 46753.56,38395.00 46753.56,38395.00
             46753.56,38395.00 46760.02,38420.00 46760.02,38420.00
             46760.02,38420.00 46768.91,38444.00 46768.91,38444.00
             46768.91,38444.00 46778.09,38477.00 46778.09,38477.00
             46778.09,38477.00 46791.29,38505.00 46791.29,38505.00
             46791.29,38505.00 46795.04,38521.00 46795.04,38521.00
             46795.04,38521.00 46799.57,38538.00 46799.57,38538.00
             46799.57,38538.00 46806.85,38562.00 46806.85,38562.00
             46806.85,38562.00 46812.87,38593.00 46812.87,38593.00
             46813.70,38596.46 46814.08,38601.99 46816.51,38604.50
             46818.26,38606.32 46829.98,38611.03 46833.00,38612.18
             46838.68,38614.35 46842.52,38612.03 46848.00,38610.42
             46859.21,38607.15 46869.51,38602.32 46880.00,38597.26
             46886.63,38594.06 46901.57,38587.45 46904.98,38580.96
             46906.57,38577.92 46905.64,38574.08 46906.32,38570.00
             46907.17,38564.99 46909.71,38560.97 46912.75,38557.00
             46920.44,38546.96 46934.41,38542.68 46939.01,38535.91
             46939.01,38535.91 46950.42,38510.00 46950.42,38510.00
             46955.76,38497.29 46962.63,38483.76 46969.81,38472.00
             46981.18,38453.39 46982.36,38444.29 46986.88,38424.00
             46986.88,38424.00 46994.57,38386.00 46994.57,38386.00
             46994.57,38386.00 46996.46,38369.00 46996.46,38369.00
             46996.46,38369.00 47003.85,38343.00 47003.85,38343.00
             47003.85,38343.00 47011.15,38310.00 47011.15,38310.00
             47011.15,38310.00 47020.96,38280.00 47020.96,38280.00
             47020.96,38280.00 47022.88,38271.00 47022.88,38271.00
             47022.88,38271.00 47031.34,38238.00 47031.34,38238.00
             47031.34,38238.00 47044.78,38210.00 47044.78,38210.00
             47044.78,38210.00 47049.34,38192.00 47049.34,38192.00
             47049.34,38192.00 47057.23,38171.00 47057.23,38171.00
             47057.23,38171.00 47060.15,38159.00 47060.15,38159.00
             47063.03,38148.49 47067.85,38137.19 47073.69,38128.00
             47073.69,38128.00 47092.25,38103.00 47092.25,38103.00
             47092.25,38103.00 47115.61,38068.00 47115.61,38068.00
             47115.61,38068.00 47129.54,38052.00 47129.54,38052.00
             47129.54,38052.00 47136.90,38042.00 47136.90,38042.00
             47139.36,38038.75 47143.34,38034.56 47144.92,38031.00
             47144.92,38031.00 47148.21,38017.00 47148.21,38017.00
             47148.21,38017.00 47154.42,37987.00 47154.42,37987.00
             47154.42,37987.00 47160.33,37966.00 47160.33,37966.00
             47160.33,37966.00 47161.28,37956.00 47161.28,37956.00
             47163.18,37940.27 47164.97,37943.45 47165.00,37925.00
             47165.00,37925.00 47169.00,37891.00 47169.00,37891.00
             47169.00,37891.00 47169.00,37826.00 47169.00,37826.00
             47168.99,37819.56 47167.90,37813.15 47162.62,37808.70
             47159.59,37806.14 47155.07,37805.93 47150.18,37800.90
             47150.18,37800.90 47134.86,37778.00 47134.86,37778.00
             47134.86,37778.00 47127.83,37764.00 47127.83,37764.00
             47127.83,37764.00 47118.98,37748.00 47118.98,37748.00
             47118.98,37748.00 47112.74,37733.00 47112.74,37733.00
             47109.32,37726.40 47104.58,37723.94 47097.42,37705.00
             47097.42,37705.00 47088.86,37671.00 47088.86,37671.00
             47083.28,37652.00 47077.71,37647.89 47078.00,37626.00
             47078.31,37603.15 47101.73,37609.49 47110.83,37589.00
             47121.47,37565.01 47117.74,37551.13 47126.32,37535.00
             47134.54,37519.56 47146.50,37512.41 47150.93,37505.00
             47157.72,37493.63 47159.22,37480.27 47163.69,37468.00
             47163.69,37468.00 47175.75,37443.00 47175.75,37443.00
             47175.75,37443.00 47181.26,37431.00 47181.26,37431.00
             47181.26,37431.00 47200.47,37388.00 47200.47,37388.00
             47201.07,37385.38 47201.00,37382.67 47201.00,37380.00
             47201.00,37380.00 47201.00,37339.00 47201.00,37339.00
             47200.96,37331.53 47200.02,37325.85 47194.70,37320.17
             47192.33,37317.64 47185.31,37311.60 47182.00,37311.05
             47182.00,37311.05 47169.00,37312.00 47169.00,37312.00
             47157.71,37311.88 47147.37,37306.19 47146.08,37294.00
             47145.77,37291.11 47145.12,37286.74 47145.32,37284.00
             47145.32,37284.00 47147.65,37267.00 47147.65,37267.00
             47146.75,37264.29 47141.43,37259.46 47139.29,37257.00
             47134.66,37251.68 47130.19,37245.23 47126.89,37239.00
             47126.89,37239.00 47114.12,37212.00 47114.12,37212.00
             47114.12,37212.00 47100.31,37192.00 47100.31,37192.00
             47093.39,37179.40 47091.02,37168.88 47088.20,37155.00
             47086.80,37148.10 47085.09,37142.16 47085.00,37135.00
             47084.95,37130.48 47085.41,37127.34 47083.65,37123.00
             47078.14,37109.43 47065.18,37101.30 47065.00,37086.00
             47064.72,37062.05 47070.32,37053.33 47080.74,37033.00
             47080.74,37033.00 47092.68,37009.00 47092.68,37009.00
             47092.68,37009.00 47096.86,36999.00 47096.86,36999.00
             47096.86,36999.00 47109.11,36970.00 47109.11,36970.00
             47109.11,36970.00 47129.31,36933.00 47129.31,36933.00
             47129.31,36933.00 47140.22,36912.00 47140.22,36912.00
             47140.22,36912.00 47146.78,36896.00 47146.78,36896.00
             47149.16,36890.92 47153.44,36883.65 47151.15,36878.00
             47150.32,36875.98 47148.84,36874.09 47146.91,36873.02
             47146.91,36873.02 47123.00,36868.58 47123.00,36868.58
             47102.99,36864.16 47070.94,36851.14 47054.00,36840.00
             47041.34,36831.67 47029.75,36821.51 47021.04,36809.00
             47013.40,36798.02 47010.17,36787.92 47004.69,36776.00
             47004.69,36776.00 46998.31,36763.00 46998.31,36763.00
             46998.31,36763.00 46993.36,36751.00 46993.36,36751.00
             46990.91,36743.73 46991.19,36737.94 46985.89,36732.00
             46983.28,36729.06 46978.66,36724.29 46975.00,36722.89
             46970.05,36721.00 46961.18,36723.54 46950.00,36716.63
             46941.88,36711.61 46935.79,36707.44 46927.00,36703.26
             46927.00,36703.26 46915.00,36698.47 46915.00,36698.47
             46915.00,36698.47 46904.00,36691.01 46904.00,36691.01
             46904.00,36691.01 46877.00,36676.13 46877.00,36676.13
             46877.00,36676.13 46848.00,36656.01 46848.00,36656.01
             46836.19,36650.39 46811.99,36662.83 46799.39,36647.91
             46797.62,36645.81 46796.65,36643.62 46795.93,36641.00
             46794.85,36637.09 46794.96,36633.02 46795.00,36629.00
             46795.00,36629.00 46796.30,36611.00 46796.30,36611.00
             46796.30,36611.00 46797.96,36601.00 46797.96,36601.00
             46798.51,36588.91 46795.56,36585.99 46792.43,36575.00
             46792.43,36575.00 46789.30,36563.15 46789.30,36563.15
             46787.31,36559.20 46783.67,36560.32 46780.00,36559.67
             46776.28,36559.01 46772.85,36557.32 46770.04,36554.79
             46760.72,36546.39 46765.98,36532.93 46766.00,36522.00
             46766.00,36522.00 46766.99,36506.00 46766.99,36506.00
             46767.29,36492.38 46759.87,36473.90 46757.26,36460.00
             46757.26,36460.00 46751.78,36428.00 46751.78,36428.00
             46751.78,36428.00 46743.00,36409.00 46743.00,36409.00
             46739.34,36400.51 46737.62,36394.34 46731.54,36387.00
             46724.99,36379.11 46711.72,36373.16 46700.04,36361.00
             46695.72,36356.50 46690.87,36350.18 46687.34,36345.00
             46685.60,36342.43 46681.97,36336.20 46679.79,36334.60
             46675.89,36331.72 46670.77,36334.48 46662.00,36329.47
             46657.06,36326.64 46654.17,36322.77 46650.00,36319.21
             46645.51,36315.37 46642.69,36314.91 46638.47,36309.96
             46638.47,36309.96 46631.47,36300.13 46631.47,36300.13
             46626.62,36294.68 46622.35,36296.77 46617.00,36295.47
             46608.90,36293.50 46603.71,36286.25 46604.32,36278.00
             46604.57,36274.72 46605.43,36267.96 46606.56,36265.00
             46607.95,36261.36 46610.15,36258.77 46613.02,36256.18
             46624.32,36245.95 46635.17,36247.81 46647.98,36242.60
             46652.97,36240.57 46652.49,36238.52 46656.13,36236.87
             46659.29,36235.45 46673.13,36234.24 46678.29,36224.00
             46681.30,36218.10 46679.20,36213.03 46678.29,36207.00
             46678.29,36207.00 46676.21,36193.00 46676.21,36193.00
             46673.46,36183.30 46671.14,36181.74 46671.00,36170.00
             46670.97,36166.84 46670.77,36160.83 46671.65,36158.00
             46674.19,36149.76 46682.75,36144.01 46690.00,36140.26
             46694.77,36137.79 46705.09,36134.40 46707.43,36129.95
             46709.42,36126.19 46710.37,36117.57 46711.43,36113.00
             46711.43,36113.00 46717.54,36089.00 46717.54,36089.00
             46717.54,36089.00 46721.44,36066.00 46721.44,36066.00
             46724.95,36054.27 46731.22,36049.52 46737.10,36040.00
             46737.10,36040.00 46742.00,36030.00 46742.00,36030.00 Z" />
</svg>
