<?xml version="1.0" encoding="UTF-8" standalone="no"?>
<!DOCTYPE svg PUBLIC "-//W3C//DTD SVG 20010904//EN"
              "http://www.w3.org/TR/2001/REC-SVG-20010904/DTD/svg10.dtd">

<svg xmlns="http://www.w3.org/2000/svg"
     width="7314.29mm" height="7314.29mm"
     viewBox="0 0 20480 20480">
  <path id="AOB"
        fill="none" stroke="black" stroke-width="1"
        d="M 11689.00,9195.00
           C 11682.35,9193.06 11670.98,9185.21 11664.00,9181.83
             11657.52,9178.69 11649.12,9177.26 11644.70,9170.96
             11640.78,9165.37 11643.06,9160.92 11640.91,9156.00
             11638.59,9150.69 11634.16,9149.23 11632.01,9144.00
             11630.32,9139.90 11630.64,9132.46 11629.53,9128.00
             11628.69,9124.61 11623.05,9113.30 11621.12,9110.00
             11619.12,9106.57 11614.91,9101.07 11611.83,9098.63
             11607.26,9095.01 11594.41,9090.83 11595.11,9078.00
             11595.50,9070.84 11600.66,9065.60 11604.37,9060.00
             11606.99,9056.03 11606.82,9053.79 11608.96,9050.00
             11611.17,9046.10 11614.09,9043.48 11616.59,9040.00
             11616.59,9040.00 11623.97,9027.00 11623.97,9027.00
             11624.36,9025.81 11624.39,9025.19 11623.97,9024.00
             11623.97,9024.00 11616.78,9014.00 11616.78,9014.00
             11616.78,9014.00 11607.90,8999.00 11607.90,8999.00
             11607.90,8999.00 11602.33,8985.00 11602.33,8985.00
             11598.87,8978.12 11593.15,8968.73 11592.18,8961.00
             11591.29,8953.86 11593.27,8942.56 11598.22,8937.17
             11604.49,8930.35 11611.62,8929.75 11611.49,8921.00
             11611.33,8909.94 11621.65,8899.61 11627.86,8891.00
             11630.67,8887.11 11633.70,8884.02 11634.20,8879.00
             11634.55,8875.51 11633.14,8871.01 11635.17,8867.00
             11637.38,8862.67 11640.40,8861.95 11643.72,8859.32
             11646.36,8857.22 11647.78,8854.86 11651.00,8853.16
             11660.02,8848.39 11676.05,8850.11 11686.00,8850.00
             11686.00,8850.00 11696.00,8849.18 11696.00,8849.18
             11696.00,8849.18 11706.00,8849.91 11706.00,8849.91
             11706.00,8849.91 11713.00,8849.18 11713.00,8849.18
             11713.00,8849.18 11720.00,8849.91 11720.00,8849.91
             11720.00,8849.91 11738.00,8850.56 11738.00,8850.56
             11745.05,8850.27 11746.72,8849.85 11754.00,8850.56
             11762.12,8851.68 11772.03,8850.35 11776.10,8860.00
             11778.38,8865.82 11775.92,8872.58 11776.10,8878.00
             11776.66,8882.45 11777.81,8886.57 11776.10,8891.00
             11773.75,8896.46 11769.53,8897.12 11768.99,8900.21
             11768.99,8900.21 11772.00,8911.00 11772.00,8911.00
             11785.23,8905.07 11782.48,8901.54 11802.00,8897.63
             11802.00,8897.63 11808.00,8896.22 11808.00,8896.22
             11812.22,8895.74 11821.50,8897.14 11824.91,8899.65
             11827.60,8901.62 11829.29,8904.52 11831.61,8905.60
             11834.33,8906.87 11839.75,8904.78 11844.49,8911.05
             11848.56,8916.43 11845.33,8920.43 11849.31,8924.45
             11849.31,8924.45 11855.87,8929.26 11855.87,8929.26
             11857.79,8931.01 11859.31,8933.65 11861.26,8934.83
             11863.97,8936.46 11867.24,8935.59 11870.90,8938.01
             11874.78,8940.57 11875.03,8944.02 11878.21,8945.99
             11880.17,8947.21 11886.36,8947.91 11892.00,8951.28
             11892.00,8951.28 11914.00,8966.67 11914.00,8966.67
             11914.00,8966.67 11934.00,8975.41 11934.00,8975.41
             11934.00,8975.41 11945.00,8981.21 11945.00,8981.21
             11945.00,8981.21 11955.00,8985.45 11955.00,8985.45
             11960.25,8987.30 11963.04,8986.40 11968.00,8989.80
             11970.83,8991.74 11975.44,8996.13 11977.27,8999.00
             11979.46,9002.45 11978.56,9003.93 11982.14,9007.96
             11987.17,9013.61 11995.20,9018.45 11999.26,9025.00
             12001.31,9028.30 12001.11,9032.32 12001.97,9036.00
             12001.97,9036.00 12005.40,9044.96 12005.40,9044.96
             12005.40,9044.96 12006.48,9054.01 12006.48,9054.01
             12008.32,9059.51 12012.22,9059.79 12015.35,9064.05
             12018.22,9067.96 12018.38,9073.34 12017.82,9078.00
             12017.38,9081.59 12016.29,9083.73 12015.08,9087.00
             12015.08,9087.00 12012.40,9095.00 12012.40,9095.00
             12012.40,9095.00 12001.27,9112.00 12001.27,9112.00
             12001.27,9112.00 11992.10,9129.00 11992.10,9129.00
             11985.46,9139.25 11979.53,9142.01 11981.09,9155.00
             11981.72,9160.26 11989.25,9175.81 11992.46,9179.83
             11992.46,9179.83 12000.82,9189.00 12000.82,9189.00
             12000.82,9189.00 12008.46,9200.95 12008.46,9200.95
             12012.91,9206.35 12022.33,9208.74 12020.78,9219.00
             12019.10,9230.04 12004.56,9241.43 11997.37,9249.28
             11992.57,9254.54 11990.15,9261.56 11987.41,9268.00
             11985.78,9271.84 11982.77,9275.68 11983.01,9280.00
             11983.27,9284.92 11986.09,9295.01 11989.53,9298.55
             11991.98,9301.07 11997.57,9303.89 12000.15,9308.04
             12002.95,9312.54 12000.93,9316.79 12004.57,9320.69
             12008.08,9324.44 12017.15,9323.25 12018.44,9334.00
             12018.81,9337.04 12017.98,9339.11 12017.46,9342.00
             12015.08,9355.35 12017.38,9349.42 12010.98,9362.00
             12010.98,9362.00 12005.01,9377.00 12005.01,9377.00
             12001.61,9382.88 11996.85,9387.76 11992.62,9393.00
             11992.62,9393.00 11984.44,9405.00 11984.44,9405.00
             11979.31,9412.87 11981.24,9418.71 11976.61,9423.79
             11971.77,9429.09 11962.83,9430.98 11956.00,9431.00
             11952.73,9442.14 11941.23,9441.64 11932.00,9444.37
             11922.43,9447.20 11915.99,9451.94 11907.00,9456.05
             11907.00,9456.05 11888.00,9464.41 11888.00,9464.41
             11879.65,9469.70 11876.00,9477.49 11866.00,9480.00
             11867.39,9487.10 11864.37,9493.29 11857.00,9495.25
             11857.00,9495.25 11846.00,9496.40 11846.00,9496.40
             11843.73,9496.96 11837.12,9499.89 11835.00,9501.10
             11832.18,9502.71 11819.11,9510.65 11817.49,9512.39
             11813.30,9516.91 11811.31,9524.48 11809.01,9530.00
             11806.53,9535.97 11804.20,9538.71 11802.53,9546.00
             11802.53,9546.00 11801.45,9553.00 11801.45,9553.00
             11801.45,9553.00 11799.45,9559.00 11799.45,9559.00
             11796.58,9569.97 11792.40,9596.71 11792.04,9608.00
             11792.04,9608.00 11792.66,9617.00 11792.66,9617.00
             11792.66,9617.00 11792.13,9624.00 11792.13,9624.00
             11792.13,9624.00 11793.16,9634.00 11793.16,9634.00
             11793.16,9634.00 11795.00,9650.00 11795.00,9650.00
             11795.00,9650.00 11795.53,9675.00 11795.53,9675.00
             11795.09,9683.52 11793.97,9678.04 11794.82,9690.00
             11795.53,9700.15 11790.99,9709.41 11790.20,9717.72
             11789.74,9722.61 11794.85,9725.99 11793.24,9733.00
             11792.45,9736.46 11784.00,9748.51 11781.51,9753.00
             11781.51,9753.00 11764.56,9782.72 11764.56,9782.72
             11762.97,9786.37 11765.10,9789.68 11761.77,9794.91
             11759.16,9799.02 11756.00,9799.31 11753.93,9802.26
             11751.10,9806.30 11748.71,9825.00 11742.37,9832.89
             11736.82,9839.80 11731.01,9836.07 11726.00,9838.53
             11726.00,9838.53 11707.00,9850.82 11707.00,9850.82
             11693.00,9858.38 11681.54,9859.13 11667.00,9853.00
             11664.37,9860.64 11661.44,9859.03 11659.02,9863.21
             11657.64,9865.60 11658.27,9868.44 11657.57,9871.00
             11656.70,9874.17 11654.35,9876.72 11651.98,9878.89
             11645.85,9884.52 11643.37,9881.91 11640.74,9884.60
             11639.00,9886.37 11639.09,9889.44 11638.00,9891.99
             11635.96,9896.72 11630.07,9900.74 11625.00,9901.43
             11614.36,9902.90 11606.82,9896.39 11598.00,9892.00
             11596.69,9897.82 11590.44,9908.82 11585.00,9911.43
             11580.59,9913.55 11578.20,9912.11 11575.00,9912.86
             11573.00,9913.33 11566.87,9916.74 11565.00,9917.96
             11565.00,9917.96 11556.00,9925.21 11556.00,9925.21
             11556.00,9925.21 11546.26,9931.53 11546.26,9931.53
             11542.74,9934.77 11543.79,9935.99 11535.00,9943.24
             11527.48,9949.45 11525.48,9948.66 11521.00,9952.27
             11512.25,9959.33 11508.69,9964.53 11497.00,9968.48
             11488.82,9971.25 11481.45,9971.89 11473.00,9972.78
             11464.60,9973.67 11459.65,9975.72 11455.00,9966.00
             11455.00,9966.00 11440.73,9969.75 11440.73,9969.75
             11440.73,9969.75 11432.91,9976.06 11432.91,9976.06
             11432.91,9976.06 11415.00,9986.75 11415.00,9986.75
             11415.00,9986.75 11398.00,9993.45 11398.00,9993.45
             11398.00,9993.45 11370.00,10007.00 11370.00,10007.00
             11383.01,10014.40 11374.88,10027.77 11379.51,10036.79
             11380.95,10039.60 11383.57,10040.30 11385.79,10042.39
             11389.20,10045.59 11394.07,10055.24 11393.79,10060.00
             11393.41,10066.45 11390.33,10069.98 11386.86,10075.00
             11386.86,10075.00 11379.32,10085.96 11379.32,10085.96
             11379.32,10085.96 11363.19,10102.42 11363.19,10102.42
             11363.19,10102.42 11351.45,10122.00 11351.45,10122.00
             11346.96,10127.95 11343.39,10128.18 11338.88,10136.00
             11338.88,10136.00 11334.61,10145.00 11334.61,10145.00
             11331.44,10151.08 11322.37,10166.37 11318.00,10171.00
             11323.43,10170.56 11328.12,10168.91 11332.96,10172.51
             11337.53,10175.91 11337.53,10179.88 11340.55,10181.04
             11340.55,10181.04 11345.01,10181.04 11345.01,10181.04
             11355.02,10181.96 11362.24,10178.54 11368.52,10189.00
             11369.64,10190.88 11370.50,10192.81 11370.77,10195.00
             11371.82,10203.27 11363.74,10210.06 11356.00,10210.53
             11356.00,10210.53 11339.00,10209.68 11339.00,10209.68
             11339.00,10209.68 11332.00,10208.16 11332.00,10208.16
             11332.00,10208.16 11302.00,10208.16 11302.00,10208.16
             11296.03,10208.99 11292.48,10214.37 11284.09,10214.85
             11284.09,10214.85 11265.00,10217.92 11265.00,10217.92
             11265.00,10217.92 11254.00,10217.92 11254.00,10217.92
             11254.00,10217.92 11244.00,10218.59 11244.00,10218.59
             11244.00,10218.59 11226.00,10213.60 11226.00,10213.60
             11226.00,10213.60 11219.00,10212.52 11219.00,10212.52
             11219.00,10212.52 11212.00,10210.23 11212.00,10210.23
             11209.01,10209.78 11200.47,10209.96 11197.00,10210.23
             11189.63,10210.10 11189.92,10211.50 11185.01,10212.03
             11185.01,10212.03 11168.00,10212.03 11168.00,10212.03
             11168.00,10212.03 11160.00,10213.70 11160.00,10213.70
             11160.00,10213.70 11152.00,10214.37 11152.00,10214.37
             11152.00,10214.37 11145.00,10216.24 11145.00,10216.24
             11139.80,10217.11 11134.08,10216.15 11129.00,10217.80
             11129.00,10217.80 11101.00,10230.25 11101.00,10230.25
             11101.00,10230.25 11094.00,10234.55 11094.00,10234.55
             11090.05,10236.46 11088.22,10235.45 11084.00,10237.56
             11084.00,10237.56 11074.00,10243.32 11074.00,10243.32
             11074.00,10243.32 11052.09,10251.71 11052.09,10251.71
             11052.09,10251.71 11045.91,10256.03 11045.91,10256.03
             11035.75,10262.57 11025.02,10269.39 11017.38,10279.00
             11013.13,10284.34 11013.12,10287.57 11011.32,10290.99
             11008.67,10296.01 11004.42,10297.45 11003.93,10302.29
             11003.93,10302.29 11002.95,10320.00 11002.95,10320.00
             11002.46,10329.88 10996.30,10329.18 10994.28,10336.00
             10994.28,10336.00 10989.68,10366.00 10989.68,10366.00
             10989.68,10366.00 10983.56,10383.00 10983.56,10383.00
             10983.59,10384.26 10983.88,10384.93 10984.52,10386.00
             10988.73,10393.02 11000.96,10400.02 11009.00,10401.53
             11009.00,10401.53 11018.00,10402.39 11018.00,10402.39
             11018.00,10402.39 11039.00,10409.32 11039.00,10409.32
             11039.00,10409.32 11051.00,10414.05 11051.00,10414.05
             11054.12,10415.73 11057.76,10418.74 11061.28,10419.07
             11064.99,10419.43 11066.93,10418.39 11071.00,10420.45
             11076.19,10423.09 11077.11,10426.59 11079.96,10431.00
             11081.88,10433.98 11090.65,10445.86 11093.02,10447.82
             11096.90,10451.03 11101.40,10450.13 11106.00,10451.93
             11110.82,10453.80 11121.59,10460.11 11126.00,10463.09
             11126.00,10463.09 11135.00,10469.65 11135.00,10469.65
             11139.98,10472.64 11146.84,10475.00 11149.99,10480.04
             11154.96,10487.96 11149.38,10502.36 11141.96,10506.99
             11139.20,10508.72 11137.11,10508.83 11133.91,10509.00
             11133.91,10509.00 11133.91,10522.42 11133.91,10522.42
             11133.85,10531.48 11134.89,10537.04 11126.98,10543.52
             11124.91,10545.22 11122.60,10546.72 11120.00,10547.43
             11117.99,10547.99 11115.10,10548.05 11113.00,10547.96
             11113.00,10547.96 11106.00,10547.00 11106.00,10547.00
             11105.99,10549.63 11106.11,10552.47 11105.35,10555.00
             11105.35,10555.00 11095.37,10573.91 11095.37,10573.91
             11095.37,10573.91 11089.46,10580.09 11089.46,10580.09
             11085.14,10585.03 11078.16,10597.09 11073.96,10600.05
             11069.68,10603.06 11054.10,10610.57 11049.00,10611.53
             11049.00,10611.53 11025.00,10613.30 11025.00,10613.30
             11019.94,10614.02 10999.19,10620.82 10994.00,10622.92
             10987.52,10625.55 10979.22,10631.61 10974.93,10637.09
             10974.93,10637.09 10970.38,10643.91 10970.38,10643.91
             10970.38,10643.91 10965.31,10650.09 10965.31,10650.09
             10962.78,10653.72 10954.27,10665.79 10950.96,10667.55
             10945.62,10670.38 10933.20,10671.10 10927.00,10672.22
             10922.33,10673.07 10918.40,10677.15 10913.00,10679.04
             10908.30,10680.68 10906.13,10679.27 10901.00,10681.28
             10901.00,10681.28 10877.00,10693.34 10877.00,10693.34
             10877.00,10693.34 10859.00,10706.83 10859.00,10706.83
             10859.00,10706.83 10845.00,10715.60 10845.00,10715.60
             10845.00,10715.60 10827.00,10729.62 10827.00,10729.62
             10827.00,10729.62 10820.29,10734.39 10820.29,10734.39
             10820.29,10734.39 10811.63,10744.83 10811.63,10744.83
             10811.63,10744.83 10803.27,10753.00 10803.27,10753.00
             10803.27,10753.00 10798.20,10761.00 10798.20,10761.00
             10798.20,10761.00 10790.39,10770.00 10790.39,10770.00
             10790.39,10770.00 10784.70,10779.00 10784.70,10779.00
             10784.70,10779.00 10778.93,10787.00 10778.93,10787.00
             10776.52,10790.96 10770.31,10805.30 10769.96,10809.72
             10769.56,10814.82 10773.05,10817.36 10774.70,10823.00
             10776.48,10829.11 10775.70,10832.25 10776.23,10838.00
             10776.43,10842.96 10777.79,10846.85 10776.23,10852.00
             10776.23,10852.00 10773.44,10860.00 10773.44,10860.00
             10770.74,10869.03 10770.77,10873.30 10765.01,10881.96
             10760.45,10888.81 10756.70,10886.20 10753.59,10897.00
             10753.01,10899.03 10752.48,10900.86 10752.71,10903.00
             10753.65,10911.59 10761.41,10919.24 10765.75,10926.00
             10772.43,10936.39 10770.57,10940.04 10772.70,10947.01
             10774.16,10951.81 10778.18,10961.64 10777.88,10966.00
             10777.56,10970.57 10775.55,10972.24 10774.49,10976.00
             10773.69,10978.83 10774.16,10980.81 10772.55,10983.96
             10772.55,10983.96 10767.41,10991.09 10767.41,10991.09
             10767.41,10991.09 10762.32,11001.00 10762.32,11001.00
             10762.32,11001.00 10750.17,11019.00 10750.17,11019.00
             10750.17,11019.00 10739.77,11038.00 10739.77,11038.00
             10739.77,11038.00 10735.54,11045.00 10735.54,11045.00
             10731.42,11053.46 10730.60,11056.86 10720.00,11057.01
             10720.00,11057.01 10708.00,11057.01 10708.00,11057.01
             10708.00,11057.01 10697.00,11057.01 10697.00,11057.01
             10697.00,11057.01 10684.00,11058.97 10684.00,11058.97
             10684.00,11058.97 10675.00,11057.97 10675.00,11057.97
             10675.00,11057.97 10650.00,11056.63 10650.00,11056.63
             10650.00,11056.63 10641.00,11057.96 10641.00,11057.96
             10624.69,11058.78 10624.60,11049.88 10617.41,11041.17
             10617.41,11041.17 10612.63,11035.91 10612.63,11035.91
             10603.64,11024.19 10591.35,11003.95 10590.00,10988.89
             10590.00,10988.89 10572.00,10988.89 10572.00,10988.89
             10572.00,10988.89 10562.00,10990.29 10562.00,10990.29
             10562.00,10990.29 10546.00,10990.29 10546.00,10990.29
             10540.61,10990.03 10531.60,10989.01 10527.00,10990.29
             10522.42,10991.75 10517.48,10996.73 10508.00,11000.32
             10508.00,11000.32 10487.00,11008.31 10487.00,11008.31
             10475.97,11013.29 10455.83,11027.63 10447.04,11036.09
             10442.78,11040.19 10440.29,11044.57 10436.64,11048.91
             10432.80,11053.49 10428.56,11057.79 10425.49,11063.00
             10425.49,11063.00 10415.22,11089.00 10415.22,11089.00
             10415.22,11089.00 10412.74,11098.00 10412.74,11098.00
             10410.34,11104.33 10406.84,11104.07 10404.75,11113.00
             10401.84,11125.47 10417.69,11134.42 10422.73,11144.00
             10422.73,11144.00 10428.55,11173.00 10428.55,11173.00
             10430.09,11178.63 10433.94,11180.83 10433.35,11185.00
             10432.96,11187.81 10427.19,11196.81 10425.67,11200.00
             10423.26,11205.07 10423.26,11208.95 10418.53,11215.76
             10415.81,11219.69 10399.73,11228.77 10395.00,11229.66
             10391.03,11230.41 10375.90,11227.71 10372.00,11226.17
             10372.00,11226.17 10362.00,11221.22 10362.00,11221.22
             10362.00,11221.22 10344.00,11214.76 10344.00,11214.76
             10344.00,11214.76 10327.00,11210.39 10327.00,11210.39
             10327.00,11210.39 10313.00,11202.97 10313.00,11202.97
             10313.00,11202.97 10300.00,11200.12 10300.00,11200.12
             10288.00,11196.95 10287.09,11195.07 10273.00,11194.95
             10273.00,11194.95 10249.00,11194.95 10249.00,11194.95
             10249.00,11194.95 10239.00,11193.09 10239.00,11193.09
             10231.54,11192.42 10223.23,11192.58 10216.00,11190.15
             10216.00,11190.15 10208.00,11186.18 10208.00,11186.18
             10204.29,11184.51 10200.43,11183.85 10197.13,11181.20
             10193.41,11178.22 10193.30,11174.69 10190.44,11171.09
             10190.44,11171.09 10184.56,11164.91 10184.56,11164.91
             10180.49,11159.32 10179.01,11151.73 10179.00,11145.00
             10179.00,11145.00 10177.01,11125.00 10177.01,11125.00
             10177.24,11115.07 10178.27,11109.89 10182.48,11101.00
             10185.79,11094.00 10183.63,11090.85 10191.21,11082.00
             10194.72,11077.90 10201.98,11070.98 10207.00,11069.00
             10207.00,11069.00 10223.00,11065.34 10223.00,11065.34
             10223.00,11065.34 10234.00,11061.70 10234.00,11061.70
             10238.17,11060.94 10239.71,11062.20 10244.00,11061.70
             10244.00,11061.70 10262.00,11059.34 10262.00,11059.34
             10262.00,11059.34 10269.00,11060.13 10269.00,11060.13
             10269.00,11060.13 10278.00,11060.13 10278.00,11060.13
             10278.00,11060.13 10278.00,11065.00 10278.00,11065.00
             10280.09,11061.31 10284.39,11059.62 10286.40,11064.23
             10287.83,11067.52 10285.32,11072.05 10285.44,11077.01
             10285.66,11085.65 10292.53,11087.71 10286.00,11097.00
             10295.14,11099.96 10297.53,11099.24 10305.00,11093.00
             10301.21,11089.97 10294.00,11080.95 10293.71,11076.00
             10293.59,11073.78 10294.92,11070.15 10295.67,11068.00
             10296.72,11065.01 10297.74,11061.95 10301.05,11060.83
             10304.96,11059.51 10314.17,11062.53 10318.00,11064.00
             10319.43,11056.46 10322.05,11052.47 10330.00,11052.00
             10330.98,11045.09 10334.39,11036.28 10340.04,11031.93
             10340.04,11031.93 10354.00,11024.41 10354.00,11024.41
             10354.00,11024.41 10376.00,11007.42 10376.00,11007.42
             10386.75,10999.49 10395.28,10989.15 10405.00,10980.09
             10405.00,10980.09 10411.91,10973.92 10411.91,10973.92
             10411.91,10973.92 10423.17,10962.32 10423.17,10962.32
             10423.17,10962.32 10432.00,10954.96 10432.00,10954.96
             10436.79,10950.38 10450.81,10932.67 10454.23,10927.00
             10454.23,10927.00 10457.63,10921.17 10457.63,10921.17
             10457.63,10921.17 10462.04,10915.91 10462.04,10915.91
             10462.04,10915.91 10467.65,10905.00 10467.65,10905.00
             10467.65,10905.00 10472.70,10899.00 10472.70,10899.00
             10475.50,10895.35 10475.42,10893.02 10477.65,10890.09
             10481.37,10885.20 10486.25,10884.27 10492.00,10884.00
             10493.63,10875.82 10493.97,10868.11 10503.00,10865.00
             10501.47,10857.35 10504.96,10856.30 10505.52,10852.42
             10505.52,10852.42 10501.83,10839.02 10501.83,10839.02
             10497.05,10829.91 10488.49,10836.34 10481.65,10826.96
             10478.74,10822.96 10479.57,10820.98 10478.59,10817.00
             10478.59,10817.00 10475.53,10808.00 10475.53,10808.00
             10475.53,10808.00 10475.53,10800.00 10475.53,10800.00
             10474.63,10792.39 10469.95,10774.55 10470.52,10767.00
             10471.39,10755.37 10480.71,10749.27 10484.69,10740.00
             10486.04,10736.84 10485.24,10735.19 10485.77,10732.00
             10486.51,10727.47 10489.26,10721.63 10492.04,10718.01
             10499.03,10708.93 10502.06,10712.97 10507.00,10703.76
             10507.00,10703.76 10480.00,10703.76 10480.00,10703.76
             10480.00,10703.76 10469.00,10704.44 10469.00,10704.44
             10469.00,10704.44 10462.00,10704.44 10462.00,10704.44
             10462.00,10704.44 10449.00,10706.96 10449.00,10706.96
             10443.57,10707.15 10436.28,10705.68 10432.39,10701.66
             10422.85,10691.82 10429.21,10681.39 10429.56,10676.00
             10429.81,10672.15 10426.92,10669.28 10427.56,10664.00
             10428.47,10656.41 10435.39,10650.78 10443.00,10651.55
             10443.00,10651.55 10449.00,10652.94 10449.00,10652.94
             10449.00,10652.94 10456.00,10652.94 10456.00,10652.94
             10456.00,10652.94 10471.00,10654.75 10471.00,10654.75
             10471.00,10654.75 10480.00,10653.61 10480.00,10653.61
             10480.00,10653.61 10488.00,10654.39 10488.00,10654.39
             10488.00,10654.39 10496.00,10654.39 10496.00,10654.39
             10496.00,10654.39 10517.00,10656.49 10517.00,10656.49
             10528.29,10655.78 10525.64,10657.08 10533.00,10657.20
             10533.00,10657.20 10542.00,10656.15 10542.00,10656.15
             10542.00,10656.15 10551.00,10656.15 10551.00,10656.15
             10551.00,10656.15 10561.00,10654.83 10561.00,10654.83
             10561.00,10654.83 10572.00,10654.83 10572.00,10654.83
             10572.00,10654.83 10582.00,10654.04 10582.00,10654.04
             10582.00,10654.04 10601.00,10654.62 10601.00,10654.62
             10601.00,10654.62 10608.00,10654.62 10608.00,10654.62
             10608.00,10654.62 10630.00,10654.62 10630.00,10654.62
             10630.00,10654.62 10645.00,10656.44 10645.00,10656.44
             10653.69,10657.81 10652.40,10659.10 10663.00,10659.08
             10663.00,10659.08 10675.00,10659.08 10675.00,10659.08
             10679.85,10658.97 10692.59,10657.62 10697.00,10656.42
             10697.00,10656.42 10708.00,10652.61 10708.00,10652.61
             10708.00,10652.61 10723.00,10650.38 10723.00,10650.38
             10732.72,10647.50 10741.98,10642.62 10751.00,10638.08
             10757.30,10634.92 10763.21,10632.69 10769.00,10628.39
             10769.00,10628.39 10782.79,10616.82 10782.79,10616.82
             10786.24,10613.27 10799.86,10591.82 10802.09,10587.00
             10802.09,10587.00 10807.14,10571.00 10807.14,10571.00
             10808.45,10568.02 10811.27,10561.53 10812.96,10559.09
             10812.96,10559.09 10819.06,10551.96 10819.06,10551.96
             10820.82,10548.82 10819.85,10545.97 10821.96,10541.00
             10821.96,10541.00 10825.08,10535.00 10825.08,10535.00
             10826.76,10530.97 10825.37,10529.73 10829.22,10524.00
             10831.42,10520.74 10835.74,10517.20 10834.89,10513.00
             10834.89,10513.00 10827.35,10498.00 10827.35,10498.00
             10825.53,10493.50 10825.86,10488.57 10823.58,10484.01
             10821.42,10479.68 10816.40,10477.08 10812.96,10471.00
             10812.96,10471.00 10807.61,10456.00 10807.61,10456.00
             10807.61,10456.00 10804.47,10449.00 10804.47,10449.00
             10804.47,10449.00 10799.21,10430.00 10799.21,10430.00
             10799.21,10430.00 10799.21,10424.00 10799.21,10424.00
             10799.21,10424.00 10800.54,10402.00 10800.54,10402.00
             10800.34,10398.07 10797.83,10391.23 10798.10,10385.00
             10798.10,10385.00 10800.68,10365.00 10800.68,10365.00
             10800.68,10365.00 10804.03,10349.58 10804.03,10349.58
             10804.98,10340.35 10800.46,10332.86 10805.26,10320.00
             10807.40,10314.28 10811.05,10313.25 10812.98,10309.83
             10814.77,10306.66 10813.48,10301.98 10819.10,10297.85
             10825.36,10293.26 10837.42,10296.52 10837.13,10283.00
             10837.06,10280.01 10838.01,10268.45 10839.01,10266.00
             10840.65,10261.97 10843.58,10260.43 10844.20,10257.83
             10844.61,10256.10 10843.34,10252.07 10843.09,10250.00
             10842.28,10245.29 10842.41,10241.70 10843.09,10237.00
             10844.47,10229.01 10848.67,10230.21 10850.00,10222.00
             10850.00,10222.00 10836.00,10222.92 10836.00,10222.92
             10836.00,10222.92 10828.00,10221.83 10828.00,10221.83
             10828.00,10221.83 10815.00,10221.83 10815.00,10221.83
             10815.00,10221.83 10781.00,10219.31 10781.00,10219.31
             10777.91,10219.48 10772.61,10219.49 10770.04,10220.95
             10765.51,10223.52 10763.68,10229.85 10755.00,10229.92
             10751.34,10229.95 10748.02,10228.80 10745.21,10226.45
             10742.46,10224.15 10741.91,10221.70 10737.96,10221.16
             10737.96,10221.16 10724.00,10222.00 10724.00,10222.00
             10724.00,10222.00 10709.00,10222.00 10709.00,10222.00
             10709.00,10222.00 10693.00,10221.01 10693.00,10221.01
             10693.00,10221.01 10685.00,10221.53 10685.00,10221.53
             10685.00,10221.53 10676.00,10220.07 10676.00,10220.07
             10670.12,10219.47 10658.43,10216.77 10654.85,10211.90
             10650.15,10205.50 10652.92,10199.18 10652.86,10196.58
             10652.86,10196.58 10651.55,10190.00 10651.55,10190.00
             10650.59,10181.19 10656.99,10175.92 10665.00,10174.46
             10671.81,10173.22 10679.18,10174.74 10686.00,10175.13
             10686.00,10175.13 10695.00,10174.28 10695.00,10174.28
             10695.00,10174.28 10710.00,10174.28 10710.00,10174.28
             10710.00,10174.28 10728.00,10175.96 10728.00,10175.96
             10728.00,10175.96 10741.00,10175.34 10741.00,10175.34
             10741.00,10175.34 10752.00,10176.46 10752.00,10176.46
             10752.00,10176.46 10766.00,10176.46 10766.00,10176.46
             10766.00,10176.46 10784.00,10177.00 10784.00,10177.00
             10784.00,10177.00 10800.00,10176.20 10800.00,10176.20
             10800.00,10176.20 10810.00,10176.20 10810.00,10176.20
             10810.00,10176.20 10816.00,10175.35 10816.00,10175.35
             10816.00,10175.35 10827.00,10174.34 10827.00,10174.34
             10827.00,10174.34 10833.42,10175.21 10833.42,10175.21
             10833.42,10175.21 10841.00,10175.21 10841.00,10175.21
             10855.80,10176.99 10874.67,10173.57 10878.14,10193.00
             10878.84,10196.00 10878.23,10199.00 10878.14,10202.00
             10878.14,10202.00 10890.00,10193.96 10890.00,10193.96
             10890.00,10193.96 10897.00,10190.74 10897.00,10190.74
             10897.00,10190.74 10928.00,10170.41 10928.00,10170.41
             10928.00,10170.41 10940.18,10158.47 10940.18,10158.47
             10940.18,10158.47 10949.91,10151.48 10949.91,10151.48
             10949.91,10151.48 10962.17,10139.38 10962.17,10139.38
             10962.17,10139.38 10969.00,10134.47 10969.00,10134.47
             10969.00,10134.47 10978.00,10126.46 10978.00,10126.46
             10978.00,10126.46 10986.91,10119.54 10986.91,10119.54
             10986.91,10119.54 10994.44,10111.17 10994.44,10111.17
             10994.44,10111.17 11002.90,10103.00 11002.90,10103.00
             11002.90,10103.00 11015.15,10087.00 11015.15,10087.00
             11015.15,10087.00 11019.61,10079.00 11019.61,10079.00
             11019.61,10079.00 11031.99,10061.00 11031.99,10061.00
             11031.99,10061.00 11033.68,10053.00 11033.68,10053.00
             11033.68,10053.00 11040.09,10035.00 11040.09,10035.00
             11040.09,10035.00 11051.01,10016.00 11051.01,10016.00
             11051.01,10016.00 11056.17,10001.00 11056.17,10001.00
             11056.17,10001.00 11061.64,9992.00 11061.64,9992.00
             11061.64,9992.00 11070.61,9972.00 11070.61,9972.00
             11070.61,9972.00 11086.00,9955.86 11086.00,9955.86
             11086.00,9955.86 11061.00,9955.86 11061.00,9955.86
             11061.00,9955.86 11052.00,9954.18 11052.00,9954.18
             11047.27,9953.62 11043.34,9954.72 11039.21,9951.35
             11036.08,9948.80 11035.90,9946.30 11034.37,9943.00
             11032.54,9939.06 11029.63,9936.60 11029.23,9932.00
             11028.86,9927.85 11030.62,9925.64 11031.54,9922.00
             11032.93,9916.46 11032.14,9912.73 11038.04,9909.01
             11043.43,9905.60 11050.65,9908.13 11057.00,9907.99
             11057.00,9907.99 11069.00,9906.29 11069.00,9906.29
             11069.00,9906.29 11086.00,9905.00 11086.00,9905.00
             11086.00,9905.00 11116.00,9908.11 11116.00,9908.11
             11116.00,9908.11 11129.00,9908.11 11129.00,9908.11
             11129.00,9908.11 11146.00,9909.17 11146.00,9909.17
             11153.25,9909.87 11165.75,9912.50 11173.00,9911.94
             11177.65,9911.59 11187.06,9906.02 11192.00,9904.12
             11196.79,9902.27 11209.73,9901.25 11215.00,9901.35
             11215.00,9901.35 11244.00,9904.37 11244.00,9904.37
             11244.00,9904.37 11252.00,9906.75 11252.00,9906.75
             11260.43,9909.65 11261.34,9913.86 11266.00,9914.51
             11271.89,9915.35 11279.67,9910.96 11285.00,9909.26
             11285.00,9909.26 11294.00,9907.67 11294.00,9907.67
             11296.53,9906.92 11311.88,9899.85 11314.00,9898.37
             11314.00,9898.37 11324.00,9890.85 11324.00,9890.85
             11324.00,9890.85 11333.00,9886.00 11333.00,9886.00
             11340.43,9881.29 11354.97,9870.23 11360.68,9863.91
             11360.68,9863.91 11370.37,9852.38 11370.37,9852.38
             11370.37,9852.38 11377.26,9847.51 11377.26,9847.51
             11379.37,9845.03 11378.78,9841.72 11380.57,9838.00
             11384.10,9830.65 11388.76,9830.02 11396.00,9830.00
             11389.82,9813.52 11400.20,9812.78 11407.42,9801.00
             11409.80,9797.11 11407.94,9796.46 11412.00,9789.00
             11412.00,9789.00 11397.00,9789.00 11397.00,9789.00
             11397.00,9789.00 11380.00,9787.74 11380.00,9787.74
             11373.59,9787.98 11360.55,9788.58 11355.01,9786.03
             11343.58,9780.78 11342.76,9763.43 11348.65,9756.21
             11351.45,9752.78 11362.58,9748.97 11366.99,9749.22
             11371.41,9749.47 11377.80,9751.68 11381.69,9748.40
             11384.29,9746.21 11384.92,9738.30 11384.68,9735.00
             11384.68,9735.00 11383.99,9722.00 11383.99,9722.00
             11383.20,9717.83 11381.38,9715.70 11382.56,9711.00
             11383.59,9706.88 11387.69,9702.08 11391.09,9699.63
             11391.09,9699.63 11418.00,9688.00 11418.00,9688.00
             11418.00,9688.00 11406.39,9657.00 11406.39,9657.00
             11406.39,9657.00 11405.74,9647.00 11405.74,9647.00
             11405.74,9647.00 11403.54,9640.00 11403.54,9640.00
             11403.54,9640.00 11402.28,9635.05 11402.28,9635.05
             11400.39,9630.76 11395.65,9630.06 11392.02,9627.73
             11387.06,9624.56 11385.61,9621.68 11385.00,9616.00
             11376.84,9617.46 11368.10,9616.20 11367.11,9606.00
             11366.36,9598.33 11370.12,9596.55 11374.61,9591.58
             11374.61,9591.58 11380.21,9584.39 11380.21,9584.39
             11382.99,9581.86 11385.51,9581.60 11387.83,9580.08
             11387.83,9580.08 11397.61,9571.49 11397.61,9571.49
             11403.40,9565.60 11404.09,9559.29 11406.05,9552.00
             11407.38,9547.06 11409.69,9545.16 11410.64,9542.00
             11410.64,9542.00 11410.64,9530.00 11410.64,9530.00
             11411.21,9524.07 11406.40,9511.30 11419.00,9508.20
             11420.87,9507.96 11423.08,9508.02 11425.00,9508.20
             11425.30,9504.71 11425.67,9501.87 11427.70,9499.10
             11432.94,9491.93 11449.64,9488.15 11458.00,9490.00
             11461.84,9478.74 11474.26,9476.68 11480.26,9486.02
             11482.15,9488.96 11481.97,9491.68 11482.00,9495.00
             11497.04,9495.00 11503.09,9495.41 11514.82,9505.74
             11521.38,9511.53 11521.57,9518.52 11523.16,9520.65
             11524.96,9523.05 11527.45,9522.11 11530.00,9522.13
             11534.86,9522.15 11537.95,9524.67 11542.94,9522.73
             11548.18,9520.70 11546.05,9517.43 11549.23,9512.00
             11551.48,9508.14 11558.09,9502.26 11562.00,9500.13
             11562.00,9500.13 11579.00,9494.33 11579.00,9494.33
             11579.00,9494.33 11591.00,9488.96 11591.00,9488.96
             11591.00,9488.96 11597.00,9485.63 11597.00,9485.63
             11597.00,9485.63 11604.00,9483.46 11604.00,9483.46
             11604.00,9483.46 11624.00,9474.87 11624.00,9474.87
             11624.00,9474.87 11643.00,9461.57 11643.00,9461.57
             11643.00,9461.57 11662.00,9447.52 11662.00,9447.52
             11662.00,9447.52 11670.96,9441.07 11670.96,9441.07
             11670.96,9441.07 11678.09,9434.62 11678.09,9434.62
             11680.58,9432.73 11682.23,9432.25 11684.83,9429.79
             11684.83,9429.79 11698.07,9414.96 11698.07,9414.96
             11705.63,9406.04 11706.79,9398.30 11720.00,9398.00
             11718.26,9390.86 11718.90,9384.07 11723.49,9378.04
             11726.82,9373.67 11730.11,9373.09 11733.09,9367.00
             11737.02,9358.95 11737.21,9350.73 11743.00,9344.00
             11737.76,9338.68 11738.57,9334.49 11741.00,9328.00
             11735.86,9328.00 11729.42,9328.78 11725.21,9325.35
             11720.70,9321.68 11720.78,9315.87 11718.48,9311.00
             11718.48,9311.00 11713.09,9298.00 11713.09,9298.00
             11706.59,9283.91 11703.32,9285.13 11706.21,9268.00
             11706.93,9263.69 11713.14,9253.62 11715.31,9249.00
             11718.30,9242.63 11717.48,9240.24 11719.00,9233.95
             11719.00,9233.95 11692.00,9233.95 11692.00,9233.95
             11692.00,9233.95 11663.00,9231.51 11663.00,9231.51
             11654.87,9232.03 11647.76,9232.33 11640.00,9229.13
             11626.18,9223.42 11626.34,9205.82 11638.00,9198.11
             11643.22,9194.66 11650.82,9194.05 11657.01,9193.54
             11660.69,9193.23 11661.71,9194.11 11664.42,9194.10
             11664.42,9194.10 11671.00,9193.19 11671.00,9193.19
             11677.80,9192.65 11681.60,9196.10 11689.00,9195.00 Z" />
</svg>
