<?xml version="1.0" encoding="UTF-8" standalone="no"?>
<!DOCTYPE svg PUBLIC "-//W3C//DTD SVG 20010904//EN"
              "http://www.w3.org/TR/2001/REC-SVG-20010904/DTD/svg10.dtd">

<svg xmlns="http://www.w3.org/2000/svg"
     width="7314.29mm" height="7314.29mm"
     viewBox="0 0 20480 20480">
  <path id="Aurix"
        fill="none" stroke="black" stroke-width="1"
        d="M 2784.00,2838.00
           C 2786.73,2830.45 2793.16,2831.03 2800.00,2828.47
             2802.98,2827.35 2805.80,2825.64 2809.00,2825.17
             2809.00,2825.17 2815.83,2825.17 2815.83,2825.17
             2817.60,2824.63 2823.03,2819.67 2824.91,2818.14
             2824.91,2818.14 2832.30,2810.70 2832.30,2810.70
             2832.30,2810.70 2843.00,2805.45 2843.00,2805.45
             2843.00,2805.45 2856.00,2795.97 2856.00,2795.97
             2856.00,2795.97 2865.94,2789.65 2865.94,2789.65
             2871.86,2785.20 2868.57,2783.36 2872.31,2779.22
             2876.58,2774.52 2886.94,2773.01 2893.00,2773.00
             2893.00,2773.00 2922.00,2773.00 2922.00,2773.00
             2922.00,2773.00 2935.00,2773.96 2935.00,2773.96
             2935.00,2773.96 2956.00,2774.84 2956.00,2774.84
             2960.44,2775.31 2975.84,2776.68 2978.83,2778.74
             2984.00,2782.29 2985.95,2788.37 2987.83,2794.00
             2990.25,2801.21 2996.08,2816.54 2997.00,2823.00
             3005.54,2823.91 3009.72,2828.91 3013.85,2836.00
             3020.07,2846.70 3023.96,2865.93 3020.38,2878.00
             3016.80,2890.08 3011.56,2894.38 3007.63,2904.00
             3003.77,2913.43 3004.89,2911.97 2999.02,2921.00
             2997.68,2923.06 2996.05,2925.16 2997.71,2927.59
             2997.71,2927.59 3014.00,2937.87 3014.00,2937.87
             3014.00,2937.87 3023.00,2943.32 3023.00,2943.32
             3023.00,2943.32 3031.00,2946.17 3031.00,2946.17
             3031.00,2946.17 3044.00,2952.12 3044.00,2952.12
             3044.00,2952.12 3057.00,2958.80 3057.00,2958.80
             3060.14,2960.61 3061.23,2962.05 3065.00,2963.70
             3074.77,2967.97 3075.05,2964.99 3085.28,2973.59
             3090.34,2977.84 3091.35,2978.09 3092.00,2985.00
             3104.82,2987.75 3106.59,3006.68 3109.63,3017.00
             3109.63,3017.00 3114.00,3028.00 3114.00,3028.00
             3114.00,3028.00 3129.00,3025.62 3129.00,3025.62
             3135.21,3024.03 3152.24,3016.82 3158.00,3013.65
             3174.92,3004.35 3175.22,2999.33 3181.09,2994.61
             3193.14,2984.90 3205.80,2979.30 3219.00,2971.86
             3230.42,2965.42 3227.59,2963.41 3235.00,2958.11
             3240.97,2953.84 3255.65,2949.85 3263.00,2950.01
             3267.58,2950.12 3274.27,2950.87 3277.61,2954.28
             3280.16,2956.88 3280.54,2960.15 3283.27,2961.65
             3287.45,2963.94 3296.97,2958.78 3299.79,2968.02
             3300.02,2969.62 3299.96,2971.35 3299.79,2973.00
             3314.37,2973.70 3317.58,2979.92 3327.17,2988.74
             3327.17,2988.74 3339.50,2999.26 3339.50,2999.26
             3342.82,3003.35 3342.00,3012.84 3350.02,3016.11
             3350.02,3016.11 3367.00,3019.73 3367.00,3019.73
             3367.00,3019.73 3375.00,3024.31 3375.00,3024.31
             3375.00,3024.31 3395.00,3031.09 3395.00,3031.09
             3395.00,3031.09 3415.00,3036.12 3415.00,3036.12
             3418.47,3037.77 3423.02,3039.89 3425.91,3042.32
             3429.97,3045.74 3434.47,3051.45 3439.00,3054.07
             3439.00,3054.07 3450.00,3058.27 3450.00,3058.27
             3450.00,3058.27 3458.00,3063.66 3458.00,3063.66
             3461.67,3065.12 3464.92,3062.83 3468.94,3065.60
             3474.04,3069.11 3471.85,3073.96 3480.00,3077.72
             3485.03,3080.04 3486.87,3077.31 3492.00,3078.86
             3497.31,3080.47 3501.13,3084.80 3506.00,3087.24
             3514.52,3091.52 3535.15,3098.78 3540.49,3105.21
             3545.79,3111.59 3543.68,3126.57 3546.60,3130.96
             3549.90,3135.93 3555.60,3137.02 3558.50,3140.27
             3562.56,3144.81 3563.95,3157.93 3564.00,3164.00
             3581.72,3160.66 3584.06,3155.98 3598.00,3151.33
             3598.00,3151.33 3618.72,3146.06 3618.72,3146.06
             3618.72,3146.06 3628.55,3138.74 3628.55,3138.74
             3628.55,3138.74 3633.13,3133.21 3633.13,3133.21
             3633.13,3133.21 3640.72,3127.61 3640.72,3127.61
             3640.72,3127.61 3647.01,3121.00 3647.01,3121.00
             3647.01,3121.00 3653.89,3114.58 3653.89,3114.58
             3659.76,3108.52 3651.05,3103.48 3659.13,3097.74
             3662.62,3095.26 3666.20,3096.47 3670.00,3095.83
             3674.64,3095.05 3678.66,3092.16 3682.00,3091.48
             3686.31,3090.46 3688.95,3092.31 3691.98,3091.48
             3700.09,3089.50 3700.12,3075.65 3711.00,3077.24
             3717.16,3078.14 3730.81,3091.80 3738.00,3095.49
             3738.00,3095.49 3773.99,3110.39 3773.99,3110.39
             3778.21,3112.60 3779.10,3115.38 3782.09,3116.98
             3785.52,3118.82 3796.40,3116.80 3796.63,3127.00
             3796.66,3128.46 3796.31,3129.61 3796.00,3131.00
             3803.50,3131.44 3801.81,3132.58 3807.17,3136.18
             3807.17,3136.18 3812.79,3139.50 3812.79,3139.50
             3815.59,3141.78 3815.19,3142.95 3819.10,3145.18
             3821.25,3146.41 3824.53,3148.03 3827.00,3148.08
             3830.35,3148.31 3835.47,3145.77 3840.00,3148.08
             3844.47,3150.25 3847.43,3155.07 3850.71,3158.63
             3850.71,3158.63 3861.00,3167.40 3861.00,3167.40
             3870.80,3174.58 3874.35,3164.61 3880.40,3173.11
             3882.46,3175.99 3882.49,3183.24 3883.33,3187.00
             3884.32,3191.47 3886.24,3192.92 3887.45,3197.00
             3890.92,3208.74 3889.60,3222.91 3904.99,3225.11
             3909.12,3225.70 3911.38,3221.66 3914.04,3219.09
             3914.04,3219.09 3929.44,3204.58 3929.44,3204.58
             3932.19,3201.08 3932.23,3195.08 3939.00,3194.27
             3945.08,3193.54 3946.91,3197.95 3949.95,3201.79
             3954.85,3208.00 3957.96,3205.58 3958.00,3220.00
             3967.60,3220.09 3975.32,3220.46 3976.00,3232.00
             3990.26,3227.99 3989.00,3239.33 3989.00,3249.00
             3998.62,3246.67 3998.34,3248.72 4004.37,3254.55
             4006.09,3256.22 4007.78,3257.06 4009.28,3259.13
             4011.28,3261.90 4016.28,3276.05 4017.58,3280.00
             4018.47,3282.74 4019.05,3289.95 4020.60,3291.23
             4025.26,3295.09 4030.62,3286.51 4033.13,3284.85
             4036.20,3282.83 4038.66,3283.26 4042.00,3284.00
             4040.69,3278.42 4042.65,3273.21 4049.00,3272.43
             4052.12,3272.05 4054.31,3273.49 4057.00,3273.74
             4057.00,3273.74 4065.00,3273.00 4065.00,3273.00
             4065.18,3267.82 4066.30,3263.92 4072.00,3262.45
             4074.69,3261.76 4077.13,3262.67 4079.79,3261.06
             4085.11,3257.83 4081.80,3254.12 4094.00,3254.00
             4094.74,3241.38 4102.25,3246.04 4107.41,3240.36
             4109.91,3237.60 4108.60,3233.07 4114.04,3230.32
             4118.72,3227.95 4120.23,3231.16 4124.17,3228.54
             4128.45,3225.69 4130.86,3222.26 4137.00,3219.23
             4137.00,3219.23 4149.61,3214.41 4149.61,3214.41
             4153.57,3211.15 4153.21,3204.24 4160.00,3202.61
             4166.23,3201.11 4168.87,3206.05 4171.45,3208.32
             4171.45,3208.32 4179.28,3214.20 4179.28,3214.20
             4183.85,3217.35 4189.10,3217.58 4194.00,3220.36
             4196.69,3221.89 4199.63,3224.40 4202.00,3226.43
             4212.23,3235.18 4212.99,3239.03 4213.00,3252.00
             4218.77,3247.93 4226.61,3247.69 4228.53,3256.00
             4229.34,3259.50 4226.96,3267.95 4227.00,3270.42
             4227.10,3275.92 4230.72,3279.62 4232.86,3284.00
             4235.06,3288.52 4234.29,3296.33 4241.02,3296.68
             4241.02,3296.68 4246.00,3296.00 4246.00,3296.00
             4243.74,3291.03 4243.94,3290.00 4246.00,3285.00
             4250.67,3286.13 4261.99,3286.09 4266.17,3284.00
             4270.32,3281.93 4273.25,3278.37 4276.00,3277.02
             4279.37,3275.36 4282.21,3276.59 4284.91,3275.56
             4290.12,3273.57 4289.77,3268.13 4300.00,3271.00
             4304.39,3261.72 4311.15,3259.44 4317.83,3253.61
             4317.83,3253.61 4330.00,3241.38 4330.00,3241.38
             4333.31,3238.73 4351.97,3228.43 4356.00,3226.84
             4356.00,3226.84 4366.00,3224.00 4366.00,3224.00
             4362.18,3206.67 4383.02,3211.14 4393.00,3212.57
             4393.00,3212.57 4401.99,3213.60 4401.99,3213.60
             4405.58,3214.95 4406.66,3217.93 4410.09,3219.44
             4414.62,3221.43 4425.77,3220.28 4423.00,3233.05
             4425.18,3233.01 4432.76,3233.94 4434.06,3233.05
             4436.28,3231.65 4437.51,3226.52 4438.38,3224.00
             4440.65,3217.39 4441.93,3207.98 4441.36,3201.00
             4441.32,3198.31 4440.74,3195.72 4441.36,3193.00
             4442.34,3186.77 4446.73,3187.37 4447.33,3181.83
             4447.24,3179.38 4446.82,3177.59 4447.33,3175.00
             4450.52,3164.84 4460.66,3169.58 4462.42,3169.69
             4464.35,3169.81 4467.10,3168.83 4469.00,3168.30
             4480.28,3165.14 4484.03,3166.24 4495.00,3166.55
             4495.00,3166.55 4508.00,3167.15 4508.00,3167.15
             4515.68,3168.08 4516.39,3168.99 4525.00,3169.08
             4525.00,3169.08 4542.00,3169.08 4542.00,3169.08
             4542.00,3169.08 4548.00,3169.08 4548.00,3169.08
             4560.20,3171.47 4551.68,3183.93 4553.56,3188.99
             4555.19,3193.35 4560.40,3195.22 4562.83,3200.00
             4564.97,3204.25 4563.57,3209.48 4563.78,3214.00
             4563.78,3214.00 4563.78,3222.00 4563.78,3222.00
             4574.03,3222.03 4578.31,3225.70 4586.00,3232.00
             4590.23,3228.05 4593.85,3228.46 4599.00,3226.28
             4607.99,3222.48 4616.43,3218.04 4626.00,3215.75
             4626.00,3215.75 4636.79,3214.40 4636.79,3214.40
             4642.97,3211.74 4640.65,3203.22 4651.00,3201.00
             4651.40,3187.91 4656.25,3184.96 4666.00,3177.72
             4668.39,3175.94 4672.58,3172.30 4675.00,3171.17
             4678.41,3169.57 4684.19,3170.13 4687.83,3168.00
             4690.81,3166.25 4693.56,3161.46 4700.00,3157.32
             4700.00,3157.32 4740.78,3141.78 4740.78,3141.78
             4745.30,3138.74 4745.16,3132.36 4750.11,3128.70
             4755.78,3124.50 4762.32,3127.14 4765.58,3124.98
             4768.09,3123.32 4768.13,3120.07 4770.51,3117.21
             4771.93,3115.49 4782.75,3107.34 4785.00,3105.99
             4787.78,3104.32 4802.29,3099.70 4806.00,3098.76
             4806.00,3098.76 4812.90,3097.41 4812.90,3097.41
             4816.53,3095.89 4816.90,3092.49 4821.04,3090.31
             4821.04,3090.31 4843.00,3083.46 4843.00,3083.46
             4843.00,3083.46 4851.00,3082.28 4851.00,3082.28
             4854.58,3081.27 4861.20,3076.83 4863.44,3073.90
             4865.60,3071.08 4865.74,3067.99 4869.11,3065.60
             4871.75,3063.73 4874.94,3064.01 4878.00,3064.00
             4876.44,3058.49 4876.70,3053.06 4883.00,3050.77
             4885.53,3049.85 4888.67,3050.76 4890.23,3048.60
             4891.69,3046.35 4889.42,3042.81 4890.23,3039.00
             4892.44,3030.07 4902.58,3032.12 4909.00,3034.00
             4909.71,3032.02 4910.35,3029.89 4911.70,3028.23
             4916.95,3021.78 4926.80,3027.71 4935.00,3024.52
             4943.67,3021.14 4942.25,3015.82 4949.00,3015.19
             4957.63,3014.39 4957.05,3023.25 4963.10,3026.01
             4966.05,3027.35 4969.86,3027.78 4973.00,3028.45
             4973.00,3028.45 4982.00,3031.23 4982.00,3031.23
             4993.10,3034.54 5000.62,3036.38 5005.92,3048.00
             5007.71,3051.92 5007.92,3052.70 5008.00,3057.00
             5008.00,3057.00 5008.00,3069.00 5008.00,3069.00
             5018.00,3070.16 5016.59,3075.99 5018.09,3084.00
             5019.37,3090.80 5021.04,3092.80 5019.00,3100.00
             5032.83,3102.44 5032.60,3096.22 5040.00,3093.59
             5042.31,3092.78 5046.45,3093.03 5049.00,3093.00
             5065.29,3092.80 5069.84,3085.54 5077.00,3082.87
             5082.88,3080.68 5090.11,3080.47 5094.82,3075.86
             5102.76,3068.09 5105.16,3057.41 5119.00,3045.11
             5127.10,3037.90 5129.57,3043.08 5135.00,3040.74
             5139.99,3038.58 5143.31,3031.90 5148.04,3029.28
             5153.97,3025.99 5169.84,3027.18 5176.00,3023.42
             5176.00,3023.42 5193.00,3009.16 5193.00,3009.16
             5198.83,3004.96 5203.02,3004.71 5206.74,3000.81
             5206.74,3000.81 5212.34,2993.00 5212.34,2993.00
             5216.35,2988.07 5219.33,2986.42 5223.72,2982.55
             5226.15,2980.39 5227.82,2977.78 5231.00,2976.60
             5232.92,2975.89 5235.93,2976.00 5238.00,2976.00
             5238.00,2976.00 5257.00,2976.00 5257.00,2976.00
             5257.00,2976.00 5273.00,2975.00 5273.00,2975.00
             5273.00,2975.00 5301.00,2977.82 5301.00,2977.82
             5306.84,2978.23 5319.75,2974.60 5323.35,2969.90
             5323.35,2969.90 5334.00,2943.00 5334.00,2943.00
             5334.00,2943.00 5339.07,2932.00 5339.07,2932.00
             5339.07,2932.00 5344.35,2924.00 5344.35,2924.00
             5346.52,2919.12 5345.18,2914.72 5348.43,2911.43
             5352.74,2907.05 5360.70,2908.00 5366.00,2906.01
             5366.00,2906.01 5374.00,2902.38 5374.00,2902.38
             5374.00,2902.38 5385.00,2900.11 5385.00,2900.11
             5385.00,2900.11 5410.00,2890.68 5410.00,2890.68
             5415.00,2889.20 5419.94,2890.98 5424.96,2888.43
             5430.30,2885.72 5430.67,2879.92 5433.05,2875.02
             5435.43,2870.12 5436.97,2870.56 5439.04,2867.63
             5440.18,2866.01 5440.41,2864.33 5442.31,2862.10
             5446.09,2857.67 5454.28,2854.65 5456.69,2852.37
             5460.19,2849.04 5458.29,2845.02 5462.28,2841.51
             5466.49,2837.80 5470.00,2840.59 5475.00,2837.97
             5475.00,2837.97 5484.00,2832.33 5484.00,2832.33
             5484.00,2832.33 5501.00,2824.94 5501.00,2824.94
             5504.67,2822.85 5507.96,2819.14 5512.00,2818.30
             5516.39,2817.39 5527.94,2822.71 5532.00,2825.01
             5534.96,2826.68 5536.72,2828.35 5540.00,2829.58
             5545.29,2831.57 5554.91,2832.53 5558.77,2836.28
             5563.53,2840.89 5561.46,2847.15 5565.43,2849.99
             5565.43,2849.99 5572.00,2852.44 5572.00,2852.44
             5572.00,2852.44 5586.83,2861.48 5586.83,2861.48
             5586.83,2861.48 5599.45,2874.16 5599.45,2874.16
             5599.45,2874.16 5605.83,2877.69 5605.83,2877.69
             5608.29,2879.47 5609.61,2881.70 5612.85,2883.23
             5616.53,2884.98 5617.73,2883.16 5623.00,2885.52
             5623.00,2885.52 5644.00,2897.19 5644.00,2897.19
             5648.40,2898.75 5651.60,2897.18 5656.00,2899.09
             5661.36,2901.40 5663.44,2905.79 5667.09,2907.69
             5670.48,2909.45 5673.93,2908.51 5676.89,2910.17
             5680.49,2912.20 5681.23,2916.43 5682.53,2920.00
             5683.98,2923.94 5686.44,2928.59 5688.90,2931.98
             5694.07,2939.10 5697.34,2935.64 5701.72,2939.51
             5704.49,2941.95 5704.69,2944.59 5704.56,2948.00
             5704.25,2955.84 5711.76,2961.60 5714.32,2969.00
             5716.32,2974.79 5717.18,2990.81 5717.60,2991.79
             5718.71,2994.44 5721.30,2995.29 5722.83,2998.10
             5726.83,3005.49 5721.32,3010.57 5714.00,3011.00
             5712.80,3021.35 5707.47,3019.75 5703.00,3022.01
             5700.71,3023.18 5697.36,3026.22 5695.80,3028.28
             5693.86,3030.85 5691.38,3035.74 5691.69,3039.00
             5691.72,3042.05 5694.28,3046.49 5691.69,3050.89
             5690.29,3053.64 5687.66,3054.66 5685.00,3056.00
             5688.77,3056.28 5693.67,3055.39 5696.77,3057.74
             5701.44,3061.26 5698.77,3065.61 5700.82,3069.28
             5704.15,3075.24 5711.85,3081.59 5718.00,3084.45
             5726.34,3088.32 5737.93,3091.95 5747.00,3093.54
             5747.00,3093.54 5759.00,3094.65 5759.00,3094.65
             5765.57,3096.71 5766.61,3101.87 5770.21,3103.40
             5774.23,3105.12 5782.35,3101.99 5788.90,3107.42
             5794.10,3111.73 5799.80,3127.23 5803.09,3134.00
             5808.35,3144.79 5814.47,3146.09 5814.95,3159.99
             5815.41,3173.21 5820.37,3170.21 5827.79,3177.33
             5830.47,3179.89 5833.68,3185.47 5834.89,3189.00
             5834.89,3189.00 5836.57,3196.00 5836.57,3196.00
             5838.01,3200.06 5839.93,3200.48 5840.83,3206.00
             5840.83,3206.00 5842.89,3224.90 5842.89,3224.90
             5844.48,3228.69 5847.34,3228.80 5849.35,3233.04
             5851.04,3236.60 5850.82,3241.14 5851.75,3245.00
             5851.75,3245.00 5856.63,3263.00 5856.63,3263.00
             5856.52,3269.61 5851.79,3268.91 5849.00,3278.00
             5849.00,3278.00 5836.00,3323.00 5836.00,3323.00
             5845.93,3327.82 5842.11,3336.02 5846.92,3343.83
             5851.47,3351.24 5860.08,3354.02 5864.36,3359.21
             5867.69,3363.24 5867.95,3367.05 5868.00,3372.00
             5881.96,3365.58 5882.75,3380.33 5882.99,3390.00
             5883.07,3393.34 5883.34,3398.00 5881.26,3400.78
             5878.80,3404.06 5868.68,3406.85 5863.99,3413.09
             5858.60,3420.25 5859.66,3426.20 5856.91,3431.00
             5854.00,3436.10 5849.15,3438.32 5846.58,3442.04
             5844.11,3445.63 5844.98,3449.29 5840.87,3452.27
             5836.16,3455.68 5825.81,3454.84 5819.99,3454.98
             5816.39,3455.06 5812.47,3454.51 5809.80,3457.43
             5807.10,3460.38 5803.28,3470.06 5801.37,3474.00
             5801.37,3474.00 5792.21,3488.00 5792.21,3488.00
             5792.21,3488.00 5787.30,3499.00 5787.30,3499.00
             5787.30,3499.00 5782.55,3505.00 5782.55,3505.00
             5782.55,3505.00 5779.01,3511.99 5779.01,3511.99
             5777.91,3513.82 5775.49,3516.24 5775.37,3518.28
             5774.90,3526.28 5791.40,3532.68 5785.26,3541.94
             5782.56,3546.01 5778.36,3546.08 5774.00,3546.73
             5774.00,3546.73 5764.00,3548.79 5764.00,3548.79
             5759.62,3549.41 5759.47,3548.67 5754.00,3550.00
             5759.09,3552.66 5763.43,3553.91 5765.35,3560.00
             5765.35,3560.00 5767.19,3576.62 5767.19,3576.62
             5769.56,3580.90 5780.85,3575.38 5778.34,3582.91
             5777.47,3585.55 5775.31,3586.18 5773.00,3587.00
             5776.76,3600.72 5765.11,3597.48 5758.82,3603.73
             5752.87,3609.66 5758.49,3612.48 5753.57,3617.58
             5750.92,3620.33 5746.58,3620.65 5743.09,3622.99
             5739.73,3625.25 5734.93,3632.39 5732.84,3636.00
             5732.84,3636.00 5729.27,3643.72 5729.27,3643.72
             5727.44,3646.31 5725.22,3647.34 5723.72,3651.00
             5723.72,3651.00 5721.35,3659.90 5721.35,3659.90
             5719.59,3663.49 5717.60,3663.21 5715.24,3668.04
             5715.24,3668.04 5705.65,3689.96 5705.65,3689.96
             5702.18,3695.52 5698.46,3695.47 5696.31,3699.21
             5694.86,3701.74 5695.40,3704.28 5693.35,3708.00
             5690.81,3712.62 5687.62,3715.02 5685.57,3720.91
             5684.09,3725.17 5685.04,3729.41 5682.00,3733.89
             5678.86,3738.53 5672.87,3739.75 5668.00,3741.66
             5659.59,3744.95 5651.43,3751.36 5642.00,3751.23
             5637.93,3751.44 5629.82,3750.02 5627.05,3751.23
             5622.77,3752.63 5622.94,3755.93 5619.78,3758.26
             5616.58,3760.62 5605.87,3761.78 5602.00,3761.00
             5599.32,3774.05 5594.60,3770.46 5588.05,3775.51
             5583.09,3779.33 5583.76,3783.46 5580.58,3786.57
             5577.26,3789.83 5572.66,3789.06 5569.39,3791.72
             5565.90,3794.57 5565.20,3800.94 5556.00,3801.90
             5556.00,3801.90 5546.00,3802.64 5546.00,3802.64
             5546.00,3802.64 5538.00,3802.64 5538.00,3802.64
             5538.00,3802.64 5528.00,3803.50 5528.00,3803.50
             5524.08,3803.35 5515.58,3803.36 5512.85,3806.51
             5506.97,3813.31 5516.07,3821.19 5519.33,3831.00
             5521.36,3837.13 5520.60,3841.03 5520.74,3847.00
             5520.97,3857.06 5517.95,3854.48 5516.07,3860.42
             5516.07,3860.42 5514.87,3867.00 5514.87,3867.00
             5514.87,3867.00 5511.56,3878.00 5511.56,3878.00
             5508.29,3888.61 5500.48,3906.07 5495.22,3916.00
             5495.22,3916.00 5485.32,3934.00 5485.32,3934.00
             5481.16,3942.78 5479.63,3953.67 5474.12,3960.96
             5474.12,3960.96 5460.25,3974.17 5460.25,3974.17
             5451.02,3984.28 5453.44,3993.02 5445.96,3998.30
             5442.58,4000.68 5432.62,4002.23 5428.00,4003.49
             5428.00,4003.49 5414.00,4007.66 5414.00,4007.66
             5414.00,4007.66 5407.00,4011.05 5407.00,4011.05
             5407.00,4011.05 5397.00,4014.64 5397.00,4014.64
             5397.00,4014.64 5380.21,4018.98 5380.21,4018.98
             5380.21,4018.98 5372.96,4026.10 5372.96,4026.10
             5368.62,4029.60 5357.49,4037.17 5354.57,4041.04
             5351.87,4044.61 5352.18,4046.98 5350.55,4049.91
             5348.85,4052.97 5342.91,4058.15 5340.00,4060.21
             5333.43,4064.88 5329.36,4064.99 5322.00,4066.50
             5302.44,4070.53 5282.30,4066.51 5263.00,4063.00
             5262.06,4066.80 5259.66,4074.86 5256.77,4077.36
             5253.15,4080.51 5248.77,4080.14 5246.27,4084.14
             5246.27,4084.14 5244.22,4089.00 5244.22,4089.00
             5244.22,4089.00 5236.35,4103.91 5236.35,4103.91
             5232.26,4109.28 5227.24,4109.11 5225.60,4113.13
             5223.80,4117.57 5228.65,4125.31 5222.61,4130.27
             5218.31,4133.79 5208.98,4134.12 5204.00,4136.07
             5204.00,4136.07 5199.00,4138.34 5199.00,4138.34
             5199.00,4138.34 5189.17,4141.40 5189.17,4141.40
             5189.17,4141.40 5182.96,4145.44 5182.96,4145.44
             5182.96,4145.44 5176.00,4148.03 5176.00,4148.03
             5176.00,4148.03 5169.00,4151.54 5169.00,4151.54
             5169.00,4151.54 5148.09,4159.17 5148.09,4159.17
             5148.09,4159.17 5135.00,4170.74 5135.00,4170.74
             5135.00,4170.74 5119.14,4181.82 5119.14,4181.82
             5114.88,4185.73 5116.29,4187.81 5111.89,4190.64
             5111.89,4190.64 5087.04,4198.65 5087.04,4198.65
             5082.80,4200.69 5081.78,4203.95 5077.00,4207.01
             5074.80,4208.42 5071.21,4209.62 5069.60,4211.55
             5067.41,4214.18 5068.61,4217.91 5069.00,4221.00
             5069.00,4221.00 5069.74,4229.00 5069.74,4229.00
             5070.54,4234.07 5073.27,4235.68 5069.74,4243.00
             5069.74,4243.00 5064.60,4252.00 5064.60,4252.00
             5064.60,4252.00 5060.50,4264.00 5060.50,4264.00
             5059.71,4267.31 5059.87,4268.43 5058.54,4272.00
             5058.54,4272.00 5051.18,4287.00 5051.18,4287.00
             5051.18,4287.00 5049.04,4294.00 5049.04,4294.00
             5049.04,4294.00 5041.91,4312.00 5041.91,4312.00
             5041.91,4312.00 5034.83,4326.00 5034.83,4326.00
             5029.59,4336.64 5023.81,4333.76 5019.31,4338.39
             5018.18,4339.56 5017.73,4340.46 5017.31,4342.01
             5017.31,4342.01 5015.79,4360.00 5015.79,4360.00
             5016.07,4363.46 5022.41,4379.99 5024.56,4382.53
             5024.56,4382.53 5032.32,4389.21 5032.32,4389.21
             5035.07,4392.33 5035.62,4394.95 5036.92,4396.59
             5038.98,4399.20 5041.89,4399.47 5044.14,4403.05
             5047.37,4408.21 5044.14,4413.08 5045.70,4422.00
             5046.51,4426.60 5049.14,4428.99 5048.34,4433.00
             5046.89,4440.20 5039.12,4440.96 5036.37,4442.93
             5036.37,4442.93 5029.13,4450.58 5029.13,4450.58
             5023.53,4456.53 5027.93,4458.75 5024.30,4465.00
             5022.68,4467.78 5020.26,4469.80 5018.33,4472.28
             5016.46,4474.68 5016.32,4475.64 5014.95,4478.00
             5011.92,4483.20 5007.94,4487.41 5008.14,4494.00
             5008.25,4497.99 5010.36,4501.47 5012.00,4505.00
             5016.83,4501.89 5021.32,4498.07 5026.87,4502.51
             5028.59,4503.89 5029.88,4505.80 5030.25,4508.00
             5030.70,4510.72 5028.68,4516.00 5028.00,4518.83
             5029.98,4518.69 5032.00,4518.23 5034.00,4518.83
             5035.44,4518.97 5036.72,4519.59 5037.87,4520.51
             5046.59,4527.48 5036.53,4538.34 5039.19,4543.73
             5041.00,4547.38 5046.63,4546.48 5047.77,4553.02
             5049.24,4561.44 5043.38,4566.66 5039.69,4573.00
             5037.61,4576.58 5038.00,4579.07 5036.15,4581.95
             5033.72,4585.73 5030.78,4585.85 5028.57,4590.05
             5027.19,4592.67 5025.93,4599.11 5021.65,4605.96
             5021.65,4605.96 5014.98,4614.04 5014.98,4614.04
             5012.24,4618.91 5013.78,4628.81 5008.58,4634.63
             5008.58,4634.63 5004.38,4638.37 5004.38,4638.37
             5001.62,4641.26 5000.75,4644.81 4996.96,4646.83
             4993.50,4648.66 4990.41,4647.32 4987.17,4649.01
             4984.49,4650.40 4982.37,4653.90 4978.00,4654.51
             4975.73,4654.82 4967.49,4652.25 4961.00,4653.72
             4961.00,4653.72 4940.00,4660.96 4940.00,4660.96
             4932.95,4663.02 4929.47,4660.83 4925.09,4663.74
             4923.07,4665.07 4914.18,4674.86 4912.93,4677.00
             4911.59,4679.28 4911.31,4681.63 4909.49,4683.78
             4905.92,4687.98 4902.69,4685.88 4896.06,4695.00
             4890.99,4701.96 4894.63,4705.23 4888.89,4708.91
             4888.89,4708.91 4881.37,4711.98 4881.37,4711.98
             4878.88,4713.62 4878.22,4716.18 4873.98,4718.00
             4870.69,4719.41 4866.79,4719.09 4863.00,4720.94
             4859.17,4722.81 4853.54,4728.07 4845.00,4731.29
             4840.66,4732.93 4835.55,4734.56 4831.00,4735.38
             4828.28,4735.88 4824.27,4735.89 4822.00,4737.02
             4818.47,4738.79 4815.18,4743.51 4811.00,4745.99
             4806.26,4748.80 4803.49,4747.02 4800.30,4749.66
             4797.74,4751.78 4797.93,4754.60 4794.78,4757.61
             4794.78,4757.61 4780.10,4766.91 4780.10,4766.91
             4776.21,4769.84 4775.87,4772.56 4771.96,4774.91
             4766.26,4778.34 4763.30,4775.23 4754.00,4779.98
             4748.70,4782.69 4740.68,4790.11 4737.00,4790.77
             4725.75,4792.82 4722.75,4784.98 4713.58,4783.88
             4713.58,4783.88 4693.96,4782.56 4693.96,4782.56
             4693.96,4782.56 4686.00,4779.92 4686.00,4779.92
             4679.79,4778.17 4678.00,4778.32 4672.04,4774.54
             4669.82,4773.13 4663.00,4767.74 4661.33,4765.90
             4659.30,4763.67 4657.75,4760.51 4655.62,4758.82
             4652.59,4756.40 4648.58,4756.32 4646.21,4754.84
             4642.82,4752.73 4640.01,4746.74 4639.00,4743.00
             4629.38,4742.21 4624.80,4740.23 4616.00,4737.42
             4608.91,4735.16 4602.17,4733.61 4596.04,4729.10
             4591.70,4725.90 4591.83,4723.77 4589.51,4721.84
             4587.83,4720.44 4582.40,4718.73 4580.00,4717.71
             4577.16,4716.51 4574.11,4714.62 4571.00,4716.00
             4569.38,4716.72 4567.32,4718.70 4566.13,4720.02
             4559.87,4726.95 4563.58,4731.01 4562.83,4739.00
             4561.32,4755.11 4557.21,4752.46 4553.88,4764.00
             4552.60,4768.44 4553.59,4773.18 4549.77,4776.57
             4545.62,4780.26 4535.43,4778.55 4530.00,4777.93
             4530.00,4777.93 4522.00,4777.93 4522.00,4777.93
             4522.00,4777.93 4504.00,4775.55 4504.00,4775.55
             4504.00,4775.55 4481.00,4774.91 4481.00,4774.91
             4477.51,4774.83 4472.30,4773.31 4469.22,4774.91
             4465.97,4776.47 4467.08,4779.40 4464.91,4782.90
             4463.04,4785.92 4460.43,4786.77 4459.02,4789.21
             4459.02,4789.21 4455.55,4800.72 4455.55,4800.72
             4454.71,4804.22 4457.44,4806.18 4457.33,4810.00
             4457.14,4816.82 4450.77,4819.12 4445.00,4818.00
             4443.72,4824.79 4442.31,4824.62 4439.95,4830.00
             4439.95,4830.00 4437.71,4838.00 4437.71,4838.00
             4436.48,4840.79 4427.33,4849.40 4424.79,4850.83
             4420.83,4853.07 4416.84,4850.80 4412.00,4853.43
             4407.25,4856.01 4405.35,4860.35 4400.99,4862.91
             4400.99,4862.91 4383.00,4868.46 4383.00,4868.46
             4383.00,4868.46 4373.37,4872.92 4373.37,4872.92
             4371.26,4874.43 4370.47,4876.38 4367.90,4877.84
             4364.18,4879.95 4359.74,4878.66 4356.59,4881.38
             4352.92,4884.57 4350.23,4889.31 4345.92,4891.91
             4341.95,4894.30 4337.12,4893.26 4331.13,4897.80
             4327.10,4900.85 4327.77,4903.98 4322.96,4906.43
             4322.96,4906.43 4309.00,4910.68 4309.00,4910.68
             4309.00,4910.68 4286.00,4920.24 4286.00,4920.24
             4286.00,4920.24 4266.00,4926.10 4266.00,4926.10
             4266.00,4926.10 4257.00,4927.70 4257.00,4927.70
             4251.96,4929.43 4248.63,4934.02 4245.00,4936.14
             4241.71,4938.07 4239.41,4937.46 4237.21,4938.87
             4231.30,4942.63 4232.94,4951.19 4230.26,4954.78
             4226.72,4959.53 4221.99,4957.37 4218.47,4960.40
             4213.24,4964.90 4215.28,4970.14 4209.89,4974.03
             4202.07,4979.69 4193.11,4977.31 4187.00,4979.39
             4184.29,4980.31 4171.30,4986.96 4169.17,4988.63
             4166.13,4991.02 4164.96,4993.50 4161.00,4995.55
             4155.60,4998.34 4150.21,4997.00 4143.00,5000.32
             4139.01,5002.17 4131.13,5006.30 4128.00,5009.11
             4128.00,5009.11 4108.83,5030.72 4108.83,5030.72
             4108.83,5030.72 4095.00,5038.44 4095.00,5038.44
             4087.71,5042.13 4077.12,5039.97 4071.00,5041.72
             4064.56,5043.56 4063.78,5048.22 4057.00,5048.88
             4057.00,5048.88 4037.73,5048.15 4037.73,5048.15
             4033.28,5049.57 4033.05,5053.84 4029.78,5056.26
             4026.35,5058.80 4022.94,5057.14 4019.39,5060.43
             4017.31,5062.36 4015.15,5067.31 4013.47,5070.00
             4013.47,5070.00 4003.13,5084.99 4003.13,5084.99
             3999.46,5089.91 3997.28,5090.42 3993.00,5094.18
             3983.76,5102.31 3987.33,5099.21 3978.00,5105.62
             3971.20,5110.29 3970.60,5111.46 3962.00,5113.00
             3965.44,5122.26 3967.48,5119.47 3971.01,5124.22
             3972.99,5126.89 3973.06,5129.64 3976.22,5132.37
             3979.49,5135.18 3986.07,5136.69 3987.34,5143.00
             3988.35,5148.05 3983.97,5153.06 3979.00,5153.48
             3976.87,5153.66 3973.23,5152.50 3971.00,5152.00
             3970.97,5161.32 3969.15,5166.42 3960.00,5170.56
             3956.55,5172.12 3950.86,5172.95 3948.64,5175.31
             3945.16,5179.01 3945.66,5184.11 3942.57,5187.79
             3942.57,5187.79 3935.99,5193.68 3935.99,5193.68
             3935.99,5193.68 3923.17,5211.83 3923.17,5211.83
             3923.17,5211.83 3916.80,5219.84 3916.80,5219.84
             3916.80,5219.84 3911.63,5225.09 3911.63,5225.09
             3911.63,5225.09 3906.65,5233.96 3906.65,5233.96
             3903.53,5238.99 3899.37,5240.98 3897.55,5248.00
             3897.55,5248.00 3895.88,5260.00 3895.88,5260.00
             3893.40,5271.98 3890.97,5283.50 3897.27,5294.96
             3899.37,5298.76 3901.93,5299.51 3904.94,5305.00
             3908.38,5311.28 3905.00,5310.90 3914.52,5325.00
             3917.83,5329.91 3923.73,5334.61 3922.76,5341.00
             3921.94,5346.37 3917.82,5347.07 3915.89,5352.01
             3914.64,5355.22 3915.68,5357.63 3912.63,5366.00
             3907.89,5379.00 3906.64,5376.78 3905.05,5380.17
             3903.06,5384.40 3907.05,5388.78 3902.57,5393.61
             3902.57,5393.61 3884.00,5405.26 3884.00,5405.26
             3882.18,5406.23 3878.91,5407.32 3877.60,5408.70
             3875.13,5411.29 3875.83,5418.27 3873.83,5421.96
             3871.69,5425.90 3868.43,5426.61 3865.17,5428.96
             3861.84,5431.37 3861.22,5433.23 3857.00,5435.47
             3854.90,5436.58 3848.25,5439.23 3846.00,5439.54
             3842.91,5439.96 3840.35,5438.82 3837.10,5440.04
             3832.98,5441.60 3832.86,5445.20 3827.98,5446.57
             3821.44,5448.41 3817.34,5445.17 3808.10,5451.81
             3804.76,5454.21 3803.93,5457.12 3800.90,5459.57
             3797.94,5461.97 3795.55,5461.72 3793.72,5463.58
             3791.43,5465.92 3792.38,5468.54 3787.89,5472.22
             3787.89,5472.22 3775.00,5481.43 3775.00,5481.43
             3771.88,5482.93 3769.06,5482.77 3766.09,5484.73
             3766.09,5484.73 3759.91,5489.92 3759.91,5489.92
             3759.91,5489.92 3752.00,5493.54 3752.00,5493.54
             3748.37,5495.92 3746.64,5498.58 3742.00,5500.15
             3739.35,5501.04 3737.56,5500.82 3735.00,5501.20
             3735.00,5501.20 3726.00,5503.31 3726.00,5503.31
             3726.00,5503.31 3709.17,5505.52 3709.17,5505.52
             3703.65,5506.60 3702.51,5510.31 3695.58,5510.69
             3692.71,5510.85 3690.88,5510.21 3688.00,5511.31
             3678.09,5515.09 3676.06,5526.70 3673.49,5529.87
             3670.55,5533.50 3667.18,5533.25 3664.56,5536.27
             3664.56,5536.27 3661.28,5541.90 3661.28,5541.90
             3661.28,5541.90 3650.90,5552.78 3650.90,5552.78
             3649.05,5554.47 3647.96,5554.88 3646.04,5556.17
             3639.56,5560.51 3638.21,5566.06 3628.00,5564.00
             3625.35,5576.35 3614.68,5570.73 3601.00,5574.30
             3601.00,5574.30 3587.00,5581.65 3587.00,5581.65
             3587.00,5581.65 3578.00,5587.57 3578.00,5587.57
             3578.00,5587.57 3564.00,5595.49 3564.00,5595.49
             3564.00,5595.49 3553.83,5605.36 3553.83,5605.36
             3553.83,5605.36 3544.27,5610.70 3544.27,5610.70
             3540.57,5613.79 3540.56,5619.25 3535.90,5621.83
             3531.78,5624.10 3528.73,5621.68 3523.00,5623.27
             3523.00,5623.27 3483.00,5632.72 3483.00,5632.72
             3483.00,5632.72 3471.00,5634.88 3471.00,5634.88
             3471.00,5634.88 3463.00,5634.88 3463.00,5634.88
             3453.45,5636.81 3449.73,5649.46 3444.61,5656.00
             3442.06,5659.26 3438.26,5662.14 3436.73,5666.00
             3435.28,5669.67 3435.43,5680.46 3425.00,5684.78
             3422.34,5685.88 3416.82,5687.62 3414.00,5687.79
             3414.00,5687.79 3385.17,5682.18 3385.17,5682.18
             3377.80,5680.77 3371.37,5681.08 3364.00,5681.00
             3355.52,5680.90 3351.83,5680.02 3343.00,5682.28
             3336.55,5683.94 3327.39,5687.82 3321.02,5685.65
             3313.37,5683.06 3309.66,5670.36 3308.00,5668.31
             3304.82,5664.40 3300.65,5667.42 3296.18,5664.26
             3291.83,5661.18 3291.82,5656.40 3288.70,5653.70
             3288.70,5653.70 3276.00,5647.47 3276.00,5647.47
             3276.00,5647.47 3267.00,5641.02 3267.00,5641.02
             3272.16,5643.64 3246.95,5633.55 3251.00,5634.96
             3246.70,5633.47 3244.53,5634.53 3241.00,5632.84
             3241.00,5632.84 3228.00,5623.00 3228.00,5623.00
             3227.77,5628.05 3225.89,5642.08 3223.30,5646.00
             3219.87,5651.18 3213.30,5655.56 3210.65,5659.09
             3205.22,5666.32 3206.67,5676.62 3199.90,5682.77
             3195.71,5686.58 3193.03,5685.47 3190.00,5686.59
             3186.50,5687.88 3185.20,5690.29 3181.00,5691.61
             3181.00,5691.61 3165.00,5693.76 3165.00,5693.76
             3154.65,5696.38 3156.40,5699.02 3149.99,5701.89
             3139.87,5706.43 3134.57,5705.30 3128.00,5707.54
             3125.00,5708.56 3118.73,5710.62 3116.96,5713.14
             3115.07,5715.83 3116.36,5719.02 3115.56,5721.99
             3113.91,5728.08 3108.38,5729.17 3103.00,5728.00
             3101.79,5732.23 3095.00,5746.61 3091.78,5749.01
             3086.63,5752.84 3078.15,5751.99 3072.00,5752.00
             3072.00,5752.00 3048.00,5754.32 3048.00,5754.32
             3048.00,5754.32 3039.00,5756.51 3039.00,5756.51
             3039.00,5756.51 3021.00,5754.08 3021.00,5754.08
             3021.00,5754.08 3013.00,5754.08 3013.00,5754.08
             3013.00,5754.08 2998.58,5751.82 2998.58,5751.82
             2991.17,5750.68 2978.54,5751.71 2978.20,5741.00
             2978.14,5739.27 2978.60,5737.66 2979.00,5736.00
             2968.87,5734.82 2968.07,5726.39 2970.00,5718.00
             2963.55,5719.25 2957.60,5717.09 2954.45,5711.00
             2952.96,5708.10 2953.18,5705.44 2951.41,5703.74
             2949.02,5701.45 2943.18,5702.03 2940.00,5702.00
             2940.00,5702.00 2917.00,5698.07 2917.00,5698.07
             2917.00,5698.07 2908.00,5694.78 2908.00,5694.78
             2908.00,5694.78 2897.00,5691.68 2897.00,5691.68
             2897.00,5691.68 2888.00,5687.55 2888.00,5687.55
             2881.92,5685.60 2873.17,5688.75 2868.11,5685.26
             2865.33,5683.35 2864.63,5680.83 2862.51,5678.51
             2862.51,5678.51 2854.83,5671.41 2854.83,5671.41
             2854.83,5671.41 2845.00,5662.71 2845.00,5662.71
             2845.00,5662.71 2837.39,5657.59 2837.39,5657.59
             2837.39,5657.59 2833.37,5652.21 2833.37,5652.21
             2831.58,5650.09 2825.64,5645.08 2822.96,5644.60
             2820.01,5644.06 2816.19,5646.09 2812.11,5643.26
             2807.01,5639.74 2809.77,5635.95 2802.00,5633.10
             2802.00,5633.10 2786.96,5630.19 2786.96,5630.19
             2786.96,5630.19 2774.00,5625.60 2774.00,5625.60
             2771.38,5624.90 2768.48,5624.94 2766.04,5623.69
             2762.71,5621.96 2761.40,5618.87 2758.80,5616.37
             2756.35,5614.03 2754.21,5613.32 2752.58,5609.96
             2751.24,5607.19 2751.29,5602.21 2751.00,5599.00
             2745.99,5598.95 2740.11,5598.83 2738.43,5592.96
             2737.71,5590.43 2738.48,5587.59 2737.61,5585.66
             2736.40,5582.97 2728.67,5576.10 2726.00,5574.53
             2712.42,5566.52 2709.22,5567.79 2694.00,5567.99
             2681.26,5568.16 2684.68,5565.92 2679.00,5564.84
             2671.99,5563.51 2675.41,5567.40 2662.00,5560.96
             2657.06,5558.59 2655.61,5560.43 2652.04,5558.67
             2647.88,5556.61 2644.78,5549.52 2645.65,5545.00
             2646.05,5542.93 2646.95,5541.73 2648.00,5540.00
             2638.79,5535.13 2627.89,5531.31 2636.00,5519.08
             2633.32,5519.33 2630.67,5519.88 2628.00,5519.08
             2619.39,5516.83 2620.63,5510.17 2619.36,5506.00
             2619.36,5506.00 2613.27,5492.00 2613.27,5492.00
             2613.27,5492.00 2608.73,5486.00 2608.73,5486.00
             2607.54,5484.11 2602.59,5473.91 2602.51,5472.00
             2602.27,5466.14 2607.39,5464.27 2608.98,5461.63
             2611.69,5457.12 2604.73,5443.12 2617.00,5442.27
             2618.21,5442.02 2619.83,5442.12 2621.00,5442.27
             2623.25,5443.00 2624.14,5443.78 2626.09,5445.00
             2626.78,5438.72 2623.55,5435.02 2626.09,5430.09
             2628.45,5425.82 2636.39,5420.77 2635.91,5415.00
             2635.69,5412.34 2633.16,5410.39 2631.57,5407.00
             2629.19,5401.93 2630.97,5398.50 2627.69,5395.73
             2625.89,5394.22 2623.19,5394.01 2621.04,5392.84
             2618.01,5391.20 2613.28,5386.21 2612.02,5382.99
             2610.85,5379.98 2611.59,5377.94 2611.05,5375.00
             2611.05,5375.00 2608.71,5367.00 2608.71,5367.00
             2608.25,5364.72 2608.61,5361.49 2606.60,5360.02
             2605.51,5359.23 2592.31,5358.22 2590.00,5358.18
             2590.00,5358.18 2582.00,5358.18 2582.00,5358.18
             2582.00,5358.18 2571.00,5358.18 2571.00,5358.18
             2565.69,5358.07 2565.77,5358.57 2561.09,5359.43
             2550.96,5361.28 2540.90,5362.35 2531.00,5358.67
             2523.66,5355.94 2525.10,5351.13 2523.46,5347.72
             2523.46,5347.72 2517.58,5339.09 2517.58,5339.09
             2514.09,5333.91 2499.63,5322.00 2494.00,5318.68
             2494.00,5318.68 2480.00,5313.41 2480.00,5313.41
             2476.95,5312.13 2474.22,5310.08 2471.00,5309.24
             2467.67,5308.36 2465.12,5309.05 2459.00,5306.68
             2453.03,5304.37 2446.19,5299.38 2440.00,5300.07
             2435.75,5300.55 2430.53,5304.19 2425.33,5299.57
             2421.45,5296.13 2420.34,5289.76 2418.58,5285.00
             2418.58,5285.00 2409.52,5255.00 2409.52,5255.00
             2408.49,5250.19 2409.55,5250.55 2407.54,5244.00
             2404.96,5235.64 2400.53,5232.48 2400.00,5223.00
             2388.94,5225.15 2389.67,5218.35 2385.59,5214.81
             2383.04,5212.61 2376.47,5211.22 2376.20,5204.00
             2376.04,5199.96 2378.17,5195.97 2378.81,5192.00
             2378.81,5192.00 2381.21,5169.00 2381.21,5169.00
             2382.13,5163.29 2384.85,5160.61 2385.00,5148.00
             2385.00,5148.00 2383.42,5123.00 2383.42,5123.00
             2383.42,5123.00 2378.40,5110.00 2378.40,5110.00
             2377.66,5105.97 2379.29,5104.47 2379.01,5100.83
             2379.01,5100.83 2377.17,5092.00 2377.17,5092.00
             2377.17,5092.00 2375.26,5077.00 2375.26,5077.00
             2375.26,5077.00 2375.26,5070.00 2375.26,5070.00
             2375.26,5070.00 2373.13,5058.00 2373.13,5058.00
             2373.13,5058.00 2372.22,5042.99 2372.22,5042.99
             2372.22,5042.99 2370.16,5035.00 2370.16,5035.00
             2370.16,5035.00 2370.16,5023.00 2370.16,5023.00
             2370.16,5023.00 2369.00,5009.00 2369.00,5009.00
             2369.00,5009.00 2370.30,4985.00 2370.30,4985.00
             2371.16,4979.03 2376.00,4969.16 2375.31,4964.00
             2375.31,4964.00 2374.05,4958.00 2374.05,4958.00
             2374.05,4958.00 2374.05,4943.00 2374.05,4943.00
             2374.02,4929.45 2378.87,4924.63 2379.00,4915.00
             2379.00,4915.00 2380.17,4893.00 2380.17,4893.00
             2380.66,4887.97 2382.20,4883.10 2381.91,4878.00
             2381.91,4878.00 2377.17,4848.00 2377.17,4848.00
             2377.17,4848.00 2377.17,4836.00 2377.17,4836.00
             2376.51,4829.74 2373.22,4824.67 2376.24,4816.00
             2377.74,4811.70 2381.39,4804.36 2385.10,4801.72
             2388.37,4799.40 2392.51,4799.48 2394.91,4798.44
             2397.24,4797.44 2403.51,4791.99 2405.05,4789.90
             2408.68,4784.95 2412.77,4775.17 2413.06,4769.00
             2413.27,4764.55 2411.68,4761.70 2412.24,4758.00
             2412.87,4753.85 2415.73,4751.52 2417.39,4747.00
             2419.50,4741.28 2422.79,4733.15 2429.04,4730.74
             2432.77,4729.30 2442.65,4732.14 2447.00,4732.45
             2447.00,4732.45 2458.00,4732.45 2458.00,4732.45
             2458.00,4732.45 2482.00,4732.97 2482.00,4732.97
             2487.42,4732.58 2499.95,4727.06 2503.19,4722.79
             2508.08,4716.33 2505.97,4709.10 2508.17,4705.10
             2509.98,4701.82 2513.49,4700.86 2515.00,4697.90
             2515.82,4695.94 2515.09,4690.58 2515.00,4688.00
             2515.34,4668.51 2512.01,4676.25 2512.00,4660.00
             2500.02,4659.69 2498.26,4652.77 2503.00,4643.00
             2498.23,4642.09 2494.06,4640.43 2493.09,4635.00
             2492.90,4632.54 2493.71,4630.66 2493.09,4628.00
             2492.16,4625.46 2489.71,4622.53 2488.89,4618.00
             2488.89,4618.00 2488.89,4606.00 2488.89,4606.00
             2488.89,4606.00 2488.89,4593.00 2488.89,4593.00
             2488.31,4588.71 2487.24,4587.91 2487.12,4581.95
             2487.12,4581.95 2488.78,4558.00 2488.78,4558.00
             2488.78,4558.00 2488.78,4529.00 2488.78,4529.00
             2490.10,4510.20 2489.70,4490.83 2487.83,4472.00
             2487.83,4472.00 2485.00,4443.00 2485.00,4443.00
             2485.00,4443.00 2484.01,4423.00 2484.01,4423.00
             2484.01,4423.00 2485.00,4414.00 2485.00,4414.00
             2485.00,4414.00 2485.00,4404.00 2485.00,4404.00
             2485.00,4404.00 2486.91,4388.00 2486.91,4388.00
             2486.91,4388.00 2488.63,4359.00 2488.63,4359.00
             2490.67,4349.34 2498.13,4344.73 2500.47,4339.00
             2501.86,4335.60 2500.81,4333.32 2501.12,4330.00
             2501.67,4324.14 2504.94,4324.26 2507.00,4320.79
             2508.53,4318.21 2508.13,4314.44 2510.70,4311.22
             2514.32,4306.69 2518.96,4308.20 2521.59,4306.25
             2523.01,4305.19 2523.68,4303.54 2524.41,4302.00
             2528.47,4293.33 2526.88,4291.33 2527.22,4282.00
             2527.02,4280.47 2527.02,4278.48 2527.22,4277.00
             2528.04,4274.79 2529.17,4273.13 2531.11,4271.86
             2537.04,4267.96 2542.73,4273.59 2548.00,4276.00
             2548.65,4273.86 2549.28,4271.12 2550.72,4269.39
             2554.62,4264.73 2560.99,4266.85 2569.00,4264.71
             2569.00,4264.71 2585.00,4259.46 2585.00,4259.46
             2585.00,4259.46 2593.00,4254.82 2593.00,4254.82
             2599.84,4251.33 2608.55,4250.67 2616.00,4252.00
             2617.81,4246.78 2621.30,4244.26 2624.80,4240.00
             2624.80,4240.00 2639.37,4222.32 2639.37,4222.32
             2639.37,4222.32 2644.90,4217.68 2644.90,4217.68
             2648.25,4214.57 2649.45,4210.96 2653.98,4209.16
             2660.97,4206.41 2669.88,4209.51 2677.00,4209.16
             2677.00,4209.16 2695.00,4207.57 2695.00,4207.57
             2695.00,4207.57 2717.00,4208.20 2717.00,4208.20
             2722.77,4208.47 2720.81,4206.72 2729.00,4208.20
             2726.24,4193.73 2739.75,4197.91 2744.45,4188.98
             2749.46,4179.44 2746.33,4173.64 2746.34,4164.00
             2746.34,4164.00 2747.00,4157.00 2747.00,4157.00
             2736.11,4155.03 2726.19,4147.13 2723.53,4136.00
             2723.53,4136.00 2720.11,4116.00 2720.11,4116.00
             2717.60,4109.45 2708.94,4106.37 2713.15,4096.04
             2716.11,4088.76 2724.84,4084.94 2727.41,4082.51
             2731.95,4078.21 2740.41,4065.71 2743.51,4060.00
             2745.41,4056.49 2744.71,4055.02 2746.16,4052.00
             2747.69,4048.83 2750.65,4046.32 2752.23,4042.00
             2754.73,4035.14 2750.24,4029.70 2761.00,4026.00
             2760.37,4024.61 2759.73,4023.58 2759.52,4022.00
             2758.18,4012.29 2768.17,4012.91 2774.00,4010.47
             2786.50,4005.26 2785.66,4000.20 2800.00,4004.00
             2800.00,4004.00 2804.21,3997.74 2804.21,3997.74
             2804.21,3997.74 2813.00,3995.72 2813.00,3995.72
             2813.00,3995.72 2831.00,3995.00 2831.00,3995.00
             2831.00,3995.00 2832.01,3989.04 2832.01,3989.04
             2832.01,3989.04 2836.55,3983.41 2836.55,3983.41
             2836.55,3983.41 2840.41,3978.64 2840.41,3978.64
             2840.41,3978.64 2854.00,3972.00 2854.00,3972.00
             2855.31,3960.67 2862.27,3963.53 2866.44,3959.44
             2868.50,3957.43 2868.54,3954.25 2872.11,3951.73
             2875.37,3949.43 2879.60,3949.75 2882.42,3948.75
             2882.42,3948.75 2887.01,3946.62 2887.01,3946.62
             2889.34,3945.68 2897.44,3943.67 2900.00,3943.30
             2900.00,3943.30 2908.00,3942.54 2908.00,3942.54
             2912.40,3941.76 2914.16,3940.82 2919.00,3941.09
             2919.00,3941.09 2932.95,3942.00 2932.95,3942.00
             2930.06,3927.37 2932.31,3929.29 2932.95,3916.00
             2932.95,3916.00 2931.30,3897.00 2931.30,3897.00
             2931.30,3897.00 2933.70,3885.00 2933.70,3885.00
             2933.70,3885.00 2935.00,3864.00 2935.00,3864.00
             2935.00,3864.00 2936.10,3853.00 2936.10,3853.00
             2936.35,3845.98 2937.09,3833.40 2939.46,3827.00
             2943.59,3815.89 2945.35,3817.47 2947.84,3812.91
             2949.80,3809.34 2949.47,3804.15 2951.17,3801.09
             2952.87,3798.04 2955.61,3796.98 2957.42,3794.68
             2957.42,3794.68 2960.73,3788.09 2960.73,3788.09
             2960.73,3788.09 2969.00,3779.00 2969.00,3779.00
             2958.86,3775.51 2955.64,3762.30 2946.00,3757.80
             2946.00,3757.80 2926.00,3752.31 2926.00,3752.31
             2926.00,3752.31 2916.00,3750.39 2916.00,3750.39
             2908.68,3747.88 2904.71,3742.20 2897.00,3740.52
             2891.33,3739.28 2878.96,3741.37 2874.43,3737.40
             2870.11,3733.62 2874.06,3726.70 2869.74,3718.00
             2865.16,3708.80 2855.17,3708.60 2861.00,3696.00
             2853.11,3691.34 2852.64,3679.37 2849.01,3674.17
             2845.67,3669.39 2841.16,3668.98 2838.13,3666.49
             2838.13,3666.49 2826.18,3651.00 2826.18,3651.00
             2823.38,3645.34 2827.31,3642.08 2828.02,3638.00
             2828.49,3635.29 2827.51,3621.79 2829.90,3614.00
             2832.53,3605.45 2834.93,3605.20 2839.51,3599.00
             2839.51,3599.00 2843.41,3593.19 2843.41,3593.19
             2846.49,3589.70 2849.99,3589.25 2851.40,3585.87
             2854.01,3579.61 2850.41,3574.00 2847.24,3569.00
             2847.24,3569.00 2843.05,3562.35 2843.05,3562.35
             2839.71,3558.82 2836.04,3562.48 2831.05,3559.83
             2827.62,3558.00 2827.02,3554.90 2823.87,3553.60
             2823.87,3553.60 2813.00,3551.99 2813.00,3551.99
             2813.00,3551.99 2790.00,3547.43 2790.00,3547.43
             2790.00,3547.43 2776.00,3545.59 2776.00,3545.59
             2770.47,3544.51 2756.27,3543.28 2752.80,3538.77
             2748.79,3532.96 2753.33,3528.67 2752.80,3523.00
             2752.13,3519.59 2750.52,3513.75 2747.85,3511.51
             2744.70,3508.85 2741.25,3509.37 2737.80,3504.89
             2732.43,3497.92 2734.91,3486.01 2726.71,3480.89
             2721.79,3477.70 2710.98,3480.97 2705.00,3480.89
             2705.00,3480.89 2683.00,3478.61 2683.00,3478.61
             2680.08,3477.98 2678.02,3476.54 2675.00,3476.38
             2669.18,3476.06 2660.39,3479.16 2653.00,3475.87
             2644.40,3472.04 2641.00,3466.81 2635.54,3460.00
             2635.54,3460.00 2629.80,3453.00 2629.80,3453.00
             2624.80,3445.69 2628.87,3444.01 2619.00,3438.64
             2619.00,3438.64 2612.00,3435.02 2612.00,3435.02
             2608.10,3432.61 2597.58,3424.62 2594.00,3423.51
             2594.00,3423.51 2578.00,3422.24 2578.00,3422.24
             2578.00,3422.24 2557.00,3416.57 2557.00,3416.57
             2551.56,3415.71 2543.72,3415.99 2539.39,3412.30
             2534.34,3408.00 2533.75,3396.81 2531.26,3393.28
             2527.43,3387.87 2520.65,3386.32 2520.00,3373.00
             2512.95,3371.50 2514.12,3369.77 2509.63,3365.45
             2505.20,3361.19 2501.55,3360.04 2499.83,3353.00
             2498.72,3348.49 2500.78,3346.01 2499.20,3341.01
             2497.33,3335.11 2492.43,3334.03 2490.01,3328.00
             2488.57,3324.42 2489.30,3304.74 2490.74,3301.01
             2491.96,3297.85 2494.27,3296.59 2495.42,3293.83
             2495.98,3292.48 2496.49,3288.62 2496.73,3287.00
             2497.39,3282.50 2501.06,3268.58 2503.72,3265.39
             2506.37,3262.23 2511.27,3261.34 2514.91,3263.16
             2516.69,3264.05 2518.43,3265.74 2520.00,3267.00
             2520.42,3263.13 2518.79,3254.37 2517.17,3251.00
             2515.56,3247.64 2512.93,3246.08 2512.08,3239.00
             2511.10,3234.08 2512.41,3233.20 2512.08,3230.00
             2512.22,3227.51 2510.06,3220.14 2508.44,3218.31
             2506.31,3215.91 2503.59,3216.05 2501.13,3214.27
             2498.54,3212.39 2498.11,3210.41 2496.32,3208.21
             2493.44,3204.64 2488.48,3202.49 2487.71,3196.00
             2487.38,3193.21 2488.58,3190.75 2488.67,3188.00
             2488.67,3188.00 2488.67,3181.00 2488.67,3181.00
             2488.67,3181.00 2493.54,3156.00 2493.54,3156.00
             2493.54,3156.00 2495.17,3143.00 2495.17,3143.00
             2495.17,3143.00 2496.28,3135.00 2496.28,3135.00
             2496.31,3129.13 2494.63,3126.14 2494.21,3122.04
             2494.21,3122.04 2491.34,3094.00 2491.34,3094.00
             2489.66,3085.71 2485.77,3070.08 2487.38,3062.00
             2488.21,3057.82 2490.53,3051.47 2494.11,3048.99
             2498.08,3046.24 2501.96,3046.93 2505.37,3042.86
             2506.88,3041.04 2510.65,3034.27 2511.01,3032.00
             2511.57,3028.37 2509.08,3024.62 2511.65,3019.02
             2514.68,3012.42 2519.24,3014.53 2523.01,3008.94
             2528.76,3000.44 2530.41,2981.48 2538.10,2975.51
             2540.96,2973.29 2544.63,2973.06 2548.00,2972.14
             2555.83,2969.99 2560.78,2968.27 2569.00,2967.28
             2569.00,2967.28 2580.96,2966.69 2580.96,2966.69
             2585.44,2965.50 2585.46,2961.87 2590.04,2959.45
             2590.04,2959.45 2608.00,2956.13 2608.00,2956.13
             2616.74,2953.35 2614.06,2950.70 2622.00,2949.00
             2620.08,2940.57 2624.97,2938.12 2632.00,2936.00
             2631.45,2934.65 2630.86,2933.48 2630.63,2932.00
             2629.21,2922.82 2639.26,2922.07 2642.37,2918.70
             2645.34,2915.48 2645.94,2909.83 2651.04,2907.74
             2651.04,2907.74 2668.79,2904.49 2668.79,2904.49
             2671.47,2903.15 2672.11,2901.02 2675.10,2898.99
             2675.10,2898.99 2689.00,2892.22 2689.00,2892.22
             2689.00,2892.22 2701.00,2884.52 2701.00,2884.52
             2711.50,2879.71 2718.89,2881.51 2729.00,2873.77
             2729.00,2873.77 2742.69,2862.68 2742.69,2862.68
             2745.53,2859.57 2744.82,2857.11 2747.43,2854.41
             2749.28,2852.50 2751.77,2851.90 2753.79,2850.31
             2753.79,2850.31 2759.21,2844.65 2759.21,2844.65
             2762.03,2842.41 2764.77,2842.24 2768.00,2841.10
             2775.43,2838.49 2775.43,2835.94 2784.00,2838.00 Z" />
</svg>
