<?xml version="1.0" encoding="UTF-8" standalone="no"?>
<!DOCTYPE svg PUBLIC "-//W3C//DTD SVG 20010904//EN"
              "http://www.w3.org/TR/2001/REC-SVG-20010904/DTD/svg10.dtd">

<svg xmlns="http://www.w3.org/2000/svg"
     width="1137.78in" height="1137.78in"
     viewBox="0 0 81920 81920">
  <path id="Selection"
        fill="none" stroke="black" stroke-width="1"
        d="M 43716.00,29592.00
           C 43717.96,29579.33 43727.19,29568.26 43740.00,29565.52
             43743.03,29564.87 43746.87,29564.97 43750.00,29565.00
             43755.15,29565.07 43759.46,29565.94 43764.00,29568.53
             43774.51,29574.54 43779.13,29585.55 43784.00,29596.17
             43799.20,29584.37 43813.78,29585.82 43829.00,29596.17
             43836.77,29601.72 43841.51,29607.53 43843.00,29617.00
             43853.32,29614.54 43865.97,29622.83 43871.58,29622.85
             43875.11,29622.87 43879.90,29618.05 43883.00,29616.13
             43887.68,29613.21 43896.50,29610.89 43902.00,29611.32
             43917.64,29612.57 43928.33,29622.46 43940.00,29631.72
             43949.18,29638.99 43958.45,29645.43 43964.47,29656.00
             43967.40,29661.14 43967.46,29665.52 43969.12,29669.00
             43969.12,29669.00 43979.14,29686.00 43979.14,29686.00
             43979.14,29686.00 43988.04,29700.85 43988.04,29700.85
             43991.88,29705.45 43996.66,29703.66 44002.00,29704.09
             44006.04,29704.42 44010.58,29705.96 44014.00,29708.13
             44022.72,29713.66 44029.22,29723.78 44030.70,29734.00
             44030.70,29734.00 44031.75,29745.00 44031.75,29745.00
             44033.35,29754.84 44034.99,29757.58 44035.00,29768.00
             44049.66,29768.67 44065.04,29772.91 44074.47,29785.00
             44074.47,29785.00 44094.51,29826.00 44094.51,29826.00
             44094.51,29826.00 44117.31,29860.00 44117.31,29860.00
             44117.31,29860.00 44132.25,29888.00 44132.25,29888.00
             44136.89,29897.28 44141.98,29906.62 44143.68,29917.00
             44145.17,29926.11 44142.45,29935.07 44141.29,29944.00
             44140.55,29949.68 44141.71,29953.11 44139.96,29959.00
             44137.72,29966.53 44134.60,29968.13 44133.84,29972.00
             44133.84,29972.00 44135.00,29987.00 44135.00,29987.00
             44135.00,29987.00 44135.00,30013.00 44135.00,30013.00
             44135.10,30021.50 44136.63,30026.09 44138.50,30034.00
             44143.34,30054.46 44147.16,30063.74 44154.42,30083.00
             44158.66,30094.23 44164.26,30107.93 44163.99,30120.00
             44163.99,30120.00 44160.18,30162.00 44160.18,30162.00
             44160.18,30162.00 44169.00,30210.00 44169.00,30210.00
             44169.16,30224.06 44167.57,30223.21 44163.72,30236.00
             44163.72,30236.00 44158.95,30252.00 44158.95,30252.00
             44158.95,30252.00 44147.67,30281.00 44147.67,30281.00
             44147.67,30281.00 44131.01,30336.00 44131.01,30336.00
             44126.04,30345.71 44116.35,30349.32 44113.56,30356.00
             44113.56,30356.00 44111.64,30363.00 44111.64,30363.00
             44111.64,30363.00 44105.57,30379.00 44105.57,30379.00
             44101.96,30387.45 44095.93,30397.99 44094.50,30407.00
             44092.86,30415.13 44095.03,30426.25 44094.50,30431.00
             44094.50,30431.00 44090.29,30467.00 44090.29,30467.00
             44090.29,30467.00 44089.71,30477.00 44089.71,30477.00
             44088.93,30483.35 44086.83,30494.99 44084.98,30501.00
             44084.98,30501.00 44078.17,30524.00 44078.17,30524.00
             44078.17,30524.00 44080.68,30552.00 44080.68,30552.00
             44080.90,30555.04 44080.43,30556.17 44079.92,30559.00
             44079.92,30559.00 44079.92,30567.00 44079.92,30567.00
             44078.19,30576.08 44073.00,30589.37 44067.90,30597.00
             44067.90,30597.00 44059.46,30607.00 44059.46,30607.00
             44052.96,30614.92 44046.26,30623.32 44040.81,30632.00
             44040.81,30632.00 44014.87,30677.00 44014.87,30677.00
             44014.87,30677.00 44004.05,30710.00 44004.05,30710.00
             44004.05,30710.00 43979.86,30755.00 43979.86,30755.00
             43979.86,30755.00 43968.69,30775.00 43968.69,30775.00
             43966.63,30778.43 43958.55,30788.89 43955.82,30792.00
             43955.82,30792.00 43948.53,30800.00 43948.53,30800.00
             43945.43,30804.02 43936.74,30819.03 43934.25,30824.00
             43934.25,30824.00 43926.03,30839.00 43926.03,30839.00
             43926.08,30841.41 43929.75,30844.92 43931.20,30847.00
             43931.20,30847.00 43938.75,30861.00 43938.75,30861.00
             43938.75,30861.00 43944.47,30872.00 43944.47,30872.00
             43944.47,30872.00 43964.12,30898.00 43964.12,30898.00
             43971.95,30908.64 43980.29,30922.88 43985.58,30935.00
             43994.96,30956.51 44007.06,30975.67 44021.66,30994.00
             44021.66,30994.00 44030.19,31004.00 44030.19,31004.00
             44030.19,31004.00 44041.33,31020.00 44041.33,31020.00
             44042.75,31022.12 44044.92,31025.77 44047.18,31026.76
             44049.72,31028.26 44054.22,31027.03 44057.00,31026.76
             44070.39,31024.50 44065.10,31026.46 44077.00,31018.34
             44079.93,31016.34 44083.64,31014.49 44084.82,31010.91
             44086.27,31006.47 44082.59,30990.06 44081.25,30985.00
             44081.25,30985.00 44062.81,30938.00 44062.81,30938.00
             44062.81,30938.00 44044.81,30883.00 44044.81,30883.00
             44040.53,30869.63 44034.34,30856.32 44034.01,30842.00
             44033.51,30819.93 44050.89,30806.01 44066.00,30792.72
             44075.64,30784.23 44085.28,30775.38 44096.00,30768.22
             44104.65,30762.44 44109.49,30764.42 44113.25,30760.69
             44118.54,30755.43 44122.43,30744.51 44126.47,30738.00
             44132.49,30728.29 44144.48,30718.03 44155.00,30713.50
             44167.03,30708.32 44180.12,30706.18 44193.00,30704.42
             44198.92,30703.62 44206.81,30704.64 44212.00,30701.42
             44216.29,30698.76 44223.88,30691.66 44225.91,30687.00
             44229.60,30678.56 44227.95,30660.79 44233.90,30650.00
             44236.94,30644.49 44240.79,30641.07 44246.00,30637.70
             44263.44,30626.40 44274.19,30630.78 44293.00,30631.00
             44301.07,30631.10 44308.76,30634.22 44315.00,30639.33
             44315.00,30639.33 44321.00,30644.49 44321.00,30644.49
             44325.51,30647.69 44330.25,30647.44 44336.91,30654.09
             44348.15,30665.33 44354.46,30692.35 44353.83,30708.00
             44353.83,30708.00 44351.24,30726.00 44351.24,30726.00
             44351.24,30726.00 44347.25,30741.00 44347.25,30741.00
             44346.75,30743.85 44345.15,30751.56 44345.75,30754.00
             44346.35,30756.44 44349.11,30759.69 44350.53,30762.00
             44350.53,30762.00 44354.63,30769.00 44354.63,30769.00
             44359.14,30775.39 44361.23,30775.65 44364.30,30784.00
             44370.77,30801.58 44367.03,30801.60 44367.00,30818.00
             44366.97,30835.80 44366.41,30855.07 44360.30,30872.00
             44353.83,30889.94 44330.54,30900.05 44315.00,30909.45
             44308.55,30913.35 44296.33,30923.48 44291.44,30929.04
             44291.44,30929.04 44282.20,30941.00 44282.20,30941.00
             44277.46,30947.00 44272.33,30952.86 44269.35,30960.00
             44266.29,30967.32 44265.78,30985.57 44268.76,30993.00
             44272.21,31001.58 44277.84,31003.86 44278.00,31017.00
             44278.23,31036.25 44271.66,31041.41 44256.00,31050.75
             44250.06,31054.30 44246.22,31057.46 44239.00,31058.68
             44227.01,31060.70 44225.86,31057.74 44213.00,31061.98
             44211.60,31062.44 44209.48,31063.03 44208.31,31063.93
             44205.48,31066.10 44205.41,31071.66 44204.72,31075.00
             44204.72,31075.00 44197.20,31099.72 44197.20,31099.72
             44195.76,31107.31 44204.72,31116.74 44207.30,31124.00
             44208.79,31128.17 44211.20,31142.30 44211.69,31147.00
             44212.01,31150.09 44211.36,31155.09 44213.01,31157.61
             44214.69,31160.18 44227.13,31166.06 44230.99,31169.33
             44240.46,31177.35 44240.30,31185.71 44242.93,31189.72
             44245.60,31193.79 44254.26,31199.21 44255.82,31212.00
             44257.32,31224.39 44256.87,31237.24 44247.70,31246.83
             44238.48,31256.47 44228.89,31254.90 44224.00,31257.85
             44220.68,31259.86 44218.54,31262.96 44216.27,31266.00
             44207.94,31277.15 44206.84,31282.14 44207.00,31296.00
             44207.18,31310.57 44216.69,31313.87 44222.96,31335.00
             44225.97,31345.13 44226.00,31355.59 44224.71,31366.00
             44224.71,31366.00 44223.34,31376.00 44223.34,31376.00
             44223.34,31376.00 44225.82,31397.00 44225.82,31397.00
             44225.28,31404.36 44222.99,31412.16 44218.32,31417.96
             44214.42,31422.80 44210.62,31424.14 44209.31,31427.17
             44207.70,31430.88 44208.06,31450.77 44208.00,31456.00
             44208.00,31456.00 44206.00,31477.00 44206.00,31477.00
             44205.92,31484.09 44206.71,31497.44 44208.85,31504.00
             44208.85,31504.00 44216.55,31522.00 44216.55,31522.00
             44219.69,31529.80 44221.63,31537.92 44223.75,31546.00
             44225.13,31551.22 44227.09,31556.50 44226.68,31562.00
             44225.59,31576.48 44220.19,31591.92 44204.00,31595.00
             44204.24,31597.99 44204.92,31601.00 44204.68,31604.00
             44203.52,31618.47 44195.08,31633.29 44181.00,31638.30
             44172.54,31641.31 44164.74,31638.77 44158.00,31642.89
             44158.00,31642.89 44145.17,31652.38 44145.17,31652.38
             44145.17,31652.38 44138.96,31658.96 44138.96,31658.96
             44137.04,31660.87 44132.06,31664.59 44131.02,31666.32
             44129.30,31669.20 44130.89,31671.51 44127.91,31679.00
             44125.86,31684.17 44118.46,31697.56 44117.95,31702.00
             44117.95,31702.00 44119.00,31713.00 44119.00,31713.00
             44119.19,31729.22 44114.77,31730.80 44106.35,31743.00
             44106.35,31743.00 44088.54,31768.00 44088.54,31768.00
             44083.59,31774.01 44078.43,31778.12 44073.78,31785.00
             44072.07,31787.54 44066.94,31798.18 44066.51,31801.00
             44065.81,31804.06 44066.79,31806.93 44066.51,31810.00
             44066.28,31816.41 44063.91,31823.84 44060.07,31828.99
             44050.96,31841.23 44045.71,31835.43 44034.09,31848.00
             44034.09,31848.00 44018.38,31870.00 44018.38,31870.00
             44011.98,31877.78 44004.39,31881.98 43998.04,31891.00
             43993.26,31897.81 43991.24,31905.66 43987.63,31913.00
             43983.99,31920.41 43974.06,31939.90 43972.52,31947.00
             43970.39,31956.81 43971.12,31967.04 43971.00,31977.00
             43970.95,31980.77 43970.83,31982.36 43969.64,31986.00
             43962.62,32007.54 43942.35,32007.05 43926.00,32017.38
             43919.70,32021.36 43917.42,32023.86 43910.00,32027.56
             43910.00,32027.56 43886.00,32036.54 43886.00,32036.54
             43886.00,32036.54 43873.00,32041.96 43873.00,32041.96
             43873.00,32041.96 43859.00,32044.66 43859.00,32044.66
             43859.00,32044.66 43831.00,32051.55 43831.00,32051.55
             43831.00,32051.55 43816.00,32053.46 43816.00,32053.46
             43816.00,32053.46 43807.00,32055.72 43807.00,32055.72
             43799.12,32057.35 43777.42,32060.96 43770.00,32061.00
             43770.00,32061.00 43749.00,32061.00 43749.00,32061.00
             43749.00,32061.00 43718.00,32055.29 43718.00,32055.29
             43703.34,32053.48 43688.47,32054.07 43674.00,32050.25
             43665.49,32047.99 43654.14,32043.63 43646.00,32040.13
             43646.00,32040.13 43637.00,32035.92 43637.00,32035.92
             43637.00,32035.92 43627.00,32032.50 43627.00,32032.50
             43611.36,32025.79 43586.14,32012.03 43572.00,32002.60
             43572.00,32002.60 43560.00,31995.47 43560.00,31995.47
             43560.00,31995.47 43539.00,31974.09 43539.00,31974.09
             43539.00,31974.09 43521.00,31958.83 43521.00,31958.83
             43511.89,31950.59 43498.34,31936.37 43490.18,31927.00
             43490.18,31927.00 43480.60,31914.00 43480.60,31914.00
             43480.60,31914.00 43468.75,31899.00 43468.75,31899.00
             43468.75,31899.00 43457.93,31886.00 43457.93,31886.00
             43457.93,31886.00 43452.30,31877.00 43452.30,31877.00
             43452.30,31877.00 43441.79,31862.00 43441.79,31862.00
             43441.79,31862.00 43427.09,31843.00 43427.09,31843.00
             43424.77,31839.33 43424.02,31836.80 43422.22,31833.00
             43422.22,31833.00 43415.78,31821.00 43415.78,31821.00
             43410.20,31810.40 43408.47,31804.56 43397.00,31797.68
             43391.77,31794.55 43378.97,31794.66 43372.00,31793.58
             43372.00,31793.58 43320.42,31785.84 43320.42,31785.84
             43320.42,31785.84 43311.00,31785.84 43311.00,31785.84
             43297.68,31785.59 43294.68,31780.82 43285.00,31779.27
             43285.00,31779.27 43257.00,31774.28 43257.00,31774.28
             43249.09,31773.33 43241.40,31773.79 43234.00,31770.01
             43227.61,31766.74 43221.64,31759.68 43217.37,31754.00
             43213.18,31748.42 43211.11,31746.04 43210.00,31738.92
             43210.00,31738.92 43156.00,31738.92 43156.00,31738.92
             43156.00,31738.92 43136.00,31738.00 43136.00,31738.00
             43136.00,31738.00 43113.00,31738.00 43113.00,31738.00
             43107.47,31737.99 43104.18,31737.85 43099.00,31735.48
             43086.75,31729.88 43077.87,31714.38 43081.00,31701.00
             43081.00,31701.00 43068.00,31698.30 43068.00,31698.30
             43058.61,31696.94 43054.93,31697.90 43045.00,31693.49
             43036.81,31689.85 43032.88,31685.82 43026.00,31681.04
             43026.00,31681.04 43015.00,31674.30 43015.00,31674.30
             43015.00,31674.30 43005.00,31667.20 43005.00,31667.20
             43005.00,31667.20 42973.00,31646.49 42973.00,31646.49
             42963.26,31639.18 42953.80,31630.38 42945.00,31621.96
             42945.00,31621.96 42931.00,31608.44 42931.00,31608.44
             42931.00,31608.44 42904.00,31590.78 42904.00,31590.78
             42904.00,31590.78 42882.00,31572.92 42882.00,31572.92
             42877.20,31569.48 42869.43,31565.91 42864.00,31563.05
             42860.81,31561.38 42853.63,31556.54 42851.00,31555.98
             42847.63,31555.27 42843.44,31557.01 42839.00,31556.68
             42827.51,31555.82 42814.91,31553.94 42806.04,31545.82
             42799.80,31540.10 42796.60,31532.45 42789.98,31527.24
             42780.34,31519.64 42773.20,31517.22 42763.00,31511.69
             42763.00,31511.69 42751.00,31504.63 42751.00,31504.63
             42738.23,31497.89 42734.51,31500.33 42722.00,31496.99
             42722.00,31496.99 42699.00,31488.76 42699.00,31488.76
             42699.00,31488.76 42687.00,31486.50 42687.00,31486.50
             42673.35,31483.37 42662.90,31480.55 42650.00,31474.69
             42636.85,31468.71 42623.75,31458.29 42616.11,31446.00
             42616.11,31446.00 42605.39,31425.00 42605.39,31425.00
             42605.39,31425.00 42587.09,31408.00 42587.09,31408.00
             42577.08,31397.29 42571.67,31387.94 42565.25,31375.00
             42560.15,31364.73 42556.28,31350.44 42555.17,31339.00
             42555.17,31339.00 42554.56,31329.00 42554.56,31329.00
             42554.56,31329.00 42552.28,31319.00 42552.28,31319.00
             42552.28,31319.00 42548.29,31295.00 42548.29,31295.00
             42547.27,31286.81 42545.16,31267.10 42542.75,31260.00
             42541.78,31257.13 42539.14,31252.60 42537.46,31250.00
             42537.46,31250.00 42527.09,31235.00 42527.09,31235.00
             42527.09,31235.00 42516.54,31217.00 42516.54,31217.00
             42516.54,31217.00 42509.44,31207.00 42509.44,31207.00
             42509.44,31207.00 42491.98,31179.00 42491.98,31179.00
             42491.98,31179.00 42467.53,31148.00 42467.53,31148.00
             42464.46,31143.98 42464.06,31141.85 42461.80,31138.00
             42461.80,31138.00 42456.29,31130.00 42456.29,31130.00
             42456.29,31130.00 42446.53,31116.00 42446.53,31116.00
             42446.53,31116.00 42442.16,31106.18 42442.16,31106.18
             42442.16,31106.18 42433.18,31097.96 42433.18,31097.96
             42426.61,31090.81 42424.89,31083.38 42425.00,31074.00
             42425.13,31063.50 42428.10,31062.40 42431.19,31054.00
             42431.19,31054.00 42434.04,31043.00 42434.04,31043.00
             42434.04,31043.00 42440.34,31024.00 42440.34,31024.00
             42440.34,31024.00 42445.49,31002.00 42445.49,31002.00
             42445.49,31002.00 42446.32,30994.00 42446.32,30994.00
             42446.32,30994.00 42448.34,30986.00 42448.34,30986.00
             42448.34,30986.00 42450.28,30975.00 42450.28,30975.00
             42450.28,30975.00 42455.44,30953.00 42455.44,30953.00
             42455.44,30953.00 42454.00,30939.00 42454.00,30939.00
             42453.96,30929.40 42456.37,30920.30 42458.50,30911.00
             42462.14,30895.13 42463.24,30890.14 42470.04,30875.00
             42472.95,30868.52 42476.25,30866.44 42477.36,30863.00
             42478.41,30859.93 42477.02,30857.06 42477.36,30853.00
             42477.36,30853.00 42478.00,30836.00 42478.00,30836.00
             42477.79,30824.97 42469.64,30825.62 42466.52,30811.00
             42466.52,30811.00 42465.72,30802.00 42465.72,30802.00
             42465.72,30802.00 42464.00,30787.00 42464.00,30787.00
             42463.87,30775.21 42463.82,30770.90 42461.54,30759.00
             42461.54,30759.00 42457.17,30739.00 42457.17,30739.00
             42452.06,30724.22 42449.21,30727.14 42449.00,30709.00
             42449.00,30709.00 42447.73,30690.00 42447.73,30690.00
             42447.73,30690.00 42445.17,30674.00 42445.17,30674.00
             42445.17,30674.00 42443.54,30653.00 42443.54,30653.00
             42443.54,30653.00 42438.42,30630.00 42438.42,30630.00
             42438.42,30630.00 42433.29,30596.00 42433.29,30596.00
             42433.29,30596.00 42432.68,30589.00 42432.68,30589.00
             42432.68,30589.00 42429.75,30579.00 42429.75,30579.00
             42428.07,30572.63 42422.88,30548.57 42423.32,30543.00
             42423.32,30543.00 42425.97,30530.00 42425.97,30530.00
             42425.97,30530.00 42425.32,30519.00 42425.32,30519.00
             42426.37,30505.84 42436.60,30491.21 42442.41,30479.00
             42442.41,30479.00 42447.87,30464.00 42447.87,30464.00
             42447.87,30464.00 42465.31,30422.00 42465.31,30422.00
             42465.31,30422.00 42481.13,30387.00 42481.13,30387.00
             42481.13,30387.00 42487.31,30372.00 42487.31,30372.00
             42487.31,30372.00 42492.87,30356.00 42492.87,30356.00
             42499.04,30341.90 42509.30,30333.14 42525.00,30333.00
             42525.19,30324.42 42527.51,30313.68 42531.38,30306.00
             42531.38,30306.00 42537.86,30295.00 42537.86,30295.00
             42539.45,30290.85 42539.30,30284.52 42542.46,30277.00
             42542.46,30277.00 42553.19,30258.00 42553.19,30258.00
             42553.19,30258.00 42570.66,30216.00 42570.66,30216.00
             42570.66,30216.00 42576.94,30200.00 42576.94,30200.00
             42581.47,30188.04 42579.99,30185.89 42590.00,30176.01
             42592.94,30173.12 42595.37,30170.92 42599.00,30168.90
             42603.68,30166.30 42622.98,30160.09 42629.00,30158.28
             42629.00,30158.28 42670.00,30147.29 42670.00,30147.29
             42670.00,30147.29 42690.00,30143.92 42690.00,30143.92
             42690.00,30143.92 42697.00,30143.92 42697.00,30143.92
             42697.00,30143.92 42722.00,30138.50 42722.00,30138.50
             42722.00,30138.50 42733.00,30136.50 42733.00,30136.50
             42733.00,30136.50 42741.00,30134.29 42741.00,30134.29
             42741.00,30134.29 42777.00,30128.57 42777.00,30128.57
             42786.61,30126.66 42785.92,30121.44 42796.00,30117.71
             42804.15,30114.69 42810.52,30115.78 42821.00,30111.55
             42821.00,30111.55 42846.00,30100.96 42846.00,30100.96
             42846.00,30100.96 42866.00,30088.37 42866.00,30088.37
             42876.81,30082.97 42882.33,30086.05 42888.00,30084.57
             42888.00,30084.57 42910.00,30072.66 42910.00,30072.66
             42912.94,30070.91 42920.41,30065.73 42921.98,30062.91
             42924.23,30058.87 42922.69,30048.97 42929.53,30040.00
             42937.53,30029.52 42945.66,30028.75 42953.99,30020.91
             42953.99,30020.91 42964.29,30009.00 42964.29,30009.00
             42967.91,30004.83 42980.85,29991.79 42985.00,29988.78
             42992.65,29983.24 43000.89,29980.64 43009.00,29976.37
             43009.00,29976.37 43036.00,29959.47 43036.00,29959.47
             43036.00,29959.47 43045.00,29955.18 43045.00,29955.18
             43045.00,29955.18 43059.99,29946.31 43059.99,29946.31
             43064.16,29943.40 43068.96,29936.18 43073.04,29932.01
             43073.04,29932.01 43090.00,29917.72 43090.00,29917.72
             43095.86,29912.68 43106.36,29903.36 43113.00,29899.99
             43113.00,29899.99 43176.00,29876.06 43176.00,29876.06
             43176.00,29876.06 43191.00,29870.77 43191.00,29870.77
             43191.00,29870.77 43219.00,29854.42 43219.00,29854.42
             43219.00,29854.42 43248.00,29837.68 43248.00,29837.68
             43255.01,29833.28 43257.33,29828.76 43268.00,29823.90
             43279.36,29818.72 43288.82,29820.73 43294.00,29819.61
             43294.00,29819.61 43316.00,29810.68 43316.00,29810.68
             43316.00,29810.68 43346.00,29795.06 43346.00,29795.06
             43348.54,29793.53 43354.57,29790.82 43355.98,29788.61
             43356.95,29787.09 43357.56,29777.84 43358.09,29775.00
             43359.97,29765.09 43365.00,29756.87 43374.00,29751.90
             43387.22,29744.61 43403.53,29750.00 43418.00,29750.00
             43419.85,29736.09 43424.67,29724.03 43439.00,29718.71
             43444.29,29716.74 43456.89,29715.30 43460.49,29712.16
             43463.54,29709.51 43462.75,29705.27 43467.53,29699.00
             43477.00,29686.58 43490.36,29679.56 43506.00,29684.00
             43507.00,29678.49 43507.70,29672.95 43510.53,29668.00
             43514.89,29660.37 43523.21,29653.79 43532.00,29652.08
             43532.00,29652.08 43540.00,29652.08 43540.00,29652.08
             43544.22,29651.43 43544.26,29651.11 43549.00,29651.17
             43549.00,29651.17 43573.00,29654.00 43573.00,29654.00
             43573.00,29654.00 43597.00,29654.00 43597.00,29654.00
             43599.18,29654.00 43601.92,29654.09 43604.00,29653.49
             43607.65,29652.44 43618.14,29644.89 43620.51,29641.91
             43624.36,29637.04 43624.53,29630.41 43636.00,29621.53
             43643.57,29615.66 43654.19,29611.34 43663.00,29607.58
             43678.71,29600.88 43698.88,29592.37 43716.00,29592.00 Z" />
</svg>
