<?xml version="1.0" encoding="UTF-8" standalone="no"?>
<!DOCTYPE svg PUBLIC "-//W3C//DTD SVG 20010904//EN"
              "http://www.w3.org/TR/2001/REC-SVG-20010904/DTD/svg10.dtd">

<svg xmlns="http://www.w3.org/2000/svg"
     width="7314.29mm" height="7314.29mm"
     viewBox="0 0 20480 20480">
  <path id="Buyre"
        fill="none" stroke="black" stroke-width="1"
        d="M 10618.00,7679.00
           C 10618.65,7672.10 10625.55,7662.55 10628.58,7652.00
             10629.88,7647.45 10630.81,7642.55 10635.05,7639.57
             10639.61,7636.72 10642.70,7639.42 10646.00,7639.57
             10647.88,7639.40 10651.09,7638.19 10653.00,7637.59
             10653.00,7637.59 10669.00,7631.30 10669.00,7631.30
             10669.00,7631.30 10682.00,7628.78 10682.00,7628.78
             10682.00,7628.78 10692.00,7623.52 10692.00,7623.52
             10698.63,7620.75 10705.79,7619.53 10711.90,7615.60
             10717.92,7611.73 10715.71,7607.58 10721.13,7602.44
             10726.96,7596.92 10729.66,7598.92 10733.95,7595.57
             10737.25,7592.99 10738.33,7589.73 10741.13,7587.31
             10741.13,7587.31 10747.63,7583.42 10747.63,7583.42
             10749.56,7581.83 10750.40,7579.70 10753.10,7577.70
             10753.10,7577.70 10771.00,7568.81 10771.00,7568.81
             10771.00,7568.81 10779.00,7566.39 10779.00,7566.39
             10779.00,7566.39 10794.00,7558.78 10794.00,7558.78
             10794.00,7558.78 10802.00,7553.31 10802.00,7553.31
             10805.71,7551.51 10812.10,7551.71 10814.70,7549.99
             10817.67,7548.03 10817.28,7544.22 10825.00,7538.95
             10825.00,7538.95 10837.00,7529.80 10837.00,7529.80
             10839.67,7527.99 10843.27,7526.61 10844.98,7523.70
             10846.22,7521.59 10846.00,7518.40 10846.00,7516.00
             10846.00,7516.00 10846.00,7498.00 10846.00,7498.00
             10845.98,7487.38 10840.45,7472.07 10855.00,7468.29
             10856.98,7468.05 10859.96,7467.93 10862.00,7468.29
             10872.10,7468.62 10871.66,7476.80 10877.29,7480.18
             10880.11,7481.56 10883.90,7480.30 10887.00,7480.18
             10887.00,7480.18 10900.00,7480.18 10900.00,7480.18
             10900.00,7480.18 10933.00,7481.27 10933.00,7481.27
             10933.00,7481.27 10948.00,7481.27 10948.00,7481.27
             10948.00,7481.27 10969.00,7481.27 10969.00,7481.27
             10972.40,7481.58 10978.12,7481.98 10980.57,7484.43
             10983.49,7487.35 10982.66,7490.44 10982.96,7494.00
             10982.96,7494.00 10984.52,7501.00 10984.52,7501.00
             10984.90,7504.13 10982.79,7513.47 10980.69,7515.78
             10977.04,7519.77 10971.01,7519.95 10966.00,7520.00
             10966.00,7520.00 10971.28,7525.46 10971.28,7525.46
             10976.34,7529.58 10980.38,7528.49 10981.00,7542.00
             10990.13,7543.49 10992.10,7547.49 10996.55,7555.00
             11003.38,7566.55 11006.16,7579.65 11005.32,7593.00
             11005.05,7597.28 11006.58,7602.69 11007.39,7607.00
             11007.39,7607.00 11012.78,7633.00 11012.78,7633.00
             11014.02,7637.86 11016.13,7646.05 11015.54,7651.00
             11014.46,7660.05 11012.20,7661.11 11007.99,7668.00
             11006.69,7670.12 11003.50,7677.57 11002.78,7680.00
             11002.78,7680.00 10999.52,7693.00 10999.52,7693.00
             10999.52,7693.00 10994.29,7710.00 10994.29,7710.00
             10991.10,7728.59 10994.80,7733.08 10985.33,7752.00
             10985.33,7752.00 10976.44,7766.00 10976.44,7766.00
             10976.44,7766.00 10965.77,7788.00 10965.77,7788.00
             10965.77,7788.00 10958.02,7801.00 10958.02,7801.00
             10956.81,7805.25 10959.99,7811.34 10961.98,7815.00
             10961.98,7815.00 10967.88,7826.00 10967.88,7826.00
             10967.88,7826.00 10973.36,7833.00 10973.36,7833.00
             10973.36,7833.00 10977.78,7841.00 10977.78,7841.00
             10980.15,7845.22 10984.63,7850.09 10989.38,7845.31
             10992.22,7842.78 10990.16,7838.86 10989.38,7836.00
             10986.58,7828.54 10982.95,7820.77 10981.37,7813.00
             10980.75,7809.94 10979.67,7801.84 10980.43,7799.00
             10982.23,7792.26 10995.34,7781.18 11001.00,7776.90
             11004.05,7774.60 11008.33,7771.71 11012.00,7770.63
             11015.43,7769.63 11020.80,7769.99 11023.77,7768.02
             11028.89,7764.62 11025.07,7756.93 11033.04,7751.74
             11036.92,7749.22 11041.13,7750.56 11045.00,7752.35
             11055.61,7757.25 11059.50,7764.54 11058.66,7776.00
             11058.66,7776.00 11058.66,7781.00 11058.66,7781.00
             11058.75,7783.63 11059.92,7785.51 11060.54,7788.00
             11062.28,7795.00 11063.31,7809.76 11059.16,7815.91
             11055.61,7821.17 11046.89,7823.24 11041.00,7830.00
             11041.00,7830.00 11063.00,7831.17 11063.00,7831.17
             11063.00,7831.17 11082.00,7833.00 11082.00,7833.00
             11093.94,7833.02 11092.45,7834.89 11101.00,7835.00
             11101.00,7835.00 11115.00,7835.63 11115.00,7835.63
             11115.00,7835.63 11134.00,7834.02 11134.00,7834.02
             11147.63,7834.42 11142.92,7845.02 11143.23,7850.00
             11143.55,7854.98 11145.41,7859.49 11139.89,7863.04
             11133.96,7866.49 11124.61,7863.55 11118.00,7863.04
             11118.00,7863.04 11109.00,7863.93 11109.00,7863.93
             11109.00,7863.93 11094.00,7863.93 11094.00,7863.93
             11094.00,7863.93 11082.00,7863.93 11082.00,7863.93
             11082.00,7863.93 11059.00,7862.00 11059.00,7862.00
             11059.00,7862.00 11040.00,7862.82 11040.00,7862.82
             11032.65,7862.29 11020.52,7859.62 11022.24,7872.00
             11023.39,7880.35 11035.00,7889.09 11035.55,7895.00
             11036.23,7902.27 11027.79,7903.67 11026.31,7909.09
             11023.77,7918.40 11028.56,7926.83 11028.74,7936.00
             11028.89,7943.07 11025.16,7943.32 11025.00,7952.00
             11024.78,7964.63 11027.34,7965.17 11031.96,7976.00
             11031.96,7976.00 11036.90,7988.00 11036.90,7988.00
             11040.41,7995.45 11043.83,8003.26 11048.63,8010.00
             11048.63,8010.00 11063.10,8025.98 11063.10,8025.98
             11063.10,8025.98 11076.44,8042.96 11076.44,8042.96
             11084.47,8052.13 11100.99,8066.07 11111.00,8073.28
             11128.59,8085.96 11148.23,8095.73 11168.00,8104.55
             11171.42,8106.08 11178.38,8108.54 11182.00,8109.33
             11184.84,8109.95 11188.44,8109.97 11190.77,8111.74
             11195.02,8114.95 11194.00,8122.21 11194.00,8127.00
             11197.64,8125.43 11203.23,8122.20 11207.00,8122.21
             11215.50,8122.22 11220.21,8131.44 11218.61,8139.00
             11217.28,8145.31 11208.69,8156.58 11207.83,8158.58
             11206.81,8161.07 11208.06,8163.35 11207.83,8166.00
             11207.54,8168.96 11205.84,8171.47 11204.42,8174.00
             11202.86,8176.79 11195.96,8187.83 11195.66,8190.00
             11195.39,8192.00 11200.25,8204.52 11201.40,8207.00
             11204.13,8212.89 11208.24,8216.92 11212.99,8221.13
             11215.18,8223.07 11218.82,8226.81 11221.09,8228.19
             11221.09,8228.19 11234.00,8233.45 11234.00,8233.45
             11234.00,8233.45 11243.00,8234.88 11243.00,8234.88
             11243.00,8234.88 11263.00,8240.88 11263.00,8240.88
             11271.26,8243.57 11286.19,8247.50 11289.91,8256.00
             11291.28,8259.14 11291.04,8263.58 11291.00,8267.00
             11290.87,8276.74 11287.66,8279.71 11281.37,8286.42
             11279.00,8288.94 11278.12,8290.77 11274.96,8292.59
             11274.96,8292.59 11265.00,8296.49 11265.00,8296.49
             11252.44,8303.75 11255.58,8306.19 11239.00,8306.00
             11234.33,8305.94 11229.44,8304.40 11225.04,8306.57
             11220.51,8308.80 11213.71,8318.25 11207.00,8320.31
             11201.78,8321.99 11196.40,8320.10 11193.72,8320.31
             11188.69,8320.60 11176.88,8326.65 11173.47,8330.21
             11173.47,8330.21 11161.98,8346.00 11161.98,8346.00
             11160.29,8349.15 11159.22,8357.00 11152.91,8360.91
             11152.91,8360.91 11144.00,8364.20 11144.00,8364.20
             11136.20,8367.64 11121.46,8375.71 11114.51,8366.89
             11109.74,8360.84 11112.48,8350.73 11114.00,8344.00
             11098.11,8339.68 11101.12,8320.88 11105.43,8316.41
             11106.96,8314.83 11109.08,8314.02 11111.00,8313.04
             11125.44,8305.61 11130.12,8307.65 11145.00,8304.69
             11151.58,8303.38 11165.86,8296.99 11170.79,8292.48
             11170.79,8292.48 11176.21,8286.00 11176.21,8286.00
             11176.21,8286.00 11182.42,8279.00 11182.42,8279.00
             11188.12,8270.31 11181.69,8265.78 11183.43,8259.00
             11184.86,8253.44 11192.09,8249.24 11190.43,8242.00
             11189.46,8237.76 11184.91,8229.34 11181.87,8226.28
             11178.01,8222.41 11172.11,8218.77 11169.43,8213.99
             11167.85,8211.18 11167.42,8207.18 11167.00,8204.00
             11159.92,8207.30 11157.60,8213.00 11149.00,8213.61
             11141.47,8214.15 11136.28,8208.60 11132.00,8207.83
             11128.39,8207.18 11114.50,8211.59 11111.00,8213.39
             11097.50,8220.37 11108.10,8233.11 11096.81,8244.90
             11094.93,8246.86 11093.24,8247.95 11091.00,8249.41
             11084.20,8253.85 11066.62,8266.65 11062.69,8252.00
             11061.62,8248.02 11064.01,8243.71 11065.31,8240.00
             11065.31,8240.00 11073.00,8217.00 11073.00,8217.00
             11061.23,8219.11 11033.03,8216.93 11021.00,8214.69
             11012.40,8213.09 11003.80,8211.01 10995.00,8211.00
             10995.00,8211.00 10985.00,8211.00 10985.00,8211.00
             10985.00,8211.00 10951.00,8205.91 10951.00,8205.91
             10942.81,8204.35 10937.95,8201.11 10929.00,8201.00
             10913.55,8200.82 10897.29,8198.72 10883.00,8206.00
             10889.72,8209.83 10887.70,8211.11 10890.68,8217.00
             10892.24,8220.08 10894.88,8222.58 10895.69,8226.00
             10895.69,8226.00 10894.13,8249.00 10894.13,8249.00
             10893.31,8254.40 10889.96,8264.12 10884.98,8266.84
             10872.72,8273.54 10867.18,8262.75 10856.00,8262.09
             10843.09,8261.34 10838.26,8266.51 10829.96,8274.99
             10828.29,8276.70 10825.15,8279.40 10823.98,8281.28
             10822.06,8284.39 10822.93,8287.91 10818.52,8292.82
             10813.02,8298.94 10796.14,8304.40 10788.00,8303.59
             10780.58,8302.84 10775.10,8297.57 10775.08,8290.00
             10775.07,8285.95 10776.55,8283.49 10775.65,8281.21
             10774.52,8278.33 10770.33,8277.30 10766.88,8272.00
             10763.61,8266.98 10764.25,8261.30 10761.44,8258.74
             10759.47,8256.94 10755.58,8256.93 10753.00,8256.58
             10753.00,8256.58 10741.00,8255.13 10741.00,8255.13
             10736.03,8254.54 10729.73,8256.20 10727.63,8247.00
             10726.98,8244.71 10726.95,8242.25 10727.63,8240.00
             10727.63,8240.00 10732.00,8232.00 10732.00,8232.00
             10729.39,8231.30 10723.37,8229.30 10721.00,8229.76
             10718.00,8230.34 10716.26,8232.91 10711.00,8232.87
             10706.06,8232.83 10698.14,8229.78 10695.01,8230.47
             10689.45,8231.71 10687.72,8239.29 10680.00,8237.56
             10680.00,8237.56 10673.00,8234.55 10673.00,8234.55
             10667.57,8232.86 10660.99,8232.96 10656.23,8229.27
             10652.08,8226.05 10652.06,8218.94 10656.23,8215.73
             10657.95,8214.41 10663.37,8213.10 10666.00,8212.00
             10657.24,8208.01 10650.90,8199.68 10650.00,8190.00
             10650.00,8190.00 10627.00,8188.72 10627.00,8188.72
             10627.00,8188.72 10613.28,8186.08 10613.28,8186.08
             10613.28,8186.08 10599.00,8187.61 10599.00,8187.61
             10594.05,8187.21 10591.26,8184.65 10589.00,8184.05
             10584.06,8182.73 10577.53,8190.00 10571.84,8181.89
             10571.00,8180.69 10570.55,8179.34 10570.00,8178.00
             10567.15,8180.63 10564.32,8185.14 10560.98,8186.40
             10558.81,8187.23 10553.53,8187.00 10551.00,8186.91
             10551.00,8186.91 10534.00,8186.91 10534.00,8186.91
             10529.55,8186.21 10527.76,8184.14 10525.00,8184.47
             10523.35,8184.67 10515.07,8189.45 10513.00,8190.59
             10505.48,8194.71 10502.58,8195.99 10494.00,8196.00
             10494.00,8196.00 10481.00,8196.66 10481.00,8196.66
             10481.00,8196.66 10463.00,8195.74 10463.00,8195.74
             10463.00,8195.74 10448.00,8195.18 10448.00,8195.18
             10442.16,8195.60 10436.72,8197.16 10431.00,8194.43
             10424.70,8191.42 10422.10,8185.35 10418.25,8180.00
             10412.14,8171.48 10400.04,8153.98 10395.60,8145.00
             10392.77,8139.25 10386.55,8127.78 10393.23,8122.74
             10395.08,8121.34 10397.73,8120.90 10400.00,8121.24
             10406.81,8122.28 10407.84,8128.88 10410.37,8134.00
             10410.37,8134.00 10434.00,8172.00 10434.00,8172.00
             10438.08,8171.22 10442.47,8170.39 10445.59,8167.39
             10448.61,8164.47 10448.49,8160.61 10453.04,8158.32
             10458.80,8155.42 10467.39,8159.06 10464.00,8173.00
             10467.49,8174.04 10475.94,8177.44 10479.00,8176.79
             10485.71,8175.34 10487.15,8167.27 10490.27,8164.43
             10493.61,8161.40 10497.05,8162.05 10501.00,8163.00
             10504.44,8156.06 10508.19,8157.01 10511.29,8149.00
             10513.07,8144.39 10516.05,8131.74 10515.59,8127.00
             10515.21,8123.16 10511.32,8112.29 10509.19,8109.00
             10509.19,8109.00 10504.22,8103.00 10504.22,8103.00
             10502.41,8100.81 10500.87,8097.65 10498.73,8096.07
             10498.73,8096.07 10489.00,8091.46 10489.00,8091.46
             10486.00,8090.29 10473.94,8087.32 10471.00,8087.35
             10467.44,8087.40 10464.71,8089.29 10461.00,8088.39
             10454.32,8086.78 10454.74,8080.82 10452.42,8078.60
             10450.70,8076.96 10448.21,8077.05 10446.00,8077.00
             10442.01,8076.93 10437.67,8077.45 10434.02,8075.55
             10428.62,8072.74 10426.60,8065.63 10428.73,8060.04
             10429.68,8057.54 10431.49,8056.11 10432.72,8053.83
             10436.19,8047.36 10432.82,8048.64 10441.00,8040.72
             10444.95,8036.89 10448.61,8031.08 10455.00,8032.61
             10460.67,8033.97 10462.76,8041.18 10465.00,8046.00
             10469.57,8042.40 10470.26,8042.15 10476.00,8042.00
             10476.00,8042.00 10477.04,8033.00 10477.04,8033.00
             10477.44,8024.87 10476.63,8018.84 10487.00,8018.00
             10487.00,8018.00 10487.61,8011.00 10487.61,8011.00
             10487.31,8007.75 10485.01,8004.36 10486.74,8000.04
             10488.21,7996.36 10491.03,7995.82 10493.71,7993.51
             10496.10,7991.46 10498.84,7987.61 10500.70,7985.00
             10511.68,7969.60 10513.21,7959.50 10513.00,7941.00
             10513.00,7941.00 10508.55,7902.00 10508.55,7902.00
             10508.55,7902.00 10506.37,7894.00 10506.37,7894.00
             10506.37,7894.00 10501.44,7863.00 10501.44,7863.00
             10500.28,7858.54 10497.04,7855.30 10495.61,7850.00
             10495.61,7850.00 10493.00,7833.00 10493.00,7833.00
             10490.19,7838.79 10488.05,7838.67 10483.00,7841.80
             10483.00,7841.80 10473.00,7847.60 10473.00,7847.60
             10465.25,7852.21 10464.66,7853.57 10455.00,7852.91
             10443.57,7852.13 10442.08,7848.72 10437.83,7849.20
             10428.77,7850.22 10431.16,7855.75 10423.00,7860.65
             10414.68,7865.64 10411.57,7863.14 10407.04,7864.43
             10405.39,7864.90 10396.87,7871.25 10395.39,7872.63
             10390.03,7877.63 10390.60,7883.93 10389.36,7888.00
             10386.69,7896.70 10376.94,7907.42 10367.00,7906.00
             10365.73,7908.34 10365.01,7909.80 10362.89,7911.58
             10358.14,7915.58 10344.26,7918.77 10338.00,7918.56
             10331.47,7918.35 10330.59,7917.60 10324.00,7920.31
             10317.67,7922.91 10317.09,7924.30 10312.00,7927.44
             10306.60,7930.77 10292.44,7935.83 10286.00,7935.99
             10275.07,7936.25 10266.07,7931.31 10267.11,7919.00
             10267.60,7913.13 10270.98,7909.85 10273.65,7905.00
             10276.36,7900.11 10284.01,7882.05 10283.79,7877.00
             10283.42,7868.70 10278.92,7861.67 10276.64,7854.00
             10276.64,7854.00 10275.63,7847.00 10275.63,7847.00
             10275.63,7847.00 10273.68,7840.00 10273.68,7840.00
             10273.68,7840.00 10271.36,7829.00 10271.36,7829.00
             10269.24,7821.23 10265.90,7814.49 10268.97,7806.00
             10269.98,7803.20 10271.72,7800.47 10274.10,7798.65
             10276.92,7796.50 10279.74,7796.17 10283.00,7795.26
             10290.39,7793.18 10297.41,7790.94 10303.79,7797.22
             10307.36,7800.74 10307.44,7803.92 10309.40,7808.00
             10309.40,7808.00 10314.34,7817.00 10314.34,7817.00
             10314.34,7817.00 10316.72,7828.00 10316.72,7828.00
             10317.51,7830.17 10321.85,7836.99 10323.35,7839.00
             10325.32,7841.65 10329.94,7847.63 10333.00,7848.61
             10335.21,7849.30 10341.57,7847.61 10344.00,7847.00
             10344.00,7847.00 10357.00,7844.36 10357.00,7844.36
             10357.00,7844.36 10365.00,7840.66 10365.00,7840.66
             10371.83,7838.18 10375.55,7841.35 10381.90,7838.20
             10389.13,7834.61 10390.76,7822.83 10393.46,7816.00
             10393.46,7816.00 10399.39,7804.00 10399.39,7804.00
             10400.39,7801.15 10401.80,7796.01 10400.61,7793.17
             10396.25,7782.72 10380.88,7782.71 10382.56,7768.00
             10383.00,7764.11 10384.70,7762.13 10384.96,7757.00
             10385.30,7750.22 10380.76,7738.82 10391.00,7737.24
             10399.14,7735.99 10402.59,7743.41 10406.09,7744.43
             10408.87,7745.65 10411.32,7743.73 10416.00,7744.43
             10424.16,7745.02 10429.96,7751.89 10429.92,7760.00
             10429.90,7764.13 10428.19,7766.76 10429.13,7769.95
             10430.53,7774.68 10433.78,7772.77 10438.00,7782.00
             10445.21,7778.13 10447.95,7772.21 10455.00,7773.24
             10461.18,7774.14 10465.12,7781.62 10471.71,7778.00
             10481.50,7772.64 10475.20,7769.51 10477.60,7763.01
             10479.08,7759.00 10482.84,7757.95 10483.53,7753.96
             10484.04,7751.65 10482.82,7748.80 10483.53,7746.00
             10485.21,7738.48 10492.20,7737.94 10498.00,7741.00
             10498.64,7735.32 10502.53,7726.05 10509.00,7725.27
             10518.12,7724.17 10518.44,7735.84 10525.99,7734.07
             10532.22,7732.60 10530.71,7728.00 10540.72,7728.15
             10557.49,7728.38 10568.01,7727.27 10584.00,7721.79
             10588.19,7720.36 10594.13,7719.37 10597.77,7716.79
             10601.89,7713.88 10600.53,7710.24 10601.38,7706.00
             10601.38,7706.00 10603.69,7698.00 10603.69,7698.00
             10605.74,7687.65 10605.55,7680.96 10618.00,7679.00 Z
           M 10684.00,8214.00
           C 10684.00,8214.00 10683.00,8214.00 10683.00,8214.00
             10683.00,8214.00 10684.00,8215.00 10684.00,8215.00
             10684.00,8215.00 10684.00,8214.00 10684.00,8214.00 Z" />
</svg>
