<?xml version="1.0" encoding="UTF-8" standalone="no"?>
<!DOCTYPE svg PUBLIC "-//W3C//DTD SVG 20010904//EN"
              "http://www.w3.org/TR/2001/REC-SVG-20010904/DTD/svg10.dtd">

<svg xmlns="http://www.w3.org/2000/svg"
     width="28895.9mm" height="28895.9mm"
     viewBox="0 0 81920 81920">
  <path id="Selection #4"
        fill="none" stroke="black" stroke-width="1"
        d="M 34026.00,24573.00
           C 34026.00,24573.00 34019.17,24524.00 34019.17,24524.00
             34019.17,24524.00 34016.85,24496.00 34016.85,24496.00
             34015.21,24482.81 34012.03,24477.90 34012.00,24461.00
             34012.00,24461.00 34012.00,24423.00 34012.00,24423.00
             34012.00,24423.00 34014.00,24392.00 34014.00,24392.00
             34014.00,24392.00 34015.00,24346.00 34015.00,24346.00
             34015.00,24346.00 34017.00,24315.00 34017.00,24315.00
             34017.00,24315.00 34017.00,24271.00 34017.00,24271.00
             34016.98,24259.88 34014.08,24253.57 34012.25,24243.00
             34010.05,24230.32 34006.02,24199.22 34006.00,24187.00
             34006.00,24187.00 34006.00,24168.00 34006.00,24168.00
             34005.85,24155.39 34002.60,24149.04 34001.29,24139.00
             34001.29,24139.00 33998.54,24111.00 33998.54,24111.00
             33998.54,24111.00 33993.44,24087.00 33993.44,24087.00
             33993.44,24087.00 33989.93,24063.00 33989.93,24063.00
             33989.93,24063.00 33989.93,24054.00 33989.93,24054.00
             33989.93,24054.00 33987.46,24044.00 33987.46,24044.00
             33987.46,24044.00 33985.87,24031.00 33985.87,24031.00
             33985.87,24031.00 33983.17,24011.00 33983.17,24011.00
             33983.17,24011.00 33982.00,23963.00 33982.00,23963.00
             33982.00,23963.00 33982.91,23953.00 33982.91,23953.00
             33983.68,23941.82 33984.65,23930.98 33987.24,23920.00
             33987.24,23920.00 33991.71,23905.00 33991.71,23905.00
             33991.71,23905.00 33996.83,23870.00 33996.83,23870.00
             33996.83,23870.00 33999.00,23817.00 33999.00,23817.00
             33999.00,23817.00 33996.00,23776.00 33996.00,23776.00
             33996.00,23776.00 33996.00,23749.00 33996.00,23749.00
             33996.00,23749.00 33999.00,23720.00 33999.00,23720.00
             33999.00,23720.00 33995.09,23685.00 33995.09,23685.00
             33993.23,23657.99 33992.88,23621.21 33999.24,23595.00
             33999.24,23595.00 34004.97,23579.00 34004.97,23579.00
             34004.97,23579.00 34008.01,23565.00 34008.01,23565.00
             34008.01,23565.00 34011.74,23552.00 34011.74,23552.00
             34011.74,23552.00 34018.90,23535.00 34018.90,23535.00
             34018.90,23535.00 34021.24,23524.00 34021.24,23524.00
             34021.24,23524.00 34025.81,23509.00 34025.81,23509.00
             34025.81,23509.00 34034.09,23491.00 34034.09,23491.00
             34034.09,23491.00 34037.44,23480.00 34037.44,23480.00
             34037.44,23480.00 34044.30,23464.00 34044.30,23464.00
             34044.30,23464.00 34050.43,23443.00 34050.43,23443.00
             34050.43,23443.00 34054.28,23432.00 34054.28,23432.00
             34054.28,23432.00 34063.72,23397.00 34063.72,23397.00
             34063.72,23397.00 34068.15,23367.00 34068.15,23367.00
             34069.54,23355.88 34071.13,23347.46 34071.00,23336.00
             34070.89,23326.86 34066.97,23315.93 34064.42,23307.00
             34064.42,23307.00 34051.89,23260.00 34051.89,23260.00
             34051.89,23260.00 34044.61,23227.00 34044.61,23227.00
             34044.61,23227.00 34043.33,23217.00 34043.33,23217.00
             34043.33,23217.00 34039.15,23202.00 34039.15,23202.00
             34039.15,23202.00 34033.25,23179.00 34033.25,23179.00
             34031.72,23173.55 34030.03,23170.94 34028.01,23166.00
             34028.01,23166.00 34020.88,23145.00 34020.88,23145.00
             34020.88,23145.00 34015.96,23115.00 34015.96,23115.00
             34015.96,23115.00 34008.69,23095.00 34008.69,23095.00
             34008.69,23095.00 34001.31,23073.00 34001.31,23073.00
             33997.44,23062.14 33993.14,23050.70 33993.00,23039.00
             33992.82,23023.02 33992.37,23013.85 33996.24,22998.00
             33996.24,22998.00 34002.28,22981.00 34002.28,22981.00
             34002.28,22981.00 34006.09,22965.00 34006.09,22965.00
             34010.54,22951.45 34017.67,22939.11 34025.06,22927.00
             34032.38,22915.01 34038.49,22909.42 34046.47,22899.00
             34046.47,22899.00 34062.57,22874.00 34062.57,22874.00
             34062.57,22874.00 34081.52,22841.00 34081.52,22841.00
             34081.52,22841.00 34090.32,22830.00 34090.32,22830.00
             34090.32,22830.00 34102.84,22813.00 34102.84,22813.00
             34102.84,22813.00 34112.20,22798.00 34112.20,22798.00
             34112.20,22798.00 34128.58,22776.00 34128.58,22776.00
             34128.58,22776.00 34144.88,22750.00 34144.88,22750.00
             34144.88,22750.00 34164.56,22727.00 34164.56,22727.00
             34173.81,22716.04 34182.79,22704.17 34193.09,22694.17
             34193.09,22694.17 34226.00,22666.90 34226.00,22666.90
             34226.00,22666.90 34260.00,22645.31 34260.00,22645.31
             34260.00,22645.31 34276.00,22637.14 34276.00,22637.14
             34276.00,22637.14 34306.00,22619.37 34306.00,22619.37
             34306.00,22619.37 34340.00,22605.58 34340.00,22605.58
             34340.00,22605.58 34374.00,22591.45 34374.00,22591.45
             34374.00,22591.45 34392.00,22584.99 34392.00,22584.99
             34392.00,22584.99 34415.00,22574.42 34415.00,22574.42
             34415.00,22574.42 34431.00,22569.14 34431.00,22569.14
             34431.00,22569.14 34450.00,22562.00 34450.00,22562.00
             34450.00,22562.00 34468.00,22556.19 34468.00,22556.19
             34468.00,22556.19 34499.00,22541.86 34499.00,22541.86
             34499.00,22541.86 34535.00,22526.69 34535.00,22526.69
             34535.00,22526.69 34552.00,22517.37 34552.00,22517.37
             34552.00,22517.37 34584.00,22501.88 34584.00,22501.88
             34584.00,22501.88 34606.00,22487.70 34606.00,22487.70
             34606.00,22487.70 34621.00,22478.70 34621.00,22478.70
             34621.00,22478.70 34639.00,22464.75 34639.00,22464.75
             34639.00,22464.75 34683.00,22439.13 34683.00,22439.13
             34683.00,22439.13 34724.00,22416.26 34724.00,22416.26
             34739.99,22408.52 34766.55,22400.54 34784.00,22395.28
             34797.12,22391.33 34805.62,22386.85 34820.00,22384.43
             34820.00,22384.43 34851.00,22381.09 34851.00,22381.09
             34851.00,22381.09 34869.00,22379.56 34869.00,22379.56
             34869.00,22379.56 34900.00,22372.42 34900.00,22372.42
             34900.00,22372.42 34933.00,22368.25 34933.00,22368.25
             34933.00,22368.25 34962.00,22364.00 34962.00,22364.00
             34976.73,22363.83 34980.21,22359.87 34994.00,22355.72
             34997.48,22354.67 35003.91,22353.56 35006.15,22350.70
             35008.34,22347.91 35012.14,22332.34 35013.44,22328.00
             35015.61,22320.74 35022.17,22307.31 35026.36,22301.00
             35036.19,22286.17 35054.78,22272.03 35066.91,22257.00
             35071.99,22250.70 35074.34,22244.81 35078.23,22238.00
             35083.14,22229.38 35088.90,22220.90 35094.90,22213.00
             35111.62,22190.97 35134.45,22172.84 35159.00,22160.26
             35159.00,22160.26 35196.00,22144.51 35196.00,22144.51
             35196.00,22144.51 35229.00,22127.08 35229.00,22127.08
             35248.08,22118.39 35255.90,22117.15 35275.00,22111.58
             35293.41,22106.20 35311.68,22101.23 35331.00,22101.00
             35342.06,22100.87 35356.22,22102.01 35367.00,22104.42
             35367.00,22104.42 35393.00,22111.25 35393.00,22111.25
             35393.00,22111.25 35419.00,22113.28 35419.00,22113.28
             35436.23,22115.35 35456.70,22119.78 35473.00,22125.69
             35493.71,22133.22 35500.25,22139.55 35517.00,22152.35
             35517.00,22152.35 35541.00,22171.17 35541.00,22171.17
             35541.00,22171.17 35572.58,22206.00 35572.58,22206.00
             35579.55,22214.95 35590.52,22232.84 35596.14,22243.00
             35596.14,22243.00 35603.63,22258.00 35603.63,22258.00
             35603.63,22258.00 35610.84,22267.00 35610.84,22267.00
             35615.47,22273.33 35618.76,22278.99 35624.17,22285.00
             35624.17,22285.00 35646.55,22309.00 35646.55,22309.00
             35646.55,22309.00 35665.09,22333.00 35665.09,22333.00
             35668.02,22337.15 35670.13,22343.07 35675.04,22344.97
             35675.04,22344.97 35698.00,22348.89 35698.00,22348.89
             35698.00,22348.89 35739.00,22360.19 35739.00,22360.19
             35739.00,22360.19 35755.00,22362.27 35755.00,22362.27
             35755.00,22362.27 35794.00,22370.15 35794.00,22370.15
             35794.00,22370.15 35875.00,22394.06 35875.00,22394.06
             35875.00,22394.06 35908.00,22407.42 35908.00,22407.42
             35908.00,22407.42 35921.00,22413.55 35921.00,22413.55
             35921.00,22413.55 35935.00,22418.45 35935.00,22418.45
             35935.00,22418.45 35947.00,22423.30 35947.00,22423.30
             35947.00,22423.30 35973.00,22430.19 35973.00,22430.19
             35973.00,22430.19 35989.00,22433.43 35989.00,22433.43
             35989.00,22433.43 36017.00,22442.06 36017.00,22442.06
             36017.00,22442.06 36034.00,22449.55 36034.00,22449.55
             36034.00,22449.55 36049.00,22454.86 36049.00,22454.86
             36060.69,22459.68 36071.04,22467.30 36082.00,22473.57
             36082.00,22473.57 36124.00,22496.21 36124.00,22496.21
             36124.00,22496.21 36145.00,22510.97 36145.00,22510.97
             36145.00,22510.97 36158.00,22518.43 36158.00,22518.43
             36158.00,22518.43 36168.00,22524.67 36168.00,22524.67
             36168.00,22524.67 36215.00,22547.01 36215.00,22547.01
             36215.00,22547.01 36230.00,22557.53 36230.00,22557.53
             36230.00,22557.53 36246.00,22566.69 36246.00,22566.69
             36246.00,22566.69 36264.00,22579.24 36264.00,22579.24
             36264.00,22579.24 36280.00,22588.08 36280.00,22588.08
             36280.00,22588.08 36320.00,22615.46 36320.00,22615.46
             36320.00,22615.46 36341.00,22626.42 36341.00,22626.42
             36341.00,22626.42 36369.00,22645.43 36369.00,22645.43
             36369.00,22645.43 36381.00,22654.30 36381.00,22654.30
             36381.00,22654.30 36403.00,22667.20 36403.00,22667.20
             36403.00,22667.20 36418.00,22676.77 36418.00,22676.77
             36418.00,22676.77 36429.00,22682.81 36429.00,22682.81
             36439.23,22689.12 36439.91,22691.95 36447.00,22697.24
             36447.00,22697.24 36472.00,22713.46 36472.00,22713.46
             36472.00,22713.46 36482.00,22722.96 36482.00,22722.96
             36482.00,22722.96 36492.00,22732.01 36492.00,22732.01
             36492.00,22732.01 36502.17,22742.91 36502.17,22742.91
             36502.17,22742.91 36512.99,22752.09 36512.99,22752.09
             36512.99,22752.09 36528.96,22768.91 36528.96,22768.91
             36528.96,22768.91 36550.00,22788.04 36550.00,22788.04
             36550.00,22788.04 36559.09,22797.83 36559.09,22797.83
             36565.92,22804.47 36569.37,22806.36 36574.91,22815.00
             36574.91,22815.00 36588.94,22840.00 36588.94,22840.00
             36594.66,22855.03 36590.76,22855.38 36600.69,22877.00
             36602.43,22880.78 36603.25,22883.73 36606.21,22886.90
             36609.50,22890.41 36617.44,22894.05 36622.00,22896.81
             36629.35,22901.26 36631.36,22901.96 36640.00,22902.00
             36640.00,22902.00 36702.00,22902.00 36702.00,22902.00
             36726.37,22902.29 36743.94,22910.23 36767.00,22914.39
             36767.00,22914.39 36793.00,22918.42 36793.00,22918.42
             36793.00,22918.42 36814.00,22924.34 36814.00,22924.34
             36814.00,22924.34 36824.00,22928.08 36824.00,22928.08
             36824.00,22928.08 36848.00,22934.02 36848.00,22934.02
             36848.00,22934.02 36872.00,22943.55 36872.00,22943.55
             36872.00,22943.55 36890.00,22950.01 36890.00,22950.01
             36890.00,22950.01 36908.00,22958.74 36908.00,22958.74
             36922.09,22965.56 36937.95,22971.50 36951.00,22980.08
             36959.61,22985.74 36961.92,22989.43 36969.00,22995.83
             36969.00,22995.83 36985.99,23011.00 36985.99,23011.00
             36993.06,23018.16 36998.56,23026.11 37004.68,23034.00
             37004.68,23034.00 37012.83,23043.00 37012.83,23043.00
             37012.83,23043.00 37019.30,23050.96 37019.30,23050.96
             37019.30,23050.96 37031.00,23061.09 37031.00,23061.09
             37036.86,23066.54 37040.34,23071.36 37044.66,23078.00
             37044.66,23078.00 37054.32,23097.00 37054.32,23097.00
             37062.15,23111.92 37073.13,23131.13 37085.01,23142.99
             37097.91,23155.85 37117.35,23154.70 37134.00,23158.42
             37134.00,23158.42 37152.00,23163.58 37152.00,23163.58
             37152.00,23163.58 37180.00,23170.42 37180.00,23170.42
             37180.00,23170.42 37197.00,23176.65 37197.00,23176.65
             37197.00,23176.65 37220.00,23183.42 37220.00,23183.42
             37220.00,23183.42 37236.00,23189.23 37236.00,23189.23
             37236.00,23189.23 37246.00,23191.42 37246.00,23191.42
             37246.00,23191.42 37269.00,23196.65 37269.00,23196.65
             37269.00,23196.65 37291.00,23203.11 37291.00,23203.11
             37291.00,23203.11 37323.00,23209.15 37323.00,23209.15
             37323.00,23209.15 37339.00,23214.66 37339.00,23214.66
             37339.00,23214.66 37361.00,23221.69 37361.00,23221.69
             37361.00,23221.69 37374.00,23226.95 37374.00,23226.95
             37383.11,23230.26 37390.93,23231.73 37400.00,23236.27
             37400.00,23236.27 37421.00,23249.18 37421.00,23249.18
             37429.09,23254.01 37434.24,23255.63 37442.00,23262.30
             37446.68,23266.33 37448.18,23268.81 37452.09,23273.00
             37452.09,23273.00 37467.00,23287.91 37467.00,23287.91
             37473.25,23293.70 37478.80,23296.33 37484.83,23303.00
             37484.83,23303.00 37493.74,23315.00 37493.74,23315.00
             37506.89,23333.20 37512.64,23344.56 37519.34,23366.00
             37519.34,23366.00 37524.46,23383.00 37524.46,23383.00
             37529.17,23395.06 37532.98,23398.03 37533.00,23412.00
             37533.00,23412.00 37533.00,23449.00 37533.00,23449.00
             37533.00,23449.00 37535.00,23478.00 37535.00,23478.00
             37535.00,23478.00 37545.00,23477.04 37545.00,23477.04
             37545.00,23477.04 37560.00,23477.04 37560.00,23477.04
             37572.17,23476.98 37568.44,23473.95 37583.00,23462.90
             37593.39,23455.01 37606.77,23448.75 37619.00,23444.23
             37619.00,23444.23 37676.00,23429.43 37676.00,23429.43
             37693.03,23426.58 37702.63,23428.99 37719.00,23419.64
             37725.70,23415.82 37730.90,23409.66 37736.28,23404.28
             37743.05,23397.53 37750.36,23391.11 37758.00,23385.37
             37758.00,23385.37 37791.96,23364.61 37791.96,23364.61
             37791.96,23364.61 37830.00,23326.29 37830.00,23326.29
             37844.69,23313.51 37871.86,23297.08 37889.00,23285.65
             37889.00,23285.65 37925.00,23259.45 37925.00,23259.45
             37925.00,23259.45 37975.00,23233.74 37975.00,23233.74
             38007.14,23218.18 38014.39,23212.51 38051.00,23204.42
             38085.77,23196.75 38115.91,23198.00 38151.00,23198.00
             38151.00,23198.00 38222.00,23198.00 38222.00,23198.00
             38222.00,23198.00 38240.00,23197.00 38240.00,23197.00
             38240.00,23197.00 38253.00,23197.96 38253.00,23197.96
             38287.96,23199.50 38317.89,23206.17 38341.70,23234.00
             38354.81,23249.31 38357.58,23260.44 38362.86,23279.00
             38362.86,23279.00 38367.34,23295.00 38367.34,23295.00
             38367.34,23295.00 38370.43,23314.00 38370.43,23314.00
             38370.43,23314.00 38375.11,23330.00 38375.11,23330.00
             38375.11,23330.00 38377.74,23343.00 38377.74,23343.00
             38377.74,23343.00 38384.63,23365.00 38384.63,23365.00
             38384.63,23365.00 38388.48,23384.00 38388.48,23384.00
             38388.48,23384.00 38393.35,23400.00 38393.35,23400.00
             38393.35,23400.00 38398.54,23422.00 38398.54,23422.00
             38398.54,23422.00 38401.52,23440.00 38401.52,23440.00
             38401.52,23440.00 38409.37,23463.00 38409.37,23463.00
             38412.64,23469.54 38417.42,23475.02 38420.00,23482.00
             38420.00,23482.00 38459.00,23463.34 38459.00,23463.34
             38459.00,23463.34 38492.00,23453.37 38492.00,23453.37
             38492.00,23453.37 38525.00,23444.55 38525.00,23444.55
             38547.06,23435.82 38564.96,23424.30 38590.00,23424.00
             38606.08,23423.82 38619.47,23423.28 38635.00,23428.69
             38659.19,23437.13 38678.11,23455.97 38700.00,23468.57
             38700.00,23468.57 38727.00,23482.25 38727.00,23482.25
             38727.00,23482.25 38745.00,23492.22 38745.00,23492.22
             38765.79,23503.18 38775.77,23506.93 38795.00,23522.01
             38815.07,23537.76 38820.55,23548.02 38835.42,23567.00
             38835.42,23567.00 38853.12,23588.00 38853.12,23588.00
             38853.12,23588.00 38865.43,23606.00 38865.43,23606.00
             38865.43,23606.00 38876.25,23620.00 38876.25,23620.00
             38876.25,23620.00 38884.74,23634.00 38884.74,23634.00
             38884.74,23634.00 38902.42,23660.00 38902.42,23660.00
             38902.42,23660.00 38914.74,23682.00 38914.74,23682.00
             38916.86,23686.34 38918.48,23691.30 38923.04,23693.69
             38923.04,23693.69 38958.00,23702.00 38958.00,23702.00
             38958.00,23702.00 38987.00,23708.55 38987.00,23708.55
             38987.00,23708.55 39026.00,23716.89 39026.00,23716.89
             39026.00,23716.89 39050.00,23724.12 39050.00,23724.12
             39050.00,23724.12 39074.00,23730.53 39074.00,23730.53
             39074.00,23730.53 39093.00,23735.34 39093.00,23735.34
             39093.00,23735.34 39111.00,23742.31 39111.00,23742.31
             39111.00,23742.31 39130.00,23748.34 39130.00,23748.34
             39130.00,23748.34 39157.00,23758.30 39157.00,23758.30
             39157.00,23758.30 39174.00,23763.02 39174.00,23763.02
             39174.00,23763.02 39204.00,23773.31 39204.00,23773.31
             39204.00,23773.31 39237.00,23779.42 39237.00,23779.42
             39250.44,23782.43 39267.97,23790.17 39279.00,23798.38
             39294.74,23810.09 39311.55,23829.90 39317.28,23849.00
             39317.28,23849.00 39321.44,23876.00 39321.44,23876.00
             39322.69,23883.24 39324.08,23883.78 39326.30,23890.00
             39330.59,23902.01 39329.26,23905.12 39338.44,23916.00
             39346.33,23925.36 39357.32,23931.43 39366.00,23940.00
             39369.47,23943.44 39373.35,23947.15 39376.32,23951.00
             39378.41,23953.71 39380.71,23958.33 39383.21,23960.16
             39383.21,23960.16 39406.00,23970.61 39406.00,23970.61
             39418.38,23978.15 39429.24,23990.53 39432.33,24005.00
             39433.28,24009.44 39433.05,24017.23 39433.00,24022.00
             39432.86,24033.87 39426.19,24046.37 39421.31,24057.00
             39421.31,24057.00 39400.28,24104.00 39400.28,24104.00
             39400.28,24104.00 39370.42,24170.00 39370.42,24170.00
             39370.42,24170.00 39342.57,24230.00 39342.57,24230.00
             39338.04,24237.35 39332.68,24243.89 39326.00,24249.39
             39321.34,24253.22 39312.15,24259.08 39309.04,24263.09
             39302.06,24272.07 39293.04,24289.50 39287.89,24300.00
             39287.89,24300.00 39276.78,24321.00 39276.78,24321.00
             39276.78,24321.00 39266.42,24346.00 39266.42,24346.00
             39259.78,24361.85 39261.34,24364.66 39257.57,24378.00
             39257.57,24378.00 39253.43,24391.00 39253.43,24391.00
             39253.43,24391.00 39250.91,24401.00 39250.91,24401.00
             39250.91,24401.00 39245.68,24416.00 39245.68,24416.00
             39245.68,24416.00 39244.39,24425.00 39244.39,24425.00
             39244.39,24425.00 39240.29,24447.00 39240.29,24447.00
             39240.29,24447.00 39236.71,24486.00 39236.71,24486.00
             39236.71,24486.00 39232.14,24504.00 39232.14,24504.00
             39232.14,24504.00 39228.71,24541.00 39228.71,24541.00
             39227.60,24549.53 39221.27,24571.54 39218.31,24580.00
             39218.31,24580.00 39207.31,24602.00 39207.31,24602.00
             39207.31,24602.00 39188.43,24649.00 39188.43,24649.00
             39188.43,24649.00 39185.56,24658.00 39185.56,24658.00
             39185.56,24658.00 39181.22,24669.00 39181.22,24669.00
             39181.22,24669.00 39175.80,24686.00 39175.80,24686.00
             39175.80,24686.00 39164.52,24712.00 39164.52,24712.00
             39164.52,24712.00 39161.57,24724.00 39161.57,24724.00
             39161.57,24724.00 39150.88,24754.00 39150.88,24754.00
             39150.88,24754.00 39141.87,24769.00 39141.87,24769.00
             39141.87,24769.00 39133.57,24786.00 39133.57,24786.00
             39133.57,24786.00 39113.31,24821.00 39113.31,24821.00
             39113.31,24821.00 39097.55,24859.00 39097.55,24859.00
             39097.55,24859.00 39074.42,24914.00 39074.42,24914.00
             39074.42,24914.00 39063.13,24942.00 39063.13,24942.00
             39063.13,24942.00 39051.42,24967.00 39051.42,24967.00
             39051.42,24967.00 39033.68,25009.00 39033.68,25009.00
             39033.68,25009.00 39025.78,25023.00 39025.78,25023.00
             39025.78,25023.00 39016.40,25042.00 39016.40,25042.00
             39016.40,25042.00 39006.51,25057.00 39006.51,25057.00
             39006.51,25057.00 38997.57,25076.00 38997.57,25076.00
             38997.57,25076.00 38983.47,25100.00 38983.47,25100.00
             38975.10,25117.61 38976.00,25121.61 38971.76,25139.00
             38971.76,25139.00 38967.88,25151.00 38967.88,25151.00
             38967.88,25151.00 38963.61,25172.00 38963.61,25172.00
             38963.61,25172.00 38956.65,25205.00 38956.65,25205.00
             38956.65,25205.00 38948.33,25226.00 38948.33,25226.00
             38948.33,25226.00 38940.98,25254.00 38940.98,25254.00
             38940.98,25254.00 38934.03,25273.00 38934.03,25273.00
             38934.03,25273.00 38924.66,25306.00 38924.66,25306.00
             38924.66,25306.00 38918.44,25323.00 38918.44,25323.00
             38918.44,25323.00 38914.11,25342.00 38914.11,25342.00
             38914.11,25342.00 38909.72,25356.00 38909.72,25356.00
             38909.72,25356.00 38907.23,25366.00 38907.23,25366.00
             38907.23,25366.00 38900.44,25383.00 38900.44,25383.00
             38900.44,25383.00 38897.57,25395.00 38897.57,25395.00
             38897.57,25395.00 38893.24,25409.00 38893.24,25409.00
             38893.24,25409.00 38889.57,25426.00 38889.57,25426.00
             38889.57,25426.00 38883.69,25442.00 38883.69,25442.00
             38883.69,25442.00 38877.43,25463.00 38877.43,25463.00
             38877.43,25463.00 38871.25,25489.00 38871.25,25489.00
             38868.07,25498.94 38864.47,25503.31 38859.89,25512.00
             38859.89,25512.00 38853.22,25527.00 38853.22,25527.00
             38850.05,25533.10 38844.19,25542.68 38842.22,25549.00
             38842.22,25549.00 38839.76,25565.00 38839.76,25565.00
             38839.76,25565.00 38834.29,25585.00 38834.29,25585.00
             38833.11,25593.96 38833.63,25603.40 38830.56,25612.00
             38827.62,25620.24 38823.54,25627.33 38817.87,25634.00
             38817.87,25634.00 38805.79,25647.00 38805.79,25647.00
             38805.79,25647.00 38787.31,25682.00 38787.31,25682.00
             38787.31,25682.00 38782.33,25697.00 38782.33,25697.00
             38782.33,25697.00 38773.15,25724.00 38773.15,25724.00
             38773.15,25724.00 38770.11,25738.00 38770.11,25738.00
             38770.11,25738.00 38757.77,25779.00 38757.77,25779.00
             38757.77,25779.00 38744.11,25807.00 38744.11,25807.00
             38744.11,25807.00 38737.88,25821.00 38737.88,25821.00
             38737.88,25821.00 38729.90,25834.00 38729.90,25834.00
             38729.90,25834.00 38723.14,25849.00 38723.14,25849.00
             38723.14,25849.00 38715.68,25861.00 38715.68,25861.00
             38715.68,25861.00 38709.40,25874.00 38709.40,25874.00
             38709.40,25874.00 38703.27,25885.00 38703.27,25885.00
             38703.27,25885.00 38694.77,25910.00 38694.77,25910.00
             38694.77,25910.00 38687.83,25924.00 38687.83,25924.00
             38687.83,25924.00 38683.66,25937.00 38683.66,25937.00
             38683.66,25937.00 38677.14,25953.00 38677.14,25953.00
             38677.14,25953.00 38666.46,25975.00 38666.46,25975.00
             38666.46,25975.00 38663.23,25987.00 38663.23,25987.00
             38663.23,25987.00 38656.70,26004.00 38656.70,26004.00
             38656.70,26004.00 38651.95,26020.00 38651.95,26020.00
             38651.95,26020.00 38640.44,26046.00 38640.44,26046.00
             38640.44,26046.00 38633.99,26076.00 38633.99,26076.00
             38633.99,26076.00 38630.00,26089.00 38630.00,26089.00
             38630.00,26089.00 38627.23,26100.00 38627.23,26100.00
             38627.23,26100.00 38620.03,26119.00 38620.03,26119.00
             38620.03,26119.00 38617.23,26130.00 38617.23,26130.00
             38617.23,26130.00 38605.46,26162.00 38605.46,26162.00
             38605.46,26162.00 38596.99,26186.00 38596.99,26186.00
             38596.99,26186.00 38590.69,26201.00 38590.69,26201.00
             38590.69,26201.00 38583.01,26217.00 38583.01,26217.00
             38583.01,26217.00 38577.18,26235.00 38577.18,26235.00
             38577.18,26235.00 38572.21,26246.00 38572.21,26246.00
             38572.21,26246.00 38559.68,26277.00 38559.68,26277.00
             38559.68,26277.00 38552.31,26291.00 38552.31,26291.00
             38552.31,26291.00 38543.72,26312.00 38543.72,26312.00
             38543.72,26312.00 38534.25,26330.00 38534.25,26330.00
             38534.25,26330.00 38526.89,26346.00 38526.89,26346.00
             38526.89,26346.00 38520.27,26358.00 38520.27,26358.00
             38520.27,26358.00 38512.69,26374.00 38512.69,26374.00
             38512.69,26374.00 38501.12,26393.00 38501.12,26393.00
             38501.12,26393.00 38487.42,26424.00 38487.42,26424.00
             38487.42,26424.00 38481.72,26440.00 38481.72,26440.00
             38481.72,26440.00 38479.23,26450.00 38479.23,26450.00
             38479.23,26450.00 38474.65,26464.00 38474.65,26464.00
             38474.65,26464.00 38469.57,26489.00 38469.57,26489.00
             38469.57,26489.00 38460.02,26521.00 38460.02,26521.00
             38460.02,26521.00 38456.56,26533.00 38456.56,26533.00
             38456.56,26533.00 38450.45,26547.00 38450.45,26547.00
             38450.45,26547.00 38443.72,26565.00 38443.72,26565.00
             38443.72,26565.00 38437.42,26579.00 38437.42,26579.00
             38437.42,26579.00 38428.99,26606.00 38428.99,26606.00
             38428.99,26606.00 38423.20,26619.00 38423.20,26619.00
             38423.20,26619.00 38415.19,26639.00 38415.19,26639.00
             38415.19,26639.00 38407.31,26653.00 38407.31,26653.00
             38407.31,26653.00 38394.69,26677.00 38394.69,26677.00
             38394.69,26677.00 38386.95,26690.00 38386.95,26690.00
             38377.96,26706.54 38364.08,26733.18 38353.80,26748.00
             38353.80,26748.00 38331.78,26777.00 38331.78,26777.00
             38331.78,26777.00 38319.20,26796.00 38319.20,26796.00
             38319.20,26796.00 38301.43,26815.00 38301.43,26815.00
             38293.63,26824.12 38294.65,26825.43 38289.08,26833.00
             38289.08,26833.00 38269.78,26857.00 38269.78,26857.00
             38269.78,26857.00 38256.32,26881.00 38256.32,26881.00
             38256.32,26881.00 38250.14,26895.00 38250.14,26895.00
             38242.91,26908.22 38240.31,26909.79 38232.44,26921.00
             38232.44,26921.00 38222.11,26936.00 38222.11,26936.00
             38222.11,26936.00 38178.72,26986.72 38178.72,26986.72
             38178.72,26986.72 38148.04,27015.00 38148.04,27015.00
             38148.04,27015.00 38139.96,27024.00 38139.96,27024.00
             38139.96,27024.00 38120.09,27044.04 38120.09,27044.04
             38120.09,27044.04 38107.00,27057.96 38107.00,27057.96
             38107.00,27057.96 38088.00,27074.04 38088.00,27074.04
             38088.00,27074.04 38071.83,27091.58 38071.83,27091.58
             38061.77,27101.21 38050.01,27108.78 38039.00,27117.23
             38039.00,27117.23 38013.00,27137.98 38013.00,27137.98
             38013.00,27137.98 37983.00,27157.14 37983.00,27157.14
             37983.00,27157.14 37966.00,27165.95 37966.00,27165.95
             37956.70,27171.79 37954.70,27177.25 37936.00,27187.11
             37936.00,27187.11 37915.00,27196.31 37915.00,27196.31
             37915.00,27196.31 37893.00,27207.74 37893.00,27207.74
             37893.00,27207.74 37875.00,27215.89 37875.00,27215.89
             37875.00,27215.89 37859.00,27224.73 37859.00,27224.73
             37859.00,27224.73 37828.00,27240.31 37828.00,27240.31
             37828.00,27240.31 37808.00,27252.74 37808.00,27252.74
             37808.00,27252.74 37783.00,27263.97 37783.00,27263.97
             37783.00,27263.97 37765.00,27273.69 37765.00,27273.69
             37765.00,27273.69 37732.00,27287.43 37732.00,27287.43
             37732.00,27287.43 37699.00,27301.01 37699.00,27301.01
             37699.00,27301.01 37682.00,27308.31 37682.00,27308.31
             37682.00,27308.31 37651.00,27317.06 37651.00,27317.06
             37651.00,27317.06 37625.00,27327.95 37625.00,27327.95
             37625.00,27327.95 37568.00,27348.06 37568.00,27348.06
             37568.00,27348.06 37544.00,27358.40 37544.00,27358.40
             37544.00,27358.40 37519.00,27367.09 37519.00,27367.09
             37519.00,27367.09 37504.00,27373.31 37504.00,27373.31
             37496.61,27375.99 37488.76,27378.26 37481.00,27379.57
             37481.00,27379.57 37466.00,27382.13 37466.00,27382.13
             37466.00,27382.13 37450.00,27391.14 37450.00,27391.14
             37450.00,27391.14 37418.00,27409.55 37418.00,27409.55
             37406.56,27416.32 37387.76,27423.54 37375.00,27428.60
             37356.90,27435.78 37317.85,27443.33 37298.00,27445.72
             37298.00,27445.72 37282.00,27447.28 37282.00,27447.28
             37282.00,27447.28 37248.00,27453.46 37248.00,27453.46
             37248.00,27453.46 37206.00,27461.75 37206.00,27461.75
             37206.00,27461.75 37183.00,27464.80 37183.00,27464.80
             37183.00,27464.80 37163.00,27469.77 37163.00,27469.77
             37163.00,27469.77 37137.00,27474.58 37137.00,27474.58
             37137.00,27474.58 37114.00,27477.27 37114.00,27477.27
             37114.00,27477.27 37087.00,27481.72 37087.00,27481.72
             37087.00,27481.72 37069.00,27483.29 37069.00,27483.29
             37069.00,27483.29 37044.00,27487.72 37044.00,27487.72
             37044.00,27487.72 37021.00,27489.00 37021.00,27489.00
             37021.00,27489.00 36992.00,27491.00 36992.00,27491.00
             36968.77,27491.04 36937.64,27495.68 36916.00,27504.07
             36916.00,27504.07 36892.00,27516.69 36892.00,27516.69
             36874.20,27524.84 36861.07,27530.60 36846.00,27543.85
             36843.00,27546.49 36839.77,27548.97 36837.14,27552.00
             36832.79,27557.02 36832.71,27562.74 36831.58,27569.00
             36830.26,27576.31 36828.53,27582.32 36825.19,27589.00
             36813.98,27611.45 36799.56,27629.66 36791.75,27654.00
             36789.05,27662.39 36786.34,27671.25 36785.28,27680.00
             36785.28,27680.00 36783.58,27695.00 36783.58,27695.00
             36783.58,27695.00 36779.57,27714.00 36779.57,27714.00
             36779.57,27714.00 36775.24,27728.00 36775.24,27728.00
             36775.24,27728.00 36769.28,27757.00 36769.28,27757.00
             36769.28,27757.00 36765.43,27769.00 36765.43,27769.00
             36765.43,27769.00 36762.91,27779.00 36762.91,27779.00
             36762.91,27779.00 36756.01,27795.00 36756.01,27795.00
             36756.01,27795.00 36743.68,27825.00 36743.68,27825.00
             36743.68,27825.00 36736.89,27837.00 36736.89,27837.00
             36731.93,27846.35 36726.02,27860.47 36726.00,27871.00
             36726.00,27871.00 36726.00,27891.00 36726.00,27891.00
             36726.10,27898.21 36727.69,27899.44 36729.57,27906.00
             36731.16,27911.55 36731.91,27916.65 36734.31,27922.00
             36739.78,27934.21 36745.47,27940.52 36749.57,27955.00
             36749.57,27955.00 36756.83,27993.00 36756.83,27993.00
             36756.83,27993.00 36759.46,28020.00 36759.46,28020.00
             36759.46,28020.00 36767.55,28046.00 36767.55,28046.00
             36767.55,28046.00 36776.69,28064.00 36776.69,28064.00
             36776.69,28064.00 36785.12,28083.00 36785.12,28083.00
             36785.12,28083.00 36793.22,28097.00 36793.22,28097.00
             36793.22,28097.00 36800.60,28114.00 36800.60,28114.00
             36806.24,28125.31 36812.62,28135.91 36816.65,28148.00
             36816.65,28148.00 36820.60,28164.00 36820.60,28164.00
             36822.28,28169.14 36825.01,28171.97 36827.57,28181.00
             36827.57,28181.00 36829.92,28191.00 36829.92,28191.00
             36829.92,28191.00 36833.57,28202.00 36833.57,28202.00
             36835.46,28208.68 36834.86,28209.38 36837.81,28217.00
             36837.81,28217.00 36849.81,28246.00 36849.81,28246.00
             36849.81,28246.00 36859.13,28262.00 36859.13,28262.00
             36859.13,28262.00 36867.56,28288.00 36867.56,28288.00
             36867.56,28288.00 36871.38,28305.00 36871.38,28305.00
             36871.38,28305.00 36875.57,28318.00 36875.57,28318.00
             36875.57,28318.00 36879.20,28335.00 36879.20,28335.00
             36879.20,28335.00 36885.48,28368.00 36885.48,28368.00
             36885.48,28368.00 36892.66,28388.00 36892.66,28388.00
             36892.66,28388.00 36899.21,28409.00 36899.21,28409.00
             36899.21,28409.00 36908.55,28427.00 36908.55,28427.00
             36908.55,28427.00 36914.87,28444.00 36914.87,28444.00
             36914.87,28444.00 36922.58,28461.00 36922.58,28461.00
             36922.58,28461.00 36933.43,28488.00 36933.43,28488.00
             36933.43,28488.00 36939.58,28502.00 36939.58,28502.00
             36939.58,28502.00 36944.34,28518.00 36944.34,28518.00
             36944.34,28518.00 36951.56,28538.00 36951.56,28538.00
             36951.56,28538.00 36956.88,28561.00 36956.88,28561.00
             36956.88,28561.00 36968.02,28598.00 36968.02,28598.00
             36968.02,28598.00 36978.46,28629.00 36978.46,28629.00
             36978.46,28629.00 36986.69,28645.00 36986.69,28645.00
             36986.69,28645.00 36995.26,28665.00 36995.26,28665.00
             36995.26,28665.00 37002.63,28678.00 37002.63,28678.00
             37002.63,28678.00 37010.26,28695.00 37010.26,28695.00
             37013.17,28700.64 37016.76,28705.99 37018.91,28712.00
             37023.09,28723.66 37025.17,28744.40 37026.09,28757.00
             37026.09,28757.00 37028.00,28780.00 37028.00,28780.00
             37028.00,28780.00 37028.00,28895.00 37028.00,28895.00
             37028.00,28895.00 37032.00,28945.00 37032.00,28945.00
             37032.00,28945.00 37032.00,29072.00 37032.00,29072.00
             37032.00,29072.00 37029.30,29105.00 37029.30,29105.00
             37029.30,29105.00 37033.58,29124.00 37033.58,29124.00
             37033.58,29124.00 37043.42,29170.00 37043.42,29170.00
             37045.77,29180.63 37048.98,29191.02 37049.00,29202.00
             37049.00,29202.00 37049.00,29208.00 37049.00,29208.00
             37049.00,29208.00 37050.00,29223.00 37050.00,29223.00
             37050.00,29223.00 37050.00,29286.00 37050.00,29286.00
             37050.00,29286.00 37046.17,29317.00 37046.17,29317.00
             37046.17,29317.00 37044.71,29335.00 37044.71,29335.00
             37043.77,29342.20 37042.04,29347.38 37042.00,29355.00
             37042.00,29355.00 37040.91,29376.00 37040.91,29376.00
             37040.27,29384.19 37038.02,29383.43 37038.00,29395.00
             37038.00,29395.00 37038.00,29415.00 37038.00,29415.00
             37038.00,29415.00 37035.00,29449.00 37035.00,29449.00
             37035.00,29449.00 37039.91,29493.00 37039.91,29493.00
             37039.91,29493.00 37039.91,29508.00 37039.91,29508.00
             37039.91,29508.00 37038.00,29518.00 37038.00,29518.00
             37038.00,29518.00 37038.00,29528.00 37038.00,29528.00
             37038.00,29528.00 37036.00,29554.00 37036.00,29554.00
             37036.00,29554.00 37034.13,29580.00 37034.13,29580.00
             37034.13,29580.00 37034.13,29600.00 37034.13,29600.00
             37034.00,29602.19 37033.93,29604.88 37034.13,29607.00
             37034.13,29607.00 37046.19,29636.00 37046.19,29636.00
             37046.19,29636.00 37050.02,29649.00 37050.02,29649.00
             37054.81,29664.47 37057.97,29676.59 37058.00,29693.00
             37058.00,29693.00 37058.00,29798.00 37058.00,29798.00
             37058.00,29798.00 37056.56,29817.00 37056.56,29817.00
             37055.21,29825.56 37054.02,29823.75 37054.00,29834.00
             37054.00,29834.00 37054.00,29853.00 37054.00,29853.00
             37054.00,29853.00 37052.00,29880.00 37052.00,29880.00
             37052.00,29880.00 37052.00,29954.00 37052.00,29954.00
             37052.02,29964.28 37053.05,29961.77 37054.54,29970.00
             37054.54,29970.00 37056.00,29989.00 37056.00,29989.00
             37056.00,29989.00 37056.00,30050.00 37056.00,30050.00
             37056.00,30050.00 37054.04,30073.00 37054.04,30073.00
             37054.04,30073.00 37054.04,30085.00 37054.04,30085.00
             37054.04,30085.00 37052.00,30111.00 37052.00,30111.00
             37052.00,30111.00 37052.00,30250.00 37052.00,30250.00
             37052.02,30259.63 37053.08,30258.76 37054.54,30267.00
             37054.54,30267.00 37056.00,30286.00 37056.00,30286.00
             37056.00,30286.00 37056.00,30367.00 37056.00,30367.00
             37056.01,30373.87 37057.91,30386.70 37060.47,30393.00
             37060.47,30393.00 37068.91,30410.00 37068.91,30410.00
             37068.91,30410.00 37073.20,30425.00 37073.20,30425.00
             37073.20,30425.00 37084.22,30446.00 37084.22,30446.00
             37084.22,30446.00 37092.12,30465.00 37092.12,30465.00
             37092.12,30465.00 37099.69,30478.00 37099.69,30478.00
             37099.69,30478.00 37105.52,30490.00 37105.52,30490.00
             37105.52,30490.00 37112.45,30500.00 37112.45,30500.00
             37112.45,30500.00 37119.06,30512.00 37119.06,30512.00
             37119.06,30512.00 37129.94,30528.00 37129.94,30528.00
             37134.95,30536.13 37138.48,30547.12 37142.44,30556.00
             37142.44,30556.00 37152.54,30575.00 37152.54,30575.00
             37152.54,30575.00 37158.21,30600.00 37158.21,30600.00
             37158.21,30600.00 37168.92,30626.00 37168.92,30626.00
             37168.92,30626.00 37175.37,30648.00 37175.37,30648.00
             37175.37,30648.00 37179.05,30662.00 37179.05,30662.00
             37179.05,30662.00 37190.80,30691.00 37190.80,30691.00
             37190.80,30691.00 37194.92,30703.00 37194.92,30703.00
             37194.92,30703.00 37200.57,30715.00 37200.57,30715.00
             37207.25,30730.61 37209.19,30741.16 37209.00,30758.00
             37208.84,30771.62 37202.24,30783.47 37194.11,30794.00
             37194.11,30794.00 37186.09,30804.00 37186.09,30804.00
             37177.71,30816.33 37172.52,30830.53 37162.70,30842.00
             37153.67,30852.56 37147.91,30855.29 37138.00,30863.31
             37138.00,30863.31 37112.00,30887.01 37112.00,30887.01
             37099.24,30899.49 37085.54,30919.90 37075.52,30935.00
             37070.60,30942.41 37066.66,30950.17 37060.87,30957.00
             37053.38,30965.83 37035.50,30985.67 37027.00,30992.54
             37017.07,31000.57 37004.93,31005.56 36996.17,31015.01
             36981.22,31031.14 36986.76,31027.79 36977.25,31041.00
             36977.25,31041.00 36956.46,31070.00 36956.46,31070.00
             36956.46,31070.00 36943.08,31093.00 36943.08,31093.00
             36943.08,31093.00 36921.72,31118.72 36921.72,31118.72
             36910.95,31129.50 36901.37,31137.14 36893.90,31151.00
             36890.93,31156.51 36890.28,31163.79 36889.00,31170.00
             36886.55,31181.82 36884.02,31189.40 36884.00,31202.00
             36884.00,31202.00 36884.00,31284.00 36884.00,31284.00
             36884.00,31284.00 36882.00,31310.00 36882.00,31310.00
             36882.00,31310.00 36882.00,31318.00 36882.00,31318.00
             36882.00,31318.00 36880.00,31349.00 36880.00,31349.00
             36880.00,31349.00 36878.00,31378.00 36878.00,31378.00
             36878.00,31378.00 36878.00,31404.00 36878.00,31404.00
             36878.00,31404.00 36876.00,31432.00 36876.00,31432.00
             36876.00,31432.00 36876.00,31448.00 36876.00,31448.00
             36876.00,31448.00 36874.00,31476.00 36874.00,31476.00
             36874.00,31476.00 36872.83,31508.00 36872.83,31508.00
             36871.95,31516.12 36870.02,31516.07 36870.00,31527.00
             36870.00,31527.00 36868.83,31562.00 36868.83,31562.00
             36868.83,31562.00 36866.00,31582.00 36866.00,31582.00
             36866.00,31582.00 36866.00,31601.00 36866.00,31601.00
             36866.00,31601.00 36864.00,31628.00 36864.00,31628.00
             36864.00,31628.00 36864.00,31655.00 36864.00,31655.00
             36863.98,31668.12 36859.04,31697.32 36855.28,31710.00
             36855.28,31710.00 36835.89,31757.00 36835.89,31757.00
             36835.89,31757.00 36828.98,31770.00 36828.98,31770.00
             36828.98,31770.00 36824.80,31781.00 36824.80,31781.00
             36824.80,31781.00 36815.19,31801.00 36815.19,31801.00
             36815.19,31801.00 36793.45,31833.00 36793.45,31833.00
             36793.45,31833.00 36787.18,31845.00 36787.18,31845.00
             36787.18,31845.00 36778.26,31859.00 36778.26,31859.00
             36778.26,31859.00 36768.14,31881.00 36768.14,31881.00
             36768.14,31881.00 36755.98,31900.00 36755.98,31900.00
             36755.98,31900.00 36747.47,31917.00 36747.47,31917.00
             36747.47,31917.00 36741.14,31936.00 36741.14,31936.00
             36741.14,31936.00 36731.55,31956.00 36731.55,31956.00
             36731.55,31956.00 36725.40,31980.00 36725.40,31980.00
             36725.40,31980.00 36702.69,32023.00 36702.69,32023.00
             36702.69,32023.00 36683.54,32051.00 36683.54,32051.00
             36683.54,32051.00 36671.52,32065.00 36671.52,32065.00
             36671.52,32065.00 36663.58,32076.00 36663.58,32076.00
             36663.58,32076.00 36653.21,32089.00 36653.21,32089.00
             36653.21,32089.00 36634.52,32116.00 36634.52,32116.00
             36634.52,32116.00 36623.46,32129.00 36623.46,32129.00
             36618.27,32135.34 36604.34,32155.55 36602.75,32163.00
             36602.75,32163.00 36602.75,32185.00 36602.75,32185.00
             36602.81,32200.69 36593.88,32215.24 36583.00,32225.99
             36562.76,32245.96 36535.81,32255.14 36508.00,32257.09
             36508.00,32257.09 36500.00,32257.92 36500.00,32257.92
             36500.00,32257.92 36492.00,32257.09 36492.00,32257.09
             36470.69,32255.60 36446.98,32249.25 36432.81,32231.99
             36429.72,32228.22 36426.35,32223.49 36424.46,32219.00
             36420.67,32210.00 36423.13,32206.33 36414.00,32200.62
             36414.00,32200.62 36382.00,32181.54 36382.00,32181.54
             36382.00,32181.54 36359.00,32169.58 36359.00,32169.58
             36359.00,32169.58 36326.00,32149.64 36326.00,32149.64
             36326.00,32149.64 36291.00,32139.98 36291.00,32139.98
             36291.00,32139.98 36270.00,32132.05 36270.00,32132.05
             36270.00,32132.05 36255.00,32127.31 36255.00,32127.31
             36255.00,32127.31 36243.00,32123.16 36243.00,32123.16
             36243.00,32123.16 36212.00,32118.71 36212.00,32118.71
             36193.88,32116.27 36188.34,32111.67 36173.00,32106.75
             36170.11,32105.82 36159.55,32102.47 36157.17,32103.35
             36154.49,32104.33 36149.02,32111.58 36146.83,32114.00
             36134.54,32127.60 36128.99,32135.13 36121.58,32152.00
             36121.58,32152.00 36114.25,32166.00 36114.25,32166.00
             36114.25,32166.00 36101.43,32194.00 36101.43,32194.00
             36101.43,32194.00 36091.69,32219.00 36091.69,32219.00
             36086.47,32230.33 36070.96,32253.10 36061.91,32261.42
             36047.94,32274.26 36040.08,32276.22 36025.00,32285.20
             35998.82,32300.79 35971.81,32312.00 35942.00,32318.58
             35942.00,32318.58 35920.00,32322.61 35920.00,32322.61
             35906.77,32325.11 35893.56,32328.98 35880.00,32329.00
             35880.00,32329.00 35786.00,32329.00 35786.00,32329.00
             35786.00,32329.00 35757.00,32329.00 35757.00,32329.00
             35757.00,32329.00 35727.00,32331.00 35727.00,32331.00
             35727.00,32331.00 35656.00,32331.00 35656.00,32331.00
             35646.33,32330.98 35630.28,32329.20 35621.00,32326.57
             35621.00,32326.57 35602.00,32319.72 35602.00,32319.72
             35590.27,32316.15 35576.91,32313.19 35566.00,32307.73
             35566.00,32307.73 35541.00,32291.99 35541.00,32291.99
             35541.00,32291.99 35519.00,32283.52 35519.00,32283.52
             35519.00,32283.52 35503.00,32274.26 35503.00,32274.26
             35503.00,32274.26 35491.00,32268.74 35491.00,32268.74
             35491.00,32268.74 35458.00,32250.80 35458.00,32250.80
             35458.00,32250.80 35428.00,32230.33 35428.00,32230.33
             35428.00,32230.33 35407.00,32217.10 35407.00,32217.10
             35407.00,32217.10 35375.00,32191.70 35375.00,32191.70
             35375.00,32191.70 35337.00,32172.69 35337.00,32172.69
             35337.00,32172.69 35325.00,32165.66 35325.00,32165.66
             35325.00,32165.66 35313.00,32158.92 35313.00,32158.92
             35313.00,32158.92 35284.00,32138.35 35284.00,32138.35
             35284.00,32138.35 35265.00,32125.81 35265.00,32125.81
             35265.00,32125.81 35248.00,32115.66 35248.00,32115.66
             35248.00,32115.66 35221.00,32100.58 35221.00,32100.58
             35218.46,32099.14 35211.60,32094.71 35209.01,32094.73
             35205.09,32094.75 35196.39,32106.65 35193.92,32110.00
             35193.92,32110.00 35182.76,32127.00 35182.76,32127.00
             35182.76,32127.00 35173.30,32138.00 35173.30,32138.00
             35173.30,32138.00 35156.35,32159.00 35156.35,32159.00
             35150.28,32166.84 35136.33,32182.67 35132.52,32191.00
             35132.52,32191.00 35128.58,32202.00 35128.58,32202.00
             35128.58,32202.00 35124.09,32213.00 35124.09,32213.00
             35124.09,32213.00 35118.92,32230.00 35118.92,32230.00
             35116.74,32236.33 35106.22,32259.51 35102.77,32265.00
             35098.19,32272.30 35093.20,32277.27 35087.00,32283.09
             35067.44,32301.43 35052.71,32308.76 35027.00,32315.37
             35017.45,32317.82 35007.91,32319.98 34998.00,32320.00
             34998.00,32320.00 34785.00,32320.00 34785.00,32320.00
             34785.00,32320.00 34718.00,32320.00 34718.00,32320.00
             34718.00,32320.00 34676.00,32314.44 34676.00,32314.44
             34676.00,32314.44 34667.00,32313.57 34667.00,32313.57
             34656.88,32312.12 34643.60,32308.79 34634.00,32305.31
             34603.16,32294.11 34590.66,32274.46 34570.57,32251.00
             34570.57,32251.00 34541.83,32221.30 34541.83,32221.30
             34535.58,32215.41 34527.23,32213.10 34520.00,32208.79
             34520.00,32208.79 34492.00,32190.76 34492.00,32190.76
             34492.00,32190.76 34476.00,32182.57 34476.00,32182.57
             34476.00,32182.57 34441.00,32156.45 34441.00,32156.45
             34441.00,32156.45 34428.00,32150.22 34428.00,32150.22
             34428.00,32150.22 34416.00,32143.86 34416.00,32143.86
             34408.16,32140.34 34384.79,32133.47 34376.00,32131.67
             34376.00,32131.67 34359.00,32129.20 34359.00,32129.20
             34359.00,32129.20 34344.00,32125.46 34344.00,32125.46
             34344.00,32125.46 34336.00,32124.57 34336.00,32124.57
             34336.00,32124.57 34293.00,32118.57 34293.00,32118.57
             34293.00,32118.57 34271.00,32113.81 34271.00,32113.81
             34271.00,32113.81 34261.00,32112.57 34261.00,32112.57
             34261.00,32112.57 34243.00,32109.00 34243.00,32109.00
             34242.39,32122.29 34235.94,32134.27 34230.26,32146.00
             34230.26,32146.00 34223.89,32160.00 34223.89,32160.00
             34223.89,32160.00 34206.92,32189.00 34206.92,32189.00
             34206.92,32189.00 34193.67,32208.00 34193.67,32208.00
             34193.67,32208.00 34180.48,32230.00 34180.48,32230.00
             34180.48,32230.00 34166.75,32247.00 34166.75,32247.00
             34149.55,32270.40 34140.47,32285.24 34116.00,32303.27
             34092.20,32320.80 34075.52,32325.37 34048.00,32333.42
             34048.00,32333.42 34008.00,32344.01 34008.00,32344.01
             33987.23,32348.58 33982.29,32352.73 33959.00,32353.00
             33959.00,32353.00 33933.00,32355.16 33933.00,32355.16
             33933.00,32355.16 33904.00,32362.85 33904.00,32362.85
             33893.73,32365.63 33878.61,32367.87 33868.00,32368.00
             33848.31,32368.23 33822.54,32369.71 33804.00,32363.98
             33783.66,32357.68 33779.68,32350.62 33769.00,32347.04
             33769.00,32347.04 33742.00,32338.95 33742.00,32338.95
             33742.00,32338.95 33702.00,32322.56 33702.00,32322.56
             33702.00,32322.56 33676.00,32307.42 33676.00,32307.42
             33676.00,32307.42 33649.00,32291.66 33649.00,32291.66
             33649.00,32291.66 33626.00,32275.53 33626.00,32275.53
             33626.00,32275.53 33601.00,32253.67 33601.00,32253.67
             33601.00,32253.67 33585.00,32242.33 33585.00,32242.33
             33585.00,32242.33 33566.00,32227.02 33566.00,32227.02
             33566.00,32227.02 33539.00,32209.92 33539.00,32209.92
             33539.00,32209.92 33506.00,32188.06 33506.00,32188.06
             33506.00,32188.06 33481.00,32173.99 33481.00,32173.99
             33481.00,32173.99 33469.00,32166.51 33469.00,32166.51
             33469.00,32166.51 33455.00,32160.03 33455.00,32160.03
             33455.00,32160.03 33442.00,32152.37 33442.00,32152.37
             33442.00,32152.37 33429.00,32146.89 33429.00,32146.89
             33429.00,32146.89 33408.00,32136.69 33408.00,32136.69
             33408.00,32136.69 33395.00,32129.37 33395.00,32129.37
             33395.00,32129.37 33385.00,32124.64 33385.00,32124.64
             33368.45,32115.98 33360.65,32109.51 33342.00,32104.14
             33337.77,32102.92 33330.27,32099.91 33326.11,32101.60
             33323.27,32102.75 33322.23,32105.48 33320.90,32108.00
             33320.90,32108.00 33311.86,32125.00 33311.86,32125.00
             33311.86,32125.00 33286.87,32177.00 33286.87,32177.00
             33286.87,32177.00 33277.03,32201.00 33277.03,32201.00
             33273.03,32208.95 33254.03,32239.51 33248.56,32246.00
             33232.00,32265.66 33205.81,32286.76 33185.00,32302.15
             33185.00,32302.15 33162.00,32319.65 33162.00,32319.65
             33151.19,32326.85 33118.30,32343.27 33106.00,32347.94
             33106.00,32347.94 33085.00,32354.74 33085.00,32354.74
             33085.00,32354.74 33073.00,32359.31 33073.00,32359.31
             33064.57,32362.31 33055.80,32364.22 33047.00,32365.75
             33047.00,32365.75 32990.00,32372.83 32990.00,32372.83
             32974.66,32374.37 32969.96,32373.51 32954.00,32377.23
             32943.26,32379.74 32927.49,32387.89 32917.00,32392.69
             32917.00,32392.69 32885.00,32405.69 32885.00,32405.69
             32885.00,32405.69 32854.09,32416.08 32854.09,32416.08
             32851.00,32418.01 32845.79,32424.89 32843.26,32428.00
             32834.89,32438.29 32829.07,32445.54 32822.20,32457.00
             32822.20,32457.00 32805.51,32489.00 32805.51,32489.00
             32805.51,32489.00 32795.81,32505.00 32795.81,32505.00
             32784.17,32524.01 32777.54,32534.13 32760.00,32548.72
             32760.00,32548.72 32737.00,32564.21 32737.00,32564.21
             32737.00,32564.21 32729.00,32572.54 32729.00,32572.54
             32729.00,32572.54 32713.00,32587.91 32713.00,32587.91
             32704.76,32595.59 32693.60,32603.60 32684.00,32609.58
             32665.61,32621.02 32658.10,32621.27 32642.00,32629.11
             32642.00,32629.11 32604.00,32651.86 32604.00,32651.86
             32604.00,32651.86 32577.00,32670.47 32577.00,32670.47
             32577.00,32670.47 32556.00,32687.12 32556.00,32687.12
             32556.00,32687.12 32528.00,32706.00 32528.00,32706.00
             32519.21,32711.86 32510.40,32717.89 32501.00,32722.74
             32501.00,32722.74 32467.00,32739.37 32467.00,32739.37
             32467.00,32739.37 32432.00,32755.55 32432.00,32755.55
             32407.29,32765.44 32377.95,32775.18 32355.00,32788.34
             32351.20,32790.51 32335.89,32801.16 32333.47,32804.09
             32330.67,32807.49 32327.85,32815.02 32318.83,32825.00
             32312.34,32832.18 32302.10,32839.89 32294.00,32845.33
             32268.13,32862.68 32254.52,32866.37 32226.00,32875.67
             32226.00,32875.67 32196.00,32885.85 32196.00,32885.85
             32196.00,32885.85 32181.00,32889.39 32181.00,32889.39
             32181.00,32889.39 32164.00,32891.96 32164.00,32891.96
             32164.00,32891.96 32137.00,32905.57 32137.00,32905.57
             32120.40,32912.67 32081.82,32922.79 32064.00,32923.00
             32045.32,32923.21 32020.67,32924.56 32003.00,32919.57
             31993.80,32916.98 31984.83,32913.08 31977.00,32907.56
             31977.00,32907.56 31961.00,32895.44 31961.00,32895.44
             31961.00,32895.44 31935.00,32886.95 31935.00,32886.95
             31935.00,32886.95 31906.00,32873.34 31906.00,32873.34
             31906.00,32873.34 31895.00,32869.58 31895.00,32869.58
             31895.00,32869.58 31880.00,32863.45 31880.00,32863.45
             31880.00,32863.45 31852.00,32851.69 31852.00,32851.69
             31852.00,32851.69 31837.00,32843.46 31837.00,32843.46
             31828.07,32837.71 31819.84,32831.10 31810.00,32826.87
             31810.00,32826.87 31785.00,32818.14 31785.00,32818.14
             31785.00,32818.14 31753.00,32802.87 31753.00,32802.87
             31743.73,32798.90 31737.80,32798.18 31728.00,32792.57
             31728.00,32792.57 31709.00,32780.33 31709.00,32780.33
             31709.00,32780.33 31677.00,32761.08 31677.00,32761.08
             31677.00,32761.08 31668.00,32753.30 31668.00,32753.30
             31668.00,32753.30 31658.00,32745.54 31658.00,32745.54
             31658.00,32745.54 31646.00,32735.47 31646.00,32735.47
             31627.78,32721.78 31627.16,32722.87 31609.00,32712.58
             31609.00,32712.58 31595.00,32704.12 31595.00,32704.12
             31595.00,32704.12 31572.00,32693.69 31572.00,32693.69
             31572.00,32693.69 31552.00,32682.32 31552.00,32682.32
             31552.00,32682.32 31506.00,32660.69 31506.00,32660.69
             31506.00,32660.69 31493.00,32654.20 31493.00,32654.20
             31493.00,32654.20 31469.00,32648.00 31469.00,32648.00
             31450.76,32641.82 31435.98,32632.27 31423.05,32617.99
             31404.79,32597.82 31402.81,32581.76 31395.58,32557.00
             31395.58,32557.00 31388.88,32533.00 31388.88,32533.00
             31388.88,32533.00 31386.25,32520.00 31386.25,32520.00
             31386.25,32520.00 31379.89,32501.00 31379.89,32501.00
             31379.89,32501.00 31376.49,32484.00 31376.49,32484.00
             31376.49,32484.00 31372.43,32472.00 31372.43,32472.00
             31372.43,32472.00 31370.22,32462.00 31370.22,32462.00
             31370.22,32462.00 31367.09,32454.00 31367.09,32454.00
             31367.09,32454.00 31364.12,32445.00 31364.12,32445.00
             31358.55,32432.04 31344.61,32416.31 31336.70,32404.00
             31336.70,32404.00 31317.66,32367.00 31317.66,32367.00
             31317.66,32367.00 31299.88,32342.00 31299.88,32342.00
             31297.38,32338.71 31292.60,32331.65 31289.91,32329.27
             31289.91,32329.27 31272.00,32318.94 31272.00,32318.94
             31263.50,32313.66 31254.79,32305.59 31248.30,32298.00
             31237.78,32285.71 31230.36,32270.96 31227.46,32255.00
             31227.46,32255.00 31226.00,32243.00 31226.00,32243.00
             31224.30,32230.59 31224.15,32234.25 31224.00,32221.00
             31224.00,32221.00 31222.03,32196.00 31222.03,32196.00
             31222.03,32196.00 31222.91,32187.00 31222.91,32187.00
             31222.91,32187.00 31223.46,32179.00 31223.46,32179.00
             31223.46,32179.00 31242.80,32129.00 31242.80,32129.00
             31242.80,32129.00 31247.09,32113.00 31247.09,32113.00
             31247.09,32113.00 31265.31,32066.00 31265.31,32066.00
             31265.31,32066.00 31277.14,32044.00 31277.14,32044.00
             31277.14,32044.00 31292.86,32016.00 31292.86,32016.00
             31292.86,32016.00 31301.63,32002.00 31301.63,32002.00
             31301.63,32002.00 31311.93,31980.00 31311.93,31980.00
             31318.70,31962.68 31322.47,31948.67 31333.75,31933.00
             31344.92,31917.47 31368.00,31901.85 31385.00,31892.89
             31385.00,31892.89 31410.00,31883.08 31410.00,31883.08
             31410.00,31883.08 31427.00,31875.69 31427.00,31875.69
             31427.00,31875.69 31453.00,31868.57 31453.00,31868.57
             31453.00,31868.57 31476.00,31860.72 31476.00,31860.72
             31476.00,31860.72 31502.00,31853.96 31502.00,31853.96
             31502.00,31853.96 31521.00,31847.72 31521.00,31847.72
             31521.00,31847.72 31540.00,31841.94 31540.00,31841.94
             31540.00,31841.94 31571.00,31829.88 31571.00,31829.88
             31571.00,31829.88 31595.00,31825.54 31595.00,31825.54
             31595.00,31825.54 31616.00,31819.88 31616.00,31819.88
             31631.64,31816.17 31641.70,31815.02 31657.00,31807.67
             31662.62,31804.98 31674.49,31793.68 31681.00,31788.88
             31681.00,31788.88 31710.00,31768.48 31710.00,31768.48
             31710.00,31768.48 31718.00,31761.09 31718.00,31761.09
             31718.00,31761.09 31730.70,31749.80 31730.70,31749.80
             31730.70,31749.80 31738.95,31741.29 31738.95,31741.29
             31738.95,31741.29 31778.00,31707.21 31778.00,31707.21
             31778.00,31707.21 31798.79,31691.82 31798.79,31691.82
             31801.50,31689.01 31804.14,31683.55 31806.52,31680.00
             31806.52,31680.00 31822.61,31659.00 31822.61,31659.00
             31822.61,31659.00 31841.72,31638.00 31841.72,31638.00
             31841.72,31638.00 31857.17,31620.00 31857.17,31620.00
             31857.17,31620.00 31886.00,31590.96 31886.00,31590.96
             31886.00,31590.96 31898.00,31579.29 31898.00,31579.29
             31898.00,31579.29 31915.00,31566.10 31915.00,31566.10
             31915.00,31566.10 31926.00,31559.28 31926.00,31559.28
             31936.19,31552.27 31946.02,31544.68 31957.00,31538.89
             31964.44,31534.97 31972.19,31532.81 31980.00,31529.95
             31991.31,31525.80 31996.68,31523.18 32009.00,31520.80
             32028.07,31517.12 32048.61,31518.03 32068.00,31518.00
             32078.45,31517.98 32085.19,31515.63 32095.00,31512.72
             32103.94,31510.07 32107.82,31510.31 32114.91,31502.96
             32121.21,31496.43 32123.44,31488.88 32127.26,31481.00
             32127.26,31481.00 32132.68,31470.00 32132.68,31470.00
             32132.68,31470.00 32136.58,31458.00 32136.58,31458.00
             32142.11,31443.11 32141.98,31428.54 32142.00,31413.00
             32142.00,31413.00 32144.72,31389.00 32144.72,31389.00
             32144.72,31389.00 32146.00,31363.00 32146.00,31363.00
             32146.00,31363.00 32146.00,31280.00 32146.00,31280.00
             32145.96,31272.06 32143.69,31255.70 32141.58,31248.00
             32141.58,31248.00 32136.90,31232.00 32136.90,31232.00
             32136.90,31232.00 32135.39,31222.00 32135.39,31222.00
             32135.39,31222.00 32132.46,31209.00 32132.46,31209.00
             32132.46,31209.00 32131.39,31197.00 32131.39,31197.00
             32131.39,31197.00 32127.53,31178.00 32127.53,31178.00
             32127.53,31178.00 32124.46,31166.00 32124.46,31166.00
             32124.46,31166.00 32122.19,31149.00 32122.19,31149.00
             32122.19,31149.00 32118.29,31133.00 32118.29,31133.00
             32118.29,31133.00 32116.54,31119.00 32116.54,31119.00
             32116.54,31119.00 32112.90,31106.00 32112.90,31106.00
             32112.90,31106.00 32111.19,31094.00 32111.19,31094.00
             32111.19,31094.00 32106.44,31072.00 32106.44,31072.00
             32106.44,31072.00 32102.56,31043.00 32102.56,31043.00
             32102.56,31043.00 32097.44,31018.00 32097.44,31018.00
             32097.44,31018.00 32091.83,30967.00 32091.83,30967.00
             32091.83,30967.00 32089.00,30934.00 32089.00,30934.00
             32089.00,30934.00 32089.00,30896.00 32089.00,30896.00
             32089.00,30896.00 32096.00,30830.00 32096.00,30830.00
             32096.00,30830.00 32097.00,30794.00 32097.00,30794.00
             32097.15,30781.33 32105.30,30764.05 32107.56,30750.00
             32107.56,30750.00 32109.46,30735.00 32109.46,30735.00
             32109.46,30735.00 32111.70,30725.00 32111.70,30725.00
             32112.46,30719.66 32111.37,30718.60 32113.01,30711.00
             32113.01,30711.00 32118.52,30692.00 32118.52,30692.00
             32118.52,30692.00 32121.16,30679.00 32121.16,30679.00
             32121.16,30679.00 32124.69,30667.00 32124.69,30667.00
             32124.69,30667.00 32127.42,30641.00 32127.42,30641.00
             32127.42,30641.00 32131.72,30620.00 32131.72,30620.00
             32131.72,30620.00 32133.81,30607.00 32133.81,30607.00
             32133.81,30607.00 32135.68,30599.00 32135.68,30599.00
             32135.68,30599.00 32136.29,30589.00 32136.29,30589.00
             32136.29,30589.00 32138.70,30577.00 32138.70,30577.00
             32138.70,30577.00 32139.29,30567.00 32139.29,30567.00
             32142.46,30542.65 32142.96,30545.71 32143.00,30520.00
             32143.00,30520.00 32145.83,30488.00 32145.83,30488.00
             32145.83,30488.00 32147.46,30468.00 32147.46,30468.00
             32147.46,30468.00 32152.90,30445.00 32152.90,30445.00
             32152.90,30445.00 32152.90,30437.00 32152.90,30437.00
             32152.90,30437.00 32154.00,30426.00 32154.00,30426.00
             32154.00,30426.00 32154.00,30390.00 32154.00,30390.00
             32153.85,30377.84 32150.42,30370.79 32148.46,30360.00
             32148.46,30360.00 32146.00,30330.00 32146.00,30330.00
             32146.00,30330.00 32146.00,30270.00 32146.00,30270.00
             32145.98,30259.61 32143.92,30249.25 32142.43,30239.00
             32142.43,30239.00 32138.39,30209.00 32138.39,30209.00
             32138.39,30209.00 32135.46,30196.00 32135.46,30196.00
             32135.46,30196.00 32133.72,30176.00 32133.72,30176.00
             32133.72,30176.00 32130.00,30133.00 32130.00,30133.00
             32130.00,30133.00 32130.00,30087.00 32130.00,30087.00
             32130.00,30087.00 32128.00,30057.00 32128.00,30057.00
             32128.00,30057.00 32128.00,30007.00 32128.00,30007.00
             32128.00,30007.00 32130.00,29977.00 32130.00,29977.00
             32130.00,29977.00 32130.00,29951.00 32130.00,29951.00
             32130.00,29951.00 32133.29,29913.00 32133.29,29913.00
             32134.47,29905.42 32135.96,29905.04 32136.00,29896.00
             32136.00,29896.00 32136.00,29887.00 32136.00,29887.00
             32136.00,29887.00 32137.00,29871.00 32137.00,29871.00
             32137.00,29871.00 32138.17,29846.00 32138.17,29846.00
             32138.17,29846.00 32139.83,29834.00 32139.83,29834.00
             32139.83,29834.00 32142.15,29806.00 32142.15,29806.00
             32142.15,29806.00 32147.45,29772.00 32147.45,29772.00
             32148.95,29764.54 32150.90,29760.00 32151.00,29752.00
             32151.00,29752.00 32151.00,29737.00 32151.00,29737.00
             32150.98,29727.01 32149.54,29726.44 32148.30,29718.00
             32148.30,29718.00 32146.00,29690.00 32146.00,29690.00
             32146.00,29690.00 32146.00,29596.00 32146.00,29596.00
             32146.03,29577.02 32150.53,29564.72 32155.98,29547.00
             32155.98,29547.00 32160.67,29531.00 32160.67,29531.00
             32160.67,29531.00 32165.97,29516.00 32165.97,29516.00
             32165.97,29516.00 32171.08,29499.00 32171.08,29499.00
             32175.37,29486.54 32185.69,29472.12 32192.11,29460.00
             32192.11,29460.00 32199.31,29445.00 32199.31,29445.00
             32199.31,29445.00 32219.51,29410.00 32219.51,29410.00
             32219.51,29410.00 32224.48,29399.00 32224.48,29399.00
             32224.48,29399.00 32229.69,29389.00 32229.69,29389.00
             32229.69,29389.00 32235.60,29372.00 32235.60,29372.00
             32235.60,29372.00 32242.24,29355.00 32242.24,29355.00
             32242.24,29355.00 32245.49,29337.00 32245.49,29337.00
             32246.66,29332.66 32250.43,29325.78 32250.33,29322.00
             32250.10,29313.43 32242.57,29298.54 32241.30,29290.00
             32241.30,29290.00 32238.83,29261.00 32238.83,29261.00
             32238.83,29261.00 32231.23,29221.00 32231.23,29221.00
             32226.81,29206.26 32221.09,29200.82 32215.31,29188.00
             32215.31,29188.00 32203.55,29158.00 32203.55,29158.00
             32203.55,29158.00 32199.06,29148.00 32199.06,29148.00
             32199.06,29148.00 32194.57,29135.00 32194.57,29135.00
             32182.69,29107.00 32160.05,29076.19 32160.00,29045.00
             32160.00,29045.00 32160.00,28996.00 32160.00,28996.00
             32160.02,28984.87 32163.62,28969.49 32167.44,28959.00
             32167.44,28959.00 32171.91,28948.00 32171.91,28948.00
             32171.91,28948.00 32180.43,28922.00 32180.43,28922.00
             32180.43,28922.00 32200.66,28878.00 32200.66,28878.00
             32200.66,28878.00 32206.32,28863.00 32206.32,28863.00
             32206.32,28863.00 32213.48,28850.00 32213.48,28850.00
             32213.48,28850.00 32218.86,28835.00 32218.86,28835.00
             32218.86,28835.00 32231.75,28810.00 32231.75,28810.00
             32236.96,28796.74 32236.35,28790.98 32238.44,28778.00
             32239.55,28771.09 32241.92,28762.73 32242.00,28756.00
             32242.00,28756.00 32243.33,28735.00 32243.33,28735.00
             32243.32,28731.67 32244.35,28728.33 32243.33,28725.00
             32242.59,28720.73 32234.09,28707.25 32231.34,28703.00
             32231.34,28703.00 32215.06,28672.00 32215.06,28672.00
             32215.06,28672.00 32206.91,28645.00 32206.91,28645.00
             32206.91,28645.00 32202.06,28634.00 32202.06,28634.00
             32202.06,28634.00 32196.68,28619.00 32196.68,28619.00
             32196.68,28619.00 32190.45,28607.00 32190.45,28607.00
             32190.45,28607.00 32182.55,28582.00 32182.55,28582.00
             32182.55,28582.00 32166.69,28551.00 32166.69,28551.00
             32166.69,28551.00 32150.21,28523.00 32150.21,28523.00
             32143.15,28513.06 32135.48,28505.54 32130.31,28494.00
             32127.33,28487.35 32125.19,28475.38 32124.29,28468.00
             32122.72,28455.23 32128.47,28439.35 32135.72,28429.00
             32138.49,28425.04 32146.12,28416.99 32147.26,28414.00
             32147.26,28414.00 32148.81,28404.00 32148.81,28404.00
             32148.81,28404.00 32151.58,28393.00 32151.58,28393.00
             32151.58,28393.00 32154.24,28380.00 32154.24,28380.00
             32154.24,28380.00 32160.26,28363.00 32160.26,28363.00
             32160.26,28363.00 32168.08,28336.00 32168.08,28336.00
             32168.08,28336.00 32175.49,28320.00 32175.49,28320.00
             32175.49,28320.00 32183.31,28298.00 32183.31,28298.00
             32183.31,28298.00 32206.00,28248.00 32206.00,28248.00
             32206.00,28248.00 32214.13,28230.00 32214.13,28230.00
             32214.13,28230.00 32224.14,28201.00 32224.14,28201.00
             32225.16,28197.46 32228.98,28187.06 32228.22,28184.00
             32227.39,28180.64 32220.63,28174.63 32218.00,28172.00
             32210.66,28164.66 32202.27,28157.23 32197.32,28148.00
             32194.18,28142.14 32191.98,28133.51 32190.14,28127.00
             32187.24,28116.77 32184.05,28105.68 32184.00,28095.00
             32183.93,28081.11 32182.53,28083.49 32180.46,28072.00
             32180.46,28072.00 32178.96,28055.00 32178.96,28055.00
             32178.96,28055.00 32178.96,28042.00 32178.96,28042.00
             32178.96,28042.00 32178.00,28030.00 32178.00,28030.00
             32178.00,28030.00 32178.00,27915.00 32178.00,27915.00
             32178.02,27902.72 32180.17,27901.73 32182.58,27891.00
             32182.58,27891.00 32185.91,27876.00 32185.91,27876.00
             32185.91,27876.00 32188.48,27861.00 32188.48,27861.00
             32192.52,27845.17 32195.47,27842.43 32201.13,27829.00
             32201.13,27829.00 32205.60,27816.00 32205.60,27816.00
             32205.60,27816.00 32212.11,27803.00 32212.11,27803.00
             32212.11,27803.00 32217.26,27791.00 32217.26,27791.00
             32221.96,27781.27 32231.57,27766.28 32234.07,27757.00
             32235.40,27752.07 32235.06,27742.42 32235.00,27737.00
             32234.90,27729.17 32232.01,27724.47 32229.86,27717.00
             32225.01,27700.14 32224.00,27695.99 32216.26,27680.00
             32216.26,27680.00 32211.44,27670.00 32211.44,27670.00
             32206.31,27661.81 32200.54,27656.80 32194.04,27650.00
             32194.04,27650.00 32187.83,27643.17 32187.83,27643.17
             32183.42,27638.82 32160.72,27621.46 32155.00,27618.09
             32155.00,27618.09 32143.00,27612.14 32143.00,27612.14
             32143.00,27612.14 32129.00,27604.26 32129.00,27604.26
             32129.00,27604.26 32095.00,27589.40 32095.00,27589.40
             32095.00,27589.40 32045.00,27554.77 32045.00,27554.77
             32045.00,27554.77 32028.00,27543.67 32028.00,27543.67
             32013.32,27533.93 32009.06,27533.16 31992.00,27531.91
             31989.24,27531.71 31983.23,27530.33 31981.01,27530.88
             31977.24,27531.83 31967.94,27544.43 31964.87,27548.00
             31964.87,27548.00 31937.95,27582.00 31937.95,27582.00
             31934.10,27588.14 31933.81,27592.63 31927.48,27602.00
             31927.48,27602.00 31917.93,27614.00 31917.93,27614.00
             31917.93,27614.00 31908.08,27630.00 31908.08,27630.00
             31908.08,27630.00 31878.72,27662.72 31878.72,27662.72
             31878.72,27662.72 31865.00,27674.30 31865.00,27674.30
             31865.00,27674.30 31837.00,27698.29 31837.00,27698.29
             31824.74,27708.90 31813.57,27721.00 31800.00,27730.00
             31781.45,27742.28 31751.25,27750.97 31729.00,27751.00
             31729.00,27751.00 31670.00,27751.00 31670.00,27751.00
             31670.00,27751.00 31653.00,27750.00 31653.00,27750.00
             31653.00,27750.00 31549.00,27750.00 31549.00,27750.00
             31549.00,27750.00 31518.00,27748.00 31518.00,27748.00
             31518.00,27748.00 31492.00,27748.00 31492.00,27748.00
             31467.08,27747.70 31439.85,27736.85 31419.00,27723.77
             31419.00,27723.77 31405.00,27713.75 31405.00,27713.75
             31395.41,27707.23 31384.79,27703.64 31376.00,27695.83
             31361.46,27682.91 31353.61,27670.69 31342.66,27655.00
             31342.66,27655.00 31331.46,27640.00 31331.46,27640.00
             31331.46,27640.00 31322.45,27623.00 31322.45,27623.00
             31322.45,27623.00 31311.16,27608.00 31311.16,27608.00
             31311.16,27608.00 31298.90,27589.00 31298.90,27589.00
             31298.90,27589.00 31290.93,27578.00 31290.93,27578.00
             31290.93,27578.00 31284.88,27566.00 31284.88,27566.00
             31284.88,27566.00 31277.14,27552.00 31277.14,27552.00
             31277.14,27552.00 31267.26,27536.00 31267.26,27536.00
             31267.26,27536.00 31258.33,27516.00 31258.33,27516.00
             31258.33,27516.00 31245.45,27496.00 31245.45,27496.00
             31245.45,27496.00 31227.45,27459.00 31227.45,27459.00
             31223.06,27448.14 31224.56,27443.19 31222.53,27438.00
             31221.15,27434.47 31217.59,27430.51 31215.46,27427.00
             31211.49,27420.44 31209.09,27412.67 31209.00,27405.00
             31209.00,27405.00 31209.00,27398.00 31209.00,27398.00
             31209.02,27384.76 31211.67,27382.68 31215.48,27371.00
             31215.48,27371.00 31231.00,27325.00 31231.00,27325.00
             31231.00,27325.00 31240.49,27297.00 31240.49,27297.00
             31240.49,27297.00 31242.61,27284.00 31242.61,27284.00
             31242.61,27284.00 31246.74,27269.00 31246.74,27269.00
             31249.85,27259.42 31253.30,27255.27 31254.87,27251.00
             31254.87,27251.00 31261.08,27227.00 31261.08,27227.00
             31264.78,27216.23 31267.73,27214.23 31271.60,27206.00
             31271.60,27206.00 31276.43,27193.00 31276.43,27193.00
             31280.12,27184.43 31296.23,27159.12 31302.15,27151.00
             31307.07,27144.25 31315.43,27133.94 31314.78,27125.00
             31314.61,27122.65 31313.71,27120.24 31313.02,27118.00
             31307.76,27100.81 31306.54,27104.65 31298.45,27091.00
             31294.58,27084.47 31294.18,27080.49 31291.55,27074.00
             31291.55,27074.00 31287.45,27065.00 31287.45,27065.00
             31287.45,27065.00 31282.80,27049.00 31282.80,27049.00
             31282.80,27049.00 31275.43,27028.00 31275.43,27028.00
             31275.43,27028.00 31272.63,27015.00 31272.63,27015.00
             31270.11,27004.90 31266.56,26993.48 31262.29,26984.00
             31262.29,26984.00 31251.38,26965.00 31251.38,26965.00
             31251.38,26965.00 31241.46,26951.00 31241.46,26951.00
             31241.46,26951.00 31232.57,26930.00 31232.57,26930.00
             31227.75,26918.72 31225.09,26914.55 31221.42,26902.00
             31221.42,26902.00 31215.50,26877.00 31215.50,26877.00
             31215.50,26877.00 31212.46,26866.00 31212.46,26866.00
             31212.46,26866.00 31210.72,26851.00 31210.72,26851.00
             31209.80,26844.55 31209.04,26844.33 31209.00,26837.00
             31209.00,26837.00 31207.83,26814.00 31207.83,26814.00
             31207.83,26814.00 31206.00,26794.00 31206.00,26794.00
             31205.73,26770.80 31201.41,26759.61 31197.61,26738.00
             31197.61,26738.00 31195.73,26723.00 31195.73,26723.00
             31195.73,26723.00 31189.83,26675.00 31189.83,26675.00
             31189.83,26675.00 31187.44,26661.00 31187.44,26661.00
             31187.44,26661.00 31186.00,26642.00 31186.00,26642.00
             31186.00,26642.00 31186.00,26493.00 31186.00,26493.00
             31186.00,26493.00 31187.28,26472.00 31187.28,26472.00
             31187.28,26472.00 31191.00,26442.00 31191.00,26442.00
             31191.00,26442.00 31191.00,26428.00 31191.00,26428.00
             31191.01,26422.52 31194.11,26399.35 31195.48,26394.00
             31195.48,26394.00 31200.76,26376.00 31200.76,26376.00
             31200.76,26376.00 31204.91,26357.00 31204.91,26357.00
             31204.91,26357.00 31207.77,26341.00 31207.77,26341.00
             31210.55,26331.73 31222.78,26307.07 31228.44,26299.00
             31237.05,26286.71 31251.16,26270.87 31263.00,26261.66
             31263.00,26261.66 31295.00,26239.54 31295.00,26239.54
             31302.96,26232.98 31304.85,26228.56 31311.09,26222.01
             31311.09,26222.01 31323.00,26211.00 31323.00,26211.00
             31323.00,26211.00 31344.04,26189.00 31344.04,26189.00
             31352.73,26179.97 31369.98,26164.33 31375.65,26154.00
             31381.45,26143.44 31381.53,26130.44 31383.62,26119.00
             31383.62,26119.00 31389.54,26099.00 31389.54,26099.00
             31389.54,26099.00 31390.17,26090.00 31390.17,26090.00
             31390.17,26090.00 31392.00,26067.00 31392.00,26067.00
             31392.00,26067.00 31392.00,26051.00 31392.00,26051.00
             31392.17,26036.96 31398.56,26015.60 31404.76,26003.00
             31411.44,25989.40 31417.94,25975.36 31428.17,25964.00
             31438.75,25952.24 31461.62,25934.69 31476.00,25927.89
             31476.00,25927.89 31499.00,25919.31 31499.00,25919.31
             31499.00,25919.31 31518.00,25912.88 31518.00,25912.88
             31518.00,25912.88 31551.00,25905.42 31551.00,25905.42
             31551.00,25905.42 31565.00,25903.34 31565.00,25903.34
             31565.00,25903.34 31597.00,25894.53 31597.00,25894.53
             31597.00,25894.53 31615.00,25885.86 31615.00,25885.86
             31615.00,25885.86 31662.00,25864.69 31662.00,25864.69
             31676.60,25857.98 31679.02,25851.75 31689.13,25840.00
             31695.04,25833.14 31703.31,25825.31 31710.00,25819.09
             31710.00,25819.09 31730.00,25803.33 31730.00,25803.33
             31730.00,25803.33 31740.00,25794.17 31740.00,25794.17
             31740.00,25794.17 31760.59,25775.83 31760.59,25775.83
             31760.59,25775.83 31770.09,25765.00 31770.09,25765.00
             31770.09,25765.00 31782.33,25752.00 31782.33,25752.00
             31782.33,25752.00 31802.17,25725.00 31802.17,25725.00
             31815.05,25710.69 31829.68,25698.48 31845.00,25686.90
             31851.90,25681.68 31871.33,25669.47 31879.00,25665.78
             31879.00,25665.78 31899.00,25657.14 31899.00,25657.14
             31928.11,25644.27 31930.36,25643.31 31961.00,25634.57
             31961.00,25634.57 31975.00,25630.37 31975.00,25630.37
             31975.00,25630.37 31996.00,25626.27 31996.00,25626.27
             31996.00,25626.27 32009.00,25624.24 32009.00,25624.24
             32009.00,25624.24 32024.00,25619.43 32024.00,25619.43
             32024.00,25619.43 32045.00,25613.94 32045.00,25613.94
             32045.00,25613.94 32061.00,25606.86 32061.00,25606.86
             32061.00,25606.86 32091.00,25596.02 32091.00,25596.02
             32091.00,25596.02 32123.00,25589.10 32123.00,25589.10
             32140.94,25584.54 32155.59,25572.22 32169.00,25560.17
             32169.00,25560.17 32179.00,25551.83 32179.00,25551.83
             32179.00,25551.83 32209.70,25520.00 32209.70,25520.00
             32209.70,25520.00 32226.75,25497.00 32226.75,25497.00
             32226.75,25497.00 32242.99,25480.00 32242.99,25480.00
             32242.99,25480.00 32254.09,25468.16 32254.09,25468.16
             32268.30,25454.48 32284.64,25443.25 32301.00,25432.33
             32317.06,25421.62 32316.10,25420.41 32335.00,25411.26
             32347.94,25405.00 32377.82,25395.19 32392.00,25392.61
             32392.00,25392.61 32428.00,25387.72 32428.00,25387.72
             32428.00,25387.72 32444.00,25385.28 32444.00,25385.28
             32444.00,25385.28 32464.00,25383.56 32464.00,25383.56
             32464.00,25383.56 32488.00,25378.48 32488.00,25378.48
             32488.00,25378.48 32506.00,25372.02 32506.00,25372.02
             32506.00,25372.02 32526.00,25367.23 32526.00,25367.23
             32526.00,25367.23 32538.00,25362.69 32538.00,25362.69
             32538.00,25362.69 32558.00,25356.42 32558.00,25356.42
             32558.00,25356.42 32577.00,25352.10 32577.00,25352.10
             32577.00,25352.10 32587.00,25348.06 32587.00,25348.06
             32587.00,25348.06 32606.00,25342.15 32606.00,25342.15
             32617.05,25339.16 32633.04,25336.03 32643.00,25330.68
             32662.93,25319.98 32662.65,25304.67 32669.08,25286.00
             32669.08,25286.00 32680.31,25261.00 32680.31,25261.00
             32683.92,25253.20 32686.90,25249.80 32691.48,25243.00
             32691.48,25243.00 32701.46,25228.00 32701.46,25228.00
             32710.89,25216.24 32734.92,25197.15 32748.00,25189.06
             32748.00,25189.06 32775.00,25173.58 32775.00,25173.58
             32775.00,25173.58 32844.00,25130.01 32844.00,25130.01
             32844.00,25130.01 32867.00,25118.54 32867.00,25118.54
             32867.00,25118.54 32878.00,25111.06 32878.00,25111.06
             32878.00,25111.06 32893.00,25101.84 32893.00,25101.84
             32893.00,25101.84 32910.00,25088.70 32910.00,25088.70
             32910.00,25088.70 32932.00,25077.22 32932.00,25077.22
             32932.00,25077.22 32949.00,25067.37 32949.00,25067.37
             32949.00,25067.37 32974.00,25057.94 32974.00,25057.94
             32974.00,25057.94 32984.00,25053.43 32984.00,25053.43
             32984.00,25053.43 33003.00,25046.72 33003.00,25046.72
             33003.00,25046.72 33044.00,25033.35 33044.00,25033.35
             33048.23,25031.40 33053.91,25024.56 33058.00,25021.00
             33064.82,25015.08 33072.07,25010.57 33080.00,25006.31
             33080.00,25006.31 33127.00,24986.40 33127.00,24986.40
             33127.00,24986.40 33145.89,24978.47 33145.89,24978.47
             33150.10,24975.96 33150.21,24972.35 33151.42,24968.00
             33153.27,24961.38 33155.10,24955.12 33158.32,24949.00
             33167.02,24932.47 33182.46,24919.64 33199.00,24911.37
             33199.00,24911.37 33223.00,24902.14 33223.00,24902.14
             33223.00,24902.14 33243.00,24894.33 33243.00,24894.33
             33243.00,24894.33 33275.00,24884.98 33275.00,24884.98
             33275.00,24884.98 33294.00,24878.55 33294.00,24878.55
             33294.00,24878.55 33308.00,24872.01 33308.00,24872.01
             33308.00,24872.01 33325.00,24865.83 33325.00,24865.83
             33325.00,24865.83 33383.00,24831.42 33383.00,24831.42
             33383.00,24831.42 33410.00,24818.69 33410.00,24818.69
             33410.00,24818.69 33429.00,24809.31 33429.00,24809.31
             33429.00,24809.31 33466.00,24795.00 33466.00,24795.00
             33485.39,24788.40 33493.13,24787.74 33512.00,24783.58
             33512.00,24783.58 33537.00,24777.61 33537.00,24777.61
             33537.00,24777.61 33561.00,24773.76 33561.00,24773.76
             33561.00,24773.76 33579.00,24768.43 33579.00,24768.43
             33579.00,24768.43 33592.00,24764.53 33592.00,24764.53
             33600.87,24760.69 33603.03,24752.68 33607.60,24745.00
             33607.60,24745.00 33633.37,24707.00 33633.37,24707.00
             33643.08,24694.08 33652.21,24687.53 33662.83,24676.01
             33662.83,24676.01 33679.42,24657.17 33679.42,24657.17
             33679.42,24657.17 33693.00,24644.96 33693.00,24644.96
             33693.00,24644.96 33704.80,24632.66 33704.80,24632.66
             33712.83,24624.77 33721.82,24617.91 33731.00,24611.42
             33750.37,24597.74 33776.03,24589.75 33799.00,24584.58
             33799.00,24584.58 33821.00,24579.27 33821.00,24579.27
             33847.76,24575.14 33870.38,24576.31 33897.00,24576.00
             33897.00,24576.00 33912.00,24575.00 33912.00,24575.00
             33912.00,24575.00 33991.00,24575.00 33991.00,24575.00
             33991.00,24575.00 34026.00,24573.00 34026.00,24573.00 Z" />
</svg>
