<?xml version="1.0" encoding="UTF-8" standalone="no"?>
<!DOCTYPE svg PUBLIC "-//W3C//DTD SVG 20010904//EN"
              "http://www.w3.org/TR/2001/REC-SVG-20010904/DTD/svg10.dtd">

<svg xmlns="http://www.w3.org/2000/svg"
     width="1137.78in" height="1137.78in"
     viewBox="0 0 81920 81920">
  <path id="Selection"
        fill="none" stroke="black" stroke-width="1"
        d="M 35221.00,21952.00
           C 35221.00,21952.00 35246.00,21956.74 35246.00,21956.74
             35251.97,21958.24 35257.73,21960.95 35264.00,21959.47
             35274.54,21956.98 35290.89,21940.07 35303.99,21941.06
             35310.66,21941.57 35310.08,21946.38 35318.00,21949.44
             35318.00,21949.44 35340.00,21954.70 35340.00,21954.70
             35344.03,21955.30 35350.43,21955.12 35353.72,21957.73
             35356.58,21960.00 35356.54,21963.74 35358.55,21966.58
             35364.68,21975.22 35376.29,21981.51 35387.00,21980.91
             35387.00,21980.91 35400.00,21979.08 35400.00,21979.08
             35400.00,21979.08 35411.00,21979.08 35411.00,21979.08
             35411.00,21979.08 35424.00,21978.04 35424.00,21978.04
             35432.40,21978.31 35458.90,21986.02 35465.96,21990.36
             35472.75,21994.54 35470.58,21999.07 35483.00,22006.77
             35491.54,22012.06 35493.72,22010.59 35499.00,22012.52
             35499.00,22012.52 35516.00,22020.77 35516.00,22020.77
             35523.90,22023.70 35540.14,22028.04 35545.78,22034.11
             35548.24,22036.76 35550.25,22041.51 35551.22,22045.00
             35552.05,22048.04 35552.04,22050.88 35551.99,22054.00
             35551.89,22059.06 35550.40,22065.41 35552.57,22070.00
             35555.99,22077.21 35561.75,22076.60 35565.48,22080.30
             35567.58,22082.38 35577.01,22097.89 35578.32,22101.00
             35582.56,22109.72 35573.80,22119.37 35578.32,22128.00
             35581.07,22133.71 35586.69,22134.61 35591.83,22140.04
             35599.90,22148.58 35605.01,22160.87 35616.00,22168.04
             35623.29,22172.79 35633.38,22174.95 35635.39,22176.56
             35637.74,22178.45 35648.10,22192.16 35649.44,22195.00
             35651.31,22198.99 35650.70,22202.05 35653.51,22206.00
             35659.74,22214.76 35675.78,22217.98 35686.00,22218.00
             35695.93,22218.02 35706.16,22217.90 35716.00,22219.30
             35716.00,22219.30 35728.00,22221.57 35728.00,22221.57
             35728.00,22221.57 35743.00,22224.00 35743.00,22224.00
             35741.65,22234.17 35746.84,22240.46 35757.00,22241.84
             35769.89,22243.60 35776.55,22243.02 35789.00,22243.00
             35796.40,22242.99 35808.42,22240.03 35814.00,22241.96
             35814.00,22241.96 35828.00,22248.14 35828.00,22248.14
             35828.00,22248.14 35847.00,22255.58 35847.00,22255.58
             35847.00,22255.58 35862.73,22261.79 35862.73,22261.79
             35866.32,22263.93 35865.48,22266.89 35869.22,22270.89
             35873.93,22275.93 35879.63,22275.99 35886.00,22276.00
             35886.00,22276.00 35917.00,22276.00 35917.00,22276.00
             35917.00,22276.00 35932.00,22275.00 35932.00,22275.00
             35942.72,22274.88 35963.66,22277.14 35974.00,22279.59
             35981.42,22281.35 35987.01,22283.92 35994.00,22286.58
             35999.63,22288.72 36011.43,22292.37 36015.89,22295.35
             36020.02,22298.11 36020.19,22301.83 36022.28,22306.00
             36024.63,22310.70 36027.42,22314.22 36031.04,22318.00
             36034.69,22321.81 36037.87,22325.11 36043.00,22326.78
             36050.96,22329.36 36053.18,22326.04 36060.98,22331.25
             36068.49,22336.25 36065.12,22342.34 36073.04,22346.86
             36080.37,22351.05 36085.56,22346.35 36092.00,22349.09
             36099.96,22352.47 36106.60,22362.76 36122.00,22371.57
             36132.58,22377.63 36133.82,22375.83 36139.00,22377.80
             36139.00,22377.80 36153.00,22385.74 36153.00,22385.74
             36155.52,22387.04 36161.73,22389.79 36163.42,22391.63
             36165.63,22394.05 36165.81,22399.51 36167.13,22403.00
             36168.65,22407.03 36174.01,22414.91 36177.09,22417.89
             36185.18,22425.71 36188.00,22418.77 36196.00,22423.64
             36210.81,22432.66 36230.68,22451.36 36246.00,22457.55
             36258.38,22462.55 36271.71,22460.42 36276.00,22461.30
             36276.00,22461.30 36300.00,22471.94 36300.00,22471.94
             36300.00,22471.94 36325.00,22479.55 36325.00,22479.55
             36329.00,22481.69 36337.78,22488.37 36340.30,22492.01
             36340.30,22492.01 36343.99,22498.82 36343.99,22498.82
             36343.99,22498.82 36348.04,22503.51 36348.04,22503.51
             36348.04,22503.51 36350.48,22511.00 36350.48,22511.00
             36352.63,22516.16 36356.05,22518.37 36361.00,22520.56
             36365.95,22522.75 36383.64,22527.17 36389.00,22527.82
             36389.00,22527.82 36405.00,22529.29 36405.00,22529.29
             36411.08,22530.11 36418.28,22533.10 36424.00,22532.68
             36434.55,22531.89 36443.85,22530.61 36451.95,22539.02
             36453.70,22540.84 36455.20,22542.61 36456.11,22545.00
             36457.37,22548.29 36457.04,22557.12 36456.78,22561.00
             36456.94,22565.84 36455.15,22571.82 36456.78,22576.00
             36458.55,22581.85 36466.44,22589.02 36471.00,22593.17
             36471.00,22593.17 36491.00,22611.47 36491.00,22611.47
             36496.60,22615.68 36497.89,22614.24 36504.00,22620.04
             36504.00,22620.04 36520.49,22637.00 36520.49,22637.00
             36523.84,22641.64 36523.28,22646.35 36528.33,22651.90
             36533.54,22657.63 36538.75,22656.88 36542.01,22661.22
             36542.01,22661.22 36549.31,22675.00 36549.31,22675.00
             36549.31,22675.00 36570.63,22708.90 36570.63,22708.90
             36570.63,22708.90 36575.28,22713.59 36575.28,22713.59
             36577.25,22716.01 36577.82,22720.00 36578.72,22723.00
             36578.72,22723.00 36583.48,22737.00 36583.48,22737.00
             36584.45,22741.52 36583.51,22745.25 36585.26,22750.00
             36587.59,22756.32 36593.19,22760.55 36600.00,22760.02
             36600.00,22760.02 36607.00,22759.30 36607.00,22759.30
             36612.30,22759.73 36613.31,22762.98 36627.00,22763.00
             36627.00,22763.00 36689.00,22763.00 36689.00,22763.00
             36708.03,22763.03 36729.16,22770.78 36748.00,22774.55
             36748.00,22774.55 36778.00,22779.50 36778.00,22779.50
             36778.00,22779.50 36811.00,22789.57 36811.00,22789.57
             36811.00,22789.57 36831.00,22794.52 36831.00,22794.52
             36831.00,22794.52 36874.00,22810.87 36874.00,22810.87
             36874.00,22810.87 36922.00,22833.31 36922.00,22833.31
             36927.28,22836.14 36934.25,22840.21 36939.00,22843.76
             36939.00,22843.76 36951.00,22854.83 36951.00,22854.83
             36958.69,22861.79 36966.87,22868.27 36973.83,22876.00
             36973.83,22876.00 36985.00,22890.00 36985.00,22890.00
             36985.00,22890.00 36999.42,22907.00 36999.42,22907.00
             37009.99,22919.23 37017.12,22921.16 37027.30,22937.00
             37027.30,22937.00 37037.25,22956.00 37037.25,22956.00
             37042.93,22967.30 37050.81,22980.93 37058.37,22991.00
             37064.33,22998.93 37069.93,23006.06 37079.00,23010.62
             37088.21,23015.26 37103.53,23016.52 37114.00,23018.42
             37114.00,23018.42 37135.00,23023.99 37135.00,23023.99
             37135.00,23023.99 37153.00,23028.37 37153.00,23028.37
             37153.00,23028.37 37181.00,23037.33 37181.00,23037.33
             37181.00,23037.33 37198.00,23042.34 37198.00,23042.34
             37198.00,23042.34 37218.00,23049.25 37218.00,23049.25
             37218.00,23049.25 37250.00,23056.65 37250.00,23056.65
             37250.00,23056.65 37274.00,23063.52 37274.00,23063.52
             37274.00,23063.52 37306.00,23069.75 37306.00,23069.75
             37306.00,23069.75 37323.00,23075.33 37323.00,23075.33
             37323.00,23075.33 37343.00,23081.69 37343.00,23081.69
             37343.00,23081.69 37358.00,23087.58 37358.00,23087.58
             37358.00,23087.58 37382.00,23096.12 37382.00,23096.12
             37382.00,23096.12 37403.00,23108.55 37403.00,23108.55
             37410.28,23112.92 37418.56,23116.81 37425.00,23122.30
             37425.00,23122.30 37445.00,23143.00 37445.00,23143.00
             37447.33,23145.37 37451.09,23148.44 37451.16,23152.00
             37451.20,23153.77 37449.99,23156.38 37449.27,23158.00
             37442.98,23172.23 37436.37,23173.29 37432.80,23181.00
             37432.80,23181.00 37429.72,23189.00 37429.72,23189.00
             37425.40,23199.20 37422.16,23205.70 37416.00,23215.00
             37416.00,23215.00 37399.01,23237.00 37399.01,23237.00
             37399.01,23237.00 37396.39,23246.00 37396.39,23246.00
             37393.79,23252.61 37381.81,23271.72 37376.00,23275.07
             37372.06,23277.33 37361.70,23277.99 37357.00,23278.04
             37357.00,23278.04 37346.00,23278.04 37346.00,23278.04
             37346.00,23278.04 37336.00,23278.96 37336.00,23278.96
             37336.00,23278.96 37328.00,23277.93 37328.00,23277.93
             37328.00,23277.93 37318.00,23277.93 37318.00,23277.93
             37318.00,23277.93 37302.00,23277.93 37302.00,23277.93
             37302.00,23277.93 37286.00,23279.00 37286.00,23279.00
             37286.00,23279.00 37268.00,23279.00 37268.00,23279.00
             37268.00,23279.00 37252.00,23278.00 37252.00,23278.00
             37252.00,23278.00 37205.00,23278.00 37205.00,23278.00
             37205.00,23278.00 37171.00,23276.00 37171.00,23276.00
             37171.00,23276.00 37088.00,23276.00 37088.00,23276.00
             37083.16,23276.01 37075.42,23276.50 37071.00,23278.36
             37061.89,23282.20 37060.56,23286.40 37055.66,23294.00
             37055.66,23294.00 37047.82,23307.00 37047.82,23307.00
             37042.04,23318.62 37042.85,23322.15 37033.39,23334.00
             37023.51,23346.36 37018.86,23357.23 37011.74,23371.00
             37011.74,23371.00 37002.86,23386.00 37002.86,23386.00
             37002.86,23386.00 36996.36,23399.00 36996.36,23399.00
             36996.36,23399.00 36983.27,23421.00 36983.27,23421.00
             36983.27,23421.00 36980.19,23428.83 36980.19,23428.83
             36980.19,23428.83 36975.90,23436.01 36975.90,23436.01
             36975.90,23436.01 36965.55,23457.00 36965.55,23457.00
             36965.55,23457.00 36946.86,23485.00 36946.86,23485.00
             36946.86,23485.00 36933.60,23508.00 36933.60,23508.00
             36933.60,23508.00 36919.75,23528.00 36919.75,23528.00
             36916.24,23533.26 36914.44,23540.22 36908.96,23543.53
             36896.82,23550.88 36891.45,23547.37 36879.00,23546.09
             36879.00,23546.09 36869.00,23546.09 36869.00,23546.09
             36869.00,23546.09 36843.00,23548.00 36843.00,23548.00
             36843.00,23548.00 36811.00,23548.00 36811.00,23548.00
             36811.00,23548.00 36793.00,23546.04 36793.00,23546.04
             36793.00,23546.04 36781.00,23547.72 36781.00,23547.72
             36781.00,23547.72 36765.00,23549.09 36765.00,23549.09
             36765.00,23549.09 36756.00,23549.99 36756.00,23549.99
             36756.00,23549.99 36728.00,23548.00 36728.00,23548.00
             36728.00,23548.00 36705.00,23548.00 36705.00,23548.00
             36705.00,23548.00 36688.00,23549.00 36688.00,23549.00
             36688.00,23549.00 36610.00,23549.00 36610.00,23549.00
             36594.13,23549.03 36595.65,23556.41 36587.65,23567.00
             36580.52,23576.44 36582.34,23576.48 36577.91,23584.00
             36577.91,23584.00 36551.83,23630.00 36551.83,23630.00
             36551.83,23630.00 36547.34,23637.00 36547.34,23637.00
             36547.34,23637.00 36534.96,23658.00 36534.96,23658.00
             36530.90,23663.78 36525.73,23668.79 36522.31,23675.00
             36522.31,23675.00 36499.02,23724.00 36499.02,23724.00
             36499.02,23724.00 36487.45,23742.00 36487.45,23742.00
             36487.45,23742.00 36477.39,23761.00 36477.39,23761.00
             36477.39,23761.00 36466.57,23776.00 36466.57,23776.00
             36463.22,23780.67 36459.22,23784.93 36456.45,23790.00
             36451.04,23799.92 36450.21,23812.43 36437.00,23816.07
             36433.42,23817.06 36430.64,23816.99 36427.00,23817.00
             36427.00,23817.00 36388.00,23817.00 36388.00,23817.00
             36388.00,23817.00 36373.00,23816.00 36373.00,23816.00
             36373.00,23816.00 36360.00,23816.00 36360.00,23816.00
             36360.00,23816.00 36342.00,23817.00 36342.00,23817.00
             36342.00,23817.00 36327.00,23816.00 36327.00,23816.00
             36327.00,23816.00 36279.00,23816.00 36279.00,23816.00
             36279.00,23816.00 36250.00,23819.91 36250.00,23819.91
             36250.00,23819.91 36238.00,23819.91 36238.00,23819.91
             36238.00,23819.91 36223.00,23819.00 36223.00,23819.00
             36223.00,23819.00 36167.00,23819.00 36167.00,23819.00
             36160.60,23818.92 36146.16,23816.34 36141.00,23817.99
             36135.37,23819.80 36133.88,23823.26 36130.83,23824.75
             36128.19,23826.03 36126.24,23824.85 36124.04,23827.35
             36124.04,23827.35 36114.58,23844.00 36114.58,23844.00
             36114.58,23844.00 36101.95,23862.00 36101.95,23862.00
             36101.95,23862.00 36090.57,23886.00 36090.57,23886.00
             36090.57,23886.00 36080.99,23902.00 36080.99,23902.00
             36079.29,23906.33 36080.13,23910.17 36075.52,23919.00
             36075.52,23919.00 36045.42,23970.00 36045.42,23970.00
             36045.42,23970.00 36021.44,24012.00 36021.44,24012.00
             36021.44,24012.00 36017.19,24021.00 36017.19,24021.00
             36017.19,24021.00 36010.19,24033.00 36010.19,24033.00
             36010.19,24033.00 35991.28,24066.00 35991.28,24066.00
             35988.90,24070.10 35984.85,24078.30 35980.95,24080.59
             35973.26,24085.09 35966.16,24081.74 35960.00,24082.18
             35960.00,24082.18 35935.00,24084.04 35935.00,24084.04
             35935.00,24084.04 35922.00,24084.04 35922.00,24084.04
             35922.00,24084.04 35911.00,24085.00 35911.00,24085.00
             35911.00,24085.00 35893.00,24085.00 35893.00,24085.00
             35893.00,24085.00 35875.01,24085.99 35875.01,24085.99
             35875.01,24085.99 35859.00,24085.00 35859.00,24085.00
             35859.00,24085.00 35825.00,24085.00 35825.00,24085.00
             35825.00,24085.00 35810.00,24086.00 35810.00,24086.00
             35810.00,24086.00 35798.00,24086.00 35798.00,24086.00
             35798.00,24086.00 35776.00,24088.00 35776.00,24088.00
             35776.00,24088.00 35767.00,24088.00 35767.00,24088.00
             35767.00,24088.00 35750.00,24089.00 35750.00,24089.00
             35750.00,24089.00 35740.00,24088.18 35740.00,24088.18
             35740.00,24088.18 35728.00,24089.00 35728.00,24089.00
             35728.00,24089.00 35693.00,24089.00 35693.00,24089.00
             35684.03,24088.99 35674.38,24085.97 35666.00,24090.56
             35656.33,24095.85 35655.72,24101.21 35650.77,24109.00
             35647.21,24114.61 35642.90,24119.80 35640.35,24126.00
             35640.35,24126.00 35637.83,24134.00 35637.83,24134.00
             35637.83,24134.00 35625.67,24149.00 35625.67,24149.00
             35619.51,24158.13 35615.67,24167.88 35611.55,24178.00
             35611.55,24178.00 35604.05,24196.00 35604.05,24196.00
             35604.05,24196.00 35594.38,24209.00 35594.38,24209.00
             35594.38,24209.00 35585.45,24223.00 35585.45,24223.00
             35585.45,24223.00 35571.36,24253.00 35571.36,24253.00
             35571.36,24253.00 35557.00,24274.00 35557.00,24274.00
             35557.00,24274.00 35548.25,24290.00 35548.25,24290.00
             35543.60,24299.29 35538.74,24311.77 35532.24,24319.95
             35530.06,24322.69 35529.37,24322.69 35527.26,24324.71
             35525.79,24326.11 35516.77,24340.81 35515.77,24343.00
             35513.82,24347.29 35510.44,24354.49 35505.74,24356.42
             35503.87,24357.19 35499.17,24357.02 35497.00,24357.00
             35497.00,24357.00 35487.00,24356.00 35487.00,24356.00
             35487.00,24356.00 35476.00,24356.00 35476.00,24356.00
             35476.00,24356.00 35464.00,24355.00 35464.00,24355.00
             35464.00,24355.00 35413.00,24357.17 35413.00,24357.17
             35413.00,24357.17 35401.00,24358.96 35401.00,24358.96
             35401.00,24358.96 35390.00,24358.96 35390.00,24358.96
             35390.00,24358.96 35375.00,24360.00 35375.00,24360.00
             35375.00,24360.00 35352.00,24358.83 35352.00,24358.83
             35346.28,24358.20 35343.34,24356.72 35337.00,24357.04
             35337.00,24357.04 35327.00,24358.89 35327.00,24358.89
             35327.00,24358.89 35288.99,24358.89 35288.99,24358.89
             35288.99,24358.89 35276.00,24357.16 35276.00,24357.16
             35276.00,24357.16 35258.00,24356.00 35258.00,24356.00
             35258.00,24356.00 35245.00,24355.00 35245.00,24355.00
             35229.01,24354.82 35222.90,24354.96 35207.00,24358.34
             35204.18,24358.94 35196.26,24359.86 35194.31,24361.17
             35192.12,24362.64 35189.14,24373.72 35187.72,24377.00
             35187.72,24377.00 35175.48,24400.00 35175.48,24400.00
             35175.48,24400.00 35168.41,24415.00 35168.41,24415.00
             35168.41,24415.00 35158.31,24433.00 35158.31,24433.00
             35158.31,24433.00 35152.30,24444.00 35152.30,24444.00
             35152.30,24444.00 35141.74,24458.00 35141.74,24458.00
             35141.74,24458.00 35132.20,24473.00 35132.20,24473.00
             35132.20,24473.00 35118.66,24496.00 35118.66,24496.00
             35118.66,24496.00 35110.79,24511.00 35110.79,24511.00
             35110.79,24511.00 35104.35,24520.00 35104.35,24520.00
             35104.35,24520.00 35098.02,24535.00 35098.02,24535.00
             35098.02,24535.00 35087.01,24553.00 35087.01,24553.00
             35087.01,24553.00 35073.56,24576.00 35073.56,24576.00
             35073.56,24576.00 35059.31,24598.00 35059.31,24598.00
             35056.53,24603.06 35050.55,24617.32 35046.79,24620.30
             35040.34,24625.43 35028.81,24626.00 35021.00,24625.51
             35021.00,24625.51 34998.17,24627.90 34998.17,24627.90
             34998.17,24627.90 34970.00,24626.78 34970.00,24626.78
             34970.00,24626.78 34941.00,24626.78 34941.00,24626.78
             34941.00,24626.78 34931.00,24626.09 34931.00,24626.09
             34931.00,24626.09 34905.00,24625.00 34905.00,24625.00
             34905.00,24625.00 34890.00,24626.00 34890.00,24626.00
             34890.00,24626.00 34854.00,24626.00 34854.00,24626.00
             34854.00,24626.00 34841.00,24625.00 34841.00,24625.00
             34841.00,24625.00 34820.00,24625.00 34820.00,24625.00
             34820.00,24625.00 34807.00,24626.00 34807.00,24626.00
             34807.00,24626.00 34790.00,24626.00 34790.00,24626.00
             34790.00,24626.00 34779.00,24626.65 34779.00,24626.65
             34779.00,24626.65 34770.09,24624.96 34770.09,24624.96
             34770.09,24624.96 34757.00,24624.96 34757.00,24624.96
             34757.00,24624.96 34744.00,24624.00 34744.00,24624.00
             34741.29,24623.97 34737.45,24623.76 34735.04,24625.02
             34730.30,24627.50 34725.02,24638.21 34721.53,24643.00
             34721.53,24643.00 34709.46,24664.00 34709.46,24664.00
             34709.46,24664.00 34692.96,24689.00 34692.96,24689.00
             34692.96,24689.00 34685.81,24698.00 34685.81,24698.00
             34685.81,24698.00 34678.53,24712.00 34678.53,24712.00
             34678.53,24712.00 34657.55,24748.00 34657.55,24748.00
             34657.55,24748.00 34650.34,24759.00 34650.34,24759.00
             34644.36,24769.51 34639.06,24780.77 34634.60,24792.00
             34634.60,24792.00 34629.04,24807.00 34629.04,24807.00
             34629.04,24807.00 34619.89,24822.00 34619.89,24822.00
             34619.89,24822.00 34613.01,24839.00 34613.01,24839.00
             34609.74,24844.23 34604.47,24847.31 34598.78,24858.00
             34594.92,24865.25 34590.96,24877.49 34584.96,24882.24
             34581.20,24885.22 34572.44,24890.79 34568.00,24892.54
             34553.40,24898.30 34519.36,24898.57 34503.00,24897.86
             34503.00,24897.86 34492.28,24896.87 34492.28,24896.87
             34492.28,24896.87 34477.99,24896.87 34477.99,24896.87
             34477.99,24896.87 34462.93,24895.90 34462.93,24895.90
             34462.93,24895.90 34440.00,24896.89 34440.00,24896.89
             34440.00,24896.89 34402.00,24896.89 34402.00,24896.89
             34402.00,24896.89 34337.93,24896.89 34337.93,24896.89
             34337.93,24896.89 34304.93,24896.89 34304.93,24896.89
             34285.03,24897.25 34275.04,24898.36 34258.00,24886.14
             34251.11,24881.20 34248.88,24879.47 34244.45,24872.00
             34239.99,24864.48 34240.67,24862.21 34238.14,24855.00
             34238.14,24855.00 34225.93,24828.01 34225.93,24828.01
             34225.93,24828.01 34208.01,24810.00 34208.01,24810.00
             34200.12,24801.91 34192.38,24790.89 34186.86,24781.00
             34183.69,24775.31 34180.38,24768.10 34178.06,24762.00
             34178.06,24762.00 34173.76,24750.00 34173.76,24750.00
             34173.76,24750.00 34169.42,24742.00 34169.42,24742.00
             34169.42,24742.00 34156.74,24715.00 34156.74,24715.00
             34156.74,24715.00 34130.26,24674.00 34130.26,24674.00
             34130.26,24674.00 34121.42,24658.00 34121.42,24658.00
             34121.42,24658.00 34115.11,24644.00 34115.11,24644.00
             34113.36,24640.41 34109.91,24632.08 34106.74,24629.98
             34103.52,24627.85 34097.74,24628.17 34094.00,24627.91
             34094.00,24627.91 34068.00,24626.00 34068.00,24626.00
             34068.00,24626.00 34039.00,24626.00 34039.00,24626.00
             34039.00,24626.00 34024.00,24627.00 34024.00,24627.00
             34024.00,24627.00 34004.00,24627.00 34004.00,24627.00
             34004.00,24627.00 33991.00,24626.00 33991.00,24626.00
             33991.00,24626.00 33967.00,24626.00 33967.00,24626.00
             33958.31,24626.11 33959.92,24627.98 33949.00,24628.00
             33949.00,24628.00 33849.00,24628.00 33849.00,24628.00
             33849.00,24628.00 33831.00,24626.00 33831.00,24626.00
             33816.05,24625.83 33811.39,24626.39 33797.00,24620.01
             33794.66,24618.97 33792.08,24618.02 33790.01,24616.49
             33780.49,24609.50 33773.68,24593.07 33767.40,24583.00
             33767.40,24583.00 33748.92,24558.00 33748.92,24558.00
             33748.92,24558.00 33738.67,24535.00 33738.67,24535.00
             33738.67,24535.00 33727.45,24512.00 33727.45,24512.00
             33727.45,24512.00 33713.21,24479.00 33713.21,24479.00
             33710.31,24472.98 33705.78,24468.22 33707.39,24461.00
             33709.22,24452.79 33719.06,24445.19 33726.00,24441.22
             33732.19,24437.69 33738.17,24433.39 33745.00,24431.10
             33745.00,24431.10 33771.00,24428.00 33771.00,24428.00
             33771.00,24428.00 33792.00,24427.00 33792.00,24427.00
             33792.00,24427.00 33806.00,24427.00 33806.00,24427.00
             33806.00,24427.00 33822.00,24426.00 33822.00,24426.00
             33822.00,24426.00 33843.00,24426.00 33843.00,24426.00
             33843.00,24426.00 33861.00,24425.00 33861.00,24425.00
             33861.00,24425.00 33877.00,24424.00 33877.00,24424.00
             33877.00,24424.00 33919.00,24423.00 33919.00,24423.00
             33919.00,24423.00 33942.00,24424.21 33942.00,24424.21
             33947.72,24425.00 33945.97,24425.96 33954.00,24426.00
             33954.00,24426.00 33971.00,24426.00 33971.00,24426.00
             33977.52,24426.08 33983.38,24429.21 33983.99,24420.00
             33983.99,24420.00 33983.99,24416.00 33983.99,24416.00
             33983.99,24416.00 33983.99,24396.00 33983.99,24396.00
             33983.99,24396.00 33986.00,24377.00 33986.00,24377.00
             33986.00,24377.00 33986.00,24373.00 33986.00,24373.00
             33986.00,24373.00 33990.00,24342.00 33990.00,24342.00
             33990.00,24342.00 33990.00,24335.00 33990.00,24335.00
             33990.00,24335.00 33992.34,24302.00 33992.34,24302.00
             33992.34,24302.00 33994.95,24294.00 33994.95,24294.00
             33994.95,24294.00 33994.95,24283.00 33994.95,24283.00
             33994.95,24283.00 33996.99,24256.00 33996.99,24256.00
             33996.73,24244.56 33994.44,24235.03 33992.37,24224.00
             33992.37,24224.00 33991.71,24212.00 33991.71,24212.00
             33990.70,24204.23 33989.01,24196.91 33989.00,24189.00
             33989.00,24189.00 33989.00,24156.00 33989.00,24156.00
             33989.00,24156.00 33986.00,24126.00 33986.00,24126.00
             33986.00,24126.00 33985.00,24111.00 33985.00,24111.00
             33985.00,24111.00 33984.00,24082.00 33984.00,24082.00
             33984.00,24082.00 33982.00,24059.00 33982.00,24059.00
             33982.00,24059.00 33982.00,24039.00 33982.00,24039.00
             33982.00,24039.00 33980.00,24015.00 33980.00,24015.00
             33980.00,24015.00 33980.00,24001.00 33980.00,24001.00
             33979.92,23994.86 33978.99,23993.40 33978.14,23988.00
             33978.14,23988.00 33978.14,23979.00 33978.14,23979.00
             33977.91,23971.55 33976.90,23972.22 33975.51,23966.00
             33975.51,23966.00 33972.13,23944.00 33972.13,23944.00
             33972.06,23938.64 33974.43,23937.86 33974.17,23932.00
             33974.17,23932.00 33966.00,23864.00 33966.00,23864.00
             33966.00,23864.00 33966.00,23839.00 33966.00,23839.00
             33966.00,23839.00 33965.03,23827.00 33965.03,23827.00
             33965.03,23827.00 33967.17,23801.00 33967.17,23801.00
             33967.17,23801.00 33969.98,23780.00 33969.98,23780.00
             33969.98,23780.00 33967.04,23755.00 33967.04,23755.00
             33967.04,23755.00 33967.04,23741.00 33967.04,23741.00
             33967.04,23741.00 33968.00,23729.00 33968.00,23729.00
             33968.00,23729.00 33968.00,23702.00 33968.00,23702.00
             33968.00,23702.00 33967.00,23682.00 33967.00,23682.00
             33967.00,23682.00 33966.00,23669.00 33966.00,23669.00
             33965.86,23657.03 33966.86,23660.90 33967.82,23653.00
             33967.82,23653.00 33968.32,23646.00 33968.32,23646.00
             33969.40,23639.33 33969.99,23640.90 33970.00,23633.00
             33970.00,23633.00 33970.00,23614.00 33970.00,23614.00
             33970.00,23614.00 33970.91,23602.00 33970.91,23602.00
             33970.91,23602.00 33972.00,23570.00 33972.00,23570.00
             33972.00,23570.00 33969.68,23547.00 33969.68,23547.00
             33968.80,23541.74 33968.08,23542.40 33968.00,23536.00
             33967.77,23517.04 33969.09,23512.27 33972.81,23494.00
             33972.81,23494.00 33974.68,23486.00 33974.68,23486.00
             33974.68,23486.00 33976.00,23460.00 33976.00,23460.00
             33976.08,23453.56 33978.43,23441.62 33979.69,23435.00
             33981.47,23425.68 33985.32,23409.28 33989.42,23401.00
             33989.42,23401.00 34005.94,23375.00 34005.94,23375.00
             34009.92,23368.54 34013.66,23360.04 34016.66,23353.00
             34016.66,23353.00 34021.45,23339.00 34021.45,23339.00
             34024.78,23330.60 34030.65,23317.87 34031.97,23309.00
             34031.97,23309.00 34031.97,23280.00 34031.97,23280.00
             34032.02,23268.59 34034.03,23269.09 34036.96,23259.00
             34036.96,23259.00 34038.78,23251.00 34038.78,23251.00
             34038.78,23251.00 34044.91,23235.00 34044.91,23235.00
             34047.39,23229.96 34050.06,23229.27 34051.41,23225.91
             34053.31,23221.19 34054.06,23202.75 34054.00,23197.00
             34053.88,23187.37 34049.42,23174.53 34046.71,23165.00
             34046.71,23165.00 34035.37,23122.00 34035.37,23122.00
             34035.37,23122.00 34028.45,23091.00 34028.45,23091.00
             34028.45,23091.00 34026.34,23078.00 34026.34,23078.00
             34026.34,23078.00 34016.57,23041.00 34016.57,23041.00
             34016.57,23041.00 34011.45,23028.00 34011.45,23028.00
             34011.45,23028.00 34004.48,23007.00 34004.48,23007.00
             34004.48,23007.00 33998.56,22975.00 33998.56,22975.00
             33992.01,22952.75 33976.27,22920.55 33976.00,22898.00
             33975.85,22884.80 33976.08,22872.95 33979.24,22860.00
             33979.24,22860.00 33985.28,22842.00 33985.28,22842.00
             33985.28,22842.00 33989.72,22825.00 33989.72,22825.00
             33993.12,22813.70 34001.15,22799.08 34007.42,22789.00
             34007.42,22789.00 34028.52,22761.00 34028.52,22761.00
             34028.52,22761.00 34046.72,22733.00 34046.72,22733.00
             34046.72,22733.00 34064.09,22703.00 34064.09,22703.00
             34064.09,22703.00 34082.85,22678.00 34082.85,22678.00
             34082.85,22678.00 34096.02,22658.00 34096.02,22658.00
             34096.02,22658.00 34108.57,22641.00 34108.57,22641.00
             34108.57,22641.00 34128.76,22610.00 34128.76,22610.00
             34128.76,22610.00 34146.58,22589.00 34146.58,22589.00
             34146.58,22589.00 34172.04,22559.00 34172.04,22559.00
             34172.04,22559.00 34207.00,22529.29 34207.00,22529.29
             34219.80,22519.27 34246.13,22504.77 34261.00,22496.69
             34261.00,22496.69 34289.00,22480.37 34289.00,22480.37
             34289.00,22480.37 34325.00,22465.58 34325.00,22465.58
             34325.00,22465.58 34378.00,22444.40 34378.00,22444.40
             34378.00,22444.40 34399.00,22435.06 34399.00,22435.06
             34399.00,22435.06 34414.00,22429.95 34414.00,22429.95
             34414.00,22429.95 34434.00,22422.51 34434.00,22422.51
             34434.00,22422.51 34451.00,22416.94 34451.00,22416.94
             34453.43,22416.00 34456.72,22414.63 34458.42,22412.61
             34460.96,22409.58 34459.70,22406.27 34464.22,22401.02
             34467.68,22397.01 34477.10,22391.72 34482.00,22389.08
             34490.20,22384.68 34498.87,22381.39 34508.00,22379.51
             34508.00,22379.51 34526.00,22376.96 34526.00,22376.96
             34526.00,22376.96 34535.00,22373.60 34535.00,22373.60
             34535.00,22373.60 34541.00,22371.78 34541.00,22371.78
             34546.27,22369.57 34555.08,22362.64 34558.36,22358.00
             34558.36,22358.00 34566.93,22343.00 34566.93,22343.00
             34573.07,22334.59 34582.38,22327.01 34590.00,22319.91
             34597.43,22312.99 34602.52,22306.38 34612.00,22301.78
             34633.98,22291.12 34651.60,22288.24 34675.00,22283.34
             34675.00,22283.34 34698.00,22277.04 34698.00,22277.04
             34698.00,22277.04 34712.00,22274.51 34712.00,22274.51
             34712.00,22274.51 34734.00,22266.43 34734.00,22266.43
             34734.00,22266.43 34766.00,22256.33 34766.00,22256.33
             34766.00,22256.33 34800.00,22245.80 34800.00,22245.80
             34800.00,22245.80 34817.00,22243.83 34817.00,22243.83
             34833.38,22242.19 34850.08,22241.28 34866.00,22236.95
             34872.39,22235.21 34879.08,22230.62 34885.00,22227.65
             34893.65,22223.31 34902.82,22220.13 34912.00,22217.10
             34912.00,22217.10 34943.00,22213.08 34943.00,22213.08
             34948.76,22211.57 34972.29,22206.03 34977.00,22206.13
             34982.35,22206.24 34986.31,22207.64 34991.00,22210.00
             34992.86,22197.90 34994.98,22198.65 34994.97,22183.00
             34994.96,22174.09 34990.58,22168.32 34991.26,22163.00
             34991.75,22159.19 34997.05,22152.31 34999.43,22149.00
             35008.25,22136.71 35009.34,22138.50 35015.33,22131.00
             35019.58,22125.68 35023.94,22117.40 35028.58,22113.43
             35032.34,22110.21 35035.71,22110.92 35040.00,22109.39
             35047.25,22106.80 35050.51,22101.45 35050.35,22094.00
             35050.21,22087.19 35057.03,22077.37 35061.21,22072.00
             35061.21,22072.00 35082.74,22045.00 35082.74,22045.00
             35087.56,22039.08 35090.57,22034.46 35097.00,22029.78
             35099.99,22027.61 35106.56,22023.18 35110.00,22022.39
             35113.73,22021.54 35117.37,22022.65 35121.00,22020.83
             35126.96,22017.83 35127.14,22012.83 35131.14,22010.57
             35136.20,22007.71 35146.18,22007.48 35152.00,22006.56
             35152.00,22006.56 35179.00,22000.42 35179.00,22000.42
             35179.00,22000.42 35206.00,21997.28 35206.00,21997.28
             35213.02,21996.42 35217.72,21996.68 35222.30,21989.98
             35229.95,21978.80 35221.58,21964.53 35221.00,21952.00 Z" />
</svg>
