<?xml version="1.0" encoding="UTF-8" standalone="no"?>
<!DOCTYPE svg PUBLIC "-//W3C//DTD SVG 20010904//EN"
              "http://www.w3.org/TR/2001/REC-SVG-20010904/DTD/svg10.dtd">

<svg xmlns="http://www.w3.org/2000/svg"
     width="7314.29mm" height="7314.29mm"
     viewBox="0 0 20480 20480">
  <path id="Chayle Hoardland"
        fill="none" stroke="black" stroke-width="1"
        d="M 8166.00,6457.00
           C 8168.33,6453.08 8169.45,6453.64 8173.00,6451.32
             8177.38,6448.45 8180.47,6445.07 8186.00,6443.87
             8186.00,6443.87 8201.96,6443.87 8201.96,6443.87
             8216.79,6442.68 8212.25,6441.13 8220.00,6438.88
             8226.40,6437.01 8233.31,6436.26 8238.85,6432.03
             8242.40,6429.33 8241.93,6425.67 8243.97,6422.00
             8243.97,6422.00 8250.75,6412.42 8250.75,6412.42
             8251.37,6410.25 8250.26,6408.36 8250.75,6406.01
             8251.79,6402.90 8259.29,6395.56 8262.00,6393.65
             8266.41,6390.53 8278.67,6385.89 8284.00,6383.37
             8291.27,6379.93 8296.13,6375.52 8304.00,6372.96
             8304.00,6372.96 8331.95,6364.08 8331.95,6364.08
             8335.36,6362.32 8337.81,6357.90 8341.04,6354.84
             8350.58,6345.80 8350.90,6348.30 8355.90,6344.37
             8359.11,6341.83 8359.79,6339.26 8363.10,6336.99
             8365.21,6335.55 8368.57,6334.50 8371.00,6333.42
             8371.00,6333.42 8382.00,6328.52 8382.00,6328.52
             8382.00,6328.52 8399.00,6324.12 8399.00,6324.12
             8405.26,6321.72 8405.81,6318.68 8411.00,6316.57
             8411.00,6316.57 8440.00,6309.30 8440.00,6309.30
             8443.32,6308.77 8453.78,6307.84 8455.87,6306.69
             8460.17,6304.31 8460.38,6299.03 8465.52,6293.43
             8470.27,6288.24 8476.37,6285.68 8480.20,6280.71
             8483.38,6276.60 8490.31,6264.50 8494.21,6262.17
             8499.44,6259.05 8512.77,6257.86 8519.00,6257.56
             8519.00,6257.56 8541.96,6254.76 8541.96,6254.76
             8545.16,6254.36 8550.28,6254.36 8552.78,6252.40
             8555.39,6250.36 8556.34,6246.33 8557.44,6243.28
             8560.97,6233.55 8559.62,6232.11 8560.20,6223.00
             8560.20,6223.00 8561.29,6210.91 8561.29,6210.91
             8561.29,6210.91 8561.29,6202.00 8561.29,6202.00
             8561.29,6202.00 8560.68,6194.00 8560.68,6194.00
             8560.55,6190.84 8561.28,6188.49 8560.68,6185.00
             8560.14,6180.33 8556.82,6174.83 8556.34,6169.00
             8556.34,6169.00 8556.96,6153.00 8556.96,6153.00
             8556.96,6153.00 8555.23,6143.00 8555.23,6143.00
             8555.23,6143.00 8555.23,6121.00 8555.23,6121.00
             8555.23,6121.00 8555.99,6110.00 8555.99,6110.00
             8555.99,6110.00 8554.46,6098.00 8554.46,6098.00
             8554.46,6098.00 8555.00,6086.00 8555.00,6086.00
             8555.00,6086.00 8552.00,6057.00 8552.00,6057.00
             8551.98,6041.63 8553.48,6031.89 8557.18,6016.99
             8561.32,6000.32 8567.86,5994.61 8572.54,5981.28
             8573.74,5977.86 8575.13,5965.06 8575.25,5961.00
             8575.37,5957.43 8570.72,5938.11 8569.32,5935.00
             8567.75,5931.53 8565.34,5930.54 8563.76,5927.13
             8562.04,5922.36 8564.44,5914.62 8563.76,5911.04
             8562.72,5907.64 8557.38,5903.18 8556.18,5893.00
             8555.45,5886.77 8557.25,5885.80 8558.18,5880.72
             8559.85,5871.61 8561.52,5869.09 8564.26,5861.00
             8565.92,5856.07 8570.77,5842.90 8573.70,5839.21
             8578.65,5832.97 8584.35,5837.18 8587.72,5831.89
             8589.94,5828.39 8588.69,5824.79 8589.21,5821.00
             8589.89,5816.05 8593.52,5808.59 8597.10,5805.13
             8602.27,5800.14 8609.83,5798.40 8616.00,5795.11
             8619.72,5793.13 8621.56,5790.61 8626.00,5789.40
             8634.37,5787.12 8636.93,5789.57 8646.00,5784.83
             8646.00,5784.83 8659.00,5777.97 8659.00,5777.97
             8659.00,5777.97 8668.00,5773.53 8668.00,5773.53
             8668.00,5773.53 8679.00,5765.65 8679.00,5765.65
             8684.07,5762.80 8686.82,5764.45 8692.96,5760.45
             8700.66,5755.43 8700.02,5749.61 8714.00,5743.31
             8721.50,5739.93 8732.66,5739.17 8735.58,5738.18
             8735.58,5738.18 8754.00,5729.22 8754.00,5729.22
             8754.00,5729.22 8769.00,5725.56 8769.00,5725.56
             8769.00,5725.56 8783.00,5720.43 8783.00,5720.43
             8783.00,5720.43 8793.87,5718.40 8793.87,5718.40
             8796.44,5717.32 8800.43,5711.41 8802.34,5709.01
             8802.34,5709.01 8820.52,5685.00 8820.52,5685.00
             8824.18,5680.60 8833.55,5674.20 8839.00,5672.36
             8844.28,5670.58 8848.54,5670.90 8853.79,5667.62
             8857.13,5665.53 8857.66,5662.44 8861.10,5659.21
             8866.11,5654.51 8873.25,5652.24 8880.00,5652.37
             8885.67,5652.49 8888.21,5651.67 8894.00,5653.60
             8899.46,5655.41 8905.49,5660.42 8911.00,5663.10
             8921.25,5668.09 8931.88,5672.74 8939.06,5682.09
             8944.36,5688.98 8943.30,5695.47 8945.17,5698.83
             8947.67,5703.30 8960.20,5714.19 8965.00,5717.02
             8969.31,5719.56 8971.09,5719.06 8975.00,5721.00
             8975.00,5721.00 8984.00,5726.48 8984.00,5726.48
             8987.62,5728.28 9007.94,5734.26 9012.00,5734.49
             9014.73,5734.93 9015.56,5734.49 9018.00,5734.49
             9026.32,5733.74 9030.19,5737.43 9037.00,5740.49
             9037.00,5740.49 9052.00,5746.10 9052.00,5746.10
             9052.00,5746.10 9058.00,5749.09 9058.00,5749.09
             9062.15,5750.77 9067.66,5750.00 9073.98,5754.64
             9080.72,5759.57 9079.57,5764.12 9085.10,5767.48
             9085.10,5767.48 9103.00,5776.31 9103.00,5776.31
             9103.00,5776.31 9115.00,5783.45 9115.00,5783.45
             9115.00,5783.45 9123.00,5785.94 9123.00,5785.94
             9129.37,5788.22 9136.31,5791.88 9142.00,5795.54
             9142.00,5795.54 9157.96,5805.39 9157.96,5805.39
             9162.13,5808.86 9162.41,5811.49 9165.39,5814.41
             9168.34,5817.30 9170.24,5817.67 9173.36,5822.00
             9173.36,5822.00 9178.52,5832.00 9178.52,5832.00
             9181.48,5836.53 9185.30,5838.78 9188.01,5844.00
             9189.63,5847.14 9191.29,5854.21 9194.39,5855.91
             9195.89,5856.59 9203.68,5855.98 9206.00,5855.91
             9214.45,5856.10 9222.96,5857.47 9231.00,5860.03
             9231.00,5860.03 9239.00,5862.66 9239.00,5862.66
             9239.00,5862.66 9254.00,5864.47 9254.00,5864.47
             9258.41,5865.30 9276.58,5873.88 9279.82,5876.68
             9289.44,5885.01 9296.11,5902.43 9305.04,5907.79
             9309.03,5910.19 9318.14,5914.69 9322.58,5915.96
             9322.58,5915.96 9335.00,5918.22 9335.00,5918.22
             9340.92,5920.06 9342.44,5922.31 9352.00,5924.50
             9358.09,5925.90 9363.05,5925.69 9369.00,5928.09
             9369.00,5928.09 9376.00,5931.41 9376.00,5931.41
             9379.42,5932.84 9381.79,5933.30 9384.98,5935.64
             9389.93,5939.26 9391.57,5943.98 9394.61,5949.00
             9401.11,5959.69 9407.67,5970.51 9410.00,5983.00
             9423.95,5984.13 9415.79,5983.30 9427.00,5982.03
             9427.00,5982.03 9433.42,5982.03 9433.42,5982.03
             9433.42,5982.03 9441.00,5979.50 9441.00,5979.50
             9444.26,5978.72 9450.32,5978.24 9452.96,5976.83
             9457.02,5974.66 9457.77,5970.81 9467.00,5964.95
             9467.00,5964.95 9482.91,5956.15 9482.91,5956.15
             9489.29,5950.95 9491.92,5943.81 9497.04,5939.21
             9500.68,5935.95 9503.19,5935.50 9507.00,5933.23
             9507.00,5933.23 9515.00,5928.28 9515.00,5928.28
             9523.67,5923.92 9534.46,5923.07 9544.00,5923.00
             9544.00,5923.00 9559.83,5922.13 9559.83,5922.13
             9571.68,5922.57 9582.59,5926.92 9593.00,5932.26
             9599.64,5935.66 9604.67,5937.69 9609.21,5944.00
             9614.08,5950.77 9613.82,5954.20 9616.46,5961.00
             9617.93,5964.77 9622.25,5973.56 9624.42,5977.00
             9625.87,5979.30 9628.30,5985.82 9630.30,5986.65
             9632.37,5987.52 9638.30,5985.07 9641.00,5984.63
             9645.63,5983.88 9647.11,5985.04 9650.00,5983.93
             9650.00,5983.93 9658.00,5978.76 9658.00,5978.76
             9664.56,5975.72 9672.30,5975.61 9679.00,5978.76
             9679.00,5978.76 9688.00,5983.76 9688.00,5983.76
             9688.00,5983.76 9695.00,5986.54 9695.00,5986.54
             9702.07,5989.91 9715.52,5999.25 9720.70,6005.04
             9727.09,6012.17 9727.60,6015.97 9731.69,6022.00
             9734.29,6025.82 9737.54,6028.03 9740.49,6031.28
             9744.38,6035.58 9745.84,6038.62 9751.00,6042.39
             9758.78,6048.09 9763.47,6045.88 9771.00,6048.22
             9771.00,6048.22 9796.00,6057.20 9796.00,6057.20
             9804.61,6057.78 9813.99,6056.97 9822.00,6061.00
             9828.06,6064.04 9828.49,6066.54 9832.51,6070.63
             9836.77,6074.95 9839.70,6075.23 9843.17,6082.00
             9846.86,6089.22 9844.68,6093.12 9849.23,6097.63
             9849.23,6097.63 9862.09,6108.72 9862.09,6108.72
             9868.04,6112.57 9875.80,6109.97 9874.82,6123.00
             9873.66,6138.42 9868.38,6144.55 9860.76,6157.00
             9860.76,6157.00 9848.26,6178.00 9848.26,6178.00
             9844.93,6182.97 9839.50,6189.78 9837.35,6195.00
             9837.35,6195.00 9834.53,6206.00 9834.53,6206.00
             9834.53,6206.00 9829.61,6216.00 9829.61,6216.00
             9829.61,6216.00 9822.44,6237.00 9822.44,6237.00
             9822.44,6237.00 9815.49,6248.00 9815.49,6248.00
             9815.49,6248.00 9810.18,6261.00 9810.18,6261.00
             9810.18,6261.00 9798.79,6285.00 9798.79,6285.00
             9798.79,6285.00 9796.57,6294.00 9796.57,6294.00
             9796.57,6294.00 9791.74,6310.00 9791.74,6310.00
             9791.74,6310.00 9787.55,6326.00 9787.55,6326.00
             9787.55,6326.00 9776.28,6353.00 9776.28,6353.00
             9776.28,6353.00 9769.23,6372.00 9769.23,6372.00
             9769.23,6372.00 9765.39,6380.00 9765.39,6380.00
             9765.39,6380.00 9760.37,6399.00 9760.37,6399.00
             9760.37,6399.00 9754.28,6413.00 9754.28,6413.00
             9754.28,6413.00 9747.07,6434.00 9747.07,6434.00
             9747.07,6434.00 9742.80,6443.00 9742.80,6443.00
             9742.80,6443.00 9739.69,6454.00 9739.69,6454.00
             9739.69,6454.00 9720.64,6494.00 9720.64,6494.00
             9720.64,6494.00 9713.68,6513.00 9713.68,6513.00
             9713.68,6513.00 9705.95,6531.00 9705.95,6531.00
             9705.95,6531.00 9701.24,6550.00 9701.24,6550.00
             9701.24,6550.00 9698.04,6560.00 9698.04,6560.00
             9698.04,6560.00 9696.40,6568.00 9696.40,6568.00
             9696.40,6568.00 9690.41,6584.00 9690.41,6584.00
             9690.41,6584.00 9674.17,6621.00 9674.17,6621.00
             9674.17,6621.00 9669.60,6633.00 9669.60,6633.00
             9669.60,6633.00 9664.06,6642.00 9664.06,6642.00
             9664.06,6642.00 9654.07,6662.00 9654.07,6662.00
             9652.80,6665.12 9653.21,6666.98 9652.37,6670.00
             9652.37,6670.00 9645.49,6690.00 9645.49,6690.00
             9645.49,6690.00 9638.05,6710.00 9638.05,6710.00
             9638.05,6710.00 9633.52,6720.00 9633.52,6720.00
             9628.04,6735.88 9630.83,6734.88 9620.77,6752.00
             9620.77,6752.00 9592.82,6792.96 9592.82,6792.96
             9592.82,6792.96 9575.17,6808.74 9575.17,6808.74
             9575.17,6808.74 9568.90,6815.79 9568.90,6815.79
             9564.02,6820.40 9563.13,6818.99 9556.62,6827.00
             9556.62,6827.00 9546.25,6841.96 9546.25,6841.96
             9546.25,6841.96 9535.21,6853.00 9535.21,6853.00
             9535.21,6853.00 9529.79,6860.00 9529.79,6860.00
             9523.07,6867.81 9503.39,6887.46 9495.00,6893.03
             9490.04,6896.31 9483.53,6898.14 9478.00,6900.59
             9478.00,6900.59 9469.00,6904.87 9469.00,6904.87
             9469.00,6904.87 9461.00,6906.95 9461.00,6906.95
             9461.00,6906.95 9436.00,6915.59 9436.00,6915.59
             9436.00,6915.59 9427.00,6918.96 9427.00,6918.96
             9427.00,6918.96 9418.00,6920.65 9418.00,6920.65
             9418.00,6920.65 9409.00,6924.99 9409.00,6924.99
             9409.00,6924.99 9402.00,6926.95 9402.00,6926.95
             9402.00,6926.95 9384.00,6933.46 9384.00,6933.46
             9384.00,6933.46 9358.00,6939.92 9358.00,6939.92
             9358.00,6939.92 9347.00,6944.06 9347.00,6944.06
             9343.24,6944.99 9340.72,6944.16 9337.00,6944.65
             9337.00,6944.65 9299.00,6950.46 9299.00,6950.46
             9299.00,6950.46 9263.00,6958.88 9263.00,6958.88
             9263.00,6958.88 9248.00,6963.00 9248.00,6963.00
             9247.31,6970.44 9245.11,6971.44 9242.70,6978.00
             9239.18,6987.57 9240.77,6989.40 9235.37,7001.00
             9233.36,7005.32 9229.15,7009.50 9225.35,7019.00
             9223.79,7022.88 9221.42,7028.88 9221.26,7033.00
             9221.26,7033.00 9221.83,7043.00 9221.83,7043.00
             9221.83,7043.00 9219.09,7063.00 9219.09,7063.00
             9218.76,7068.72 9220.32,7071.38 9220.62,7076.00
             9220.62,7076.00 9221.33,7092.00 9221.33,7092.00
             9222.06,7096.16 9231.20,7119.53 9233.36,7122.90
             9236.59,7127.92 9240.16,7126.95 9243.59,7133.02
             9243.59,7133.02 9251.40,7153.00 9251.40,7153.00
             9251.40,7153.00 9259.79,7167.00 9259.79,7167.00
             9259.79,7167.00 9269.67,7188.00 9269.67,7188.00
             9273.89,7197.79 9275.04,7207.82 9277.59,7218.00
             9277.59,7218.00 9282.77,7237.00 9282.77,7237.00
             9282.77,7237.00 9286.46,7257.00 9286.46,7257.00
             9286.46,7257.00 9288.70,7267.00 9288.70,7267.00
             9288.70,7267.00 9290.00,7293.00 9290.00,7293.00
             9290.00,7293.00 9289.04,7305.00 9289.04,7305.00
             9289.04,7305.00 9289.99,7320.00 9289.99,7320.00
             9289.82,7327.24 9287.53,7330.98 9287.21,7336.00
             9286.96,7340.00 9288.52,7343.54 9287.81,7349.00
             9287.81,7349.00 9285.36,7358.00 9285.36,7358.00
             9284.99,7362.57 9288.20,7364.37 9287.87,7376.00
             9287.87,7376.00 9287.87,7399.00 9287.87,7399.00
             9287.41,7409.29 9289.67,7409.95 9290.84,7417.00
             9290.84,7417.00 9290.84,7428.00 9290.84,7428.00
             9290.84,7428.00 9290.84,7445.00 9290.84,7445.00
             9290.84,7445.00 9291.85,7453.00 9291.85,7453.00
             9291.85,7453.00 9291.85,7463.00 9291.85,7463.00
             9291.85,7463.00 9294.73,7486.00 9294.73,7486.00
             9294.73,7486.00 9294.73,7491.00 9294.73,7491.00
             9294.73,7491.00 9294.73,7506.00 9294.73,7506.00
             9294.73,7506.00 9295.68,7518.00 9295.68,7518.00
             9295.68,7518.00 9295.00,7534.00 9295.00,7534.00
             9295.00,7534.00 9297.79,7558.00 9297.79,7558.00
             9297.79,7558.00 9297.04,7567.00 9297.04,7567.00
             9297.04,7567.00 9297.68,7580.00 9297.68,7580.00
             9298.37,7589.22 9291.80,7605.62 9292.49,7619.00
             9292.49,7619.00 9291.25,7635.99 9291.25,7635.99
             9291.03,7641.41 9292.98,7657.62 9294.35,7663.00
             9298.19,7678.07 9300.52,7676.97 9302.53,7683.00
             9302.53,7683.00 9306.03,7697.00 9306.03,7697.00
             9306.03,7697.00 9313.91,7718.00 9313.91,7718.00
             9318.39,7726.50 9329.55,7734.81 9329.95,7744.00
             9330.33,7752.49 9326.04,7755.71 9321.24,7762.00
             9321.24,7762.00 9314.03,7772.00 9314.03,7772.00
             9314.03,7772.00 9308.61,7780.00 9308.61,7780.00
             9308.61,7780.00 9269.91,7820.72 9269.91,7820.72
             9258.86,7831.17 9243.99,7845.10 9245.18,7862.00
             9245.18,7862.00 9245.97,7870.00 9245.97,7870.00
             9245.97,7880.33 9242.72,7880.08 9243.68,7893.00
             9243.68,7893.00 9243.17,7906.00 9243.17,7906.00
             9243.17,7906.00 9245.00,7927.00 9245.00,7927.00
             9245.00,7927.00 9245.68,7938.00 9245.68,7938.00
             9245.68,7938.00 9244.15,7949.00 9244.15,7949.00
             9244.15,7949.00 9243.56,7961.00 9243.56,7961.00
             9243.56,7961.00 9243.56,7970.00 9243.56,7970.00
             9242.48,7980.76 9238.81,7989.11 9235.24,7999.00
             9235.24,7999.00 9233.01,8006.00 9233.01,8006.00
             9233.01,8006.00 9229.88,8012.00 9229.88,8012.00
             9229.88,8012.00 9224.45,8027.00 9224.45,8027.00
             9224.45,8027.00 9191.09,8070.00 9191.09,8070.00
             9191.09,8070.00 9186.21,8077.83 9186.21,8077.83
             9186.21,8077.83 9181.36,8083.09 9181.36,8083.09
             9174.16,8091.61 9172.67,8094.75 9169.16,8105.00
             9169.16,8105.00 9166.84,8112.00 9166.84,8112.00
             9166.41,8115.19 9167.99,8117.15 9167.86,8121.00
             9167.74,8125.05 9165.91,8129.73 9161.00,8128.58
             9157.28,8127.72 9154.48,8124.56 9151.92,8121.98
             9146.15,8116.17 9136.91,8109.13 9139.00,8100.00
             9139.00,8100.00 9126.00,8089.88 9126.00,8089.88
             9114.69,8083.09 9105.30,8081.84 9093.00,8079.48
             9087.43,8078.42 9081.55,8073.91 9076.04,8077.60
             9069.18,8082.20 9069.99,8090.41 9068.12,8095.00
             9066.26,8099.58 9063.66,8099.91 9060.18,8106.01
             9055.28,8114.61 9052.67,8127.86 9042.00,8131.35
             9037.94,8132.47 9034.88,8131.72 9030.87,8131.35
             9030.87,8131.35 9020.00,8131.35 9020.00,8131.35
             9020.00,8131.35 9013.00,8132.01 9013.00,8132.01
             9013.00,8132.01 8991.00,8132.01 8991.00,8132.01
             8991.00,8132.01 8981.00,8133.56 8981.00,8133.56
             8981.00,8133.56 8951.00,8133.00 8951.00,8133.00
             8937.78,8132.94 8937.54,8129.68 8928.00,8122.74
             8928.00,8122.74 8911.00,8110.59 8911.00,8110.59
             8911.00,8110.59 8882.00,8092.63 8882.00,8092.63
             8882.00,8092.63 8869.00,8086.66 8869.00,8086.66
             8863.97,8083.82 8855.34,8076.69 8850.00,8076.19
             8843.39,8075.56 8841.78,8084.36 8839.65,8089.00
             8839.65,8089.00 8826.79,8110.00 8826.79,8110.00
             8824.50,8114.76 8822.66,8123.15 8819.44,8126.66
             8810.56,8136.36 8790.23,8128.79 8778.96,8128.83
             8778.96,8128.83 8757.16,8129.89 8757.16,8129.89
             8757.16,8129.89 8732.00,8128.51 8732.00,8128.51
             8723.33,8128.63 8710.70,8129.15 8702.99,8125.01
             8696.18,8121.36 8694.67,8118.21 8689.72,8113.18
             8689.72,8113.18 8677.26,8100.99 8677.26,8100.99
             8677.26,8100.99 8667.68,8089.39 8667.68,8089.39
             8664.75,8087.06 8663.32,8088.35 8659.00,8086.47
             8659.00,8086.47 8646.00,8079.56 8646.00,8079.56
             8646.00,8079.56 8627.44,8076.98 8627.44,8076.98
             8626.23,8076.98 8625.38,8077.16 8624.41,8077.94
             8624.41,8077.94 8614.85,8093.00 8614.85,8093.00
             8614.85,8093.00 8603.47,8109.00 8603.47,8109.00
             8600.63,8113.40 8600.97,8115.01 8598.81,8119.00
             8593.40,8129.02 8581.26,8141.46 8569.00,8135.00
             8564.98,8138.40 8554.99,8138.37 8550.00,8137.00
             8544.33,8148.58 8533.98,8140.76 8526.00,8138.20
             8526.00,8138.20 8515.00,8136.10 8515.00,8136.10
             8510.76,8135.71 8499.10,8135.83 8496.00,8134.55
             8492.35,8133.04 8485.00,8126.63 8481.00,8123.89
             8481.00,8123.89 8467.00,8115.47 8467.00,8115.47
             8467.00,8115.47 8457.00,8106.33 8457.00,8106.33
             8457.00,8106.33 8435.91,8092.61 8435.91,8092.61
             8435.91,8092.61 8428.00,8090.25 8428.00,8090.25
             8428.00,8090.25 8416.96,8086.68 8416.96,8086.68
             8411.72,8084.47 8406.07,8080.35 8400.00,8082.17
             8396.31,8083.28 8386.93,8090.74 8384.84,8094.01
             8384.84,8094.01 8380.80,8103.00 8380.80,8103.00
             8378.41,8107.29 8377.43,8107.89 8375.43,8113.00
             8372.07,8121.57 8371.82,8127.62 8363.00,8132.31
             8355.37,8136.36 8345.36,8138.70 8337.00,8140.74
             8337.00,8140.74 8319.83,8145.23 8319.83,8145.23
             8319.83,8145.23 8313.00,8147.48 8313.00,8147.48
             8313.00,8147.48 8290.19,8152.01 8290.19,8152.01
             8286.60,8154.18 8286.44,8158.06 8283.70,8160.69
             8280.82,8163.46 8278.07,8162.56 8275.51,8165.31
             8273.49,8167.48 8273.12,8170.96 8271.44,8174.00
             8269.04,8178.38 8265.57,8181.01 8263.58,8184.00
             8261.04,8187.82 8261.37,8191.88 8255.90,8195.90
             8255.90,8195.90 8236.00,8206.39 8236.00,8206.39
             8236.00,8206.39 8225.00,8209.76 8225.00,8209.76
             8220.58,8211.59 8216.39,8215.14 8212.00,8216.35
             8212.00,8216.35 8205.00,8217.23 8205.00,8217.23
             8205.00,8217.23 8189.15,8222.40 8189.15,8222.40
             8185.30,8224.49 8179.73,8231.39 8175.91,8234.42
             8175.91,8234.42 8160.46,8245.13 8160.46,8245.13
             8156.68,8249.10 8152.29,8257.30 8148.90,8259.35
             8148.90,8259.35 8131.09,8265.26 8131.09,8265.26
             8131.09,8265.26 8118.91,8267.67 8118.91,8267.67
             8111.80,8270.07 8101.57,8276.22 8094.00,8275.70
             8087.91,8275.28 8078.19,8268.52 8073.00,8266.64
             8068.86,8265.43 8066.12,8266.76 8062.00,8266.64
             8055.70,8266.08 8046.35,8264.71 8041.00,8261.34
             8036.35,8258.41 8034.21,8255.35 8030.83,8252.83
             8030.83,8252.83 8022.00,8247.99 8022.00,8247.99
             8016.24,8244.68 8008.82,8238.04 8006.00,8232.00
             8000.81,8231.95 8001.12,8230.28 7996.91,8228.45
             7996.91,8228.45 7984.00,8223.54 7984.00,8223.54
             7984.00,8223.54 7966.00,8219.40 7966.00,8219.40
             7966.00,8219.40 7954.00,8213.63 7954.00,8213.63
             7944.07,8208.94 7936.31,8205.76 7930.06,8195.83
             7925.31,8188.30 7921.82,8171.80 7919.08,8163.00
             7919.08,8163.00 7906.65,8137.00 7906.65,8137.00
             7904.98,8133.93 7901.67,8128.81 7898.90,8126.76
             7895.29,8124.10 7891.16,8124.01 7888.58,8120.78
             7885.98,8117.51 7885.56,8111.04 7885.27,8107.00
             7884.56,8097.28 7880.74,8082.71 7893.00,8079.00
             7890.53,8073.02 7891.87,8070.16 7898.00,8068.00
             7894.93,8056.67 7903.68,8059.83 7911.82,8044.00
             7916.00,8035.88 7915.31,8025.64 7923.04,8019.41
             7931.23,8012.83 7940.36,8016.07 7949.00,8014.04
             7952.19,8013.30 7953.63,8011.29 7956.99,8010.52
             7956.99,8010.52 7968.00,8009.83 7968.00,8009.83
             7968.00,8009.83 7985.00,8005.25 7985.00,8005.25
             7993.00,8002.86 7992.54,7999.44 7997.04,7997.76
             8000.85,7996.35 8006.97,7998.39 8011.00,7999.00
             8011.00,7999.00 8009.92,7991.02 8009.92,7991.02
             8009.92,7991.02 8020.54,7980.96 8020.54,7980.96
             8020.54,7980.96 8030.45,7969.00 8030.45,7969.00
             8030.45,7969.00 8038.09,7958.42 8038.09,7958.42
             8038.09,7958.42 8047.13,7954.42 8047.13,7954.42
             8047.13,7954.42 8058.00,7947.31 8058.00,7947.31
             8058.00,7947.31 8076.00,7942.00 8076.00,7942.00
             8073.09,7935.66 8074.44,7929.91 8082.00,7928.34
             8087.71,7927.16 8094.32,7928.62 8100.00,7929.01
             8105.01,7929.36 8110.10,7928.77 8115.00,7930.00
             8115.00,7930.00 8121.89,7916.00 8121.89,7916.00
             8122.31,7913.18 8118.09,7897.40 8117.04,7894.00
             8117.04,7894.00 8114.54,7878.96 8114.54,7878.96
             8113.03,7873.24 8110.97,7870.87 8110.15,7868.00
             8110.15,7868.00 8106.73,7841.00 8106.73,7841.00
             8105.92,7836.89 8103.32,7834.26 8102.39,7830.00
             8102.39,7830.00 8100.89,7814.92 8100.89,7814.92
             8100.89,7814.92 8097.64,7801.00 8097.64,7801.00
             8097.64,7801.00 8097.64,7792.00 8097.64,7792.00
             8097.64,7792.00 8096.02,7781.00 8096.02,7781.00
             8095.80,7773.60 8097.72,7766.28 8098.92,7759.00
             8098.92,7759.00 8101.41,7745.00 8101.41,7745.00
             8101.41,7745.00 8102.05,7738.00 8102.05,7738.00
             8102.05,7738.00 8104.86,7727.28 8104.86,7727.28
             8104.86,7727.28 8107.56,7713.04 8107.56,7713.04
             8108.99,7706.43 8107.01,7704.16 8107.56,7699.72
             8107.56,7699.72 8110.82,7682.00 8110.82,7682.00
             8110.82,7682.00 8110.18,7666.91 8110.18,7666.91
             8110.18,7666.91 8112.18,7651.72 8112.18,7651.72
             8112.18,7651.72 8111.48,7639.99 8111.48,7639.99
             8111.48,7639.99 8112.00,7630.00 8112.00,7630.00
             8112.00,7630.00 8108.63,7598.00 8108.63,7598.00
             8106.83,7589.48 8102.82,7583.92 8103.51,7573.00
             8103.51,7573.00 8105.32,7549.00 8105.32,7549.00
             8105.32,7549.00 8103.18,7529.91 8103.18,7529.91
             8103.18,7529.91 8103.98,7522.00 8103.98,7522.00
             8103.98,7522.00 8103.98,7506.00 8103.98,7506.00
             8103.88,7488.96 8104.15,7478.93 8106.74,7462.00
             8106.74,7462.00 8107.84,7454.00 8107.84,7454.00
             8107.84,7454.00 8113.45,7438.00 8113.45,7438.00
             8115.95,7431.92 8120.21,7425.15 8124.28,7420.00
             8126.82,7416.79 8132.20,7410.63 8133.56,7407.00
             8133.56,7407.00 8135.08,7395.72 8135.08,7395.72
             8135.08,7395.72 8134.50,7390.00 8134.50,7390.00
             8133.36,7378.85 8132.26,7383.78 8129.63,7376.00
             8129.63,7376.00 8128.05,7370.00 8128.05,7370.00
             8128.05,7370.00 8117.25,7347.00 8117.25,7347.00
             8113.01,7339.45 8107.08,7335.79 8106.18,7324.00
             8105.61,7316.40 8111.11,7303.47 8114.98,7297.00
             8114.98,7297.00 8119.73,7290.00 8119.73,7290.00
             8119.73,7290.00 8122.63,7284.00 8122.63,7284.00
             8126.23,7277.81 8130.69,7271.56 8130.75,7264.00
             8130.88,7250.37 8127.66,7248.57 8122.31,7237.00
             8122.31,7237.00 8112.58,7214.00 8112.58,7214.00
             8109.93,7207.70 8105.56,7200.94 8106.11,7194.00
             8106.59,7187.87 8109.33,7182.29 8111.20,7176.58
             8113.93,7168.22 8115.99,7159.96 8119.97,7152.00
             8122.62,7146.70 8129.32,7139.19 8129.62,7134.00
             8129.88,7129.58 8125.73,7114.31 8123.83,7110.00
             8123.83,7110.00 8120.21,7103.00 8120.21,7103.00
             8120.21,7103.00 8116.60,7093.00 8116.60,7093.00
             8111.25,7079.47 8108.42,7076.06 8109.04,7061.00
             8109.37,7053.09 8113.31,7049.39 8117.08,7043.00
             8117.08,7043.00 8123.57,7031.01 8123.57,7031.01
             8126.21,7027.27 8130.55,7023.71 8131.16,7019.00
             8132.35,7009.73 8123.40,7006.47 8117.44,7001.83
             8110.05,6996.08 8102.01,6991.53 8094.00,6986.69
             8094.00,6986.69 8084.00,6980.39 8084.00,6980.39
             8084.00,6980.39 8062.00,6974.00 8062.00,6974.00
             8062.00,6974.00 8058.96,6980.00 8058.96,6980.00
             8057.75,6982.80 8058.04,6985.25 8056.26,6987.91
             8054.07,6991.21 8049.97,6993.10 8047.37,6998.00
             8045.31,7001.90 8046.35,7004.03 8045.48,7007.00
             8044.41,7010.68 8041.02,7014.15 8038.00,7016.37
             8022.85,7027.48 7997.20,7028.48 7979.04,7026.41
             7979.04,7026.41 7963.00,7024.00 7963.00,7024.00
             7954.38,7023.69 7938.41,7025.93 7931.00,7021.77
             7926.27,7019.12 7922.51,7012.98 7918.68,7008.83
             7918.68,7008.83 7908.46,6997.72 7908.46,6997.72
             7904.25,6992.30 7893.87,6975.39 7891.31,6969.00
             7886.50,6956.99 7884.35,6942.88 7884.51,6930.00
             7884.58,6924.09 7886.44,6918.35 7888.87,6913.00
             7891.42,6907.36 7893.03,6906.55 7895.87,6902.00
             7898.55,6897.71 7905.48,6882.89 7907.02,6878.00
             7908.34,6873.83 7910.27,6869.44 7909.80,6865.00
             7909.12,6858.64 7904.90,6856.33 7905.00,6849.00
             7898.46,6845.88 7890.81,6833.74 7887.95,6827.00
             7887.95,6827.00 7885.54,6820.00 7885.54,6820.00
             7885.54,6820.00 7882.45,6812.00 7882.45,6812.00
             7881.17,6807.33 7879.74,6789.18 7880.09,6784.00
             7880.09,6784.00 7881.18,6768.58 7881.18,6768.58
             7881.18,6768.58 7880.34,6756.03 7880.34,6756.03
             7880.34,6756.03 7878.81,6726.00 7878.81,6726.00
             7878.81,6726.00 7878.81,6703.00 7878.81,6703.00
             7878.16,6690.48 7876.93,6691.21 7880.21,6678.58
             7880.95,6675.75 7881.26,6673.69 7882.99,6671.17
             7885.00,6668.24 7893.78,6661.17 7897.00,6659.55
             7897.00,6659.55 7905.89,6655.64 7905.89,6655.64
             7910.40,6652.70 7909.12,6650.29 7911.58,6647.41
             7914.30,6644.24 7916.05,6645.75 7918.84,6639.98
             7921.14,6635.23 7924.52,6628.25 7923.88,6622.80
             7923.88,6622.80 7922.21,6614.99 7922.21,6614.99
             7922.16,6611.68 7923.52,6609.07 7924.43,6606.00
             7926.56,6598.82 7927.54,6593.00 7934.17,6588.11
             7942.16,6582.22 7956.46,6580.56 7966.00,6578.95
             7974.92,6577.44 7978.73,6573.42 7982.00,6572.23
             7985.04,6571.13 7986.77,6572.27 7990.00,6571.55
             7993.34,6570.80 8001.05,6566.03 8003.90,6563.91
             8003.90,6563.91 8010.21,6558.16 8010.21,6558.16
             8013.25,6556.32 8015.37,6557.41 8019.07,6552.89
             8022.83,6548.31 8023.91,6543.02 8025.99,6540.39
             8028.12,6537.69 8030.70,6537.35 8033.19,6533.90
             8035.54,6530.63 8036.65,6525.09 8041.10,6521.57
             8046.07,6517.65 8048.63,6520.26 8057.00,6517.09
             8057.00,6517.09 8067.00,6512.68 8067.00,6512.68
             8067.00,6512.68 8081.00,6510.19 8081.00,6510.19
             8081.00,6510.19 8101.00,6505.39 8101.00,6505.39
             8106.70,6504.29 8109.34,6502.12 8114.00,6502.00
             8117.52,6492.18 8125.39,6486.25 8132.85,6479.49
             8139.70,6473.27 8141.22,6470.10 8150.00,6463.74
             8155.26,6459.93 8159.32,6455.33 8166.00,6457.00 Z
           M 8131.00,7433.00
           C 8131.00,7433.00 8130.00,7433.00 8130.00,7433.00
             8130.00,7433.00 8131.00,7434.00 8131.00,7434.00
             8131.00,7434.00 8131.00,7433.00 8131.00,7433.00 Z
           M 8130.00,7435.00
           C 8130.00,7435.00 8129.00,7435.00 8129.00,7435.00
             8129.00,7435.00 8130.00,7436.00 8130.00,7436.00
             8130.00,7436.00 8130.00,7435.00 8130.00,7435.00 Z" />
</svg>
