<?xml version="1.0" encoding="UTF-8" standalone="no"?>
<!DOCTYPE svg PUBLIC "-//W3C//DTD SVG 20010904//EN"
              "http://www.w3.org/TR/2001/REC-SVG-20010904/DTD/svg10.dtd">

<svg xmlns="http://www.w3.org/2000/svg"
     width="7314.29mm" height="7314.29mm"
     viewBox="0 0 20480 20480">
  <path id="Selection"
        fill="none" stroke="black" stroke-width="1"
        d="M 10858.00,5613.00
           C 10858.00,5609.55 10859.51,5598.81 10858.73,5597.09
             10857.00,5593.24 10849.04,5589.57 10847.33,5580.00
             10845.76,5571.25 10848.08,5567.62 10851.08,5560.00
             10852.77,5555.70 10853.24,5552.15 10855.97,5548.01
             10861.70,5539.33 10870.54,5537.99 10880.00,5538.68
             10884.75,5539.02 10894.06,5536.29 10899.00,5535.00
             10899.00,5535.00 10909.00,5532.60 10909.00,5532.60
             10909.00,5532.60 10916.00,5529.80 10916.00,5529.80
             10916.00,5529.80 10924.00,5528.21 10924.00,5528.21
             10928.71,5526.83 10941.59,5519.47 10944.82,5515.71
             10944.82,5515.71 10953.57,5502.00 10953.57,5502.00
             10957.39,5494.22 10957.75,5490.11 10966.04,5484.55
             10973.16,5479.76 10985.58,5477.73 10994.00,5476.72
             10994.00,5476.72 11018.00,5474.01 11018.00,5474.01
             11024.64,5474.01 11025.28,5475.23 11029.00,5475.36
             11031.82,5475.52 11034.60,5474.60 11039.00,5475.36
             11039.00,5475.36 11048.00,5477.68 11048.00,5477.68
             11048.00,5477.68 11059.00,5478.60 11059.00,5478.60
             11071.03,5481.49 11071.02,5484.66 11079.00,5490.05
             11085.15,5494.20 11092.37,5497.46 11096.39,5504.01
             11103.31,5515.30 11096.12,5521.96 11105.02,5525.87
             11109.42,5527.80 11127.02,5532.58 11132.00,5533.53
             11132.00,5533.53 11139.00,5534.53 11139.00,5534.53
             11139.00,5534.53 11155.00,5539.19 11155.00,5539.19
             11164.36,5541.07 11175.57,5541.96 11182.53,5549.30
             11187.81,5554.86 11187.42,5559.57 11189.84,5562.73
             11191.57,5564.99 11195.20,5566.43 11197.83,5568.68
             11200.60,5571.05 11204.96,5576.84 11206.88,5580.00
             11206.88,5580.00 11216.43,5606.00 11216.43,5606.00
             11221.06,5615.61 11230.68,5624.53 11229.67,5636.00
             11228.69,5647.20 11222.48,5650.09 11220.02,5655.00
             11220.02,5655.00 11217.96,5664.00 11217.96,5664.00
             11216.43,5669.10 11215.30,5669.44 11213.72,5673.00
             11211.89,5677.11 11213.65,5679.18 11211.70,5686.00
             11208.51,5697.16 11201.14,5700.28 11191.00,5703.00
             11194.02,5715.43 11188.32,5729.30 11175.00,5732.23
             11168.37,5734.05 11160.78,5732.06 11154.00,5732.23
             11154.00,5732.23 11149.00,5743.00 11149.00,5743.00
             11155.33,5745.52 11160.66,5746.73 11165.32,5752.17
             11173.14,5761.32 11171.67,5770.85 11167.28,5781.00
             11165.44,5785.26 11164.18,5788.23 11160.70,5791.53
             11152.96,5798.88 11144.32,5796.31 11138.70,5803.32
             11138.70,5803.32 11134.39,5812.00 11134.39,5812.00
             11125.91,5826.45 11128.46,5817.34 11121.79,5836.83
             11120.14,5841.67 11125.81,5855.44 11127.24,5861.00
             11127.24,5861.00 11128.60,5868.00 11128.60,5868.00
             11130.09,5873.64 11133.48,5881.35 11133.91,5887.00
             11134.42,5893.73 11132.39,5896.06 11132.48,5900.00
             11132.58,5904.36 11134.53,5906.08 11133.53,5912.00
             11133.53,5912.00 11123.63,5938.00 11123.63,5938.00
             11123.63,5938.00 11122.47,5946.00 11122.47,5946.00
             11122.47,5946.00 11119.38,5955.00 11119.38,5955.00
             11119.38,5955.00 11115.87,5973.00 11115.87,5973.00
             11114.31,5977.22 11111.95,5979.39 11109.77,5983.00
             11109.77,5983.00 11099.19,6003.00 11099.19,6003.00
             11097.00,6007.38 11090.69,6017.31 11087.63,6020.98
             11083.33,6026.15 11079.90,6026.68 11078.46,6030.10
             11077.65,6032.02 11078.03,6034.90 11077.95,6037.00
             11077.50,6048.97 11068.95,6058.41 11057.00,6059.65
             11057.00,6059.65 11039.00,6059.65 11039.00,6059.65
             11036.56,6059.84 11034.31,6061.20 11032.00,6062.05
             11032.00,6062.05 11025.00,6064.27 11025.00,6064.27
             11025.00,6064.27 11011.00,6071.49 11011.00,6071.49
             11006.84,6073.33 10999.53,6074.86 10996.39,6077.65
             10993.75,6079.98 10993.31,6082.88 10988.96,6086.67
             10984.55,6090.51 10981.21,6090.54 10977.66,6094.22
             10977.66,6094.22 10967.52,6106.00 10967.52,6106.00
             10967.52,6106.00 10962.48,6112.70 10962.48,6112.70
             10959.20,6116.26 10955.75,6117.60 10952.17,6120.49
             10947.50,6124.26 10943.32,6128.52 10938.00,6131.47
             10932.92,6134.29 10930.93,6133.47 10926.00,6134.76
             10926.00,6134.76 10914.00,6138.67 10914.00,6138.67
             10914.00,6138.67 10906.00,6139.61 10906.00,6139.61
             10895.68,6142.22 10880.74,6148.89 10872.22,6155.18
             10868.96,6157.60 10868.57,6160.71 10866.20,6163.96
             10866.20,6163.96 10850.83,6181.07 10850.83,6181.07
             10847.36,6183.89 10845.41,6184.11 10842.00,6186.06
             10834.45,6190.36 10833.29,6192.26 10824.00,6195.46
             10824.00,6195.46 10813.17,6198.02 10813.17,6198.02
             10813.17,6198.02 10805.99,6204.39 10805.99,6204.39
             10805.99,6204.39 10792.00,6213.63 10792.00,6213.63
             10792.00,6213.63 10777.00,6224.76 10777.00,6224.76
             10771.05,6228.56 10768.32,6228.92 10763.00,6231.67
             10763.00,6231.67 10753.00,6237.52 10753.00,6237.52
             10745.29,6240.73 10737.04,6241.57 10729.00,6243.36
             10729.00,6243.36 10720.00,6245.82 10720.00,6245.82
             10713.07,6246.68 10707.56,6245.07 10701.00,6245.00
             10689.61,6244.89 10688.61,6248.09 10681.00,6246.00
             10681.00,6246.00 10681.00,6256.00 10681.00,6256.00
             10681.08,6267.30 10686.61,6268.05 10690.47,6277.00
             10694.91,6287.28 10690.82,6300.68 10680.80,6306.00
             10683.38,6313.33 10684.27,6320.87 10680.80,6328.00
             10680.80,6328.00 10676.43,6335.00 10676.43,6335.00
             10674.45,6339.10 10675.00,6341.58 10671.53,6346.96
             10665.33,6356.58 10655.33,6357.85 10645.00,6356.00
             10654.41,6367.16 10654.53,6373.85 10649.86,6387.00
             10646.87,6395.40 10644.92,6398.51 10640.18,6406.00
             10640.18,6406.00 10634.90,6415.00 10634.90,6415.00
             10634.90,6415.00 10629.35,6423.00 10629.35,6423.00
             10625.39,6429.75 10624.87,6434.03 10617.00,6438.00
             10609.51,6441.79 10604.16,6440.30 10601.00,6441.20
             10598.74,6441.85 10590.49,6446.92 10584.00,6448.71
             10584.00,6448.71 10561.00,6453.63 10561.00,6453.63
             10561.00,6453.63 10553.00,6456.64 10553.00,6456.64
             10553.00,6456.64 10544.18,6459.17 10544.18,6459.17
             10541.67,6460.63 10539.35,6464.48 10536.91,6466.79
             10531.49,6471.93 10530.34,6470.82 10528.00,6479.00
             10533.86,6482.23 10532.76,6484.67 10536.49,6488.61
             10537.45,6489.63 10548.77,6496.97 10550.00,6497.41
             10553.42,6498.63 10554.03,6496.86 10565.00,6501.20
             10576.03,6505.57 10575.20,6508.02 10588.00,6511.24
             10597.22,6513.57 10605.29,6511.27 10613.99,6517.64
             10618.34,6520.82 10628.96,6537.27 10633.67,6542.96
             10638.10,6548.31 10641.65,6548.93 10645.36,6554.01
             10648.42,6558.19 10649.31,6563.28 10651.65,6565.40
             10654.26,6567.78 10666.09,6568.61 10670.00,6569.53
             10674.23,6570.52 10677.17,6572.63 10681.00,6574.05
             10685.51,6575.73 10688.78,6575.52 10693.00,6576.52
             10696.24,6577.29 10699.76,6579.13 10703.00,6579.35
             10703.00,6579.35 10712.00,6578.10 10712.00,6578.10
             10719.32,6577.60 10727.82,6581.08 10732.20,6587.04
             10734.70,6590.44 10735.01,6592.96 10736.82,6596.00
             10740.42,6602.02 10743.38,6604.46 10745.90,6612.00
             10747.64,6617.21 10746.36,6619.41 10747.98,6623.00
             10747.98,6623.00 10763.38,6646.61 10763.38,6646.61
             10766.43,6649.63 10770.19,6650.21 10774.36,6656.00
             10778.67,6661.98 10777.74,6666.15 10779.80,6671.00
             10779.80,6671.00 10790.81,6687.72 10790.81,6687.72
             10796.56,6695.55 10801.32,6695.25 10806.53,6700.47
             10810.94,6704.87 10812.14,6710.46 10817.02,6712.98
             10819.77,6714.40 10822.78,6713.67 10827.00,6714.76
             10835.65,6716.99 10841.40,6722.42 10843.96,6731.00
             10846.89,6740.83 10842.49,6751.47 10834.00,6757.04
             10834.00,6757.04 10820.49,6763.84 10820.49,6763.84
             10820.49,6763.84 10814.67,6771.90 10814.67,6771.90
             10811.77,6775.09 10809.45,6775.70 10807.49,6777.63
             10807.49,6777.63 10800.82,6787.00 10800.82,6787.00
             10794.47,6794.24 10786.34,6800.62 10781.28,6809.01
             10781.28,6809.01 10769.64,6840.00 10769.64,6840.00
             10765.72,6846.82 10760.21,6848.97 10756.21,6853.17
             10752.68,6856.88 10751.05,6861.73 10748.40,6866.00
             10748.40,6866.00 10743.42,6873.00 10743.42,6873.00
             10740.81,6877.16 10741.22,6879.67 10739.53,6884.00
             10737.86,6888.31 10733.64,6894.34 10730.49,6897.70
             10727.84,6900.53 10712.09,6908.87 10708.00,6910.64
             10708.00,6910.64 10701.01,6913.16 10701.01,6913.16
             10697.49,6915.05 10696.20,6917.80 10691.96,6920.53
             10691.96,6920.53 10682.00,6925.37 10682.00,6925.37
             10682.00,6925.37 10669.00,6932.92 10669.00,6932.92
             10669.00,6932.92 10661.00,6938.01 10661.00,6938.01
             10661.00,6938.01 10653.00,6941.52 10653.00,6941.52
             10653.00,6941.52 10640.00,6949.40 10640.00,6949.40
             10640.00,6949.40 10625.00,6956.49 10625.00,6956.49
             10625.00,6956.49 10615.00,6959.88 10615.00,6959.88
             10615.00,6959.88 10600.00,6968.01 10600.00,6968.01
             10600.00,6968.01 10588.17,6972.10 10588.17,6972.10
             10588.17,6972.10 10576.00,6981.64 10576.00,6981.64
             10576.00,6981.64 10557.00,6990.31 10557.00,6990.31
             10557.00,6990.31 10534.00,7006.07 10534.00,7006.07
             10534.00,7006.07 10520.01,7012.22 10520.01,7012.22
             10515.91,7014.61 10514.46,7017.67 10510.96,7020.67
             10505.41,7025.43 10501.04,7026.16 10494.00,7025.99
             10486.45,7025.80 10486.35,7024.01 10482.00,7023.08
             10482.00,7023.08 10465.00,7022.00 10465.00,7022.00
             10465.00,7022.00 10477.10,7036.37 10477.10,7036.37
             10477.10,7036.37 10484.00,7040.47 10484.00,7040.47
             10492.84,7045.92 10500.36,7053.01 10500.90,7064.00
             10501.26,7071.44 10497.77,7078.86 10491.98,7083.47
             10488.39,7086.34 10484.63,7087.67 10481.37,7091.18
             10473.94,7099.19 10468.81,7109.44 10462.44,7118.28
             10462.44,7118.28 10454.65,7131.00 10454.65,7131.00
             10454.65,7131.00 10437.55,7154.00 10437.55,7154.00
             10437.55,7154.00 10432.65,7163.00 10432.65,7163.00
             10432.65,7163.00 10428.01,7170.00 10428.01,7170.00
             10426.03,7174.19 10427.98,7178.25 10425.87,7184.00
             10424.25,7188.42 10421.37,7191.15 10418.95,7195.00
             10414.26,7202.45 10409.79,7210.61 10401.99,7215.39
             10396.55,7218.72 10393.55,7218.20 10388.00,7219.37
             10388.00,7219.37 10380.00,7221.84 10380.00,7221.84
             10370.17,7223.38 10359.04,7222.00 10349.00,7221.84
             10354.40,7229.37 10358.62,7229.37 10362.87,7236.00
             10365.94,7240.80 10366.97,7248.71 10371.27,7252.49
             10374.08,7254.97 10377.91,7255.11 10381.99,7257.61
             10388.76,7261.77 10393.28,7270.02 10392.90,7278.00
             10392.40,7288.51 10385.22,7297.44 10375.00,7299.96
             10367.94,7301.70 10365.73,7299.73 10361.01,7302.42
             10356.37,7305.07 10353.48,7310.13 10349.83,7313.91
             10349.83,7313.91 10336.37,7325.46 10336.37,7325.46
             10330.21,7331.71 10322.49,7345.65 10319.55,7354.00
             10317.79,7358.98 10318.32,7363.17 10316.09,7368.00
             10312.23,7376.31 10306.70,7377.26 10303.84,7381.21
             10303.84,7381.21 10299.64,7390.00 10299.64,7390.00
             10296.74,7394.97 10294.49,7395.61 10291.63,7399.17
             10285.70,7406.56 10285.40,7411.54 10275.00,7415.53
             10269.99,7417.46 10266.20,7416.94 10261.00,7417.00
             10261.00,7417.00 10248.00,7417.83 10248.00,7417.83
             10248.00,7417.83 10226.00,7414.00 10226.00,7414.00
             10226.00,7414.00 10235.55,7434.00 10235.55,7434.00
             10240.58,7441.87 10247.56,7449.91 10246.67,7460.00
             10246.37,7463.45 10245.16,7466.70 10244.20,7470.00
             10238.94,7488.24 10238.35,7482.30 10231.04,7496.00
             10228.46,7500.84 10227.19,7507.31 10223.53,7512.96
             10217.91,7521.66 10207.66,7524.35 10198.00,7522.00
             10198.00,7522.00 10199.02,7533.28 10199.02,7533.28
             10199.74,7537.83 10201.30,7539.15 10200.90,7545.00
             10200.33,7553.35 10196.68,7556.53 10192.77,7563.00
             10192.77,7563.00 10188.37,7570.96 10188.37,7570.96
             10186.30,7573.81 10184.48,7574.75 10182.79,7578.09
             10182.79,7578.09 10179.08,7588.00 10179.08,7588.00
             10177.81,7591.08 10169.73,7605.76 10167.73,7607.70
             10164.89,7610.46 10159.25,7611.93 10156.26,7614.07
             10154.00,7615.68 10152.67,7618.43 10149.95,7619.38
             10147.00,7620.42 10144.26,7618.78 10141.00,7618.84
             10141.00,7618.84 10134.00,7618.84 10134.00,7618.84
             10135.18,7626.90 10137.75,7622.16 10142.63,7626.43
             10145.04,7628.55 10154.18,7638.31 10155.60,7641.00
             10155.60,7641.00 10158.41,7647.83 10158.41,7647.83
             10160.03,7650.92 10163.31,7653.03 10162.63,7656.98
             10161.98,7660.74 10158.82,7661.45 10156.30,7663.54
             10153.74,7665.66 10152.61,7668.06 10148.91,7670.78
             10148.91,7670.78 10141.27,7675.07 10141.27,7675.07
             10138.47,7677.14 10134.74,7684.77 10132.37,7688.00
             10132.37,7688.00 10124.63,7696.17 10124.63,7696.17
             10124.63,7696.17 10116.59,7711.00 10116.59,7711.00
             10115.59,7712.93 10112.56,7718.09 10112.58,7719.96
             10112.61,7724.00 10118.88,7726.32 10123.89,7734.00
             10128.48,7741.03 10126.94,7746.43 10129.85,7750.91
             10131.72,7753.77 10134.38,7754.96 10136.62,7757.32
             10138.83,7759.65 10140.00,7762.33 10141.66,7765.00
             10145.78,7771.62 10149.97,7775.49 10149.97,7784.00
             10149.97,7796.46 10141.62,7795.12 10136.85,7802.02
             10133.01,7807.58 10134.01,7813.21 10130.65,7818.91
             10130.65,7818.91 10113.33,7837.30 10113.33,7837.30
             10113.33,7837.30 10104.94,7853.00 10104.94,7853.00
             10104.94,7853.00 10086.44,7882.01 10086.44,7882.01
             10086.44,7882.01 10075.64,7909.00 10075.64,7909.00
             10070.56,7917.87 10065.02,7920.50 10061.64,7925.04
             10061.64,7925.04 10056.51,7933.57 10056.51,7933.57
             10053.64,7936.48 10051.80,7935.04 10046.59,7939.94
             10042.88,7943.42 10037.71,7949.52 10033.00,7951.27
             10030.16,7952.32 10023.31,7952.00 10020.00,7952.00
             10025.68,7957.23 10029.36,7953.23 10032.43,7963.00
             10035.98,7974.32 10032.58,7975.73 10030.46,7982.00
             10025.55,7996.53 10025.56,7993.00 10018.47,8005.00
             10018.47,8005.00 10014.18,8013.91 10014.18,8013.91
             10014.18,8013.91 10009.18,8020.09 10009.18,8020.09
             10003.08,8028.34 10003.58,8030.67 9993.00,8034.00
             9993.00,8034.00 9994.78,8043.00 9994.78,8043.00
             9994.78,8043.00 9997.53,8052.00 9997.53,8052.00
             9997.53,8052.00 9998.56,8062.00 9998.56,8062.00
             9999.88,8066.24 10004.17,8070.85 10006.60,8082.00
             10007.13,8085.87 10005.90,8087.17 10006.60,8091.00
             10007.96,8095.71 10011.53,8099.70 10011.89,8106.00
             10012.43,8115.38 10007.27,8118.38 10006.21,8125.00
             10006.21,8125.00 10005.56,8132.00 10005.56,8132.00
             10003.09,8147.78 9999.80,8153.11 9995.37,8167.00
             9995.37,8167.00 9989.65,8184.00 9989.65,8184.00
             9987.27,8189.14 9985.15,8189.88 9983.41,8193.17
             9980.10,8199.42 9979.01,8206.04 9974.39,8211.96
             9970.60,8216.83 9966.92,8217.65 9964.43,8220.38
             9961.97,8223.07 9961.47,8227.49 9960.80,8231.00
             9958.54,8243.01 9960.24,8254.56 9946.00,8258.81
             9941.79,8260.07 9940.90,8259.77 9937.00,8258.00
             9936.39,8260.29 9935.77,8263.80 9934.27,8265.57
             9934.27,8265.57 9916.00,8276.03 9916.00,8276.03
             9916.00,8276.03 9896.00,8284.76 9896.00,8284.76
             9896.00,8284.76 9879.00,8294.56 9879.00,8294.56
             9879.00,8294.56 9870.00,8298.57 9870.00,8298.57
             9870.00,8298.57 9860.00,8306.61 9860.00,8306.61
             9860.00,8306.61 9836.00,8325.44 9836.00,8325.44
             9832.88,8327.64 9828.31,8331.68 9825.01,8332.98
             9825.01,8332.98 9810.00,8334.68 9810.00,8334.68
             9804.20,8336.01 9799.27,8339.31 9796.00,8340.32
             9796.00,8340.32 9787.00,8341.53 9787.00,8341.53
             9782.85,8342.48 9779.01,8344.96 9775.00,8346.47
             9775.00,8346.47 9764.04,8349.84 9764.04,8349.84
             9759.37,8351.97 9758.90,8355.28 9756.32,8359.00
             9754.39,8361.77 9751.41,8364.58 9749.00,8367.00
             9746.96,8369.05 9740.82,8375.73 9738.83,8376.83
             9735.41,8378.72 9732.86,8377.11 9729.42,8379.60
             9727.37,8381.08 9721.99,8387.31 9717.00,8390.08
             9710.99,8393.42 9703.45,8393.64 9697.00,8395.62
             9697.00,8395.62 9667.00,8405.63 9667.00,8405.63
             9667.00,8405.63 9647.83,8408.72 9647.83,8408.72
             9640.80,8412.06 9626.40,8425.49 9621.88,8432.00
             9618.43,8436.97 9610.79,8449.15 9606.83,8452.73
             9603.14,8456.06 9599.32,8456.44 9595.00,8458.34
             9591.44,8459.90 9582.97,8465.70 9580.42,8468.47
             9574.91,8474.43 9576.61,8480.69 9583.02,8484.90
             9583.02,8484.90 9595.00,8490.84 9595.00,8490.84
             9601.37,8494.82 9607.85,8503.22 9606.10,8511.00
             9604.06,8520.02 9601.24,8525.71 9592.00,8528.89
             9587.78,8530.35 9585.39,8529.62 9581.04,8531.83
             9581.04,8531.83 9568.00,8540.83 9568.00,8540.83
             9564.77,8542.29 9563.01,8541.25 9560.00,8542.60
             9554.05,8545.25 9545.83,8555.40 9545.11,8562.00
             9544.10,8571.26 9547.40,8583.56 9553.19,8590.86
             9556.42,8594.92 9558.97,8593.74 9560.98,8597.14
             9562.15,8599.13 9561.92,8602.11 9562.85,8605.00
             9565.85,8614.32 9566.71,8612.07 9567.83,8624.00
             9568.90,8635.39 9564.02,8638.96 9559.80,8648.00
             9559.80,8648.00 9553.83,8666.00 9553.83,8666.00
             9552.42,8670.77 9551.91,8684.05 9552.48,8689.00
             9552.48,8689.00 9553.94,8699.00 9553.94,8699.00
             9554.15,8706.13 9555.40,8713.99 9559.65,8720.00
             9563.79,8725.85 9570.78,8729.15 9574.47,8733.30
             9579.11,8738.52 9582.08,8753.19 9580.61,8760.00
             9579.00,8767.48 9570.48,8778.66 9566.94,8786.00
             9566.94,8786.00 9556.53,8809.00 9556.53,8809.00
             9556.53,8809.00 9549.30,8828.00 9549.30,8828.00
             9549.30,8828.00 9534.79,8851.00 9534.79,8851.00
             9534.79,8851.00 9529.74,8862.00 9529.74,8862.00
             9529.74,8862.00 9523.01,8874.00 9523.01,8874.00
             9521.54,8876.65 9518.80,8880.65 9520.11,8883.72
             9521.23,8886.34 9528.65,8892.78 9531.00,8895.04
             9535.17,8899.04 9538.76,8903.11 9544.00,8905.81
             9547.22,8907.47 9550.60,8908.22 9554.00,8909.35
             9554.00,8909.35 9571.00,8914.49 9571.00,8914.49
             9571.00,8914.49 9601.00,8920.96 9601.00,8920.96
             9612.21,8924.99 9627.14,8938.09 9635.83,8946.42
             9639.37,8949.82 9641.92,8954.22 9646.04,8956.97
             9657.27,8964.45 9667.36,8963.82 9673.00,8966.07
             9677.61,8967.91 9692.15,8975.73 9696.00,8978.68
             9696.00,8978.68 9706.00,8986.75 9706.00,8986.75
             9706.00,8986.75 9715.00,8991.61 9715.00,8991.61
             9717.79,8993.43 9724.44,8998.55 9726.35,9001.09
             9726.35,9001.09 9737.77,9028.00 9737.77,9028.00
             9739.34,9032.21 9743.18,9045.89 9746.80,9048.04
             9750.06,9049.98 9760.08,9042.59 9763.00,9040.76
             9771.53,9035.39 9774.54,9035.39 9784.00,9033.40
             9784.00,9033.40 9789.96,9032.57 9789.96,9032.57
             9795.55,9030.96 9793.66,9027.67 9802.00,9027.00
             9802.74,9018.85 9806.02,9014.24 9814.00,9011.60
             9817.79,9010.34 9821.84,9010.65 9824.99,9008.52
             9824.99,9008.52 9839.09,8994.21 9839.09,8994.21
             9843.11,8990.56 9846.84,8989.75 9851.00,8987.04
             9855.66,8984.00 9858.56,8979.76 9862.00,8978.02
             9866.42,8975.79 9879.65,8975.03 9885.00,8975.00
             9884.50,8972.06 9883.66,8968.89 9885.74,8966.31
             9888.72,8962.64 9898.20,8963.24 9896.00,8973.00
             9899.93,8973.52 9905.43,8973.98 9909.00,8975.32
             9909.00,8975.32 9921.00,8981.42 9921.00,8981.42
             9921.00,8981.42 9929.00,8982.43 9929.00,8982.43
             9932.09,8983.23 9943.34,8990.90 9945.44,8993.37
             9947.08,8995.29 9947.63,8997.78 9949.00,8999.96
             9950.91,9003.00 9953.13,9004.31 9954.26,9007.09
             9955.48,9010.08 9954.38,9012.64 9956.60,9015.96
             9959.21,9019.86 9964.03,9021.25 9967.49,9026.02
             9971.93,9032.13 9969.91,9040.34 9983.00,9040.08
             10001.14,9039.71 9998.29,9037.09 10013.00,9030.44
             10018.19,9028.09 10028.93,9023.69 10032.96,9020.47
             10032.96,9020.47 10048.09,9005.43 10048.09,9005.43
             10052.83,9001.09 10066.17,8992.29 10072.00,8989.37
             10077.94,8986.39 10087.32,8983.56 10094.00,8984.18
             10097.46,8984.50 10099.05,8986.25 10102.00,8986.38
             10104.18,8986.48 10111.08,8984.13 10117.00,8984.51
             10117.00,8984.51 10128.00,8985.55 10128.00,8985.55
             10128.00,8985.55 10134.00,8985.55 10134.00,8985.55
             10134.00,8985.55 10141.00,8986.70 10141.00,8986.70
             10149.70,8987.95 10147.55,8986.61 10157.00,8989.83
             10162.55,8991.73 10165.96,8990.86 10170.82,8995.34
             10177.03,9001.06 10179.12,9010.24 10181.44,9018.00
             10184.97,9029.85 10189.95,9041.55 10191.00,9054.00
             10191.00,9054.00 10209.99,9045.18 10209.99,9045.18
             10214.81,9042.60 10215.77,9040.04 10220.01,9038.23
             10222.68,9037.08 10224.59,9037.23 10227.00,9036.52
             10227.00,9036.52 10247.00,9028.15 10247.00,9028.15
             10252.30,9024.57 10253.40,9021.08 10259.01,9017.46
             10259.01,9017.46 10266.83,9012.91 10266.83,9012.91
             10266.83,9012.91 10272.09,9009.14 10272.09,9009.14
             10274.99,9007.56 10277.19,9007.74 10280.86,9004.37
             10285.46,9000.14 10283.89,8995.63 10291.04,8991.36
             10296.30,8988.22 10301.71,8988.78 10304.96,8986.99
             10309.93,8984.25 10309.57,8979.76 10316.01,8977.71
             10323.69,8975.26 10329.19,8977.65 10335.87,8973.62
             10339.14,8971.65 10343.19,8963.72 10347.32,8960.73
             10351.80,8957.49 10357.41,8960.28 10362.00,8957.98
             10367.27,8955.33 10369.66,8948.98 10374.04,8945.27
             10378.51,8941.50 10383.21,8941.66 10386.90,8939.16
             10390.14,8936.96 10392.37,8932.34 10396.29,8929.70
             10399.64,8927.43 10405.04,8927.05 10409.00,8927.00
             10409.00,8927.00 10438.00,8926.39 10438.00,8926.39
             10438.00,8926.39 10455.00,8923.98 10455.00,8923.98
             10455.00,8923.98 10483.00,8923.98 10483.00,8923.98
             10490.28,8924.16 10492.80,8920.42 10507.00,8928.14
             10513.01,8931.42 10522.35,8937.80 10526.62,8943.01
             10526.62,8943.01 10531.90,8951.00 10531.90,8951.00
             10534.94,8955.45 10543.82,8965.42 10548.17,8968.28
             10550.44,8969.77 10565.32,8972.14 10569.00,8972.75
             10574.80,8973.73 10583.89,8977.79 10588.96,8974.40
             10594.48,8970.71 10598.31,8960.45 10599.15,8954.00
             10599.15,8954.00 10599.15,8946.00 10599.15,8946.00
             10599.00,8941.42 10595.00,8922.09 10593.39,8918.00
             10593.39,8918.00 10588.51,8908.00 10588.51,8908.00
             10585.71,8902.31 10577.73,8892.80 10579.83,8886.00
             10581.78,8879.67 10594.27,8871.26 10597.44,8865.00
             10602.31,8855.41 10600.89,8843.19 10602.60,8839.11
             10605.11,8833.10 10611.52,8837.11 10613.78,8830.89
             10617.20,8821.46 10614.38,8819.25 10620.53,8807.00
             10622.21,8803.66 10623.01,8801.91 10626.04,8799.47
             10633.57,8793.40 10639.06,8793.79 10647.00,8791.16
             10647.00,8791.16 10653.00,8788.68 10653.00,8788.68
             10653.00,8788.68 10659.96,8786.86 10659.96,8786.86
             10663.87,8785.11 10664.36,8782.92 10667.21,8781.13
             10669.71,8779.56 10672.94,8779.39 10675.44,8776.61
             10677.35,8774.49 10677.43,8771.94 10680.22,8769.70
             10683.49,8767.08 10691.37,8766.36 10694.73,8764.03
             10697.01,8762.45 10697.49,8760.28 10699.41,8758.74
             10701.71,8756.89 10704.10,8757.24 10706.99,8755.69
             10710.59,8753.75 10712.17,8750.73 10715.09,8749.17
             10718.46,8747.37 10720.44,8748.84 10725.00,8745.97
             10725.00,8745.97 10741.00,8733.58 10741.00,8733.58
             10751.76,8727.12 10751.13,8730.48 10757.00,8728.78
             10765.53,8726.32 10764.29,8722.05 10780.00,8722.00
             10781.76,8716.31 10789.31,8712.38 10795.00,8711.27
             10801.18,8710.07 10808.54,8710.60 10813.79,8706.35
             10816.41,8704.23 10818.98,8698.66 10822.18,8695.00
             10830.37,8685.66 10833.23,8686.60 10836.62,8683.51
             10840.28,8680.17 10839.90,8676.73 10849.00,8670.60
             10849.00,8670.60 10889.00,8651.29 10889.00,8651.29
             10889.00,8651.29 10900.98,8647.20 10900.98,8647.20
             10906.54,8644.60 10905.88,8641.42 10911.04,8638.97
             10915.24,8636.98 10919.28,8637.58 10923.00,8635.57
             10923.00,8635.57 10934.00,8627.11 10934.00,8627.11
             10937.49,8624.82 10941.63,8623.78 10944.63,8620.79
             10950.42,8615.00 10954.08,8606.47 10961.00,8601.87
             10965.41,8598.95 10982.75,8591.01 10988.00,8589.44
             10988.00,8589.44 11001.00,8586.19 11001.00,8586.19
             11001.00,8586.19 11015.00,8578.32 11015.00,8578.32
             11015.00,8578.32 11035.98,8570.02 11035.98,8570.02
             11042.79,8566.37 11041.26,8563.18 11044.65,8559.39
             11047.10,8556.64 11051.72,8555.24 11054.87,8552.90
             11058.20,8550.42 11058.41,8548.54 11062.05,8546.41
             11062.05,8546.41 11072.00,8542.45 11072.00,8542.45
             11072.00,8542.45 11081.00,8536.68 11081.00,8536.68
             11081.00,8536.68 11090.00,8533.86 11090.00,8533.86
             11095.44,8531.74 11094.99,8529.82 11104.00,8527.81
             11111.60,8526.26 11109.38,8529.24 11120.00,8527.81
             11129.01,8526.44 11136.94,8522.24 11145.00,8518.25
             11145.00,8518.25 11151.00,8515.59 11151.00,8515.59
             11158.16,8511.47 11159.53,8506.52 11163.38,8502.28
             11167.69,8497.55 11172.11,8494.76 11175.89,8489.00
             11179.88,8482.94 11180.68,8476.16 11188.00,8472.31
             11188.00,8472.31 11209.00,8467.41 11209.00,8467.41
             11209.00,8467.41 11223.00,8463.52 11223.00,8463.52
             11223.00,8463.52 11229.42,8463.01 11229.42,8463.01
             11229.42,8463.01 11243.00,8460.08 11243.00,8460.08
             11243.00,8460.08 11262.00,8452.90 11262.00,8452.90
             11262.00,8452.90 11272.00,8449.98 11272.00,8449.98
             11274.12,8449.10 11276.05,8448.20 11277.74,8446.61
             11277.74,8446.61 11298.74,8413.17 11298.74,8413.17
             11300.94,8410.42 11304.48,8406.31 11308.01,8405.58
             11311.58,8404.85 11320.27,8406.18 11322.85,8404.79
             11326.46,8402.84 11325.28,8399.42 11328.31,8396.65
             11330.76,8394.41 11334.18,8394.17 11336.91,8392.71
             11336.91,8392.71 11343.09,8388.43 11343.09,8388.43
             11346.59,8386.75 11352.12,8386.95 11356.00,8387.00
             11364.49,8387.12 11362.69,8388.79 11368.17,8391.54
             11368.17,8391.54 11376.00,8394.62 11376.00,8394.62
             11389.34,8399.15 11403.72,8395.39 11414.01,8412.00
             11417.92,8418.32 11416.29,8421.78 11417.53,8427.00
             11417.53,8427.00 11423.11,8440.00 11423.11,8440.00
             11424.93,8444.93 11425.50,8450.59 11427.96,8455.00
             11430.32,8459.22 11440.99,8473.62 11444.21,8476.79
             11447.91,8480.44 11451.70,8480.83 11455.09,8485.18
             11456.61,8487.14 11463.54,8498.87 11464.20,8501.00
             11465.45,8505.05 11464.50,8508.29 11466.02,8510.77
             11468.90,8515.48 11474.50,8512.27 11481.86,8517.95
             11487.36,8522.21 11484.25,8526.13 11487.50,8532.04
             11489.26,8535.23 11492.21,8539.30 11495.04,8541.59
             11497.61,8543.67 11501.15,8544.70 11502.39,8548.05
             11503.50,8551.07 11501.94,8555.09 11501.00,8558.00
             11501.00,8558.00 11502.00,8559.00 11502.00,8559.00
             11502.00,8559.00 11504.00,8559.00 11504.00,8559.00
             11504.73,8557.58 11504.91,8556.70 11506.29,8555.60
             11512.37,8550.81 11519.84,8560.38 11512.85,8565.25
             11511.35,8566.30 11509.78,8566.61 11508.00,8566.17
             11506.38,8565.77 11505.34,8564.87 11504.00,8564.00
             11501.52,8574.96 11496.52,8572.75 11492.60,8578.18
             11489.98,8581.81 11491.66,8586.04 11490.57,8590.00
             11488.64,8597.02 11482.10,8597.50 11476.00,8598.00
             11478.83,8608.34 11472.77,8606.68 11467.88,8613.05
             11463.03,8619.38 11460.06,8626.15 11459.00,8634.00
             11468.65,8631.38 11471.66,8638.06 11465.00,8646.00
             11478.11,8651.48 11482.54,8659.41 11486.93,8672.00
             11487.86,8674.64 11490.88,8683.91 11492.51,8685.41
             11495.03,8687.72 11501.55,8687.02 11501.55,8693.00
             11501.55,8696.17 11499.32,8697.56 11497.41,8699.59
             11497.41,8699.59 11491.95,8705.91 11491.95,8705.91
             11491.95,8705.91 11486.31,8711.17 11486.31,8711.17
             11482.25,8716.07 11485.50,8719.73 11482.41,8723.59
             11480.90,8725.46 11478.74,8725.89 11477.16,8728.27
             11475.69,8730.47 11476.12,8732.49 11472.86,8735.67
             11472.86,8735.67 11467.27,8739.90 11467.27,8739.90
             11465.08,8741.79 11464.95,8742.78 11463.32,8744.64
             11463.32,8744.64 11459.54,8748.37 11459.54,8748.37
             11456.52,8752.16 11456.04,8758.34 11456.00,8763.00
             11460.66,8761.11 11463.98,8760.56 11467.44,8765.11
             11471.13,8769.95 11468.68,8775.10 11472.41,8782.00
             11475.58,8787.84 11484.66,8795.90 11486.02,8798.17
             11487.76,8801.08 11488.83,8811.33 11489.00,8815.00
             11493.46,8816.39 11496.73,8820.24 11493.26,8824.69
             11491.44,8827.02 11488.77,8826.87 11487.17,8829.31
             11486.16,8830.86 11486.02,8833.20 11485.73,8835.00
             11483.68,8847.59 11476.31,8860.09 11466.72,8868.47
             11461.79,8872.77 11458.09,8872.34 11455.74,8875.30
             11453.53,8878.08 11454.36,8881.40 11453.69,8884.00
             11452.27,8889.50 11447.99,8890.71 11443.00,8891.00
             11443.00,8891.00 11441.21,8900.00 11441.21,8900.00
             11440.55,8904.67 11441.01,8909.36 11439.29,8914.00
             11439.29,8914.00 11431.74,8930.00 11431.74,8930.00
             11425.65,8948.11 11422.24,8960.14 11407.57,8973.89
             11402.56,8978.59 11400.74,8976.19 11395.00,8976.18
             11390.76,8976.16 11379.22,8977.52 11375.00,8978.50
             11371.40,8979.33 11365.04,8980.82 11366.66,8985.95
             11367.78,8989.54 11371.37,8989.59 11373.85,8991.58
             11376.33,8993.56 11376.53,8995.10 11377.00,8998.00
             11379.04,8997.64 11383.32,8996.41 11385.00,8996.64
             11386.75,8996.88 11388.32,8997.81 11389.40,8999.23
             11392.76,9003.65 11388.39,9008.36 11386.00,9012.00
             11386.00,9012.00 11387.00,9013.00 11387.00,9013.00
             11397.26,9011.11 11400.68,9021.49 11391.00,9025.00
             11392.13,9029.65 11392.84,9036.35 11386.01,9036.56
             11386.01,9036.56 11378.20,9035.00 11378.20,9035.00
             11378.88,9038.11 11379.58,9041.84 11378.20,9045.00
             11375.88,9051.77 11362.68,9056.31 11356.00,9057.00
             11354.66,9063.61 11351.74,9065.22 11351.40,9069.00
             11351.09,9072.54 11353.80,9075.31 11351.96,9078.94
             11349.30,9084.17 11340.01,9082.46 11342.25,9087.74
             11343.76,9091.31 11350.31,9090.35 11354.57,9095.21
             11357.19,9098.19 11357.50,9102.40 11358.93,9106.00
             11360.66,9110.40 11363.29,9114.43 11366.44,9117.96
             11371.18,9123.27 11373.20,9122.44 11377.83,9125.91
             11377.83,9125.91 11388.83,9136.96 11388.83,9136.96
             11390.53,9138.77 11393.61,9141.80 11394.41,9144.09
             11397.17,9151.97 11385.85,9160.42 11382.09,9166.09
             11380.12,9169.07 11377.91,9174.26 11375.47,9176.57
             11372.60,9179.30 11370.02,9178.65 11367.34,9180.73
             11367.34,9180.73 11359.41,9190.78 11359.41,9190.78
             11356.01,9194.18 11353.88,9193.97 11351.69,9196.41
             11349.07,9199.35 11345.86,9209.72 11339.98,9212.69
             11336.20,9214.60 11326.55,9214.00 11322.00,9214.00
             11324.11,9221.77 11331.93,9227.44 11331.53,9236.00
             11331.30,9240.85 11321.21,9256.61 11318.15,9262.00
             11310.99,9274.61 11307.90,9280.12 11299.00,9292.00
             11296.67,9295.12 11293.98,9300.23 11290.95,9302.26
             11288.35,9304.00 11283.27,9304.51 11280.00,9305.43
             11280.00,9305.43 11255.00,9312.00 11255.00,9312.00
             11260.48,9319.04 11262.07,9315.51 11265.69,9318.60
             11267.41,9320.07 11269.57,9330.69 11269.37,9333.00
             11269.23,9334.67 11268.63,9335.56 11268.00,9337.00
             11271.71,9338.20 11278.18,9339.03 11280.39,9342.15
             11283.33,9346.29 11280.06,9353.34 11271.00,9351.00
             11267.63,9360.08 11264.59,9359.68 11260.41,9365.09
             11257.56,9368.78 11258.18,9371.23 11254.78,9374.79
             11251.79,9377.92 11245.65,9380.73 11242.09,9387.00
             11239.73,9391.14 11240.64,9393.93 11238.30,9398.00
             11238.30,9398.00 11227.41,9415.00 11227.41,9415.00
             11227.41,9415.00 11223.01,9424.91 11223.01,9424.91
             11223.01,9424.91 11217.35,9432.04 11217.35,9432.04
             11217.35,9432.04 11212.11,9443.00 11212.11,9443.00
             11212.11,9443.00 11204.68,9455.00 11204.68,9455.00
             11204.68,9455.00 11201.91,9461.00 11201.91,9461.00
             11201.91,9461.00 11197.38,9468.00 11197.38,9468.00
             11196.24,9469.76 11193.60,9474.17 11192.89,9476.00
             11190.72,9481.64 11193.92,9482.05 11187.00,9489.98
             11185.90,9491.24 11184.05,9493.32 11182.72,9494.26
             11182.72,9494.26 11173.00,9498.08 11173.00,9498.08
             11166.54,9501.01 11158.92,9505.84 11152.00,9507.33
             11147.07,9508.11 11146.06,9506.94 11142.00,9507.33
             11142.00,9507.33 11120.00,9513.35 11120.00,9513.35
             11113.02,9516.27 11107.29,9521.73 11102.00,9527.00
             11102.00,9527.00 11085.84,9543.79 11085.84,9543.79
             11085.84,9543.79 11080.59,9548.37 11080.59,9548.37
             11077.09,9552.09 11074.24,9558.69 11069.98,9560.98
             11069.98,9560.98 11063.00,9563.43 11063.00,9563.43
             11063.00,9563.43 11053.00,9570.72 11053.00,9570.72
             11051.02,9572.19 11047.14,9574.33 11047.01,9577.04
             11046.91,9578.91 11048.91,9581.53 11050.01,9582.96
             11055.01,9589.47 11063.81,9592.58 11065.47,9599.00
             11067.13,9605.43 11061.71,9608.42 11056.00,9607.00
             11056.69,9608.86 11057.64,9610.98 11057.57,9613.00
             11057.28,9620.55 11049.22,9618.27 11042.30,9626.02
             11042.30,9626.02 11034.68,9635.91 11034.68,9635.91
             11031.50,9639.45 11028.96,9640.54 11025.61,9645.00
             11025.61,9645.00 11015.96,9660.99 11015.96,9660.99
             11011.49,9666.78 11006.32,9669.57 11002.18,9676.00
             11001.38,9677.25 10999.70,9680.19 10999.27,9681.58
             10999.27,9681.58 10998.56,9690.00 10998.56,9690.00
             10997.76,9695.22 10995.42,9703.38 10992.96,9708.00
             10988.26,9716.82 10980.91,9725.65 10973.72,9732.56
             10973.72,9732.56 10963.12,9742.43 10963.12,9742.43
             10959.73,9746.15 10959.67,9747.96 10957.38,9750.74
             10957.38,9750.74 10949.79,9758.37 10949.79,9758.37
             10947.95,9759.87 10933.30,9767.68 10931.00,9768.37
             10920.37,9771.55 10911.31,9769.12 10901.00,9769.00
             10892.96,9768.91 10884.77,9769.39 10878.10,9774.64
             10873.11,9778.56 10868.07,9791.07 10864.66,9797.00
             10861.75,9802.09 10852.29,9812.57 10847.96,9816.99
             10844.22,9820.80 10836.91,9827.03 10832.00,9829.02
             10832.00,9829.02 10812.04,9834.55 10812.04,9834.55
             10806.98,9836.65 10807.15,9839.05 10803.90,9840.22
             10800.21,9841.54 10799.43,9838.80 10793.96,9841.16
             10784.23,9845.35 10774.92,9853.46 10764.00,9854.00
             10761.81,9867.92 10747.60,9879.58 10736.00,9886.28
             10736.00,9886.28 10727.09,9890.51 10727.09,9890.51
             10727.09,9890.51 10720.91,9894.37 10720.91,9894.37
             10720.91,9894.37 10714.00,9896.75 10714.00,9896.75
             10714.00,9896.75 10685.00,9912.07 10685.00,9912.07
             10685.00,9912.07 10669.00,9921.97 10669.00,9921.97
             10665.50,9923.84 10662.58,9924.53 10659.00,9925.87
             10654.52,9927.55 10641.79,9933.01 10638.04,9935.35
             10633.49,9938.19 10631.46,9942.28 10627.00,9945.30
             10627.00,9945.30 10599.00,9958.43 10599.00,9958.43
             10599.00,9958.43 10587.00,9964.54 10587.00,9964.54
             10575.51,9969.41 10559.23,9968.47 10552.05,9972.39
             10546.78,9975.27 10549.17,9978.25 10539.00,9985.38
             10534.99,9988.20 10525.02,9992.88 10522.87,9997.04
             10522.24,9998.93 10522.69,10000.13 10522.87,10002.00
             10522.39,10008.67 10517.94,10008.88 10513.00,10011.47
             10500.33,10018.10 10503.86,10018.64 10488.00,10022.12
             10488.00,10022.12 10474.00,10024.48 10474.00,10024.48
             10474.00,10024.48 10447.00,10034.09 10447.00,10034.09
             10447.00,10034.09 10433.26,10038.85 10433.26,10038.85
             10429.79,10041.40 10429.68,10045.76 10426.70,10048.70
             10423.73,10051.64 10421.10,10050.80 10417.46,10054.27
             10417.46,10054.27 10406.70,10066.05 10406.70,10066.05
             10395.66,10077.49 10380.96,10090.74 10365.00,10094.47
             10355.53,10096.69 10348.96,10094.61 10346.42,10095.08
             10346.42,10095.08 10333.00,10100.55 10333.00,10100.55
             10329.69,10101.85 10324.71,10102.97 10322.00,10104.72
             10322.00,10104.72 10309.00,10116.57 10309.00,10116.57
             10309.00,10116.57 10294.13,10128.18 10294.13,10128.18
             10290.31,10132.02 10290.95,10134.16 10285.96,10138.54
             10281.96,10142.04 10273.73,10148.43 10269.00,10150.59
             10269.00,10150.59 10249.00,10156.48 10249.00,10156.48
             10249.00,10156.48 10240.00,10158.01 10240.00,10158.01
             10240.00,10158.01 10231.17,10160.47 10231.17,10160.47
             10224.66,10163.19 10228.47,10163.98 10218.00,10164.00
             10218.00,10164.00 10213.00,10164.00 10213.00,10164.00
             10207.92,10164.07 10207.43,10164.29 10203.00,10166.73
             10197.97,10169.50 10194.78,10170.83 10191.54,10176.00
             10190.07,10178.37 10190.01,10179.69 10189.02,10182.00
             10186.18,10188.60 10178.61,10204.62 10172.96,10208.40
             10170.23,10210.23 10159.07,10212.00 10155.00,10213.36
             10155.00,10213.36 10139.00,10221.34 10139.00,10221.34
             10139.00,10221.34 10125.00,10222.80 10125.00,10222.80
             10117.92,10224.32 10117.96,10225.90 10112.00,10228.37
             10112.00,10228.37 10101.17,10232.24 10101.17,10232.24
             10101.17,10232.24 10081.10,10247.17 10081.10,10247.17
             10081.10,10247.17 10074.79,10254.42 10074.79,10254.42
             10074.79,10254.42 10065.26,10263.42 10065.26,10263.42
             10062.14,10266.66 10059.41,10271.58 10055.72,10274.28
             10052.00,10276.99 10042.74,10277.67 10038.06,10280.30
             10033.30,10282.97 10034.43,10286.60 10030.79,10288.81
             10030.79,10288.81 10015.00,10293.63 10015.00,10293.63
             10009.07,10295.59 10003.62,10301.08 10000.00,10302.84
             9996.65,10304.47 9993.29,10303.97 9990.17,10305.93
             9990.17,10305.93 9982.99,10312.51 9982.99,10312.51
             9982.99,10312.51 9975.04,10317.68 9975.04,10317.68
             9975.04,10317.68 9968.83,10323.28 9968.83,10323.28
             9968.83,10323.28 9963.17,10326.52 9963.17,10326.52
             9958.29,10330.03 9958.13,10332.52 9949.00,10336.69
             9949.00,10336.69 9930.00,10344.37 9930.00,10344.37
             9930.00,10344.37 9922.00,10345.63 9922.00,10345.63
             9922.00,10345.63 9915.00,10348.29 9915.00,10348.29
             9915.00,10348.29 9908.00,10349.10 9908.00,10349.10
             9904.99,10349.93 9900.30,10353.45 9894.00,10355.22
             9894.00,10355.22 9885.00,10356.81 9885.00,10356.81
             9880.26,10357.76 9869.37,10361.99 9865.00,10364.18
             9861.16,10366.11 9855.42,10370.68 9853.57,10374.58
             9852.59,10376.65 9853.04,10378.73 9851.82,10380.86
             9850.15,10383.76 9847.51,10383.94 9846.02,10386.30
             9843.78,10389.84 9846.00,10397.25 9836.00,10395.00
             9834.58,10398.84 9831.50,10404.92 9827.83,10406.98
             9824.81,10408.67 9811.20,10408.00 9807.00,10407.87
             9807.00,10407.87 9769.91,10407.87 9769.91,10407.87
             9769.91,10407.87 9757.91,10406.54 9757.91,10406.54
             9757.91,10406.54 9752.00,10405.25 9752.00,10405.25
             9746.56,10404.80 9736.25,10410.83 9726.21,10402.36
             9722.39,10399.14 9722.38,10395.34 9718.89,10390.00
             9718.89,10390.00 9712.78,10382.00 9712.78,10382.00
             9712.78,10382.00 9704.13,10367.00 9704.13,10367.00
             9704.13,10367.00 9697.55,10349.00 9697.55,10349.00
             9696.17,10345.58 9691.86,10334.55 9690.04,10332.27
             9687.86,10329.54 9683.97,10328.50 9682.79,10324.96
             9681.85,10322.14 9683.35,10319.73 9683.73,10317.00
             9684.01,10314.94 9683.50,10309.61 9682.94,10307.58
             9682.94,10307.58 9677.09,10295.00 9677.09,10295.00
             9675.78,10290.97 9677.45,10289.92 9676.33,10286.00
             9676.33,10286.00 9673.43,10279.00 9673.43,10279.00
             9671.68,10274.45 9667.79,10262.54 9667.34,10258.00
             9666.38,10248.41 9671.78,10224.49 9675.00,10215.00
             9665.95,10213.38 9642.28,10209.42 9635.00,10205.56
             9627.55,10201.62 9628.13,10196.85 9620.98,10193.44
             9620.98,10193.44 9598.04,10185.55 9598.04,10185.55
             9591.51,10182.00 9588.05,10167.95 9579.00,10166.40
             9586.42,10167.67 9561.29,10165.12 9567.00,10165.65
             9567.00,10165.65 9565.00,10165.65 9565.00,10165.65
             9558.25,10167.74 9547.81,10178.15 9542.00,10182.52
             9528.15,10192.93 9522.23,10192.95 9518.00,10195.49
             9512.12,10199.04 9511.66,10203.21 9506.98,10206.15
             9500.06,10210.51 9483.96,10210.65 9479.00,10214.31
             9479.00,10214.31 9467.21,10225.01 9467.21,10225.01
             9465.02,10227.52 9463.18,10231.49 9460.79,10233.15
             9457.56,10235.39 9454.51,10234.28 9452.21,10235.30
             9449.42,10236.53 9448.55,10239.83 9444.96,10240.46
             9441.56,10241.06 9439.69,10238.59 9436.83,10237.54
             9436.83,10237.54 9432.00,10236.49 9432.00,10236.49
             9421.05,10234.07 9402.89,10228.01 9394.00,10221.39
             9386.51,10215.82 9382.36,10211.93 9389.00,10204.00
             9381.84,10199.61 9377.55,10196.05 9372.75,10189.00
             9369.88,10184.79 9367.10,10177.41 9363.79,10174.39
             9360.36,10171.27 9348.76,10167.62 9344.00,10166.26
             9344.00,10166.26 9334.00,10162.59 9334.00,10162.59
             9334.00,10162.59 9317.00,10158.08 9317.00,10158.08
             9313.58,10157.14 9304.42,10152.78 9302.04,10153.13
             9298.85,10153.59 9296.11,10158.42 9294.54,10161.00
             9294.54,10161.00 9285.83,10180.00 9285.83,10180.00
             9283.57,10184.18 9279.32,10188.52 9278.41,10193.00
             9277.38,10198.06 9281.33,10206.44 9276.69,10210.26
             9272.81,10213.45 9267.40,10210.71 9264.17,10211.67
             9264.17,10211.67 9256.99,10215.91 9256.99,10215.91
             9249.04,10219.59 9247.23,10218.69 9243.00,10220.15
             9237.67,10221.99 9222.73,10236.32 9216.00,10237.50
             9208.82,10238.76 9197.15,10233.96 9192.09,10228.91
             9192.09,10228.91 9184.82,10220.18 9184.82,10220.18
             9183.25,10218.61 9175.90,10212.98 9174.00,10211.92
             9171.12,10210.30 9169.09,10210.41 9166.61,10207.72
             9163.03,10203.86 9159.96,10194.66 9156.89,10190.00
             9151.22,10181.38 9138.78,10175.94 9138.00,10165.00
             9131.18,10163.88 9129.52,10161.39 9124.00,10160.71
             9119.02,10160.09 9113.79,10161.91 9105.00,10159.05
             9099.76,10157.35 9086.90,10152.32 9082.00,10154.61
             9079.12,10155.96 9070.67,10163.44 9068.81,10166.09
             9068.81,10166.09 9065.05,10172.83 9065.05,10172.83
             9062.86,10176.03 9061.05,10176.89 9059.21,10181.00
             9059.21,10181.00 9056.29,10190.00 9056.29,10190.00
             9056.29,10190.00 9049.36,10203.98 9049.36,10203.98
             9043.12,10214.62 9038.27,10206.11 9030.14,10211.46
             9025.84,10214.29 9027.55,10217.29 9023.61,10221.90
             9019.65,10226.52 9004.16,10232.64 8998.00,10232.96
             8986.04,10233.56 8981.40,10228.26 8972.00,10223.07
             8972.00,10223.07 8951.00,10211.98 8951.00,10211.98
             8951.00,10211.98 8940.00,10207.12 8940.00,10207.12
             8934.00,10203.67 8932.50,10200.86 8928.00,10197.97
             8928.00,10197.97 8909.09,10188.31 8909.09,10188.31
             8909.09,10188.31 8903.83,10183.20 8903.83,10183.20
             8901.03,10180.59 8891.55,10174.58 8888.00,10172.91
             8888.00,10172.91 8860.00,10161.68 8860.00,10161.68
             8860.00,10161.68 8845.00,10152.33 8845.00,10152.33
             8845.00,10152.33 8830.15,10146.99 8830.15,10146.99
             8824.50,10142.99 8828.98,10135.88 8824.91,10130.30
             8822.38,10126.81 8813.94,10125.30 8810.18,10122.35
             8806.93,10119.80 8796.31,10106.67 8790.91,10103.27
             8787.53,10101.14 8776.02,10096.89 8772.00,10096.30
             8772.00,10096.30 8761.00,10095.47 8761.00,10095.47
             8761.00,10095.47 8753.00,10092.40 8753.00,10092.40
             8753.00,10092.40 8741.00,10089.46 8741.00,10089.46
             8741.00,10089.46 8727.00,10082.62 8727.00,10082.62
             8727.00,10082.62 8715.00,10077.68 8715.00,10077.68
             8715.00,10077.68 8707.00,10073.09 8707.00,10073.09
             8698.87,10068.86 8695.32,10068.06 8687.00,10062.38
             8687.00,10062.38 8668.00,10048.38 8668.00,10048.38
             8668.00,10048.38 8663.28,10044.84 8663.28,10044.84
             8659.98,10042.97 8658.25,10044.79 8654.17,10042.88
             8654.17,10042.88 8641.04,10035.76 8641.04,10035.76
             8641.04,10035.76 8633.91,10030.44 8633.91,10030.44
             8633.91,10030.44 8625.00,10027.79 8625.00,10027.79
             8619.70,10025.71 8606.95,10018.67 8602.01,10015.53
             8602.01,10015.53 8585.91,10001.41 8585.91,10001.41
             8585.91,10001.41 8569.00,9991.29 8569.00,9991.29
             8569.00,9991.29 8550.00,9977.97 8550.00,9977.97
             8550.00,9977.97 8527.00,9969.81 8527.00,9969.81
             8513.95,9964.11 8517.83,9963.46 8510.00,9959.19
             8510.00,9959.19 8496.13,9953.19 8496.13,9953.19
             8496.13,9953.19 8490.74,9947.90 8490.74,9947.90
             8488.29,9946.37 8485.67,9947.26 8483.14,9945.82
             8479.91,9943.96 8480.29,9940.91 8477.69,9938.58
             8473.93,9935.22 8470.66,9937.78 8467.14,9935.81
             8463.34,9933.69 8465.18,9930.85 8459.94,9927.82
             8459.94,9927.82 8452.00,9923.91 8452.00,9923.91
             8452.00,9923.91 8440.00,9916.28 8440.00,9916.28
             8435.34,9914.01 8435.84,9915.27 8429.00,9911.20
             8429.00,9911.20 8414.09,9901.68 8414.09,9901.68
             8414.09,9901.68 8409.12,9897.85 8409.12,9897.85
             8406.03,9896.16 8403.80,9898.81 8400.22,9896.25
             8396.58,9893.63 8397.78,9889.75 8391.98,9885.99
             8387.23,9882.92 8381.55,9882.77 8375.00,9877.95
             8375.00,9877.95 8349.47,9852.72 8349.47,9852.72
             8346.85,9849.87 8344.83,9845.33 8342.73,9844.02
             8342.73,9844.02 8323.00,9838.91 8323.00,9838.91
             8323.00,9838.91 8305.00,9832.75 8305.00,9832.75
             8305.00,9832.75 8287.00,9828.00 8287.00,9828.00
             8285.91,9840.98 8277.57,9850.60 8270.87,9861.00
             8266.87,9867.20 8267.65,9868.59 8262.87,9875.00
             8259.88,9879.00 8254.98,9884.85 8250.00,9886.41
             8250.00,9886.41 8242.00,9886.41 8242.00,9886.41
             8242.00,9886.41 8230.00,9887.96 8230.00,9887.96
             8230.00,9887.96 8201.00,9886.00 8201.00,9886.00
             8193.49,9885.94 8181.12,9885.95 8175.00,9881.50
             8167.98,9876.41 8157.28,9859.09 8153.36,9851.00
             8153.36,9851.00 8147.36,9838.00 8147.36,9838.00
             8145.48,9834.55 8139.16,9823.97 8135.83,9822.60
             8134.23,9821.94 8131.74,9822.01 8130.00,9822.00
             8130.00,9822.00 8116.00,9822.00 8116.00,9822.00
             8116.00,9822.00 8091.00,9820.00 8091.00,9820.00
             8084.99,9819.99 8073.29,9820.31 8068.00,9817.86
             8061.59,9814.91 8058.85,9808.45 8053.00,9805.00
             8051.25,9808.91 8046.42,9818.72 8041.99,9819.46
             8037.35,9820.24 8034.69,9815.45 8029.99,9812.47
             8029.99,9812.47 8019.00,9806.37 8019.00,9806.37
             8019.00,9806.37 8000.00,9790.42 8000.00,9790.42
             7988.26,9781.31 7986.65,9782.48 7975.01,9776.54
             7975.01,9776.54 7967.83,9771.98 7967.83,9771.98
             7967.83,9771.98 7961.17,9770.03 7961.17,9770.03
             7961.17,9770.03 7956.83,9767.29 7956.83,9767.29
             7956.83,9767.29 7950.00,9764.46 7950.00,9764.46
             7950.00,9764.46 7944.00,9760.40 7944.00,9760.40
             7944.00,9760.40 7930.43,9754.42 7930.43,9754.42
             7927.36,9751.62 7929.03,9748.68 7927.24,9744.00
             7923.53,9734.29 7916.89,9725.55 7916.00,9715.00
             7908.10,9720.13 7902.97,9715.83 7905.00,9707.00
             7899.59,9704.19 7898.34,9700.86 7898.00,9695.00
             7891.77,9693.64 7888.93,9687.95 7887.53,9682.00
             7887.53,9682.00 7887.02,9677.00 7887.02,9677.00
             7886.14,9672.70 7882.49,9670.25 7882.44,9666.00
             7882.42,9663.91 7883.50,9662.01 7883.92,9660.00
             7883.92,9660.00 7884.50,9655.00 7884.50,9655.00
             7885.24,9651.74 7888.10,9648.40 7889.65,9645.00
             7889.65,9645.00 7895.21,9630.00 7895.21,9630.00
             7899.48,9617.73 7893.00,9610.40 7905.00,9609.00
             7904.81,9600.30 7902.68,9591.44 7898.01,9584.00
             7895.01,9579.22 7892.28,9578.12 7888.27,9570.00
             7885.28,9563.93 7883.30,9553.78 7883.04,9547.00
             7882.92,9544.06 7883.08,9531.08 7884.18,9529.13
             7885.62,9526.54 7889.59,9524.43 7892.00,9522.53
             7892.00,9522.53 7903.28,9512.26 7903.28,9512.26
             7903.28,9512.26 7909.15,9507.59 7909.15,9507.59
             7913.74,9501.63 7906.66,9483.77 7921.23,9487.00
             7920.42,9482.60 7919.22,9478.23 7921.23,9474.05
             7923.69,9469.86 7926.36,9470.34 7928.75,9464.98
             7932.80,9455.90 7923.61,9456.07 7927.19,9449.09
             7930.34,9442.95 7936.67,9443.75 7942.09,9442.80
             7955.68,9440.41 7956.64,9437.54 7961.00,9436.43
             7961.00,9436.43 7972.00,9435.44 7972.00,9435.44
             7978.90,9433.17 7980.14,9424.82 7987.00,9423.60
             7990.74,9422.93 7996.88,9426.01 8003.90,9421.03
             8008.53,9417.75 8008.22,9414.02 8011.41,9410.04
             8015.70,9404.70 8019.85,9404.86 8022.78,9402.44
             8026.18,9399.63 8026.33,9395.18 8030.11,9392.61
             8033.09,9390.58 8038.33,9391.92 8042.00,9392.00
             8042.34,9389.87 8042.61,9387.98 8043.57,9386.00
             8048.30,9376.30 8062.39,9379.25 8066.00,9378.18
             8069.31,9377.20 8070.64,9374.68 8076.00,9373.53
             8081.14,9372.66 8083.32,9374.55 8087.00,9373.53
             8090.58,9372.28 8092.96,9368.73 8098.00,9369.26
             8101.22,9369.61 8104.03,9371.81 8107.00,9373.05
             8111.85,9375.07 8114.93,9374.64 8118.00,9375.72
             8120.53,9376.60 8122.24,9378.15 8125.00,9378.71
             8130.50,9379.76 8141.34,9375.16 8145.57,9378.71
             8150.94,9383.28 8144.30,9394.54 8146.12,9399.00
             8149.36,9406.89 8162.00,9410.18 8163.73,9411.58
             8166.68,9414.00 8166.69,9417.49 8170.27,9422.00
             8172.96,9425.40 8175.07,9426.79 8177.08,9431.00
             8179.56,9436.19 8181.09,9448.00 8187.03,9459.00
             8189.86,9464.24 8195.23,9469.65 8188.00,9474.00
             8189.61,9481.17 8184.48,9483.98 8180.59,9491.00
             8180.59,9491.00 8172.51,9510.00 8172.51,9510.00
             8167.58,9519.21 8165.76,9517.01 8161.00,9529.00
             8166.93,9531.94 8168.69,9533.77 8171.00,9540.00
             8178.03,9538.70 8181.30,9541.97 8180.00,9549.00
             8186.41,9550.30 8186.72,9552.08 8192.00,9553.89
             8195.91,9555.24 8198.09,9554.72 8200.83,9556.16
             8200.83,9556.16 8205.17,9559.39 8205.17,9559.39
             8207.49,9561.01 8216.12,9564.55 8219.00,9565.43
             8219.00,9565.43 8232.00,9567.75 8232.00,9567.75
             8232.00,9567.75 8244.00,9572.22 8244.00,9572.22
             8249.35,9573.96 8252.68,9574.29 8256.69,9579.09
             8259.57,9582.55 8261.04,9589.66 8262.54,9594.00
             8265.93,9603.77 8268.27,9609.04 8273.52,9618.00
             8276.75,9623.52 8281.22,9629.88 8288.00,9630.99
             8289.38,9631.22 8303.57,9629.91 8304.91,9629.42
             8304.91,9629.42 8311.09,9625.63 8311.09,9625.63
             8311.09,9625.63 8330.00,9616.90 8330.00,9616.90
             8333.51,9615.32 8346.40,9609.72 8348.83,9607.69
             8356.07,9601.63 8363.09,9588.80 8373.00,9588.00
             8372.82,9584.12 8370.98,9577.44 8373.60,9574.43
             8377.93,9569.46 8384.08,9575.34 8387.78,9573.77
             8390.63,9572.56 8390.40,9569.21 8396.29,9564.51
             8407.23,9555.76 8411.52,9556.50 8424.00,9553.95
             8427.84,9553.16 8431.02,9550.45 8435.00,9551.99
             8435.00,9551.99 8441.00,9555.21 8441.00,9555.21
             8447.04,9557.90 8459.13,9561.49 8464.00,9564.78
             8464.00,9564.78 8483.28,9581.53 8483.28,9581.53
             8488.03,9584.82 8491.41,9583.11 8498.91,9589.62
             8507.60,9597.17 8509.36,9606.17 8515.09,9610.19
             8517.00,9611.53 8529.58,9616.89 8532.00,9617.48
             8536.51,9618.56 8537.45,9617.87 8543.00,9619.91
             8548.46,9621.91 8554.04,9623.86 8559.00,9626.95
             8563.32,9629.64 8567.32,9633.29 8572.00,9635.38
             8572.00,9635.38 8584.00,9639.02 8584.00,9639.02
             8584.00,9639.02 8590.00,9641.63 8590.00,9641.63
             8593.12,9642.61 8593.82,9641.71 8599.00,9644.28
             8610.95,9650.18 8623.88,9667.91 8634.44,9676.70
             8634.44,9676.70 8654.00,9686.58 8654.00,9686.58
             8660.94,9690.46 8663.35,9690.38 8667.00,9692.27
             8667.00,9692.27 8674.00,9696.73 8674.00,9696.73
             8674.00,9696.73 8691.00,9703.75 8691.00,9703.75
             8695.86,9705.48 8697.62,9704.59 8701.00,9705.70
             8701.00,9705.70 8707.00,9708.63 8707.00,9708.63
             8717.69,9713.96 8728.63,9722.07 8730.00,9735.00
             8742.57,9737.40 8738.46,9745.67 8751.00,9750.53
             8751.00,9750.53 8777.00,9758.33 8777.00,9758.33
             8788.59,9760.81 8793.33,9760.28 8805.00,9765.63
             8809.14,9767.52 8815.71,9769.14 8818.52,9772.14
             8822.62,9776.52 8825.06,9783.93 8828.76,9788.72
             8831.95,9792.84 8838.73,9797.08 8842.19,9806.00
             8846.04,9815.91 8844.18,9816.19 8845.38,9822.00
             8845.74,9823.74 8846.85,9827.19 8848.50,9828.09
             8850.81,9829.36 8857.43,9824.48 8860.00,9823.26
             8867.18,9819.85 8867.42,9821.74 8873.00,9820.84
             8878.43,9819.97 8878.95,9818.39 8886.00,9818.00
             8887.91,9809.10 8893.29,9811.13 8900.00,9807.75
             8900.00,9807.75 8911.63,9801.36 8911.63,9801.36
             8913.83,9799.46 8914.77,9797.06 8918.04,9794.65
             8921.01,9792.45 8924.18,9791.93 8926.78,9789.59
             8929.98,9786.69 8931.78,9780.34 8940.00,9774.65
             8940.00,9774.65 8961.00,9765.68 8961.00,9765.68
             8967.23,9762.64 8969.38,9758.74 8979.00,9753.90
             8983.33,9751.72 8984.68,9752.24 8987.91,9750.98
             8987.91,9750.98 9007.00,9741.41 9007.00,9741.41
             9013.70,9737.42 9012.31,9734.83 9016.22,9732.12
             9016.22,9732.12 9034.00,9722.66 9034.00,9722.66
             9034.00,9722.66 9048.00,9713.65 9048.00,9713.65
             9048.00,9713.65 9056.00,9707.47 9056.00,9707.47
             9060.11,9704.96 9063.25,9705.07 9067.00,9703.51
             9067.00,9703.51 9073.00,9700.12 9073.00,9700.12
             9073.00,9700.12 9094.00,9693.14 9094.00,9693.14
             9094.00,9693.14 9119.00,9679.26 9119.00,9679.26
             9122.74,9677.47 9133.38,9674.46 9133.99,9669.90
             9134.58,9665.45 9127.50,9658.94 9124.00,9656.94
             9118.41,9653.75 9117.09,9656.11 9108.00,9653.33
             9103.13,9651.85 9102.85,9650.74 9099.00,9648.84
             9091.89,9645.32 9093.37,9648.04 9082.00,9640.66
             9082.00,9640.66 9046.43,9618.61 9046.43,9618.61
             9044.64,9616.69 9042.42,9609.33 9040.75,9606.00
             9036.88,9598.26 9027.41,9585.39 9020.00,9581.08
             9013.16,9577.11 9001.79,9575.26 8994.00,9573.50
             8994.00,9573.50 8985.00,9571.43 8985.00,9571.43
             8985.00,9571.43 8978.00,9568.22 8978.00,9568.22
             8978.00,9568.22 8968.00,9566.63 8968.00,9566.63
             8968.00,9566.63 8954.00,9563.01 8954.00,9563.01
             8948.20,9561.42 8933.11,9557.53 8929.74,9552.79
             8927.31,9549.37 8929.15,9546.92 8929.21,9544.00
             8929.59,9542.06 8929.18,9539.94 8929.21,9538.00
             8919.14,9536.35 8921.77,9532.88 8915.89,9527.19
             8912.20,9523.61 8905.82,9520.93 8901.00,9519.15
             8891.48,9515.65 8887.95,9515.84 8879.00,9513.77
             8879.00,9513.77 8855.00,9506.44 8855.00,9506.44
             8849.52,9504.31 8849.00,9501.74 8844.91,9499.55
             8844.91,9499.55 8833.00,9494.96 8833.00,9494.96
             8818.68,9487.34 8800.62,9470.28 8793.00,9456.00
             8786.22,9457.50 8774.30,9454.97 8768.00,9452.04
             8768.00,9452.04 8757.00,9446.03 8757.00,9446.03
             8748.40,9442.09 8749.95,9443.93 8744.00,9442.21
             8744.00,9442.21 8731.00,9437.22 8731.00,9437.22
             8723.02,9433.75 8718.51,9428.47 8712.00,9423.53
             8707.44,9420.07 8706.01,9420.65 8701.00,9415.95
             8694.27,9409.63 8680.75,9391.32 8674.00,9388.02
             8674.00,9388.02 8656.00,9384.91 8656.00,9384.91
             8642.60,9381.20 8636.65,9375.53 8630.00,9372.63
             8630.00,9372.63 8614.00,9368.16 8614.00,9368.16
             8610.60,9366.95 8607.93,9364.90 8605.00,9362.88
             8595.06,9356.04 8592.56,9354.55 8590.00,9342.00
             8590.00,9342.00 8584.00,9344.41 8584.00,9344.41
             8573.88,9346.72 8575.88,9334.50 8575.54,9332.83
             8575.14,9330.87 8573.78,9327.76 8572.80,9326.00
             8569.52,9320.11 8567.79,9317.92 8565.93,9311.00
             8564.94,9307.27 8565.70,9305.02 8564.06,9301.09
             8561.26,9294.36 8557.35,9295.43 8557.17,9286.00
             8557.01,9277.55 8559.02,9269.21 8560.79,9261.00
             8561.96,9255.56 8564.37,9241.07 8568.41,9237.74
             8569.95,9236.48 8571.18,9236.40 8573.00,9236.00
             8573.32,9232.08 8573.66,9226.50 8576.43,9223.52
             8579.00,9220.75 8583.50,9219.38 8584.81,9216.74
             8585.87,9214.60 8584.69,9211.26 8586.15,9207.01
             8587.63,9202.71 8592.06,9199.57 8594.51,9195.71
             8596.03,9193.33 8596.25,9190.36 8598.31,9188.31
             8601.59,9185.06 8604.12,9187.13 8611.00,9183.25
             8619.63,9178.38 8625.79,9175.71 8635.00,9172.17
             8635.00,9172.17 8640.96,9170.15 8640.96,9170.15
             8640.96,9170.15 8649.04,9165.14 8649.04,9165.14
             8649.04,9165.14 8661.00,9161.87 8661.00,9161.87
             8665.06,9160.19 8678.64,9149.10 8688.00,9146.00
             8688.00,9146.00 8687.00,9143.00 8687.00,9143.00
             8695.26,9137.21 8693.75,9138.54 8703.00,9136.00
             8702.30,9127.47 8709.14,9127.61 8715.00,9124.83
             8715.00,9124.83 8724.91,9119.78 8724.91,9119.78
             8724.91,9119.78 8764.00,9110.59 8764.00,9110.59
             8767.39,9109.59 8768.93,9107.75 8772.00,9106.49
             8772.00,9106.49 8780.00,9104.34 8780.00,9104.34
             8784.19,9102.82 8800.48,9093.53 8803.94,9090.94
             8810.16,9086.29 8806.54,9082.79 8810.51,9078.28
             8813.37,9075.03 8817.46,9075.51 8818.60,9072.70
             8819.69,9070.72 8818.32,9068.20 8818.60,9066.00
             8818.59,9062.89 8820.59,9060.43 8823.04,9058.70
             8826.34,9056.38 8830.26,9056.22 8834.00,9055.13
             8834.00,9055.13 8856.00,9047.98 8856.00,9047.98
             8862.23,9046.04 8867.48,9043.63 8872.91,9039.97
             8875.85,9037.99 8877.66,9035.41 8881.01,9034.01
             8881.01,9034.01 8900.79,9029.41 8900.79,9029.41
             8900.79,9029.41 8912.08,9020.59 8912.08,9020.59
             8913.16,9019.25 8913.79,9016.96 8915.43,9015.31
             8918.17,9012.54 8920.64,9013.52 8923.61,9010.69
             8923.61,9010.69 8927.63,9005.37 8927.63,9005.37
             8927.63,9005.37 8940.04,8993.93 8940.04,8993.93
             8943.66,8991.82 8947.30,8992.48 8951.00,8990.92
             8951.00,8990.92 8958.00,8987.04 8958.00,8987.04
             8958.00,8987.04 8974.00,8980.93 8974.00,8980.93
             8980.50,8979.16 8992.45,8979.01 8993.95,8978.57
             8998.04,8977.38 8998.14,8974.36 9002.05,8972.73
             9004.67,8971.64 9010.03,8971.89 9015.00,8969.59
             9025.03,8964.94 9024.90,8960.84 9028.41,8957.65
             9031.17,8955.14 9034.89,8955.00 9036.83,8951.78
             9038.59,8948.85 9037.41,8945.19 9039.17,8942.21
             9040.97,8939.18 9044.29,8938.68 9046.78,8936.51
             9049.78,8933.88 9050.07,8930.77 9053.13,8929.03
             9054.54,8928.22 9065.91,8927.03 9068.00,8927.00
             9068.00,8927.00 9083.00,8927.00 9083.00,8927.00
             9083.00,8927.00 9113.00,8930.00 9113.00,8930.00
             9112.89,8921.06 9111.59,8923.66 9110.18,8917.00
             9110.18,8917.00 9106.19,8897.00 9106.19,8897.00
             9105.24,8893.65 9103.40,8890.47 9103.12,8887.00
             9102.50,8879.26 9106.51,8875.66 9108.03,8871.00
             9109.09,8867.43 9108.27,8865.46 9108.03,8862.00
             9107.87,8857.70 9110.15,8842.90 9111.79,8839.00
             9111.79,8839.00 9116.37,8830.00 9116.37,8830.00
             9118.00,8826.06 9118.67,8821.37 9120.68,8818.00
             9120.68,8818.00 9130.40,8806.00 9130.40,8806.00
             9133.58,8800.97 9133.37,8787.35 9142.96,8782.00
             9141.67,8776.51 9141.50,8770.50 9142.96,8765.00
             9143.76,8761.76 9146.79,8754.85 9146.45,8752.00
             9146.45,8752.00 9143.29,8740.00 9143.29,8740.00
             9143.29,8740.00 9139.89,8734.00 9139.89,8734.00
             9139.89,8734.00 9135.00,8712.00 9135.00,8712.00
             9132.90,8711.66 9131.93,8711.67 9130.04,8710.40
             9127.39,8708.62 9120.19,8699.05 9119.15,8696.00
             9117.07,8689.91 9120.20,8684.18 9119.96,8678.00
             9119.96,8678.00 9119.10,8669.00 9119.10,8669.00
             9119.10,8669.00 9119.10,8652.00 9119.10,8652.00
             9119.01,8643.87 9116.71,8636.19 9118.00,8628.00
             9118.00,8628.00 9088.00,8626.00 9088.00,8626.00
             9083.14,8625.94 9077.14,8626.38 9074.01,8621.86
             9071.28,8617.92 9072.26,8606.34 9072.03,8601.00
             9071.81,8595.93 9070.12,8587.60 9073.73,8583.44
             9077.86,8578.67 9083.61,8582.22 9088.00,8583.44
             9088.00,8583.44 9107.00,8584.98 9107.00,8584.98
             9118.40,8584.51 9115.40,8573.94 9117.52,8566.00
             9118.50,8562.32 9119.69,8560.91 9122.00,8558.00
             9122.00,8558.00 9105.58,8555.90 9105.58,8555.90
             9101.22,8555.91 9097.10,8558.38 9093.75,8553.77
             9088.91,8547.11 9099.01,8539.71 9099.16,8535.00
             9099.32,8529.98 9084.81,8514.57 9097.04,8511.10
             9098.12,8511.03 9099.86,8511.03 9101.00,8511.10
             9101.00,8511.10 9106.00,8511.10 9106.00,8511.10
             9110.58,8510.94 9118.86,8508.44 9121.94,8510.04
             9126.95,8512.64 9124.84,8517.58 9129.14,8518.99
             9129.14,8518.99 9150.00,8518.99 9150.00,8518.99
             9150.45,8515.64 9151.23,8508.89 9152.93,8506.17
             9155.07,8502.76 9157.96,8502.12 9159.98,8497.00
             9162.87,8489.71 9163.42,8475.12 9170.05,8470.85
             9174.23,8468.17 9188.59,8467.38 9194.00,8466.83
             9194.00,8466.83 9207.00,8464.30 9207.00,8464.30
             9212.81,8463.54 9218.29,8462.93 9224.00,8464.30
             9229.45,8465.97 9237.71,8471.22 9242.54,8465.59
             9244.99,8462.74 9243.80,8458.92 9246.40,8453.00
             9248.46,8448.29 9256.84,8434.84 9256.52,8431.00
             9255.65,8420.42 9248.87,8416.20 9245.07,8409.96
             9240.89,8403.10 9237.43,8388.11 9234.96,8380.00
             9233.34,8374.65 9230.86,8369.80 9232.43,8364.00
             9233.37,8360.54 9235.48,8358.97 9237.04,8356.00
             9237.04,8356.00 9240.75,8346.00 9240.75,8346.00
             9240.75,8346.00 9246.55,8337.00 9246.55,8337.00
             9248.55,8332.95 9248.43,8326.69 9252.34,8321.01
             9256.65,8314.75 9266.81,8309.00 9266.18,8302.00
             9265.88,8298.73 9261.77,8292.80 9259.88,8290.00
             9259.88,8290.00 9248.24,8271.00 9248.24,8271.00
             9246.12,8266.65 9243.77,8256.12 9241.44,8253.21
             9238.71,8249.80 9229.42,8246.43 9228.37,8240.00
             9227.33,8233.63 9235.70,8230.91 9237.81,8225.99
             9237.81,8225.99 9238.77,8204.04 9238.77,8204.04
             9238.77,8204.04 9242.60,8197.83 9242.60,8197.83
             9244.43,8194.21 9244.25,8190.11 9249.47,8184.09
             9252.14,8181.00 9258.00,8177.20 9258.30,8173.00
             9258.45,8170.80 9249.99,8156.48 9248.19,8154.27
             9245.53,8151.00 9241.79,8150.61 9238.00,8149.67
             9238.00,8149.67 9219.00,8145.57 9219.00,8145.57
             9205.57,8143.31 9191.00,8138.55 9178.00,8134.42
             9170.42,8132.02 9164.83,8131.76 9158.01,8127.16
             9152.79,8123.64 9140.38,8110.91 9138.87,8105.00
             9138.14,8102.82 9138.54,8102.04 9138.87,8100.00
             9138.87,8100.00 9125.00,8089.18 9125.00,8089.18
             9114.38,8082.93 9104.69,8081.33 9093.00,8079.06
             9087.71,8078.04 9082.48,8074.58 9077.02,8076.85
             9068.98,8080.19 9069.87,8090.62 9067.91,8094.99
             9066.07,8099.12 9062.92,8100.53 9059.75,8106.00
             9055.09,8114.05 9054.54,8121.75 9046.57,8128.57
             9040.88,8133.45 9033.62,8131.08 9027.00,8131.00
             9027.00,8131.00 9014.00,8131.77 9014.00,8131.77
             9014.00,8131.77 9002.00,8131.77 9002.00,8131.77
             9002.00,8131.77 8979.00,8133.00 8979.00,8133.00
             8979.00,8133.00 8952.00,8133.00 8952.00,8133.00
             8938.55,8132.98 8937.07,8129.16 8927.00,8121.75
             8927.00,8121.75 8911.00,8110.35 8911.00,8110.35
             8911.00,8110.35 8883.00,8092.98 8883.00,8092.98
             8883.00,8092.98 8871.00,8087.60 8871.00,8087.60
             8865.44,8084.67 8853.86,8075.34 8848.10,8075.78
             8843.26,8076.14 8840.21,8088.01 8837.96,8092.00
             8837.96,8092.00 8827.13,8109.00 8827.13,8109.00
             8822.75,8117.53 8823.30,8127.57 8812.00,8130.32
             8809.20,8131.00 8806.84,8130.99 8804.00,8131.00
             8804.00,8131.00 8777.00,8128.31 8777.00,8128.31
             8777.00,8128.31 8757.00,8129.68 8757.00,8129.68
             8757.00,8129.68 8743.00,8128.91 8743.00,8128.91
             8743.00,8128.91 8733.00,8128.00 8733.00,8128.00
             8723.52,8127.89 8710.45,8129.11 8702.00,8124.35
             8696.10,8121.04 8693.30,8116.63 8688.83,8112.17
             8688.83,8112.17 8676.46,8100.00 8676.46,8100.00
             8674.36,8097.45 8669.99,8091.07 8667.83,8089.40
             8664.73,8087.02 8663.32,8088.43 8659.00,8086.38
             8659.00,8086.38 8646.00,8079.56 8646.00,8079.56
             8646.00,8079.56 8628.02,8076.81 8628.02,8076.81
             8626.59,8076.74 8625.68,8076.78 8624.49,8077.69
             8624.49,8077.69 8615.40,8092.00 8615.40,8092.00
             8615.40,8092.00 8603.75,8108.00 8603.75,8108.00
             8600.93,8112.22 8601.20,8112.84 8599.40,8117.00
             8595.32,8126.45 8590.51,8131.71 8581.00,8135.15
             8575.78,8137.26 8574.04,8137.66 8569.00,8135.15
             8565.30,8137.73 8554.56,8137.90 8550.00,8137.00
             8542.56,8150.04 8532.22,8137.37 8514.00,8135.88
             8514.00,8135.88 8496.00,8134.30 8496.00,8134.30
             8492.42,8133.09 8483.47,8125.38 8479.00,8122.51
             8479.00,8122.51 8467.00,8115.10 8467.00,8115.10
             8467.00,8115.10 8456.00,8105.38 8456.00,8105.38
             8456.00,8105.38 8437.00,8093.13 8437.00,8093.13
             8437.00,8093.13 8418.00,8086.69 8418.00,8086.69
             8412.37,8084.79 8410.94,8082.45 8404.00,8081.81
             8398.53,8081.30 8394.05,8085.25 8390.00,8088.51
             8388.01,8090.12 8386.14,8091.85 8384.72,8094.00
             8384.72,8094.00 8375.06,8113.00 8375.06,8113.00
             8371.04,8123.29 8371.47,8128.73 8360.00,8133.55
             8347.38,8138.86 8334.09,8140.94 8321.00,8144.59
             8321.00,8144.59 8312.00,8147.49 8312.00,8147.49
             8307.42,8148.52 8293.29,8150.05 8290.11,8151.98
             8286.28,8154.31 8286.33,8157.91 8283.59,8160.57
             8280.86,8163.21 8278.09,8162.57 8275.50,8165.31
             8273.29,8167.64 8272.40,8171.98 8270.61,8175.00
             8267.92,8179.54 8264.58,8181.72 8262.98,8184.28
             8261.25,8187.05 8261.15,8191.60 8256.79,8195.20
             8256.79,8195.20 8236.00,8206.19 8236.00,8206.19
             8236.00,8206.19 8225.00,8209.62 8225.00,8209.62
             8225.00,8209.62 8212.00,8216.19 8212.00,8216.19
             8212.00,8216.19 8205.00,8217.03 8205.00,8217.03
             8205.00,8217.03 8190.04,8221.72 8190.04,8221.72
             8185.30,8224.08 8180.35,8230.90 8175.91,8234.42
             8170.56,8238.66 8163.96,8241.01 8159.29,8246.04
             8159.29,8246.04 8149.86,8258.35 8149.86,8258.35
             8144.56,8262.64 8128.90,8264.68 8122.00,8266.59
             8113.63,8268.91 8103.41,8275.22 8095.00,8275.60
             8087.01,8275.96 8078.52,8266.16 8067.00,8266.00
             8058.95,8265.89 8050.49,8265.96 8043.00,8262.44
             8037.66,8259.92 8035.11,8255.96 8030.91,8252.78
             8030.91,8252.78 8018.09,8245.07 8018.09,8245.07
             8009.93,8238.73 8007.51,8233.24 7997.00,8228.28
             7997.00,8228.28 7974.00,8220.59 7974.00,8220.59
             7974.00,8220.59 7966.00,8219.01 7966.00,8219.01
             7966.00,8219.01 7951.00,8212.14 7951.00,8212.14
             7942.88,8208.52 7932.99,8202.31 7929.10,8193.96
             7929.10,8193.96 7918.87,8162.00 7918.87,8162.00
             7917.64,8158.24 7914.91,8154.67 7913.11,8151.00
             7913.11,8151.00 7906.87,8137.00 7906.87,8137.00
             7905.29,8134.21 7901.37,8128.54 7898.90,8126.65
             7893.55,8122.57 7888.57,8124.84 7886.63,8116.00
             7886.63,8116.00 7885.72,8108.00 7885.72,8108.00
             7884.92,8101.56 7882.67,8086.28 7888.31,8081.60
             7890.08,8080.13 7891.87,8080.17 7894.00,8080.00
             7890.98,8074.23 7891.51,8070.35 7898.00,8068.00
             7895.24,8057.32 7904.65,8058.10 7911.68,8045.00
             7916.14,8036.68 7915.09,8025.78 7923.04,8019.42
             7927.33,8015.98 7933.66,8015.07 7939.00,8015.00
             7941.83,8014.97 7946.44,8015.25 7949.00,8014.42
             7951.59,8013.58 7952.98,8012.02 7956.00,8011.31
             7956.00,8011.31 7969.00,8009.72 7969.00,8009.72
             7969.00,8009.72 7986.00,8005.28 7986.00,8005.28
             7993.47,8002.96 7992.59,7999.29 7997.04,7997.83
             7999.63,7996.97 8007.64,7998.73 8011.00,7999.00
             8010.56,7995.69 8009.23,7991.22 8011.60,7988.43
             8014.30,7985.23 8016.64,7987.33 8020.27,7981.89
             8020.27,7981.89 8030.56,7968.99 8030.56,7968.99
             8032.81,7965.88 8035.52,7960.80 8038.30,7958.43
             8041.45,7955.73 8043.72,7956.43 8046.96,7954.69
             8050.49,7952.80 8051.06,7950.61 8057.00,7947.80
             8057.00,7947.80 8076.00,7942.00 8076.00,7942.00
             8072.35,7933.01 8076.88,7928.44 8086.00,7928.04
             8086.00,7928.04 8116.00,7930.00 8116.00,7930.00
             8117.74,7920.72 8122.35,7919.30 8122.48,7915.72
             8122.60,7912.65 8118.14,7896.68 8116.95,7893.00
             8116.95,7893.00 8115.25,7881.00 8115.25,7881.00
             8113.03,7871.41 8111.20,7870.78 8110.28,7867.00
             8110.28,7867.00 8106.73,7841.00 8106.73,7841.00
             8106.73,7841.00 8102.71,7830.04 8102.71,7830.04
             8102.71,7830.04 8101.70,7817.00 8101.70,7817.00
             8101.70,7817.00 8098.32,7802.00 8098.32,7802.00
             8098.32,7802.00 8097.82,7790.00 8097.82,7790.00
             8097.82,7790.00 8096.19,7782.00 8096.19,7782.00
             8095.63,7776.88 8098.16,7764.46 8099.20,7759.00
             8099.20,7759.00 8101.83,7744.00 8101.83,7744.00
             8101.83,7744.00 8102.52,7736.00 8102.52,7736.00
             8105.27,7723.02 8108.31,7718.38 8108.02,7703.99
             8108.02,7703.99 8110.96,7679.00 8110.96,7679.00
             8110.96,7679.00 8110.44,7665.00 8110.44,7665.00
             8110.44,7665.00 8112.90,7649.00 8112.90,7649.00
             8112.90,7649.00 8112.00,7635.00 8112.00,7635.00
             8111.98,7622.97 8111.15,7610.85 8108.91,7599.00
             8106.40,7585.78 8103.80,7589.17 8104.00,7572.00
             8104.00,7572.00 8105.68,7550.00 8105.68,7550.00
             8105.68,7550.00 8103.37,7530.00 8103.37,7530.00
             8103.37,7530.00 8104.13,7513.00 8104.13,7513.00
             8104.13,7513.00 8104.13,7493.00 8104.13,7493.00
             8103.95,7485.08 8106.84,7458.34 8108.76,7451.00
             8109.76,7447.17 8113.26,7438.70 8115.02,7435.00
             8121.58,7421.24 8131.49,7413.22 8133.70,7407.00
             8134.30,7405.32 8135.08,7395.19 8135.05,7393.00
             8134.87,7380.20 8133.53,7385.53 8130.14,7377.00
             8130.14,7377.00 8128.06,7370.00 8128.06,7370.00
             8128.06,7370.00 8117.99,7348.00 8117.99,7348.00
             8110.82,7335.40 8106.81,7337.89 8107.00,7321.00
             8107.10,7312.64 8111.31,7302.97 8115.83,7296.00
             8115.83,7296.00 8120.13,7290.00 8120.13,7290.00
             8120.13,7290.00 8123.49,7283.00 8123.49,7283.00
             8127.24,7276.57 8130.59,7271.89 8130.96,7264.00
             8131.50,7252.47 8127.46,7246.83 8122.51,7237.00
             8122.51,7237.00 8112.69,7214.00 8112.69,7214.00
             8110.60,7209.28 8106.92,7201.97 8106.31,7197.00
             8105.55,7190.76 8109.37,7181.81 8111.54,7176.00
             8111.54,7176.00 8113.60,7168.00 8113.60,7168.00
             8113.60,7168.00 8120.52,7151.00 8120.52,7151.00
             8123.49,7145.54 8129.51,7139.25 8129.86,7133.00
             8130.37,7123.72 8124.02,7111.28 8120.35,7103.00
             8120.35,7103.00 8114.40,7087.00 8114.40,7087.00
             8112.41,7082.09 8109.61,7077.40 8109.30,7072.00
             8109.00,7066.71 8108.73,7060.05 8110.33,7055.00
             8110.33,7055.00 8122.47,7033.00 8122.47,7033.00
             8126.61,7026.32 8135.06,7020.89 8130.02,7012.04
             8128.03,7008.55 8120.54,7003.94 8117.00,7001.21
             8109.76,6995.62 8101.85,6991.17 8094.00,6986.50
             8085.28,6981.33 8088.71,6981.41 8078.00,6978.14
             8075.58,6977.40 8066.19,6974.63 8064.17,6974.93
             8057.45,6975.95 8058.73,6983.93 8055.69,6988.00
             8053.07,6991.50 8049.19,6994.12 8047.04,6998.00
             8044.82,7002.03 8046.47,7004.14 8044.98,7008.00
             8042.81,7013.59 8035.25,7018.22 8030.00,7020.68
             8018.18,7026.21 8016.71,7025.29 8005.00,7026.09
             8005.00,7026.09 7992.00,7027.00 7992.00,7027.00
             7992.00,7027.00 7968.00,7024.08 7968.00,7024.08
             7968.00,7024.08 7950.00,7024.08 7950.00,7024.08
             7944.35,7024.05 7937.14,7024.61 7932.04,7022.08
             7927.73,7019.95 7919.00,7009.17 7915.04,7005.00
             7908.01,6997.62 7907.08,6995.06 7901.95,6987.00
             7901.95,6987.00 7893.49,6974.00 7893.49,6974.00
             7887.05,6960.79 7884.83,6943.57 7885.00,6929.00
             7885.16,6916.10 7890.45,6911.06 7896.54,6901.00
             7900.93,6893.74 7910.07,6874.57 7910.09,6866.28
             7910.09,6863.58 7905.58,6852.64 7904.08,6850.28
             7904.08,6850.28 7896.56,6841.00 7896.56,6841.00
             7890.45,6832.44 7885.98,6823.06 7882.90,6813.00
             7881.57,6808.64 7882.30,6806.99 7881.82,6803.00
             7881.82,6803.00 7880.28,6795.17 7880.28,6795.17
             7879.63,6788.48 7880.45,6783.49 7880.96,6777.00
             7880.96,6777.00 7880.96,6761.00 7880.96,6761.00
             7880.96,6761.00 7879.00,6723.00 7879.00,6723.00
             7879.00,6723.00 7879.00,6703.00 7879.00,6703.00
             7878.98,6690.29 7876.68,6693.61 7880.11,6680.00
             7880.82,6677.15 7881.12,6674.54 7882.73,6672.00
             7889.27,6661.75 7899.79,6660.06 7905.94,6655.75
             7910.90,6652.28 7909.06,6650.42 7911.59,6647.41
             7914.46,6644.00 7916.05,6646.12 7919.41,6639.00
             7921.46,6634.65 7923.76,6630.16 7924.10,6625.28
             7924.42,6620.66 7922.53,6618.84 7922.49,6615.00
             7922.43,6607.45 7927.92,6593.15 7934.02,6588.42
             7943.19,6581.30 7958.37,6581.15 7969.00,6578.56
             7978.39,6576.28 7979.05,6573.23 7983.04,6572.33
             7986.65,6571.52 7989.28,6573.63 7998.00,6568.05
             8000.08,6566.72 8003.88,6564.13 8005.63,6562.50
             8005.63,6562.50 8009.37,6558.72 8009.37,6558.72
             8012.23,6556.59 8014.45,6557.33 8017.54,6554.57
             8022.38,6550.24 8023.37,6544.42 8025.81,6541.14
             8028.02,6538.18 8030.23,6538.12 8032.35,6535.70
             8035.36,6532.29 8036.22,6524.81 8042.09,6521.01
             8046.49,6518.15 8049.64,6519.79 8056.00,6517.71
             8056.00,6517.71 8068.00,6512.56 8068.00,6512.56
             8068.00,6512.56 8081.00,6510.54 8081.00,6510.54
             8081.00,6510.54 8095.00,6506.59 8095.00,6506.59
             8095.00,6506.59 8103.00,6505.53 8103.00,6505.53
             8114.43,6502.66 8115.31,6497.03 8122.57,6489.09
             8122.57,6489.09 8147.00,6466.02 8147.00,6466.02
             8149.73,6463.89 8159.05,6457.06 8162.00,6456.81
             8163.55,6456.37 8164.55,6456.73 8166.00,6456.81
             8166.00,6456.81 8173.00,6451.32 8173.00,6451.32
             8173.00,6451.32 8185.00,6444.53 8185.00,6444.53
             8185.00,6444.53 8211.91,6442.72 8211.91,6442.72
             8211.91,6442.72 8218.09,6439.72 8218.09,6439.72
             8218.09,6439.72 8230.00,6436.50 8230.00,6436.50
             8230.00,6436.50 8243.00,6431.00 8243.00,6431.00
             8240.98,6420.90 8247.86,6419.38 8250.52,6413.00
             8252.03,6409.37 8250.05,6406.88 8252.60,6403.17
             8259.04,6393.81 8271.81,6388.44 8282.00,6384.27
             8282.00,6384.27 8302.00,6373.87 8302.00,6373.87
             8302.00,6373.87 8331.95,6364.09 8331.95,6364.09
             8335.55,6362.20 8337.12,6358.56 8340.07,6355.89
             8350.01,6346.87 8353.49,6346.65 8356.73,6344.04
             8359.65,6341.69 8359.59,6339.40 8363.11,6337.07
             8363.11,6337.07 8385.00,6327.78 8385.00,6327.78
             8389.64,6326.48 8391.22,6327.24 8399.00,6324.37
             8404.96,6322.17 8404.77,6319.71 8410.01,6317.36
             8410.01,6317.36 8441.00,6309.43 8441.00,6309.43
             8444.86,6308.79 8453.89,6308.21 8456.74,6306.15
             8459.35,6304.26 8462.16,6297.79 8465.33,6294.00
             8471.54,6286.58 8473.98,6288.50 8479.62,6281.57
             8483.51,6276.80 8489.48,6265.77 8494.09,6262.60
             8496.36,6261.04 8501.08,6260.50 8504.00,6259.71
             8512.12,6257.50 8520.65,6257.64 8529.00,6256.83
             8529.00,6256.83 8540.00,6255.28 8540.00,6255.28
             8543.24,6254.88 8550.12,6254.70 8552.73,6252.99
             8555.34,6251.27 8556.76,6245.95 8557.77,6243.00
             8561.83,6231.21 8560.64,6219.19 8561.37,6207.00
             8561.64,6202.56 8561.45,6186.95 8560.61,6183.00
             8559.13,6176.00 8557.02,6178.52 8556.95,6166.00
             8556.95,6166.00 8556.95,6151.00 8556.95,6151.00
             8556.50,6146.69 8555.11,6145.68 8555.47,6141.00
             8555.47,6141.00 8556.00,6110.00 8556.00,6110.00
             8556.00,6110.00 8555.04,6098.00 8555.04,6098.00
             8555.04,6098.00 8555.04,6085.00 8555.04,6085.00
             8555.04,6085.00 8552.04,6060.00 8552.04,6060.00
             8551.33,6042.20 8554.87,6021.60 8561.31,6005.00
             8561.31,6005.00 8571.25,5985.00 8571.25,5985.00
             8574.24,5977.86 8575.22,5969.69 8575.27,5962.00
             8575.30,5956.39 8571.65,5940.01 8569.36,5935.04
             8567.58,5931.19 8565.22,5930.51 8563.96,5925.99
             8562.51,5920.82 8565.15,5914.99 8563.41,5910.00
             8562.36,5907.00 8555.08,5898.08 8556.22,5889.00
             8556.57,5886.24 8557.66,5884.51 8558.37,5882.00
             8558.37,5882.00 8560.49,5871.00 8560.49,5871.00
             8560.49,5871.00 8567.59,5852.00 8567.59,5852.00
             8567.59,5852.00 8573.72,5839.27 8573.72,5839.27
             8577.77,5834.25 8584.18,5836.30 8587.30,5832.69
             8590.32,5829.19 8588.71,5825.04 8589.34,5821.00
             8590.06,5816.35 8594.62,5807.44 8598.18,5804.43
             8598.18,5804.43 8610.09,5797.70 8610.09,5797.70
             8610.09,5797.70 8615.00,5796.03 8615.00,5796.03
             8618.50,5794.34 8621.52,5790.89 8626.00,5789.49
             8632.55,5787.45 8638.52,5789.11 8645.00,5785.87
             8645.00,5785.87 8655.00,5780.26 8655.00,5780.26
             8655.00,5780.26 8668.00,5773.53 8668.00,5773.53
             8668.00,5773.53 8679.00,5765.80 8679.00,5765.80
             8684.31,5762.88 8686.46,5764.99 8692.96,5760.61
             8700.49,5755.55 8700.93,5748.99 8714.00,5743.36
             8721.04,5740.32 8734.15,5738.93 8736.00,5738.28
             8736.00,5738.28 8753.00,5729.60 8753.00,5729.60
             8753.00,5729.60 8768.00,5726.23 8768.00,5726.23
             8768.00,5726.23 8785.00,5720.04 8785.00,5720.04
             8785.00,5720.04 8793.90,5718.40 8793.90,5718.40
             8796.80,5717.21 8800.28,5711.65 8802.35,5709.01
             8802.35,5709.01 8820.51,5685.04 8820.51,5685.04
             8824.06,5680.79 8833.72,5674.14 8839.00,5672.36
             8844.23,5670.60 8847.67,5671.32 8852.90,5668.32
             8857.21,5665.84 8857.73,5662.55 8861.18,5659.21
             8865.82,5654.73 8871.73,5653.08 8878.00,5653.00
             8882.76,5652.95 8890.72,5652.57 8895.00,5654.13
             8895.00,5654.13 8911.00,5663.31 8911.00,5663.31
             8920.63,5667.91 8932.36,5673.36 8939.06,5682.09
             8945.72,5690.76 8941.61,5696.03 8947.82,5702.49
             8952.61,5707.46 8959.05,5714.09 8965.00,5717.38
             8965.00,5717.38 8975.00,5721.40 8975.00,5721.40
             8975.00,5721.40 8983.00,5726.25 8983.00,5726.25
             8986.75,5728.07 9006.60,5733.96 9011.00,5734.84
             9011.00,5734.84 9020.00,5734.84 9020.00,5734.84
             9030.59,5735.13 9031.81,5739.15 9041.00,5742.33
             9041.00,5742.33 9051.00,5745.87 9051.00,5745.87
             9051.00,5745.87 9059.00,5749.54 9059.00,5749.54
             9064.28,5751.21 9067.66,5750.71 9073.00,5754.13
             9080.11,5758.70 9079.77,5763.18 9083.39,5766.31
             9086.26,5768.79 9098.04,5773.83 9102.00,5775.81
             9102.00,5775.81 9115.00,5783.70 9115.00,5783.70
             9115.00,5783.70 9130.00,5789.03 9130.00,5789.03
             9130.00,5789.03 9147.00,5799.13 9147.00,5799.13
             9150.94,5801.41 9155.52,5803.02 9158.82,5806.21
             9158.82,5806.21 9164.61,5813.63 9164.61,5813.63
             9167.16,5816.40 9169.79,5817.18 9173.20,5822.00
             9173.20,5822.00 9178.42,5832.00 9178.42,5832.00
             9178.42,5832.00 9186.44,5842.04 9186.44,5842.04
             9188.63,5845.37 9191.20,5853.36 9193.63,5855.36
             9195.85,5857.18 9199.31,5856.15 9202.00,5856.04
             9207.92,5855.79 9214.13,5856.45 9220.00,5857.18
             9227.75,5858.15 9234.01,5861.95 9240.00,5863.32
             9240.00,5863.32 9254.00,5864.52 9254.00,5864.52
             9259.46,5865.68 9269.82,5871.03 9275.00,5873.82
             9285.93,5879.70 9290.35,5891.60 9297.45,5900.83
             9302.07,5906.84 9308.47,5909.69 9315.00,5913.11
             9324.73,5918.20 9326.90,5915.93 9334.00,5918.04
             9341.70,5920.33 9341.11,5922.48 9354.00,5924.91
             9354.00,5924.91 9365.00,5926.76 9365.00,5926.76
             9369.19,5927.86 9383.83,5934.52 9386.82,5937.33
             9390.47,5940.76 9391.77,5944.83 9394.25,5949.00
             9394.25,5949.00 9404.90,5967.00 9404.90,5967.00
             9406.73,5971.35 9407.85,5979.24 9411.49,5982.36
             9415.68,5986.05 9422.36,5982.93 9427.00,5982.36
             9427.00,5982.36 9434.00,5981.76 9434.00,5981.76
             9434.00,5981.76 9442.00,5979.31 9442.00,5979.31
             9445.36,5978.64 9450.88,5978.38 9453.79,5976.69
             9456.17,5975.31 9457.95,5972.24 9460.10,5970.18
             9462.62,5967.77 9465.98,5965.76 9469.00,5964.01
             9474.47,5960.86 9478.95,5959.90 9483.91,5955.53
             9488.75,5951.27 9491.20,5945.44 9495.21,5941.04
             9497.96,5938.02 9513.02,5929.02 9517.00,5927.47
             9524.01,5924.74 9537.15,5923.14 9544.72,5923.16
             9544.72,5923.16 9558.00,5922.32 9558.00,5922.32
             9561.45,5922.07 9563.68,5922.79 9567.00,5923.39
             9578.92,5925.53 9585.39,5927.97 9596.00,5934.00
             9599.77,5936.14 9603.76,5937.94 9606.82,5941.10
             9613.71,5948.22 9613.67,5956.16 9617.64,5964.00
             9617.64,5964.00 9621.83,5973.00 9621.83,5973.00
             9625.30,5979.73 9627.22,5979.45 9628.00,5988.00
             9636.89,5987.08 9640.03,5982.88 9651.00,5986.00
             9656.27,5977.57 9667.81,5974.93 9677.00,5978.11
             9681.27,5979.58 9683.26,5981.68 9687.00,5983.46
             9687.00,5983.46 9694.00,5986.32 9694.00,5986.32
             9701.62,5989.95 9715.17,5998.82 9720.63,6005.09
             9720.63,6005.09 9728.47,6016.00 9728.47,6016.00
             9728.47,6016.00 9732.33,6022.99 9732.33,6022.99
             9735.17,6027.01 9738.53,6029.39 9741.70,6033.01
             9746.56,6038.57 9747.62,6041.78 9755.00,6045.10
             9761.72,6048.11 9763.55,6045.94 9771.00,6048.36
             9771.00,6048.36 9795.00,6057.30 9795.00,6057.30
             9795.00,6057.30 9803.00,6057.30 9803.00,6057.30
             9808.80,6057.59 9820.26,6059.81 9824.91,6063.22
             9828.52,6065.87 9829.48,6068.00 9832.30,6070.63
             9836.89,6074.92 9839.86,6075.46 9843.16,6082.00
             9846.03,6087.68 9845.10,6092.34 9847.59,6095.91
             9849.24,6098.25 9851.78,6099.68 9853.91,6101.51
             9856.71,6103.92 9858.83,6107.05 9862.01,6108.99
             9866.74,6111.88 9879.27,6113.44 9885.00,6114.18
             9885.00,6114.18 9892.42,6115.84 9892.42,6115.84
             9898.09,6115.80 9905.14,6111.71 9910.00,6109.52
             9920.60,6104.72 9917.92,6108.52 9929.98,6100.08
             9931.96,6098.70 9933.51,6097.86 9934.92,6095.79
             9934.92,6095.79 9938.61,6088.00 9938.61,6088.00
             9940.72,6084.44 9943.27,6082.00 9945.04,6078.00
             9948.71,6069.69 9948.41,6064.46 9958.00,6059.40
             9958.00,6059.40 9973.00,6054.36 9973.00,6054.36
             9973.00,6054.36 9982.00,6048.83 9982.00,6048.83
             9982.00,6048.83 10002.00,6040.37 10002.00,6040.37
             10002.00,6040.37 10011.00,6035.33 10011.00,6035.33
             10017.09,6032.46 10017.58,6034.08 10025.00,6029.84
             10025.00,6029.84 10045.83,6014.49 10045.83,6014.49
             10050.89,6010.07 10055.12,6005.12 10061.00,6001.61
             10067.73,5997.60 10075.66,5997.46 10083.00,5995.59
             10087.37,5994.48 10089.20,5991.91 10095.00,5991.38
             10095.00,5991.38 10109.00,5991.38 10109.00,5991.38
             10115.07,5990.34 10115.16,5985.68 10129.00,5986.13
             10134.75,5986.31 10134.20,5985.54 10139.00,5983.04
             10149.50,5977.57 10146.79,5978.53 10155.17,5970.58
             10157.40,5968.46 10162.62,5964.14 10164.02,5961.83
             10166.00,5958.57 10165.98,5950.84 10174.02,5944.53
             10178.93,5940.68 10191.80,5937.87 10198.00,5938.14
             10206.58,5938.95 10204.86,5938.15 10212.00,5938.14
             10212.00,5938.14 10227.00,5938.14 10227.00,5938.14
             10227.00,5938.14 10255.00,5939.49 10255.00,5939.49
             10260.12,5938.96 10263.03,5934.60 10269.00,5932.80
             10282.48,5928.73 10297.45,5936.41 10299.00,5951.00
             10309.50,5953.20 10309.69,5959.76 10315.21,5964.37
             10323.59,5971.37 10329.86,5971.34 10337.00,5974.99
             10342.08,5977.59 10343.91,5980.52 10348.00,5983.36
             10352.72,5986.63 10365.46,5989.54 10371.00,5988.60
             10372.89,5988.28 10374.46,5987.33 10375.94,5986.14
             10383.39,5980.14 10375.11,5974.76 10381.82,5962.00
             10384.47,5956.98 10386.22,5956.60 10389.29,5952.83
             10392.27,5949.19 10392.86,5946.10 10396.47,5942.30
             10398.65,5939.99 10414.80,5929.62 10418.00,5927.99
             10422.19,5925.87 10435.38,5921.74 10440.00,5920.98
             10440.00,5920.98 10450.00,5920.98 10450.00,5920.98
             10453.59,5920.18 10456.59,5917.94 10460.00,5916.76
             10464.72,5915.12 10475.05,5912.54 10478.96,5910.08
             10482.25,5908.01 10484.98,5903.17 10488.04,5900.01
             10488.04,5900.01 10498.39,5891.10 10498.39,5891.10
             10498.39,5891.10 10505.09,5884.21 10505.09,5884.21
             10509.11,5880.59 10511.76,5880.36 10514.72,5878.19
             10514.72,5878.19 10527.04,5867.24 10527.04,5867.24
             10529.09,5865.83 10536.66,5861.85 10539.00,5860.95
             10539.00,5860.95 10545.00,5858.86 10545.00,5858.86
             10545.00,5858.86 10553.00,5853.84 10553.00,5853.84
             10558.49,5851.09 10567.98,5850.32 10574.00,5851.32
             10579.55,5852.25 10582.38,5855.40 10587.00,5852.63
             10587.00,5852.63 10592.00,5848.96 10592.00,5848.96
             10601.32,5842.92 10610.51,5836.75 10617.30,5827.72
             10617.30,5827.72 10621.60,5819.00 10621.60,5819.00
             10625.68,5811.84 10629.62,5806.10 10636.17,5800.92
             10640.17,5797.76 10650.92,5794.21 10656.00,5793.33
             10659.97,5792.64 10662.21,5793.65 10666.00,5791.44
             10666.00,5791.44 10672.00,5787.13 10672.00,5787.13
             10676.68,5784.17 10678.98,5784.37 10683.96,5779.82
             10688.44,5775.72 10691.42,5770.18 10696.04,5766.80
             10696.04,5766.80 10714.00,5757.49 10714.00,5757.49
             10719.00,5753.93 10720.13,5750.60 10727.00,5747.33
             10734.10,5743.94 10748.11,5741.18 10756.00,5741.18
             10756.00,5741.18 10765.00,5741.90 10765.00,5741.90
             10765.00,5741.90 10786.00,5740.04 10786.00,5740.04
             10786.00,5740.04 10797.01,5740.04 10797.01,5740.04
             10797.01,5740.04 10809.00,5739.00 10809.00,5739.00
             10809.00,5739.00 10808.32,5727.00 10808.32,5727.00
             10808.32,5727.00 10809.91,5711.00 10809.91,5711.00
             10809.91,5711.00 10809.02,5700.00 10809.02,5700.00
             10809.02,5700.00 10810.25,5687.00 10810.25,5687.00
             10810.25,5687.00 10808.37,5673.00 10808.37,5673.00
             10806.85,5667.48 10805.04,5666.84 10805.03,5660.00
             10805.02,5655.52 10807.22,5637.56 10809.00,5634.00
             10815.31,5621.38 10828.99,5615.94 10842.00,5613.58
             10845.43,5612.95 10848.47,5612.06 10852.00,5612.32
             10852.00,5612.32 10858.00,5613.00 10858.00,5613.00 Z
           M 8131.00,7433.00
           C 8131.00,7433.00 8130.00,7433.00 8130.00,7433.00
             8130.00,7433.00 8131.00,7434.00 8131.00,7434.00
             8131.00,7434.00 8131.00,7433.00 8131.00,7433.00 Z
           M 8130.00,7435.00
           C 8130.00,7435.00 8129.00,7435.00 8129.00,7435.00
             8129.00,7435.00 8130.00,7436.00 8130.00,7436.00
             8130.00,7436.00 8130.00,7435.00 8130.00,7435.00 Z" />
</svg>
