<?xml version="1.0" encoding="UTF-8" standalone="no"?>
<!DOCTYPE svg PUBLIC "-//W3C//DTD SVG 20010904//EN"
              "http://www.w3.org/TR/2001/REC-SVG-20010904/DTD/svg10.dtd">

<svg xmlns="http://www.w3.org/2000/svg"
     width="28895.9mm" height="28895.9mm"
     viewBox="0 0 81920 81920">
  <path id="Verchix - Cheru Isle"
        fill="none" stroke="black" stroke-width="1"
        d="M 70517.00,49534.43
           C 70523.72,49533.60 70531.57,49534.38 70538.00,49536.52
             70544.40,49538.65 70545.58,49540.88 70553.00,49542.00
             70553.00,49542.00 70587.00,49548.20 70587.00,49548.20
             70596.63,49551.16 70613.31,49559.87 70622.00,49565.32
             70628.30,49569.27 70635.56,49573.25 70640.33,49579.04
             70647.11,49587.27 70648.09,49593.13 70650.63,49603.00
             70650.63,49603.00 70652.67,49611.00 70652.67,49611.00
             70652.67,49611.00 70652.67,49618.00 70652.67,49618.00
             70652.67,49618.00 70656.00,49642.00 70656.00,49642.00
             70656.00,49642.00 70656.00,49650.00 70656.00,49650.00
             70656.00,49650.00 70658.00,49666.00 70658.00,49666.00
             70658.00,49666.00 70658.00,49673.00 70658.00,49673.00
             70658.05,49683.62 70661.58,49694.55 70663.54,49705.00
             70663.54,49705.00 70665.28,49717.00 70665.28,49717.00
             70666.42,49723.82 70667.91,49725.25 70668.00,49733.00
             70668.14,49745.15 70668.83,49743.04 70670.06,49753.00
             70670.06,49753.00 70670.06,49760.00 70670.06,49760.00
             70670.06,49760.00 70672.70,49767.00 70672.70,49767.00
             70672.70,49767.00 70673.91,49785.00 70673.91,49785.00
             70673.61,49789.78 70671.52,49793.48 70672.39,49796.28
             70673.71,49800.55 70679.43,49805.18 70683.00,49807.65
             70691.43,49813.49 70696.77,49816.49 70705.00,49823.44
             70705.00,49823.44 70729.42,49848.72 70729.42,49848.72
             70736.06,49855.46 70743.97,49861.24 70749.51,49869.00
             70753.81,49875.03 70759.30,49895.30 70759.21,49903.00
             70759.14,49909.11 70752.93,49916.11 70749.57,49921.00
             70749.57,49921.00 70743.64,49932.00 70743.64,49932.00
             70743.64,49932.00 70738.04,49940.00 70738.04,49940.00
             70731.21,49949.73 70727.16,49957.79 70718.00,49965.82
             70710.51,49972.37 70699.03,49976.25 70685.18,49992.00
             70673.36,50005.45 70663.03,50032.96 70663.00,50051.00
             70663.00,50051.00 70663.00,50065.00 70663.00,50065.00
             70662.99,50072.89 70662.41,50071.33 70661.32,50078.00
             70661.32,50078.00 70660.54,50086.00 70660.54,50086.00
             70657.82,50101.35 70654.18,50116.28 70654.00,50132.00
             70654.00,50132.00 70654.91,50145.00 70654.91,50145.00
             70654.91,50145.00 70657.30,50170.00 70657.30,50170.00
             70657.30,50170.00 70661.58,50191.00 70661.58,50191.00
             70661.58,50191.00 70665.90,50218.00 70665.90,50218.00
             70665.90,50218.00 70668.63,50230.00 70668.63,50230.00
             70668.63,50230.00 70671.56,50238.00 70671.56,50238.00
             70673.37,50243.97 70675.92,50256.88 70676.00,50263.00
             70676.00,50263.00 70676.00,50270.00 70676.00,50270.00
             70676.01,50279.60 70676.96,50278.62 70678.54,50287.00
             70678.54,50287.00 70680.51,50300.00 70680.51,50300.00
             70680.51,50300.00 70683.40,50309.00 70683.40,50309.00
             70683.40,50309.00 70687.33,50327.00 70687.33,50327.00
             70687.33,50327.00 70689.17,50346.00 70689.17,50346.00
             70689.17,50346.00 70692.13,50364.00 70692.13,50364.00
             70692.13,50364.00 70695.00,50381.00 70695.00,50381.00
             70695.00,50381.00 70695.00,50390.00 70695.00,50390.00
             70695.50,50393.33 70696.97,50397.97 70696.52,50401.00
             70695.91,50405.23 70691.66,50411.26 70689.45,50415.00
             70689.45,50415.00 70675.86,50440.00 70675.86,50440.00
             70675.86,50440.00 70654.14,50485.00 70654.14,50485.00
             70654.14,50485.00 70647.31,50496.00 70647.31,50496.00
             70647.31,50496.00 70637.08,50514.00 70637.08,50514.00
             70637.08,50514.00 70629.23,50526.00 70629.23,50526.00
             70629.23,50526.00 70620.55,50541.00 70620.55,50541.00
             70620.55,50541.00 70614.17,50551.00 70614.17,50551.00
             70614.17,50551.00 70609.40,50561.00 70609.40,50561.00
             70609.40,50561.00 70602.78,50573.00 70602.78,50573.00
             70593.00,50591.52 70588.15,50595.86 70575.58,50612.00
             70575.58,50612.00 70565.55,50625.00 70565.55,50625.00
             70559.29,50634.69 70558.34,50648.36 70554.33,50656.00
             70547.68,50668.68 70532.29,50672.98 70519.00,50673.00
             70519.00,50673.00 70324.00,50673.00 70324.00,50673.00
             70324.00,50673.00 70297.00,50671.00 70297.00,50671.00
             70297.00,50671.00 70273.00,50671.00 70273.00,50671.00
             70273.00,50671.00 70261.00,50670.04 70261.00,50670.04
             70261.00,50670.04 70245.00,50670.04 70245.00,50670.04
             70242.91,50670.00 70239.93,50669.89 70238.00,50670.60
             70232.83,50672.51 70223.65,50685.18 70220.15,50690.00
             70201.03,50716.33 70196.95,50738.46 70182.52,50766.00
             70182.52,50766.00 70158.69,50804.00 70158.69,50804.00
             70158.69,50804.00 70145.60,50826.00 70145.60,50826.00
             70145.60,50826.00 70138.69,50840.00 70138.69,50840.00
             70138.69,50840.00 70127.31,50860.00 70127.31,50860.00
             70127.31,50860.00 70118.08,50877.00 70118.08,50877.00
             70118.08,50877.00 70098.47,50903.00 70098.47,50903.00
             70091.71,50912.00 70084.76,50920.85 70076.96,50929.00
             70074.44,50931.63 70069.05,50937.30 70066.00,50938.83
             70063.23,50940.21 70050.61,50940.99 70047.00,50941.00
             70047.00,50941.00 70030.00,50941.00 70030.00,50941.00
             70030.00,50941.00 70018.00,50940.04 70018.00,50940.04
             70018.00,50940.04 70005.00,50940.04 70005.00,50940.04
             70005.00,50940.04 69979.00,50938.00 69979.00,50938.00
             69979.00,50938.00 69946.00,50938.00 69946.00,50938.00
             69946.00,50938.00 69929.00,50939.00 69929.00,50939.00
             69929.00,50939.00 69900.00,50939.00 69900.00,50939.00
             69900.00,50939.00 69888.00,50939.96 69888.00,50939.96
             69888.00,50939.96 69873.00,50939.96 69873.00,50939.96
             69873.00,50939.96 69856.00,50941.00 69856.00,50941.00
             69856.00,50941.00 69842.00,50941.00 69842.00,50941.00
             69842.00,50941.00 69823.00,50942.00 69823.00,50942.00
             69823.00,50942.00 69809.00,50941.00 69809.00,50941.00
             69809.00,50941.00 69778.00,50940.00 69778.00,50940.00
             69772.33,50939.93 69764.41,50938.10 69760.51,50933.66
             69758.51,50931.40 69756.32,50924.24 69754.99,50921.00
             69751.74,50913.09 69749.04,50906.96 69743.57,50900.17
             69743.57,50900.17 69735.99,50891.91 69735.99,50891.91
             69735.99,50891.91 69726.67,50871.00 69726.67,50871.00
             69726.67,50871.00 69719.31,50858.00 69719.31,50858.00
             69719.31,50858.00 69712.05,50844.00 69712.05,50844.00
             69707.38,50835.41 69701.90,50826.99 69696.28,50819.00
             69696.28,50819.00 69688.21,50808.00 69688.21,50808.00
             69688.21,50808.00 69679.74,50786.00 69679.74,50786.00
             69673.98,50774.06 69665.82,50763.89 69658.28,50753.00
             69658.28,50753.00 69647.35,50738.00 69647.35,50738.00
             69647.35,50738.00 69638.76,50725.00 69638.76,50725.00
             69627.68,50710.35 69621.43,50704.01 69612.31,50687.00
             69608.47,50679.84 69608.37,50675.97 69605.55,50669.00
             69605.55,50669.00 69596.79,50649.00 69596.79,50649.00
             69595.83,50645.62 69594.98,50632.92 69595.00,50629.00
             69595.00,50629.00 69598.00,50600.00 69598.00,50600.00
             69598.00,50600.00 69594.00,50568.00 69594.00,50568.00
             69594.00,50568.00 69594.00,50543.00 69594.00,50543.00
             69594.02,50528.16 69596.09,50518.32 69602.75,50505.00
             69604.17,50502.16 69605.91,50498.55 69607.79,50496.04
             69607.79,50496.04 69630.00,50474.02 69630.00,50474.02
             69640.35,50463.96 69639.69,50468.91 69652.46,50454.03
             69655.95,50449.97 69659.20,50448.62 69658.00,50442.58
             69657.07,50437.86 69650.03,50423.94 69647.60,50419.00
             69647.60,50419.00 69637.69,50396.00 69637.69,50396.00
             69637.69,50396.00 69625.38,50373.00 69625.38,50373.00
             69625.38,50373.00 69618.45,50349.00 69618.45,50349.00
             69618.45,50349.00 69614.28,50329.00 69614.28,50329.00
             69614.28,50329.00 69605.57,50305.00 69605.57,50305.00
             69605.57,50305.00 69597.69,50287.00 69597.69,50287.00
             69593.44,50275.32 69593.67,50263.42 69585.70,50253.00
             69572.06,50235.16 69562.21,50227.23 69543.00,50216.01
             69543.00,50216.01 69516.00,50202.60 69516.00,50202.60
             69513.51,50201.13 69508.48,50198.61 69506.82,50196.47
             69504.97,50194.07 69505.15,50190.84 69504.48,50188.00
             69504.48,50188.00 69501.20,50178.00 69501.20,50178.00
             69498.29,50165.10 69510.12,50153.90 69514.33,50141.00
             69514.33,50141.00 69517.59,50120.18 69517.59,50120.18
             69519.09,50116.74 69525.39,50113.86 69529.00,50113.79
             69531.99,50113.73 69535.35,50115.90 69538.00,50117.24
             69538.00,50117.24 69550.00,50122.95 69550.00,50122.95
             69553.92,50125.18 69557.31,50128.20 69562.00,50128.77
             69567.92,50129.50 69582.62,50122.20 69583.58,50115.99
             69584.16,50112.23 69580.59,50108.14 69579.25,50103.00
             69579.25,50103.00 69577.34,50093.00 69577.34,50093.00
             69574.67,50080.69 69573.98,50082.36 69574.00,50069.00
             69574.06,50032.62 69606.30,50005.91 69636.00,49990.32
             69647.61,49984.22 69665.27,49980.72 69673.33,49970.96
             69684.37,49957.61 69691.46,49935.37 69697.08,49919.00
             69697.08,49919.00 69707.81,49888.00 69707.81,49888.00
             69707.81,49888.00 69717.46,49865.00 69717.46,49865.00
             69717.46,49865.00 69726.95,49836.00 69726.95,49836.00
             69731.53,49823.46 69729.23,49817.15 69733.10,49808.00
             69736.71,49799.48 69740.90,49798.63 69746.82,49793.33
             69752.29,49788.44 69753.71,49782.04 69769.00,49777.75
             69785.40,49773.14 69797.31,49778.58 69812.00,49785.31
             69814.87,49786.62 69817.99,49788.36 69821.00,49789.21
             69825.13,49790.39 69831.54,49789.95 69836.00,49790.00
             69847.19,49790.13 69858.01,49792.45 69869.00,49794.25
             69869.00,49794.25 69884.00,49796.13 69884.00,49796.13
             69889.83,49797.01 69894.99,49799.65 69901.00,49798.68
             69908.08,49797.53 69921.03,49791.69 69928.00,49789.06
             69928.00,49789.06 69948.00,49783.45 69948.00,49783.45
             69948.00,49783.45 69968.00,49769.72 69968.00,49769.72
             69968.00,49769.72 69982.00,49760.10 69982.00,49760.10
             69982.00,49760.10 70011.96,49733.00 70011.96,49733.00
             70011.96,49733.00 70026.04,49717.00 70026.04,49717.00
             70026.04,49717.00 70037.00,49706.91 70037.00,49706.91
             70037.00,49706.91 70051.99,49692.00 70051.99,49692.00
             70057.00,49686.86 70063.66,49678.17 70069.04,49674.21
             70079.65,49666.39 70099.91,49661.08 70113.00,49658.45
             70117.56,49657.53 70130.90,49656.56 70133.79,49654.40
             70135.88,49652.83 70139.39,49646.54 70140.94,49644.00
             70143.56,49639.69 70149.36,49626.78 70150.70,49622.00
             70153.32,49612.69 70152.08,49608.66 70156.86,49598.00
             70164.60,49580.78 70174.38,49576.57 70190.00,49568.75
             70197.86,49564.82 70201.57,49562.80 70210.00,49559.68
             70218.53,49556.52 70226.71,49553.68 70236.00,49554.04
             70249.12,49554.55 70257.68,49558.91 70268.00,49566.63
             70277.54,49573.77 70278.18,49578.93 70286.00,49578.19
             70286.00,49578.19 70294.00,49578.19 70294.00,49578.19
             70294.00,49578.19 70371.00,49579.00 70371.00,49579.00
             70371.00,49579.00 70381.00,49578.04 70381.00,49578.04
             70381.00,49578.04 70391.00,49578.04 70391.00,49578.04
             70391.00,49578.04 70406.00,49577.00 70406.00,49577.00
             70406.00,49577.00 70430.00,49577.00 70430.00,49577.00
             70449.26,49576.97 70450.51,49570.91 70465.00,49560.72
             70482.60,49548.34 70495.25,49537.99 70517.00,49534.43 Z" />
</svg>
