<?xml version="1.0" encoding="UTF-8" standalone="no"?>
<!DOCTYPE svg PUBLIC "-//W3C//DTD SVG 20010904//EN"
              "http://www.w3.org/TR/2001/REC-SVG-20010904/DTD/svg10.dtd">

<svg xmlns="http://www.w3.org/2000/svg"
     width="1137.78in" height="1137.78in"
     viewBox="0 0 81920 81920">
  <path id="Selection"
        fill="none" stroke="black" stroke-width="1"
        d="M 70518.00,49416.23
           C 70521.23,49416.02 70523.76,49415.97 70527.00,49416.23
             70542.58,49416.18 70545.27,49421.26 70556.00,49423.55
             70556.00,49423.55 70592.00,49430.44 70592.00,49430.44
             70601.16,49433.18 70617.72,49442.13 70626.00,49447.32
             70634.59,49452.71 70640.85,49456.10 70646.61,49465.00
             70650.60,49471.15 70655.04,49486.67 70656.06,49494.00
             70656.06,49494.00 70656.06,49503.00 70656.06,49503.00
             70656.06,49503.00 70659.00,49522.00 70659.00,49522.00
             70659.00,49522.00 70659.00,49532.00 70659.00,49532.00
             70659.00,49532.00 70661.00,49549.00 70661.00,49549.00
             70661.18,49564.32 70663.34,49570.48 70666.34,49585.00
             70666.34,49585.00 70670.56,49609.00 70670.56,49609.00
             70670.56,49609.00 70671.09,49620.00 70671.09,49620.00
             70671.09,49620.00 70673.02,49632.00 70673.02,49632.00
             70673.02,49632.00 70673.02,49640.00 70673.02,49640.00
             70673.02,49640.00 70675.67,49649.00 70675.67,49649.00
             70675.67,49649.00 70676.91,49663.00 70676.91,49663.00
             70677.32,49669.41 70675.60,49672.90 70675.83,49676.00
             70676.16,49680.46 70679.77,49683.85 70683.00,49686.54
             70683.00,49686.54 70706.00,49703.17 70706.00,49703.17
             70706.00,49703.17 70731.00,49728.00 70731.00,49728.00
             70735.58,49732.58 70749.20,49745.70 70752.20,49750.00
             70756.74,49756.48 70761.70,49774.05 70761.96,49782.00
             70762.26,49791.38 70758.25,49794.68 70753.54,49802.00
             70753.54,49802.00 70742.00,49821.00 70742.00,49821.00
             70736.09,49829.83 70728.88,49840.88 70721.00,49847.82
             70712.21,49855.56 70702.79,49858.48 70691.09,49871.00
             70676.56,49886.55 70666.03,49913.65 70666.00,49935.00
             70665.98,49949.64 70665.27,49958.51 70662.75,49973.00
             70660.58,49985.49 70657.30,49998.29 70657.01,50011.00
             70657.01,50011.00 70657.91,50023.00 70657.91,50023.00
             70657.91,50023.00 70660.44,50051.00 70660.44,50051.00
             70660.44,50051.00 70664.39,50071.00 70664.39,50071.00
             70664.39,50071.00 70669.65,50102.00 70669.65,50102.00
             70672.81,50115.97 70678.83,50129.47 70679.00,50144.00
             70679.18,50159.92 70679.29,50154.49 70681.72,50169.00
             70681.72,50169.00 70683.90,50182.00 70683.90,50182.00
             70683.90,50182.00 70687.58,50195.00 70687.58,50195.00
             70687.58,50195.00 70693.41,50234.00 70693.41,50234.00
             70693.41,50234.00 70698.00,50261.00 70698.00,50261.00
             70698.00,50261.00 70698.00,50271.00 70698.00,50271.00
             70698.00,50271.00 70699.65,50281.00 70699.65,50281.00
             70699.50,50287.03 70693.24,50295.59 70690.31,50301.00
             70690.31,50301.00 70667.76,50345.00 70667.76,50345.00
             70667.76,50345.00 70657.69,50366.00 70657.69,50366.00
             70657.69,50366.00 70649.86,50379.00 70649.86,50379.00
             70649.86,50379.00 70618.60,50431.00 70618.60,50431.00
             70618.60,50431.00 70611.89,50444.00 70611.89,50444.00
             70606.99,50453.54 70601.68,50463.13 70595.66,50472.00
             70595.66,50472.00 70570.29,50505.00 70570.29,50505.00
             70561.38,50517.31 70562.36,50529.15 70556.64,50539.00
             70548.78,50552.52 70530.23,50554.98 70516.00,50555.00
             70516.00,50555.00 70334.00,50555.00 70334.00,50555.00
             70334.00,50555.00 70304.00,50553.00 70304.00,50553.00
             70304.00,50553.00 70281.00,50553.00 70281.00,50553.00
             70281.00,50553.00 70268.00,50552.00 70268.00,50552.00
             70268.00,50552.00 70249.00,50552.00 70249.00,50552.00
             70246.84,50552.00 70244.04,50551.89 70242.00,50552.56
             70235.89,50554.55 70227.25,50566.65 70223.43,50572.00
             70204.36,50598.68 70201.46,50617.24 70187.74,50644.00
             70187.74,50644.00 70174.42,50666.00 70174.42,50666.00
             70174.42,50666.00 70150.01,50706.00 70150.01,50706.00
             70150.01,50706.00 70141.22,50723.00 70141.22,50723.00
             70141.22,50723.00 70129.86,50743.00 70129.86,50743.00
             70129.86,50743.00 70121.68,50758.00 70121.68,50758.00
             70121.68,50758.00 70106.87,50778.00 70106.87,50778.00
             70098.94,50788.58 70091.12,50799.42 70081.96,50809.00
             70079.23,50811.86 70073.26,50818.13 70070.00,50819.84
             70065.40,50822.25 70059.97,50821.69 70055.00,50822.08
             70055.00,50822.08 70013.00,50822.08 70013.00,50822.08
             70013.00,50822.08 69985.00,50820.00 69985.00,50820.00
             69985.00,50820.00 69942.00,50820.00 69942.00,50820.00
             69942.00,50820.00 69925.00,50821.00 69925.00,50821.00
             69925.00,50821.00 69900.00,50821.00 69900.00,50821.00
             69900.00,50821.00 69883.00,50822.00 69883.00,50822.00
             69883.00,50822.00 69836.00,50823.22 69836.00,50823.22
             69836.00,50823.22 69826.00,50823.22 69826.00,50823.22
             69826.00,50823.22 69803.00,50822.00 69803.00,50822.00
             69803.00,50822.00 69786.00,50822.00 69786.00,50822.00
             69779.79,50821.92 69769.91,50820.91 69765.21,50816.61
             69760.99,50812.74 69756.06,50796.89 69751.99,50790.00
             69745.82,50779.58 69742.14,50778.04 69738.99,50773.00
             69738.99,50773.00 69730.22,50754.00 69730.22,50754.00
             69730.22,50754.00 69716.22,50728.00 69716.22,50728.00
             69716.22,50728.00 69703.57,50707.00 69703.57,50707.00
             69703.57,50707.00 69691.72,50690.00 69691.72,50690.00
             69691.72,50690.00 69683.14,50669.00 69683.14,50669.00
             69679.81,50661.46 69675.98,50655.72 69671.28,50649.00
             69671.28,50649.00 69650.44,50620.00 69650.44,50620.00
             69650.44,50620.00 69641.85,50607.00 69641.85,50607.00
             69631.84,50593.35 69623.60,50584.52 69615.48,50569.00
             69615.48,50569.00 69606.99,50547.00 69606.99,50547.00
             69606.99,50547.00 69600.22,50531.00 69600.22,50531.00
             69598.89,50526.68 69599.25,50525.13 69598.83,50521.00
             69597.26,50505.30 69600.50,50497.37 69600.96,50483.00
             69600.96,50483.00 69597.00,50446.00 69597.00,50446.00
             69596.74,50423.64 69595.43,50407.69 69605.75,50387.00
             69608.18,50382.14 69609.36,50379.15 69613.10,50375.00
             69613.10,50375.00 69633.00,50355.29 69633.00,50355.29
             69633.00,50355.29 69651.00,50340.00 69651.00,50340.00
             69657.56,50333.47 69663.22,50329.94 69659.54,50320.00
             69659.54,50320.00 69639.75,50276.00 69639.75,50276.00
             69636.14,50268.78 69630.22,50259.45 69627.75,50252.00
             69627.75,50252.00 69621.42,50230.00 69621.42,50230.00
             69621.42,50230.00 69616.96,50210.00 69616.96,50210.00
             69616.96,50210.00 69600.69,50168.00 69600.69,50168.00
             69594.92,50151.77 69597.93,50146.57 69585.55,50131.00
             69574.06,50116.55 69562.08,50106.84 69546.00,50097.86
             69546.00,50097.86 69523.00,50086.25 69523.00,50086.25
             69519.76,50084.63 69513.82,50081.94 69511.42,50079.47
             69508.35,50076.33 69503.81,50058.65 69504.09,50054.00
             69504.73,50043.63 69512.76,50034.44 69516.38,50025.00
             69516.38,50025.00 69520.89,50003.02 69520.89,50003.02
             69522.55,49998.90 69526.66,49996.33 69531.00,49995.86
             69535.21,49995.41 69539.23,49997.94 69543.00,49999.58
             69556.55,50005.47 69564.28,50015.05 69579.00,50005.45
             69581.07,50004.10 69583.77,50002.03 69585.07,49999.91
             69588.05,49995.07 69584.34,49991.78 69582.49,49985.00
             69580.17,49976.50 69576.91,49959.65 69577.00,49951.00
             69577.42,49914.61 69608.14,49887.99 69638.00,49872.32
             69650.52,49865.75 69667.06,49863.00 69676.54,49851.96
             69688.20,49838.37 69697.10,49809.32 69703.00,49792.00
             69703.00,49792.00 69729.98,49718.00 69729.98,49718.00
             69729.98,49718.00 69736.52,49689.00 69736.52,49689.00
             69739.94,49681.53 69744.33,49679.70 69749.83,49674.56
             69753.27,49671.35 69754.86,49668.73 69759.00,49665.53
             69766.92,49659.41 69776.29,49657.89 69786.00,49658.00
             69801.06,49658.18 69809.32,49665.51 69822.00,49669.90
             69829.04,49672.34 69834.77,49671.99 69842.00,49672.00
             69851.91,49672.02 69861.27,49674.34 69871.00,49675.72
             69871.00,49675.72 69885.00,49677.44 69885.00,49677.44
             69891.71,49678.52 69898.13,49681.13 69905.00,49679.95
             69911.82,49678.77 69922.21,49673.90 69929.00,49671.44
             69929.00,49671.44 69951.00,49664.60 69951.00,49664.60
             69951.00,49664.60 69968.00,49653.33 69968.00,49653.33
             69985.46,49641.56 70002.40,49627.23 70016.96,49612.00
             70016.96,49612.00 70028.42,49599.28 70028.42,49599.28
             70028.42,49599.28 70055.00,49573.00 70055.00,49573.00
             70060.25,49567.74 70066.35,49559.83 70072.00,49555.79
             70082.28,49548.42 70101.49,49542.97 70114.00,49540.61
             70119.76,49539.52 70132.52,49538.55 70136.70,49535.30
             70139.80,49532.89 70143.34,49526.56 70145.22,49523.00
             70148.14,49517.48 70152.45,49507.93 70154.08,49502.00
             70156.20,49494.28 70155.81,49488.83 70159.31,49481.00
             70168.20,49461.14 70177.65,49457.91 70196.00,49448.75
             70210.11,49441.71 70224.03,49435.82 70240.00,49436.00
             70251.43,49436.14 70260.89,49440.50 70270.00,49447.16
             70280.74,49455.00 70279.80,49459.98 70294.00,49460.00
             70294.00,49460.00 70344.00,49460.00 70344.00,49460.00
             70344.00,49460.00 70356.00,49460.95 70356.00,49460.95
             70356.00,49460.95 70369.00,49460.95 70369.00,49460.95
             70369.00,49460.95 70382.00,49459.96 70382.00,49459.96
             70382.00,49459.96 70394.00,49459.96 70394.00,49459.96
             70394.00,49459.96 70405.00,49459.00 70405.00,49459.00
             70405.00,49459.00 70430.00,49459.00 70430.00,49459.00
             70451.17,49458.97 70453.98,49451.98 70470.00,49440.72
             70487.26,49428.58 70496.87,49421.03 70518.00,49416.23 Z" />
</svg>
