<?xml version="1.0" encoding="UTF-8" standalone="no"?>
<!DOCTYPE svg PUBLIC "-//W3C//DTD SVG 20010904//EN"
              "http://www.w3.org/TR/2001/REC-SVG-20010904/DTD/svg10.dtd">

<svg xmlns="http://www.w3.org/2000/svg"
     width="7314.29mm" height="7314.29mm"
     viewBox="0 0 20480 20480">
  <path id="Cheru Isle"
        fill="none" stroke="black" stroke-width="1"
        d="M 17137.00,12413.00
           C 17135.13,12410.69 17133.56,12408.92 17132.65,12406.00
             17129.31,12395.33 17136.16,12387.93 17145.00,12383.13
             17148.55,12381.20 17152.33,12381.09 17155.61,12377.73
             17159.22,12374.04 17166.37,12358.26 17166.78,12353.00
             17166.98,12350.35 17166.36,12348.50 17166.17,12346.00
             17165.64,12339.06 17172.97,12331.19 17180.00,12331.11
             17185.74,12331.04 17187.51,12335.15 17198.00,12338.28
             17199.76,12338.80 17202.17,12339.49 17204.00,12339.49
             17209.20,12339.51 17222.69,12333.36 17226.99,12330.21
             17234.50,12324.70 17236.72,12316.65 17249.00,12308.39
             17255.40,12304.08 17261.43,12307.53 17266.79,12302.69
             17274.88,12295.39 17269.08,12286.22 17277.04,12282.07
             17280.03,12280.68 17282.25,12281.78 17285.00,12282.07
             17288.95,12281.84 17291.93,12279.93 17296.99,12282.07
             17303.02,12284.96 17301.16,12287.47 17309.00,12286.95
             17309.00,12286.95 17333.00,12286.95 17333.00,12286.95
             17335.06,12286.98 17339.42,12287.42 17341.08,12286.95
             17344.40,12284.84 17344.54,12280.55 17351.00,12279.21
             17357.84,12277.80 17365.06,12277.92 17372.00,12278.00
             17375.86,12278.05 17381.51,12278.55 17384.91,12280.45
             17390.11,12283.35 17390.68,12288.00 17392.40,12293.00
             17393.53,12296.28 17395.08,12298.43 17395.62,12302.00
             17395.62,12302.00 17395.02,12326.00 17395.02,12326.00
             17395.18,12330.79 17397.90,12338.10 17401.39,12341.45
             17404.94,12344.85 17417.03,12349.41 17417.49,12360.00
             17417.75,12366.19 17410.49,12373.52 17406.75,12378.00
             17404.81,12380.32 17396.56,12390.01 17395.73,12392.09
             17395.73,12392.09 17394.17,12404.00 17394.17,12404.00
             17393.79,12408.60 17394.82,12410.71 17394.71,12415.00
             17394.71,12415.00 17394.71,12426.00 17394.71,12426.00
             17395.14,12433.55 17395.83,12433.63 17397.18,12440.00
             17397.18,12440.00 17400.30,12458.00 17400.30,12458.00
             17401.08,12463.32 17403.21,12468.54 17402.82,12474.00
             17402.30,12481.07 17399.46,12490.99 17395.73,12497.00
             17395.73,12497.00 17388.57,12507.00 17388.57,12507.00
             17388.57,12507.00 17380.60,12528.00 17380.60,12528.00
             17378.19,12532.55 17375.39,12535.18 17372.19,12539.00
             17369.82,12541.83 17368.28,12544.86 17364.96,12546.72
             17357.21,12551.07 17348.24,12547.84 17340.00,12548.02
             17332.99,12548.16 17332.62,12550.06 17325.17,12549.90
             17316.64,12549.71 17317.23,12550.67 17310.00,12551.70
             17310.00,12551.70 17300.00,12552.41 17300.00,12552.41
             17295.74,12552.88 17292.92,12551.80 17289.62,12555.16
             17286.81,12558.02 17285.20,12561.77 17282.90,12565.00
             17282.90,12565.00 17271.67,12581.00 17271.67,12581.00
             17271.67,12581.00 17261.66,12598.00 17261.66,12598.00
             17255.19,12608.14 17254.84,12614.83 17241.00,12615.00
             17241.00,12615.00 17226.00,12615.00 17226.00,12615.00
             17226.00,12615.00 17217.00,12615.66 17217.00,12615.66
             17217.00,12615.66 17199.00,12614.34 17199.00,12614.34
             17199.00,12614.34 17190.00,12615.00 17190.00,12615.00
             17186.65,12615.04 17180.94,12615.37 17178.04,12613.83
             17174.35,12611.86 17174.09,12609.33 17172.10,12606.28
             17172.10,12606.28 17168.27,12600.96 17168.27,12600.96
             17168.27,12600.96 17160.57,12583.00 17160.57,12583.00
             17160.57,12583.00 17136.94,12549.00 17136.94,12549.00
             17135.73,12545.54 17136.90,12544.07 17136.94,12541.58
             17136.84,12539.31 17135.89,12538.15 17136.02,12532.00
             17136.02,12532.00 17137.12,12522.58 17137.12,12522.58
             17137.12,12522.58 17136.25,12513.00 17136.25,12513.00
             17136.64,12509.08 17139.25,12504.17 17142.30,12501.69
             17146.05,12498.65 17151.06,12497.49 17151.63,12491.00
             17152.02,12486.61 17147.86,12483.96 17144.88,12477.00
             17141.76,12469.72 17144.38,12462.94 17138.86,12455.04
             17133.60,12447.51 17119.36,12438.82 17117.14,12434.96
             17115.58,12432.26 17115.29,12429.02 17114.95,12426.00
             17114.32,12420.41 17113.41,12413.43 17121.02,12412.24
             17124.85,12411.64 17127.07,12413.39 17129.42,12413.64
             17129.42,12413.64 17137.00,12413.00 17137.00,12413.00 Z
           M 17140.00,12431.00
           C 17140.00,12431.00 17139.00,12431.00 17139.00,12431.00
             17139.00,12431.00 17140.00,12432.00 17140.00,12432.00
             17140.00,12432.00 17140.00,12431.00 17140.00,12431.00 Z" />
</svg>
