<?xml version="1.0" encoding="UTF-8" standalone="no"?>
<!DOCTYPE svg PUBLIC "-//W3C//DTD SVG 20010904//EN"
              "http://www.w3.org/TR/2001/REC-SVG-20010904/DTD/svg10.dtd">

<svg xmlns="http://www.w3.org/2000/svg"
     width="7314.29mm" height="7314.29mm"
     viewBox="0 0 20480 20480">
  <path id="Frostfeld2"
        fill="none" stroke="black" stroke-width="1"
        d="M 10246.00,3637.00
           C 10256.08,3634.14 10265.01,3639.49 10270.72,3635.40
             10274.37,3632.78 10283.77,3620.23 10287.12,3616.01
             10291.96,3609.91 10296.49,3606.41 10300.64,3599.00
             10305.33,3590.62 10302.07,3581.91 10312.01,3576.57
             10317.92,3573.40 10323.03,3576.69 10328.91,3574.77
             10335.69,3572.56 10344.01,3559.28 10352.96,3563.58
             10354.99,3564.56 10356.41,3565.94 10357.26,3568.04
             10358.02,3569.91 10357.95,3572.02 10358.00,3573.87
             10358.00,3573.87 10372.96,3573.87 10372.96,3573.87
             10378.06,3573.36 10385.33,3572.22 10389.96,3574.57
             10397.18,3578.24 10393.01,3583.32 10397.43,3588.72
             10397.43,3588.72 10402.62,3594.04 10402.62,3594.04
             10402.62,3594.04 10413.09,3610.00 10413.09,3610.00
             10418.12,3617.31 10418.70,3615.36 10422.91,3625.00
             10424.80,3629.34 10427.72,3636.33 10426.35,3641.00
             10426.35,3641.00 10414.54,3662.00 10414.54,3662.00
             10414.54,3662.00 10411.54,3669.00 10411.54,3669.00
             10411.54,3669.00 10400.96,3691.00 10400.96,3691.00
             10399.14,3694.84 10392.63,3703.50 10392.70,3706.96
             10392.79,3710.76 10398.69,3713.97 10403.07,3722.00
             10403.07,3722.00 10413.85,3739.00 10413.85,3739.00
             10415.69,3742.68 10415.16,3746.45 10419.19,3755.00
             10421.41,3759.72 10426.69,3768.11 10427.60,3773.00
             10428.76,3779.27 10424.67,3781.38 10421.21,3785.46
             10418.75,3788.36 10416.44,3792.54 10414.86,3796.00
             10414.86,3796.00 10401.59,3824.00 10401.59,3824.00
             10399.39,3828.59 10398.26,3833.28 10393.96,3836.49
             10389.38,3839.90 10379.69,3839.65 10374.00,3840.09
             10374.00,3840.09 10335.00,3843.00 10335.00,3843.00
             10326.51,3843.04 10323.18,3844.81 10315.00,3840.95
             10308.70,3837.97 10307.96,3835.03 10303.96,3830.04
             10300.40,3825.59 10296.49,3823.30 10293.91,3818.00
             10293.91,3818.00 10283.79,3790.00 10283.79,3790.00
             10281.00,3785.42 10277.86,3783.27 10274.00,3779.84
             10271.41,3777.52 10269.19,3775.09 10266.00,3773.57
             10260.55,3770.97 10254.09,3773.11 10248.00,3772.93
             10248.00,3772.93 10224.00,3772.93 10224.00,3772.93
             10217.62,3773.10 10211.12,3774.18 10205.00,3771.91
             10195.59,3768.41 10190.80,3758.01 10185.93,3750.00
             10185.93,3750.00 10179.69,3742.00 10179.69,3742.00
             10179.69,3742.00 10176.49,3736.00 10176.49,3736.00
             10170.38,3725.07 10171.95,3729.52 10167.03,3717.00
             10165.84,3713.96 10163.69,3711.12 10163.24,3708.00
             10162.14,3700.32 10168.16,3699.24 10171.11,3693.99
             10172.68,3691.18 10172.12,3688.31 10174.09,3685.10
             10175.64,3682.57 10178.27,3681.09 10180.10,3678.79
             10180.10,3678.79 10187.24,3666.00 10187.24,3666.00
             10189.24,3662.82 10196.00,3652.61 10196.69,3649.42
             10197.37,3646.30 10193.78,3640.07 10199.23,3635.70
             10205.94,3630.31 10214.47,3638.00 10220.96,3636.89
             10226.49,3635.95 10233.38,3620.09 10242.77,3628.43
             10243.92,3629.45 10244.70,3630.59 10245.26,3632.02
             10245.90,3633.63 10245.90,3635.31 10246.00,3637.00 Z" />
</svg>
