<?xml version="1.0" encoding="UTF-8" standalone="no"?>
<!DOCTYPE svg PUBLIC "-//W3C//DTD SVG 20010904//EN"
              "http://www.w3.org/TR/2001/REC-SVG-20010904/DTD/svg10.dtd">

<svg xmlns="http://www.w3.org/2000/svg"
     width="7314.29mm" height="7314.29mm"
     viewBox="0 0 20480 20480">
  <path id="Frostfeld0"
        fill="none" stroke="black" stroke-width="1"
        d="M 10893.00,2066.00
           C 10898.40,2054.93 10901.74,2053.80 10909.96,2045.92
             10914.31,2041.74 10918.01,2036.86 10924.90,2039.74
             10927.72,2040.92 10928.96,2043.59 10931.20,2045.51
             10931.20,2045.51 10937.42,2049.94 10937.42,2049.94
             10937.42,2049.94 10948.00,2059.79 10948.00,2059.79
             10956.53,2067.14 10960.62,2066.82 10963.83,2069.43
             10969.93,2074.38 10979.36,2087.83 10980.27,2088.69
             10983.15,2091.40 10985.91,2090.86 10988.77,2093.43
             10994.40,2098.47 10988.97,2103.57 10999.00,2109.79
             11003.94,2112.85 11009.06,2113.78 11014.00,2116.12
             11014.00,2116.12 11024.00,2122.29 11024.00,2122.29
             11024.00,2122.29 11045.00,2130.48 11045.00,2130.48
             11045.00,2130.48 11058.00,2133.28 11058.00,2133.28
             11058.00,2133.28 11070.00,2136.63 11070.00,2136.63
             11074.98,2137.59 11080.22,2137.60 11084.99,2139.70
             11088.50,2141.25 11091.89,2145.70 11095.01,2148.41
             11095.01,2148.41 11107.78,2159.46 11107.78,2159.46
             11110.65,2162.32 11110.88,2164.21 11113.27,2166.91
             11114.74,2168.56 11125.91,2176.78 11128.00,2178.00
             11131.38,2179.97 11133.53,2179.75 11137.00,2180.95
             11137.00,2180.95 11151.00,2186.69 11151.00,2186.69
             11151.00,2186.69 11158.00,2189.13 11158.00,2189.13
             11162.13,2190.88 11162.63,2192.45 11165.28,2194.04
             11165.28,2194.04 11176.17,2199.48 11176.17,2199.48
             11180.46,2201.16 11186.42,2200.32 11189.89,2202.74
             11193.43,2205.20 11193.88,2209.61 11196.14,2213.00
             11199.52,2218.05 11209.28,2226.29 11210.57,2231.00
             11212.07,2236.47 11209.33,2252.53 11221.00,2257.77
             11227.94,2260.89 11239.50,2255.23 11246.00,2252.31
             11249.01,2250.96 11256.68,2248.25 11259.83,2247.62
             11262.77,2247.03 11266.17,2247.34 11268.83,2245.83
             11271.81,2244.13 11273.50,2240.61 11276.17,2238.43
             11279.33,2235.86 11281.35,2236.44 11283.91,2234.99
             11288.51,2232.40 11289.27,2227.22 11301.00,2226.00
             11301.71,2213.28 11312.25,2203.62 11325.00,2209.00
             11322.44,2198.34 11327.52,2194.92 11337.00,2192.63
             11337.00,2192.63 11344.00,2190.37 11344.00,2190.37
             11344.00,2190.37 11358.86,2187.44 11358.86,2187.44
             11363.47,2185.23 11361.96,2179.04 11370.00,2178.25
             11373.08,2177.95 11375.28,2179.14 11378.00,2180.31
             11384.24,2183.00 11387.67,2185.68 11386.00,2193.00
             11386.00,2193.00 11412.00,2203.29 11412.00,2203.29
             11415.54,2204.77 11425.20,2209.10 11427.78,2211.43
             11427.78,2211.43 11439.37,2227.83 11439.37,2227.83
             11445.51,2235.08 11452.34,2239.29 11453.35,2240.41
             11457.44,2244.95 11453.55,2246.14 11463.00,2250.98
             11473.85,2256.54 11477.39,2254.75 11486.00,2256.51
             11486.00,2256.51 11497.00,2259.80 11497.00,2259.80
             11497.00,2259.80 11514.00,2264.26 11514.00,2264.26
             11521.15,2266.23 11529.02,2267.36 11534.89,2272.41
             11539.97,2276.78 11537.84,2279.58 11540.56,2283.72
             11540.56,2283.72 11547.49,2293.49 11547.49,2293.49
             11550.12,2296.34 11553.53,2297.43 11556.90,2302.09
             11559.48,2305.67 11563.77,2314.87 11567.13,2316.83
             11567.13,2316.83 11583.00,2320.85 11583.00,2320.85
             11583.00,2320.85 11606.00,2326.56 11606.00,2326.56
             11611.54,2327.43 11613.99,2326.45 11620.00,2328.17
             11620.00,2328.17 11631.00,2332.93 11631.00,2332.93
             11637.40,2335.40 11639.97,2334.72 11643.00,2335.89
             11649.69,2338.47 11652.51,2344.50 11654.00,2351.00
             11658.37,2349.95 11663.03,2349.47 11666.27,2353.39
             11668.35,2355.91 11667.52,2358.07 11671.14,2361.70
             11675.92,2366.48 11682.29,2368.50 11684.87,2370.54
             11687.67,2372.76 11688.59,2375.60 11691.13,2377.40
             11693.95,2379.41 11702.94,2379.57 11707.00,2380.59
             11720.17,2383.90 11719.52,2387.68 11728.00,2389.46
             11733.61,2390.97 11734.70,2388.81 11739.00,2389.46
             11745.79,2389.96 11746.85,2394.21 11747.00,2400.00
             11748.79,2399.43 11751.13,2398.56 11753.00,2398.51
             11767.49,2398.09 11760.04,2420.62 11764.85,2426.69
             11767.41,2429.91 11776.73,2429.69 11780.79,2432.73
             11784.08,2435.20 11787.83,2447.66 11789.00,2452.00
             11797.30,2448.47 11802.55,2449.94 11817.00,2443.53
             11824.45,2440.23 11821.27,2438.21 11832.00,2431.21
             11838.78,2426.79 11840.42,2428.88 11843.83,2426.98
             11849.14,2424.01 11855.02,2411.46 11863.00,2410.24
             11866.38,2409.73 11869.78,2411.16 11873.00,2412.00
             11872.39,2409.85 11871.89,2408.31 11872.24,2406.00
             11873.72,2396.26 11884.73,2398.95 11891.54,2399.20
             11899.60,2399.49 11899.51,2394.70 11910.20,2394.26
             11925.79,2393.62 11923.95,2394.87 11937.00,2395.62
             11937.00,2395.62 11948.09,2395.62 11948.09,2395.62
             11948.09,2395.62 11967.00,2399.44 11967.00,2399.44
             11972.10,2400.23 11975.14,2396.23 11980.89,2399.44
             11987.57,2403.20 11983.48,2410.83 11985.89,2416.91
             11985.89,2416.91 11991.17,2425.01 11991.17,2425.01
             11991.17,2425.01 12004.92,2450.74 12004.92,2450.74
             12007.67,2453.96 12011.61,2451.58 12015.00,2450.74
             12021.12,2449.42 12027.84,2448.90 12034.00,2450.00
             12031.50,2437.06 12044.63,2437.32 12058.00,2427.72
             12058.00,2427.72 12072.00,2418.33 12072.00,2418.33
             12072.00,2418.33 12085.96,2410.46 12085.96,2410.46
             12093.27,2405.45 12097.72,2398.98 12108.00,2397.99
             12110.78,2397.36 12113.24,2397.85 12116.00,2397.99
             12116.00,2397.99 12126.00,2397.99 12126.00,2397.99
             12136.17,2399.77 12133.57,2401.94 12148.00,2402.00
             12148.00,2402.00 12181.99,2399.39 12181.99,2399.39
             12181.99,2399.39 12199.00,2400.33 12199.00,2400.33
             12204.25,2400.67 12205.19,2398.80 12211.00,2400.33
             12217.91,2401.80 12225.20,2406.52 12232.00,2406.52
             12241.13,2406.52 12239.87,2409.80 12247.00,2413.28
             12252.22,2415.83 12273.61,2422.31 12279.00,2421.64
             12281.22,2421.36 12290.94,2416.71 12292.91,2415.31
             12297.00,2412.40 12295.69,2411.70 12302.00,2408.43
             12302.00,2408.43 12321.00,2399.79 12321.00,2399.79
             12321.00,2399.79 12349.00,2381.55 12349.00,2381.55
             12353.68,2379.17 12358.17,2379.61 12360.79,2377.99
             12364.01,2376.01 12364.35,2372.28 12368.10,2370.17
             12369.75,2369.25 12379.11,2367.28 12381.00,2367.49
             12381.00,2367.49 12387.00,2368.90 12387.00,2368.90
             12390.97,2369.23 12403.50,2362.55 12405.89,2375.00
             12405.89,2375.00 12405.89,2380.00 12405.89,2380.00
             12415.18,2380.54 12413.60,2383.76 12420.09,2388.85
             12423.03,2391.15 12427.78,2393.89 12429.55,2397.10
             12434.01,2405.23 12425.47,2411.15 12424.14,2416.00
             12423.29,2419.09 12425.23,2422.35 12426.64,2425.00
             12429.69,2430.71 12435.98,2439.83 12440.00,2445.09
             12441.53,2447.10 12443.80,2450.76 12446.17,2451.65
             12448.36,2452.48 12453.48,2450.83 12456.00,2450.44
             12456.00,2450.44 12465.00,2449.57 12465.00,2449.57
             12465.00,2449.57 12473.00,2444.90 12473.00,2444.90
             12473.00,2444.90 12481.00,2441.64 12481.00,2441.64
             12485.14,2439.91 12490.42,2437.04 12490.69,2432.00
             12490.98,2426.49 12487.89,2424.21 12485.78,2419.91
             12483.46,2415.16 12482.25,2410.26 12482.00,2405.00
             12482.00,2405.00 12508.00,2406.00 12508.00,2406.00
             12508.58,2398.59 12513.78,2392.00 12519.00,2387.00
             12519.59,2397.64 12523.41,2395.34 12526.55,2401.10
             12528.45,2404.59 12528.00,2410.05 12528.00,2414.00
             12528.00,2414.00 12536.41,2408.32 12536.41,2408.32
             12538.36,2406.19 12537.88,2403.69 12539.74,2401.22
             12541.31,2399.13 12550.40,2394.14 12553.00,2393.66
             12560.89,2392.19 12563.84,2399.48 12563.00,2405.84
             12563.00,2405.84 12573.00,2405.84 12573.00,2405.84
             12573.00,2405.84 12582.00,2401.00 12582.00,2401.00
             12579.30,2394.40 12570.51,2382.73 12571.26,2377.00
             12572.13,2370.43 12577.42,2369.93 12582.00,2367.38
             12582.00,2367.38 12605.00,2353.19 12605.00,2353.19
             12609.00,2351.24 12611.18,2349.41 12616.00,2350.28
             12618.39,2350.70 12624.30,2353.69 12627.00,2354.85
             12627.00,2354.85 12644.99,2362.81 12644.99,2362.81
             12649.10,2365.56 12650.09,2368.62 12654.04,2370.49
             12654.04,2370.49 12667.00,2375.39 12667.00,2375.39
             12671.08,2376.53 12674.24,2375.85 12677.14,2380.11
             12679.86,2384.82 12677.33,2388.31 12677.14,2390.58
             12677.14,2390.58 12682.65,2407.00 12682.65,2407.00
             12688.21,2417.24 12699.30,2423.39 12700.00,2436.00
             12700.00,2436.00 12714.91,2429.60 12714.91,2429.60
             12718.23,2427.74 12720.23,2424.99 12724.00,2423.70
             12724.00,2423.70 12732.00,2422.49 12732.00,2422.49
             12736.61,2421.53 12752.50,2416.83 12755.82,2414.30
             12760.21,2410.95 12760.41,2405.88 12768.29,2399.14
             12772.49,2395.54 12773.70,2396.76 12776.72,2395.00
             12776.72,2395.00 12782.02,2390.79 12782.02,2390.79
             12783.04,2390.05 12784.56,2389.26 12785.40,2388.32
             12788.05,2385.38 12786.35,2380.08 12791.21,2377.17
             12794.20,2375.39 12802.64,2375.75 12810.00,2372.67
             12810.00,2372.67 12836.00,2361.10 12836.00,2361.10
             12836.00,2361.10 12842.00,2357.21 12842.00,2357.21
             12842.00,2357.21 12851.00,2352.80 12851.00,2352.80
             12851.00,2352.80 12857.00,2349.14 12857.00,2349.14
             12861.63,2346.89 12866.59,2347.55 12868.82,2346.54
             12871.86,2345.18 12873.17,2341.63 12874.95,2339.04
             12874.95,2339.04 12883.53,2328.43 12883.53,2328.43
             12886.86,2325.30 12889.04,2326.78 12895.00,2323.10
             12902.00,2318.77 12900.37,2316.90 12904.22,2313.97
             12910.79,2308.95 12917.62,2310.50 12925.00,2310.55
             12925.00,2310.55 12955.00,2312.86 12955.00,2312.86
             12955.00,2312.86 12975.00,2312.86 12975.00,2312.86
             12975.00,2312.86 12984.00,2312.86 12984.00,2312.86
             12990.90,2312.57 12997.16,2314.08 13004.00,2311.44
             13008.12,2309.85 13009.51,2307.12 13013.00,2305.00
             13013.00,2305.00 13012.00,2335.00 13012.00,2335.00
             13018.49,2335.17 13023.50,2337.32 13022.74,2345.00
             13022.47,2347.66 13021.01,2349.62 13021.47,2352.00
             13021.73,2353.31 13026.62,2361.39 13027.68,2362.49
             13029.49,2364.37 13037.44,2368.56 13040.00,2368.69
             13050.83,2369.20 13055.16,2360.90 13061.09,2357.41
             13061.09,2357.41 13082.96,2349.47 13082.96,2349.47
             13088.07,2346.69 13091.45,2340.96 13094.32,2338.65
             13096.59,2336.82 13109.81,2333.34 13113.00,2333.00
             13113.87,2323.74 13122.26,2314.03 13131.00,2310.87
             13131.00,2310.87 13145.00,2308.54 13145.00,2308.54
             13145.00,2308.54 13167.00,2302.29 13167.00,2302.29
             13167.00,2302.29 13203.00,2294.74 13203.00,2294.74
             13209.71,2292.19 13210.56,2287.62 13215.10,2283.10
             13219.77,2278.46 13224.88,2277.53 13227.40,2274.47
             13229.77,2271.61 13228.37,2268.70 13231.43,2265.22
             13234.09,2262.20 13237.12,2262.40 13239.02,2259.70
             13240.50,2257.58 13241.07,2251.45 13244.64,2247.21
             13248.96,2242.07 13258.40,2240.89 13263.95,2237.03
             13269.04,2233.49 13268.17,2230.16 13270.99,2226.11
             13274.53,2221.02 13280.10,2221.34 13283.87,2219.35
             13288.36,2216.99 13287.79,2212.19 13294.00,2211.24
             13305.76,2209.45 13304.23,2222.78 13306.00,2230.00
             13308.30,2229.65 13322.83,2230.96 13325.00,2231.70
             13326.71,2232.28 13328.44,2233.32 13329.78,2234.53
             13333.88,2238.25 13334.05,2243.92 13339.10,2246.50
             13345.15,2249.59 13342.93,2247.26 13353.00,2253.49
             13353.00,2253.49 13354.00,2253.49 13354.00,2253.49
             13358.96,2255.52 13366.65,2252.59 13367.00,2266.00
             13370.25,2266.07 13380.40,2266.90 13383.00,2268.17
             13389.73,2271.46 13399.63,2282.00 13406.00,2286.30
             13411.31,2289.89 13418.36,2291.22 13424.00,2293.98
             13432.25,2298.02 13430.44,2301.35 13440.00,2301.59
             13447.90,2301.79 13449.82,2305.91 13450.00,2313.00
             13458.78,2313.01 13458.96,2313.01 13467.00,2316.70
             13468.77,2317.51 13471.14,2318.42 13472.59,2319.70
             13474.68,2321.56 13475.09,2323.87 13476.69,2325.42
             13480.23,2328.84 13485.77,2326.51 13487.00,2338.00
             13493.58,2339.26 13496.21,2341.17 13497.00,2348.00
             13504.36,2346.88 13507.05,2349.60 13510.00,2356.09
             13513.15,2355.24 13515.88,2354.57 13518.96,2356.09
             13523.73,2358.67 13523.57,2363.21 13531.00,2364.78
             13531.00,2364.78 13538.00,2365.63 13538.00,2365.63
             13538.00,2365.63 13545.00,2368.23 13545.00,2368.23
             13545.00,2368.23 13568.00,2374.79 13568.00,2374.79
             13572.70,2376.18 13577.78,2375.81 13581.89,2378.85
             13588.40,2383.67 13584.82,2388.50 13590.14,2393.24
             13596.39,2398.79 13607.62,2405.90 13610.00,2414.00
             13610.00,2414.00 13618.00,2415.32 13618.00,2415.32
             13618.00,2415.32 13627.96,2416.18 13627.96,2416.18
             13627.96,2416.18 13638.00,2424.18 13638.00,2424.18
             13638.00,2424.18 13654.00,2426.79 13654.00,2426.79
             13654.00,2426.79 13669.00,2435.68 13669.00,2435.68
             13669.00,2435.68 13686.26,2443.31 13686.26,2443.31
             13686.26,2443.31 13690.00,2463.00 13690.00,2463.00
             13690.00,2463.00 13703.00,2463.00 13703.00,2463.00
             13706.34,2470.17 13705.69,2473.60 13705.17,2481.00
             13704.57,2489.48 13709.22,2487.41 13711.35,2494.02
             13712.33,2497.07 13712.00,2506.31 13712.00,2510.00
             13718.46,2508.44 13723.90,2508.56 13726.19,2516.00
             13727.24,2519.39 13726.41,2521.48 13727.29,2524.00
             13728.51,2527.51 13732.17,2529.79 13731.38,2535.00
             13730.54,2540.51 13722.90,2548.93 13719.76,2554.00
             13719.76,2554.00 13712.64,2567.90 13712.64,2567.90
             13710.13,2571.82 13707.71,2571.95 13705.44,2576.04
             13705.44,2576.04 13701.82,2586.00 13701.82,2586.00
             13699.66,2590.78 13697.19,2593.13 13694.55,2597.17
             13689.59,2604.74 13694.02,2611.41 13690.40,2615.57
             13687.37,2619.06 13679.16,2618.04 13675.01,2617.41
             13675.01,2617.41 13661.00,2616.49 13661.00,2616.49
             13661.00,2616.49 13641.00,2614.00 13641.00,2614.00
             13641.65,2616.20 13642.16,2619.89 13643.60,2621.49
             13645.77,2623.93 13649.75,2623.85 13652.26,2627.22
             13655.04,2630.95 13654.02,2640.63 13653.00,2645.00
             13653.00,2645.00 13663.91,2646.74 13663.91,2646.74
             13668.75,2648.73 13674.00,2656.72 13671.65,2661.99
             13670.14,2665.35 13664.99,2669.00 13662.42,2672.43
             13658.86,2677.17 13658.53,2687.76 13645.00,2686.00
             13647.14,2695.59 13644.61,2701.73 13634.00,2702.00
             13634.21,2711.55 13637.01,2716.01 13626.00,2720.00
             13627.14,2729.01 13621.02,2732.25 13613.00,2730.00
             13611.06,2737.87 13612.01,2742.84 13602.00,2744.00
             13604.86,2755.78 13598.58,2761.71 13587.00,2762.00
             13587.00,2766.70 13587.45,2780.32 13586.32,2784.00
             13586.32,2784.00 13577.94,2800.00 13577.94,2800.00
             13575.99,2804.07 13573.81,2811.55 13570.61,2814.35
             13566.01,2818.39 13560.87,2815.93 13557.18,2818.02
             13553.43,2820.15 13552.00,2825.75 13546.91,2828.43
             13542.83,2830.58 13535.55,2831.13 13531.00,2832.52
             13526.71,2833.82 13525.40,2835.47 13522.00,2836.92
             13522.00,2836.92 13515.01,2839.00 13515.01,2839.00
             13511.76,2840.39 13509.72,2843.01 13506.93,2845.05
             13506.93,2845.05 13498.91,2850.97 13498.91,2850.97
             13498.91,2850.97 13492.00,2854.91 13492.00,2854.91
             13492.00,2854.91 13479.00,2865.28 13479.00,2865.28
             13475.17,2867.56 13473.25,2866.42 13470.47,2868.60
             13467.89,2870.62 13466.14,2874.87 13462.90,2877.73
             13457.65,2882.35 13446.68,2884.89 13440.00,2883.00
             13433.65,2894.81 13428.63,2891.69 13423.00,2893.19
             13417.10,2894.76 13417.81,2896.26 13409.00,2897.00
             13407.54,2905.98 13398.28,2907.09 13392.49,2913.37
             13389.99,2916.09 13389.34,2919.95 13384.00,2920.76
             13381.69,2921.11 13380.15,2920.61 13378.00,2920.00
             13375.32,2924.69 13367.90,2928.96 13363.00,2931.45
             13361.43,2932.25 13359.69,2932.76 13358.27,2933.84
             13354.76,2936.52 13355.06,2941.05 13347.00,2941.69
             13347.00,2941.69 13326.09,2940.89 13326.09,2940.89
             13326.09,2940.89 13308.00,2940.89 13308.00,2940.89
             13305.77,2941.00 13302.31,2940.78 13300.41,2942.02
             13298.75,2943.11 13297.88,2945.29 13297.00,2947.00
             13306.55,2950.45 13301.67,2956.34 13306.50,2961.20
             13306.50,2961.20 13310.58,2964.41 13310.58,2964.41
             13313.28,2966.89 13321.04,2976.74 13322.27,2980.00
             13322.89,2981.67 13323.07,2984.18 13323.27,2986.00
             13323.59,2989.09 13323.88,2991.13 13322.14,2993.96
             13320.24,2997.04 13317.57,2998.10 13315.49,3000.37
             13313.60,3002.45 13313.17,3004.36 13310.78,3006.59
             13308.33,3008.88 13306.48,3008.86 13304.53,3012.13
             13304.53,3012.13 13296.99,3032.79 13296.99,3032.79
             13294.73,3036.07 13289.86,3038.05 13287.56,3040.60
             13283.74,3044.82 13284.34,3049.90 13285.00,3055.00
             13285.00,3055.00 13273.00,3054.00 13273.00,3054.00
             13271.92,3056.69 13269.91,3061.34 13269.38,3064.00
             13268.70,3067.34 13269.39,3069.65 13267.86,3073.00
             13266.44,3076.13 13258.98,3085.46 13256.84,3091.00
             13254.48,3097.07 13255.80,3105.91 13252.99,3109.77
             13250.04,3113.85 13245.22,3113.19 13241.00,3112.00
             13241.22,3122.05 13244.54,3123.64 13237.67,3132.28
             13235.57,3134.91 13234.29,3136.83 13231.00,3138.11
             13227.24,3139.56 13220.30,3138.42 13214.00,3140.87
             13214.00,3140.87 13207.00,3144.75 13207.00,3144.75
             13203.59,3146.47 13191.58,3151.45 13188.00,3152.40
             13188.00,3152.40 13169.00,3155.77 13169.00,3155.77
             13169.00,3155.77 13162.00,3158.94 13162.00,3158.94
             13162.00,3158.94 13156.21,3161.00 13156.21,3161.00
             13156.21,3161.00 13146.02,3169.41 13146.02,3169.41
             13144.37,3171.91 13145.67,3175.28 13142.57,3178.77
             13139.39,3182.36 13136.12,3181.30 13133.69,3183.59
             13130.09,3187.00 13132.18,3190.93 13123.00,3192.00
             13122.91,3200.97 13119.72,3205.67 13110.00,3203.00
             13104.49,3213.00 13099.69,3208.46 13092.04,3213.09
             13087.45,3215.87 13086.81,3220.27 13080.00,3223.74
             13075.85,3225.85 13072.71,3225.63 13070.00,3226.54
             13070.00,3226.54 13060.00,3231.36 13060.00,3231.36
             13057.05,3232.21 13055.14,3231.71 13053.42,3232.10
             13056.42,3231.42 13040.31,3236.84 13043.13,3235.59
             13039.93,3237.00 13039.66,3239.90 13036.78,3242.44
             13033.81,3245.06 13029.76,3246.14 13026.00,3247.00
             13027.45,3252.28 13026.69,3256.99 13020.98,3259.26
             13018.41,3260.29 13015.80,3259.72 13013.17,3261.17
             13013.17,3261.17 13005.99,3267.26 13005.99,3267.26
             13002.51,3269.45 12997.97,3269.04 12994.00,3269.00
             12994.00,3269.00 12978.00,3267.01 12978.00,3267.01
             12978.00,3267.01 12966.00,3267.01 12966.00,3267.01
             12966.00,3267.01 12947.00,3267.82 12947.00,3267.82
             12947.00,3267.82 12925.00,3267.00 12925.00,3267.00
             12920.84,3266.97 12910.62,3266.50 12907.00,3265.11
             12904.00,3263.96 12902.51,3262.22 12900.00,3260.48
             12900.00,3260.48 12894.01,3257.01 12894.01,3257.01
             12888.84,3253.63 12887.33,3249.67 12883.91,3245.03
             12879.61,3239.21 12870.40,3240.77 12869.76,3232.00
             12869.36,3230.42 12869.76,3228.56 12869.76,3227.00
             12860.51,3230.05 12860.13,3227.92 12852.00,3223.30
             12852.00,3223.30 12845.09,3219.94 12845.09,3219.94
             12842.87,3218.63 12841.35,3216.85 12838.91,3215.89
             12838.91,3215.89 12830.00,3214.22 12830.00,3214.22
             12830.00,3214.22 12817.00,3209.63 12817.00,3209.63
             12817.00,3209.63 12806.00,3207.51 12806.00,3207.51
             12806.00,3207.51 12797.00,3203.66 12797.00,3203.66
             12794.60,3202.76 12792.31,3202.60 12790.05,3201.15
             12787.41,3199.44 12785.83,3196.64 12783.85,3194.28
             12780.42,3190.23 12779.28,3189.35 12778.00,3184.00
             12771.75,3183.48 12757.15,3179.20 12752.00,3176.01
             12747.81,3173.41 12744.25,3168.86 12739.00,3165.97
             12734.82,3163.66 12733.03,3164.40 12730.09,3163.28
             12730.09,3163.28 12716.09,3156.92 12716.09,3156.92
             12716.09,3156.92 12709.91,3152.31 12709.91,3152.31
             12709.91,3152.31 12703.04,3149.84 12703.04,3149.84
             12698.22,3147.13 12698.97,3143.58 12695.70,3140.80
             12692.61,3138.18 12687.74,3137.32 12685.04,3135.85
             12685.04,3135.85 12675.99,3128.93 12675.99,3128.93
             12662.18,3118.88 12646.42,3123.47 12646.00,3107.00
             12646.00,3107.00 12635.00,3102.65 12635.00,3102.65
             12635.00,3102.65 12626.41,3101.43 12626.41,3101.43
             12626.41,3101.43 12618.98,3095.09 12618.98,3095.09
             12618.98,3095.09 12606.00,3088.97 12606.00,3088.97
             12606.00,3088.97 12597.00,3083.76 12597.00,3083.76
             12597.00,3083.76 12586.09,3078.78 12586.09,3078.78
             12586.09,3078.78 12579.91,3074.00 12579.91,3074.00
             12579.91,3074.00 12571.63,3071.01 12571.63,3071.01
             12571.63,3071.01 12565.90,3064.95 12565.90,3064.95
             12565.90,3064.95 12553.78,3057.53 12553.78,3057.53
             12553.78,3057.53 12543.56,3045.04 12543.56,3045.04
             12543.56,3045.04 12533.37,3038.45 12533.37,3038.45
             12533.37,3038.45 12528.79,3033.49 12528.79,3033.49
             12528.79,3033.49 12513.00,3024.94 12513.00,3024.94
             12513.00,3024.94 12507.00,3026.00 12507.00,3026.00
             12498.79,3016.31 12491.82,3020.86 12485.00,3019.46
             12485.00,3019.46 12468.00,3013.93 12468.00,3013.93
             12468.00,3013.93 12462.00,3010.99 12462.00,3010.99
             12458.15,3009.53 12456.43,3010.42 12452.00,3008.08
             12442.62,3003.14 12433.71,2991.75 12428.00,2983.00
             12425.05,2978.47 12420.81,2970.88 12416.71,2967.65
             12411.44,2963.48 12403.24,2964.54 12397.00,2963.44
             12393.40,2962.80 12387.32,2961.16 12384.00,2959.69
             12381.02,2958.36 12377.33,2956.08 12374.00,2956.25
             12370.79,2956.41 12363.83,2961.46 12360.00,2963.21
             12354.24,2965.84 12350.65,2966.00 12345.00,2967.54
             12345.00,2967.54 12338.00,2970.00 12338.00,2970.00
             12340.09,2980.79 12333.57,2979.50 12331.88,2985.47
             12328.25,2998.28 12330.48,2997.53 12323.17,3010.00
             12321.40,3013.01 12320.44,3015.25 12317.82,3017.79
             12311.08,3024.32 12302.03,3023.35 12299.21,3024.59
             12295.88,3026.06 12295.03,3030.44 12287.00,3033.94
             12276.93,3038.34 12264.44,3039.12 12256.00,3044.33
             12248.00,3049.26 12246.91,3055.16 12241.82,3059.20
             12237.06,3062.98 12231.08,3063.23 12228.29,3064.98
             12224.99,3067.06 12222.74,3071.80 12218.96,3074.26
             12216.54,3075.84 12214.64,3075.84 12212.00,3076.51
             12212.00,3076.51 12205.00,3078.54 12205.00,3078.54
             12199.19,3079.36 12189.60,3077.82 12184.00,3076.00
             12177.75,3091.93 12166.79,3083.29 12155.00,3081.32
             12147.84,3080.13 12137.02,3082.22 12131.00,3079.32
             12123.71,3075.80 12120.28,3072.27 12115.37,3066.28
             12113.29,3063.74 12112.12,3063.12 12110.11,3059.99
             12110.11,3059.99 12106.20,3053.09 12106.20,3053.09
             12103.64,3049.48 12101.65,3049.10 12098.51,3044.00
             12096.20,3040.24 12090.41,3028.39 12087.94,3026.51
             12084.31,3023.73 12071.94,3023.39 12067.00,3023.33
             12060.15,3023.25 12056.41,3024.09 12054.00,3015.96
             12054.00,3015.96 12044.00,3015.96 12044.00,3015.96
             12044.00,3015.96 12029.72,3014.17 12029.72,3014.17
             12029.72,3014.17 12023.00,3015.56 12023.00,3015.56
             12019.92,3016.05 12015.96,3015.60 12013.53,3017.60
             12007.05,3022.92 12010.77,3029.43 12009.42,3036.04
             12009.01,3038.05 12006.24,3047.43 12005.26,3048.82
             12003.33,3051.55 11999.81,3052.83 11998.75,3056.09
             11998.08,3058.19 11998.56,3073.84 11991.94,3078.15
             11986.08,3081.96 11977.45,3078.02 11970.00,3081.89
             11970.00,3081.89 11954.00,3093.69 11954.00,3093.69
             11950.88,3095.21 11948.03,3094.75 11945.00,3095.89
             11945.00,3095.89 11932.09,3102.98 11932.09,3102.98
             11932.09,3102.98 11915.96,3116.15 11915.96,3116.15
             11911.36,3118.96 11907.06,3117.19 11904.31,3119.02
             11900.81,3121.36 11903.23,3125.70 11898.77,3129.30
             11895.63,3131.85 11892.70,3131.12 11889.72,3132.78
             11889.72,3132.78 11882.00,3138.15 11882.00,3138.15
             11882.00,3138.15 11870.00,3144.96 11870.00,3144.96
             11864.77,3147.61 11863.01,3146.50 11858.00,3147.21
             11858.00,3147.21 11847.00,3149.57 11847.00,3149.57
             11847.00,3149.57 11839.00,3150.19 11839.00,3150.19
             11834.35,3151.10 11831.08,3154.21 11827.00,3156.32
             11819.24,3160.35 11817.40,3159.69 11815.05,3160.72
             11810.40,3162.79 11810.95,3166.52 11805.71,3171.41
             11805.71,3171.41 11787.09,3186.17 11787.09,3186.17
             11787.09,3186.17 11773.79,3200.86 11773.79,3200.86
             11769.64,3203.48 11763.65,3202.77 11759.00,3203.09
             11748.73,3203.79 11747.87,3204.92 11739.00,3207.00
             11742.41,3210.49 11745.44,3213.46 11747.47,3218.00
             11749.22,3221.92 11750.33,3228.44 11753.49,3231.44
             11757.64,3235.39 11770.79,3238.38 11770.79,3247.00
             11770.79,3253.98 11764.84,3256.01 11759.00,3255.98
             11756.35,3255.97 11752.84,3255.14 11750.93,3257.40
             11748.77,3259.98 11749.33,3266.26 11744.78,3270.78
             11740.55,3274.97 11733.95,3274.30 11730.64,3279.19
             11728.61,3282.17 11730.16,3284.75 11729.74,3288.00
             11728.51,3297.55 11714.72,3300.68 11710.56,3304.72
             11706.89,3308.28 11709.70,3311.43 11703.00,3315.00
             11704.18,3320.40 11703.08,3325.89 11696.98,3327.57
             11694.05,3328.37 11690.80,3327.27 11688.27,3328.91
             11686.01,3330.37 11683.49,3336.41 11682.31,3339.00
             11680.79,3342.33 11677.94,3349.49 11677.46,3353.00
             11677.33,3357.06 11678.71,3363.23 11677.46,3366.98
             11674.57,3373.93 11667.59,3371.88 11665.91,3377.11
             11664.73,3380.75 11668.15,3389.32 11663.57,3394.82
             11658.06,3401.44 11647.71,3401.47 11640.00,3403.34
             11640.00,3403.34 11621.29,3408.65 11621.29,3408.65
             11615.99,3411.43 11614.72,3415.17 11611.79,3416.40
             11607.86,3418.05 11604.02,3415.32 11598.00,3418.00
             11595.21,3419.24 11587.43,3423.11 11585.64,3425.22
             11578.75,3433.37 11577.20,3448.99 11563.00,3445.00
             11558.67,3453.19 11551.07,3460.14 11543.00,3464.62
             11543.00,3464.62 11533.18,3468.99 11533.18,3468.99
             11529.31,3471.72 11528.41,3475.75 11523.00,3478.55
             11519.19,3480.52 11515.88,3479.93 11512.00,3482.56
             11505.83,3486.75 11502.73,3494.93 11496.00,3495.73
             11490.46,3496.39 11488.35,3492.34 11484.83,3489.56
             11481.43,3486.88 11479.14,3487.04 11476.09,3484.57
             11471.88,3481.16 11468.24,3474.22 11467.00,3469.00
             11463.89,3468.93 11451.27,3467.98 11449.04,3466.83
             11445.55,3465.02 11441.17,3459.06 11437.83,3456.41
             11434.46,3453.74 11432.20,3454.13 11429.21,3451.57
             11426.95,3449.65 11425.69,3446.74 11423.18,3445.45
             11420.66,3444.16 11417.14,3445.64 11410.00,3440.89
             11404.00,3436.90 11402.88,3432.70 11398.00,3430.66
             11394.85,3429.34 11392.96,3430.40 11388.00,3428.41
             11381.30,3425.73 11379.58,3423.12 11374.00,3419.88
             11374.00,3419.88 11362.00,3413.63 11362.00,3413.63
             11362.00,3413.63 11356.00,3409.40 11356.00,3409.40
             11349.48,3405.70 11336.48,3401.31 11336.42,3392.00
             11336.41,3389.56 11338.04,3386.28 11339.00,3384.10
             11336.67,3383.95 11331.96,3383.37 11330.04,3384.10
             11324.86,3386.41 11324.37,3393.81 11321.15,3399.00
             11321.15,3399.00 11314.38,3410.00 11314.38,3410.00
             11314.38,3410.00 11311.45,3417.00 11311.45,3417.00
             11308.07,3423.61 11304.06,3430.22 11299.43,3436.00
             11291.42,3445.97 11294.34,3447.98 11282.00,3448.00
             11282.00,3448.00 11242.00,3449.37 11242.00,3449.37
             11242.00,3449.37 11226.00,3450.00 11226.00,3450.00
             11216.37,3449.88 11215.48,3447.86 11211.10,3440.00
             11211.10,3440.00 11205.22,3430.00 11205.22,3430.00
             11205.22,3430.00 11196.62,3418.00 11196.62,3418.00
             11189.66,3405.87 11190.73,3405.19 11181.37,3393.00
             11179.68,3390.80 11178.15,3387.58 11175.79,3386.17
             11173.89,3385.04 11167.37,3384.23 11165.00,3384.25
             11165.00,3384.25 11157.00,3384.25 11157.00,3384.25
             11157.00,3384.25 11151.00,3383.46 11151.00,3383.46
             11151.00,3383.46 11129.00,3383.46 11129.00,3383.46
             11122.66,3383.51 11110.53,3381.39 11105.37,3384.93
             11097.88,3390.08 11097.95,3401.26 11088.00,3399.76
             11082.86,3398.98 11079.32,3393.68 11076.05,3390.00
             11076.05,3390.00 11065.41,3378.58 11065.41,3378.58
             11065.41,3378.58 11061.51,3373.03 11061.51,3373.03
             11060.24,3371.42 11053.42,3365.03 11051.72,3363.81
             11048.96,3361.83 11038.71,3358.29 11035.00,3357.00
             11035.00,3357.00 11026.00,3353.63 11026.00,3353.63
             11026.00,3353.63 11019.00,3352.09 11019.00,3352.09
             11019.00,3352.09 11005.00,3347.47 11005.00,3347.47
             10997.93,3345.73 10989.12,3344.38 10983.10,3340.04
             10976.51,3335.27 10978.82,3329.42 10977.40,3326.22
             10975.39,3321.69 10968.90,3323.34 10968.14,3315.04
             10967.83,3311.70 10968.74,3310.24 10967.39,3305.99
             10967.39,3305.99 10960.35,3292.00 10960.35,3292.00
             10958.43,3287.48 10955.84,3280.90 10951.73,3277.85
             10946.53,3273.99 10939.84,3275.74 10934.00,3275.63
             10934.00,3275.63 10904.00,3276.24 10904.00,3276.24
             10904.00,3276.24 10897.00,3276.24 10897.00,3276.24
             10897.00,3276.24 10890.00,3275.61 10890.00,3275.61
             10880.25,3275.22 10875.43,3276.38 10866.00,3271.48
             10856.67,3266.62 10851.50,3258.00 10849.63,3256.64
             10846.67,3254.48 10844.06,3256.35 10840.04,3254.42
             10835.46,3252.20 10835.63,3248.63 10833.44,3246.59
             10831.11,3244.43 10827.75,3245.22 10824.21,3242.35
             10820.23,3239.12 10818.62,3231.72 10813.83,3229.02
             10811.09,3227.48 10808.19,3228.47 10804.00,3226.86
             10799.84,3225.25 10797.72,3222.27 10794.00,3221.46
             10791.55,3221.14 10786.65,3222.43 10782.99,3221.46
             10776.71,3219.42 10776.63,3214.22 10770.00,3213.80
             10767.80,3213.66 10766.37,3214.16 10764.02,3213.26
             10760.69,3211.99 10752.70,3202.14 10749.72,3199.06
             10743.79,3192.94 10739.79,3195.76 10736.09,3189.90
             10733.32,3185.52 10732.46,3175.27 10731.83,3170.00
             10731.83,3170.00 10727.46,3153.00 10727.46,3153.00
             10726.76,3149.02 10727.26,3143.73 10725.85,3140.11
             10724.00,3135.33 10720.34,3136.81 10715.33,3131.70
             10708.41,3124.65 10706.05,3114.54 10706.00,3105.00
             10706.00,3105.00 10704.86,3074.99 10704.86,3074.99
             10704.86,3074.99 10702.00,3054.00 10702.00,3054.00
             10701.81,3037.22 10702.78,3044.01 10704.72,3031.01
             10704.72,3031.01 10705.69,3020.00 10705.69,3020.00
             10705.69,3020.00 10708.67,3010.00 10708.67,3010.00
             10708.67,3010.00 10710.18,2992.00 10710.18,2992.00
             10710.18,2992.00 10714.85,2975.00 10714.85,2975.00
             10714.85,2975.00 10718.55,2960.00 10718.55,2960.00
             10721.30,2952.79 10726.76,2942.78 10727.20,2935.16
             10727.48,2930.40 10722.07,2918.20 10720.63,2913.00
             10718.87,2906.62 10721.45,2904.65 10715.39,2897.09
             10708.82,2888.89 10697.51,2888.34 10688.00,2886.54
             10685.38,2886.05 10680.29,2884.46 10678.00,2884.57
             10673.44,2884.78 10671.37,2888.42 10663.00,2887.91
             10659.16,2887.67 10645.86,2885.56 10643.23,2883.35
             10639.34,2880.10 10640.77,2876.50 10636.86,2873.94
             10632.38,2871.01 10629.06,2874.38 10623.01,2870.66
             10619.06,2868.22 10616.32,2864.25 10612.99,2861.09
             10612.99,2861.09 10596.00,2847.38 10596.00,2847.38
             10594.12,2846.04 10586.12,2841.93 10584.00,2841.34
             10581.06,2840.51 10578.35,2841.27 10575.06,2839.15
             10570.16,2835.99 10571.97,2832.31 10565.00,2829.92
             10565.00,2829.92 10552.00,2827.70 10552.00,2827.70
             10546.65,2826.11 10544.46,2823.26 10540.00,2820.61
             10537.12,2818.89 10533.67,2818.14 10531.28,2815.73
             10527.10,2811.53 10528.93,2807.98 10527.49,2803.83
             10527.49,2803.83 10523.93,2796.00 10523.93,2796.00
             10521.57,2790.00 10519.14,2779.46 10519.00,2773.00
             10517.54,2772.69 10516.47,2772.61 10515.11,2771.83
             10506.66,2766.98 10515.49,2758.68 10509.44,2752.31
             10507.43,2750.19 10504.44,2749.75 10502.00,2748.31
             10498.20,2746.07 10491.10,2740.42 10488.39,2737.00
             10479.44,2725.72 10483.36,2717.03 10481.63,2708.00
             10479.52,2697.01 10473.58,2687.84 10474.04,2676.00
             10474.04,2676.00 10476.96,2657.00 10476.96,2657.00
             10477.14,2652.98 10476.08,2649.96 10476.96,2646.00
             10478.17,2641.72 10480.21,2639.20 10481.32,2636.00
             10482.85,2631.58 10484.97,2618.78 10485.00,2614.00
             10485.03,2606.98 10485.24,2604.87 10487.31,2598.04
             10487.31,2598.04 10488.86,2593.58 10488.86,2593.58
             10489.43,2590.24 10487.69,2587.62 10488.86,2584.00
             10490.61,2579.08 10495.18,2578.03 10497.23,2572.00
             10498.44,2568.45 10497.74,2564.66 10498.18,2561.00
             10498.18,2561.00 10500.83,2549.00 10500.83,2549.00
             10501.26,2545.00 10500.47,2541.56 10503.43,2538.10
             10510.89,2529.83 10517.32,2541.49 10523.83,2538.10
             10526.15,2536.72 10530.44,2531.24 10530.76,2528.58
             10531.03,2526.33 10528.65,2521.36 10531.74,2517.22
             10537.08,2510.05 10547.60,2515.69 10553.00,2516.10
             10553.00,2516.10 10561.00,2516.10 10561.00,2516.10
             10561.00,2516.10 10583.00,2517.29 10583.00,2517.29
             10586.69,2517.77 10592.81,2519.68 10596.00,2519.30
             10601.21,2518.68 10611.97,2512.93 10613.85,2507.91
             10615.40,2503.80 10614.59,2499.22 10615.60,2495.00
             10615.60,2495.00 10618.34,2485.00 10618.34,2485.00
             10618.34,2485.00 10621.00,2469.00 10621.00,2469.00
             10614.20,2468.85 10605.10,2465.84 10608.18,2457.01
             10609.30,2453.81 10612.82,2450.83 10615.00,2448.00
             10605.80,2445.27 10606.40,2439.73 10606.96,2432.00
             10606.96,2432.00 10606.96,2422.00 10606.96,2422.00
             10607.02,2406.86 10610.43,2391.94 10612.57,2377.00
             10612.57,2377.00 10613.21,2365.00 10613.21,2365.00
             10613.21,2365.00 10614.90,2357.00 10614.90,2357.00
             10614.90,2357.00 10615.46,2345.00 10615.46,2345.00
             10615.46,2345.00 10614.10,2339.00 10614.10,2339.00
             10614.10,2339.00 10614.10,2327.00 10614.10,2327.00
             10614.10,2327.00 10613.32,2313.00 10613.32,2313.00
             10613.32,2313.00 10613.32,2304.00 10613.32,2304.00
             10613.32,2304.00 10611.00,2297.00 10611.00,2297.00
             10605.66,2297.80 10600.84,2295.84 10599.66,2290.00
             10598.64,2284.93 10602.82,2281.75 10605.31,2278.00
             10607.47,2274.75 10607.61,2272.44 10611.11,2269.99
             10613.72,2268.16 10617.34,2267.53 10619.40,2264.78
             10621.92,2261.39 10618.89,2249.20 10621.18,2243.02
             10623.45,2236.90 10627.96,2237.86 10630.42,2235.42
             10633.54,2232.31 10635.19,2221.45 10635.53,2217.00
             10635.98,2211.36 10633.26,2209.57 10635.02,2205.01
             10638.17,2196.90 10647.49,2197.49 10652.00,2205.01
             10659.56,2201.19 10659.17,2202.56 10665.00,2200.12
             10668.92,2198.49 10672.81,2195.85 10677.00,2195.21
             10681.59,2194.51 10689.16,2195.77 10692.96,2194.51
             10698.07,2192.82 10697.81,2188.88 10703.02,2187.43
             10709.52,2185.62 10710.72,2189.77 10719.00,2185.45
             10729.86,2179.80 10728.32,2175.60 10730.28,2171.00
             10730.28,2171.00 10735.53,2161.04 10735.53,2161.04
             10738.43,2155.95 10743.98,2154.20 10747.69,2149.83
             10750.71,2146.28 10749.90,2143.25 10753.23,2140.74
             10755.84,2138.77 10758.58,2139.34 10760.83,2138.41
             10763.52,2137.29 10764.96,2134.79 10768.01,2133.32
             10768.01,2133.32 10780.96,2129.90 10780.96,2129.90
             10785.70,2127.92 10785.16,2125.62 10789.10,2123.65
             10789.10,2123.65 10806.00,2118.30 10806.00,2118.30
             10809.39,2117.07 10818.87,2111.64 10822.00,2109.53
             10822.00,2109.53 10849.00,2089.96 10849.00,2089.96
             10849.00,2089.96 10858.37,2080.37 10858.37,2080.37
             10858.37,2080.37 10863.51,2076.37 10863.51,2076.37
             10865.92,2073.95 10866.06,2071.24 10869.21,2069.01
             10873.36,2066.06 10888.11,2064.84 10893.00,2066.00 Z
           M 11326.00,2209.00
           C 11326.00,2209.00 11325.00,2209.00 11325.00,2209.00
             11325.00,2209.00 11326.00,2210.00 11326.00,2210.00
             11326.00,2210.00 11326.00,2209.00 11326.00,2209.00 Z
           M 13133.00,3181.00
           C 13133.00,3181.00 13132.00,3181.00 13132.00,3181.00
             13132.00,3181.00 13133.00,3182.00 13133.00,3182.00
             13133.00,3182.00 13133.00,3181.00 13133.00,3181.00 Z" />
</svg>
