<?xml version="1.0" encoding="UTF-8" standalone="no"?>
<!DOCTYPE svg PUBLIC "-//W3C//DTD SVG 20010904//EN"
              "http://www.w3.org/TR/2001/REC-SVG-20010904/DTD/svg10.dtd">

<svg xmlns="http://www.w3.org/2000/svg"
     width="7314.29mm" height="7314.29mm"
     viewBox="0 0 20480 20480">
  <path id="Frostfeld3"
        fill="none" stroke="black" stroke-width="1"
        d="M 10615.00,3849.00
           C 10607.65,3848.57 10602.28,3843.83 10603.23,3836.00
             10603.60,3832.90 10605.33,3830.03 10606.22,3827.00
             10606.22,3827.00 10608.48,3818.00 10608.48,3818.00
             10612.65,3807.48 10623.59,3795.09 10630.48,3786.00
             10634.49,3780.70 10635.77,3776.12 10641.18,3770.00
             10641.18,3770.00 10652.45,3759.79 10652.45,3759.79
             10656.03,3755.13 10653.16,3746.29 10659.22,3740.86
             10669.30,3731.86 10672.92,3736.08 10680.00,3731.20
             10686.70,3726.57 10695.58,3710.73 10704.00,3711.71
             10709.10,3712.31 10710.44,3715.93 10713.37,3718.09
             10715.56,3719.70 10716.46,3719.27 10719.72,3722.21
             10722.29,3724.53 10724.82,3728.34 10728.91,3727.16
             10731.63,3726.36 10733.66,3723.01 10737.01,3720.69
             10741.66,3717.48 10754.74,3710.13 10760.00,3707.88
             10774.86,3701.52 10794.16,3702.67 10810.00,3703.36
             10810.00,3703.36 10818.00,3703.90 10818.00,3703.90
             10824.53,3703.58 10835.92,3699.52 10842.98,3701.43
             10847.78,3702.73 10849.29,3707.50 10852.33,3710.91
             10855.53,3714.51 10865.53,3721.78 10869.84,3724.37
             10875.35,3727.67 10878.38,3724.50 10882.57,3729.23
             10885.74,3732.80 10884.48,3736.32 10885.16,3739.00
             10886.24,3743.24 10890.50,3747.14 10895.00,3746.76
             10898.61,3746.45 10906.20,3742.85 10910.00,3741.42
             10915.46,3739.37 10916.07,3739.79 10921.00,3738.63
             10921.00,3738.63 10927.00,3736.63 10927.00,3736.63
             10931.54,3735.34 10936.85,3736.04 10940.56,3732.69
             10948.43,3725.60 10949.83,3711.09 10961.00,3703.64
             10969.70,3697.83 10980.60,3701.42 10986.00,3700.78
             10992.37,3700.02 11008.24,3692.34 11021.03,3692.07
             11021.03,3692.07 11034.00,3692.07 11034.00,3692.07
             11034.00,3692.07 11052.00,3693.09 11052.00,3693.09
             11054.47,3693.03 11056.46,3692.20 11059.00,3693.09
             11066.27,3695.22 11068.50,3706.84 11071.86,3713.00
             11071.86,3713.00 11084.97,3736.00 11084.97,3736.00
             11084.97,3736.00 11088.54,3745.00 11088.54,3745.00
             11090.36,3748.86 11095.79,3757.32 11098.34,3761.00
             11100.13,3763.57 11103.50,3768.49 11106.17,3769.98
             11108.47,3771.26 11115.23,3771.36 11118.00,3771.26
             11121.10,3771.14 11124.99,3770.51 11127.79,3772.17
             11132.56,3775.00 11131.63,3780.46 11132.18,3785.00
             11132.65,3788.78 11134.71,3794.74 11136.64,3798.00
             11138.97,3801.92 11148.04,3819.40 11148.94,3823.00
             11150.07,3827.46 11149.24,3828.93 11149.46,3833.00
             11149.76,3836.72 11150.34,3838.09 11149.46,3842.00
             11146.65,3853.53 11141.81,3855.65 11140.06,3862.00
             11137.79,3870.20 11139.47,3875.22 11138.35,3879.00
             11136.19,3886.28 11125.22,3901.82 11120.26,3907.96
             11120.26,3907.96 11101.99,3923.87 11101.99,3923.87
             11098.85,3926.33 11095.63,3927.29 11093.80,3931.05
             11092.02,3934.73 11092.08,3939.09 11090.96,3943.00
             11090.96,3943.00 11083.44,3967.00 11083.44,3967.00
             11082.48,3972.92 11083.38,3981.31 11077.89,3985.16
             11072.33,3989.07 11048.76,3996.60 11041.09,3999.22
             11036.58,4000.75 11034.53,4004.93 11029.00,4004.29
             11023.69,4003.67 11020.33,3998.62 11016.00,3996.00
             11011.42,3993.23 11006.21,3992.90 11001.00,3993.20
             11001.00,3993.20 10994.00,3993.20 10994.00,3993.20
             10987.81,3993.11 10973.73,3988.87 10969.10,3984.67
             10960.89,3977.23 10956.25,3956.40 10949.37,3947.01
             10938.69,3932.47 10923.11,3935.29 10908.00,3930.96
             10908.00,3930.96 10887.04,3924.69 10887.04,3924.69
             10882.14,3924.81 10877.57,3934.34 10874.96,3938.00
             10874.96,3938.00 10858.07,3963.00 10858.07,3963.00
             10856.29,3967.37 10856.84,3979.91 10848.82,3986.57
             10841.47,3992.67 10831.49,3985.14 10824.00,3983.52
             10824.00,3983.52 10779.97,3980.66 10779.97,3980.66
             10773.43,3980.68 10763.97,3981.45 10758.00,3980.00
             10751.84,3990.14 10743.62,3983.34 10737.73,3977.42
             10734.63,3974.31 10730.89,3969.85 10727.00,3967.96
             10722.74,3965.89 10720.92,3967.40 10715.01,3962.95
             10706.76,3956.73 10707.10,3952.06 10701.90,3947.48
             10692.53,3939.22 10675.01,3936.51 10663.00,3933.49
             10657.00,3931.98 10651.60,3928.82 10646.00,3926.31
             10643.19,3925.06 10638.29,3923.84 10636.21,3922.28
             10626.48,3914.99 10628.07,3896.94 10626.08,3886.00
             10624.47,3877.17 10621.28,3878.11 10618.89,3872.00
             10618.89,3872.00 10615.00,3849.00 10615.00,3849.00 Z" />
</svg>
