<?xml version="1.0" encoding="UTF-8" standalone="no"?>
<!DOCTYPE svg PUBLIC "-//W3C//DTD SVG 20010904//EN"
              "http://www.w3.org/TR/2001/REC-SVG-20010904/DTD/svg10.dtd">

<svg xmlns="http://www.w3.org/2000/svg"
     width="1137.78in" height="1137.78in"
     viewBox="0 0 81920 81920">
  <path id="Selection"
        fill="none" stroke="black" stroke-width="1"
        d="M 43598.00,14730.00
           C 43594.13,14743.52 43584.85,14743.88 43578.34,14759.00
             43578.34,14759.00 43573.60,14774.00 43573.60,14774.00
             43573.60,14774.00 43560.45,14799.00 43560.45,14799.00
             43560.45,14799.00 43546.73,14835.00 43546.73,14835.00
             43546.73,14835.00 43527.58,14870.00 43527.58,14870.00
             43527.58,14870.00 43519.37,14884.00 43519.37,14884.00
             43519.37,14884.00 43511.31,14903.00 43511.31,14903.00
             43511.31,14903.00 43501.69,14932.00 43501.69,14932.00
             43501.69,14932.00 43486.05,14957.00 43486.05,14957.00
             43481.69,14963.96 43477.26,14973.49 43470.00,14977.64
             43461.95,14982.23 43455.03,14977.63 43447.00,14975.42
             43439.09,14973.25 43425.27,14972.01 43417.00,14972.00
             43417.00,14972.00 43401.00,14972.00 43401.00,14972.00
             43401.00,14972.00 43382.00,14970.04 43382.00,14970.04
             43382.00,14970.04 43371.00,14970.04 43371.00,14970.04
             43371.00,14970.04 43361.00,14969.00 43361.00,14969.00
             43361.00,14969.00 43330.00,14967.00 43330.00,14967.00
             43330.00,14967.00 43325.00,14967.00 43325.00,14967.00
             43310.36,14966.82 43296.19,14959.03 43279.00,14959.00
             43279.00,14959.00 43255.00,14959.00 43255.00,14959.00
             43255.00,14959.00 43235.00,14960.00 43235.00,14960.00
             43235.00,14960.00 43221.00,14961.00 43221.00,14961.00
             43221.00,14961.00 43196.00,14961.00 43196.00,14961.00
             43196.00,14961.00 43166.00,14964.71 43166.00,14964.71
             43166.00,14964.71 43156.00,14965.29 43156.00,14965.29
             43142.42,14966.96 43128.76,14972.84 43115.00,14973.00
             43097.29,14973.20 43076.31,14974.32 43060.00,14966.68
             43047.67,14960.90 43041.97,14952.21 43032.99,14943.00
             43032.99,14943.00 43011.00,14921.09 43011.00,14921.09
             43011.00,14921.09 42998.00,14909.83 42998.00,14909.83
             42998.00,14909.83 42985.83,14897.56 42985.83,14897.56
             42980.55,14893.25 42973.35,14893.51 42967.00,14892.12
             42955.16,14889.51 42946.94,14887.01 42937.00,14879.62
             42918.00,14865.51 42899.15,14839.31 42881.00,14822.04
             42874.19,14815.56 42869.40,14813.79 42862.00,14808.92
             42862.00,14808.92 42844.00,14796.09 42844.00,14796.09
             42834.08,14789.83 42820.17,14790.06 42809.00,14785.55
             42809.00,14785.55 42786.00,14774.13 42786.00,14774.13
             42782.53,14772.15 42776.56,14767.85 42773.00,14766.94
             42773.00,14766.94 42745.00,14764.68 42745.00,14764.68
             42745.00,14764.68 42692.00,14749.88 42692.00,14749.88
             42665.31,14742.87 42648.32,14740.99 42623.00,14727.31
             42615.91,14723.48 42611.20,14721.67 42605.00,14715.91
             42591.34,14703.19 42584.78,14686.00 42578.42,14669.00
             42574.11,14657.46 42570.02,14644.39 42570.00,14632.00
             42570.00,14632.00 42570.00,14591.00 42570.00,14591.00
             42569.92,14584.54 42568.57,14571.85 42566.12,14566.00
             42556.77,14543.60 42539.04,14529.02 42539.00,14503.00
             42538.97,14481.40 42541.62,14457.61 42528.25,14439.00
             42523.52,14432.41 42506.14,14412.79 42500.00,14408.70
             42495.54,14405.72 42488.08,14404.54 42483.00,14402.54
             42471.29,14397.91 42463.15,14388.91 42463.16,14376.00
             42462.98,14373.58 42462.93,14370.34 42463.16,14368.00
             42463.16,14368.00 42474.58,14335.00 42474.58,14335.00
             42480.50,14319.15 42486.62,14302.27 42495.86,14288.00
             42495.86,14288.00 42516.44,14260.00 42516.44,14260.00
             42516.44,14260.00 42530.72,14244.00 42530.72,14244.00
             42530.72,14244.00 42546.65,14223.00 42546.65,14223.00
             42546.65,14223.00 42557.92,14208.00 42557.92,14208.00
             42557.92,14208.00 42588.74,14151.00 42588.74,14151.00
             42596.94,14135.11 42599.26,14127.44 42611.28,14113.00
             42618.75,14104.03 42624.30,14098.65 42634.00,14092.03
             42634.00,14092.03 42661.96,14073.67 42661.96,14073.67
             42667.21,14069.12 42669.13,14063.83 42672.42,14058.00
             42676.50,14050.79 42687.30,14033.13 42688.87,14026.00
             42690.15,14020.20 42686.81,14015.41 42685.21,14010.00
             42683.77,14005.14 42683.94,14000.99 42684.00,13996.00
             42684.21,13978.68 42699.63,13965.44 42714.00,13958.25
             42728.26,13951.12 42751.64,13942.25 42767.00,13937.34
             42774.73,13934.87 42788.99,13932.56 42795.00,13928.35
             42799.98,13924.87 42803.84,13919.39 42808.04,13915.00
             42808.04,13915.00 42827.79,13895.00 42827.79,13895.00
             42827.79,13895.00 42834.21,13886.39 42834.21,13886.39
             42834.21,13886.39 42858.00,13872.65 42858.00,13872.65
             42858.00,13872.65 42876.00,13859.01 42876.00,13859.01
             42879.11,13857.75 42883.63,13857.96 42887.00,13858.00
             42898.60,13858.16 42903.24,13865.36 42912.00,13871.71
             42912.00,13871.71 42931.00,13885.32 42931.00,13885.32
             42931.00,13885.32 42944.00,13897.62 42944.00,13897.62
             42952.67,13904.56 42964.90,13908.87 42976.00,13909.00
             42990.96,13909.17 43006.41,13904.33 43018.00,13894.68
             43018.00,13894.68 43037.09,13875.97 43037.09,13875.97
             43044.43,13870.90 43056.78,13870.68 43063.00,13867.58
             43063.00,13867.58 43077.00,13858.09 43077.00,13858.09
             43077.00,13858.09 43097.00,13847.69 43097.00,13847.69
             43101.49,13845.26 43110.43,13839.98 43115.00,13838.63
             43115.00,13838.63 43163.00,13832.56 43163.00,13832.56
             43163.00,13832.56 43197.00,13825.52 43197.00,13825.52
             43207.70,13822.77 43207.36,13820.02 43220.00,13820.00
             43220.00,13820.00 43236.00,13820.00 43236.00,13820.00
             43236.00,13820.00 43252.00,13821.00 43252.00,13821.00
             43252.00,13821.00 43306.00,13821.00 43306.00,13821.00
             43306.00,13821.00 43323.00,13822.00 43323.00,13822.00
             43323.00,13822.00 43345.00,13822.00 43345.00,13822.00
             43345.00,13822.00 43359.00,13823.00 43359.00,13823.00
             43359.00,13823.00 43366.00,13823.00 43366.00,13823.00
             43386.28,13822.97 43408.18,13812.96 43432.00,13813.00
             43461.82,13813.05 43481.16,13835.43 43498.20,13857.00
             43498.20,13857.00 43513.04,13876.00 43513.04,13876.00
             43523.82,13887.15 43538.67,13893.06 43552.00,13900.58
             43552.00,13900.58 43574.00,13912.13 43574.00,13912.13
             43574.00,13912.13 43607.00,13925.75 43607.00,13925.75
             43618.72,13931.63 43626.82,13937.80 43627.00,13952.00
             43627.00,13952.00 43627.00,13968.00 43627.00,13968.00
             43627.04,13970.14 43627.02,13972.02 43628.02,13974.00
             43629.32,13976.57 43644.70,13989.82 43648.00,13992.71
             43650.52,13994.93 43654.76,13998.81 43658.00,13999.53
             43661.19,14000.24 43670.34,13997.29 43674.00,13996.37
             43674.00,13996.37 43711.00,13987.40 43711.00,13987.40
             43711.00,13987.40 43777.00,13974.43 43777.00,13974.43
             43777.00,13974.43 43817.00,13968.72 43817.00,13968.72
             43817.00,13968.72 43831.00,13965.45 43831.00,13965.45
             43831.00,13965.45 43847.00,13962.50 43847.00,13962.50
             43863.03,13958.69 43869.18,13949.68 43879.28,13938.00
             43879.28,13938.00 43911.42,13901.00 43911.42,13901.00
             43917.26,13894.26 43928.40,13883.37 43932.18,13876.00
             43936.32,13867.92 43934.32,13859.65 43936.51,13851.00
             43938.98,13841.27 43946.77,13833.03 43955.00,13827.70
             43966.10,13820.51 43982.71,13815.34 43996.00,13815.34
             43996.00,13815.34 44030.00,13819.00 44030.00,13819.00
             44030.00,13819.00 44039.00,13819.00 44039.00,13819.00
             44045.29,13819.08 44050.57,13820.73 44057.00,13819.68
             44057.00,13819.68 44106.00,13803.08 44106.00,13803.08
             44106.00,13803.08 44144.00,13794.21 44144.00,13794.21
             44171.32,13788.40 44183.81,13790.04 44211.00,13790.00
             44211.00,13790.00 44223.00,13789.09 44223.00,13789.09
             44223.00,13789.09 44248.00,13787.91 44248.00,13787.91
             44248.00,13787.91 44260.00,13787.00 44260.00,13787.00
             44260.00,13787.00 44290.00,13783.17 44290.00,13783.17
             44290.00,13783.17 44333.00,13781.76 44333.00,13781.76
             44333.00,13781.76 44352.00,13781.76 44352.00,13781.76
             44360.35,13782.05 44375.68,13784.29 44381.70,13790.39
             44385.08,13793.81 44384.56,13797.73 44385.32,13802.00
             44386.48,13808.51 44389.32,13811.60 44388.91,13819.00
             44388.45,13827.13 44386.64,13829.48 44390.09,13838.00
             44395.31,13850.85 44406.35,13857.66 44410.29,13868.00
             44410.29,13868.00 44418.47,13894.00 44418.47,13894.00
             44418.47,13894.00 44425.87,13907.00 44425.87,13907.00
             44425.87,13907.00 44429.98,13917.00 44429.98,13917.00
             44429.98,13917.00 44446.46,13948.00 44446.46,13948.00
             44446.46,13948.00 44452.54,13957.00 44452.54,13957.00
             44452.54,13957.00 44457.45,13966.00 44457.45,13966.00
             44457.45,13966.00 44475.32,13994.00 44475.32,13994.00
             44475.32,13994.00 44482.78,14006.00 44482.78,14006.00
             44488.67,14014.13 44503.52,14025.76 44510.40,14036.00
             44510.40,14036.00 44518.87,14052.00 44518.87,14052.00
             44518.87,14052.00 44527.02,14065.00 44527.02,14065.00
             44529.79,14070.40 44529.93,14073.49 44533.93,14079.00
             44544.50,14093.56 44562.30,14100.79 44580.00,14100.88
             44591.50,14101.13 44602.74,14097.74 44614.00,14100.88
             44623.88,14103.41 44635.77,14110.88 44643.00,14118.01
             44645.98,14120.96 44649.94,14124.97 44651.30,14129.00
             44651.30,14129.00 44653.76,14152.00 44653.76,14152.00
             44653.76,14152.00 44660.98,14172.00 44660.98,14172.00
             44660.98,14172.00 44667.26,14192.00 44667.26,14192.00
             44667.26,14192.00 44670.91,14206.00 44670.91,14206.00
             44670.91,14206.00 44678.66,14225.00 44678.66,14225.00
             44682.29,14235.37 44684.06,14244.09 44691.02,14253.00
             44695.90,14259.26 44700.42,14263.23 44707.00,14267.64
             44709.36,14269.22 44716.86,14273.01 44718.01,14274.63
             44719.58,14276.87 44720.00,14286.97 44720.00,14290.00
             44720.00,14290.00 44720.00,14403.00 44720.00,14403.00
             44719.85,14415.09 44714.64,14416.64 44710.68,14427.00
             44710.68,14427.00 44705.48,14442.00 44705.48,14442.00
             44704.25,14446.78 44703.67,14452.49 44701.80,14457.00
             44701.80,14457.00 44684.81,14490.00 44684.81,14490.00
             44681.76,14497.88 44679.41,14505.48 44678.94,14514.00
             44678.94,14514.00 44678.94,14523.00 44678.94,14523.00
             44678.94,14523.00 44676.28,14544.00 44676.28,14544.00
             44675.49,14550.69 44676.61,14552.63 44673.91,14560.00
             44673.91,14560.00 44664.83,14578.00 44664.83,14578.00
             44663.04,14582.51 44662.16,14589.10 44658.61,14592.36
             44656.54,14594.27 44651.72,14596.15 44649.00,14597.67
             44643.79,14600.56 44638.23,14604.54 44634.30,14609.01
             44634.30,14609.01 44596.96,14656.99 44596.96,14656.99
             44596.96,14656.99 44586.00,14667.01 44586.00,14667.01
             44586.00,14667.01 44570.99,14683.00 44570.99,14683.00
             44570.99,14683.00 44551.17,14703.00 44551.17,14703.00
             44551.17,14703.00 44535.91,14723.91 44535.91,14723.91
             44535.91,14723.91 44506.00,14747.17 44506.00,14747.17
             44495.11,14756.90 44484.09,14773.42 44481.23,14788.00
             44481.23,14788.00 44481.23,14804.00 44481.23,14804.00
             44480.89,14813.02 44477.82,14831.09 44475.52,14840.00
             44475.52,14840.00 44471.48,14853.00 44471.48,14853.00
             44471.48,14853.00 44467.37,14873.00 44467.37,14873.00
             44467.37,14873.00 44461.88,14884.00 44461.88,14884.00
             44461.88,14884.00 44454.89,14906.00 44454.89,14906.00
             44454.89,14906.00 44450.80,14928.00 44450.80,14928.00
             44450.80,14928.00 44444.46,14958.00 44444.46,14958.00
             44444.46,14958.00 44442.15,14975.00 44442.15,14975.00
             44440.89,14978.05 44438.47,14980.15 44435.99,14982.19
             44426.28,14990.16 44424.58,14988.87 44413.00,14989.00
             44393.73,14989.23 44370.33,14999.95 44355.00,15011.16
             44355.00,15011.16 44337.00,15026.30 44337.00,15026.30
             44333.16,15028.83 44326.56,15029.90 44322.00,15031.15
             44322.00,15031.15 44303.00,15037.69 44303.00,15037.69
             44283.09,15044.81 44259.86,15058.75 44239.00,15059.00
             44217.78,15059.24 44201.70,15059.41 44183.00,15047.30
             44183.00,15047.30 44167.00,15034.24 44167.00,15034.24
             44167.00,15034.24 44147.00,15020.57 44147.00,15020.57
             44135.88,15012.62 44131.39,15008.07 44117.00,15008.00
             44117.00,15008.00 44082.00,15008.00 44082.00,15008.00
             44060.77,15007.75 44036.80,14997.86 44023.52,14981.00
             44023.52,14981.00 44001.10,14944.09 44001.10,14944.09
             44001.10,14944.09 43985.00,14928.00 43985.00,14928.00
             43985.00,14928.00 43961.30,14902.00 43961.30,14902.00
             43948.83,14887.37 43938.51,14870.63 43929.00,14854.00
             43924.15,14845.50 43917.63,14831.26 43914.52,14822.00
             43911.91,14814.27 43909.84,14803.90 43902.96,14798.80
             43896.48,14793.99 43881.20,14790.91 43873.00,14788.26
             43873.00,14788.26 43855.00,14782.02 43855.00,14782.02
             43855.00,14782.02 43822.00,14772.88 43822.00,14772.88
             43822.00,14772.88 43801.00,14768.08 43801.00,14768.08
             43801.00,14768.08 43764.00,14753.05 43764.00,14753.05
             43764.00,14753.05 43733.00,14744.33 43733.00,14744.33
             43733.00,14744.33 43692.00,14729.88 43692.00,14729.88
             43685.25,14728.10 43675.96,14726.56 43669.00,14725.96
             43669.00,14725.96 43660.00,14725.96 43660.00,14725.96
             43660.00,14725.96 43641.00,14724.00 43641.00,14724.00
             43631.43,14723.89 43628.28,14724.41 43619.00,14726.88
             43609.92,14729.31 43608.02,14732.43 43598.00,14730.00 Z" />
</svg>
