<?xml version="1.0" encoding="UTF-8" standalone="no"?>
<!DOCTYPE svg PUBLIC "-//W3C//DTD SVG 20010904//EN"
              "http://www.w3.org/TR/2001/REC-SVG-20010904/DTD/svg10.dtd">

<svg xmlns="http://www.w3.org/2000/svg"
     width="7314.29mm" height="7314.29mm"
     viewBox="0 0 20480 20480">
  <path id="Frostfeld1"
        fill="none" stroke="black" stroke-width="1"
        d="M 10640.00,3503.00
           C 10625.79,3502.63 10630.67,3494.24 10618.98,3484.82
             10611.84,3479.06 10608.04,3480.01 10600.00,3477.41
             10600.00,3477.41 10591.00,3474.14 10591.00,3474.14
             10591.00,3474.14 10576.00,3468.54 10576.00,3468.54
             10576.00,3468.54 10562.00,3464.52 10562.00,3464.52
             10557.01,3462.49 10540.74,3452.24 10536.01,3448.79
             10536.01,3448.79 10520.00,3434.09 10520.00,3434.09
             10520.00,3434.09 10495.96,3411.01 10495.96,3411.01
             10488.39,3403.29 10481.53,3395.62 10482.04,3384.00
             10482.28,3378.43 10486.34,3368.54 10489.69,3364.21
             10489.69,3364.21 10495.05,3358.81 10495.05,3358.81
             10495.05,3358.81 10519.85,3329.00 10519.85,3329.00
             10522.38,3326.12 10528.40,3319.20 10529.86,3316.00
             10531.76,3311.86 10530.48,3305.10 10536.21,3300.72
             10536.21,3300.72 10545.00,3296.44 10545.00,3296.44
             10548.55,3294.25 10551.05,3291.78 10555.00,3289.91
             10555.00,3289.91 10566.00,3285.88 10566.00,3285.88
             10566.00,3285.88 10573.00,3281.65 10573.00,3281.65
             10577.74,3279.57 10583.48,3280.01 10592.00,3273.82
             10596.86,3270.29 10601.43,3266.52 10605.83,3262.44
             10605.83,3262.44 10615.28,3253.67 10615.28,3253.67
             10615.28,3253.67 10624.00,3248.28 10624.00,3248.28
             10627.96,3245.55 10633.21,3241.32 10638.00,3240.40
             10644.09,3239.24 10660.80,3247.04 10668.00,3247.24
             10674.80,3247.42 10679.71,3237.85 10687.00,3236.41
             10695.66,3234.69 10695.80,3242.86 10701.10,3245.11
             10709.02,3248.47 10726.45,3245.31 10733.82,3251.68
             10737.14,3254.56 10748.26,3271.56 10750.60,3276.00
             10750.60,3276.00 10760.52,3295.00 10760.52,3295.00
             10764.73,3301.35 10771.06,3308.76 10768.87,3317.00
             10766.28,3326.79 10755.21,3340.41 10749.72,3350.00
             10747.85,3353.27 10744.60,3358.33 10744.13,3362.00
             10743.65,3365.84 10745.48,3368.49 10746.39,3372.00
             10746.39,3372.00 10747.37,3378.00 10747.37,3378.00
             10748.23,3382.18 10750.00,3386.11 10751.69,3390.00
             10751.69,3390.00 10756.51,3404.00 10756.51,3404.00
             10756.51,3404.00 10763.48,3416.00 10763.48,3416.00
             10763.48,3416.00 10767.22,3424.00 10767.22,3424.00
             10767.22,3424.00 10778.96,3440.69 10778.96,3440.69
             10782.14,3444.30 10785.42,3442.62 10788.42,3439.94
             10792.53,3436.27 10797.83,3429.93 10804.00,3431.45
             10811.15,3433.20 10809.46,3439.71 10815.06,3442.30
             10820.76,3444.94 10838.71,3443.77 10843.96,3446.45
             10850.45,3449.76 10854.95,3456.62 10859.47,3461.96
             10859.47,3461.96 10866.04,3469.09 10866.04,3469.09
             10872.47,3478.26 10874.63,3487.63 10877.89,3498.00
             10880.73,3507.04 10882.58,3510.02 10882.50,3520.00
             10882.50,3520.00 10883.66,3538.00 10883.66,3538.00
             10883.16,3542.98 10880.20,3545.12 10877.68,3549.00
             10877.68,3549.00 10873.60,3556.00 10873.60,3556.00
             10873.60,3556.00 10862.25,3571.00 10862.25,3571.00
             10862.25,3571.00 10852.28,3588.78 10852.28,3588.78
             10851.08,3590.31 10849.76,3591.13 10847.98,3591.86
             10843.08,3593.86 10826.97,3594.80 10821.00,3594.99
             10812.11,3595.28 10813.77,3598.17 10806.00,3597.96
             10806.00,3597.96 10792.00,3595.44 10792.00,3595.44
             10792.00,3595.44 10772.00,3594.03 10772.00,3594.03
             10758.67,3594.05 10752.92,3603.46 10744.00,3601.33
             10734.81,3599.13 10728.97,3591.78 10726.64,3583.00
             10725.35,3578.18 10727.54,3576.22 10723.82,3572.30
             10718.16,3566.33 10714.04,3568.96 10707.00,3569.17
             10707.00,3569.17 10689.00,3569.17 10689.00,3569.17
             10685.26,3569.53 10676.01,3568.78 10673.13,3566.49
             10667.76,3562.21 10667.34,3552.30 10665.91,3546.00
             10665.26,3543.13 10660.82,3534.56 10659.09,3532.00
             10654.93,3525.87 10651.08,3524.40 10648.63,3521.63
             10644.79,3517.27 10640.90,3508.80 10640.00,3503.00 Z" />
</svg>
