<?xml version="1.0" encoding="UTF-8" standalone="no"?>
<!DOCTYPE svg PUBLIC "-//W3C//DTD SVG 20010904//EN"
              "http://www.w3.org/TR/2001/REC-SVG-20010904/DTD/svg10.dtd">

<svg xmlns="http://www.w3.org/2000/svg"
     width="28895.9mm" height="28895.9mm"
     viewBox="0 0 81920 81920">
  <path id="Frostfeld 1"
        fill="none" stroke="black" stroke-width="1"
        d="M 42637.00,12071.42
           C 42655.44,12069.17 42685.76,12078.29 42704.00,12083.72
             42714.36,12086.81 42722.95,12089.98 42734.00,12090.00
             42734.00,12090.00 42829.00,12090.00 42829.00,12090.00
             42829.00,12090.00 42844.00,12089.00 42844.00,12089.00
             42844.00,12089.00 42946.00,12089.00 42946.00,12089.00
             42963.10,12089.03 42990.64,12092.53 43002.32,12106.17
             43007.29,12111.97 43008.24,12118.37 43011.41,12125.00
             43015.36,12133.24 43020.72,12140.59 43026.04,12148.00
             43026.04,12148.00 43035.47,12159.00 43035.47,12159.00
             43035.47,12159.00 43041.30,12168.00 43041.30,12168.00
             43041.30,12168.00 43049.48,12178.00 43049.48,12178.00
             43049.48,12178.00 43054.78,12186.00 43054.78,12186.00
             43061.33,12195.19 43068.71,12204.02 43074.10,12214.00
             43074.10,12214.00 43081.63,12233.00 43081.63,12233.00
             43081.63,12233.00 43088.48,12248.00 43088.48,12248.00
             43088.48,12248.00 43093.98,12265.00 43093.98,12265.00
             43099.73,12277.09 43105.40,12283.49 43112.48,12294.00
             43112.48,12294.00 43125.63,12314.00 43125.63,12314.00
             43125.63,12314.00 43132.33,12322.00 43132.33,12322.00
             43139.97,12331.74 43145.94,12343.42 43146.00,12356.00
             43146.00,12356.00 43146.00,12366.00 43146.00,12366.00
             43145.73,12388.84 43131.18,12404.39 43120.46,12423.00
             43120.46,12423.00 43112.11,12442.00 43112.11,12442.00
             43105.69,12454.19 43097.81,12465.94 43089.63,12477.00
             43089.63,12477.00 43079.52,12491.00 43079.52,12491.00
             43079.52,12491.00 43070.57,12505.00 43070.57,12505.00
             43067.54,12509.23 43061.66,12515.86 43060.82,12521.00
             43060.17,12524.96 43065.78,12542.97 43067.08,12548.00
             43067.08,12548.00 43068.63,12559.00 43068.63,12559.00
             43068.63,12559.00 43073.07,12570.00 43073.07,12570.00
             43073.07,12570.00 43074.51,12578.00 43074.51,12578.00
             43074.51,12578.00 43077.10,12587.00 43077.10,12587.00
             43077.10,12587.00 43078.66,12596.00 43078.66,12596.00
             43078.66,12596.00 43082.35,12611.00 43082.35,12611.00
             43082.35,12611.00 43088.54,12634.00 43088.54,12634.00
             43088.54,12634.00 43092.17,12659.00 43092.17,12659.00
             43092.17,12659.00 43097.09,12671.00 43097.09,12671.00
             43097.09,12671.00 43104.81,12699.00 43104.81,12699.00
             43104.81,12699.00 43111.78,12713.00 43111.78,12713.00
             43111.78,12713.00 43117.34,12733.00 43117.34,12733.00
             43117.34,12733.00 43123.48,12749.00 43123.48,12749.00
             43123.48,12749.00 43126.88,12760.00 43126.88,12760.00
             43126.88,12760.00 43140.60,12784.00 43140.60,12784.00
             43142.77,12787.26 43144.77,12789.30 43146.62,12793.00
             43146.62,12793.00 43150.90,12805.00 43150.90,12805.00
             43150.90,12805.00 43158.10,12817.00 43158.10,12817.00
             43158.10,12817.00 43162.31,12827.00 43162.31,12827.00
             43165.50,12834.02 43167.68,12836.02 43171.64,12842.00
             43171.64,12842.00 43177.97,12853.00 43177.97,12853.00
             43177.97,12853.00 43192.49,12872.00 43192.49,12872.00
             43192.49,12872.00 43202.57,12885.00 43202.57,12885.00
             43206.77,12890.07 43210.57,12897.51 43216.00,12900.64
             43220.89,12903.45 43227.49,12903.57 43233.00,12904.16
             43240.68,12905.00 43241.01,12905.99 43250.00,12906.00
             43250.00,12906.00 43296.00,12906.00 43296.00,12906.00
             43296.00,12906.00 43323.00,12908.00 43323.00,12908.00
             43323.00,12908.00 43444.00,12908.00 43444.00,12908.00
             43454.75,12908.02 43459.99,12909.96 43470.00,12912.52
             43470.00,12912.52 43483.00,12915.44 43483.00,12915.44
             43492.11,12918.14 43505.85,12925.26 43512.83,12931.62
             43519.75,12937.92 43530.70,12954.97 43536.60,12963.00
             43546.35,12976.25 43558.38,12988.33 43566.09,13003.00
             43566.09,13003.00 43570.45,13015.00 43570.45,13015.00
             43570.45,13015.00 43576.37,13029.00 43576.37,13029.00
             43576.37,13029.00 43581.77,13040.00 43581.77,13040.00
             43581.77,13040.00 43586.71,13057.00 43586.71,13057.00
             43586.71,13057.00 43605.48,13098.00 43605.48,13098.00
             43605.48,13098.00 43608.32,13118.00 43608.32,13118.00
             43609.54,13125.37 43610.95,13124.48 43611.00,13134.00
             43611.04,13142.62 43612.62,13149.63 43613.71,13158.00
             43614.43,13163.50 43613.57,13163.92 43615.24,13171.00
             43615.24,13171.00 43618.48,13181.00 43618.48,13181.00
             43618.48,13181.00 43622.52,13196.00 43622.52,13196.00
             43622.52,13196.00 43625.44,13212.00 43625.44,13212.00
             43628.26,13221.49 43631.86,13224.66 43632.25,13236.00
             43632.05,13240.19 43631.63,13252.82 43632.25,13256.00
             43633.82,13260.88 43637.61,13263.92 43637.96,13272.00
             43638.85,13292.27 43620.51,13320.32 43609.86,13337.00
             43609.86,13337.00 43588.22,13370.00 43588.22,13370.00
             43588.22,13370.00 43581.32,13378.00 43581.32,13378.00
             43581.32,13378.00 43574.19,13388.00 43574.19,13388.00
             43574.19,13388.00 43560.54,13410.00 43560.54,13410.00
             43560.54,13410.00 43554.10,13423.00 43554.10,13423.00
             43554.10,13423.00 43548.54,13432.00 43548.54,13432.00
             43546.24,13436.82 43546.56,13439.24 43542.91,13445.00
             43534.97,13457.55 43527.92,13459.72 43523.21,13464.32
             43518.81,13468.61 43517.91,13474.10 43508.00,13482.82
             43495.37,13493.94 43478.65,13496.94 43463.00,13501.43
             43463.00,13501.43 43439.00,13509.75 43439.00,13509.75
             43439.00,13509.75 43429.00,13513.64 43429.00,13513.64
             43429.00,13513.64 43400.00,13521.58 43400.00,13521.58
             43400.00,13521.58 43367.00,13526.28 43367.00,13526.28
             43367.00,13526.28 43356.00,13528.54 43356.00,13528.54
             43356.00,13528.54 43338.00,13530.00 43338.00,13530.00
             43338.00,13530.00 43284.00,13530.00 43284.00,13530.00
             43284.00,13530.00 43255.00,13527.57 43255.00,13527.57
             43243.20,13525.88 43241.93,13524.15 43229.00,13524.00
             43229.00,13524.00 43195.00,13521.00 43195.00,13521.00
             43195.00,13521.00 43172.00,13521.00 43172.00,13521.00
             43168.93,13521.04 43151.99,13522.23 43150.00,13523.09
             43144.63,13525.39 43136.76,13534.39 43124.00,13539.55
             43102.17,13548.37 43080.63,13550.21 43058.00,13543.71
             43051.57,13541.86 43048.05,13540.99 43042.00,13537.69
             43023.32,13527.49 43017.00,13511.80 43010.31,13493.00
             43010.31,13493.00 43006.20,13482.00 43006.20,13482.00
             43002.26,13469.17 43001.23,13459.71 42993.19,13448.04
             42988.52,13441.27 42980.87,13440.49 42974.00,13437.22
             42963.67,13432.28 42955.57,13427.24 42944.00,13424.50
             42934.76,13422.32 42925.41,13423.11 42916.00,13423.00
             42916.00,13423.00 42906.00,13421.96 42906.00,13421.96
             42906.00,13421.96 42897.00,13421.96 42897.00,13421.96
             42897.00,13421.96 42878.00,13419.28 42878.00,13419.28
             42878.00,13419.28 42858.00,13416.52 42858.00,13416.52
             42858.00,13416.52 42840.00,13410.35 42840.00,13410.35
             42840.00,13410.35 42820.00,13404.13 42820.00,13404.13
             42809.89,13399.80 42804.81,13395.71 42796.00,13389.74
             42790.65,13386.13 42784.87,13383.11 42780.00,13378.82
             42780.00,13378.82 42764.32,13362.00 42764.32,13362.00
             42755.03,13350.82 42754.89,13344.23 42750.46,13332.00
             42750.46,13332.00 42745.04,13318.00 42745.04,13318.00
             42745.04,13318.00 42739.88,13299.00 42739.88,13299.00
             42739.88,13299.00 42733.93,13287.00 42733.93,13287.00
             42731.61,13281.14 42732.52,13280.03 42728.69,13273.00
             42723.87,13264.15 42719.69,13261.13 42714.74,13253.99
             42710.45,13247.78 42704.56,13237.08 42698.96,13232.38
             42698.96,13232.38 42684.00,13222.92 42684.00,13222.92
             42673.26,13215.86 42666.52,13210.42 42658.88,13200.00
             42654.15,13193.54 42645.02,13174.65 42642.52,13167.00
             42639.10,13156.54 42637.68,13145.32 42631.04,13136.10
             42628.33,13132.35 42619.63,13128.51 42615.00,13125.12
             42603.35,13116.58 42593.11,13108.33 42584.00,13097.00
             42579.22,13091.06 42574.80,13084.84 42571.37,13078.00
             42568.42,13072.12 42566.63,13064.88 42560.96,13060.96
             42557.15,13058.33 42550.38,13056.11 42546.00,13054.14
             42546.00,13054.14 42535.00,13048.32 42535.00,13048.32
             42535.00,13048.32 42520.00,13042.11 42520.00,13042.11
             42520.00,13042.11 42490.00,13026.11 42490.00,13026.11
             42490.00,13026.11 42447.00,13007.57 42447.00,13007.57
             42447.00,13007.57 42434.00,13000.78 42434.00,13000.78
             42434.00,13000.78 42417.00,12993.73 42417.00,12993.73
             42417.00,12993.73 42400.00,12984.17 42400.00,12984.17
             42400.00,12984.17 42378.00,12973.86 42378.00,12973.86
             42378.00,12973.86 42354.00,12964.21 42354.00,12964.21
             42354.00,12964.21 42334.00,12958.13 42334.00,12958.13
             42334.00,12958.13 42320.00,12950.01 42320.00,12950.01
             42320.00,12950.01 42310.00,12945.11 42310.00,12945.11
             42310.00,12945.11 42300.00,12939.37 42300.00,12939.37
             42300.00,12939.37 42281.00,12930.63 42281.00,12930.63
             42281.00,12930.63 42270.00,12924.37 42270.00,12924.37
             42270.00,12924.37 42250.00,12914.65 42250.00,12914.65
             42250.00,12914.65 42241.00,12908.15 42241.00,12908.15
             42241.00,12908.15 42232.00,12901.68 42232.00,12901.68
             42220.83,12892.36 42211.78,12880.59 42201.91,12870.00
             42201.91,12870.00 42156.00,12825.83 42156.00,12825.83
             42156.00,12825.83 42137.00,12807.39 42137.00,12807.39
             42137.00,12807.39 42128.00,12801.47 42128.00,12801.47
             42128.00,12801.47 42119.00,12793.32 42119.00,12793.32
             42119.00,12793.32 42105.00,12783.09 42105.00,12783.09
             42105.00,12783.09 42081.00,12767.84 42081.00,12767.84
             42081.00,12767.84 42070.00,12758.51 42070.00,12758.51
             42070.00,12758.51 42035.28,12729.51 42035.28,12729.51
             42025.65,12720.79 42009.37,12708.61 42005.79,12696.00
             42004.90,12692.87 42005.00,12690.20 42005.00,12687.00
             42005.00,12687.00 42006.00,12655.00 42006.00,12655.00
             42006.00,12655.00 42007.00,12635.00 42007.00,12635.00
             42007.00,12635.00 42008.20,12606.00 42008.20,12606.00
             42007.76,12600.91 42004.87,12596.84 42006.46,12588.00
             42009.62,12570.51 42026.10,12562.65 42035.40,12549.00
             42035.40,12549.00 42040.06,12541.00 42040.06,12541.00
             42043.52,12535.41 42046.95,12530.94 42051.29,12526.00
             42051.29,12526.00 42066.09,12510.17 42066.09,12510.17
             42072.94,12503.52 42079.74,12497.49 42085.79,12490.00
             42085.79,12490.00 42104.52,12461.00 42104.52,12461.00
             42104.52,12461.00 42129.83,12435.00 42129.83,12435.00
             42135.42,12428.82 42145.03,12418.13 42148.93,12411.00
             42148.93,12411.00 42154.09,12396.00 42154.09,12396.00
             42155.75,12391.95 42162.68,12380.95 42165.36,12377.00
             42165.36,12377.00 42188.08,12350.00 42188.08,12350.00
             42188.08,12350.00 42196.31,12339.00 42196.31,12339.00
             42209.28,12322.97 42223.04,12309.35 42239.00,12296.31
             42249.17,12288.01 42255.45,12287.99 42264.00,12282.25
             42264.00,12282.25 42278.00,12271.50 42278.00,12271.50
             42285.85,12265.51 42297.90,12258.32 42307.00,12254.43
             42307.00,12254.43 42328.00,12246.51 42328.00,12246.51
             42335.45,12244.17 42338.33,12244.44 42346.00,12240.74
             42346.00,12240.74 42377.00,12224.19 42377.00,12224.19
             42377.00,12224.19 42388.00,12216.09 42388.00,12216.09
             42388.00,12216.09 42401.00,12208.55 42401.00,12208.55
             42401.00,12208.55 42410.00,12202.87 42410.00,12202.87
             42410.00,12202.87 42445.00,12184.51 42445.00,12184.51
             42445.00,12184.51 42457.00,12177.31 42457.00,12177.31
             42457.00,12177.31 42471.00,12169.94 42471.00,12169.94
             42471.00,12169.94 42492.00,12156.60 42492.00,12156.60
             42492.00,12156.60 42505.00,12149.46 42505.00,12149.46
             42505.00,12149.46 42532.00,12129.43 42532.00,12129.43
             42532.00,12129.43 42558.00,12112.28 42558.00,12112.28
             42558.00,12112.28 42582.00,12094.09 42582.00,12094.09
             42598.79,12082.73 42616.94,12074.45 42637.00,12071.42 Z" />
</svg>
