<?xml version="1.0" encoding="UTF-8" standalone="no"?>
<!DOCTYPE svg PUBLIC "-//W3C//DTD SVG 20010904//EN"
              "http://www.w3.org/TR/2001/REC-SVG-20010904/DTD/svg10.dtd">

<svg xmlns="http://www.w3.org/2000/svg"
     width="1137.78in" height="1137.78in"
     viewBox="0 0 81920 81920">
  <path id="Selection"
        fill="none" stroke="black" stroke-width="1"
        d="M 42613.00,11908.44
           C 42633.15,11905.86 42656.70,11911.99 42676.00,11917.72
             42687.81,11921.22 42699.55,11925.98 42712.00,11926.00
             42712.00,11926.00 42816.00,11926.00 42816.00,11926.00
             42816.00,11926.00 42831.00,11925.00 42831.00,11925.00
             42831.00,11925.00 42891.00,11925.00 42891.00,11925.00
             42891.00,11925.00 42919.00,11925.00 42919.00,11925.00
             42919.00,11925.00 42932.00,11925.96 42932.00,11925.96
             42946.55,11926.60 42962.45,11928.41 42975.00,11936.55
             42985.77,11943.53 42985.84,11949.55 42990.78,11960.00
             42994.46,11967.79 42997.78,11972.98 43002.72,11980.00
             43002.72,11980.00 43013.99,11994.00 43013.99,11994.00
             43013.99,11994.00 43052.49,12048.00 43052.49,12048.00
             43052.49,12048.00 43068.31,12085.00 43068.31,12085.00
             43068.31,12085.00 43074.78,12103.00 43074.78,12103.00
             43074.78,12103.00 43105.48,12150.00 43105.48,12150.00
             43115.97,12164.11 43123.18,12170.52 43125.16,12189.00
             43125.61,12193.14 43126.14,12194.47 43125.96,12199.00
             43124.89,12226.58 43114.22,12234.85 43101.86,12257.00
             43101.86,12257.00 43091.52,12279.00 43091.52,12279.00
             43085.45,12290.60 43078.18,12301.37 43070.58,12312.00
             43070.58,12312.00 43049.98,12342.00 43049.98,12342.00
             43047.09,12346.18 43041.88,12352.11 43040.96,12357.00
             43039.92,12362.51 43045.00,12376.84 43046.33,12383.00
             43046.33,12383.00 43048.49,12395.00 43048.49,12395.00
             43048.49,12395.00 43052.43,12406.00 43052.43,12406.00
             43052.43,12406.00 43056.11,12421.00 43056.11,12421.00
             43056.11,12421.00 43063.29,12452.00 43063.29,12452.00
             43063.29,12452.00 43068.57,12473.00 43068.57,12473.00
             43068.57,12473.00 43072.04,12495.00 43072.04,12495.00
             43072.04,12495.00 43077.12,12509.00 43077.12,12509.00
             43077.12,12509.00 43084.54,12535.00 43084.54,12535.00
             43084.54,12535.00 43091.46,12550.00 43091.46,12550.00
             43091.46,12550.00 43096.72,12568.00 43096.72,12568.00
             43096.72,12568.00 43107.31,12597.00 43107.31,12597.00
             43107.31,12597.00 43120.42,12620.00 43120.42,12620.00
             43120.42,12620.00 43126.01,12629.00 43126.01,12629.00
             43126.01,12629.00 43130.32,12640.00 43130.32,12640.00
             43130.32,12640.00 43137.63,12653.00 43137.63,12653.00
             43137.63,12653.00 43141.89,12663.00 43141.89,12663.00
             43144.41,12668.36 43147.95,12673.05 43151.14,12678.00
             43151.14,12678.00 43158.44,12690.00 43158.44,12690.00
             43158.44,12690.00 43179.87,12718.00 43179.87,12718.00
             43184.04,12723.51 43190.27,12733.31 43196.00,12736.64
             43202.01,12740.12 43220.69,12741.99 43228.00,12742.00
             43228.00,12742.00 43269.00,12742.00 43269.00,12742.00
             43269.00,12742.00 43301.00,12744.00 43301.00,12744.00
             43301.00,12744.00 43420.00,12744.00 43420.00,12744.00
             43431.74,12744.02 43438.91,12746.18 43450.00,12748.87
             43465.51,12752.64 43476.88,12755.48 43490.00,12765.68
             43498.96,12772.65 43509.08,12789.35 43516.15,12799.00
             43524.59,12810.50 43537.19,12823.79 43543.96,12836.00
             43543.96,12836.00 43550.45,12852.00 43550.45,12852.00
             43550.45,12852.00 43561.08,12876.00 43561.08,12876.00
             43561.08,12876.00 43566.06,12892.00 43566.06,12892.00
             43566.06,12892.00 43584.96,12935.00 43584.96,12935.00
             43584.96,12935.00 43587.27,12950.00 43587.27,12950.00
             43587.27,12950.00 43589.82,12963.00 43589.82,12963.00
             43589.82,12963.00 43592.72,12991.00 43592.72,12991.00
             43592.72,12991.00 43594.90,13007.00 43594.90,13007.00
             43594.90,13007.00 43601.53,13030.00 43601.53,13030.00
             43601.53,13030.00 43605.44,13049.00 43605.44,13049.00
             43608.39,13058.97 43612.41,13064.44 43612.00,13076.00
             43611.70,13082.70 43610.14,13083.31 43612.00,13091.00
             43614.04,13099.07 43616.88,13098.85 43617.00,13109.00
             43617.27,13132.72 43598.14,13160.70 43585.33,13180.00
             43585.33,13180.00 43568.96,13205.00 43568.96,13205.00
             43568.96,13205.00 43559.37,13217.00 43559.37,13217.00
             43559.37,13217.00 43545.42,13238.00 43545.42,13238.00
             43545.42,13238.00 43528.27,13269.00 43528.27,13269.00
             43528.27,13269.00 43521.45,13283.00 43521.45,13283.00
             43514.77,13293.33 43509.62,13294.51 43503.09,13301.09
             43498.19,13306.03 43497.82,13309.27 43490.00,13316.99
             43477.64,13329.17 43461.10,13332.62 43445.00,13337.15
             43445.00,13337.15 43423.00,13344.67 43423.00,13344.67
             43423.00,13344.67 43409.00,13349.92 43409.00,13349.92
             43409.00,13349.92 43382.00,13357.34 43382.00,13357.34
             43382.00,13357.34 43349.00,13362.27 43349.00,13362.27
             43338.78,13363.85 43329.49,13365.98 43319.00,13366.00
             43319.00,13366.00 43262.00,13366.00 43262.00,13366.00
             43262.00,13366.00 43232.00,13363.56 43232.00,13363.56
             43232.00,13363.56 43220.00,13361.28 43220.00,13361.28
             43220.00,13361.28 43170.00,13357.00 43170.00,13357.00
             43170.00,13357.00 43145.00,13357.91 43145.00,13357.91
             43140.18,13358.24 43134.65,13357.94 43130.00,13359.71
             43130.00,13359.71 43109.00,13373.51 43109.00,13373.51
             43095.94,13380.44 43076.73,13384.17 43062.00,13384.00
             43055.55,13383.92 43044.32,13381.93 43038.00,13380.27
             43030.50,13378.29 43023.56,13375.70 43017.00,13371.45
             42999.25,13359.96 42990.61,13334.56 42984.72,13315.00
             42981.60,13304.64 42979.30,13293.74 42972.47,13285.00
             42966.55,13277.41 42961.90,13277.55 42954.00,13273.74
             42936.81,13265.47 42924.64,13259.03 42905.00,13259.00
             42886.40,13258.97 42854.84,13256.72 42837.00,13252.50
             42837.00,13252.50 42816.00,13245.67 42816.00,13245.67
             42808.62,13243.26 42800.99,13241.52 42794.00,13238.03
             42794.00,13238.03 42775.00,13226.00 42775.00,13226.00
             42775.00,13226.00 42762.00,13217.33 42762.00,13217.33
             42756.00,13212.61 42742.43,13197.55 42738.46,13191.00
             42734.75,13184.87 42732.36,13175.94 42730.00,13169.00
             42730.00,13169.00 42724.44,13154.00 42724.44,13154.00
             42724.44,13154.00 42719.45,13136.00 42719.45,13136.00
             42719.45,13136.00 42713.87,13124.00 42713.87,13124.00
             42710.55,13116.26 42710.57,13112.91 42705.25,13105.00
             42705.25,13105.00 42693.77,13090.00 42693.77,13090.00
             42688.05,13081.83 42686.05,13076.27 42678.00,13069.18
             42664.68,13057.46 42653.08,13056.92 42638.75,13037.00
             42632.88,13028.85 42624.86,13011.69 42621.67,13002.00
             42619.02,12993.95 42616.88,12983.12 42612.52,12976.00
             42608.29,12969.08 42601.48,12966.40 42595.00,12961.97
             42585.63,12955.57 42576.88,12948.20 42569.04,12940.00
             42563.88,12934.61 42556.91,12925.54 42553.31,12919.00
             42550.19,12913.31 42546.33,12903.38 42541.90,12899.21
             42537.89,12895.45 42531.00,12892.99 42526.00,12890.69
             42526.00,12890.69 42513.00,12884.31 42513.00,12884.31
             42513.00,12884.31 42491.00,12874.14 42491.00,12874.14
             42491.00,12874.14 42470.00,12862.89 42470.00,12862.89
             42470.00,12862.89 42427.00,12844.22 42427.00,12844.22
             42427.00,12844.22 42411.00,12836.31 42411.00,12836.31
             42411.00,12836.31 42394.00,12828.74 42394.00,12828.74
             42394.00,12828.74 42354.00,12809.01 42354.00,12809.01
             42354.00,12809.01 42334.00,12801.00 42334.00,12801.00
             42334.00,12801.00 42314.00,12794.54 42314.00,12794.54
             42314.00,12794.54 42276.00,12774.26 42276.00,12774.26
             42255.88,12764.45 42229.05,12752.49 42212.00,12738.54
             42199.97,12728.69 42190.68,12716.10 42179.91,12705.04
             42179.91,12705.04 42171.00,12696.96 42171.00,12696.96
             42171.00,12696.96 42153.00,12679.04 42153.00,12679.04
             42153.00,12679.04 42144.00,12670.96 42144.00,12670.96
             42144.00,12670.96 42121.00,12648.17 42121.00,12648.17
             42121.00,12648.17 42107.00,12637.48 42107.00,12637.48
             42107.00,12637.48 42099.00,12630.46 42099.00,12630.46
             42099.00,12630.46 42084.00,12619.43 42084.00,12619.43
             42084.00,12619.43 42060.00,12603.84 42060.00,12603.84
             42060.00,12603.84 42009.00,12561.05 42009.00,12561.05
             41996.64,12550.07 41985.03,12541.82 41985.00,12524.00
             41985.00,12524.00 41985.00,12503.00 41985.00,12503.00
             41985.00,12503.00 41986.00,12488.00 41986.00,12488.00
             41986.00,12488.00 41987.00,12459.00 41987.00,12459.00
             41987.00,12459.00 41987.96,12447.00 41987.96,12447.00
             41988.20,12439.23 41985.78,12438.38 41986.01,12428.00
             41986.47,12408.21 42005.98,12398.10 42014.91,12385.00
             42014.91,12385.00 42021.70,12374.00 42021.70,12374.00
             42026.41,12366.80 42032.40,12360.37 42038.17,12354.00
             42038.17,12354.00 42063.68,12328.00 42063.68,12328.00
             42063.68,12328.00 42084.38,12297.00 42084.38,12297.00
             42084.38,12297.00 42100.00,12281.00 42100.00,12281.00
             42100.00,12281.00 42113.83,12266.00 42113.83,12266.00
             42117.54,12261.87 42125.27,12252.64 42127.82,12248.00
             42127.82,12248.00 42133.45,12233.00 42133.45,12233.00
             42135.75,12227.32 42139.69,12221.14 42143.08,12216.00
             42143.08,12216.00 42166.74,12187.00 42166.74,12187.00
             42166.74,12187.00 42178.43,12172.00 42178.43,12172.00
             42188.87,12159.46 42202.45,12145.86 42215.00,12135.43
             42230.23,12122.78 42231.82,12126.14 42243.00,12118.64
             42257.41,12108.98 42267.26,12099.28 42284.00,12091.86
             42284.00,12091.86 42308.00,12082.75 42308.00,12082.75
             42315.31,12080.40 42318.35,12080.46 42326.00,12076.74
             42326.00,12076.74 42356.00,12060.54 42356.00,12060.54
             42356.00,12060.54 42367.00,12052.75 42367.00,12052.75
             42367.00,12052.75 42390.00,12038.87 42390.00,12038.87
             42390.00,12038.87 42421.00,12022.69 42421.00,12022.69
             42421.00,12022.69 42437.00,12013.31 42437.00,12013.31
             42437.00,12013.31 42453.00,12004.58 42453.00,12004.58
             42453.00,12004.58 42469.00,11994.45 42469.00,11994.45
             42469.00,11994.45 42484.00,11985.91 42484.00,11985.91
             42484.00,11985.91 42509.00,11967.43 42509.00,11967.43
             42509.00,11967.43 42537.00,11948.80 42537.00,11948.80
             42537.00,11948.80 42563.00,11929.35 42563.00,11929.35
             42577.93,11919.40 42595.32,11911.70 42613.00,11908.44 Z" />
</svg>
