<?xml version="1.0" encoding="UTF-8" standalone="no"?>
<!DOCTYPE svg PUBLIC "-//W3C//DTD SVG 20010904//EN"
              "http://www.w3.org/TR/2001/REC-SVG-20010904/DTD/svg10.dtd">

<svg xmlns="http://www.w3.org/2000/svg"
     width="1137.78in" height="1137.78in"
     viewBox="0 0 81920 81920">
  <path id="Selection"
        fill="none" stroke="black" stroke-width="1"
        d="M 41611.00,13202.46
           C 41627.09,13201.64 41647.98,13208.94 41658.82,13221.01
             41664.61,13227.47 41665.68,13233.82 41671.29,13241.00
             41671.29,13241.00 41681.24,13253.00 41681.24,13253.00
             41688.80,13263.22 41695.98,13278.18 41696.00,13291.00
             41696.00,13291.00 41696.00,13327.00 41696.00,13327.00
             41696.00,13329.66 41695.89,13332.42 41696.64,13335.00
             41699.05,13343.40 41711.68,13361.02 41716.54,13369.00
             41716.54,13369.00 41741.53,13415.00 41741.53,13415.00
             41741.53,13415.00 41774.91,13448.00 41774.91,13448.00
             41783.72,13457.58 41788.05,13471.28 41798.00,13479.54
             41812.67,13491.71 41841.62,13500.71 41853.99,13509.79
             41860.96,13514.91 41866.67,13526.71 41873.17,13534.00
             41880.48,13542.19 41889.42,13549.62 41891.69,13561.00
             41895.13,13578.24 41888.83,13592.83 41879.33,13607.00
             41879.33,13607.00 41869.90,13621.00 41869.90,13621.00
             41869.90,13621.00 41865.13,13631.00 41865.13,13631.00
             41865.13,13631.00 41857.32,13644.00 41857.32,13644.00
             41857.32,13644.00 41852.68,13654.00 41852.68,13654.00
             41852.68,13654.00 41846.93,13665.00 41846.93,13665.00
             41846.93,13665.00 41842.56,13682.00 41842.56,13682.00
             41839.36,13692.80 41837.02,13692.23 41837.00,13705.00
             41837.00,13705.00 41837.00,13717.00 41837.00,13717.00
             41837.00,13717.00 41834.24,13742.00 41834.24,13742.00
             41833.35,13745.46 41831.82,13748.72 41830.42,13752.00
             41822.57,13770.35 41810.66,13786.06 41791.00,13792.48
             41780.05,13796.06 41768.28,13796.46 41757.00,13794.71
             41750.96,13793.76 41745.10,13790.77 41739.00,13791.11
             41732.91,13791.45 41724.87,13795.60 41719.00,13797.66
             41719.00,13797.66 41695.00,13805.63 41695.00,13805.63
             41689.81,13808.13 41684.80,13812.36 41680.00,13815.66
             41674.67,13819.33 41668.72,13823.07 41665.68,13829.00
             41661.83,13836.52 41662.90,13854.10 41663.00,13863.00
             41663.12,13873.24 41667.14,13881.69 41670.80,13891.00
             41670.80,13891.00 41674.37,13900.00 41674.37,13900.00
             41674.37,13900.00 41681.33,13913.00 41681.33,13913.00
             41681.33,13913.00 41689.31,13932.00 41689.31,13932.00
             41689.31,13932.00 41705.25,13962.00 41705.25,13962.00
             41714.00,13988.30 41712.96,14008.09 41713.00,14035.00
             41713.02,14046.80 41715.60,14047.45 41718.26,14058.00
             41718.26,14058.00 41721.74,14078.00 41721.74,14078.00
             41721.74,14078.00 41730.50,14103.00 41730.50,14103.00
             41732.22,14110.24 41732.53,14123.97 41733.09,14132.00
             41733.09,14132.00 41735.00,14154.00 41735.00,14154.00
             41735.00,14154.00 41735.00,14177.00 41735.00,14177.00
             41734.82,14192.25 41724.14,14219.16 41715.91,14232.00
             41715.91,14232.00 41698.92,14254.00 41698.92,14254.00
             41690.63,14263.96 41681.12,14273.03 41674.09,14284.00
             41674.09,14284.00 41664.48,14302.00 41664.48,14302.00
             41664.48,14302.00 41637.09,14335.00 41637.09,14335.00
             41637.09,14335.00 41628.11,14347.00 41628.11,14347.00
             41628.11,14347.00 41619.34,14358.00 41619.34,14358.00
             41615.85,14363.20 41616.43,14367.43 41614.45,14373.00
             41612.42,14378.74 41608.03,14385.54 41603.91,14390.00
             41596.56,14397.95 41587.21,14404.08 41579.00,14411.13
             41564.37,14423.70 41550.85,14437.82 41535.00,14448.96
             41535.00,14448.96 41501.00,14470.57 41501.00,14470.57
             41501.00,14470.57 41484.00,14479.31 41484.00,14479.31
             41484.00,14479.31 41466.00,14490.42 41466.00,14490.42
             41457.62,14495.67 41448.60,14500.99 41441.00,14507.32
             41434.25,14512.95 41429.53,14519.53 41422.00,14524.64
             41406.80,14534.96 41389.33,14540.21 41371.00,14540.00
             41357.51,14539.84 41341.52,14535.97 41331.04,14527.19
             41323.21,14520.63 41323.16,14515.38 41314.00,14509.86
             41300.74,14501.88 41290.27,14493.63 41278.00,14484.37
             41271.71,14479.63 41257.21,14468.38 41252.44,14462.96
             41238.45,14447.10 41241.48,14445.44 41233.88,14431.00
             41233.88,14431.00 41226.89,14419.00 41226.89,14419.00
             41226.89,14419.00 41215.96,14394.00 41215.96,14394.00
             41215.96,14394.00 41206.66,14348.00 41206.66,14348.00
             41206.66,14348.00 41200.32,14336.00 41200.32,14336.00
             41200.32,14336.00 41191.55,14317.00 41191.55,14317.00
             41191.55,14317.00 41162.25,14270.00 41162.25,14270.00
             41150.55,14246.60 41147.80,14246.73 41131.28,14228.00
             41131.28,14228.00 41098.83,14193.53 41098.83,14193.53
             41094.96,14190.23 41085.93,14186.37 41081.00,14183.69
             41081.00,14183.69 41070.00,14177.37 41070.00,14177.37
             41062.10,14173.48 41046.85,14169.11 41038.00,14169.00
             41038.00,14169.00 41008.00,14168.07 41008.00,14168.07
             41005.13,14168.54 40981.94,14178.41 40979.00,14180.21
             40979.00,14180.21 40946.00,14211.83 40946.00,14211.83
             40937.47,14219.44 40919.94,14231.25 40909.00,14234.56
             40896.13,14238.46 40888.11,14238.15 40875.00,14238.00
             40851.75,14237.72 40845.99,14227.67 40829.00,14220.03
             40829.00,14220.03 40808.00,14214.94 40808.00,14214.94
             40797.25,14210.87 40790.92,14204.73 40782.00,14198.15
             40777.14,14194.58 40769.15,14189.45 40765.53,14184.96
             40755.35,14172.35 40760.74,14163.47 40754.74,14151.00
             40754.74,14151.00 40744.09,14127.00 40744.09,14127.00
             40744.09,14127.00 40739.31,14110.00 40739.31,14110.00
             40739.31,14110.00 40729.20,14084.00 40729.20,14084.00
             40729.20,14084.00 40721.48,14056.00 40721.48,14056.00
             40721.48,14056.00 40715.05,14039.00 40715.05,14039.00
             40715.05,14039.00 40707.55,14018.00 40707.55,14018.00
             40707.55,14018.00 40703.69,14009.00 40703.69,14009.00
             40703.69,14009.00 40695.82,13984.00 40695.82,13984.00
             40692.60,13976.89 40686.44,13971.43 40681.00,13966.00
             40681.00,13966.00 40633.00,13926.91 40633.00,13926.91
             40620.01,13914.81 40620.30,13912.52 40610.83,13902.00
             40610.83,13902.00 40593.78,13883.00 40593.78,13883.00
             40593.78,13883.00 40577.79,13858.28 40577.79,13858.28
             40573.44,13854.24 40566.47,13854.59 40561.00,13852.96
             40549.99,13849.67 40541.01,13842.40 40537.93,13831.00
             40534.60,13818.71 40539.48,13810.55 40544.75,13800.00
             40544.75,13800.00 40551.86,13786.00 40551.86,13786.00
             40551.86,13786.00 40565.79,13760.00 40565.79,13760.00
             40565.79,13760.00 40577.30,13747.00 40577.30,13747.00
             40577.30,13747.00 40587.87,13726.00 40587.87,13726.00
             40587.87,13726.00 40597.46,13712.00 40597.46,13712.00
             40597.46,13712.00 40607.69,13694.00 40607.69,13694.00
             40607.69,13694.00 40622.30,13661.00 40622.30,13661.00
             40622.30,13661.00 40626.51,13647.00 40626.51,13647.00
             40626.51,13647.00 40631.97,13632.00 40631.97,13632.00
             40631.97,13632.00 40638.70,13609.00 40638.70,13609.00
             40638.70,13609.00 40646.69,13591.00 40646.69,13591.00
             40646.69,13591.00 40656.78,13568.00 40656.78,13568.00
             40656.78,13568.00 40667.57,13546.00 40667.57,13546.00
             40675.07,13528.47 40674.68,13517.35 40686.43,13501.00
             40691.82,13493.49 40703.63,13481.27 40711.00,13475.76
             40711.00,13475.76 40728.00,13464.48 40728.00,13464.48
             40728.00,13464.48 40753.00,13442.04 40753.00,13442.04
             40765.68,13433.08 40784.62,13429.02 40800.00,13429.00
             40800.00,13429.00 40825.00,13429.00 40825.00,13429.00
             40825.00,13429.00 40844.00,13428.00 40844.00,13428.00
             40844.00,13428.00 40899.00,13422.00 40899.00,13422.00
             40899.00,13422.00 40919.00,13422.00 40919.00,13422.00
             40919.00,13422.00 40933.00,13421.00 40933.00,13421.00
             40949.47,13420.81 40953.51,13418.37 40968.00,13416.30
             40968.00,13416.30 40995.00,13415.00 40995.00,13415.00
             40995.00,13415.00 41010.00,13414.00 41010.00,13414.00
             41010.00,13414.00 41124.00,13414.00 41124.00,13414.00
             41138.04,13413.97 41136.97,13405.93 41142.26,13395.00
             41142.26,13395.00 41170.25,13348.00 41170.25,13348.00
             41181.38,13325.78 41198.55,13312.40 41207.54,13298.00
             41211.24,13292.06 41217.07,13282.56 41218.84,13276.00
             41221.77,13265.19 41217.40,13264.83 41224.88,13252.00
             41234.34,13235.76 41258.91,13227.09 41277.00,13227.00
             41277.00,13227.00 41290.00,13227.00 41290.00,13227.00
             41308.53,13227.22 41316.26,13236.97 41334.00,13237.00
             41334.00,13237.00 41438.00,13237.00 41438.00,13237.00
             41438.00,13237.00 41467.00,13235.00 41467.00,13235.00
             41467.00,13235.00 41483.00,13235.00 41483.00,13235.00
             41493.55,13234.98 41510.31,13231.85 41521.00,13229.80
             41521.00,13229.80 41544.00,13225.23 41544.00,13225.23
             41544.00,13225.23 41566.00,13215.68 41566.00,13215.68
             41566.00,13215.68 41578.00,13209.45 41578.00,13209.45
             41591.93,13203.76 41596.85,13204.25 41611.00,13202.46 Z" />
</svg>
