<?xml version="1.0" encoding="UTF-8" standalone="no"?>
<!DOCTYPE svg PUBLIC "-//W3C//DTD SVG 20010904//EN"
              "http://www.w3.org/TR/2001/REC-SVG-20010904/DTD/svg10.dtd">

<svg xmlns="http://www.w3.org/2000/svg"
     width="1137.78in" height="1137.78in"
     viewBox="0 0 81920 81920">
  <path id="Selection"
        fill="none" stroke="black" stroke-width="1"
        d="M 47201.00,11755.00
           C 47201.00,11755.00 47211.31,11778.00 47211.31,11778.00
             47211.31,11778.00 47220.13,11796.00 47220.13,11796.00
             47220.13,11796.00 47235.58,11837.00 47235.58,11837.00
             47246.38,11865.88 47247.35,11882.80 47247.00,11913.00
             47246.53,11952.67 47223.18,11975.82 47197.00,12002.00
             47197.00,12002.00 47185.00,12013.71 47185.00,12013.71
             47185.00,12013.71 47166.00,12029.29 47166.00,12029.29
             47166.00,12029.29 47143.00,12048.56 47143.00,12048.56
             47143.00,12048.56 47106.00,12069.86 47106.00,12069.86
             47106.00,12069.86 47076.00,12087.69 47076.00,12087.69
             47076.00,12087.69 47036.00,12105.31 47036.00,12105.31
             47017.08,12115.50 46993.61,12136.00 46980.65,12153.00
             46976.56,12158.37 46965.09,12177.02 46962.44,12183.00
             46962.44,12183.00 46953.14,12208.00 46953.14,12208.00
             46953.14,12208.00 46944.86,12224.00 46944.86,12224.00
             46944.86,12224.00 46936.57,12245.00 46936.57,12245.00
             46936.57,12245.00 46928.44,12261.00 46928.44,12261.00
             46928.44,12261.00 46918.58,12286.00 46918.58,12286.00
             46913.15,12298.91 46910.10,12301.31 46904.31,12312.00
             46904.31,12312.00 46896.13,12328.00 46896.13,12328.00
             46896.13,12328.00 46888.97,12340.00 46888.97,12340.00
             46888.97,12340.00 46883.40,12354.00 46883.40,12354.00
             46883.40,12354.00 46866.69,12396.00 46866.69,12396.00
             46866.69,12396.00 46850.55,12427.00 46850.55,12427.00
             46850.55,12427.00 46841.99,12441.00 46841.99,12441.00
             46841.99,12441.00 46835.57,12457.00 46835.57,12457.00
             46835.57,12457.00 46828.03,12472.00 46828.03,12472.00
             46828.03,12472.00 46818.89,12493.00 46818.89,12493.00
             46813.43,12503.56 46803.57,12517.05 46795.71,12526.00
             46789.75,12532.80 46783.56,12537.24 46777.00,12543.17
             46777.00,12543.17 46767.00,12552.71 46767.00,12552.71
             46752.91,12564.97 46736.00,12575.38 46720.00,12585.00
             46720.00,12585.00 46698.00,12598.55 46698.00,12598.55
             46698.00,12598.55 46680.00,12608.31 46680.00,12608.31
             46680.00,12608.31 46669.00,12614.74 46669.00,12614.74
             46669.00,12614.74 46616.00,12640.74 46616.00,12640.74
             46616.00,12640.74 46600.00,12648.26 46600.00,12648.26
             46600.00,12648.26 46574.00,12665.00 46574.00,12665.00
             46574.00,12665.00 46530.00,12691.74 46530.00,12691.74
             46505.22,12704.53 46481.18,12711.16 46458.00,12728.15
             46445.89,12737.03 46445.34,12739.77 46435.96,12748.91
             46435.96,12748.91 46420.00,12762.73 46420.00,12762.73
             46420.00,12762.73 46359.00,12813.75 46359.00,12813.75
             46359.00,12813.75 46336.00,12832.44 46336.00,12832.44
             46326.83,12840.27 46322.08,12851.83 46312.00,12860.71
             46291.33,12878.90 46259.60,12890.96 46232.00,12891.00
             46232.00,12891.00 46219.00,12891.00 46219.00,12891.00
             46219.00,12891.00 46209.00,12890.09 46209.00,12890.09
             46188.44,12888.59 46167.76,12886.12 46148.00,12879.98
             46148.00,12879.98 46116.00,12867.01 46116.00,12867.01
             46116.00,12867.01 46085.00,12854.69 46085.00,12854.69
             46085.00,12854.69 46069.00,12846.31 46069.00,12846.31
             46069.00,12846.31 46055.00,12840.69 46055.00,12840.69
             46055.00,12840.69 46043.00,12834.32 46043.00,12834.32
             46043.00,12834.32 46027.00,12827.22 46027.00,12827.22
             46027.00,12827.22 46003.00,12815.26 46003.00,12815.26
             46003.00,12815.26 45993.00,12810.68 45993.00,12810.68
             45993.00,12810.68 45974.00,12798.69 45974.00,12798.69
             45974.00,12798.69 45955.00,12786.92 45955.00,12786.92
             45955.00,12786.92 45942.00,12777.44 45942.00,12777.44
             45942.00,12777.44 45929.00,12769.31 45929.00,12769.31
             45929.00,12769.31 45915.00,12759.52 45915.00,12759.52
             45915.00,12759.52 45894.00,12746.80 45894.00,12746.80
             45894.00,12746.80 45867.00,12727.09 45867.00,12727.09
             45867.00,12727.09 45848.00,12715.70 45848.00,12715.70
             45848.00,12715.70 45810.00,12685.21 45810.00,12685.21
             45810.00,12685.21 45757.00,12647.00 45757.00,12647.00
             45757.00,12647.00 45719.00,12626.74 45719.00,12626.74
             45719.00,12626.74 45679.00,12605.86 45679.00,12605.86
             45679.00,12605.86 45641.00,12591.55 45641.00,12591.55
             45641.00,12591.55 45618.00,12581.45 45618.00,12581.45
             45618.00,12581.45 45602.00,12575.55 45602.00,12575.55
             45602.00,12575.55 45581.00,12566.42 45581.00,12566.42
             45581.00,12566.42 45563.00,12559.14 45563.00,12559.14
             45563.00,12559.14 45537.43,12545.37 45537.43,12545.37
             45534.94,12543.28 45529.71,12536.79 45527.42,12534.00
             45525.22,12531.31 45520.80,12526.13 45519.73,12523.00
             45518.12,12518.31 45520.73,12514.07 45522.75,12510.00
             45527.72,12500.03 45537.09,12486.80 45526.90,12477.21
             45524.92,12475.35 45522.53,12473.93 45520.00,12472.95
             45517.00,12471.80 45513.21,12471.08 45510.00,12471.32
             45489.92,12472.83 45471.52,12475.59 45462.31,12496.00
             45457.96,12505.66 45459.84,12512.35 45457.98,12515.99
             45455.39,12521.03 45449.18,12522.61 45445.36,12529.01
             45445.36,12529.01 45438.69,12545.00 45438.69,12545.00
             45435.36,12552.33 45427.67,12564.45 45422.84,12571.00
             45422.84,12571.00 45399.03,12600.00 45399.03,12600.00
             45399.03,12600.00 45381.44,12636.00 45381.44,12636.00
             45381.44,12636.00 45337.60,12693.00 45337.60,12693.00
             45337.60,12693.00 45327.83,12704.99 45327.83,12704.99
             45320.34,12713.11 45302.40,12728.02 45293.00,12734.33
             45287.90,12737.75 45277.60,12744.36 45272.00,12746.10
             45265.74,12748.04 45257.56,12745.79 45251.00,12745.00
             45251.00,12745.00 45241.00,12745.00 45241.00,12745.00
             45241.00,12745.00 45233.00,12743.11 45233.00,12743.11
             45233.00,12743.11 45222.00,12743.11 45222.00,12743.11
             45222.00,12743.11 45203.00,12741.00 45203.00,12741.00
             45203.00,12741.00 45193.00,12741.00 45193.00,12741.00
             45193.00,12741.00 45165.00,12739.00 45165.00,12739.00
             45165.00,12739.00 45122.00,12738.00 45122.00,12738.00
             45122.00,12738.00 45090.00,12740.83 45090.00,12740.83
             45090.00,12740.83 45073.00,12742.17 45073.00,12742.17
             45073.00,12742.17 45054.00,12744.00 45054.00,12744.00
             45051.26,12744.03 45047.63,12744.10 45045.00,12743.47
             45037.35,12741.65 45025.93,12730.43 45020.00,12724.91
             45012.34,12717.79 45004.16,12710.90 44997.29,12703.00
             44997.29,12703.00 44976.93,12675.00 44976.93,12675.00
             44976.93,12675.00 44970.40,12663.00 44970.40,12663.00
             44970.40,12663.00 44928.00,12599.00 44928.00,12599.00
             44928.00,12599.00 44913.31,12577.00 44913.31,12577.00
             44913.31,12577.00 44886.19,12515.00 44886.19,12515.00
             44886.19,12515.00 44876.31,12499.00 44876.31,12499.00
             44873.06,12493.02 44869.66,12485.04 44863.96,12481.11
             44857.98,12476.97 44848.19,12476.09 44841.00,12476.00
             44841.00,12476.00 44819.00,12476.00 44819.00,12476.00
             44819.00,12476.00 44802.00,12475.00 44802.00,12475.00
             44802.00,12475.00 44781.00,12475.00 44781.00,12475.00
             44781.00,12475.00 44751.00,12477.00 44751.00,12477.00
             44751.00,12477.00 44654.00,12477.00 44654.00,12477.00
             44654.00,12477.00 44632.00,12478.28 44632.00,12478.28
             44632.00,12478.28 44606.00,12481.00 44606.00,12481.00
             44606.00,12481.00 44578.00,12480.00 44578.00,12480.00
             44568.25,12479.88 44547.74,12475.98 44540.09,12482.39
             44536.57,12485.34 44531.66,12493.75 44528.33,12498.00
             44528.33,12498.00 44512.61,12517.00 44512.61,12517.00
             44509.72,12521.87 44510.40,12524.97 44508.32,12528.99
             44504.53,12536.29 44495.68,12538.90 44488.00,12539.00
             44484.62,12539.04 44480.12,12539.26 44477.00,12537.99
             44469.96,12535.15 44455.12,12516.66 44447.00,12510.78
             44447.00,12510.78 44439.00,12505.51 44439.00,12505.51
             44439.00,12505.51 44421.00,12491.87 44421.00,12491.87
             44416.95,12488.83 44410.45,12484.56 44407.33,12480.96
             44407.33,12480.96 44384.48,12444.00 44384.48,12444.00
             44375.44,12430.52 44366.85,12422.55 44356.09,12411.00
             44356.09,12411.00 44337.91,12390.59 44337.91,12390.59
             44326.64,12380.40 44314.04,12376.68 44300.00,12372.00
             44300.00,12372.00 44278.00,12364.90 44278.00,12364.90
             44268.87,12362.73 44268.86,12366.87 44259.00,12362.66
             44259.00,12362.66 44236.00,12351.31 44236.00,12351.31
             44236.00,12351.31 44223.00,12346.14 44223.00,12346.14
             44223.00,12346.14 44208.00,12339.01 44208.00,12339.01
             44208.00,12339.01 44192.00,12332.69 44192.00,12332.69
             44192.00,12332.69 44175.00,12323.86 44175.00,12323.86
             44175.00,12323.86 44139.00,12310.02 44139.00,12310.02
             44139.00,12310.02 44119.00,12298.89 44119.00,12298.89
             44119.00,12298.89 44094.00,12287.42 44094.00,12287.42
             44094.00,12287.42 44076.00,12279.63 44076.00,12279.63
             44067.69,12275.48 44046.26,12262.02 44039.00,12256.33
             44028.17,12247.85 44011.38,12232.08 44003.43,12221.00
             43996.50,12211.36 43992.02,12201.52 43986.75,12191.00
             43986.75,12191.00 43977.92,12173.00 43977.92,12173.00
             43977.92,12173.00 43967.94,12140.00 43967.94,12140.00
             43967.94,12140.00 43957.06,12117.00 43957.06,12117.00
             43957.06,12117.00 43952.13,12101.00 43952.13,12101.00
             43948.46,12092.29 43935.95,12068.09 43930.47,12061.00
             43926.12,12055.36 43918.15,12047.15 43913.00,12042.00
             43907.44,12036.44 43899.92,12028.22 43893.00,12024.67
             43885.49,12020.82 43863.83,12019.01 43855.00,12019.00
             43855.00,12019.00 43783.00,12019.00 43783.00,12019.00
             43783.00,12019.00 43741.00,12014.15 43741.00,12014.15
             43741.00,12014.15 43647.00,12001.13 43647.00,12001.13
             43621.29,11997.55 43578.70,11994.36 43556.00,11984.57
             43547.56,11980.93 43540.44,11975.48 43534.00,11969.00
             43529.77,11964.73 43526.17,11959.46 43521.00,11956.35
             43521.00,11956.35 43494.00,11943.69 43494.00,11943.69
             43494.00,11943.69 43466.00,11929.26 43466.00,11929.26
             43466.00,11929.26 43444.00,11918.13 43444.00,11918.13
             43444.00,11918.13 43415.00,11899.42 43415.00,11899.42
             43415.00,11899.42 43386.00,11881.97 43386.00,11881.97
             43386.00,11881.97 43359.00,11863.66 43359.00,11863.66
             43359.00,11863.66 43346.00,11854.86 43346.00,11854.86
             43330.97,11846.08 43324.70,11846.53 43310.00,11841.30
             43310.00,11841.30 43279.00,11828.72 43279.00,11828.72
             43279.00,11828.72 43254.00,11821.77 43254.00,11821.77
             43254.00,11821.77 43218.00,11804.13 43218.00,11804.13
             43218.00,11804.13 43197.00,11791.31 43197.00,11791.31
             43197.00,11791.31 43184.00,11784.57 43184.00,11784.57
             43184.00,11784.57 43150.00,11763.42 43150.00,11763.42
             43150.00,11763.42 43121.00,11744.96 43121.00,11744.96
             43121.00,11744.96 43109.00,11735.74 43109.00,11735.74
             43109.00,11735.74 43080.00,11713.83 43080.00,11713.83
             43058.67,11694.89 43035.09,11669.61 43020.45,11645.00
             43020.45,11645.00 43008.75,11622.00 43008.75,11622.00
             43008.75,11622.00 43000.45,11605.00 43000.45,11605.00
             43000.45,11605.00 42993.43,11585.00 42993.43,11585.00
             42993.43,11585.00 42990.79,11574.00 42990.79,11574.00
             42990.79,11574.00 42982.42,11548.00 42982.42,11548.00
             42982.42,11548.00 42975.52,11512.00 42975.52,11512.00
             42975.52,11512.00 42968.15,11489.00 42968.15,11489.00
             42968.15,11489.00 42961.77,11457.00 42961.77,11457.00
             42961.77,11457.00 42951.42,11419.00 42951.42,11419.00
             42951.42,11419.00 42941.39,11363.00 42941.39,11363.00
             42941.39,11363.00 42931.15,11325.00 42931.15,11325.00
             42931.15,11325.00 42927.11,11307.00 42927.11,11307.00
             42927.11,11307.00 42922.45,11290.00 42922.45,11290.00
             42922.45,11290.00 42919.39,11270.00 42919.39,11270.00
             42917.35,11258.73 42914.02,11247.51 42914.00,11236.00
             42914.00,11236.00 42914.00,11087.00 42914.00,11087.00
             42914.00,11087.00 42918.00,11046.00 42918.00,11046.00
             42918.00,11046.00 42918.00,11036.00 42918.00,11036.00
             42918.02,11024.34 42920.44,11020.67 42923.11,11010.00
             42923.11,11010.00 42927.50,10988.00 42927.50,10988.00
             42927.50,10988.00 42933.39,10965.00 42933.39,10965.00
             42933.39,10965.00 42937.27,10934.00 42937.27,10934.00
             42937.27,10934.00 42943.92,10897.00 42943.92,10897.00
             42943.92,10897.00 42952.45,10846.00 42952.45,10846.00
             42952.45,10846.00 42959.74,10817.00 42959.74,10817.00
             42959.74,10817.00 42970.57,10761.00 42970.57,10761.00
             42970.57,10761.00 42976.80,10745.00 42976.80,10745.00
             42976.80,10745.00 42989.49,10708.00 42989.49,10708.00
             42989.49,10708.00 42994.28,10671.00 42994.28,10671.00
             42994.28,10671.00 42999.15,10632.00 42999.15,10632.00
             42999.79,10626.66 43001.16,10619.16 43000.96,10614.00
             43000.96,10614.00 43000.00,10599.00 43000.00,10599.00
             42999.87,10588.32 42993.49,10567.07 42987.93,10558.00
             42987.93,10558.00 42969.61,10531.00 42969.61,10531.00
             42969.61,10531.00 42961.14,10511.00 42961.14,10511.00
             42961.14,10511.00 42950.06,10487.00 42950.06,10487.00
             42950.06,10487.00 42945.66,10473.00 42945.66,10473.00
             42943.94,10468.10 42936.79,10453.46 42934.07,10449.00
             42928.93,10440.55 42922.76,10436.50 42915.00,10430.85
             42912.05,10428.70 42908.48,10425.72 42905.00,10424.65
             42902.55,10423.89 42899.56,10424.00 42897.00,10424.00
             42897.00,10424.00 42795.00,10424.00 42795.00,10424.00
             42795.00,10424.00 42783.00,10423.09 42783.00,10423.09
             42783.00,10423.09 42754.00,10422.00 42754.00,10422.00
             42742.79,10421.87 42719.76,10417.55 42708.00,10415.42
             42671.50,10408.84 42668.14,10408.56 42633.00,10395.19
             42622.46,10391.18 42611.73,10387.35 42602.00,10381.55
             42602.00,10381.55 42583.00,10366.89 42583.00,10366.89
             42583.00,10366.89 42560.00,10350.68 42560.00,10350.68
             42560.00,10350.68 42542.00,10335.04 42542.00,10335.04
             42542.00,10335.04 42517.00,10318.95 42517.00,10318.95
             42517.00,10318.95 42504.00,10310.45 42504.00,10310.45
             42504.00,10310.45 42485.00,10299.14 42485.00,10299.14
             42485.00,10299.14 42457.00,10280.26 42457.00,10280.26
             42457.00,10280.26 42433.00,10263.00 42433.00,10263.00
             42433.00,10263.00 42412.00,10249.50 42412.00,10249.50
             42412.00,10249.50 42399.00,10240.87 42399.00,10240.87
             42399.00,10240.87 42356.00,10216.58 42356.00,10216.58
             42356.00,10216.58 42328.00,10198.48 42328.00,10198.48
             42328.00,10198.48 42313.00,10188.31 42313.00,10188.31
             42313.00,10188.31 42278.00,10170.14 42278.00,10170.14
             42278.00,10170.14 42260.00,10158.90 42260.00,10158.90
             42260.00,10158.90 42249.00,10153.74 42249.00,10153.74
             42249.00,10153.74 42211.00,10131.78 42211.00,10131.78
             42211.00,10131.78 42190.00,10113.00 42190.00,10113.00
             42182.84,10105.89 42164.46,10083.72 42160.32,10075.00
             42155.11,10064.04 42154.31,10056.00 42150.81,10045.00
             42150.81,10045.00 42143.46,10024.00 42143.46,10024.00
             42143.46,10024.00 42134.95,9981.00 42134.95,9981.00
             42134.95,9981.00 42120.12,9952.00 42120.12,9952.00
             42120.12,9952.00 42097.16,9922.00 42097.16,9922.00
             42097.16,9922.00 42078.33,9895.00 42078.33,9895.00
             42078.33,9895.00 42062.46,9877.00 42062.46,9877.00
             42062.46,9877.00 42051.83,9863.00 42051.83,9863.00
             42051.83,9863.00 42037.04,9848.00 42037.04,9848.00
             42030.11,9840.75 42013.16,9820.38 42008.51,9812.00
             42008.51,9812.00 42000.14,9792.00 42000.14,9792.00
             42000.14,9792.00 41988.00,9766.00 41988.00,9766.00
             41988.00,9766.00 41982.35,9741.00 41982.35,9741.00
             41982.35,9741.00 41977.24,9723.00 41977.24,9723.00
             41977.24,9723.00 41968.43,9673.00 41968.43,9673.00
             41968.43,9673.00 41966.73,9654.00 41966.73,9654.00
             41966.73,9654.00 41957.58,9601.00 41957.58,9601.00
             41955.19,9587.77 41952.15,9574.46 41952.00,9561.00
             41952.00,9561.00 41950.00,9536.00 41950.00,9536.00
             41950.00,9536.00 41950.00,9435.00 41950.00,9435.00
             41950.00,9435.00 41951.91,9416.00 41951.91,9416.00
             41952.97,9400.57 41953.61,9385.10 41957.48,9370.00
             41957.48,9370.00 41968.33,9336.00 41968.33,9336.00
             41968.33,9336.00 41981.34,9296.00 41981.34,9296.00
             41981.34,9296.00 41988.56,9276.00 41988.56,9276.00
             41988.56,9276.00 41992.73,9245.00 41992.73,9245.00
             41997.72,9226.15 42004.51,9223.32 42007.78,9213.00
             42007.78,9213.00 42013.50,9184.00 42013.50,9184.00
             42013.50,9184.00 42021.33,9160.00 42021.33,9160.00
             42021.33,9160.00 42033.43,9125.00 42033.43,9125.00
             42040.50,9108.46 42050.99,9099.24 42059.13,9085.00
             42059.13,9085.00 42070.37,9061.00 42070.37,9061.00
             42070.37,9061.00 42080.57,9044.00 42080.57,9044.00
             42080.57,9044.00 42088.93,9028.00 42088.93,9028.00
             42088.93,9028.00 42112.58,8996.00 42112.58,8996.00
             42116.10,8991.12 42120.88,8985.12 42123.69,8980.00
             42130.93,8966.82 42129.62,8963.42 42141.29,8950.00
             42151.12,8938.69 42163.62,8930.25 42176.00,8922.00
             42202.96,8904.03 42239.80,8884.05 42273.00,8884.00
             42273.00,8884.00 42293.00,8884.00 42293.00,8884.00
             42293.00,8884.00 42332.00,8888.00 42332.00,8888.00
             42332.00,8888.00 42344.00,8888.00 42344.00,8888.00
             42365.88,8888.03 42395.45,8897.98 42410.00,8898.00
             42432.15,8898.03 42453.72,8898.09 42475.00,8891.00
             42475.00,8891.00 42506.00,8880.50 42506.00,8880.50
             42511.82,8878.49 42518.41,8876.90 42522.44,8871.91
             42526.49,8866.90 42526.69,8860.85 42528.44,8855.00
             42531.78,8843.84 42535.81,8842.29 42536.00,8826.00
             42536.00,8826.00 42536.00,8819.00 42536.00,8819.00
             42536.00,8819.00 42540.00,8777.00 42540.00,8777.00
             42540.00,8777.00 42540.00,8738.00 42540.00,8738.00
             42540.00,8738.00 42538.00,8709.00 42538.00,8709.00
             42537.90,8701.13 42535.65,8692.79 42534.44,8685.00
             42533.43,8678.53 42534.45,8672.66 42532.40,8665.00
             42532.40,8665.00 42526.69,8650.00 42526.69,8650.00
             42526.69,8650.00 42519.25,8624.00 42519.25,8624.00
             42519.25,8624.00 42512.21,8606.00 42512.21,8606.00
             42512.21,8606.00 42505.58,8573.00 42505.58,8573.00
             42503.30,8562.85 42498.37,8549.20 42498.04,8539.00
             42497.82,8532.08 42500.43,8526.79 42500.91,8520.00
             42500.91,8520.00 42504.09,8476.00 42504.09,8476.00
             42504.09,8476.00 42505.95,8456.00 42505.95,8456.00
             42505.95,8456.00 42505.95,8438.00 42505.95,8438.00
             42505.95,8438.00 42505.00,8425.00 42505.00,8425.00
             42505.00,8425.00 42505.00,8406.00 42505.00,8406.00
             42505.00,8406.00 42507.83,8377.00 42507.83,8377.00
             42507.83,8377.00 42509.28,8358.00 42509.28,8358.00
             42510.48,8348.04 42511.98,8342.48 42512.00,8332.00
             42512.01,8326.34 42513.61,8310.36 42514.90,8305.00
             42514.90,8305.00 42520.19,8287.00 42520.19,8287.00
             42521.65,8279.67 42522.08,8268.57 42522.00,8261.00
             42522.00,8261.00 42521.00,8247.00 42521.00,8247.00
             42521.00,8247.00 42521.00,8220.00 42521.00,8220.00
             42521.00,8220.00 42520.05,8210.00 42520.05,8210.00
             42520.05,8210.00 42520.05,8198.00 42520.05,8198.00
             42520.05,8198.00 42521.00,8183.00 42521.00,8183.00
             42521.00,8183.00 42521.00,8123.00 42521.00,8123.00
             42521.00,8123.00 42520.00,8101.00 42520.00,8101.00
             42520.00,8101.00 42517.57,8064.00 42517.57,8064.00
             42517.57,8064.00 42511.00,8019.00 42511.00,8019.00
             42511.00,8019.00 42511.91,8006.00 42511.91,8006.00
             42511.91,8006.00 42513.00,7976.00 42513.00,7976.00
             42512.90,7968.39 42510.81,7962.36 42503.00,7959.52
             42497.84,7957.64 42490.44,7960.84 42484.00,7960.99
             42481.14,7961.05 42477.73,7961.06 42475.00,7960.20
             42467.34,7957.79 42463.87,7950.32 42467.27,7943.00
             42467.27,7943.00 42474.31,7932.00 42474.31,7932.00
             42474.31,7932.00 42481.22,7920.00 42481.22,7920.00
             42481.22,7920.00 42497.13,7899.00 42497.13,7899.00
             42497.13,7899.00 42517.88,7869.00 42517.88,7869.00
             42520.58,7865.34 42524.94,7859.42 42528.17,7856.46
             42528.17,7856.46 42541.57,7845.70 42541.57,7845.70
             42547.42,7839.85 42563.14,7818.45 42567.91,7811.00
             42567.91,7811.00 42583.06,7784.00 42583.06,7784.00
             42583.06,7784.00 42601.67,7756.00 42601.67,7756.00
             42601.67,7756.00 42634.66,7706.00 42634.66,7706.00
             42648.91,7684.16 42659.20,7664.05 42681.00,7648.43
             42704.02,7631.93 42733.13,7625.87 42761.00,7626.00
             42768.79,7626.04 42781.45,7628.29 42789.00,7630.43
             42795.62,7632.30 42798.91,7634.81 42806.00,7634.99
             42806.00,7634.99 42849.00,7631.17 42849.00,7631.17
             42849.00,7631.17 42900.00,7626.57 42900.00,7626.57
             42914.95,7624.42 42929.80,7620.02 42945.00,7620.00
             42945.00,7620.00 42984.00,7620.00 42984.00,7620.00
             42988.28,7619.99 42992.13,7620.14 42996.00,7617.91
             43001.36,7614.82 43003.68,7609.42 43006.00,7604.00
             43006.00,7604.00 43015.89,7581.00 43015.89,7581.00
             43021.15,7569.88 43030.24,7561.19 43036.90,7551.00
             43042.07,7543.10 43045.27,7533.86 43048.34,7525.00
             43050.35,7519.23 43052.38,7514.17 43055.70,7509.00
             43058.35,7504.87 43063.05,7499.31 43064.58,7495.00
             43066.20,7490.45 43065.95,7485.74 43066.00,7481.00
             43066.10,7473.02 43068.84,7465.49 43071.33,7458.00
             43076.67,7442.00 43082.67,7426.13 43095.04,7414.09
             43106.85,7402.59 43118.37,7397.73 43132.00,7389.55
             43132.00,7389.55 43147.00,7380.31 43147.00,7380.31
             43163.26,7371.39 43187.38,7364.03 43206.00,7364.00
             43206.00,7364.00 43262.00,7364.00 43262.00,7364.00
             43283.51,7364.03 43315.82,7374.90 43336.00,7375.00
             43336.00,7375.00 43388.00,7375.00 43388.00,7375.00
             43400.62,7374.98 43408.22,7371.84 43420.00,7368.73
             43430.17,7366.05 43451.53,7362.57 43458.91,7355.79
             43462.24,7352.73 43465.04,7347.75 43467.74,7344.00
             43474.18,7335.10 43476.77,7333.91 43481.69,7323.00
             43485.48,7314.59 43486.30,7309.49 43491.69,7301.00
             43491.69,7301.00 43510.30,7274.00 43510.30,7274.00
             43510.30,7274.00 43523.75,7251.00 43523.75,7251.00
             43523.75,7251.00 43537.40,7233.00 43537.40,7233.00
             43537.40,7233.00 43549.04,7211.00 43549.04,7211.00
             43549.04,7211.00 43573.65,7181.00 43573.65,7181.00
             43589.35,7158.18 43598.65,7139.41 43619.04,7119.04
             43638.62,7099.46 43674.19,7084.33 43702.00,7084.00
             43702.00,7084.00 43746.00,7084.00 43746.00,7084.00
             43761.19,7084.02 43790.86,7090.66 43807.00,7093.58
             43807.00,7093.58 43842.00,7100.16 43842.00,7100.16
             43842.00,7100.16 43870.00,7110.48 43870.00,7110.48
             43870.00,7110.48 43895.00,7116.38 43895.00,7116.38
             43902.57,7118.35 43926.21,7127.29 43933.00,7130.89
             43950.04,7139.93 43973.31,7163.93 43985.68,7179.00
             43985.68,7179.00 43999.53,7200.00 43999.53,7200.00
             44005.24,7207.39 44011.50,7211.90 44016.48,7221.00
             44016.48,7221.00 44032.19,7260.00 44032.19,7260.00
             44032.19,7260.00 44038.45,7277.00 44038.45,7277.00
             44038.45,7277.00 44045.13,7292.00 44045.13,7292.00
             44049.09,7301.31 44050.00,7306.79 44059.00,7313.21
             44063.44,7316.38 44070.78,7318.92 44076.00,7321.00
             44076.00,7321.00 44106.00,7332.33 44106.00,7332.33
             44106.00,7332.33 44130.00,7340.34 44130.00,7340.34
             44130.00,7340.34 44141.00,7344.25 44141.00,7344.25
             44155.38,7348.29 44182.03,7352.17 44197.00,7352.00
             44197.00,7352.00 44240.00,7348.00 44240.00,7348.00
             44240.00,7348.00 44302.00,7348.00 44302.00,7348.00
             44319.56,7348.03 44329.82,7352.93 44346.00,7356.58
             44360.18,7359.77 44374.87,7362.86 44388.00,7369.26
             44402.14,7376.15 44415.27,7386.12 44421.54,7401.00
             44421.54,7401.00 44427.91,7423.00 44427.91,7423.00
             44430.67,7428.96 44436.87,7434.69 44440.25,7445.00
             44440.25,7445.00 44444.95,7465.00 44444.95,7465.00
             44451.11,7479.67 44472.73,7500.98 44483.91,7513.00
             44483.91,7513.00 44511.08,7551.00 44511.08,7551.00
             44511.08,7551.00 44522.31,7576.00 44522.31,7576.00
             44522.31,7576.00 44532.70,7595.00 44532.70,7595.00
             44536.65,7602.19 44541.41,7611.29 44548.01,7616.29
             44554.84,7621.46 44558.43,7619.45 44566.00,7620.17
             44566.00,7620.17 44602.00,7624.00 44602.00,7624.00
             44602.00,7624.00 44751.00,7624.00 44751.00,7624.00
             44767.21,7624.19 44778.10,7629.24 44793.00,7632.76
             44810.25,7636.85 44828.73,7637.71 44845.00,7645.32
             44859.20,7651.97 44878.81,7669.44 44888.08,7682.00
             44888.08,7682.00 44903.43,7706.00 44903.43,7706.00
             44903.43,7706.00 44916.07,7724.00 44916.07,7724.00
             44916.07,7724.00 44923.09,7739.00 44923.09,7739.00
             44927.49,7746.46 44930.77,7748.66 44934.55,7758.00
             44939.15,7769.41 44936.32,7775.08 44945.67,7785.83
             44945.67,7785.83 44955.00,7795.00 44955.00,7795.00
             44955.00,7795.00 44973.00,7812.91 44973.00,7812.91
             44973.00,7812.91 44984.96,7823.28 44984.96,7823.28
             44984.96,7823.28 45000.00,7838.68 45000.00,7838.68
             45000.00,7838.68 45014.00,7848.48 45014.00,7848.48
             45014.00,7848.48 45030.00,7861.23 45030.00,7861.23
             45030.00,7861.23 45043.00,7868.45 45043.00,7868.45
             45043.00,7868.45 45060.00,7879.49 45060.00,7879.49
             45060.00,7879.49 45074.00,7885.97 45074.00,7885.97
             45074.00,7885.97 45103.00,7903.15 45103.00,7903.15
             45103.00,7903.15 45130.00,7906.42 45130.00,7906.42
             45130.00,7906.42 45181.00,7912.00 45181.00,7912.00
             45181.00,7912.00 45207.00,7912.00 45207.00,7912.00
             45207.00,7912.00 45239.00,7908.00 45239.00,7908.00
             45239.00,7908.00 45250.00,7908.00 45250.00,7908.00
             45262.75,7906.61 45288.94,7901.67 45300.00,7896.01
             45300.00,7896.01 45322.00,7878.08 45322.00,7878.08
             45339.55,7863.46 45334.86,7865.90 45348.17,7851.00
             45348.17,7851.00 45361.82,7837.00 45361.82,7837.00
             45365.81,7832.45 45376.84,7814.65 45379.63,7809.00
             45379.63,7809.00 45387.05,7789.00 45387.05,7789.00
             45387.05,7789.00 45403.98,7749.00 45403.98,7749.00
             45403.98,7749.00 45425.90,7716.00 45425.90,7716.00
             45425.90,7716.00 45436.44,7703.00 45436.44,7703.00
             45436.44,7703.00 45443.12,7689.00 45443.12,7689.00
             45447.21,7681.29 45453.63,7673.02 45460.00,7667.09
             45473.08,7654.91 45495.53,7643.86 45513.00,7639.89
             45513.00,7639.89 45541.00,7635.11 45541.00,7635.11
             45558.25,7631.14 45584.64,7624.21 45602.00,7624.00
             45602.00,7624.00 45612.00,7624.00 45612.00,7624.00
             45612.00,7624.00 45655.00,7620.00 45655.00,7620.00
             45655.00,7620.00 45729.00,7620.00 45729.00,7620.00
             45729.00,7620.00 45770.00,7624.00 45770.00,7624.00
             45770.00,7624.00 45827.00,7624.00 45827.00,7624.00
             45839.89,7624.02 45859.56,7628.10 45871.00,7633.98
             45871.00,7633.98 45891.00,7647.13 45891.00,7647.13
             45891.00,7647.13 45911.00,7657.45 45911.00,7657.45
             45918.58,7661.97 45923.28,7666.92 45930.00,7672.11
             45930.00,7672.11 45953.00,7690.04 45953.00,7690.04
             45961.69,7698.34 45968.72,7707.85 45976.44,7717.00
             45976.44,7717.00 45989.56,7731.00 45989.56,7731.00
             45989.56,7731.00 46001.04,7744.96 46001.04,7744.96
             46011.56,7755.48 46026.66,7760.00 46039.00,7768.36
             46049.02,7775.14 46053.47,7781.56 46061.00,7787.48
             46067.17,7792.34 46072.47,7794.22 46079.00,7797.86
             46079.00,7797.86 46095.00,7807.33 46095.00,7807.33
             46099.60,7809.56 46107.71,7810.54 46113.00,7811.60
             46113.00,7811.60 46155.00,7819.23 46155.00,7819.23
             46155.00,7819.23 46174.00,7824.35 46174.00,7824.35
             46174.00,7824.35 46196.00,7829.36 46196.00,7829.36
             46196.00,7829.36 46215.00,7837.00 46215.00,7837.00
             46215.00,7837.00 46240.00,7846.60 46240.00,7846.60
             46240.00,7846.60 46274.00,7860.49 46274.00,7860.49
             46281.48,7864.46 46285.30,7868.35 46292.00,7872.98
             46292.00,7872.98 46313.00,7886.58 46313.00,7886.58
             46325.84,7894.57 46334.57,7896.15 46345.91,7907.17
             46354.28,7915.30 46354.65,7919.81 46359.79,7927.00
             46359.79,7927.00 46380.04,7949.71 46380.04,7949.71
             46387.07,7956.11 46395.32,7961.18 46403.00,7966.74
             46403.00,7966.74 46420.00,7980.25 46420.00,7980.25
             46420.00,7980.25 46442.00,7995.43 46442.00,7995.43
             46442.00,7995.43 46456.00,8006.50 46456.00,8006.50
             46456.00,8006.50 46494.00,8033.54 46494.00,8033.54
             46503.87,8039.55 46511.50,8040.72 46520.00,8044.97
             46520.00,8044.97 46533.00,8052.58 46533.00,8052.58
             46540.97,8057.20 46549.43,8061.68 46558.00,8065.08
             46558.00,8065.08 46590.00,8075.71 46590.00,8075.71
             46590.00,8075.71 46605.00,8078.74 46605.00,8078.74
             46605.00,8078.74 46626.00,8084.53 46626.00,8084.53
             46626.00,8084.53 46642.00,8088.01 46642.00,8088.01
             46642.00,8088.01 46668.00,8098.25 46668.00,8098.25
             46668.00,8098.25 46691.00,8104.77 46691.00,8104.77
             46702.34,8107.41 46712.35,8108.24 46723.00,8113.89
             46723.00,8113.89 46739.00,8123.57 46739.00,8123.57
             46739.00,8123.57 46754.00,8131.43 46754.00,8131.43
             46754.00,8131.43 46793.00,8156.00 46793.00,8156.00
             46793.00,8156.00 46817.00,8172.91 46817.00,8172.91
             46817.00,8172.91 46830.00,8179.87 46830.00,8179.87
             46830.00,8179.87 46858.00,8197.60 46858.00,8197.60
             46858.00,8197.60 46887.00,8222.47 46887.00,8222.47
             46887.00,8222.47 46903.00,8232.75 46903.00,8232.75
             46903.00,8232.75 46918.00,8244.53 46918.00,8244.53
             46924.95,8248.85 46927.81,8248.40 46939.00,8256.03
             46939.00,8256.03 46960.00,8271.42 46960.00,8271.42
             46960.00,8271.42 46970.00,8279.38 46970.00,8279.38
             46970.00,8279.38 46991.00,8292.05 46991.00,8292.05
             46991.00,8292.05 47014.00,8307.54 47014.00,8307.54
             47014.00,8307.54 47024.00,8313.01 47024.00,8313.01
             47024.00,8313.01 47037.00,8320.63 47037.00,8320.63
             47037.00,8320.63 47053.00,8327.28 47053.00,8327.28
             47053.00,8327.28 47105.00,8348.19 47105.00,8348.19
             47105.00,8348.19 47133.00,8359.12 47133.00,8359.12
             47133.00,8359.12 47163.00,8375.10 47163.00,8375.10
             47163.00,8375.10 47208.00,8391.87 47208.00,8391.87
             47208.00,8391.87 47231.00,8405.69 47231.00,8405.69
             47244.53,8413.03 47257.65,8417.00 47268.83,8428.17
             47274.44,8433.77 47282.28,8443.83 47285.68,8451.00
             47285.68,8451.00 47304.66,8496.00 47304.66,8496.00
             47304.66,8496.00 47316.26,8511.00 47316.26,8511.00
             47316.26,8511.00 47326.33,8525.71 47326.33,8525.71
             47326.33,8525.71 47338.96,8537.01 47338.96,8537.01
             47338.96,8537.01 47352.04,8552.90 47352.04,8552.90
             47352.04,8552.90 47379.00,8570.01 47379.00,8570.01
             47385.51,8573.26 47393.02,8573.66 47400.00,8575.37
             47400.00,8575.37 47415.00,8579.19 47415.00,8579.19
             47415.00,8579.19 47449.00,8583.91 47449.00,8583.91
             47449.00,8583.91 47458.00,8583.91 47458.00,8583.91
             47466.39,8583.90 47490.29,8577.16 47498.00,8573.69
             47498.00,8573.69 47522.00,8561.43 47522.00,8561.43
             47522.00,8561.43 47572.00,8540.56 47572.00,8540.56
             47581.70,8535.17 47588.97,8529.64 47597.00,8521.96
             47599.96,8519.13 47602.71,8516.07 47606.00,8513.61
             47606.00,8513.61 47628.00,8499.24 47628.00,8499.24
             47628.00,8499.24 47651.00,8477.09 47651.00,8477.09
             47651.00,8477.09 47668.79,8461.83 47668.79,8461.83
             47673.61,8456.67 47673.66,8451.25 47675.86,8445.00
             47677.99,8438.97 47681.40,8433.15 47685.16,8428.00
             47704.04,8402.16 47743.10,8384.05 47775.00,8384.00
             47775.00,8384.00 47867.00,8384.00 47867.00,8384.00
             47867.00,8384.00 47921.00,8388.84 47921.00,8388.84
             47921.00,8388.84 47952.00,8391.15 47952.00,8391.15
             47963.89,8392.63 47970.61,8395.98 47984.00,8396.00
             47984.00,8396.00 48042.00,8396.00 48042.00,8396.00
             48042.00,8396.00 48078.00,8399.00 48078.00,8399.00
             48078.00,8399.00 48092.00,8399.00 48092.00,8399.00
             48104.60,8399.15 48138.18,8406.66 48150.00,8411.45
             48150.00,8411.45 48164.00,8418.14 48164.00,8418.14
             48170.07,8420.82 48182.27,8424.03 48186.35,8428.53
             48188.63,8431.03 48190.75,8437.59 48192.31,8441.00
             48192.31,8441.00 48205.89,8470.00 48205.89,8470.00
             48205.89,8470.00 48219.75,8497.00 48219.75,8497.00
             48219.75,8497.00 48230.78,8520.00 48230.78,8520.00
             48230.78,8520.00 48241.52,8539.00 48241.52,8539.00
             48241.52,8539.00 48255.31,8572.00 48255.31,8572.00
             48255.31,8572.00 48267.99,8594.00 48267.99,8594.00
             48271.79,8600.51 48275.12,8607.31 48280.18,8613.00
             48288.85,8622.74 48300.28,8626.41 48313.00,8626.96
             48333.85,8627.87 48339.11,8620.20 48356.00,8616.24
             48369.76,8613.00 48390.32,8613.39 48402.00,8605.20
             48406.26,8602.22 48410.20,8597.92 48412.04,8593.00
             48413.25,8589.76 48413.17,8585.91 48414.93,8583.18
             48416.68,8580.48 48421.16,8577.84 48424.00,8576.32
             48424.00,8576.32 48437.00,8570.69 48437.00,8570.69
             48437.00,8570.69 48458.00,8560.86 48458.00,8560.86
             48458.00,8560.86 48481.00,8550.73 48481.00,8550.73
             48481.00,8550.73 48531.00,8520.80 48531.00,8520.80
             48552.47,8507.94 48574.97,8495.64 48595.00,8480.63
             48611.82,8468.02 48629.00,8454.79 48647.00,8443.92
             48647.00,8443.92 48667.00,8433.55 48667.00,8433.55
             48681.22,8425.09 48692.26,8414.07 48709.00,8410.52
             48712.63,8409.75 48722.80,8409.95 48727.00,8410.00
             48727.00,8410.00 48777.00,8415.00 48777.00,8415.00
             48777.00,8415.00 48791.00,8416.00 48791.00,8416.00
             48791.00,8416.00 48813.00,8417.00 48813.00,8417.00
             48813.00,8417.00 48827.00,8418.00 48827.00,8418.00
             48827.00,8418.00 48843.00,8419.00 48843.00,8419.00
             48843.00,8419.00 48863.00,8420.00 48863.00,8420.00
             48863.00,8420.00 48926.00,8420.00 48926.00,8420.00
             48926.00,8420.00 48941.00,8421.00 48941.00,8421.00
             48941.00,8421.00 48957.00,8421.00 48957.00,8421.00
             48957.00,8421.00 48972.00,8422.00 48972.00,8422.00
             48972.00,8422.00 49021.00,8417.72 49021.00,8417.72
             49026.65,8417.02 49034.86,8416.22 49040.00,8414.05
             49044.72,8412.05 49048.12,8408.57 49053.00,8406.99
             49053.00,8406.99 49073.00,8403.73 49073.00,8403.73
             49085.17,8401.98 49097.79,8398.78 49110.00,8401.51
             49110.00,8401.51 49130.00,8407.58 49130.00,8407.58
             49130.00,8407.58 49153.00,8413.42 49153.00,8413.42
             49153.00,8413.42 49174.00,8419.63 49174.00,8419.63
             49174.00,8419.63 49214.00,8429.11 49214.00,8429.11
             49214.00,8429.11 49226.00,8431.48 49226.00,8431.48
             49245.04,8436.35 49271.81,8446.10 49290.00,8453.85
             49326.64,8469.46 49354.41,8484.44 49395.00,8490.00
             49404.99,8491.37 49419.40,8494.09 49429.00,8491.98
             49436.25,8490.39 49442.39,8486.90 49449.00,8483.78
             49460.89,8478.16 49467.82,8475.05 49479.00,8467.48
             49485.09,8463.36 49491.73,8456.74 49498.00,8453.90
             49498.00,8453.90 49508.00,8450.54 49508.00,8450.54
             49508.00,8450.54 49539.00,8437.11 49539.00,8437.11
             49539.00,8437.11 49575.00,8415.43 49575.00,8415.43
             49575.00,8415.43 49607.00,8399.66 49607.00,8399.66
             49607.00,8399.66 49618.00,8392.19 49618.00,8392.19
             49618.00,8392.19 49637.00,8379.70 49637.00,8379.70
             49637.00,8379.70 49662.00,8365.40 49662.00,8365.40
             49662.00,8365.40 49699.00,8343.31 49699.00,8343.31
             49699.00,8343.31 49720.00,8332.75 49720.00,8332.75
             49720.00,8332.75 49730.00,8327.51 49730.00,8327.51
             49730.00,8327.51 49754.00,8318.19 49754.00,8318.19
             49754.00,8318.19 49799.00,8287.64 49799.00,8287.64
             49799.00,8287.64 49813.00,8282.05 49813.00,8282.05
             49838.68,8272.48 49848.39,8273.69 49875.00,8274.00
             49891.51,8274.20 49921.40,8284.83 49934.00,8295.32
             49943.34,8303.10 49948.67,8311.94 49956.43,8321.00
             49956.43,8321.00 49967.28,8333.00 49967.28,8333.00
             49967.28,8333.00 49980.72,8348.00 49980.72,8348.00
             49980.72,8348.00 49989.17,8357.83 49989.17,8357.83
             50004.78,8373.47 50021.64,8387.15 50028.66,8409.00
             50028.66,8409.00 50035.58,8433.00 50035.58,8433.00
             50036.74,8437.09 50038.61,8441.79 50037.35,8446.00
             50035.09,8453.52 50018.36,8467.02 50020.34,8480.00
             50021.94,8490.46 50037.44,8501.32 50041.32,8511.00
             50041.32,8511.00 50044.24,8522.00 50044.24,8522.00
             50044.24,8522.00 50051.64,8539.00 50051.64,8539.00
             50054.34,8547.01 50054.05,8551.27 50059.10,8559.00
             50068.84,8573.92 50084.94,8584.33 50089.61,8590.04
             50094.51,8596.02 50095.39,8604.65 50100.39,8611.00
             50103.86,8615.41 50108.44,8619.19 50114.00,8620.47
             50117.65,8621.32 50120.41,8620.59 50124.00,8622.00
             50127.86,8623.52 50131.08,8626.97 50135.00,8628.11
             50139.20,8629.33 50144.97,8627.05 50149.00,8625.66
             50160.48,8621.69 50170.59,8616.84 50181.00,8610.60
             50194.79,8602.33 50199.77,8600.74 50214.00,8594.72
             50214.00,8594.72 50230.00,8587.45 50230.00,8587.45
             50230.00,8587.45 50250.00,8579.99 50250.00,8579.99
             50250.00,8579.99 50263.00,8574.11 50263.00,8574.11
             50263.00,8574.11 50277.00,8566.46 50277.00,8566.46
             50289.03,8561.41 50314.70,8560.86 50316.58,8544.00
             50317.53,8535.53 50311.91,8524.34 50308.25,8517.00
             50308.25,8517.00 50300.08,8501.00 50300.08,8501.00
             50300.08,8501.00 50287.86,8482.00 50287.86,8482.00
             50287.86,8482.00 50278.41,8462.00 50278.41,8462.00
             50275.32,8455.04 50269.36,8448.74 50270.11,8441.00
             50270.49,8437.16 50272.22,8434.75 50275.04,8432.21
             50285.42,8422.87 50298.82,8426.98 50311.00,8427.00
             50311.00,8427.00 50330.00,8427.00 50330.00,8427.00
             50342.58,8426.94 50342.66,8423.60 50353.00,8418.26
             50364.29,8412.42 50374.22,8409.60 50384.00,8400.83
             50387.63,8397.57 50391.47,8393.74 50393.01,8389.00
             50394.54,8384.28 50393.38,8381.18 50396.00,8376.00
             50400.21,8367.69 50409.19,8364.65 50418.00,8365.04
             50434.20,8365.75 50432.84,8376.59 50437.45,8388.00
             50437.45,8388.00 50443.51,8400.00 50443.51,8400.00
             50448.44,8410.52 50454.87,8427.58 50455.93,8439.00
             50457.22,8452.99 50457.21,8471.45 50477.00,8469.81
             50489.32,8468.79 50502.00,8458.87 50502.90,8446.00
             50502.90,8446.00 50502.00,8433.00 50502.00,8433.00
             50501.97,8430.31 50501.87,8426.53 50502.65,8424.00
             50503.52,8421.17 50505.58,8418.40 50507.30,8416.00
             50519.40,8399.09 50530.59,8396.45 50547.00,8386.55
             50554.38,8382.10 50561.28,8375.78 50570.00,8374.32
             50577.89,8373.01 50586.53,8375.31 50591.35,8382.02
             50593.60,8385.14 50594.34,8388.60 50595.98,8392.00
             50595.98,8392.00 50600.69,8401.00 50600.69,8401.00
             50600.69,8401.00 50605.17,8411.00 50605.17,8411.00
             50614.08,8426.79 50625.47,8431.79 50643.00,8432.00
             50643.00,8432.00 50649.00,8432.00 50649.00,8432.00
             50661.26,8431.98 50682.19,8427.59 50684.65,8413.00
             50685.57,8407.52 50681.76,8398.11 50679.57,8393.00
             50675.53,8383.54 50671.93,8380.16 50667.23,8372.00
             50667.23,8372.00 50652.15,8341.00 50652.15,8341.00
             50646.95,8328.89 50643.23,8324.30 50646.63,8311.00
             50647.27,8308.50 50648.74,8303.23 50649.80,8301.04
             50652.17,8296.12 50658.54,8292.64 50663.00,8289.67
             50663.00,8289.67 50691.00,8270.67 50691.00,8270.67
             50691.00,8270.67 50708.00,8259.78 50708.00,8259.78
             50708.00,8259.78 50721.00,8253.69 50721.00,8253.69
             50721.00,8253.69 50743.00,8240.86 50743.00,8240.86
             50743.00,8240.86 50760.00,8232.14 50760.00,8232.14
             50773.08,8224.88 50780.16,8216.02 50796.00,8216.00
             50796.00,8216.00 50835.00,8216.00 50835.00,8216.00
             50842.47,8216.09 50852.61,8218.20 50860.00,8219.79
             50873.23,8222.64 50894.93,8228.74 50907.00,8234.31
             50907.00,8234.31 50925.00,8243.88 50925.00,8243.88
             50925.00,8243.88 50957.89,8258.07 50957.89,8258.07
             50962.91,8261.41 50963.15,8268.60 50965.47,8274.00
             50968.43,8280.92 50973.03,8284.97 50980.00,8287.63
             50980.00,8287.63 51018.00,8300.99 51018.00,8300.99
             51024.60,8302.44 51046.59,8306.27 51050.99,8309.00
             51054.19,8311.00 51057.39,8315.11 51059.95,8318.00
             51068.00,8327.11 51078.67,8341.23 51077.96,8354.00
             51077.51,8362.01 51072.08,8364.02 51072.52,8372.00
             51073.18,8384.14 51077.69,8387.23 51080.36,8397.00
             51080.36,8397.00 51083.89,8413.00 51083.89,8413.00
             51087.68,8428.13 51092.66,8443.42 51100.43,8457.00
             51114.44,8481.50 51123.47,8486.07 51130.56,8497.00
             51140.91,8512.95 51153.33,8534.67 51172.00,8541.88
             51176.63,8543.67 51179.30,8543.67 51184.00,8544.16
             51186.74,8544.45 51188.11,8544.91 51191.00,8544.68
             51203.61,8543.67 51218.72,8535.85 51230.00,8530.25
             51230.00,8530.25 51255.00,8517.58 51255.00,8517.58
             51262.39,8512.97 51271.16,8506.05 51279.00,8503.06
             51289.10,8499.22 51308.88,8496.48 51320.00,8495.15
             51320.00,8495.15 51333.00,8493.48 51333.00,8493.48
             51333.00,8493.48 51373.00,8479.80 51373.00,8479.80
             51373.00,8479.80 51384.00,8475.09 51384.00,8475.09
             51396.16,8470.73 51408.18,8471.63 51418.83,8462.33
             51427.35,8454.89 51429.87,8445.84 51434.30,8436.00
             51434.30,8436.00 51450.15,8406.00 51450.15,8406.00
             51452.25,8402.33 51457.36,8392.85 51460.21,8390.43
             51463.88,8387.31 51467.62,8388.21 51472.00,8387.91
             51475.70,8387.66 51483.63,8386.46 51487.00,8385.19
             51500.66,8380.04 51502.24,8368.29 51508.18,8363.51
             51511.26,8361.03 51516.22,8360.50 51520.00,8359.25
             51528.55,8356.44 51537.01,8351.43 51538.99,8342.00
             51539.86,8337.67 51539.11,8335.23 51538.99,8331.00
             51538.74,8318.76 51540.57,8320.94 51554.00,8312.31
             51574.86,8298.90 51587.12,8300.38 51610.00,8295.12
             51630.10,8290.49 51650.43,8286.66 51670.00,8279.92
             51670.00,8279.92 51708.00,8260.31 51708.00,8260.31
             51708.00,8260.31 51750.00,8245.24 51750.00,8245.24
             51759.89,8241.10 51774.01,8222.68 51781.00,8219.85
             51783.83,8218.71 51787.92,8219.03 51791.00,8219.00
             51804.90,8218.83 51813.50,8211.80 51816.00,8198.00
             51816.00,8198.00 51838.00,8196.72 51838.00,8196.72
             51838.00,8196.72 51853.00,8194.52 51853.00,8194.52
             51861.17,8193.91 51865.46,8198.91 51877.00,8193.01
             51890.44,8186.13 51891.77,8173.76 51897.90,8163.01
             51902.50,8154.96 51909.35,8154.74 51915.47,8146.99
             51921.75,8139.04 51920.00,8133.00 51922.85,8129.42
             51925.96,8125.52 51931.89,8126.82 51938.83,8120.53
             51943.81,8116.02 51944.33,8112.60 51947.63,8108.00
             51949.79,8105.00 51956.09,8098.73 51959.00,8096.33
             51959.00,8096.33 51990.00,8078.97 51990.00,8078.97
             51996.06,8074.83 52001.84,8069.92 52006.24,8064.00
             52008.81,8060.55 52012.49,8052.80 52015.21,8050.85
             52017.47,8049.23 52029.57,8045.99 52033.00,8045.00
             52047.13,8040.93 52064.31,8036.02 52079.00,8036.00
             52079.00,8036.00 52168.00,8036.00 52168.00,8036.00
             52168.00,8036.00 52207.00,8039.00 52207.00,8039.00
             52207.00,8039.00 52228.00,8039.00 52228.00,8039.00
             52228.00,8039.00 52266.00,8042.00 52266.00,8042.00
             52266.00,8042.00 52397.00,8042.00 52397.00,8042.00
             52397.00,8042.00 52407.00,8042.63 52407.00,8042.63
             52407.00,8042.63 52417.00,8041.17 52417.00,8041.17
             52426.37,8040.26 52435.91,8040.84 52445.00,8043.13
             52450.00,8044.38 52457.90,8046.06 52461.11,8050.33
             52465.78,8056.53 52460.16,8062.97 52461.83,8066.72
             52463.94,8071.44 52466.98,8068.81 52467.00,8081.00
             52467.00,8081.00 52467.00,8097.00 52467.00,8097.00
             52467.00,8097.00 52466.00,8117.00 52466.00,8117.00
             52466.00,8117.00 52469.00,8147.00 52469.00,8147.00
             52476.16,8144.61 52488.78,8139.65 52496.00,8140.09
             52504.83,8140.63 52513.21,8144.77 52511.79,8155.00
             52511.16,8159.50 52508.48,8162.39 52507.37,8167.00
             52507.37,8167.00 52503.87,8198.00 52503.87,8198.00
             52503.19,8202.72 52501.29,8208.41 52502.65,8213.00
             52503.59,8216.18 52506.93,8220.91 52508.72,8224.00
             52515.75,8236.19 52522.87,8244.43 52535.00,8252.05
             52535.00,8252.05 52552.00,8260.32 52552.00,8260.32
             52552.00,8260.32 52569.00,8270.00 52569.00,8270.00
             52571.71,8271.55 52575.80,8274.08 52579.00,8273.82
             52582.22,8273.57 52586.31,8270.17 52589.00,8268.34
             52595.72,8263.79 52597.88,8262.78 52605.00,8259.25
             52605.00,8259.25 52628.00,8248.74 52628.00,8248.74
             52628.00,8248.74 52674.00,8223.81 52674.00,8223.81
             52687.40,8215.58 52701.48,8208.87 52716.00,8202.86
             52716.00,8202.86 52735.00,8195.37 52735.00,8195.37
             52743.56,8191.33 52757.83,8182.09 52766.00,8176.65
             52778.99,8167.99 52793.25,8157.93 52805.00,8147.71
             52805.00,8147.71 52826.00,8127.30 52826.00,8127.30
             52826.00,8127.30 52873.00,8092.00 52873.00,8092.00
             52891.96,8079.44 52911.65,8068.03 52933.00,8059.91
             52933.00,8059.91 52985.00,8044.33 52985.00,8044.33
             52985.00,8044.33 53025.00,8029.72 53025.00,8029.72
             53025.00,8029.72 53051.00,8023.26 53051.00,8023.26
             53051.00,8023.26 53076.00,8018.85 53076.00,8018.85
             53076.00,8018.85 53120.00,8005.88 53120.00,8005.88
             53120.00,8005.88 53167.00,7994.28 53167.00,7994.28
             53167.00,7994.28 53195.00,7984.21 53195.00,7984.21
             53195.00,7984.21 53229.00,7978.57 53229.00,7978.57
             53229.00,7978.57 53251.00,7974.08 53251.00,7974.08
             53262.66,7973.13 53280.31,7972.99 53290.00,7966.20
             53300.46,7958.88 53300.92,7950.82 53305.06,7940.00
             53305.06,7940.00 53313.69,7921.00 53313.69,7921.00
             53315.42,7917.14 53316.54,7912.32 53319.39,7909.21
             53322.62,7905.68 53334.22,7900.66 53339.00,7898.58
             53350.18,7893.70 53367.03,7885.40 53374.66,7876.00
             53382.76,7866.04 53381.09,7848.53 53385.00,7835.00
             53396.16,7837.24 53403.14,7839.26 53412.96,7831.32
             53415.68,7829.12 53418.16,7826.36 53419.30,7823.00
             53420.47,7819.56 53419.90,7802.05 53422.56,7795.00
             53424.82,7789.00 53430.24,7784.09 53434.10,7779.00
             53434.10,7779.00 53446.18,7762.17 53446.18,7762.17
             53453.03,7755.21 53465.19,7749.45 53474.00,7745.22
             53474.00,7745.22 53503.00,7731.45 53503.00,7731.45
             53510.83,7728.28 53519.00,7726.25 53526.00,7721.21
             53531.37,7717.35 53535.52,7711.61 53536.67,7705.00
             53537.80,7698.58 53535.31,7692.66 53540.28,7687.18
             53544.69,7682.32 53558.68,7676.20 53565.00,7673.22
             53565.00,7673.22 53614.00,7649.75 53614.00,7649.75
             53623.09,7645.18 53631.42,7637.14 53642.00,7637.00
             53649.72,7636.90 53657.43,7638.16 53665.00,7639.61
             53668.09,7640.21 53672.14,7640.89 53674.27,7643.42
             53676.47,7646.04 53678.06,7657.90 53679.15,7662.00
             53682.33,7673.91 53688.82,7682.29 53700.00,7687.74
             53708.98,7692.12 53722.01,7695.27 53732.00,7695.91
             53739.30,7696.38 53745.13,7693.04 53752.00,7697.14
             53756.69,7699.94 53775.41,7714.97 53778.36,7719.01
             53781.50,7723.31 53782.85,7729.16 53785.27,7734.00
             53789.31,7742.08 53797.95,7753.09 53805.00,7758.61
             53820.48,7770.73 53843.87,7764.13 53859.00,7773.47
             53870.92,7780.82 53866.21,7788.61 53879.04,7799.67
             53891.53,7810.45 53910.26,7808.35 53919.99,7814.56
             53926.75,7818.88 53928.44,7824.01 53932.78,7830.00
             53936.49,7835.12 53941.46,7839.64 53947.00,7842.69
             53956.87,7848.12 53965.08,7849.42 53976.00,7850.72
             53984.28,7851.70 53987.68,7850.01 53996.00,7854.75
             53996.00,7854.75 54016.00,7867.43 54016.00,7867.43
             54016.00,7867.43 54028.00,7876.30 54028.00,7876.30
             54037.06,7882.16 54042.17,7882.73 54053.00,7891.29
             54053.00,7891.29 54076.00,7912.09 54076.00,7912.09
             54079.31,7915.17 54081.23,7917.43 54085.00,7920.24
             54096.59,7928.86 54106.97,7930.23 54117.00,7936.01
             54129.01,7942.94 54131.74,7947.41 54140.00,7952.90
             54140.00,7952.90 54155.00,7960.49 54155.00,7960.49
             54155.00,7960.49 54165.00,7966.22 54165.00,7966.22
             54165.00,7966.22 54197.00,7978.32 54197.00,7978.32
             54197.00,7978.32 54227.00,7997.39 54227.00,7997.39
             54227.00,7997.39 54240.00,8000.44 54240.00,8000.44
             54240.00,8000.44 54253.00,8005.94 54253.00,8005.94
             54258.17,8007.92 54268.78,8011.21 54273.00,8013.97
             54277.19,8016.71 54279.57,8019.92 54279.89,8025.00
             54280.14,8029.00 54278.03,8033.33 54282.15,8036.02
             54284.59,8037.61 54299.79,8039.89 54304.00,8040.88
             54320.36,8044.76 54347.37,8050.22 54361.00,8059.36
             54367.65,8063.82 54378.65,8072.92 54383.67,8079.00
             54392.12,8089.23 54389.09,8089.67 54403.00,8102.96
             54412.30,8111.84 54417.46,8112.58 54422.83,8118.09
             54422.83,8118.09 54430.17,8127.00 54430.17,8127.00
             54430.17,8127.00 54440.91,8138.04 54440.91,8138.04
             54443.65,8141.27 54446.32,8145.79 54449.30,8148.47
             54454.33,8153.01 54461.69,8154.28 54466.24,8159.33
             54466.24,8159.33 54477.61,8177.00 54477.61,8177.00
             54484.85,8186.76 54498.30,8198.85 54509.00,8204.69
             54521.69,8211.61 54535.91,8214.22 54550.00,8216.59
             54556.12,8217.61 54567.65,8219.22 54573.00,8221.48
             54580.96,8224.84 54581.32,8230.69 54585.93,8237.00
             54591.24,8244.27 54597.64,8248.51 54606.00,8251.56
             54606.00,8251.56 54650.00,8260.44 54650.00,8260.44
             54659.98,8263.54 54663.55,8270.01 54670.00,8271.58
             54675.64,8272.96 54682.86,8269.18 54692.00,8272.09
             54692.00,8272.09 54718.00,8283.31 54718.00,8283.31
             54718.00,8283.31 54760.00,8297.65 54760.00,8297.65
             54766.53,8300.70 54767.67,8307.25 54776.00,8310.44
             54789.13,8315.47 54805.89,8312.52 54822.00,8321.31
             54832.48,8327.03 54842.87,8337.17 54846.07,8349.00
             54848.62,8358.43 54844.30,8365.20 54851.13,8371.67
             54851.13,8371.67 54877.00,8388.19 54877.00,8388.19
             54889.01,8396.38 54900.07,8406.70 54911.00,8416.29
             54911.00,8416.29 54933.39,8438.17 54933.39,8438.17
             54937.68,8442.89 54941.68,8449.84 54947.00,8453.16
             54947.00,8453.16 54973.00,8462.51 54973.00,8462.51
             54973.00,8462.51 55024.00,8482.12 55024.00,8482.12
             55024.00,8482.12 55044.00,8492.69 55044.00,8492.69
             55044.00,8492.69 55071.00,8503.43 55071.00,8503.43
             55079.60,8507.10 55091.79,8513.09 55101.00,8514.17
             55104.65,8514.84 55108.33,8514.05 55112.00,8514.17
             55125.80,8513.84 55142.11,8516.10 55151.70,8527.01
             55154.07,8529.71 55159.92,8537.88 55161.65,8541.00
             55164.68,8546.44 55164.88,8550.26 55171.00,8553.72
             55171.00,8553.72 55194.00,8560.74 55194.00,8560.74
             55194.00,8560.74 55237.00,8575.67 55237.00,8575.67
             55246.07,8578.68 55257.34,8579.49 55263.04,8588.01
             55266.29,8592.89 55267.66,8598.65 55269.86,8604.00
             55274.39,8614.99 55278.79,8622.87 55280.40,8635.00
             55281.33,8642.07 55278.66,8645.57 55278.76,8651.00
             55278.87,8656.67 55285.68,8666.79 55289.46,8670.89
             55294.52,8676.38 55298.56,8675.02 55305.00,8673.37
             55314.26,8671.00 55321.10,8667.61 55331.00,8668.04
             55336.44,8668.28 55342.59,8669.86 55345.30,8675.09
             55347.79,8679.90 55345.00,8693.41 55344.08,8699.00
             55344.08,8699.00 55339.46,8722.00 55339.46,8722.00
             55339.46,8722.00 55337.41,8739.00 55337.41,8739.00
             55337.41,8739.00 55334.30,8758.00 55334.30,8758.00
             55334.78,8763.87 55342.03,8775.89 55347.01,8778.93
             55351.84,8781.87 55359.60,8782.79 55364.58,8789.04
             55368.24,8793.63 55368.06,8798.48 55368.00,8804.00
             55368.00,8804.00 55367.00,8821.00 55367.00,8821.00
             55367.02,8831.46 55370.21,8845.96 55373.34,8856.00
             55374.54,8859.83 55376.58,8869.02 55379.42,8871.40
             55382.18,8873.72 55386.72,8872.89 55390.00,8872.42
             55395.96,8871.56 55407.53,8869.37 55413.00,8870.33
             55417.62,8871.14 55422.52,8873.68 55424.69,8878.02
             55426.18,8880.99 55425.99,8884.74 55426.00,8888.00
             55426.00,8888.00 55426.00,8916.00 55426.00,8916.00
             55426.05,8919.45 55426.06,8922.88 55428.51,8925.61
             55432.37,8929.93 55443.64,8930.91 55445.66,8941.00
             55447.55,8950.49 55438.19,8962.40 55434.31,8971.00
             55429.80,8981.01 55425.25,9005.79 55419.35,9013.98
             55415.12,9019.87 55406.16,9023.38 55399.00,9022.81
             55399.00,9022.81 55394.00,9022.00 55394.00,9022.00
             55393.65,9037.85 55389.93,9043.27 55383.86,9057.00
             55383.86,9057.00 55378.51,9070.00 55378.51,9070.00
             55378.51,9070.00 55372.64,9081.00 55372.64,9081.00
             55372.64,9081.00 55362.37,9100.79 55362.37,9100.79
             55358.68,9105.15 55352.22,9105.54 55345.85,9115.00
             55342.02,9120.68 55340.62,9129.51 55338.08,9136.00
             55338.08,9136.00 55321.75,9171.00 55321.75,9171.00
             55310.74,9192.87 55299.57,9199.04 55290.01,9222.00
             55287.00,9229.23 55285.04,9232.03 55285.00,9240.00
             55285.00,9240.00 55285.00,9259.00 55285.00,9259.00
             55284.99,9267.96 55283.37,9282.21 55276.79,9288.79
             55268.42,9297.15 55251.07,9296.87 55240.00,9297.00
             55240.00,9297.00 55226.00,9297.98 55226.00,9297.98
             55226.00,9297.98 55207.00,9296.08 55207.00,9296.08
             55207.00,9296.08 55196.00,9296.08 55196.00,9296.08
             55196.00,9296.08 55186.00,9295.08 55186.00,9295.08
             55186.00,9295.08 55153.00,9291.28 55153.00,9291.28
             55153.00,9291.28 55108.00,9287.91 55108.00,9287.91
             55108.00,9287.91 55076.00,9285.00 55076.00,9285.00
             55076.00,9285.00 55078.72,9307.00 55078.72,9307.00
             55079.89,9316.79 55079.22,9323.30 55085.79,9331.96
             55091.77,9339.84 55110.60,9344.35 55117.90,9351.21
             55125.10,9357.99 55126.66,9373.50 55126.66,9383.00
             55126.66,9383.00 55126.00,9392.00 55126.00,9392.00
             55125.97,9394.76 55125.75,9401.71 55126.60,9404.00
             55127.99,9407.76 55132.09,9410.54 55135.00,9413.17
             55138.27,9416.13 55143.10,9421.77 55147.00,9423.26
             55151.55,9425.00 55156.04,9422.47 55163.00,9426.61
             55170.52,9431.08 55179.31,9443.71 55184.58,9451.00
             55190.00,9458.51 55198.46,9469.16 55194.87,9479.00
             55192.09,9486.60 55178.53,9497.71 55172.90,9508.00
             55172.90,9508.00 55159.01,9547.00 55159.01,9547.00
             55156.42,9551.16 55140.68,9564.57 55136.00,9568.57
             55126.23,9576.94 55116.20,9583.56 55105.00,9589.83
             55097.63,9593.95 55092.29,9593.56 55086.39,9601.01
             55079.63,9609.55 55086.29,9618.27 55089.58,9627.00
             55091.12,9631.11 55093.13,9635.87 55090.40,9639.91
             55090.40,9639.91 55068.00,9659.09 55068.00,9659.09
             55068.00,9659.09 55035.00,9692.96 55035.00,9692.96
             55035.00,9692.96 55014.09,9711.09 55014.09,9711.09
             55002.93,9722.23 55003.20,9727.60 54996.68,9740.00
             54996.68,9740.00 54985.98,9757.00 54985.98,9757.00
             54983.99,9759.88 54981.69,9763.23 54978.91,9765.36
             54973.75,9769.33 54968.02,9769.13 54961.63,9778.00
             54953.56,9789.23 54947.37,9808.72 54937.83,9817.79
             54927.80,9827.31 54910.26,9824.90 54910.00,9844.00
             54910.00,9844.00 54909.16,9866.00 54909.16,9866.00
             54908.81,9869.36 54908.95,9873.89 54906.44,9876.49
             54903.71,9879.33 54899.52,9878.69 54896.00,9879.33
             54892.43,9879.97 54889.22,9881.65 54886.00,9883.25
             54860.42,9895.95 54839.37,9908.44 54839.00,9940.00
             54838.84,9954.01 54840.31,9959.56 54843.00,9973.00
             54843.88,9977.40 54846.29,9988.00 54845.33,9992.00
             54843.99,9997.54 54834.54,10011.21 54830.79,10016.00
             54830.79,10016.00 54804.23,10050.00 54804.23,10050.00
             54804.23,10050.00 54782.91,10079.00 54782.91,10079.00
             54782.91,10079.00 54767.00,10094.17 54767.00,10094.17
             54767.00,10094.17 54754.00,10106.39 54754.00,10106.39
             54736.78,10120.56 54714.91,10133.51 54696.00,10145.69
             54696.00,10145.69 54637.00,10183.69 54637.00,10183.69
             54637.00,10183.69 54610.00,10194.45 54610.00,10194.45
             54610.00,10194.45 54584.00,10207.26 54584.00,10207.26
             54575.08,10211.87 54567.29,10219.45 54559.00,10225.28
             54559.00,10225.28 54540.00,10237.67 54540.00,10237.67
             54540.00,10237.67 54510.00,10258.00 54510.00,10258.00
             54510.00,10258.00 54476.00,10279.54 54476.00,10279.54
             54476.00,10279.54 54453.00,10295.94 54453.00,10295.94
             54453.00,10295.94 54432.00,10307.45 54432.00,10307.45
             54432.00,10307.45 54414.00,10319.58 54414.00,10319.58
             54414.00,10319.58 54381.00,10338.45 54381.00,10338.45
             54381.00,10338.45 54365.00,10348.55 54365.00,10348.55
             54365.00,10348.55 54332.00,10365.25 54332.00,10365.25
             54332.00,10365.25 54308.00,10377.96 54308.00,10377.96
             54308.00,10377.96 54282.00,10388.58 54282.00,10388.58
             54282.00,10388.58 54270.00,10392.87 54270.00,10392.87
             54270.00,10392.87 54250.00,10403.14 54250.00,10403.14
             54250.00,10403.14 54224.00,10414.27 54224.00,10414.27
             54224.00,10414.27 54165.00,10451.55 54165.00,10451.55
             54165.00,10451.55 54132.00,10467.86 54132.00,10467.86
             54132.00,10467.86 54058.00,10511.42 54058.00,10511.42
             54058.00,10511.42 53968.00,10564.58 53968.00,10564.58
             53968.00,10564.58 53942.00,10579.69 53942.00,10579.69
             53942.00,10579.69 53924.00,10589.10 53924.00,10589.10
             53924.00,10589.10 53893.00,10616.96 53893.00,10616.96
             53877.10,10628.14 53862.06,10632.80 53844.00,10638.67
             53844.00,10638.67 53814.00,10648.55 53814.00,10648.55
             53805.05,10650.44 53798.97,10650.01 53790.00,10650.00
             53790.00,10650.00 53763.00,10648.00 53763.00,10648.00
             53763.00,10648.00 53748.00,10648.00 53748.00,10648.00
             53748.00,10648.00 53725.00,10646.17 53725.00,10646.17
             53725.00,10646.17 53697.00,10645.00 53697.00,10645.00
             53683.90,10644.98 53671.50,10641.07 53660.09,10651.33
             53657.61,10653.56 53655.36,10656.61 53654.89,10660.00
             53654.36,10663.82 53656.85,10668.05 53657.71,10672.00
             53659.67,10681.00 53660.37,10686.62 53665.35,10695.00
             53665.35,10695.00 53693.83,10728.00 53693.83,10728.00
             53705.70,10741.36 53708.36,10750.93 53714.42,10767.00
             53718.22,10777.08 53721.95,10787.10 53722.00,10798.00
             53722.00,10798.00 53722.00,10835.00 53722.00,10835.00
             53721.84,10848.73 53715.22,10872.34 53711.42,10886.00
             53709.27,10893.76 53706.58,10906.28 53702.52,10913.00
             53697.61,10921.13 53686.44,10928.67 53680.27,10941.00
             53680.27,10941.00 53670.10,10970.00 53670.10,10970.00
             53670.10,10970.00 53650.52,11007.00 53650.52,11007.00
             53647.14,11014.82 53644.52,11030.70 53640.15,11036.96
             53635.02,11044.31 53620.92,11049.56 53610.00,11060.04
             53601.75,11067.95 53597.54,11074.41 53596.67,11086.00
             53596.07,11094.01 53601.12,11102.24 53593.89,11107.26
             53588.92,11110.72 53577.30,11107.87 53571.00,11108.01
             53558.97,11108.29 53546.00,11116.17 53544.55,11129.00
             53544.55,11129.00 53545.90,11144.00 53545.90,11144.00
             53545.90,11144.00 53544.28,11156.00 53544.28,11156.00
             53543.07,11166.09 53544.16,11166.08 53540.66,11177.00
             53540.66,11177.00 53531.79,11202.00 53531.79,11202.00
             53531.79,11202.00 53510.70,11232.00 53510.70,11232.00
             53510.70,11232.00 53498.55,11255.00 53498.55,11255.00
             53498.55,11255.00 53482.32,11281.00 53482.32,11281.00
             53479.92,11285.53 53475.39,11298.92 53474.46,11304.00
             53474.46,11304.00 53473.21,11313.00 53473.21,11313.00
             53473.21,11313.00 53465.86,11330.00 53465.86,11330.00
             53465.86,11330.00 53458.18,11347.96 53458.18,11347.96
             53454.40,11354.69 53448.61,11353.78 53442.00,11355.21
             53434.07,11356.92 53424.15,11362.02 53421.01,11370.00
             53419.18,11374.65 53421.64,11380.98 53422.01,11386.00
             53422.01,11386.00 53422.01,11401.00 53422.01,11401.00
             53420.85,11405.93 53414.95,11412.09 53411.58,11416.00
             53405.08,11423.53 53398.28,11431.13 53391.00,11437.91
             53391.00,11437.91 53379.00,11448.17 53379.00,11448.17
             53372.27,11454.24 53361.29,11465.74 53353.00,11468.87
             53353.00,11468.87 53335.00,11472.50 53335.00,11472.50
             53335.00,11472.50 53307.00,11482.05 53307.00,11482.05
             53307.00,11482.05 53277.00,11493.86 53277.00,11493.86
             53277.00,11493.86 53259.00,11502.19 53259.00,11502.19
             53259.00,11502.19 53242.00,11508.28 53242.00,11508.28
             53242.00,11508.28 53220.00,11514.70 53220.00,11514.70
             53220.00,11514.70 53198.00,11523.56 53198.00,11523.56
             53198.00,11523.56 53175.00,11530.98 53175.00,11530.98
             53175.00,11530.98 53135.00,11540.88 53135.00,11540.88
             53135.00,11540.88 53110.00,11549.66 53110.00,11549.66
             53110.00,11549.66 53081.00,11560.26 53081.00,11560.26
             53081.00,11560.26 53053.00,11574.79 53053.00,11574.79
             53044.74,11580.66 53035.97,11590.05 53029.67,11598.00
             53017.52,11613.31 53011.60,11631.64 52996.83,11648.00
             52988.23,11657.51 52977.43,11663.66 52967.00,11670.75
             52967.00,11670.75 52934.09,11695.44 52934.09,11695.44
             52931.38,11697.93 52929.42,11700.52 52928.13,11704.00
             52926.53,11708.32 52927.87,11710.62 52923.87,11713.53
             52923.87,11713.53 52908.00,11722.21 52908.00,11722.21
             52908.00,11722.21 52845.00,11762.57 52845.00,11762.57
             52845.00,11762.57 52831.00,11769.86 52831.00,11769.86
             52831.00,11769.86 52810.00,11781.63 52810.00,11781.63
             52810.00,11781.63 52788.00,11791.37 52788.00,11791.37
             52788.00,11791.37 52769.00,11802.03 52769.00,11802.03
             52769.00,11802.03 52749.00,11811.25 52749.00,11811.25
             52749.00,11811.25 52707.00,11832.74 52707.00,11832.74
             52707.00,11832.74 52673.00,11848.14 52673.00,11848.14
             52673.00,11848.14 52646.00,11858.33 52646.00,11858.33
             52646.00,11858.33 52631.00,11863.31 52631.00,11863.31
             52631.00,11863.31 52584.00,11887.13 52584.00,11887.13
             52584.00,11887.13 52555.00,11897.81 52555.00,11897.81
             52555.00,11897.81 52517.00,11914.57 52517.00,11914.57
             52517.00,11914.57 52497.00,11922.31 52497.00,11922.31
             52497.00,11922.31 52476.00,11932.69 52476.00,11932.69
             52476.00,11932.69 52457.00,11941.26 52457.00,11941.26
             52457.00,11941.26 52441.00,11950.02 52441.00,11950.02
             52441.00,11950.02 52416.00,11959.45 52416.00,11959.45
             52416.00,11959.45 52382.00,11972.97 52382.00,11972.97
             52367.03,11977.72 52344.94,11980.74 52329.00,11983.41
             52329.00,11983.41 52256.00,11996.25 52256.00,11996.25
             52256.00,11996.25 52236.00,12000.44 52236.00,12000.44
             52236.00,12000.44 52204.00,12010.58 52204.00,12010.58
             52190.59,12013.53 52180.54,12013.15 52167.00,12013.00
             52152.68,12012.83 52138.59,12008.81 52125.00,12004.72
             52125.00,12004.72 52081.00,11989.28 52081.00,11989.28
             52081.00,11989.28 52050.00,11976.03 52050.00,11976.03
             52050.00,11976.03 52032.00,11965.31 52032.00,11965.31
             52032.00,11965.31 52013.00,11955.55 52013.00,11955.55
             52013.00,11955.55 51974.00,11928.52 51974.00,11928.52
             51974.00,11928.52 51933.00,11903.58 51933.00,11903.58
             51933.00,11903.58 51904.00,11884.46 51904.00,11884.46
             51904.00,11884.46 51855.00,11861.09 51855.00,11861.09
             51855.00,11861.09 51842.00,11857.28 51842.00,11857.28
             51832.90,11854.55 51813.08,11847.77 51805.00,11843.73
             51805.00,11843.73 51785.00,11832.31 51785.00,11832.31
             51785.00,11832.31 51761.00,11819.80 51761.00,11819.80
             51761.00,11819.80 51732.00,11801.89 51732.00,11801.89
             51732.00,11801.89 51715.00,11794.22 51715.00,11794.22
             51715.00,11794.22 51696.00,11784.45 51696.00,11784.45
             51696.00,11784.45 51675.00,11776.49 51675.00,11776.49
             51675.00,11776.49 51655.00,11765.31 51655.00,11765.31
             51655.00,11765.31 51641.00,11758.69 51641.00,11758.69
             51641.00,11758.69 51625.00,11748.81 51625.00,11748.81
             51625.00,11748.81 51590.00,11727.42 51590.00,11727.42
             51590.00,11727.42 51547.00,11701.00 51547.00,11701.00
             51547.00,11701.00 51530.00,11691.31 51530.00,11691.31
             51530.00,11691.31 51494.00,11667.57 51494.00,11667.57
             51494.00,11667.57 51469.00,11649.03 51469.00,11649.03
             51469.00,11649.03 51414.00,11613.56 51414.00,11613.56
             51414.00,11613.56 51392.00,11598.87 51392.00,11598.87
             51392.00,11598.87 51380.00,11592.57 51380.00,11592.57
             51380.00,11592.57 51366.00,11584.32 51366.00,11584.32
             51366.00,11584.32 51352.00,11577.69 51352.00,11577.69
             51352.00,11577.69 51332.00,11566.26 51332.00,11566.26
             51332.00,11566.26 51299.00,11550.22 51299.00,11550.22
             51299.00,11550.22 51247.00,11521.31 51247.00,11521.31
             51247.00,11521.31 51233.00,11514.69 51233.00,11514.69
             51233.00,11514.69 51208.00,11498.81 51208.00,11498.81
             51208.00,11498.81 51189.00,11487.80 51189.00,11487.80
             51189.00,11487.80 51150.00,11463.58 51150.00,11463.58
             51150.00,11463.58 51127.00,11448.05 51127.00,11448.05
             51127.00,11448.05 51091.00,11427.31 51091.00,11427.31
             51091.00,11427.31 51053.00,11407.14 51053.00,11407.14
             51053.00,11407.14 51025.00,11391.37 51025.00,11391.37
             51025.00,11391.37 50998.00,11380.14 50998.00,11380.14
             50998.00,11380.14 50972.00,11367.25 50972.00,11367.25
             50972.00,11367.25 50958.00,11360.74 50958.00,11360.74
             50958.00,11360.74 50915.00,11335.31 50915.00,11335.31
             50915.00,11335.31 50888.00,11320.97 50888.00,11320.97
             50888.00,11320.97 50876.00,11315.63 50876.00,11315.63
             50876.00,11315.63 50857.00,11304.86 50857.00,11304.86
             50857.00,11304.86 50833.00,11291.55 50833.00,11291.55
             50833.00,11291.55 50801.00,11271.20 50801.00,11271.20
             50801.00,11271.20 50764.00,11249.54 50764.00,11249.54
             50764.00,11249.54 50746.00,11236.74 50746.00,11236.74
             50746.00,11236.74 50729.00,11225.96 50729.00,11225.96
             50729.00,11225.96 50712.00,11212.65 50712.00,11212.65
             50712.00,11212.65 50671.00,11181.91 50671.00,11181.91
             50671.00,11181.91 50638.00,11160.28 50638.00,11160.28
             50638.00,11160.28 50620.00,11146.09 50620.00,11146.09
             50620.00,11146.09 50592.00,11128.56 50592.00,11128.56
             50592.00,11128.56 50557.00,11101.90 50557.00,11101.90
             50557.00,11101.90 50544.00,11092.53 50544.00,11092.53
             50544.00,11092.53 50516.00,11069.91 50516.00,11069.91
             50516.00,11069.91 50497.00,11050.00 50497.00,11050.00
             50497.00,11050.00 50483.00,11037.83 50483.00,11037.83
             50468.70,11024.96 50469.51,11022.47 50451.00,11011.45
             50451.00,11011.45 50432.00,11002.10 50432.00,11002.10
             50432.00,11002.10 50417.00,10993.47 50417.00,10993.47
             50417.00,10993.47 50400.00,10987.80 50400.00,10987.80
             50400.00,10987.80 50388.00,10982.45 50388.00,10982.45
             50388.00,10982.45 50343.00,10967.43 50343.00,10967.43
             50343.00,10967.43 50303.00,10957.57 50303.00,10957.57
             50303.00,10957.57 50285.00,10951.05 50285.00,10951.05
             50285.00,10951.05 50253.00,10939.69 50253.00,10939.69
             50253.00,10939.69 50197.00,10920.40 50197.00,10920.40
             50178.69,10912.98 50162.03,10902.31 50145.00,10892.42
             50145.00,10892.42 50124.00,10880.30 50124.00,10880.30
             50124.00,10880.30 50111.00,10870.86 50111.00,10870.86
             50111.00,10870.86 50093.00,10860.25 50093.00,10860.25
             50093.00,10860.25 50070.00,10843.38 50070.00,10843.38
             50070.00,10843.38 50061.00,10835.46 50061.00,10835.46
             50061.00,10835.46 50046.00,10823.92 50046.00,10823.92
             50046.00,10823.92 50020.00,10799.04 50020.00,10799.04
             50020.00,10799.04 50000.00,10781.58 50000.00,10781.58
             49993.77,10776.21 49987.39,10770.02 49980.00,10766.27
             49967.24,10759.80 49946.31,10758.26 49932.00,10756.83
             49932.00,10756.83 49904.00,10754.00 49904.00,10754.00
             49904.00,10754.00 49889.00,10754.00 49889.00,10754.00
             49889.00,10754.00 49877.00,10753.09 49877.00,10753.09
             49877.00,10753.09 49847.00,10751.09 49847.00,10751.09
             49847.00,10751.09 49821.00,10749.83 49821.00,10749.83
             49821.00,10749.83 49766.00,10745.00 49766.00,10745.00
             49757.59,10745.10 49749.25,10747.32 49741.00,10748.75
             49735.15,10749.77 49727.36,10750.39 49722.00,10752.47
             49713.49,10755.76 49703.45,10764.58 49697.00,10771.00
             49690.35,10777.62 49682.07,10785.14 49677.09,10793.00
             49677.09,10793.00 49661.36,10826.00 49661.36,10826.00
             49661.36,10826.00 49653.55,10851.00 49653.55,10851.00
             49653.55,10851.00 49631.55,10894.00 49631.55,10894.00
             49619.64,10913.97 49599.89,10931.35 49583.00,10947.09
             49583.00,10947.09 49557.00,10972.91 49557.00,10972.91
             49545.64,10983.49 49527.88,10995.39 49515.00,11004.88
             49515.00,11004.88 49473.00,11035.94 49473.00,11035.94
             49459.59,11044.26 49444.40,11050.45 49430.00,11056.86
             49430.00,11056.86 49410.00,11066.55 49410.00,11066.55
             49410.00,11066.55 49396.00,11071.02 49396.00,11071.02
             49396.00,11071.02 49354.00,11084.45 49354.00,11084.45
             49354.00,11084.45 49335.00,11092.99 49335.00,11092.99
             49335.00,11092.99 49294.00,11109.43 49294.00,11109.43
             49294.00,11109.43 49277.00,11117.69 49277.00,11117.69
             49277.00,11117.69 49230.00,11138.64 49230.00,11138.64
             49230.00,11138.64 49205.00,11151.69 49205.00,11151.69
             49205.00,11151.69 49186.00,11158.87 49186.00,11158.87
             49186.00,11158.87 49158.00,11172.57 49158.00,11172.57
             49158.00,11172.57 49112.00,11190.20 49112.00,11190.20
             49112.00,11190.20 49098.00,11196.69 49098.00,11196.69
             49098.00,11196.69 49067.00,11208.97 49067.00,11208.97
             49052.78,11213.48 49033.90,11216.98 49019.00,11217.00
             49019.00,11217.00 49000.00,11218.00 49000.00,11218.00
             48984.68,11217.82 48969.04,11214.14 48954.00,11211.42
             48954.00,11211.42 48911.00,11202.57 48911.00,11202.57
             48889.57,11196.53 48844.15,11176.10 48825.00,11164.55
             48815.77,11158.98 48807.18,11152.58 48799.00,11145.57
             48799.00,11145.57 48787.00,11135.16 48787.00,11135.16
             48787.00,11135.16 48770.00,11123.52 48770.00,11123.52
             48770.00,11123.52 48746.00,11104.65 48746.00,11104.65
             48746.00,11104.65 48732.00,11094.69 48732.00,11094.69
             48732.00,11094.69 48716.00,11080.80 48716.00,11080.80
             48716.00,11080.80 48690.00,11060.54 48690.00,11060.54
             48690.00,11060.54 48669.01,11042.96 48669.01,11042.96
             48669.01,11042.96 48636.43,11003.00 48636.43,11003.00
             48636.43,11003.00 48620.42,10980.00 48620.42,10980.00
             48618.07,10976.22 48614.70,10969.28 48610.91,10967.17
             48607.19,10965.10 48600.22,10965.21 48596.00,10964.91
             48596.00,10964.91 48586.00,10964.00 48586.00,10964.00
             48586.00,10964.00 48567.00,10964.00 48567.00,10964.00
             48567.00,10964.00 48538.00,10962.00 48538.00,10962.00
             48538.00,10962.00 48510.00,10962.00 48510.00,10962.00
             48510.00,10962.00 48457.00,10958.71 48457.00,10958.71
             48457.00,10958.71 48432.00,10954.43 48432.00,10954.43
             48432.00,10954.43 48416.00,10952.72 48416.00,10952.72
             48416.00,10952.72 48376.00,10949.00 48376.00,10949.00
             48376.00,10949.00 48348.00,10950.28 48348.00,10950.28
             48345.06,10950.64 48340.51,10951.08 48338.10,10952.74
             48332.03,10956.92 48330.94,10970.10 48329.55,10977.00
             48327.36,10987.92 48318.63,11010.13 48314.14,11021.00
             48314.14,11021.00 48300.88,11051.00 48300.88,11051.00
             48300.88,11051.00 48290.86,11068.00 48290.86,11068.00
             48290.86,11068.00 48275.06,11101.00 48275.06,11101.00
             48275.06,11101.00 48268.28,11127.00 48268.28,11127.00
             48268.28,11127.00 48259.46,11148.00 48259.46,11148.00
             48259.46,11148.00 48250.69,11173.00 48250.69,11173.00
             48243.80,11187.93 48233.25,11200.22 48220.00,11209.84
             48211.07,11216.33 48203.33,11219.26 48194.00,11224.31
             48173.56,11235.36 48152.49,11245.15 48131.00,11253.99
             48131.00,11253.99 48116.00,11259.45 48116.00,11259.45
             48116.00,11259.45 48096.00,11267.77 48096.00,11267.77
             48096.00,11267.77 48066.00,11277.06 48066.00,11277.06
             48066.00,11277.06 48023.00,11300.22 48023.00,11300.22
             48023.00,11300.22 47985.00,11318.47 47985.00,11318.47
             47975.68,11324.25 47967.17,11336.63 47959.72,11345.00
             47954.83,11350.49 47940.28,11362.33 47934.00,11367.12
             47919.67,11378.04 47905.61,11385.48 47890.00,11394.14
             47883.69,11397.64 47874.41,11401.66 47869.04,11406.33
             47862.93,11411.63 47856.83,11424.17 47850.82,11431.00
             47840.03,11443.25 47824.02,11452.48 47809.00,11458.55
             47799.06,11462.56 47788.35,11464.31 47778.00,11466.89
             47778.00,11466.89 47758.00,11472.42 47758.00,11472.42
             47758.00,11472.42 47723.00,11482.42 47723.00,11482.42
             47723.00,11482.42 47704.00,11488.11 47704.00,11488.11
             47704.00,11488.11 47667.00,11495.48 47667.00,11495.48
             47667.00,11495.48 47638.00,11504.35 47638.00,11504.35
             47638.00,11504.35 47594.00,11512.92 47594.00,11512.92
             47594.00,11512.92 47566.00,11524.00 47566.00,11524.00
             47560.20,11526.32 47549.94,11530.05 47545.00,11533.07
             47545.00,11533.07 47513.00,11555.31 47513.00,11555.31
             47513.00,11555.31 47474.00,11579.24 47474.00,11579.24
             47474.00,11579.24 47456.00,11593.30 47456.00,11593.30
             47456.00,11593.30 47446.00,11602.71 47446.00,11602.71
             47446.00,11602.71 47405.00,11636.58 47405.00,11636.58
             47405.00,11636.58 47381.00,11654.65 47381.00,11654.65
             47381.00,11654.65 47357.00,11670.03 47357.00,11670.03
             47357.00,11670.03 47341.00,11682.21 47341.00,11682.21
             47325.41,11694.44 47304.10,11709.79 47287.00,11719.57
             47287.00,11719.57 47263.00,11732.31 47263.00,11732.31
             47242.29,11743.51 47238.79,11747.24 47215.00,11752.65
             47209.80,11753.83 47206.43,11754.75 47201.00,11755.00 Z" />
</svg>
