<?xml version="1.0" encoding="UTF-8" standalone="no"?>
<!DOCTYPE svg PUBLIC "-//W3C//DTD SVG 20010904//EN"
              "http://www.w3.org/TR/2001/REC-SVG-20010904/DTD/svg10.dtd">

<svg xmlns="http://www.w3.org/2000/svg"
     width="28895.9mm" height="28895.9mm"
     viewBox="0 0 81920 81920">
  <path id="Frostfeld 3"
        fill="none" stroke="black" stroke-width="1"
        d="M 43614.00,14884.00
           C 43607.82,14899.41 43600.94,14896.78 43594.32,14911.00
             43591.16,14917.80 43591.59,14922.00 43589.93,14926.00
             43589.93,14926.00 43576.87,14950.00 43576.87,14950.00
             43576.87,14950.00 43563.52,14986.00 43563.52,14986.00
             43563.52,14986.00 43547.40,15016.00 43547.40,15016.00
             43547.40,15016.00 43534.97,15037.00 43534.97,15037.00
             43534.97,15037.00 43525.75,15059.00 43525.75,15059.00
             43525.75,15059.00 43518.66,15082.00 43518.66,15082.00
             43515.37,15091.37 43512.41,15093.05 43507.42,15101.00
             43507.42,15101.00 43491.37,15126.90 43491.37,15126.90
             43488.70,15130.25 43481.40,15134.62 43477.00,15133.84
             43475.03,15133.49 43465.93,15129.15 43455.00,15127.44
             43455.00,15127.44 43447.00,15126.91 43447.00,15126.91
             43447.00,15126.91 43437.00,15126.00 43437.00,15126.00
             43437.00,15126.00 43413.00,15126.00 43413.00,15126.00
             43413.00,15126.00 43398.00,15124.09 43398.00,15124.09
             43398.00,15124.09 43375.00,15123.00 43375.00,15123.00
             43375.00,15123.00 43347.00,15121.00 43347.00,15121.00
             43347.00,15121.00 43341.00,15121.00 43341.00,15121.00
             43327.00,15120.83 43312.25,15113.02 43297.00,15113.00
             43297.00,15113.00 43269.00,15113.00 43269.00,15113.00
             43269.00,15113.00 43250.00,15114.00 43250.00,15114.00
             43250.00,15114.00 43235.00,15115.00 43235.00,15115.00
             43235.00,15115.00 43210.00,15115.00 43210.00,15115.00
             43200.25,15115.02 43190.63,15117.26 43181.00,15118.58
             43181.00,15118.58 43170.00,15119.29 43170.00,15119.29
             43155.50,15121.17 43144.33,15126.81 43128.00,15127.00
             43111.09,15127.19 43091.67,15128.01 43076.00,15120.68
             43063.50,15114.83 43057.15,15105.39 43047.99,15096.00
             43047.99,15096.00 43025.00,15073.17 43025.00,15073.17
             43025.00,15073.17 43014.00,15063.91 43014.00,15063.91
             43014.00,15063.91 43001.83,15051.23 43001.83,15051.23
             42997.42,15047.23 42989.78,15047.57 42984.00,15046.34
             42972.58,15043.90 42962.49,15040.94 42953.00,15033.76
             42935.20,15020.30 42915.75,14994.10 42898.72,14977.42
             42890.20,14969.09 42885.96,14968.35 42877.00,14962.25
             42877.00,14962.25 42859.00,14949.09 42859.00,14949.09
             42850.63,14944.17 42835.65,14943.85 42825.00,14939.55
             42825.00,14939.55 42801.00,14927.57 42801.00,14927.57
             42797.77,14925.71 42791.95,14921.16 42789.00,14920.55
             42786.21,14919.76 42783.75,14920.66 42781.00,14920.55
             42781.00,14920.55 42761.00,14918.75 42761.00,14918.75
             42761.00,14918.75 42701.00,14901.88 42701.00,14901.88
             42701.00,14901.88 42684.00,14898.12 42684.00,14898.12
             42667.47,14894.19 42652.86,14889.10 42638.00,14880.86
             42631.38,14877.19 42627.91,14876.34 42622.00,14870.91
             42606.31,14856.49 42599.53,14838.62 42592.66,14819.00
             42588.41,14806.88 42585.02,14794.98 42585.00,14782.00
             42585.00,14782.00 42585.00,14741.00 42585.00,14741.00
             42584.99,14734.63 42584.19,14725.94 42581.94,14720.00
             42580.17,14715.33 42578.58,14713.19 42576.31,14709.00
             42565.83,14689.66 42554.04,14678.03 42554.00,14655.00
             42554.00,14655.00 42554.00,14622.00 42554.00,14622.00
             42553.90,14614.10 42552.36,14613.01 42550.20,14606.00
             42549.27,14602.96 42549.02,14600.93 42547.45,14598.00
             42543.59,14590.80 42533.67,14580.18 42527.91,14574.00
             42525.20,14571.08 42517.09,14562.63 42514.00,14561.01
             42514.00,14561.01 42498.00,14556.21 42498.00,14556.21
             42482.03,14548.92 42474.58,14536.28 42479.43,14519.00
             42479.43,14519.00 42489.31,14491.00 42489.31,14491.00
             42495.48,14473.72 42501.96,14456.38 42512.08,14441.00
             42512.08,14441.00 42530.29,14416.00 42530.29,14416.00
             42530.29,14416.00 42545.72,14399.00 42545.72,14399.00
             42545.72,14399.00 42574.45,14361.00 42574.45,14361.00
             42574.45,14361.00 42604.75,14304.00 42604.75,14304.00
             42609.66,14294.19 42614.08,14283.82 42620.63,14275.00
             42628.64,14264.22 42636.94,14254.81 42648.00,14247.04
             42648.00,14247.04 42677.96,14227.70 42677.96,14227.70
             42682.91,14223.23 42684.22,14218.61 42687.43,14213.00
             42691.34,14206.16 42702.97,14186.66 42704.67,14180.09
             42705.98,14175.03 42703.13,14170.67 42701.44,14166.00
             42699.39,14160.35 42698.88,14156.98 42699.01,14151.00
             42699.31,14138.29 42706.56,14128.80 42716.00,14120.92
             42726.12,14112.48 42732.41,14110.83 42744.00,14105.85
             42757.43,14100.08 42770.95,14094.53 42785.00,14090.42
             42791.68,14088.47 42806.17,14085.80 42810.99,14082.35
             42814.07,14080.15 42824.90,14067.61 42828.17,14064.00
             42828.17,14064.00 42843.78,14048.91 42843.78,14048.91
             42849.99,14041.96 42844.52,14041.73 42855.00,14037.13
             42861.51,14034.27 42873.38,14027.36 42879.00,14023.10
             42879.00,14023.10 42890.28,14013.02 42890.28,14013.02
             42892.24,14011.91 42900.61,14011.14 42903.00,14011.32
             42913.92,14012.16 42918.24,14019.60 42927.00,14025.65
             42927.00,14025.65 42945.91,14038.81 42945.91,14038.81
             42954.32,14046.06 42954.17,14050.32 42969.00,14057.63
             42980.61,14063.35 42994.52,14064.04 43007.00,14061.33
             43017.88,14058.97 43028.89,14053.60 43036.99,14045.91
             43036.99,14045.91 43052.28,14029.82 43052.28,14029.82
             43058.08,14025.60 43076.35,14023.11 43079.00,14021.84
             43079.00,14021.84 43093.00,14011.70 43093.00,14011.70
             43093.00,14011.70 43117.00,13999.19 43117.00,13999.19
             43121.73,13996.82 43125.92,13993.86 43131.00,13992.10
             43131.00,13992.10 43180.00,13986.25 43180.00,13986.25
             43180.00,13986.25 43214.00,13979.12 43214.00,13979.12
             43214.00,13979.12 43228.00,13973.93 43228.00,13973.93
             43228.00,13973.93 43239.00,13973.93 43239.00,13973.93
             43239.00,13973.93 43253.00,13973.93 43253.00,13973.93
             43253.00,13973.93 43269.00,13975.00 43269.00,13975.00
             43269.00,13975.00 43325.00,13975.00 43325.00,13975.00
             43325.00,13975.00 43342.00,13976.00 43342.00,13976.00
             43342.00,13976.00 43361.00,13976.00 43361.00,13976.00
             43361.00,13976.00 43383.00,13977.00 43383.00,13977.00
             43389.38,13976.92 43395.80,13975.31 43402.00,13973.88
             43402.00,13973.88 43415.00,13971.34 43415.00,13971.34
             43434.69,13967.07 43447.88,13963.17 43468.00,13970.81
             43487.92,13978.39 43503.82,13998.54 43516.58,14015.00
             43523.23,14023.59 43525.64,14029.25 43535.00,14036.24
             43542.90,14042.15 43547.22,14043.43 43555.00,14047.87
             43555.00,14047.87 43588.00,14065.69 43588.00,14065.69
             43588.00,14065.69 43604.00,14071.44 43604.00,14071.44
             43604.00,14071.44 43616.00,14076.57 43616.00,14076.57
             43630.19,14082.65 43642.79,14089.55 43642.76,14107.00
             43642.76,14107.00 43642.76,14119.00 43642.76,14119.00
             43642.58,14121.62 43641.50,14125.46 43642.76,14127.91
             43643.66,14131.03 43648.36,14133.44 43651.00,14135.52
             43651.00,14135.52 43666.00,14149.15 43666.00,14149.15
             43667.99,14150.89 43670.35,14153.37 43673.00,14153.94
             43675.43,14154.46 43682.19,14152.09 43685.00,14151.37
             43685.00,14151.37 43716.00,14143.42 43716.00,14143.42
             43716.00,14143.42 43792.00,14128.42 43792.00,14128.42
             43792.00,14128.42 43834.00,14122.34 43834.00,14122.34
             43834.00,14122.34 43848.00,14119.00 43848.00,14119.00
             43859.49,14116.68 43866.28,14117.19 43877.00,14110.53
             43884.01,14106.19 43888.19,14100.13 43893.43,14094.00
             43893.43,14094.00 43911.71,14073.00 43911.71,14073.00
             43911.71,14073.00 43921.04,14062.00 43921.04,14062.00
             43921.04,14062.00 43937.13,14044.01 43937.13,14044.01
             43944.66,14035.43 43950.85,14030.25 43951.00,14018.00
             43951.06,14012.35 43950.60,14008.53 43952.55,14003.00
             43957.93,13987.72 43973.35,13978.24 43988.00,13973.35
             43994.60,13971.15 44005.81,13969.01 44012.72,13969.22
             44012.72,13969.22 44045.00,13973.00 44045.00,13973.00
             44045.00,13973.00 44057.00,13973.00 44057.00,13973.00
             44057.00,13973.00 44068.00,13973.82 44068.00,13973.82
             44073.76,13974.22 44079.58,13971.71 44085.00,13970.02
             44085.00,13970.02 44116.00,13959.06 44116.00,13959.06
             44132.28,13952.89 44134.74,13953.85 44150.00,13950.35
             44161.62,13947.69 44175.07,13944.14 44187.00,13944.00
             44187.00,13944.00 44225.00,13944.00 44225.00,13944.00
             44225.00,13944.00 44240.00,13943.00 44240.00,13943.00
             44240.00,13943.00 44273.00,13940.94 44273.00,13940.94
             44273.00,13940.94 44281.00,13940.94 44281.00,13940.94
             44294.05,13939.01 44306.73,13936.02 44320.00,13936.00
             44320.00,13936.00 44353.00,13936.00 44353.00,13936.00
             44353.00,13936.00 44365.28,13935.24 44365.28,13935.24
             44371.23,13935.11 44382.41,13936.94 44388.00,13939.06
             44391.30,13940.32 44397.38,13943.16 44399.23,13946.18
             44400.90,13948.90 44399.46,13951.05 44400.90,13957.00
             44400.90,13957.00 44404.78,13969.00 44404.78,13969.00
             44405.37,13973.72 44403.18,13977.57 44403.18,13982.00
             44403.18,13988.79 44407.36,13996.53 44411.09,14002.00
             44415.39,14008.31 44421.59,14013.24 44425.36,14020.00
             44425.36,14020.00 44433.92,14048.00 44433.92,14048.00
             44436.82,14055.17 44439.41,14056.79 44441.56,14061.00
             44441.56,14061.00 44444.90,14070.00 44444.90,14070.00
             44444.90,14070.00 44462.35,14103.00 44462.35,14103.00
             44462.35,14103.00 44468.93,14112.00 44468.93,14112.00
             44468.93,14112.00 44473.34,14121.00 44473.34,14121.00
             44473.34,14121.00 44479.45,14130.00 44479.45,14130.00
             44479.45,14130.00 44489.49,14146.00 44489.49,14146.00
             44489.49,14146.00 44499.39,14162.00 44499.39,14162.00
             44502.10,14165.44 44504.85,14167.39 44507.91,14170.28
             44507.91,14170.28 44525.67,14189.00 44525.67,14189.00
             44525.67,14189.00 44534.80,14207.00 44534.80,14207.00
             44534.80,14207.00 44542.17,14218.00 44542.17,14218.00
             44545.71,14224.92 44544.61,14227.57 44551.47,14236.00
             44564.19,14251.66 44583.96,14255.22 44603.00,14255.00
             44603.00,14255.00 44618.00,14253.18 44618.00,14253.18
             44630.74,14252.26 44645.50,14261.07 44655.00,14268.66
             44659.20,14272.02 44664.97,14278.01 44667.07,14283.00
             44668.45,14286.29 44667.96,14292.29 44668.00,14296.00
             44668.13,14306.41 44671.17,14310.76 44674.46,14320.00
             44674.46,14320.00 44679.67,14336.00 44679.67,14336.00
             44679.67,14336.00 44682.66,14345.00 44682.66,14345.00
             44682.66,14345.00 44685.60,14358.00 44685.60,14358.00
             44685.60,14358.00 44693.46,14377.00 44693.46,14377.00
             44696.41,14385.28 44698.61,14394.27 44702.90,14402.00
             44708.78,14412.57 44723.30,14424.66 44735.00,14428.00
             44735.00,14428.00 44736.00,14476.00 44736.00,14476.00
             44736.00,14476.00 44736.00,14556.00 44736.00,14556.00
             44735.97,14569.05 44730.93,14567.81 44725.95,14581.00
             44725.95,14581.00 44720.90,14596.00 44720.90,14596.00
             44719.72,14600.83 44719.40,14606.47 44717.47,14611.00
             44717.47,14611.00 44711.85,14621.00 44711.85,14621.00
             44705.57,14631.94 44700.14,14641.73 44696.74,14654.00
             44694.10,14663.54 44695.61,14664.88 44694.83,14673.00
             44694.83,14673.00 44692.17,14695.00 44692.17,14695.00
             44692.17,14695.00 44691.54,14706.00 44691.54,14706.00
             44689.28,14718.73 44685.18,14719.97 44680.88,14730.00
             44679.35,14733.57 44677.34,14743.40 44675.42,14745.49
             44673.81,14747.24 44668.49,14749.01 44666.00,14750.32
             44660.23,14753.35 44654.57,14757.26 44650.09,14762.01
             44650.09,14762.01 44616.62,14806.00 44616.62,14806.00
             44612.11,14811.63 44606.12,14815.94 44601.00,14821.00
             44601.00,14821.00 44581.27,14841.83 44581.27,14841.83
             44581.27,14841.83 44568.09,14855.00 44568.09,14855.00
             44558.26,14865.56 44556.20,14872.88 44551.67,14877.83
             44551.67,14877.83 44522.00,14900.17 44522.00,14900.17
             44508.88,14911.89 44499.20,14927.48 44496.22,14945.00
             44496.22,14945.00 44496.22,14963.00 44496.22,14963.00
             44495.91,14970.70 44493.24,14985.45 44491.25,14993.00
             44491.25,14993.00 44486.89,15007.00 44486.89,15007.00
             44486.89,15007.00 44483.01,15027.00 44483.01,15027.00
             44483.01,15027.00 44477.52,15037.00 44477.52,15037.00
             44477.52,15037.00 44470.42,15059.00 44470.42,15059.00
             44470.42,15059.00 44466.39,15082.00 44466.39,15082.00
             44466.39,15082.00 44463.81,15093.00 44463.81,15093.00
             44463.81,15093.00 44462.48,15102.00 44462.48,15102.00
             44462.48,15102.00 44460.01,15111.00 44460.01,15111.00
             44458.20,15119.38 44459.85,15125.28 44457.98,15129.00
             44455.88,15133.18 44444.63,15142.02 44440.00,15143.01
             44440.00,15143.01 44428.00,15143.01 44428.00,15143.01
             44407.15,15143.25 44384.53,15154.42 44368.00,15166.49
             44368.00,15166.49 44351.83,15180.72 44351.83,15180.72
             44348.24,15182.84 44340.33,15184.00 44336.00,15185.15
             44336.00,15185.15 44315.00,15192.69 44315.00,15192.69
             44315.00,15192.69 44273.00,15210.09 44273.00,15210.09
             44261.62,15213.35 44249.72,15213.13 44238.00,15213.00
             44224.09,15212.83 44209.63,15208.34 44198.00,15200.76
             44192.79,15197.36 44188.81,15192.53 44184.00,15188.62
             44184.00,15188.62 44167.00,15177.31 44167.00,15177.31
             44155.04,15169.51 44150.40,15162.02 44135.00,15162.00
             44135.00,15162.00 44101.00,15162.00 44101.00,15162.00
             44076.16,15161.71 44052.26,15152.47 44037.16,15132.00
             44028.80,15120.67 44024.85,15106.89 44015.68,15096.00
             44015.68,15096.00 44002.00,15083.00 44002.00,15083.00
             44002.00,15083.00 43976.29,15055.00 43976.29,15055.00
             43976.29,15055.00 43955.23,15026.00 43955.23,15026.00
             43955.23,15026.00 43943.80,15006.00 43943.80,15006.00
             43940.21,14999.96 43931.80,14981.57 43929.91,14975.00
             43928.12,14968.78 43925.12,14956.92 43919.79,14952.99
             43912.42,14947.56 43897.54,14944.98 43889.00,14942.25
             43889.00,14942.25 43875.00,14937.03 43875.00,14937.03
             43875.00,14937.03 43831.00,14924.88 43831.00,14924.88
             43831.00,14924.88 43815.00,14921.65 43815.00,14921.65
             43815.00,14921.65 43793.00,14911.87 43793.00,14911.87
             43793.00,14911.87 43776.00,14905.44 43776.00,14905.44
             43776.00,14905.44 43751.00,14898.92 43751.00,14898.92
             43751.00,14898.92 43710.00,14884.16 43710.00,14884.16
             43700.73,14881.62 43689.59,14880.02 43680.00,14880.00
             43680.00,14880.00 43660.00,14878.00 43660.00,14878.00
             43647.85,14877.86 43644.97,14877.69 43633.00,14880.88
             43623.06,14883.54 43622.89,14887.16 43614.00,14884.00 Z" />
</svg>
