<?xml version="1.0" encoding="UTF-8" standalone="no"?>
<!DOCTYPE svg PUBLIC "-//W3C//DTD SVG 20010904//EN"
              "http://www.w3.org/TR/2001/REC-SVG-20010904/DTD/svg10.dtd">

<svg xmlns="http://www.w3.org/2000/svg"
     width="28895.9mm" height="28895.9mm"
     viewBox="0 0 81920 81920">
  <path id="Frostfeld 2"
        fill="none" stroke="black" stroke-width="1"
        d="M 41619.00,13356.63
           C 41625.29,13355.66 41625.15,13356.21 41631.00,13356.63
             41646.80,13358.53 41661.25,13364.42 41671.67,13377.00
             41677.48,13384.01 41676.57,13388.07 41682.17,13395.00
             41682.17,13395.00 41692.50,13407.00 41692.50,13407.00
             41696.17,13411.77 41705.18,13429.31 41706.47,13435.00
             41707.07,13437.66 41707.00,13440.30 41707.00,13443.00
             41707.00,13443.00 41707.00,13481.00 41707.00,13481.00
             41707.00,13484.08 41706.90,13487.01 41707.80,13490.00
             41707.80,13490.00 41720.62,13513.00 41720.62,13513.00
             41720.62,13513.00 41727.94,13523.00 41727.94,13523.00
             41727.94,13523.00 41734.97,13537.00 41734.97,13537.00
             41734.97,13537.00 41740.69,13547.00 41740.69,13547.00
             41745.05,13555.04 41748.27,13563.55 41753.78,13570.99
             41753.78,13570.99 41786.27,13602.09 41786.27,13602.09
             41793.98,13610.48 41801.01,13627.02 41807.18,13632.47
             41807.18,13632.47 41814.00,13637.09 41814.00,13637.09
             41814.00,13637.09 41821.00,13641.93 41821.00,13641.93
             41821.00,13641.93 41829.00,13645.31 41829.00,13645.31
             41829.00,13645.31 41863.00,13662.10 41863.00,13662.10
             41873.31,13668.97 41876.29,13679.37 41884.30,13688.09
             41897.47,13702.43 41904.24,13706.47 41904.00,13727.00
             41903.89,13736.32 41896.83,13751.26 41891.64,13759.00
             41887.99,13764.45 41884.62,13767.82 41881.32,13774.00
             41881.32,13774.00 41876.56,13784.00 41876.56,13784.00
             41876.56,13784.00 41868.63,13797.00 41868.63,13797.00
             41868.63,13797.00 41864.63,13806.00 41864.63,13806.00
             41862.01,13811.16 41860.06,13812.62 41857.62,13819.00
             41857.62,13819.00 41854.28,13834.00 41854.28,13834.00
             41850.83,13845.50 41848.02,13845.33 41848.00,13859.00
             41848.00,13859.00 41848.00,13875.00 41848.00,13875.00
             41848.00,13875.00 41846.10,13894.00 41846.10,13894.00
             41844.85,13899.17 41843.42,13901.34 41841.43,13906.00
             41831.74,13928.65 41815.67,13945.96 41790.00,13948.83
             41781.59,13949.77 41774.34,13949.79 41766.00,13947.99
             41760.88,13946.88 41754.91,13943.85 41750.00,13944.50
             41743.11,13945.41 41734.53,13949.84 41728.00,13952.14
             41728.00,13952.14 41707.00,13958.52 41707.00,13958.52
             41701.34,13961.09 41696.19,13965.81 41691.00,13969.33
             41686.11,13972.65 41679.64,13976.72 41676.77,13982.01
             41673.12,13988.75 41673.91,14006.86 41674.00,14015.00
             41674.14,14026.65 41677.40,14033.54 41681.55,14044.00
             41681.55,14044.00 41685.37,14054.00 41685.37,14054.00
             41685.37,14054.00 41692.19,14066.00 41692.19,14066.00
             41692.19,14066.00 41697.46,14080.00 41697.46,14080.00
             41697.46,14080.00 41706.27,14097.00 41706.27,14097.00
             41709.95,14104.28 41714.26,14108.85 41716.79,14117.00
             41725.74,14145.79 41723.95,14159.95 41724.00,14189.00
             41724.02,14201.47 41726.97,14201.31 41729.50,14212.00
             41732.78,14225.89 41728.94,14221.03 41736.04,14242.00
             41740.18,14254.23 41742.98,14253.33 41743.00,14269.00
             41743.00,14269.00 41746.00,14304.00 41746.00,14304.00
             41746.00,14304.00 41746.00,14333.00 41746.00,14333.00
             41745.88,14343.29 41742.96,14349.72 41739.42,14359.00
             41736.23,14367.40 41730.60,14380.81 41725.56,14388.00
             41725.56,14388.00 41709.85,14408.00 41709.85,14408.00
             41701.23,14417.74 41691.94,14427.01 41684.87,14438.00
             41679.63,14446.12 41680.49,14449.47 41675.47,14456.00
             41675.47,14456.00 41668.46,14464.00 41668.46,14464.00
             41668.46,14464.00 41660.71,14474.00 41660.71,14474.00
             41660.71,14474.00 41647.62,14489.00 41647.62,14489.00
             41647.62,14489.00 41638.24,14502.00 41638.24,14502.00
             41638.24,14502.00 41629.60,14512.00 41629.60,14512.00
             41627.77,14514.88 41627.70,14520.18 41626.56,14524.00
             41624.58,14530.65 41620.45,14537.84 41615.83,14543.00
             41609.61,14549.94 41602.07,14554.48 41595.00,14560.44
             41595.00,14560.44 41582.00,14571.61 41582.00,14571.61
             41582.00,14571.61 41568.00,14584.91 41568.00,14584.91
             41568.00,14584.91 41547.00,14601.96 41547.00,14601.96
             41547.00,14601.96 41514.00,14623.14 41514.00,14623.14
             41514.00,14623.14 41491.00,14635.20 41491.00,14635.20
             41491.00,14635.20 41475.00,14645.46 41475.00,14645.46
             41475.00,14645.46 41452.17,14660.63 41452.17,14660.63
             41452.17,14660.63 41437.00,14675.54 41437.00,14675.54
             41427.39,14683.41 41410.36,14690.92 41398.00,14692.70
             41379.95,14695.31 41357.76,14693.24 41343.00,14681.48
             41335.30,14675.35 41334.78,14670.01 41328.96,14665.63
             41328.96,14665.63 41316.00,14658.19 41316.00,14658.19
             41316.00,14658.19 41303.00,14648.42 41303.00,14648.42
             41293.48,14640.99 41271.17,14624.68 41264.17,14617.00
             41260.23,14612.67 41253.84,14604.22 41251.32,14599.00
             41251.32,14599.00 41245.68,14585.00 41245.68,14585.00
             41245.68,14585.00 41238.31,14573.00 41238.31,14573.00
             41238.31,14573.00 41226.54,14546.00 41226.54,14546.00
             41226.54,14546.00 41219.02,14503.00 41219.02,14503.00
             41219.02,14503.00 41211.76,14490.00 41211.76,14490.00
             41211.76,14490.00 41205.13,14474.00 41205.13,14474.00
             41205.13,14474.00 41190.75,14452.00 41190.75,14452.00
             41190.75,14452.00 41184.22,14441.00 41184.22,14441.00
             41184.22,14441.00 41178.11,14433.00 41178.11,14433.00
             41178.11,14433.00 41167.82,14412.00 41167.82,14412.00
             41162.51,14402.30 41159.65,14400.68 41153.51,14393.00
             41153.51,14393.00 41132.09,14370.00 41132.09,14370.00
             41132.09,14370.00 41110.96,14347.47 41110.96,14347.47
             41106.25,14343.49 41098.69,14340.69 41093.00,14337.74
             41093.00,14337.74 41082.00,14331.32 41082.00,14331.32
             41078.28,14329.37 41076.64,14329.22 41073.00,14327.91
             41060.72,14323.49 41060.33,14323.15 41047.00,14323.00
             41047.00,14323.00 41020.00,14321.22 41020.00,14321.22
             41016.52,14321.67 41012.35,14324.14 41009.00,14325.57
             41009.00,14325.57 40990.09,14333.41 40990.09,14333.41
             40987.03,14335.24 40984.63,14338.38 40981.99,14340.83
             40981.99,14340.83 40965.17,14357.17 40965.17,14357.17
             40965.17,14357.17 40958.96,14363.83 40958.96,14363.83
             40954.98,14367.58 40950.39,14370.65 40946.00,14373.88
             40925.99,14388.62 40913.65,14392.28 40889.00,14392.00
             40879.52,14391.89 40868.41,14389.61 40860.00,14385.22
             40860.00,14385.22 40841.00,14373.75 40841.00,14373.75
             40835.41,14371.27 40829.80,14372.64 40820.00,14368.94
             40808.40,14364.54 40802.48,14358.53 40793.00,14351.48
             40786.97,14346.99 40781.31,14343.97 40776.33,14338.00
             40771.75,14332.51 40769.87,14326.02 40769.17,14319.00
             40768.69,14314.17 40769.68,14311.74 40767.47,14307.00
             40767.47,14307.00 40763.31,14299.00 40763.31,14299.00
             40763.31,14299.00 40759.63,14290.00 40759.63,14290.00
             40759.63,14290.00 40755.56,14282.00 40755.56,14282.00
             40755.56,14282.00 40750.83,14264.00 40750.83,14264.00
             40750.83,14264.00 40744.66,14248.00 40744.66,14248.00
             40744.66,14248.00 40740.77,14239.00 40740.77,14239.00
             40740.77,14239.00 40732.64,14209.00 40732.64,14209.00
             40732.64,14209.00 40726.05,14192.00 40726.05,14192.00
             40726.05,14192.00 40718.24,14170.00 40718.24,14170.00
             40718.24,14170.00 40714.56,14162.00 40714.56,14162.00
             40714.56,14162.00 40707.09,14137.00 40707.09,14137.00
             40704.18,14130.84 40699.61,14126.84 40695.09,14122.00
             40679.47,14105.28 40662.03,14097.05 40646.01,14081.91
             40646.01,14081.91 40631.32,14067.00 40631.32,14067.00
             40631.32,14067.00 40622.83,14056.00 40622.83,14056.00
             40622.83,14056.00 40605.78,14038.00 40605.78,14038.00
             40605.78,14038.00 40589.62,14011.31 40589.62,14011.31
             40586.73,14008.60 40577.60,14008.36 40573.00,14006.96
             40558.61,14002.57 40547.40,13991.83 40548.04,13976.00
             40548.45,13965.90 40552.61,13961.36 40556.69,13953.00
             40556.69,13953.00 40574.89,13917.00 40574.89,13917.00
             40581.00,13907.87 40584.65,13907.22 40588.35,13902.00
             40588.35,13902.00 40598.88,13880.00 40598.88,13880.00
             40598.88,13880.00 40608.90,13866.00 40608.90,13866.00
             40608.90,13866.00 40621.19,13844.00 40621.19,13844.00
             40621.19,13844.00 40633.31,13816.00 40633.31,13816.00
             40633.31,13816.00 40637.36,13802.00 40637.36,13802.00
             40637.36,13802.00 40642.98,13787.00 40642.98,13787.00
             40642.98,13787.00 40650.05,13762.00 40650.05,13762.00
             40650.05,13762.00 40661.11,13738.00 40661.11,13738.00
             40661.11,13738.00 40668.37,13721.00 40668.37,13721.00
             40668.37,13721.00 40677.14,13704.00 40677.14,13704.00
             40677.14,13704.00 40682.78,13690.00 40682.78,13690.00
             40688.75,13671.52 40687.18,13669.30 40699.92,13652.00
             40704.27,13646.10 40716.22,13634.18 40722.00,13629.92
             40722.00,13629.92 40741.00,13617.33 40741.00,13617.33
             40741.00,13617.33 40761.00,13598.24 40761.00,13598.24
             40774.86,13587.52 40792.67,13583.03 40810.00,13583.00
             40810.00,13583.00 40832.00,13583.00 40832.00,13583.00
             40832.00,13583.00 40866.00,13581.00 40866.00,13581.00
             40866.00,13581.00 40903.00,13576.17 40903.00,13576.17
             40903.00,13576.17 40946.00,13575.00 40946.00,13575.00
             40952.25,13574.99 40961.75,13573.67 40968.00,13572.54
             40968.00,13572.54 40978.00,13570.30 40978.00,13570.30
             40985.63,13569.20 40993.30,13569.09 41001.00,13569.00
             41001.00,13569.00 41016.00,13568.00 41016.00,13568.00
             41016.00,13568.00 41137.00,13568.00 41137.00,13568.00
             41139.76,13567.99 41143.29,13568.33 41145.50,13566.40
             41147.81,13564.40 41150.63,13555.33 41152.01,13552.00
             41154.66,13545.64 41161.12,13534.89 41165.00,13529.00
             41165.00,13529.00 41179.14,13507.00 41179.14,13507.00
             41182.37,13501.21 41183.54,13496.45 41187.49,13491.00
             41187.49,13491.00 41204.28,13470.00 41204.28,13470.00
             41204.28,13470.00 41216.47,13456.00 41216.47,13456.00
             41216.47,13456.00 41226.55,13439.00 41226.55,13439.00
             41232.83,13428.30 41230.08,13424.37 41231.47,13417.00
             41232.50,13411.50 41235.34,13406.34 41238.82,13402.01
             41254.46,13382.54 41288.69,13376.97 41312.00,13382.01
             41322.09,13384.20 41332.76,13390.89 41341.00,13391.00
             41341.00,13391.00 41447.00,13391.00 41447.00,13391.00
             41447.00,13391.00 41475.00,13389.00 41475.00,13389.00
             41475.00,13389.00 41491.00,13389.00 41491.00,13389.00
             41504.51,13388.98 41524.28,13385.05 41538.00,13382.58
             41543.02,13381.67 41552.65,13380.20 41557.00,13378.53
             41557.00,13378.53 41575.00,13370.73 41575.00,13370.73
             41583.65,13366.40 41585.92,13364.21 41596.00,13360.69
             41605.96,13357.22 41609.42,13357.78 41619.00,13356.63 Z" />
</svg>
