<?xml version="1.0" encoding="UTF-8" standalone="no"?>
<!DOCTYPE svg PUBLIC "-//W3C//DTD SVG 20010904//EN"
              "http://www.w3.org/TR/2001/REC-SVG-20010904/DTD/svg10.dtd">

<svg xmlns="http://www.w3.org/2000/svg"
     width="28895.9mm" height="28895.9mm"
     viewBox="0 0 81920 81920">
  <path id="Frostfeld 0"
        fill="none" stroke="black" stroke-width="1"
        d="M 47211.00,11916.00
           C 47216.89,11926.35 47216.08,11927.76 47220.31,11937.00
             47220.31,11937.00 47229.72,11956.00 47229.72,11956.00
             47229.72,11956.00 47245.58,11998.00 47245.58,11998.00
             47251.61,12013.99 47256.97,12035.86 47257.00,12053.00
             47257.00,12053.00 47257.00,12070.00 47257.00,12070.00
             47256.71,12094.86 47248.68,12115.67 47233.19,12135.00
             47233.19,12135.00 47209.07,12160.08 47209.07,12160.08
             47209.07,12160.08 47194.00,12174.71 47194.00,12174.71
             47194.00,12174.71 47176.00,12189.29 47176.00,12189.29
             47167.96,12196.28 47160.80,12203.39 47152.00,12209.56
             47152.00,12209.56 47133.00,12221.22 47133.00,12221.22
             47133.00,12221.22 47117.00,12229.29 47117.00,12229.29
             47117.00,12229.29 47085.00,12248.69 47085.00,12248.69
             47077.29,12252.87 47069.19,12256.09 47061.00,12259.19
             47061.00,12259.19 47050.00,12263.37 47050.00,12263.37
             47029.41,12273.49 47004.35,12294.86 46990.52,12313.00
             46986.73,12317.97 46974.35,12338.32 46971.87,12344.00
             46971.87,12344.00 46963.69,12367.00 46963.69,12367.00
             46963.69,12367.00 46954.31,12385.00 46954.31,12385.00
             46954.31,12385.00 46946.13,12406.00 46946.13,12406.00
             46946.13,12406.00 46937.86,12422.00 46937.86,12422.00
             46937.86,12422.00 46927.39,12449.00 46927.39,12449.00
             46924.23,12456.44 46919.42,12463.01 46915.43,12470.00
             46915.43,12470.00 46906.14,12488.00 46906.14,12488.00
             46906.14,12488.00 46898.81,12500.00 46898.81,12500.00
             46898.81,12500.00 46876.69,12556.00 46876.69,12556.00
             46876.69,12556.00 46862.39,12584.00 46862.39,12584.00
             46862.39,12584.00 46851.76,12601.00 46851.76,12601.00
             46851.76,12601.00 46845.69,12617.00 46845.69,12617.00
             46845.69,12617.00 46837.89,12632.00 46837.89,12632.00
             46837.89,12632.00 46830.03,12651.00 46830.03,12651.00
             46824.25,12662.56 46814.24,12676.28 46805.71,12686.00
             46798.85,12693.83 46794.18,12696.69 46787.00,12703.17
             46787.00,12703.17 46775.00,12714.57 46775.00,12714.57
             46762.21,12725.53 46743.62,12737.03 46729.00,12745.80
             46729.00,12745.80 46705.00,12760.57 46705.00,12760.57
             46705.00,12760.57 46691.00,12767.87 46691.00,12767.87
             46691.00,12767.87 46678.00,12775.74 46678.00,12775.74
             46678.00,12775.74 46650.00,12789.26 46650.00,12789.26
             46650.00,12789.26 46628.00,12800.22 46628.00,12800.22
             46628.00,12800.22 46614.00,12806.37 46614.00,12806.37
             46602.32,12812.21 46591.81,12820.03 46581.00,12827.26
             46581.00,12827.26 46541.00,12851.74 46541.00,12851.74
             46511.14,12867.15 46495.83,12868.25 46465.00,12890.43
             46455.98,12896.92 46451.45,12903.52 46443.91,12910.83
             46443.91,12910.83 46423.00,12928.73 46423.00,12928.73
             46423.00,12928.73 46357.00,12983.73 46357.00,12983.73
             46357.00,12983.73 46344.00,12994.17 46344.00,12994.17
             46336.37,13001.08 46332.95,13010.64 46322.99,13019.83
             46298.19,13042.70 46265.16,13052.38 46232.00,13052.00
             46232.00,13052.00 46212.00,13050.17 46212.00,13050.17
             46189.97,13048.06 46174.33,13046.19 46153.00,13039.00
             46153.00,13039.00 46125.00,13027.14 46125.00,13027.14
             46125.00,13027.14 46096.00,13015.69 46096.00,13015.69
             46096.00,13015.69 46078.00,13006.31 46078.00,13006.31
             46078.00,13006.31 46066.00,13001.69 46066.00,13001.69
             46066.00,13001.69 46052.00,12994.37 46052.00,12994.37
             46052.00,12994.37 46036.00,12987.22 46036.00,12987.22
             46036.00,12987.22 46023.00,12980.48 46023.00,12980.48
             46023.00,12980.48 46002.00,12970.69 46002.00,12970.69
             46002.00,12970.69 45982.00,12957.86 45982.00,12957.86
             45982.00,12957.86 45963.00,12946.11 45963.00,12946.11
             45963.00,12946.11 45952.00,12937.77 45952.00,12937.77
             45952.00,12937.77 45940.00,12930.48 45940.00,12930.48
             45940.00,12930.48 45925.00,12919.89 45925.00,12919.89
             45925.00,12919.89 45906.00,12908.65 45906.00,12908.65
             45906.00,12908.65 45878.00,12888.10 45878.00,12888.10
             45878.00,12888.10 45859.00,12876.96 45859.00,12876.96
             45859.00,12876.96 45849.00,12868.81 45849.00,12868.81
             45849.00,12868.81 45838.00,12860.54 45838.00,12860.54
             45838.00,12860.54 45825.00,12849.51 45825.00,12849.51
             45805.35,12834.12 45784.95,12818.95 45764.00,12805.34
             45764.00,12805.34 45728.00,12786.75 45728.00,12786.75
             45728.00,12786.75 45706.00,12774.31 45706.00,12774.31
             45706.00,12774.31 45687.00,12765.43 45687.00,12765.43
             45687.00,12765.43 45650.00,12751.80 45650.00,12751.80
             45650.00,12751.80 45629.00,12742.28 45629.00,12742.28
             45629.00,12742.28 45611.00,12735.80 45611.00,12735.80
             45611.00,12735.80 45597.00,12729.45 45597.00,12729.45
             45597.00,12729.45 45573.00,12719.74 45573.00,12719.74
             45573.00,12719.74 45547.37,12706.37 45547.37,12706.37
             45547.37,12706.37 45537.08,12694.00 45537.08,12694.00
             45534.90,12691.38 45529.34,12685.08 45528.67,12682.00
             45527.93,12678.61 45530.70,12675.00 45532.11,12672.00
             45532.11,12672.00 45538.30,12659.00 45538.30,12659.00
             45542.37,12650.40 45544.90,12644.92 45536.82,12637.33
             45534.91,12635.54 45532.45,12634.03 45530.00,12633.13
             45526.48,12631.84 45522.69,12631.96 45519.00,12632.00
             45519.00,12632.00 45505.00,12633.58 45505.00,12633.58
             45488.79,12635.87 45478.40,12641.18 45471.59,12657.00
             45467.17,12667.27 45470.33,12672.69 45467.98,12676.82
             45465.81,12680.62 45458.73,12682.86 45454.72,12689.00
             45454.72,12689.00 45448.52,12705.00 45448.52,12705.00
             45445.28,12712.12 45437.53,12724.77 45432.76,12731.00
             45423.28,12743.41 45414.93,12750.15 45406.09,12764.00
             45406.09,12764.00 45391.55,12796.00 45391.55,12796.00
             45391.55,12796.00 45366.42,12829.00 45366.42,12829.00
             45366.42,12829.00 45350.66,12849.00 45350.66,12849.00
             45350.66,12849.00 45337.83,12864.99 45337.83,12864.99
             45337.83,12864.99 45329.00,12873.09 45329.00,12873.09
             45316.61,12884.63 45310.47,12889.99 45296.00,12899.05
             45292.27,12901.38 45284.06,12906.30 45280.00,12907.35
             45276.01,12908.39 45266.73,12906.25 45262.00,12905.85
             45262.00,12905.85 45251.72,12905.85 45251.72,12905.85
             45251.72,12905.85 45244.00,12904.01 45244.00,12904.01
             45244.00,12904.01 45235.00,12904.01 45235.00,12904.01
             45235.00,12904.01 45221.00,12902.04 45221.00,12902.04
             45221.00,12902.04 45208.00,12902.04 45208.00,12902.04
             45208.00,12902.04 45182.00,12900.00 45182.00,12900.00
             45182.00,12900.00 45165.00,12900.00 45165.00,12900.00
             45165.00,12900.00 45153.00,12899.00 45153.00,12899.00
             45153.00,12899.00 45124.00,12899.00 45124.00,12899.00
             45124.00,12899.00 45080.00,12903.13 45080.00,12903.13
             45075.73,12903.72 45058.30,12905.34 45055.00,12904.35
             45046.62,12901.84 45037.15,12891.92 45031.00,12886.04
             45031.00,12886.04 45012.04,12869.00 45012.04,12869.00
             45008.61,12865.42 45001.08,12856.10 44998.21,12852.00
             44998.21,12852.00 44992.40,12843.00 44992.40,12843.00
             44990.20,12839.99 44988.35,12838.43 44986.36,12835.00
             44986.36,12835.00 44982.97,12828.00 44982.97,12828.00
             44982.97,12828.00 44968.46,12804.00 44968.46,12804.00
             44968.46,12804.00 44957.59,12789.00 44957.59,12789.00
             44957.59,12789.00 44939.10,12761.00 44939.10,12761.00
             44939.10,12761.00 44923.33,12738.00 44923.33,12738.00
             44916.07,12725.39 44912.11,12711.34 44906.42,12698.00
             44906.42,12698.00 44899.68,12681.00 44899.68,12681.00
             44899.68,12681.00 44888.73,12664.00 44888.73,12664.00
             44885.93,12659.22 44879.81,12646.55 44876.67,12643.47
             44870.85,12637.74 44862.74,12637.01 44855.00,12637.00
             44855.00,12637.00 44835.00,12637.00 44835.00,12637.00
             44835.00,12637.00 44819.00,12636.00 44819.00,12636.00
             44819.00,12636.00 44783.00,12636.00 44783.00,12636.00
             44783.00,12636.00 44758.17,12637.85 44758.17,12637.85
             44758.17,12637.85 44738.57,12637.85 44738.57,12637.85
             44738.57,12637.85 44659.00,12637.85 44659.00,12637.85
             44659.00,12637.85 44640.00,12639.00 44640.00,12639.00
             44640.00,12639.00 44617.00,12641.96 44617.00,12641.96
             44617.00,12641.96 44579.00,12639.98 44579.00,12639.98
             44579.00,12639.98 44562.04,12639.98 44562.04,12639.98
             44559.13,12639.91 44554.73,12639.49 44552.04,12640.59
             44547.37,12642.48 44542.95,12651.74 44539.84,12656.00
             44539.84,12656.00 44521.74,12677.00 44521.74,12677.00
             44518.94,12681.52 44521.01,12684.58 44517.77,12689.98
             44512.54,12698.72 44499.40,12701.37 44490.00,12699.67
             44483.35,12698.47 44479.86,12693.85 44475.62,12689.09
             44475.62,12689.09 44459.00,12672.39 44459.00,12672.39
             44459.00,12672.39 44451.00,12667.54 44451.00,12667.54
             44451.00,12667.54 44429.00,12650.88 44429.00,12650.88
             44425.22,12648.10 44419.29,12644.33 44416.39,12640.91
             44416.39,12640.91 44396.05,12607.00 44396.05,12607.00
             44389.17,12596.02 44380.68,12586.44 44371.83,12577.04
             44371.83,12577.04 44364.58,12569.91 44364.58,12569.91
             44357.40,12562.09 44352.57,12554.14 44343.72,12547.36
             44336.05,12541.48 44326.00,12537.99 44317.00,12534.78
             44317.00,12534.78 44288.00,12525.35 44288.00,12525.35
             44281.19,12523.91 44276.93,12526.45 44271.00,12524.18
             44271.00,12524.18 44248.00,12512.63 44248.00,12512.63
             44248.00,12512.63 44235.00,12507.57 44235.00,12507.57
             44235.00,12507.57 44220.00,12500.23 44220.00,12500.23
             44220.00,12500.23 44203.00,12493.69 44203.00,12493.69
             44203.00,12493.69 44184.00,12483.87 44184.00,12483.87
             44184.00,12483.87 44149.00,12470.69 44149.00,12470.69
             44149.00,12470.69 44130.00,12459.89 44130.00,12459.89
             44130.00,12459.89 44119.00,12455.14 44119.00,12455.14
             44119.00,12455.14 44107.00,12449.31 44107.00,12449.31
             44107.00,12449.31 44087.00,12440.74 44087.00,12440.74
             44080.59,12437.64 44056.48,12422.79 44051.00,12418.57
             44042.34,12411.91 44023.19,12394.27 44016.67,12386.00
             44007.33,12374.15 44000.63,12360.54 43994.22,12347.00
             43994.22,12347.00 43987.21,12333.00 43987.21,12333.00
             43987.21,12333.00 43977.45,12299.00 43977.45,12299.00
             43977.45,12299.00 43968.04,12281.00 43968.04,12281.00
             43964.05,12271.97 43964.79,12268.95 43962.30,12262.00
             43962.30,12262.00 43954.42,12246.00 43954.42,12246.00
             43951.42,12239.12 43942.52,12223.52 43937.79,12218.00
             43937.79,12218.00 43926.28,12206.00 43926.28,12206.00
             43920.48,12199.41 43909.86,12188.21 43902.00,12184.44
             43896.87,12181.97 43879.10,12180.01 43873.00,12180.00
             43873.00,12180.00 43794.00,12180.00 43794.00,12180.00
             43794.00,12180.00 43747.00,12174.28 43747.00,12174.28
             43747.00,12174.28 43655.00,12161.43 43655.00,12161.43
             43630.19,12157.83 43588.95,12154.96 43567.00,12145.57
             43557.75,12141.62 43550.04,12136.18 43543.01,12129.00
             43539.68,12125.60 43535.36,12119.16 43531.96,12117.08
             43531.96,12117.08 43503.00,12103.69 43503.00,12103.69
             43503.00,12103.69 43490.00,12097.68 43490.00,12097.68
             43490.00,12097.68 43475.00,12089.11 43475.00,12089.11
             43475.00,12089.11 43452.00,12077.57 43452.00,12077.57
             43452.00,12077.57 43423.00,12058.68 43423.00,12058.68
             43423.00,12058.68 43398.00,12043.98 43398.00,12043.98
             43398.00,12043.98 43386.00,12035.35 43386.00,12035.35
             43386.00,12035.35 43370.00,12024.96 43370.00,12024.96
             43370.00,12024.96 43358.00,12016.34 43358.00,12016.34
             43338.02,12004.88 43336.01,12007.51 43318.00,12001.14
             43318.00,12001.14 43291.00,11989.77 43291.00,11989.77
             43280.05,11986.40 43274.67,11986.99 43262.00,11981.57
             43262.00,11981.57 43249.00,11974.97 43249.00,11974.97
             43249.00,11974.97 43227.00,11964.14 43227.00,11964.14
             43227.00,11964.14 43208.00,11952.31 43208.00,11952.31
             43208.00,11952.31 43194.00,11945.14 43194.00,11945.14
             43194.00,11945.14 43146.00,11915.34 43146.00,11915.34
             43146.00,11915.34 43130.00,11904.96 43130.00,11904.96
             43130.00,11904.96 43119.00,11896.16 43119.00,11896.16
             43119.00,11896.16 43110.00,11890.08 43110.00,11890.08
             43110.00,11890.08 43101.00,11882.76 43101.00,11882.76
             43101.00,11882.76 43090.00,11874.82 43090.00,11874.82
             43090.00,11874.82 43082.00,11867.09 43082.00,11867.09
             43062.24,11848.68 43065.43,11852.09 43048.72,11831.00
             43042.31,11822.92 43035.78,11814.85 43030.45,11806.00
             43030.45,11806.00 43020.63,11787.00 43020.63,11787.00
             43020.63,11787.00 43010.45,11767.00 43010.45,11767.00
             43010.45,11767.00 43003.43,11747.00 43003.43,11747.00
             43003.43,11747.00 42999.97,11733.00 42999.97,11733.00
             42999.97,11733.00 42992.42,11711.00 42992.42,11711.00
             42992.42,11711.00 42984.62,11670.00 42984.62,11670.00
             42984.62,11670.00 42977.43,11649.00 42977.43,11649.00
             42977.43,11649.00 42971.12,11616.00 42971.12,11616.00
             42971.12,11616.00 42967.16,11603.00 42967.16,11603.00
             42967.16,11603.00 42964.12,11590.00 42964.12,11590.00
             42964.12,11590.00 42960.66,11579.00 42960.66,11579.00
             42960.66,11579.00 42949.91,11518.00 42949.91,11518.00
             42949.91,11518.00 42945.44,11503.00 42945.44,11503.00
             42945.44,11503.00 42939.88,11482.00 42939.88,11482.00
             42939.88,11482.00 42936.52,11467.00 42936.52,11467.00
             42936.52,11467.00 42931.80,11450.00 42931.80,11450.00
             42931.80,11450.00 42928.54,11428.00 42928.54,11428.00
             42926.40,11416.25 42923.02,11405.09 42923.00,11393.00
             42923.00,11393.00 42923.00,11248.00 42923.00,11248.00
             42923.00,11248.00 42927.00,11213.00 42927.00,11213.00
             42927.11,11203.30 42926.67,11194.68 42928.46,11185.00
             42928.46,11185.00 42932.85,11170.00 42932.85,11170.00
             42932.85,11170.00 42936.90,11149.00 42936.90,11149.00
             42936.90,11149.00 42942.58,11128.00 42942.58,11128.00
             42942.58,11128.00 42944.83,11114.00 42944.83,11114.00
             42944.83,11114.00 42946.29,11096.00 42946.29,11096.00
             42946.29,11096.00 42948.72,11085.00 42948.72,11085.00
             42948.72,11085.00 42962.00,11006.00 42962.00,11006.00
             42962.00,11006.00 42968.58,10981.00 42968.58,10981.00
             42968.58,10981.00 42979.72,10922.00 42979.72,10922.00
             42979.72,10922.00 42985.54,10908.00 42985.54,10908.00
             42985.54,10908.00 42999.08,10869.00 42999.08,10869.00
             42999.08,10869.00 43007.16,10805.00 43007.16,10805.00
             43007.16,10805.00 43010.79,10775.00 43010.79,10775.00
             43010.79,10775.00 43009.00,10763.00 43009.00,10763.00
             43009.00,10763.00 43009.00,10753.00 43009.00,10753.00
             43007.97,10744.09 43002.39,10726.78 42998.10,10719.00
             42993.40,10710.48 42983.94,10701.44 42978.48,10690.00
             42978.48,10690.00 42970.69,10671.00 42970.69,10671.00
             42970.69,10671.00 42961.06,10651.00 42961.06,10651.00
             42955.08,10635.52 42957.85,10635.90 42949.31,10620.00
             42949.31,10620.00 42945.02,10611.00 42945.02,10611.00
             42940.31,10602.10 42932.94,10596.86 42925.00,10591.28
             42916.75,10585.48 42917.31,10584.02 42907.00,10584.00
             42907.00,10584.00 42799.00,10584.00 42799.00,10584.00
             42799.00,10584.00 42787.00,10583.09 42787.00,10583.09
             42787.00,10583.09 42761.00,10582.00 42761.00,10582.00
             42750.15,10581.87 42727.48,10577.49 42716.00,10575.42
             42679.37,10568.82 42676.35,10568.51 42641.00,10554.81
             42630.12,10550.60 42625.80,10549.55 42615.00,10543.69
             42603.52,10537.47 42603.78,10535.47 42595.00,10528.68
             42595.00,10528.68 42570.00,10511.33 42570.00,10511.33
             42570.00,10511.33 42554.00,10496.76 42554.00,10496.76
             42554.00,10496.76 42542.00,10489.00 42542.00,10489.00
             42542.00,10489.00 42514.00,10470.81 42514.00,10470.81
             42514.00,10470.81 42496.00,10460.31 42496.00,10460.31
             42496.00,10460.31 42483.00,10451.35 42483.00,10451.35
             42483.00,10451.35 42469.00,10442.25 42469.00,10442.25
             42469.00,10442.25 42452.00,10429.22 42452.00,10429.22
             42452.00,10429.22 42422.00,10409.92 42422.00,10409.92
             42422.00,10409.92 42408.00,10400.60 42408.00,10400.60
             42408.00,10400.60 42397.00,10394.97 42397.00,10394.97
             42397.00,10394.97 42379.00,10384.43 42379.00,10384.43
             42379.00,10384.43 42366.00,10377.19 42366.00,10377.19
             42366.00,10377.19 42352.00,10367.69 42352.00,10367.69
             42352.00,10367.69 42339.00,10359.65 42339.00,10359.65
             42339.00,10359.65 42326.00,10350.31 42326.00,10350.31
             42326.00,10350.31 42287.00,10330.14 42287.00,10330.14
             42287.00,10330.14 42270.00,10319.26 42270.00,10319.26
             42270.00,10319.26 42258.00,10313.73 42258.00,10313.73
             42258.00,10313.73 42220.00,10291.79 42220.00,10291.79
             42220.00,10291.79 42196.04,10269.99 42196.04,10269.99
             42196.04,10269.99 42184.19,10255.00 42184.19,10255.00
             42177.41,10246.54 42174.20,10244.60 42169.31,10234.00
             42163.36,10221.10 42163.68,10215.66 42159.97,10204.00
             42159.97,10204.00 42153.16,10186.00 42153.16,10186.00
             42153.16,10186.00 42150.71,10170.00 42150.71,10170.00
             42150.71,10170.00 42144.56,10141.00 42144.56,10141.00
             42143.00,10135.92 42139.85,10131.62 42137.30,10127.00
             42137.30,10127.00 42128.65,10110.00 42128.65,10110.00
             42128.65,10110.00 42105.76,10081.00 42105.76,10081.00
             42105.76,10081.00 42099.46,10071.00 42099.46,10071.00
             42099.46,10071.00 42087.12,10054.01 42087.12,10054.01
             42087.12,10054.01 42072.67,10038.00 42072.67,10038.00
             42072.67,10038.00 42060.83,10022.00 42060.83,10022.00
             42060.83,10022.00 42042.04,10003.00 42042.04,10003.00
             42036.35,9997.05 42021.12,9977.98 42017.31,9971.00
             42017.31,9971.00 42009.13,9951.00 42009.13,9951.00
             42004.17,9939.48 42001.22,9938.41 41996.03,9922.00
             41996.03,9922.00 41991.34,9899.00 41991.34,9899.00
             41991.34,9899.00 41986.45,9883.00 41986.45,9883.00
             41986.45,9883.00 41977.28,9830.00 41977.28,9830.00
             41977.28,9830.00 41976.71,9817.00 41976.71,9817.00
             41976.71,9817.00 41964.59,9748.00 41964.59,9748.00
             41964.59,9748.00 41961.04,9726.00 41961.04,9726.00
             41961.04,9726.00 41961.04,9716.00 41961.04,9716.00
             41961.04,9716.00 41959.00,9697.00 41959.00,9697.00
             41959.00,9697.00 41959.00,9597.00 41959.00,9597.00
             41959.00,9597.00 41960.91,9579.00 41960.91,9579.00
             41962.02,9562.73 41962.90,9545.91 41966.89,9530.00
             41966.89,9530.00 41973.33,9510.00 41973.33,9510.00
             41973.33,9510.00 41980.00,9489.00 41980.00,9489.00
             41980.00,9489.00 41992.34,9452.00 41992.34,9452.00
             41997.29,9437.71 41999.82,9435.71 42000.00,9420.00
             42000.11,9410.71 42003.14,9399.20 42007.49,9391.00
             42010.71,9384.93 42015.82,9379.51 42017.49,9373.00
             42017.49,9373.00 42022.89,9344.00 42022.89,9344.00
             42022.89,9344.00 42030.66,9321.00 42030.66,9321.00
             42030.66,9321.00 42035.52,9304.00 42035.52,9304.00
             42035.52,9304.00 42043.43,9284.00 42043.43,9284.00
             42050.15,9268.29 42061.16,9258.71 42069.57,9244.00
             42069.57,9244.00 42079.97,9221.00 42079.97,9221.00
             42079.97,9221.00 42090.96,9203.00 42090.96,9203.00
             42090.96,9203.00 42098.45,9188.00 42098.45,9188.00
             42098.45,9188.00 42123.13,9155.00 42123.13,9155.00
             42123.13,9155.00 42131.80,9143.00 42131.80,9143.00
             42138.40,9131.75 42136.97,9126.31 42150.29,9111.00
             42161.01,9098.67 42174.41,9089.49 42188.00,9080.66
             42217.01,9061.81 42250.43,9044.06 42286.00,9044.00
             42286.00,9044.00 42305.00,9044.00 42305.00,9044.00
             42305.00,9044.00 42337.00,9047.92 42337.00,9047.92
             42337.00,9047.92 42351.00,9047.92 42351.00,9047.92
             42362.68,9048.02 42382.24,9051.57 42394.00,9054.00
             42403.43,9055.95 42406.94,9057.98 42417.00,9058.00
             42437.53,9058.03 42457.95,9058.49 42478.00,9053.47
             42478.00,9053.47 42516.00,9040.59 42516.00,9040.59
             42522.26,9038.33 42528.23,9037.64 42532.57,9031.98
             42535.72,9027.89 42536.19,9021.08 42537.72,9016.00
             42541.10,9004.76 42544.94,9004.02 42545.00,8991.00
             42545.00,8991.00 42545.00,8980.00 42545.00,8980.00
             42545.00,8980.00 42549.00,8945.00 42549.00,8945.00
             42549.00,8945.00 42549.00,8890.00 42549.00,8890.00
             42549.00,8890.00 42547.00,8873.00 42547.00,8873.00
             42547.00,8873.00 42547.00,8863.00 42547.00,8863.00
             42547.00,8863.00 42543.42,8842.00 42543.42,8842.00
             42542.53,8835.44 42543.71,8830.57 42541.83,8824.00
             42541.83,8824.00 42535.75,8809.00 42535.75,8809.00
             42535.75,8809.00 42527.91,8781.00 42527.91,8781.00
             42527.91,8781.00 42521.44,8766.00 42521.44,8766.00
             42521.44,8766.00 42515.11,8733.00 42515.11,8733.00
             42512.14,8721.14 42507.98,8709.34 42507.34,8697.00
             42507.09,8692.18 42509.44,8690.16 42509.91,8684.00
             42509.91,8684.00 42513.17,8642.00 42513.17,8642.00
             42513.17,8642.00 42515.00,8619.00 42515.00,8619.00
             42515.00,8619.00 42515.00,8593.00 42515.00,8593.00
             42515.00,8593.00 42514.04,8581.00 42514.04,8581.00
             42514.04,8581.00 42514.04,8566.00 42514.04,8566.00
             42514.04,8566.00 42516.83,8541.00 42516.83,8541.00
             42516.83,8541.00 42519.17,8514.00 42519.17,8514.00
             42519.77,8508.46 42520.91,8508.45 42521.00,8501.00
             42521.15,8487.83 42521.16,8489.81 42522.72,8477.00
             42522.72,8477.00 42523.51,8469.00 42523.51,8469.00
             42526.35,8455.16 42530.97,8451.68 42531.00,8433.00
             42531.00,8433.00 42531.00,8416.00 42531.00,8416.00
             42531.00,8416.00 42530.00,8400.00 42530.00,8400.00
             42530.00,8400.00 42530.00,8375.00 42530.00,8375.00
             42530.00,8375.00 42529.08,8363.00 42529.08,8363.00
             42529.08,8363.00 42530.00,8350.00 42530.00,8350.00
             42530.00,8350.00 42530.00,8276.00 42530.00,8276.00
             42530.00,8276.00 42529.00,8256.00 42529.00,8256.00
             42529.00,8256.00 42528.00,8241.00 42528.00,8241.00
             42527.98,8226.35 42526.60,8221.90 42524.28,8208.00
             42524.28,8208.00 42522.70,8194.00 42522.70,8194.00
             42522.70,8194.00 42520.17,8181.00 42520.17,8181.00
             42520.17,8181.00 42522.00,8154.00 42522.00,8154.00
             42522.00,8154.00 42522.00,8145.00 42522.00,8145.00
             42522.01,8136.72 42524.83,8128.67 42517.89,8122.22
             42515.77,8120.25 42512.92,8118.71 42510.00,8118.42
             42505.17,8117.94 42503.08,8120.89 42494.00,8120.80
             42491.71,8121.02 42488.17,8121.09 42486.00,8120.80
             42477.90,8118.85 42472.69,8112.22 42476.01,8104.00
             42476.01,8104.00 42485.41,8090.00 42485.41,8090.00
             42485.41,8090.00 42490.12,8081.00 42490.12,8081.00
             42490.12,8081.00 42512.24,8052.00 42512.24,8052.00
             42512.24,8052.00 42526.13,8031.00 42526.13,8031.00
             42529.31,8026.75 42534.36,8019.56 42538.04,8016.18
             42538.04,8016.18 42550.71,8006.82 42550.71,8006.82
             42556.01,8001.53 42573.84,7977.01 42578.31,7970.00
             42578.31,7970.00 42591.42,7946.00 42591.42,7946.00
             42591.42,7946.00 42640.48,7872.00 42640.48,7872.00
             42650.39,7857.07 42664.14,7833.39 42676.04,7821.00
             42700.21,7795.84 42735.99,7785.61 42770.00,7786.00
             42777.97,7786.10 42791.32,7788.41 42799.00,7790.72
             42803.12,7791.96 42810.42,7795.42 42814.00,7795.51
             42814.00,7795.51 42860.00,7791.17 42860.00,7791.17
             42860.00,7791.17 42893.00,7788.17 42893.00,7788.17
             42893.00,7788.17 42910.00,7786.56 42910.00,7786.56
             42925.54,7784.06 42940.04,7780.02 42956.00,7780.00
             42956.00,7780.00 42997.00,7780.00 42997.00,7780.00
             43011.75,7779.97 43012.65,7770.22 43017.77,7759.00
             43022.24,7749.20 43024.05,7742.43 43030.05,7733.00
             43030.05,7733.00 43046.90,7711.00 43046.90,7711.00
             43050.57,7705.46 43055.15,7693.53 43057.33,7687.00
             43060.21,7678.39 43061.64,7674.72 43066.70,7667.00
             43068.68,7663.97 43073.24,7658.71 43074.26,7656.00
             43075.26,7653.36 43074.97,7648.91 43075.00,7646.00
             43075.15,7633.46 43078.22,7625.50 43082.31,7614.00
             43088.23,7597.36 43092.75,7585.73 43106.01,7573.09
             43118.73,7560.96 43127.96,7557.92 43142.00,7549.55
             43142.00,7549.55 43155.00,7541.31 43155.00,7541.31
             43172.57,7531.66 43194.79,7524.24 43215.00,7524.00
             43215.00,7524.00 43271.00,7524.00 43271.00,7524.00
             43293.00,7524.03 43324.99,7534.97 43346.00,7535.00
             43346.00,7535.00 43398.00,7535.00 43398.00,7535.00
             43411.27,7534.98 43418.70,7531.80 43431.00,7528.42
             43439.77,7526.01 43462.25,7522.04 43468.67,7516.49
             43471.04,7514.45 43474.57,7508.02 43476.75,7505.00
             43480.63,7499.60 43485.52,7494.89 43488.68,7489.00
             43493.29,7480.40 43493.85,7472.89 43502.05,7460.00
             43502.05,7460.00 43520.89,7433.00 43520.89,7433.00
             43520.89,7433.00 43525.94,7423.00 43525.94,7423.00
             43525.94,7423.00 43534.02,7410.00 43534.02,7410.00
             43534.02,7410.00 43547.40,7393.00 43547.40,7393.00
             43551.94,7386.22 43551.40,7381.42 43559.44,7370.00
             43559.44,7370.00 43580.96,7345.00 43580.96,7345.00
             43580.96,7345.00 43607.50,7304.00 43607.50,7304.00
             43612.90,7297.00 43626.67,7280.80 43633.00,7275.29
             43654.17,7256.87 43684.74,7244.33 43713.00,7244.00
             43713.00,7244.00 43756.00,7244.00 43756.00,7244.00
             43770.09,7244.02 43796.91,7250.13 43812.00,7252.75
             43812.00,7252.75 43852.00,7260.15 43852.00,7260.15
             43852.00,7260.15 43880.00,7270.97 43880.00,7270.97
             43880.00,7270.97 43903.00,7275.88 43903.00,7275.88
             43910.79,7277.94 43933.87,7286.70 43941.00,7290.27
             43957.47,7298.53 43965.76,7308.17 43978.04,7321.00
             43984.63,7327.90 43991.59,7334.46 43997.48,7342.00
             43997.48,7342.00 44008.52,7359.91 44008.52,7359.91
             44014.99,7367.85 44021.33,7372.32 44026.51,7382.00
             44026.51,7382.00 44041.58,7420.00 44041.58,7420.00
             44041.58,7420.00 44048.09,7438.00 44048.09,7438.00
             44048.09,7438.00 44054.58,7452.00 44054.58,7452.00
             44058.60,7461.59 44058.64,7466.69 44068.00,7473.36
             44071.96,7476.19 44082.08,7479.86 44087.00,7481.68
             44087.00,7481.68 44110.00,7490.68 44110.00,7490.68
             44110.00,7490.68 44133.00,7498.34 44133.00,7498.34
             44133.00,7498.34 44150.00,7504.26 44150.00,7504.26
             44150.00,7504.26 44161.00,7506.45 44161.00,7506.45
             44178.78,7510.00 44189.61,7512.21 44208.00,7512.00
             44208.00,7512.00 44246.00,7508.00 44246.00,7508.00
             44246.00,7508.00 44311.00,7508.00 44311.00,7508.00
             44330.19,7508.03 44338.91,7512.80 44356.00,7516.77
             44371.61,7520.39 44382.03,7522.01 44397.00,7529.26
             44412.09,7536.57 44424.69,7546.05 44431.38,7562.00
             44435.76,7572.42 44434.76,7577.88 44437.07,7583.00
             44439.41,7588.19 44446.18,7594.59 44449.91,7605.00
             44452.49,7612.18 44451.91,7621.29 44455.11,7627.00
             44466.67,7647.63 44480.52,7658.85 44495.83,7676.00
             44501.27,7682.10 44503.96,7687.63 44508.44,7694.00
             44508.44,7694.00 44521.37,7712.00 44521.37,7712.00
             44521.37,7712.00 44533.87,7741.00 44533.87,7741.00
             44533.87,7741.00 44542.06,7755.00 44542.06,7755.00
             44546.13,7762.75 44553.32,7776.20 44562.00,7779.40
             44564.38,7780.28 44570.21,7779.97 44573.00,7780.00
             44573.00,7780.00 44609.00,7784.00 44609.00,7784.00
             44609.00,7784.00 44760.00,7784.00 44760.00,7784.00
             44768.05,7784.10 44781.23,7786.40 44789.00,7788.72
             44789.00,7788.72 44802.00,7792.76 44802.00,7792.76
             44819.71,7796.93 44837.19,7797.55 44854.00,7805.31
             44868.99,7812.22 44888.41,7829.82 44898.24,7843.00
             44898.24,7843.00 44914.05,7868.00 44914.05,7868.00
             44914.05,7868.00 44925.55,7884.00 44925.55,7884.00
             44930.22,7891.83 44930.30,7895.42 44932.27,7899.00
             44935.02,7904.01 44940.52,7908.74 44944.54,7919.00
             44949.14,7930.75 44945.49,7935.05 44955.52,7946.91
             44955.52,7946.91 44964.00,7955.01 44964.00,7955.01
             44964.00,7955.01 44982.00,7972.91 44982.00,7972.91
             44982.00,7972.91 44994.00,7983.17 44994.00,7983.17
             44994.00,7983.17 45010.00,7999.67 45010.00,7999.67
             45010.00,7999.67 45024.00,8008.92 45024.00,8008.92
             45024.00,8008.92 45039.00,8021.39 45039.00,8021.39
             45039.00,8021.39 45054.00,8029.43 45054.00,8029.43
             45054.00,8029.43 45069.00,8039.64 45069.00,8039.64
             45069.00,8039.64 45084.00,8046.25 45084.00,8046.25
             45084.00,8046.25 45111.00,8063.30 45111.00,8063.30
             45111.00,8063.30 45128.00,8065.09 45128.00,8065.09
             45128.00,8065.09 45144.00,8067.16 45144.00,8067.16
             45144.00,8067.16 45186.00,8072.00 45186.00,8072.00
             45186.00,8072.00 45220.00,8072.00 45220.00,8072.00
             45220.00,8072.00 45251.00,8068.00 45251.00,8068.00
             45251.00,8068.00 45260.00,8068.00 45260.00,8068.00
             45260.00,8068.00 45288.00,8063.50 45288.00,8063.50
             45288.00,8063.50 45301.00,8059.34 45301.00,8059.34
             45301.00,8059.34 45310.00,8056.57 45310.00,8056.57
             45313.75,8054.79 45316.94,8050.92 45320.00,8048.09
             45320.00,8048.09 45333.00,8037.41 45333.00,8037.41
             45333.00,8037.41 45345.70,8026.83 45345.70,8026.83
             45345.70,8026.83 45358.17,8011.00 45358.17,8011.00
             45358.17,8011.00 45371.54,7997.91 45371.54,7997.91
             45374.89,7994.10 45387.26,7973.94 45389.73,7969.00
             45389.73,7969.00 45397.69,7947.00 45397.69,7947.00
             45397.69,7947.00 45414.26,7908.00 45414.26,7908.00
             45414.26,7908.00 45435.09,7877.00 45435.09,7877.00
             45435.09,7877.00 45446.30,7864.00 45446.30,7864.00
             45446.30,7864.00 45451.97,7851.00 45451.97,7851.00
             45455.51,7843.91 45462.39,7834.59 45468.04,7829.09
             45482.62,7814.91 45504.28,7804.31 45524.00,7799.65
             45524.00,7799.65 45550.00,7795.49 45550.00,7795.49
             45550.00,7795.49 45565.00,7791.47 45565.00,7791.47
             45572.85,7789.52 45604.49,7784.09 45612.00,7784.00
             45612.00,7784.00 45625.00,7784.00 45625.00,7784.00
             45625.00,7784.00 45661.00,7780.00 45661.00,7780.00
             45661.00,7780.00 45740.00,7780.00 45740.00,7780.00
             45740.00,7780.00 45775.00,7784.00 45775.00,7784.00
             45775.00,7784.00 45836.00,7784.00 45836.00,7784.00
             45850.98,7784.02 45869.82,7788.12 45883.00,7795.31
             45883.00,7795.31 45901.00,7807.87 45901.00,7807.87
             45901.00,7807.87 45919.00,7816.45 45919.00,7816.45
             45930.20,7823.11 45930.95,7825.84 45940.00,7832.76
             45940.00,7832.76 45958.00,7846.07 45958.00,7846.07
             45964.86,7852.34 45972.01,7859.84 45977.92,7867.00
             45977.92,7867.00 45987.30,7879.00 45987.30,7879.00
             45987.30,7879.00 45999.82,7892.00 45999.82,7892.00
             45999.82,7892.00 46009.09,7903.91 46009.09,7903.91
             46022.43,7917.36 46034.45,7918.78 46048.00,7928.03
             46058.93,7935.48 46061.76,7941.01 46070.00,7947.48
             46076.56,7952.64 46083.82,7955.36 46091.00,7959.31
             46091.00,7959.31 46105.00,7967.93 46105.00,7967.93
             46108.31,7969.40 46116.91,7970.58 46121.00,7971.40
             46121.00,7971.40 46163.00,7978.89 46163.00,7978.89
             46163.00,7978.89 46183.00,7984.34 46183.00,7984.34
             46183.00,7984.34 46205.00,7989.03 46205.00,7989.03
             46205.00,7989.03 46223.00,7996.55 46223.00,7996.55
             46223.00,7996.55 46246.00,8005.19 46246.00,8005.19
             46246.00,8005.19 46281.00,8019.26 46281.00,8019.26
             46291.80,8024.83 46293.13,8027.31 46302.00,8033.56
             46302.00,8033.56 46325.00,8048.29 46325.00,8048.29
             46335.84,8055.01 46342.62,8055.19 46354.00,8066.04
             46366.84,8078.28 46363.50,8079.04 46370.63,8089.00
             46370.63,8089.00 46388.09,8108.57 46388.09,8108.57
             46398.24,8117.92 46403.86,8120.41 46414.00,8127.88
             46414.00,8127.88 46429.00,8140.10 46429.00,8140.10
             46429.00,8140.10 46453.00,8156.57 46453.00,8156.57
             46453.00,8156.57 46465.00,8166.32 46465.00,8166.32
             46465.00,8166.32 46477.00,8174.48 46477.00,8174.48
             46477.00,8174.48 46502.00,8192.94 46502.00,8192.94
             46513.19,8199.85 46519.97,8200.41 46530.00,8205.26
             46530.00,8205.26 46549.00,8216.54 46549.00,8216.54
             46549.00,8216.54 46568.00,8225.55 46568.00,8225.55
             46568.00,8225.55 46582.00,8229.75 46582.00,8229.75
             46582.00,8229.75 46599.00,8235.84 46599.00,8235.84
             46599.00,8235.84 46614.00,8238.66 46614.00,8238.66
             46614.00,8238.66 46635.00,8244.53 46635.00,8244.53
             46635.00,8244.53 46652.00,8248.15 46652.00,8248.15
             46665.04,8251.72 46669.35,8255.75 46678.00,8258.54
             46678.00,8258.54 46698.00,8264.34 46698.00,8264.34
             46712.52,8267.59 46719.66,8267.29 46734.00,8274.78
             46734.00,8274.78 46749.00,8284.13 46749.00,8284.13
             46749.00,8284.13 46767.00,8293.43 46767.00,8293.43
             46767.00,8293.43 46778.00,8300.56 46778.00,8300.56
             46778.00,8300.56 46808.00,8319.67 46808.00,8319.67
             46808.00,8319.67 46826.00,8332.90 46826.00,8332.90
             46826.00,8332.90 46841.00,8340.86 46841.00,8340.86
             46841.00,8340.86 46868.00,8357.92 46868.00,8357.92
             46868.00,8357.92 46897.00,8383.21 46897.00,8383.21
             46897.00,8383.21 46913.00,8392.92 46913.00,8392.92
             46913.00,8392.92 46926.00,8404.03 46926.00,8404.03
             46931.10,8407.31 46936.95,8408.15 46949.00,8416.34
             46949.00,8416.34 46971.00,8432.67 46971.00,8432.67
             46971.00,8432.67 46979.00,8439.37 46979.00,8439.37
             46979.00,8439.37 46993.00,8447.34 46993.00,8447.34
             46993.00,8447.34 47013.00,8460.35 47013.00,8460.35
             47013.00,8460.35 47023.00,8467.53 47023.00,8467.53
             47023.00,8467.53 47034.00,8473.43 47034.00,8473.43
             47034.00,8473.43 47046.00,8480.73 47046.00,8480.73
             47046.00,8480.73 47065.00,8488.43 47065.00,8488.43
             47065.00,8488.43 47076.00,8493.55 47076.00,8493.55
             47076.00,8493.55 47117.00,8509.19 47117.00,8509.19
             47117.00,8509.19 47143.00,8519.31 47143.00,8519.31
             47143.00,8519.31 47159.00,8527.60 47159.00,8527.60
             47159.00,8527.60 47172.00,8535.14 47172.00,8535.14
             47172.00,8535.14 47199.00,8545.33 47199.00,8545.33
             47199.00,8545.33 47216.00,8551.31 47216.00,8551.31
             47226.78,8556.17 47230.94,8560.48 47240.00,8565.66
             47256.14,8574.89 47265.25,8574.69 47279.96,8590.00
             47285.08,8595.32 47292.34,8604.36 47295.51,8611.00
             47295.51,8611.00 47313.95,8656.00 47313.95,8656.00
             47313.95,8656.00 47326.79,8672.00 47326.79,8672.00
             47326.79,8672.00 47335.34,8685.70 47335.34,8685.70
             47335.34,8685.70 47349.83,8698.04 47349.83,8698.04
             47354.21,8702.73 47359.30,8712.30 47363.10,8715.04
             47363.10,8715.04 47376.00,8722.06 47376.00,8722.06
             47380.74,8724.99 47386.01,8729.40 47391.00,8731.29
             47396.25,8733.27 47401.61,8733.65 47407.00,8734.89
             47407.00,8734.89 47425.00,8739.54 47425.00,8739.54
             47425.00,8739.54 47441.00,8741.15 47441.00,8741.15
             47456.83,8743.07 47450.75,8744.22 47470.00,8744.00
             47479.46,8743.89 47484.34,8741.33 47493.00,8738.72
             47498.18,8737.16 47504.24,8736.05 47509.00,8733.73
             47509.00,8733.73 47529.00,8723.01 47529.00,8723.01
             47529.00,8723.01 47580.00,8702.14 47580.00,8702.14
             47584.26,8699.76 47594.61,8693.69 47598.00,8690.79
             47598.00,8690.79 47616.00,8673.89 47616.00,8673.89
             47616.00,8673.89 47640.00,8658.61 47640.00,8658.61
             47640.00,8658.61 47665.00,8634.04 47665.00,8634.04
             47665.00,8634.04 47679.85,8621.70 47679.85,8621.70
             47683.57,8617.94 47683.66,8612.03 47685.36,8607.00
             47687.55,8600.48 47691.38,8593.51 47695.48,8588.00
             47715.58,8560.94 47754.55,8544.05 47788.00,8544.00
             47788.00,8544.00 47878.00,8544.00 47878.00,8544.00
             47878.00,8544.00 47913.00,8547.00 47913.00,8547.00
             47913.00,8547.00 47940.00,8549.92 47940.00,8549.92
             47940.00,8549.92 47949.00,8549.92 47949.00,8549.92
             47949.00,8549.92 47961.00,8551.15 47961.00,8551.15
             47972.78,8552.58 47979.38,8555.98 47992.00,8556.00
             47992.00,8556.00 48054.00,8556.00 48054.00,8556.00
             48054.00,8556.00 48085.00,8559.00 48085.00,8559.00
             48085.00,8559.00 48099.00,8559.00 48099.00,8559.00
             48109.73,8559.02 48119.62,8561.27 48130.00,8563.58
             48149.34,8567.87 48153.87,8568.05 48172.00,8577.52
             48178.65,8580.98 48193.45,8584.27 48197.18,8589.21
             48197.18,8589.21 48203.42,8604.00 48203.42,8604.00
             48203.42,8604.00 48216.25,8631.00 48216.25,8631.00
             48216.25,8631.00 48232.19,8662.00 48232.19,8662.00
             48232.19,8662.00 48239.89,8679.00 48239.89,8679.00
             48239.89,8679.00 48251.49,8699.00 48251.49,8699.00
             48251.49,8699.00 48263.84,8729.00 48263.84,8729.00
             48270.21,8743.69 48270.48,8741.09 48277.26,8753.00
             48283.01,8763.11 48287.77,8774.10 48298.04,8780.52
             48306.83,8786.03 48317.91,8787.11 48328.00,8787.00
             48346.69,8786.78 48352.45,8779.64 48365.00,8776.65
             48379.38,8773.23 48402.04,8773.78 48414.00,8764.47
             48418.00,8761.36 48421.72,8756.98 48423.05,8752.00
             48424.16,8747.83 48422.95,8745.80 48424.69,8743.21
             48426.01,8741.23 48433.60,8736.82 48436.00,8735.52
             48436.00,8735.52 48448.00,8730.69 48448.00,8730.69
             48448.00,8730.69 48468.00,8721.31 48468.00,8721.31
             48468.00,8721.31 48492.00,8710.74 48492.00,8710.74
             48492.00,8710.74 48502.00,8704.87 48502.00,8704.87
             48502.00,8704.87 48548.00,8677.06 48548.00,8677.06
             48548.00,8677.06 48558.00,8671.55 48558.00,8671.55
             48558.00,8671.55 48571.00,8663.06 48571.00,8663.06
             48571.00,8663.06 48595.00,8648.57 48595.00,8648.57
             48595.00,8648.57 48633.00,8620.59 48633.00,8620.59
             48633.00,8620.59 48649.00,8609.98 48649.00,8609.98
             48649.00,8609.98 48658.00,8603.56 48658.00,8603.56
             48658.00,8603.56 48678.00,8593.54 48678.00,8593.54
             48686.55,8588.33 48698.97,8578.37 48708.00,8574.35
             48710.13,8573.40 48718.84,8570.51 48721.00,8570.21
             48734.01,8568.38 48763.08,8573.05 48777.00,8574.72
             48777.00,8574.72 48820.00,8577.00 48820.00,8577.00
             48820.00,8577.00 48836.00,8578.00 48836.00,8578.00
             48836.00,8578.00 48872.00,8580.02 48872.00,8580.02
             48872.00,8580.02 48933.96,8580.02 48933.96,8580.02
             48933.96,8580.02 48952.00,8581.00 48952.00,8581.00
             48952.00,8581.00 48967.00,8581.00 48967.00,8581.00
             48967.00,8581.00 48981.00,8582.00 48981.00,8582.00
             48981.00,8582.00 48994.00,8582.00 48994.00,8582.00
             48994.00,8582.00 49040.00,8576.83 49040.00,8576.83
             49054.65,8575.30 49057.03,8569.17 49063.00,8566.89
             49063.00,8566.89 49082.00,8564.00 49082.00,8564.00
             49082.00,8564.00 49110.00,8560.18 49110.00,8560.18
             49110.00,8560.18 49119.00,8561.31 49119.00,8561.31
             49119.00,8561.31 49144.00,8568.96 49144.00,8568.96
             49144.00,8568.96 49161.00,8572.92 49161.00,8572.92
             49161.00,8572.92 49185.00,8580.24 49185.00,8580.24
             49185.00,8580.24 49193.00,8581.75 49193.00,8581.75
             49193.00,8581.75 49225.00,8589.55 49225.00,8589.55
             49225.00,8589.55 49236.00,8591.50 49236.00,8591.50
             49236.00,8591.50 49273.00,8603.40 49273.00,8603.40
             49273.00,8603.40 49301.00,8614.44 49301.00,8614.44
             49340.88,8631.99 49368.46,8646.38 49413.00,8651.16
             49413.00,8651.16 49428.00,8652.99 49428.00,8652.99
             49442.72,8653.32 49446.44,8650.08 49459.00,8644.31
             49473.20,8637.79 49478.80,8635.05 49492.00,8626.11
             49497.23,8622.57 49503.23,8616.19 49508.00,8614.11
             49508.00,8614.11 49519.00,8610.54 49519.00,8610.54
             49519.00,8610.54 49551.00,8596.74 49551.00,8596.74
             49551.00,8596.74 49589.00,8573.52 49589.00,8573.52
             49589.00,8573.52 49600.00,8568.69 49600.00,8568.69
             49600.00,8568.69 49620.00,8558.52 49620.00,8558.52
             49620.00,8558.52 49629.00,8552.04 49629.00,8552.04
             49629.00,8552.04 49639.00,8545.91 49639.00,8545.91
             49639.00,8545.91 49648.00,8539.55 49648.00,8539.55
             49648.00,8539.55 49671.00,8526.55 49671.00,8526.55
             49671.00,8526.55 49708.00,8504.31 49708.00,8504.31
             49708.00,8504.31 49741.00,8487.43 49741.00,8487.43
             49741.00,8487.43 49762.00,8479.68 49762.00,8479.68
             49774.70,8473.78 49788.34,8462.47 49800.00,8454.28
             49800.00,8454.28 49810.00,8447.35 49810.00,8447.35
             49810.00,8447.35 49821.00,8443.14 49821.00,8443.14
             49847.88,8432.47 49855.84,8433.67 49884.00,8434.00
             49901.62,8434.21 49931.61,8444.88 49945.00,8456.30
             49954.60,8464.48 49957.16,8470.10 49964.46,8479.00
             49964.46,8479.00 49976.28,8492.00 49976.28,8492.00
             49976.28,8492.00 49989.71,8507.00 49989.71,8507.00
             49989.71,8507.00 49998.04,8516.91 49998.04,8516.91
             50013.44,8531.94 50032.24,8547.85 50038.97,8569.00
             50038.97,8569.00 50046.00,8594.00 50046.00,8594.00
             50046.93,8597.24 50049.08,8602.82 50048.05,8606.00
             50047.17,8608.75 50042.77,8613.55 50040.80,8616.00
             50035.82,8622.20 50029.55,8631.54 50030.42,8640.00
             50031.50,8650.55 50047.59,8661.55 50052.07,8672.00
             50052.07,8672.00 50054.10,8682.00 50054.10,8682.00
             50054.10,8682.00 50061.56,8698.00 50061.56,8698.00
             50065.25,8708.10 50062.77,8710.21 50070.09,8721.00
             50073.28,8725.71 50085.45,8737.80 50090.00,8741.70
             50090.00,8741.70 50099.44,8749.46 50099.44,8749.46
             50104.14,8755.04 50106.37,8766.87 50111.39,8772.96
             50114.49,8776.73 50119.15,8779.81 50124.00,8780.67
             50127.47,8781.29 50130.70,8780.52 50134.00,8781.93
             50137.56,8783.45 50141.62,8787.85 50145.72,8788.86
             50149.34,8789.76 50156.39,8786.88 50160.00,8785.67
             50172.47,8781.49 50182.86,8776.32 50194.00,8769.42
             50206.99,8761.38 50214.42,8759.05 50228.00,8753.55
             50228.00,8753.55 50241.00,8747.45 50241.00,8747.45
             50241.00,8747.45 50260.00,8740.55 50260.00,8740.55
             50260.00,8740.55 50273.00,8734.68 50273.00,8734.68
             50273.00,8734.68 50287.00,8726.78 50287.00,8726.78
             50299.28,8721.01 50321.74,8722.51 50326.66,8707.00
             50327.71,8703.85 50327.01,8702.05 50326.66,8699.00
             50325.22,8687.75 50324.26,8688.03 50319.25,8678.00
             50319.25,8678.00 50310.14,8660.00 50310.14,8660.00
             50310.14,8660.00 50302.09,8648.00 50302.09,8648.00
             50296.33,8639.05 50292.57,8630.76 50288.55,8621.00
             50285.14,8612.73 50281.27,8610.25 50280.36,8605.00
             50278.06,8591.78 50294.45,8585.63 50305.00,8586.04
             50305.00,8586.04 50318.00,8587.00 50318.00,8587.00
             50318.00,8587.00 50343.00,8587.00 50343.00,8587.00
             50354.01,8586.98 50353.62,8583.76 50363.00,8578.78
             50379.07,8570.25 50384.21,8571.56 50397.98,8557.96
             50407.30,8548.76 50402.07,8547.75 50405.11,8539.00
             50407.40,8532.39 50412.50,8528.29 50419.00,8526.10
             50425.93,8523.77 50436.18,8524.55 50441.28,8530.33
             50445.69,8535.32 50443.89,8539.72 50447.87,8549.00
             50447.87,8549.00 50454.18,8561.00 50454.18,8561.00
             50454.18,8561.00 50465.22,8590.00 50465.22,8590.00
             50465.22,8590.00 50466.58,8602.00 50466.58,8602.00
             50468.27,8613.85 50465.90,8627.34 50482.00,8629.79
             50495.14,8631.79 50509.76,8623.15 50512.96,8610.00
             50514.75,8602.61 50512.47,8600.69 50512.10,8594.01
             50511.52,8583.52 50512.33,8584.25 50518.10,8576.00
             50530.00,8559.00 50541.39,8556.57 50558.00,8546.55
             50565.54,8542.00 50571.12,8536.41 50580.00,8534.52
             50587.68,8532.88 50597.32,8535.28 50601.87,8542.04
             50604.50,8545.96 50604.66,8549.22 50606.37,8552.91
             50606.37,8552.91 50610.04,8559.09 50610.04,8559.09
             50613.48,8566.32 50612.86,8568.53 50618.38,8576.00
             50621.66,8580.44 50625.13,8584.86 50630.00,8587.64
             50638.04,8592.22 50653.76,8592.10 50663.00,8592.00
             50674.94,8591.86 50694.51,8586.41 50695.61,8572.00
             50695.94,8567.56 50692.02,8557.26 50690.14,8553.00
             50684.42,8540.05 50682.37,8539.90 50676.58,8530.00
             50676.58,8530.00 50661.72,8499.00 50661.72,8499.00
             50660.33,8495.79 50655.52,8483.86 50655.30,8481.00
             50655.06,8477.89 50657.08,8471.20 50658.00,8468.00
             50658.70,8465.55 50659.73,8461.21 50661.09,8459.21
             50662.81,8456.66 50677.40,8447.46 50681.00,8444.98
             50681.00,8444.98 50716.00,8421.31 50716.00,8421.31
             50716.00,8421.31 50733.00,8413.22 50733.00,8413.22
             50733.00,8413.22 50755.00,8400.31 50755.00,8400.31
             50755.00,8400.31 50777.00,8388.94 50777.00,8388.94
             50787.92,8382.16 50791.27,8376.02 50805.00,8376.00
             50805.00,8376.00 50842.00,8376.00 50842.00,8376.00
             50862.23,8376.03 50900.52,8386.78 50919.00,8395.31
             50919.00,8395.31 50934.00,8403.68 50934.00,8403.68
             50934.00,8403.68 50946.00,8408.43 50946.00,8408.43
             50946.00,8408.43 50957.00,8413.55 50957.00,8413.55
             50957.00,8413.55 50967.94,8417.90 50967.94,8417.90
             50973.13,8420.72 50972.87,8425.81 50974.44,8431.00
             50976.32,8437.22 50979.15,8442.32 50985.00,8445.59
             50990.62,8448.73 50997.05,8449.81 51003.00,8452.06
             51015.05,8456.63 51017.26,8458.87 51031.00,8461.79
             51031.00,8461.79 51059.00,8467.65 51059.00,8467.65
             51062.99,8469.48 51066.05,8473.76 51069.00,8477.00
             51076.93,8485.68 51087.75,8499.93 51088.82,8512.00
             51089.45,8519.02 51086.04,8519.89 51083.78,8525.00
             51082.31,8528.33 51082.67,8531.50 51083.13,8535.00
             51084.78,8547.47 51088.55,8548.43 51090.76,8557.00
             51090.76,8557.00 51094.48,8574.00 51094.48,8574.00
             51099.36,8593.09 51104.68,8608.20 51115.23,8625.00
             51126.00,8642.16 51135.59,8649.50 51140.10,8656.00
             51140.10,8656.00 51145.53,8665.00 51145.53,8665.00
             51154.50,8679.21 51167.47,8697.23 51184.00,8702.89
             51186.08,8703.61 51197.65,8704.82 51200.00,8704.82
             51212.75,8704.82 51227.76,8696.83 51239.00,8691.25
             51252.68,8684.45 51250.78,8687.32 51267.00,8677.05
             51279.28,8669.27 51283.84,8663.91 51299.00,8660.51
             51299.00,8660.51 51316.00,8657.17 51316.00,8657.17
             51316.00,8657.17 51345.00,8653.52 51345.00,8653.52
             51345.00,8653.52 51385.00,8639.54 51385.00,8639.54
             51385.00,8639.54 51394.00,8635.54 51394.00,8635.54
             51405.21,8631.46 51418.09,8631.56 51428.00,8624.24
             51437.56,8617.18 51440.86,8605.46 51445.42,8595.00
             51449.98,8584.56 51455.87,8574.82 51461.58,8565.00
             51461.58,8565.00 51469.79,8551.15 51469.79,8551.15
             51472.73,8547.72 51475.88,8548.37 51480.00,8548.13
             51485.32,8547.82 51494.27,8547.22 51499.00,8545.10
             51503.78,8542.95 51508.20,8539.32 51511.15,8535.00
             51513.61,8531.40 51516.04,8525.59 51519.59,8522.82
             51521.82,8521.09 51525.27,8520.97 51528.00,8520.25
             51532.67,8519.01 51539.25,8516.67 51542.96,8513.61
             51551.09,8506.91 51550.41,8500.37 51549.79,8491.00
             51549.86,8488.81 51548.90,8484.12 51549.79,8482.39
             51550.62,8479.94 51554.74,8478.55 51557.00,8477.40
             51557.00,8477.40 51572.00,8467.92 51572.00,8467.92
             51583.18,8461.19 51596.40,8459.91 51609.00,8457.86
             51609.00,8457.86 51638.00,8451.50 51638.00,8451.50
             51638.00,8451.50 51649.00,8449.27 51649.00,8449.27
             51649.00,8449.27 51683.00,8439.43 51683.00,8439.43
             51690.13,8436.39 51690.88,8435.37 51697.00,8431.87
             51697.00,8431.87 51721.00,8419.31 51721.00,8419.31
             51721.00,8419.31 51751.00,8408.67 51751.00,8408.67
             51751.00,8408.67 51763.00,8404.86 51763.00,8404.86
             51768.00,8402.14 51782.73,8386.68 51788.00,8382.19
             51794.99,8376.24 51796.51,8380.25 51805.00,8379.21
             51818.25,8377.57 51824.44,8370.66 51827.00,8358.00
             51827.00,8358.00 51849.00,8356.83 51849.00,8356.83
             51849.00,8356.83 51865.00,8354.38 51865.00,8354.38
             51869.07,8354.51 51877.93,8359.06 51889.00,8352.64
             51902.32,8344.91 51903.82,8330.81 51909.80,8321.10
             51913.74,8314.69 51920.09,8316.10 51927.43,8306.00
             51931.87,8299.89 51930.85,8292.64 51933.16,8289.31
             51934.80,8286.95 51937.47,8286.99 51940.00,8286.22
             51943.57,8285.13 51947.16,8283.33 51949.91,8280.79
             51954.74,8276.33 51955.15,8272.74 51957.69,8269.00
             51959.72,8266.02 51968.08,8257.67 51971.00,8255.39
             51976.86,8250.80 51991.01,8247.21 52005.00,8236.34
             52010.63,8231.96 52015.62,8227.07 52019.44,8221.00
             52021.70,8217.42 52022.73,8212.41 52026.21,8210.30
             52026.21,8210.30 52044.00,8205.00 52044.00,8205.00
             52057.82,8201.03 52075.66,8196.17 52090.00,8196.00
             52090.00,8196.00 52181.00,8196.00 52181.00,8196.00
             52181.00,8196.00 52214.00,8199.00 52214.00,8199.00
             52214.00,8199.00 52240.00,8199.00 52240.00,8199.00
             52240.00,8199.00 52273.00,8202.00 52273.00,8202.00
             52273.00,8202.00 52405.00,8202.00 52405.00,8202.00
             52405.00,8202.00 52418.00,8202.79 52418.00,8202.79
             52423.31,8202.45 52422.78,8201.02 52433.00,8201.00
             52433.00,8201.00 52442.00,8201.00 52442.00,8201.00
             52448.69,8201.08 52449.86,8202.01 52456.00,8203.34
             52464.34,8205.15 52476.86,8208.09 52473.35,8220.00
             52472.64,8222.40 52471.41,8224.01 52470.00,8226.00
             52472.67,8227.92 52475.46,8229.97 52476.98,8233.00
             52478.61,8236.25 52478.05,8249.67 52478.00,8254.00
             52478.00,8254.00 52477.04,8265.00 52477.04,8265.00
             52476.37,8279.01 52476.92,8293.33 52480.00,8307.00
             52480.00,8307.00 52500.00,8300.67 52500.00,8300.67
             52508.88,8298.84 52522.93,8301.44 52522.80,8313.00
             52522.75,8317.96 52518.96,8322.32 52517.63,8327.00
             52517.63,8327.00 52514.73,8357.00 52514.73,8357.00
             52514.11,8361.01 52511.83,8369.40 52512.79,8373.00
             52513.47,8375.56 52516.92,8380.36 52518.43,8383.00
             52526.84,8397.70 52525.42,8396.45 52539.00,8407.46
             52541.30,8409.33 52543.44,8411.41 52546.00,8412.93
             52546.00,8412.93 52562.00,8420.26 52562.00,8420.26
             52562.00,8420.26 52581.00,8431.22 52581.00,8431.22
             52583.28,8432.43 52587.45,8434.97 52590.00,8434.65
             52592.70,8434.32 52597.63,8430.12 52600.00,8428.43
             52606.18,8424.02 52609.35,8422.55 52616.00,8419.25
             52616.00,8419.25 52645.00,8406.19 52645.00,8406.19
             52645.00,8406.19 52657.00,8399.31 52657.00,8399.31
             52657.00,8399.31 52676.00,8389.69 52676.00,8389.69
             52676.00,8389.69 52689.00,8381.45 52689.00,8381.45
             52700.68,8374.40 52715.32,8367.78 52728.00,8362.60
             52728.00,8362.60 52746.00,8355.68 52746.00,8355.68
             52754.18,8351.86 52775.88,8337.58 52784.00,8331.98
             52796.30,8323.48 52808.77,8314.61 52819.83,8304.54
             52819.83,8304.54 52838.00,8286.44 52838.00,8286.44
             52838.00,8286.44 52863.00,8268.10 52863.00,8268.10
             52863.00,8268.10 52877.00,8256.89 52877.00,8256.89
             52877.00,8256.89 52904.00,8239.06 52904.00,8239.06
             52904.00,8239.06 52925.00,8228.53 52925.00,8228.53
             52925.00,8228.53 52944.00,8219.81 52944.00,8219.81
             52944.00,8219.81 53000.00,8203.26 53000.00,8203.26
             53000.00,8203.26 53015.00,8197.01 53015.00,8197.01
             53015.00,8197.01 53037.00,8189.43 53037.00,8189.43
             53037.00,8189.43 53062.00,8183.25 53062.00,8183.25
             53062.00,8183.25 53083.00,8180.11 53083.00,8180.11
             53083.00,8180.11 53131.00,8166.01 53131.00,8166.01
             53131.00,8166.01 53180.00,8153.85 53180.00,8153.85
             53180.00,8153.85 53205.00,8144.49 53205.00,8144.49
             53218.03,8140.91 53227.26,8140.69 53240.00,8138.71
             53240.00,8138.71 53260.00,8134.17 53260.00,8134.17
             53273.82,8132.79 53288.56,8134.07 53301.00,8126.65
             53311.51,8120.37 53311.72,8111.21 53315.44,8101.00
             53315.44,8101.00 53325.21,8080.00 53325.21,8080.00
             53326.85,8076.38 53327.61,8071.12 53330.30,8068.63
             53332.74,8066.38 53344.40,8061.15 53348.00,8059.58
             53358.33,8055.07 53378.83,8045.52 53385.47,8037.00
             53394.64,8025.22 53390.42,8011.87 53396.00,7995.00
             53406.47,7998.40 53416.23,7998.65 53424.98,7990.81
             53427.38,7988.67 53429.70,7986.18 53430.57,7983.00
             53432.06,7977.52 53430.05,7964.05 53432.97,7956.00
             53435.35,7949.42 53441.28,7944.46 53445.40,7939.00
             53445.40,7939.00 53455.21,7924.29 53455.21,7924.29
             53465.44,7913.79 53477.41,7909.01 53490.00,7902.75
             53490.00,7902.75 53514.00,7891.36 53514.00,7891.36
             53528.67,7886.41 53546.86,7881.22 53548.13,7862.42
             53548.40,7858.43 53547.15,7852.74 53549.17,7849.18
             53551.76,7844.63 53562.29,7840.38 53567.00,7837.47
             53567.00,7837.47 53627.00,7809.14 53627.00,7809.14
             53627.00,7809.14 53646.00,7797.56 53646.00,7797.56
             53648.24,7796.84 53652.54,7796.98 53655.00,7797.00
             53660.62,7797.07 53672.46,7798.79 53678.00,7800.13
             53680.43,7800.72 53684.18,7801.34 53685.69,7803.51
             53686.81,7805.14 53687.71,7812.52 53688.20,7815.00
             53689.98,7823.95 53690.89,7829.49 53696.68,7837.00
             53698.79,7839.73 53701.19,7842.35 53704.00,7844.37
             53713.72,7851.36 53735.02,7856.43 53747.00,7855.96
             53750.53,7855.82 53755.98,7854.30 53759.00,7855.22
             53762.09,7856.16 53767.38,7860.77 53770.00,7862.92
             53774.85,7866.89 53786.90,7875.58 53789.93,7880.17
             53792.87,7884.62 53793.80,7890.67 53796.04,7895.00
             53799.69,7902.04 53808.91,7913.73 53815.00,7918.66
             53822.95,7925.10 53837.93,7926.99 53848.00,7927.93
             53853.86,7928.47 53861.97,7928.99 53867.00,7931.99
             53869.23,7933.31 53875.70,7937.58 53877.05,7939.52
             53877.05,7939.52 53880.19,7948.00 53880.19,7948.00
             53881.93,7951.77 53886.89,7957.83 53890.09,7960.47
             53901.53,7969.94 53922.19,7969.22 53929.99,7974.14
             53942.56,7982.08 53939.51,7992.32 53956.00,8002.18
             53965.35,8007.77 53976.26,8009.80 53987.00,8010.83
             53993.45,8011.45 53998.81,8010.51 54005.00,8013.79
             54005.00,8013.79 54027.00,8027.76 54027.00,8027.76
             54027.00,8027.76 54036.00,8034.90 54036.00,8034.90
             54045.89,8041.46 54053.40,8042.78 54066.00,8053.32
             54066.00,8053.32 54094.00,8079.40 54094.00,8079.40
             54108.33,8089.89 54116.98,8090.02 54129.00,8096.87
             54142.29,8104.45 54144.86,8110.16 54152.00,8114.27
             54152.00,8114.27 54165.00,8120.31 54165.00,8120.31
             54170.02,8123.05 54173.36,8125.84 54179.00,8128.08
             54189.33,8132.18 54193.83,8131.51 54207.00,8138.26
             54212.94,8141.30 54219.63,8145.22 54225.00,8149.15
             54228.79,8151.93 54233.73,8156.38 54238.00,8158.01
             54238.00,8158.01 54250.00,8160.16 54250.00,8160.16
             54255.92,8161.78 54257.67,8163.85 54263.00,8165.93
             54267.97,8167.88 54280.05,8171.50 54284.00,8173.99
             54288.49,8176.83 54290.99,8180.61 54290.87,8186.00
             54290.79,8189.66 54288.26,8194.37 54292.18,8196.83
             54292.18,8196.83 54312.00,8200.23 54312.00,8200.23
             54312.00,8200.23 54321.00,8202.54 54321.00,8202.54
             54321.00,8202.54 54330.00,8204.16 54330.00,8204.16
             54330.00,8204.16 54345.00,8208.86 54345.00,8208.86
             54355.89,8211.98 54362.36,8212.91 54372.00,8219.78
             54376.67,8223.10 54389.24,8233.00 54392.70,8237.00
             54400.66,8246.23 54398.85,8249.74 54413.00,8262.91
             54422.32,8271.59 54429.96,8274.24 54433.79,8278.18
             54433.79,8278.18 54440.21,8286.96 54440.21,8286.96
             54443.65,8290.83 54446.84,8292.25 54451.53,8298.00
             54451.53,8298.00 54459.33,8308.61 54459.33,8308.61
             54463.02,8312.08 54474.12,8315.69 54477.30,8319.39
             54477.30,8319.39 54487.90,8337.00 54487.90,8337.00
             54491.52,8342.16 54503.84,8354.40 54509.00,8358.24
             54523.54,8369.05 54538.47,8372.96 54556.00,8375.92
             54563.20,8377.13 54582.30,8379.79 54587.79,8383.27
             54591.43,8385.59 54591.64,8389.53 54593.63,8393.00
             54596.03,8397.18 54601.00,8403.39 54605.00,8406.04
             54621.28,8416.78 54634.01,8413.65 54651.00,8417.89
             54655.18,8418.94 54663.58,8421.05 54667.00,8423.14
             54670.68,8425.38 54676.49,8431.13 54680.00,8432.10
             54680.00,8432.10 54698.00,8431.04 54698.00,8431.04
             54703.92,8431.35 54720.02,8440.16 54727.00,8442.99
             54727.00,8442.99 54744.00,8448.36 54744.00,8448.36
             54744.00,8448.36 54759.00,8454.00 54759.00,8454.00
             54759.00,8454.00 54771.96,8458.01 54771.96,8458.01
             54776.77,8460.66 54777.92,8466.56 54784.00,8469.70
             54790.34,8472.98 54812.51,8474.69 54821.00,8476.68
             54835.93,8480.17 54852.60,8494.16 54856.96,8509.00
             54858.47,8514.16 54857.91,8518.72 54858.00,8524.00
             54858.17,8532.85 54864.13,8533.32 54871.00,8537.69
             54886.56,8547.59 54895.51,8552.68 54909.00,8566.00
             54909.00,8566.00 54926.00,8580.17 54926.00,8580.17
             54926.00,8580.17 54936.17,8590.83 54936.17,8590.83
             54936.17,8590.83 54942.96,8597.04 54942.96,8597.04
             54947.95,8602.04 54953.19,8611.46 54957.09,8613.73
             54957.09,8613.73 54993.00,8625.88 54993.00,8625.88
             54993.00,8625.88 55035.00,8642.31 55035.00,8642.31
             55035.00,8642.31 55054.00,8652.68 55054.00,8652.68
             55054.00,8652.68 55070.00,8658.68 55070.00,8658.68
             55070.00,8658.68 55083.00,8664.30 55083.00,8664.30
             55090.60,8667.73 55105.11,8674.24 55113.00,8674.82
             55113.00,8674.82 55126.00,8674.04 55126.00,8674.04
             55138.65,8674.53 55153.85,8676.96 55162.54,8687.04
             55162.54,8687.04 55172.47,8701.00 55172.47,8701.00
             55175.77,8706.92 55174.72,8710.72 55182.00,8714.56
             55182.00,8714.56 55203.00,8720.34 55203.00,8720.34
             55203.00,8720.34 55233.00,8731.14 55233.00,8731.14
             55233.00,8731.14 55250.00,8736.57 55250.00,8736.57
             55257.84,8739.38 55266.87,8739.44 55272.73,8746.09
             55276.22,8750.05 55278.18,8757.90 55280.20,8763.00
             55284.49,8773.82 55290.91,8785.12 55291.62,8797.00
             55291.93,8802.01 55289.23,8808.56 55289.30,8812.00
             55289.40,8816.50 55296.28,8826.30 55299.13,8830.00
             55300.71,8832.04 55302.45,8834.51 55305.04,8835.31
             55307.41,8836.05 55311.53,8834.74 55314.00,8834.21
             55322.23,8832.43 55331.44,8828.19 55339.00,8828.01
             55346.80,8827.83 55356.13,8829.72 55357.62,8839.00
             55357.62,8839.00 55355.93,8854.00 55355.93,8854.00
             55355.93,8854.00 55353.10,8871.00 55353.10,8871.00
             55353.10,8871.00 55350.46,8881.00 55350.46,8881.00
             55350.46,8881.00 55349.83,8889.00 55349.83,8889.00
             55349.83,8889.00 55347.73,8903.00 55347.73,8903.00
             55347.14,8906.79 55344.61,8916.13 55344.93,8919.00
             55345.33,8922.47 55353.33,8937.00 55356.21,8938.86
             55358.86,8940.58 55370.26,8942.69 55375.58,8949.10
             55379.40,8953.70 55379.06,8959.40 55379.00,8965.00
             55379.00,8965.00 55377.57,8981.00 55377.57,8981.00
             55377.58,8989.61 55382.01,9010.64 55385.09,9019.00
             55386.20,9022.01 55387.83,9030.76 55389.58,9032.39
             55391.70,9034.35 55395.41,9033.35 55398.00,9033.00
             55398.00,9033.00 55419.00,9030.09 55419.00,9030.09
             55425.49,9029.72 55433.72,9032.42 55436.26,9039.00
             55437.31,9041.72 55437.00,9048.79 55437.00,9052.00
             55437.00,9052.00 55437.00,9077.00 55437.00,9077.00
             55437.03,9079.55 55436.96,9084.68 55438.87,9086.59
             55441.12,9088.84 55454.97,9090.82 55456.77,9101.00
             55458.64,9111.58 55449.30,9120.99 55445.46,9130.00
             55442.43,9137.12 55441.29,9143.70 55439.26,9151.00
             55439.26,9151.00 55434.91,9163.00 55434.91,9163.00
             55433.52,9166.69 55432.87,9170.74 55430.49,9173.98
             55426.01,9180.10 55417.46,9183.40 55410.00,9182.90
             55408.22,9182.79 55406.72,9182.42 55405.00,9182.00
             55404.18,9199.90 55401.21,9202.69 55394.31,9218.00
             55394.31,9218.00 55389.51,9230.00 55389.51,9230.00
             55389.51,9230.00 55382.31,9243.00 55382.31,9243.00
             55382.31,9243.00 55373.93,9260.61 55373.93,9260.61
             55370.91,9264.56 55363.47,9264.92 55357.64,9273.00
             55353.16,9279.20 55351.99,9287.89 55349.46,9295.00
             55349.46,9295.00 55337.20,9322.00 55337.20,9322.00
             55333.26,9329.78 55329.44,9337.84 55324.43,9345.00
             55310.35,9365.15 55308.59,9362.21 55298.93,9387.00
             55298.93,9387.00 55295.49,9395.00 55295.49,9395.00
             55295.49,9395.00 55296.00,9418.00 55296.00,9418.00
             55295.99,9425.50 55294.80,9438.64 55290.79,9444.96
             55283.84,9455.91 55271.30,9456.32 55260.00,9457.09
             55260.00,9457.09 55236.00,9458.00 55236.00,9458.00
             55236.00,9458.00 55213.00,9456.04 55213.00,9456.04
             55213.00,9456.04 55204.00,9456.04 55204.00,9456.04
             55204.00,9456.04 55182.00,9453.83 55182.00,9453.83
             55182.00,9453.83 55162.00,9451.17 55162.00,9451.17
             55162.00,9451.17 55118.00,9447.83 55118.00,9447.83
             55118.00,9447.83 55087.00,9445.00 55087.00,9445.00
             55087.00,9445.00 55087.00,9449.00 55087.00,9449.00
             55087.00,9449.00 55089.58,9467.00 55089.58,9467.00
             55091.05,9477.79 55088.88,9478.88 55094.98,9490.00
             55095.90,9491.68 55097.19,9494.25 55098.49,9495.59
             55098.49,9495.59 55126.96,9509.79 55126.96,9509.79
             55136.61,9517.05 55137.05,9531.77 55137.59,9542.83
             55137.59,9542.83 55136.91,9559.00 55136.91,9559.00
             55136.74,9561.78 55135.91,9564.21 55137.64,9566.68
             55137.64,9566.68 55145.00,9573.09 55145.00,9573.09
             55147.56,9575.44 55153.55,9582.33 55156.17,9583.40
             55160.19,9585.04 55165.95,9582.21 55173.99,9586.95
             55181.23,9591.23 55192.09,9606.74 55197.20,9614.00
             55201.33,9619.87 55207.75,9628.30 55206.77,9636.00
             55205.98,9642.28 55200.19,9647.70 55196.01,9652.00
             55192.21,9655.92 55186.24,9663.34 55183.47,9668.00
             55180.96,9672.21 55180.89,9677.32 55179.57,9682.00
             55179.57,9682.00 55172.81,9700.00 55172.81,9700.00
             55171.58,9703.24 55170.88,9707.06 55168.57,9709.68
             55168.57,9709.68 55156.00,9720.16 55156.00,9720.16
             55147.10,9728.10 55138.42,9736.69 55128.00,9742.66
             55128.00,9742.66 55121.00,9746.47 55121.00,9746.47
             55121.00,9746.47 55114.00,9751.06 55114.00,9751.06
             55109.92,9753.10 55102.98,9753.45 55097.39,9760.09
             55089.39,9769.61 55098.00,9779.42 55101.12,9789.00
             55102.16,9792.21 55104.45,9796.50 55102.36,9799.56
             55102.36,9799.56 55077.00,9820.17 55077.00,9820.17
             55077.00,9820.17 55051.00,9847.99 55051.00,9847.99
             55051.00,9847.99 55036.00,9861.70 55036.00,9861.70
             55031.26,9865.75 55028.79,9867.09 55024.04,9872.00
             55012.83,9883.61 55014.16,9886.74 55008.03,9899.00
             55004.82,9905.42 54996.36,9918.33 54991.82,9923.86
             54987.26,9929.41 54980.06,9927.52 54973.55,9936.02
             54971.63,9938.52 54970.59,9941.25 54969.12,9944.00
             54969.12,9944.00 54960.96,9958.00 54960.96,9958.00
             54960.96,9958.00 54957.96,9965.00 54957.96,9965.00
             54956.98,9967.00 54950.60,9976.08 54949.08,9977.78
             54942.14,9985.56 54927.84,9983.10 54921.65,9997.00
             54919.65,10001.50 54921.06,10009.62 54921.00,10015.00
             54920.95,10018.76 54919.94,10034.22 54918.07,10036.69
             54914.98,10040.76 54910.67,10037.27 54902.00,10040.88
             54890.61,10045.62 54878.83,10052.62 54869.00,10060.04
             54851.67,10073.13 54849.77,10086.83 54850.00,10107.00
             54850.13,10117.87 54852.78,10127.48 54854.74,10138.00
             54855.35,10141.27 54857.15,10149.15 54856.46,10152.00
             54855.71,10155.08 54847.61,10167.87 54845.41,10171.00
             54845.41,10171.00 54814.24,10211.00 54814.24,10211.00
             54806.58,10221.02 54802.10,10230.12 54792.91,10240.00
             54792.91,10240.00 54778.00,10254.09 54778.00,10254.09
             54778.00,10254.09 54768.00,10263.71 54768.00,10263.71
             54752.77,10277.07 54731.19,10289.78 54714.00,10301.08
             54714.00,10301.08 54672.00,10328.69 54672.00,10328.69
             54672.00,10328.69 54648.00,10343.69 54648.00,10343.69
             54638.63,10348.77 54628.84,10351.47 54619.00,10355.23
             54619.00,10355.23 54589.00,10370.47 54589.00,10370.47
             54589.00,10370.47 54569.00,10385.96 54569.00,10385.96
             54569.00,10385.96 54538.00,10406.08 54538.00,10406.08
             54538.00,10406.08 54523.00,10416.65 54523.00,10416.65
             54523.00,10416.65 54498.00,10432.94 54498.00,10432.94
             54498.00,10432.94 54487.00,10439.36 54487.00,10439.36
             54487.00,10439.36 54464.00,10455.95 54464.00,10455.95
             54464.00,10455.95 54442.00,10467.92 54442.00,10467.92
             54442.00,10467.92 54425.00,10479.58 54425.00,10479.58
             54425.00,10479.58 54392.00,10498.42 54392.00,10498.42
             54392.00,10498.42 54375.00,10509.14 54375.00,10509.14
             54375.00,10509.14 54345.00,10524.12 54345.00,10524.12
             54345.00,10524.12 54320.00,10537.57 54320.00,10537.57
             54320.00,10537.57 54292.00,10549.19 54292.00,10549.19
             54292.00,10549.19 54279.00,10553.51 54279.00,10553.51
             54279.00,10553.51 54262.00,10562.69 54262.00,10562.69
             54262.00,10562.69 54232.00,10575.49 54232.00,10575.49
             54232.00,10575.49 54210.00,10589.97 54210.00,10589.97
             54210.00,10589.97 54197.00,10598.08 54197.00,10598.08
             54197.00,10598.08 54176.00,10611.57 54176.00,10611.57
             54176.00,10611.57 54141.00,10628.86 54141.00,10628.86
             54141.00,10628.86 54090.00,10658.99 54090.00,10658.99
             54090.00,10658.99 53993.00,10716.20 53993.00,10716.20
             53993.00,10716.20 53953.00,10739.69 53953.00,10739.69
             53953.00,10739.69 53934.04,10749.33 53934.04,10749.33
             53930.64,10751.58 53923.73,10759.36 53920.42,10762.72
             53913.91,10769.33 53908.67,10773.74 53901.00,10778.97
             53883.13,10791.16 53862.37,10796.58 53842.00,10802.72
             53831.31,10805.94 53827.73,10809.98 53816.00,10810.00
             53816.00,10810.00 53794.00,10810.00 53794.00,10810.00
             53794.00,10810.00 53774.00,10808.00 53774.00,10808.00
             53774.00,10808.00 53753.00,10808.00 53753.00,10808.00
             53753.00,10808.00 53728.00,10806.00 53728.00,10806.00
             53728.00,10806.00 53691.00,10804.51 53691.00,10804.51
             53681.14,10803.89 53663.61,10811.12 53665.24,10823.00
             53665.72,10826.56 53667.74,10828.57 53668.59,10832.00
             53668.59,10832.00 53669.47,10839.00 53669.47,10839.00
             53670.39,10843.90 53674.44,10853.90 53677.22,10858.00
             53677.22,10858.00 53709.10,10894.00 53709.10,10894.00
             53716.11,10903.22 53719.40,10912.33 53723.42,10923.00
             53728.80,10937.24 53732.98,10946.32 53733.00,10962.00
             53733.00,10962.00 53733.00,10991.00 53733.00,10991.00
             53732.80,11008.05 53727.27,11027.63 53722.74,11044.00
             53720.36,11052.61 53717.45,11066.40 53712.93,11074.00
             53708.08,11082.16 53696.56,11088.08 53689.31,11104.00
             53689.31,11104.00 53681.10,11130.00 53681.10,11130.00
             53681.10,11130.00 53675.87,11139.00 53675.87,11139.00
             53675.87,11139.00 53671.83,11147.00 53671.83,11147.00
             53671.83,11147.00 53661.15,11167.00 53661.15,11167.00
             53661.15,11167.00 53652.47,11195.00 53652.47,11195.00
             53648.41,11202.05 53637.65,11207.45 53631.00,11211.89
             53617.43,11220.94 53608.47,11229.95 53607.18,11247.00
             53606.66,11253.92 53612.09,11262.90 53604.78,11268.12
             53599.90,11271.64 53590.75,11268.36 53585.00,11268.12
             53570.23,11267.45 53553.80,11276.13 53555.19,11293.00
             53555.19,11293.00 53556.82,11303.00 53556.82,11303.00
             53556.82,11303.00 53555.29,11314.00 53555.29,11314.00
             53555.29,11314.00 53554.71,11324.00 53554.71,11324.00
             53553.67,11331.97 53549.57,11342.36 53546.75,11350.00
             53546.75,11350.00 53543.43,11361.00 53543.43,11361.00
             53543.43,11361.00 53525.93,11385.00 53525.93,11385.00
             53525.93,11385.00 53519.53,11395.00 53519.53,11395.00
             53519.53,11395.00 53516.02,11403.00 53516.02,11403.00
             53516.02,11403.00 53509.27,11415.00 53509.27,11415.00
             53509.27,11415.00 53492.94,11441.00 53492.94,11441.00
             53490.44,11445.54 53485.89,11459.75 53484.93,11465.00
             53484.93,11465.00 53484.28,11473.00 53484.28,11473.00
             53484.28,11473.00 53474.40,11495.00 53474.40,11495.00
             53473.05,11498.37 53468.78,11509.45 53466.87,11511.71
             53464.27,11514.79 53456.93,11514.53 53453.00,11515.31
             53445.73,11516.75 53435.95,11521.30 53432.27,11528.00
             53429.26,11533.51 53431.42,11537.47 53432.27,11543.00
             53432.97,11547.27 53431.95,11548.51 53432.27,11552.00
             53432.72,11558.42 53435.81,11558.64 53429.96,11567.00
             53426.85,11571.44 53406.27,11593.98 53402.00,11597.83
             53402.00,11597.83 53391.00,11607.09 53391.00,11607.09
             53384.34,11613.28 53372.02,11625.54 53364.00,11629.24
             53359.52,11631.31 53350.46,11631.57 53345.00,11632.90
             53345.00,11632.90 53310.00,11645.06 53310.00,11645.06
             53310.00,11645.06 53285.00,11655.18 53285.00,11655.18
             53285.00,11655.18 53276.00,11660.10 53276.00,11660.10
             53276.00,11660.10 53255.00,11667.96 53255.00,11667.96
             53255.00,11667.96 53230.00,11675.09 53230.00,11675.09
             53230.00,11675.09 53219.00,11679.80 53219.00,11679.80
             53219.00,11679.80 53206.00,11684.90 53206.00,11684.90
             53206.00,11684.90 53198.00,11687.10 53198.00,11687.10
             53198.00,11687.10 53182.00,11692.52 53182.00,11692.52
             53182.00,11692.52 53142.00,11702.04 53142.00,11702.04
             53142.00,11702.04 53115.00,11711.97 53115.00,11711.97
             53115.00,11711.97 53101.00,11716.37 53101.00,11716.37
             53093.87,11719.06 53067.56,11731.86 53062.00,11736.04
             53052.29,11743.35 53038.86,11758.57 53032.47,11769.00
             53032.47,11769.00 53027.51,11779.00 53027.51,11779.00
             53024.07,11785.47 53011.70,11803.90 53006.83,11808.72
             52993.91,11821.48 52989.25,11823.06 52975.00,11832.75
             52975.00,11832.75 52954.00,11848.37 52954.00,11848.37
             52945.16,11855.00 52936.37,11859.72 52938.00,11872.00
             52938.00,11872.00 52920.00,11881.45 52920.00,11881.45
             52920.00,11881.45 52888.00,11902.92 52888.00,11902.92
             52888.00,11902.92 52869.00,11914.45 52869.00,11914.45
             52869.00,11914.45 52856.00,11922.69 52856.00,11922.69
             52856.00,11922.69 52842.00,11929.86 52842.00,11929.86
             52842.00,11929.86 52821.00,11941.74 52821.00,11941.74
             52821.00,11941.74 52798.00,11951.81 52798.00,11951.81
             52798.00,11951.81 52779.00,11962.73 52779.00,11962.73
             52779.00,11962.73 52762.00,11970.25 52762.00,11970.25
             52762.00,11970.25 52714.00,11994.74 52714.00,11994.74
             52714.00,11994.74 52701.00,12000.31 52701.00,12000.31
             52701.00,12000.31 52682.00,12009.14 52682.00,12009.14
             52682.00,12009.14 52661.00,12017.25 52661.00,12017.25
             52661.00,12017.25 52642.00,12023.31 52642.00,12023.31
             52642.00,12023.31 52594.00,12047.72 52594.00,12047.72
             52594.00,12047.72 52560.00,12060.20 52560.00,12060.20
             52560.00,12060.20 52527.00,12075.14 52527.00,12075.14
             52527.00,12075.14 52508.00,12082.43 52508.00,12082.43
             52508.00,12082.43 52485.00,12093.69 52485.00,12093.69
             52485.00,12093.69 52468.00,12101.12 52468.00,12101.12
             52468.00,12101.12 52451.00,12110.74 52451.00,12110.74
             52451.00,12110.74 52425.00,12120.45 52425.00,12120.45
             52425.00,12120.45 52394.00,12132.98 52394.00,12132.98
             52376.55,12138.40 52359.89,12140.41 52342.00,12143.41
             52342.00,12143.41 52267.00,12156.61 52267.00,12156.61
             52267.00,12156.61 52247.00,12160.44 52247.00,12160.44
             52247.00,12160.44 52231.00,12166.56 52231.00,12166.56
             52220.96,12170.21 52202.63,12173.87 52192.00,12174.00
             52175.52,12174.19 52158.89,12172.11 52143.00,12167.57
             52143.00,12167.57 52127.00,12162.43 52127.00,12162.43
             52107.45,12156.85 52101.07,12153.45 52083.00,12146.01
             52083.00,12146.01 52061.00,12136.74 52061.00,12136.74
             52061.00,12136.74 52046.00,12127.52 52046.00,12127.52
             52046.00,12127.52 52026.00,12117.39 52026.00,12117.39
             52026.00,12117.39 51997.00,12097.99 51997.00,12097.99
             51997.00,12097.99 51986.00,12089.52 51986.00,12089.52
             51986.00,12089.52 51945.00,12064.76 51945.00,12064.76
             51945.00,12064.76 51916.00,12045.43 51916.00,12045.43
             51916.00,12045.43 51892.00,12033.75 51892.00,12033.75
             51892.00,12033.75 51867.00,12021.70 51867.00,12021.70
             51867.00,12021.70 51851.00,12017.28 51851.00,12017.28
             51841.70,12014.51 51823.45,12007.97 51815.00,12003.75
             51815.00,12003.75 51798.00,11993.82 51798.00,11993.82
             51798.00,11993.82 51777.00,11983.39 51777.00,11983.39
             51777.00,11983.39 51744.00,11962.78 51744.00,11962.78
             51744.00,11962.78 51726.00,11954.75 51726.00,11954.75
             51726.00,11954.75 51710.00,11946.09 51710.00,11946.09
             51710.00,11946.09 51685.00,11936.69 51685.00,11936.69
             51685.00,11936.69 51667.00,11926.31 51667.00,11926.31
             51667.00,11926.31 51651.00,11918.69 51651.00,11918.69
             51651.00,11918.69 51634.00,11908.06 51634.00,11908.06
             51634.00,11908.06 51604.00,11889.81 51604.00,11889.81
             51604.00,11889.81 51556.00,11860.20 51556.00,11860.20
             51556.00,11860.20 51542.00,11852.55 51542.00,11852.55
             51542.00,11852.55 51525.00,11841.08 51525.00,11841.08
             51525.00,11841.08 51508.00,11830.33 51508.00,11830.33
             51508.00,11830.33 51480.00,11809.44 51480.00,11809.44
             51480.00,11809.44 51468.00,11801.92 51468.00,11801.92
             51468.00,11801.92 51441.00,11783.69 51441.00,11783.69
             51441.00,11783.69 51426.00,11774.77 51426.00,11774.77
             51426.00,11774.77 51405.00,11760.34 51405.00,11760.34
             51405.00,11760.34 51391.00,11753.14 51391.00,11753.14
             51391.00,11753.14 51378.00,11745.37 51378.00,11745.37
             51378.00,11745.37 51362.00,11737.69 51362.00,11737.69
             51362.00,11737.69 51346.00,11728.27 51346.00,11728.27
             51346.00,11728.27 51310.00,11710.74 51310.00,11710.74
             51310.00,11710.74 51257.00,11681.31 51257.00,11681.31
             51257.00,11681.31 51243.00,11674.69 51243.00,11674.69
             51243.00,11674.69 51219.00,11659.20 51219.00,11659.20
             51219.00,11659.20 51202.00,11649.55 51202.00,11649.55
             51202.00,11649.55 51156.00,11620.95 51156.00,11620.95
             51156.00,11620.95 51138.00,11608.44 51138.00,11608.44
             51138.00,11608.44 51103.00,11588.31 51103.00,11588.31
             51103.00,11588.31 51065.00,11568.14 51065.00,11568.14
             51065.00,11568.14 51035.00,11551.26 51035.00,11551.26
             51035.00,11551.26 51010.00,11541.14 51010.00,11541.14
             51010.00,11541.14 50997.00,11534.48 50997.00,11534.48
             50997.00,11534.48 50966.00,11519.74 50966.00,11519.74
             50966.00,11519.74 50939.00,11503.95 50939.00,11503.95
             50939.00,11503.95 50927.00,11496.31 50927.00,11496.31
             50927.00,11496.31 50914.00,11489.69 50914.00,11489.69
             50914.00,11489.69 50899.00,11481.37 50899.00,11481.37
             50899.00,11481.37 50886.00,11475.73 50886.00,11475.73
             50886.00,11475.73 50870.00,11466.43 50870.00,11466.43
             50870.00,11466.43 50844.00,11452.14 50844.00,11452.14
             50844.00,11452.14 50810.00,11430.45 50810.00,11430.45
             50810.00,11430.45 50774.00,11409.47 50774.00,11409.47
             50774.00,11409.47 50757.00,11397.23 50757.00,11397.23
             50757.00,11397.23 50739.00,11385.96 50739.00,11385.96
             50739.00,11385.96 50721.00,11371.50 50721.00,11371.50
             50721.00,11371.50 50692.00,11350.08 50692.00,11350.08
             50692.00,11350.08 50682.00,11342.30 50682.00,11342.30
             50682.00,11342.30 50647.00,11319.49 50647.00,11319.49
             50647.00,11319.49 50632.00,11307.21 50632.00,11307.21
             50632.00,11307.21 50604.00,11289.81 50604.00,11289.81
             50604.00,11289.81 50589.00,11278.48 50589.00,11278.48
             50589.00,11278.48 50579.00,11271.49 50579.00,11271.49
             50579.00,11271.49 50568.00,11262.33 50568.00,11262.33
             50568.00,11262.33 50557.00,11254.53 50557.00,11254.53
             50548.01,11247.79 50532.91,11236.24 50525.17,11228.72
             50525.17,11228.72 50504.96,11207.10 50504.96,11207.10
             50504.96,11207.10 50493.00,11197.83 50493.00,11197.83
             50493.00,11197.83 50479.99,11184.17 50479.99,11184.17
             50476.98,11181.43 50461.94,11171.75 50458.00,11169.52
             50458.00,11169.52 50443.00,11162.69 50443.00,11162.69
             50437.92,11159.91 50433.40,11156.10 50428.00,11153.93
             50428.00,11153.93 50411.00,11148.40 50411.00,11148.40
             50411.00,11148.40 50398.00,11142.45 50398.00,11142.45
             50398.00,11142.45 50353.00,11127.43 50353.00,11127.43
             50353.00,11127.43 50312.00,11117.57 50312.00,11117.57
             50312.00,11117.57 50295.00,11111.06 50295.00,11111.06
             50295.00,11111.06 50272.00,11103.00 50272.00,11103.00
             50272.00,11103.00 50245.00,11093.74 50245.00,11093.74
             50245.00,11093.74 50209.00,11081.40 50209.00,11081.40
             50190.75,11073.95 50173.81,11063.59 50157.00,11053.45
             50157.00,11053.45 50134.00,11040.33 50134.00,11040.33
             50134.00,11040.33 50122.00,11031.22 50122.00,11031.22
             50122.00,11031.22 50105.00,11021.48 50105.00,11021.48
             50105.00,11021.48 50083.00,11005.68 50083.00,11005.68
             50083.00,11005.68 50070.00,10994.28 50070.00,10994.28
             50070.00,10994.28 50057.00,10984.68 50057.00,10984.68
             50057.00,10984.68 50044.04,10973.00 50044.04,10973.00
             50044.04,10973.00 50034.00,10962.04 50034.00,10962.04
             50034.00,10962.04 50012.00,10943.00 50012.00,10943.00
             50006.67,10938.40 49997.93,10930.08 49992.00,10927.13
             49982.59,10922.46 49974.02,10921.26 49964.00,10919.39
             49964.00,10919.39 49922.00,10914.91 49922.00,10914.91
             49922.00,10914.91 49911.00,10914.00 49911.00,10914.00
             49911.00,10914.00 49893.00,10914.00 49893.00,10914.00
             49893.00,10914.00 49863.00,10912.00 49863.00,10912.00
             49863.00,10912.00 49829.00,10909.83 49829.00,10909.83
             49829.00,10909.83 49778.00,10905.00 49778.00,10905.00
             49770.34,10905.09 49755.98,10908.14 49748.00,10909.58
             49743.55,10910.38 49735.64,10911.04 49732.00,10912.48
             49723.54,10915.83 49713.44,10924.64 49707.00,10931.00
             49699.08,10938.82 49692.61,10944.23 49686.55,10954.00
             49686.55,10954.00 49680.03,10968.00 49680.03,10968.00
             49680.03,10968.00 49672.46,10983.00 49672.46,10983.00
             49672.46,10983.00 49665.00,11008.00 49665.00,11008.00
             49657.88,11026.18 49658.16,11021.82 49650.96,11036.00
             49650.96,11036.00 49642.99,11052.00 49642.99,11052.00
             49630.98,11072.56 49607.69,11094.19 49590.00,11110.17
             49590.00,11110.17 49566.00,11133.91 49566.00,11133.91
             49554.22,11144.88 49540.80,11153.30 49528.00,11162.89
             49528.00,11162.89 49486.00,11194.31 49486.00,11194.31
             49471.53,11203.51 49455.52,11210.08 49440.00,11217.18
             49440.00,11217.18 49420.00,11226.99 49420.00,11226.99
             49420.00,11226.99 49381.00,11239.29 49381.00,11239.29
             49381.00,11239.29 49364.00,11244.45 49364.00,11244.45
             49364.00,11244.45 49347.00,11252.57 49347.00,11252.57
             49347.00,11252.57 49305.00,11269.22 49305.00,11269.22
             49305.00,11269.22 49288.00,11277.69 49288.00,11277.69
             49288.00,11277.69 49273.00,11283.86 49273.00,11283.86
             49273.00,11283.86 49257.00,11291.69 49257.00,11291.69
             49257.00,11291.69 49238.00,11299.66 49238.00,11299.66
             49238.00,11299.66 49216.00,11311.69 49216.00,11311.69
             49216.00,11311.69 49194.00,11319.88 49194.00,11319.88
             49194.00,11319.88 49170.00,11332.14 49170.00,11332.14
             49170.00,11332.14 49118.00,11352.06 49118.00,11352.06
             49118.00,11352.06 49102.00,11359.69 49102.00,11359.69
             49102.00,11359.69 49078.00,11368.97 49078.00,11368.97
             49052.74,11377.01 49032.16,11378.30 49006.00,11378.00
             48994.29,11377.86 48974.11,11373.61 48962.00,11371.42
             48962.00,11371.42 48923.00,11363.57 48923.00,11363.57
             48901.60,11357.47 48853.84,11336.31 48835.00,11324.58
             48823.44,11317.38 48817.23,11312.71 48807.00,11303.72
             48802.72,11299.95 48800.92,11297.68 48796.00,11294.21
             48796.00,11294.21 48781.00,11284.25 48781.00,11284.25
             48781.00,11284.25 48756.00,11264.50 48756.00,11264.50
             48756.00,11264.50 48743.00,11255.53 48743.00,11255.53
             48743.00,11255.53 48727.00,11241.45 48727.00,11241.45
             48727.00,11241.45 48699.00,11219.70 48699.00,11219.70
             48699.00,11219.70 48692.00,11213.46 48692.00,11213.46
             48685.62,11208.22 48682.20,11206.56 48676.09,11200.00
             48676.09,11200.00 48661.38,11181.00 48661.38,11181.00
             48656.94,11175.58 48653.65,11173.09 48649.52,11167.00
             48649.52,11167.00 48630.42,11140.00 48630.42,11140.00
             48628.30,11136.58 48624.94,11128.98 48621.81,11127.17
             48618.88,11125.49 48604.62,11125.14 48600.42,11124.74
             48600.42,11124.74 48573.00,11124.00 48573.00,11124.00
             48573.00,11124.00 48544.00,11122.00 48544.00,11122.00
             48544.00,11122.00 48514.00,11122.00 48514.00,11122.00
             48514.00,11122.00 48479.00,11120.00 48479.00,11120.00
             48467.65,11119.98 48457.97,11117.28 48447.00,11115.43
             48447.00,11115.43 48408.00,11110.83 48408.00,11110.83
             48401.44,11110.14 48401.17,11109.04 48393.00,11109.00
             48393.00,11109.00 48375.00,11110.00 48375.00,11110.00
             48375.00,11110.00 48356.00,11110.93 48356.00,11110.93
             48353.19,11111.19 48349.66,11111.23 48347.27,11112.93
             48342.23,11116.53 48340.64,11132.02 48339.54,11138.00
             48337.97,11146.51 48327.51,11172.72 48323.80,11182.00
             48323.80,11182.00 48311.69,11210.00 48311.69,11210.00
             48311.69,11210.00 48300.86,11228.00 48300.86,11228.00
             48300.86,11228.00 48295.68,11239.00 48295.68,11239.00
             48295.68,11239.00 48287.06,11256.00 48287.06,11256.00
             48278.70,11277.45 48281.93,11276.54 48277.97,11289.00
             48277.97,11289.00 48268.95,11309.00 48268.95,11309.00
             48268.95,11309.00 48266.57,11318.00 48266.57,11318.00
             48265.47,11321.88 48263.77,11326.31 48262.14,11330.00
             48253.83,11348.78 48242.08,11362.31 48225.00,11373.64
             48225.00,11373.64 48196.00,11388.78 48196.00,11388.78
             48196.00,11388.78 48177.00,11398.69 48177.00,11398.69
             48177.00,11398.69 48161.00,11405.31 48161.00,11405.31
             48161.00,11405.31 48141.00,11414.40 48141.00,11414.40
             48141.00,11414.40 48124.00,11420.45 48124.00,11420.45
             48124.00,11420.45 48105.00,11428.56 48105.00,11428.56
             48105.00,11428.56 48078.00,11436.46 48078.00,11436.46
             48066.33,11441.03 48055.81,11447.95 48045.00,11454.13
             48045.00,11454.13 48028.00,11462.75 48028.00,11462.75
             48028.00,11462.75 47994.00,11478.96 47994.00,11478.96
             47985.61,11484.42 47976.78,11497.31 47969.83,11505.00
             47963.94,11511.52 47946.53,11525.47 47939.00,11531.11
             47931.37,11536.82 47909.90,11549.15 47901.00,11553.74
             47895.61,11556.52 47881.16,11563.92 47877.21,11567.53
             47877.21,11567.53 47862.56,11589.00 47862.56,11589.00
             47851.81,11601.77 47837.25,11611.05 47822.00,11617.57
             47808.03,11623.55 47800.78,11624.05 47787.00,11627.47
             47787.00,11627.47 47762.00,11634.42 47762.00,11634.42
             47762.00,11634.42 47742.00,11640.02 47742.00,11640.02
             47742.00,11640.02 47712.00,11649.11 47712.00,11649.11
             47712.00,11649.11 47676.00,11655.90 47676.00,11655.90
             47676.00,11655.90 47648.00,11664.77 47648.00,11664.77
             47648.00,11664.77 47603.00,11673.29 47603.00,11673.29
             47603.00,11673.29 47581.00,11682.20 47581.00,11682.20
             47581.00,11682.20 47556.00,11692.31 47556.00,11692.31
             47556.00,11692.31 47524.00,11714.97 47524.00,11714.97
             47524.00,11714.97 47510.00,11722.86 47510.00,11722.86
             47510.00,11722.86 47486.00,11737.74 47486.00,11737.74
             47486.00,11737.74 47466.00,11753.30 47466.00,11753.30
             47466.00,11753.30 47456.00,11762.71 47456.00,11762.71
             47456.00,11762.71 47419.00,11793.55 47419.00,11793.55
             47419.00,11793.55 47390.00,11815.64 47390.00,11815.64
             47390.00,11815.64 47366.00,11830.66 47366.00,11830.66
             47342.73,11848.73 47319.65,11866.89 47294.00,11881.57
             47294.00,11881.57 47279.00,11889.31 47279.00,11889.31
             47279.00,11889.31 47249.00,11905.57 47249.00,11905.57
             47236.13,11911.08 47224.55,11913.28 47211.00,11916.00 Z" />
</svg>
